<svg xmlns="http://www.w3.org/2000/svg" width="128" height="128" viewBox="0 0 128 128">
  <g id="组_3780" data-name="组 3780" transform="translate(787 -4794)">
    <rect id="矩形_3104" data-name="矩形 3104" width="128" height="128" transform="translate(-787 4794)" fill="none"/>
    <g id="cute" transform="translate(-787 4806)">
      <path id="路径_5444" data-name="路径 5444" d="M8.672,49.975,21.837,18.605A17.305,17.305,0,0,1,37.794,8h63.76A17.305,17.305,0,0,1,117.51,18.605l13.166,31.368A14.191,14.191,0,0,1,126.638,66.4l-48.164,39.86a13.8,13.8,0,0,1-17.6,0L12.709,66.4A14.188,14.188,0,0,1,8.672,49.975Zm0,0" transform="translate(-5.674 -6.122)" fill="#8ed7e8"/>
      <path id="路径_5445" data-name="路径 5445" d="M10.133,214.746a14.175,14.175,0,0,0,4.5,6.714L62.8,261.319a13.8,13.8,0,0,0,17.6,0l48.164-39.859a14.175,14.175,0,0,0,4.5-6.714Zm0,0" transform="translate(-7.6 -161.185)" fill="#7ac1dd"/>
      <path id="路径_5446" data-name="路径 5446" d="M114.536,233.07l14.028-11.61a14.175,14.175,0,0,0,4.5-6.714H10.133a14.175,14.175,0,0,0,4.5,6.714l14.028,11.61A196.354,196.354,0,0,1,114.536,233.07Zm0,0" transform="translate(-7.6 -161.185)" fill="#61a5ce"/>
      <path id="路径_5447" data-name="路径 5447" d="M169.23,59.684h43.385L190.923,8Zm0,0" transform="translate(-126.923 -6.122)" fill="#ccf8ff"/>
      <path id="路径_5448" data-name="路径 5448" d="M382.544,69.513a14.174,14.174,0,0,0-.465-9.709L368.914,28.435a17.276,17.276,0,0,0-5.827-7.333L342.77,69.513Zm0,0" transform="translate(-257.077 -15.951)" fill="#abebf4"/>
      <path id="路径_5449" data-name="路径 5449" d="M27.663,21.1a17.292,17.292,0,0,0-5.827,7.334L8.672,59.8a14.174,14.174,0,0,0-.465,9.709H47.982Zm0,0" transform="translate(-5.674 -15.948)" fill="#abebf4"/>
      <path id="路径_5450" data-name="路径 5450" d="M212.615,214.746H169.23l12.891,46.573a13.8,13.8,0,0,0,17.6,0Zm0,0" transform="translate(-126.923 -161.185)" fill="#8ed7e8"/>
      <path id="路径_5451" data-name="路径 5451" d="M234.93,124.421a7.023,7.023,0,0,1-7.023-7.022v-5.106a1.917,1.917,0,0,1,1.917-1.917h10.213a1.917,1.917,0,0,1,1.917,1.917V117.4A7.023,7.023,0,0,1,234.93,124.421Zm0,0" transform="translate(-170.93 -82.906)" fill="#57565c"/>
      <path id="路径_5452" data-name="路径 5452" d="M147.045,120.567c0-3.295-3.354-5.966-7.491-5.966s-7.491,2.671-7.491,5.966,3.354,5.966,7.491,5.966S147.045,123.862,147.045,120.567Zm0,0" transform="translate(-99.047 -86.076)" fill="#ffc7de"/>
      <path id="路径_5453" data-name="路径 5453" d="M334.987,120.567c0-3.295-3.354-5.966-7.491-5.966S320,117.272,320,120.567s3.354,5.966,7.492,5.966S334.987,123.862,334.987,120.567Zm0,0" transform="translate(-240.003 -86.076)" fill="#ffc7de"/>
      <path id="路径_5454" data-name="路径 5454" d="M173.209,229.119a196.382,196.382,0,0,1,35.428,0l3.979-14.373H169.23Zm0,0" transform="translate(-126.923 -161.185)" fill="#7ac1dd"/>
      <path id="路径_5455" data-name="路径 5455" d="M331.012,104.783a1.874,1.874,0,0,0,1.874-1.874V99.8a1.875,1.875,0,1,0-3.749,0v3.112A1.875,1.875,0,0,0,331.012,104.783Zm0,0" transform="translate(-246.853 -73.566)"/>
      <path id="路径_5456" data-name="路径 5456" d="M169.741,104.783a1.874,1.874,0,0,0,1.875-1.874V99.8a1.875,1.875,0,1,0-3.749,0v3.112A1.874,1.874,0,0,0,169.741,104.783Zm0,0" transform="translate(-125.901 -73.566)"/>
      <path id="路径_5457" data-name="路径 5457" d="M126.732,43.627,113.566,12.258A19.136,19.136,0,0,0,95.88.5H32.121A19.136,19.136,0,0,0,14.435,12.258L1.27,43.627A15.972,15.972,0,0,0,5.84,62.22L54,102.079a15.692,15.692,0,0,0,19.992,0L122.161,62.22A15.973,15.973,0,0,0,126.732,43.627ZM4.726,45.077,17.891,13.709a15.452,15.452,0,0,1,3.356-4.984l7.316,17.433a1.874,1.874,0,0,0,2.454,1,1.826,1.826,0,0,0,1-2.454L24.321,6.36a15.418,15.418,0,0,1,7.8-2.111H61.181L55.249,18.384a1.874,1.874,0,1,0,3.457,1.45L64,7.218,69.3,19.834a1.691,1.691,0,0,0,2.454,1,1.863,1.863,0,0,0,1-2.454L66.82,4.249H95.88a15.421,15.421,0,0,1,7.8,2.111l-7.7,18.346a1.848,1.848,0,0,0,1,2.454,1.822,1.822,0,0,0,2.454-1l7.315-17.433a15.436,15.436,0,0,1,3.356,4.984l13.165,31.368a12.305,12.305,0,0,1,.751,7.109H88.512l4.409-10.5a1.875,1.875,0,0,0-3.457-1.451L84.447,52.187H43.554L38.537,40.231a1.875,1.875,0,0,0-3.457,1.451l4.409,10.5H3.976A12.314,12.314,0,0,1,4.726,45.077Zm.64,10.859H40.881L51.8,95.391,8.231,59.331A12.408,12.408,0,0,1,5.366,55.937ZM56.842,99.543,44.772,55.937H83.229L71.159,99.543A11.944,11.944,0,0,1,56.842,99.543ZM119.77,59.331,76.2,95.391l10.92-39.454h35.517A12.408,12.408,0,0,1,119.77,59.331Zm0,0" transform="translate(-0.001 -0.5)"/>
      <path id="路径_5458" data-name="路径 5458" d="M229.308,120.671a8.907,8.907,0,0,0,8.9-8.9v-5.106a3.8,3.8,0,0,0-3.791-3.792H224.2a3.8,3.8,0,0,0-3.791,3.792v5.106A8.907,8.907,0,0,0,229.308,120.671ZM224.2,106.624h10.212c.023,0,.043,5.149.043,5.149a5.149,5.149,0,0,1-10.3,0S224.178,106.624,224.2,106.624Zm0,0" transform="translate(-165.308 -77.281)"/>
    </g>
  </g>
</svg>
