<svg id="Flat" height="512" viewBox="0 0 64 64" width="512" xmlns="http://www.w3.org/2000/svg"><circle cx="32" cy="32" fill="#fff096" r="19"/><g fill="#f6e05c"><path d="m34 15a18.9835 18.9835 0 0 0 -14.3873 31.3873 18.9835 18.9835 0 0 0 26.7746-26.7746 18.9086 18.9086 0 0 0 -12.3873-4.6127z"/><path d="m32 60.75a.75.75 0 0 1 -.75-.75v-4a.75.75 0 0 1 1.5 0v4a.75.75 0 0 1 -.75.75z"/><path d="m32 8.75a.75.75 0 0 1 -.75-.75v-4a.75.75 0 0 1 1.5 0v4a.75.75 0 0 1 -.75.75z"/><path d="m46.375 56.8982a.75.75 0 0 1 -1.0245-.2745l-2-3.4641a.75.75 0 0 1 1.299-.75l2 3.4641a.75.75 0 0 1 -.2745 1.0245z"/><path d="m20.375 11.8649a.75.75 0 0 1 -1.0245-.2745l-2-3.4641a.75.75 0 0 1 1.299-.75l2 3.4641a.75.75 0 0 1 -.2745 1.0245z"/><path d="m56.8982 46.375a.75.75 0 0 1 -1.0245.2745l-3.4641-2a.75.75 0 1 1 .75-1.299l3.4641 2a.75.75 0 0 1 .2745 1.0245z"/><path d="m11.8649 20.375a.75.75 0 0 1 -1.0249.275l-3.4641-2a.75.75 0 0 1 .75-1.299l3.4641 2a.75.75 0 0 1 .2749 1.024z"/><path d="m60.75 32a.75.75 0 0 1 -.75.75h-4a.75.75 0 0 1 0-1.5h4a.75.75 0 0 1 .75.75z"/><path d="m8.75 32a.75.75 0 0 1 -.75.75h-4a.75.75 0 0 1 0-1.5h4a.75.75 0 0 1 .75.75z"/><path d="m56.8982 17.625a.75.75 0 0 1 -.2745 1.0245l-3.4641 2a.75.75 0 0 1 -.75-1.299l3.4641-2a.75.75 0 0 1 1.0245.2745z"/><path d="m11.8649 43.625a.75.75 0 0 1 -.2749 1.025l-3.4641 2a.75.75 0 0 1 -.75-1.299l3.4641-2a.75.75 0 0 1 1.0249.274z"/><path d="m46.375 7.1018a.75.75 0 0 1 .275 1.0245l-2 3.4641a.75.75 0 0 1 -1.299-.75l2-3.4641a.75.75 0 0 1 1.024-.2745z"/><path d="m20.375 52.1351a.75.75 0 0 1 .275 1.0249l-2 3.4641a.75.75 0 0 1 -1.299-.75l2-3.4641a.75.75 0 0 1 1.024-.2749z"/></g><path d="m32 40.75a4.7634 4.7634 0 0 1 -4.0938-2.3726.75.75 0 0 1 1.2969-.7548 3.2171 3.2171 0 0 0 5.5938 0 .75.75 0 0 1 1.2969.7548 4.7634 4.7634 0 0 1 -4.0938 2.3726z" fill="#f05660"/><path d="m29 31.75a.75.75 0 0 1 -.5166-1.2935 5.1 5.1 0 0 1 7.0342.0005.75.75 0 0 1 -1.0352 1.086 3.5994 3.5994 0 0 0 -4.9658.0005.7459.7459 0 0 1 -.5166.2065z" fill="#d72332"/><path d="m41 26.5h-18a.75.75 0 0 1 0-1.5h18a.75.75 0 0 1 0 1.5z" fill="#d72332"/><path d="m23 36.4545a4.6165 4.6165 0 0 1 -2.8679-.98l-.669-.5323a6.3185 6.3185 0 0 1 -2.4631-4.934 4.7018 4.7018 0 0 1 4.909-4.4627h2.182a4.7018 4.7018 0 0 1 4.909 4.4627 6.3185 6.3185 0 0 1 -2.4631 4.9345l-.669.5323a4.6165 4.6165 0 0 1 -2.8679.9795z" fill="#414650"/><path d="m41 36.4545a4.6165 4.6165 0 0 0 2.8679-.98l.669-.5323a6.3185 6.3185 0 0 0 2.4631-4.934 4.7018 4.7018 0 0 0 -4.909-4.4627h-2.182a4.7018 4.7018 0 0 0 -4.909 4.4627 6.3185 6.3185 0 0 0 2.4631 4.9345l.669.5323a4.6165 4.6165 0 0 0 2.8679.9795z" fill="#414650"/><path d="m24.2 26.5a3.6836 3.6836 0 0 1 3.9 3.409 5.4594 5.4594 0 0 1 -2.1431 4.2541l-.736.5855a3.6576 3.6576 0 0 1 -4.4418 0l-.736-.5854a5.4594 5.4594 0 0 1 -2.1431-4.2542 3.6836 3.6836 0 0 1 3.9-3.409zm0-1.5h-2.4a5.172 5.172 0 0 0 -5.4 4.909 6.9507 6.9507 0 0 0 2.7093 5.428l.7361.5855a5.1566 5.1566 0 0 0 6.3092 0l.7361-.5855a6.9507 6.9507 0 0 0 2.7093-5.428 5.172 5.172 0 0 0 -5.4-4.909z" fill="#e13c46"/><path d="m42.2 26.5a3.6836 3.6836 0 0 1 3.9 3.409 5.4594 5.4594 0 0 1 -2.1431 4.2541l-.736.5855a3.6576 3.6576 0 0 1 -4.4418 0l-.736-.5854a5.4594 5.4594 0 0 1 -2.1431-4.2542 3.6836 3.6836 0 0 1 3.9-3.409zm0-1.5h-2.4a5.172 5.172 0 0 0 -5.4 4.909 6.9507 6.9507 0 0 0 2.7093 5.428l.7361.5855a5.1566 5.1566 0 0 0 6.3092 0l.7361-.5855a6.9507 6.9507 0 0 0 2.7093-5.428 5.172 5.172 0 0 0 -5.4-4.909z" fill="#e13c46"/></svg>