<svg xmlns="http://www.w3.org/2000/svg" width="300" height="229.2" viewBox="0 0 300 229.2">
  <g id="img-1" transform="translate(4900 -805)">
    <rect id="矩形_3126" data-name="矩形 3126" width="300" height="229.2" transform="translate(-4900 805)" fill="#fff" opacity="0"/>
    <g id="TEAM" transform="translate(-4861 826.75)">
      <g id="组_3946" data-name="组 3946" transform="translate(0 0)">
        <g id="组_3782" data-name="组 3782" transform="translate(70.509 128.31)">
          <g id="组_3781" data-name="组 3781">
            <path id="路径_5459" data-name="路径 5459" d="M1021.337,1336.9H966.595a3.965,3.965,0,0,0-3.965,3.965v33.711H1025.3v-33.711A3.965,3.965,0,0,0,1021.337,1336.9Z" transform="translate(-962.63 -1336.899)" fill="#c9c9c9"/>
          </g>
        </g>
        <g id="组_3784" data-name="组 3784" transform="translate(68.716 165.986)">
          <g id="组_3783" data-name="组 3783" transform="translate(0 0)">
            <rect id="矩形_3105" data-name="矩形 3105" width="66.942" height="3.739" fill="#c9c9c9"/>
          </g>
        </g>
        <g id="组_3786" data-name="组 3786" transform="translate(98.577 143.433)">
          <g id="组_3785" data-name="组 3785" transform="translate(0 0)">
            <circle id="椭圆_54" data-name="椭圆 54" cx="3.61" cy="3.61" r="3.61" fill="#fff"/>
          </g>
        </g>
        <g id="组_3788" data-name="组 3788" transform="translate(23.521 120.525)">
          <g id="组_3787" data-name="组 3787">
            <path id="矩形_3106" data-name="矩形 3106" d="M18.868,0h0A18.868,18.868,0,0,1,37.736,18.868v5.719A18.868,18.868,0,0,1,18.868,43.455h0A18.868,18.868,0,0,1,0,24.587V18.868A18.868,18.868,0,0,1,18.868,0Z" fill="#e5ddd9"/>
          </g>
        </g>
        <g id="组_3790" data-name="组 3790" transform="translate(165.196 128.175)">
          <g id="组_3789" data-name="组 3789">
            <path id="路径_5460" data-name="路径 5460" d="M1602.432,1343.65h-8.55v15.45h23.55V1336h-14.85Z" transform="translate(-1593.882 -1336)" fill="#c4a693"/>
          </g>
        </g>
        <g id="组_3792" data-name="组 3792" transform="translate(79.976 0.675)">
          <g id="组_3791" data-name="组 3791">
            <path id="路径_5461" data-name="路径 5461" d="M1059.618,486h-24.3a9.57,9.57,0,0,0-9.57,9.57v11.16a9.57,9.57,0,0,0,9.57,9.57h8.77l3.883,6,4.717-6h6.93a9.57,9.57,0,0,0,9.57-9.57V495.57A9.57,9.57,0,0,0,1059.618,486Z" transform="translate(-1025.748 -486)" fill="#e5ddd9"/>
          </g>
        </g>
        <g id="组_3794" data-name="组 3794" transform="translate(87.894 12.488)">
          <g id="组_3793" data-name="组 3793">
            <circle id="椭圆_55" data-name="椭圆 55" cx="2.7" cy="2.7" r="2.7" fill="#fff"/>
          </g>
        </g>
        <g id="组_3796" data-name="组 3796" transform="translate(99.144 12.488)">
          <g id="组_3795" data-name="组 3795">
            <circle id="椭圆_56" data-name="椭圆 56" cx="2.7" cy="2.7" r="2.7" fill="#fff"/>
          </g>
        </g>
        <g id="组_3798" data-name="组 3798" transform="translate(110.394 12.488)">
          <g id="组_3797" data-name="组 3797">
            <circle id="椭圆_57" data-name="椭圆 57" cx="2.7" cy="2.7" r="2.7" fill="#fff"/>
          </g>
        </g>
        <g id="组_3800" data-name="组 3800" transform="translate(83.189 57.518)">
          <g id="组_3799" data-name="组 3799">
            <path id="路径_5462" data-name="路径 5462" d="M1065.821,903.668a18.677,18.677,0,0,1-18.656-18.656,21.01,21.01,0,0,1,5.424-13.851,17.2,17.2,0,0,1,26.464,0,21.009,21.009,0,0,1,5.424,13.851A18.677,18.677,0,0,1,1065.821,903.668Zm0-36.465c-8.74,0-16.406,8.322-16.406,17.809a16.406,16.406,0,1,0,32.811,0C1082.226,875.525,1074.56,867.2,1065.821,867.2Z" transform="translate(-1047.165 -864.953)" fill="#7f7f7f"/>
          </g>
        </g>
        <g id="组_3805" data-name="组 3805" transform="translate(74.596 90.975)">
          <g id="组_3802" data-name="组 3802" transform="translate(36.272)">
            <g id="组_3801" data-name="组 3801">
              <path id="路径_5463" data-name="路径 5463" d="M1248.748,1126.175a1.125,1.125,0,0,1-1.125-1.125V1105a14.791,14.791,0,0,0-14.8-14.746,1.125,1.125,0,0,1,0-2.25,16.991,16.991,0,0,1,17.053,17v20.054A1.125,1.125,0,0,1,1248.748,1126.175Z" transform="translate(-1231.695 -1088)" fill="#7f7f7f"/>
            </g>
          </g>
          <g id="组_3804" data-name="组 3804">
            <g id="组_3803" data-name="组 3803">
              <path id="路径_5464" data-name="路径 5464" d="M991.007,1126.175a1.125,1.125,0,0,1-1.125-1.125V1105a16.837,16.837,0,0,1,5.012-12.037,17.037,17.037,0,0,1,12.077-4.959,1.125,1.125,0,0,1,0,2.25A14.81,14.81,0,0,0,992.132,1105v20.054A1.125,1.125,0,0,1,991.007,1126.175Z" transform="translate(-989.882 -1088)" fill="#7f7f7f"/>
            </g>
          </g>
        </g>
        <g id="组_3810" data-name="组 3810" transform="translate(84.946 112.65)">
          <g id="组_3807" data-name="组 3807" transform="translate(31.5)">
            <g id="组_3806" data-name="组 3806">
              <path id="路径_5465" data-name="路径 5465" d="M1270.007,1248.4a1.125,1.125,0,0,1-1.125-1.125v-13.65a1.125,1.125,0,0,1,2.25,0v13.65A1.125,1.125,0,0,1,1270.007,1248.4Z" transform="translate(-1268.882 -1232.5)" fill="#7f7f7f"/>
            </g>
          </g>
          <g id="组_3809" data-name="组 3809">
            <g id="组_3808" data-name="组 3808">
              <path id="路径_5466" data-name="路径 5466" d="M1060.007,1248.4a1.125,1.125,0,0,1-1.125-1.125v-13.65a1.125,1.125,0,0,1,2.25,0v13.65A1.125,1.125,0,0,1,1060.007,1248.4Z" transform="translate(-1058.882 -1232.5)" fill="#7f7f7f"/>
            </g>
          </g>
        </g>
        <g id="组_3817" data-name="组 3817" transform="translate(184.771 20.025)">
          <g id="组_3812" data-name="组 3812">
            <g id="组_3811" data-name="组 3811">
              <path id="路径_5467" data-name="路径 5467" d="M1741.407,617.25h-15.9a1.125,1.125,0,0,1,0-2.25h15.9a1.125,1.125,0,0,1,0,2.25Z" transform="translate(-1724.382 -615)" fill="#7f7f7f"/>
            </g>
          </g>
          <g id="组_3814" data-name="组 3814" transform="translate(0 9.6)">
            <g id="组_3813" data-name="组 3813">
              <path id="路径_5468" data-name="路径 5468" d="M1754.007,681.25h-28.5a1.125,1.125,0,0,1,0-2.25h28.5a1.125,1.125,0,0,1,0,2.25Z" transform="translate(-1724.382 -679)" fill="#7f7f7f"/>
            </g>
          </g>
          <g id="组_3816" data-name="组 3816" transform="translate(0 19.8)">
            <g id="组_3815" data-name="组 3815">
              <path id="路径_5469" data-name="路径 5469" d="M1754.007,749.25h-28.5a1.125,1.125,0,0,1,0-2.25h28.5a1.125,1.125,0,0,1,0,2.25Z" transform="translate(-1724.382 -747)" fill="#7f7f7f"/>
            </g>
          </g>
        </g>
        <g id="组_3828" data-name="组 3828" transform="translate(22.396 119.4)">
          <g id="组_3819" data-name="组 3819">
            <g id="组_3818" data-name="组 3818">
              <path id="路径_5470" data-name="路径 5470" d="M677.52,1323.2H646.23a4.353,4.353,0,0,1-4.348-4.348v-37.008a4.353,4.353,0,0,1,4.348-4.348h31.29a4.353,4.353,0,0,1,4.348,4.348v37.008A4.353,4.353,0,0,1,677.52,1323.2Zm-31.29-43.455a2.1,2.1,0,0,0-2.1,2.1v37.008a2.1,2.1,0,0,0,2.1,2.1h31.29a2.1,2.1,0,0,0,2.1-2.1v-37.008a2.1,2.1,0,0,0-2.1-2.1Z" transform="translate(-641.882 -1277.5)" fill="#7f7f7f"/>
            </g>
          </g>
          <g id="组_3821" data-name="组 3821" transform="translate(6.975 8.775)">
            <g id="组_3820" data-name="组 3820">
              <path id="路径_5471" data-name="路径 5471" d="M713.207,1338.25h-23.7a1.125,1.125,0,0,1,0-2.25h23.7a1.125,1.125,0,0,1,0,2.25Z" transform="translate(-688.382 -1336)" fill="#7f7f7f"/>
            </g>
          </g>
          <g id="组_3823" data-name="组 3823" transform="translate(6.975 17.475)">
            <g id="组_3822" data-name="组 3822">
              <path id="路径_5472" data-name="路径 5472" d="M713.207,1396.25h-23.7a1.125,1.125,0,0,1,0-2.25h23.7a1.125,1.125,0,0,1,0,2.25Z" transform="translate(-688.382 -1394)" fill="#7f7f7f"/>
            </g>
          </g>
          <g id="组_3825" data-name="组 3825" transform="translate(6.975 26.025)">
            <g id="组_3824" data-name="组 3824">
              <path id="路径_5473" data-name="路径 5473" d="M713.207,1453.25h-23.7a1.125,1.125,0,0,1,0-2.25h23.7a1.125,1.125,0,0,1,0,2.25Z" transform="translate(-688.382 -1451)" fill="#7f7f7f"/>
            </g>
          </g>
          <g id="组_3827" data-name="组 3827" transform="translate(6.975 34.725)">
            <g id="组_3826" data-name="组 3826">
              <path id="路径_5474" data-name="路径 5474" d="M713.207,1511.25h-23.7a1.125,1.125,0,0,1,0-2.25h23.7a1.125,1.125,0,0,1,0,2.25Z" transform="translate(-688.382 -1509)" fill="#7f7f7f"/>
            </g>
          </g>
        </g>
        <g id="组_3837" data-name="组 3837" transform="translate(196.5 170.085)">
          <g id="组_3830" data-name="组 3830" transform="translate(4.334)">
            <g id="组_3829" data-name="组 3829">
              <path id="路径_5475" data-name="路径 5475" d="M1832.59,1618.5a1.125,1.125,0,0,1-.8-1.921l.853-.852a1.125,1.125,0,0,1,1.591,1.591l-.853.853A1.122,1.122,0,0,1,1832.59,1618.5Z" transform="translate(-1831.465 -1615.398)" fill="#7f7f7f"/>
            </g>
          </g>
          <g id="组_3832" data-name="组 3832" transform="translate(0.071 4.263)">
            <g id="组_3831" data-name="组 3831">
              <path id="路径_5476" data-name="路径 5476" d="M1804.172,1646.919a1.125,1.125,0,0,1-.8-1.921l.852-.853a1.125,1.125,0,1,1,1.591,1.591l-.853.852A1.122,1.122,0,0,1,1804.172,1646.919Z" transform="translate(-1803.047 -1643.817)" fill="#7f7f7f"/>
            </g>
          </g>
          <g id="组_3834" data-name="组 3834">
            <g id="组_3833" data-name="组 3833">
              <path id="路径_5477" data-name="路径 5477" d="M1804.551,1618.5a1.122,1.122,0,0,1-.8-.33l-.852-.853a1.125,1.125,0,0,1,1.591-1.591l.853.852a1.125,1.125,0,0,1-.8,1.921Z" transform="translate(-1802.573 -1615.398)" fill="#7f7f7f"/>
            </g>
          </g>
          <g id="组_3836" data-name="组 3836" transform="translate(4.334 4.334)">
            <g id="组_3835" data-name="组 3835">
              <path id="路径_5478" data-name="路径 5478" d="M1833.372,1647.322a1.121,1.121,0,0,1-.8-.33l-.781-.781a1.125,1.125,0,0,1,1.591-1.591l.782.781a1.125,1.125,0,0,1-.8,1.921Z" transform="translate(-1831.465 -1644.29)" fill="#7f7f7f"/>
            </g>
          </g>
        </g>
        <g id="组_3846" data-name="组 3846" transform="translate(197.4 108.135)">
          <g id="组_3839" data-name="组 3839" transform="translate(4.334)">
            <g id="组_3838" data-name="组 3838">
              <path id="路径_5479" data-name="路径 5479" d="M1838.59,1205.5a1.125,1.125,0,0,1-.8-1.921l.853-.853a1.125,1.125,0,0,1,1.591,1.591l-.853.853A1.121,1.121,0,0,1,1838.59,1205.5Z" transform="translate(-1837.465 -1202.398)" fill="#7f7f7f"/>
            </g>
          </g>
          <g id="组_3841" data-name="组 3841" transform="translate(0.071 4.263)">
            <g id="组_3840" data-name="组 3840">
              <path id="路径_5480" data-name="路径 5480" d="M1810.172,1233.919a1.125,1.125,0,0,1-.8-1.92l.852-.853a1.125,1.125,0,0,1,1.591,1.591l-.853.853A1.121,1.121,0,0,1,1810.172,1233.919Z" transform="translate(-1809.047 -1230.817)" fill="#7f7f7f"/>
            </g>
          </g>
          <g id="组_3843" data-name="组 3843">
            <g id="组_3842" data-name="组 3842">
              <path id="路径_5481" data-name="路径 5481" d="M1810.551,1205.5a1.122,1.122,0,0,1-.8-.33l-.852-.853a1.125,1.125,0,0,1,1.591-1.591l.853.853a1.125,1.125,0,0,1-.8,1.921Z" transform="translate(-1808.573 -1202.398)" fill="#7f7f7f"/>
            </g>
          </g>
          <g id="组_3845" data-name="组 3845" transform="translate(4.334 4.334)">
            <g id="组_3844" data-name="组 3844">
              <path id="路径_5482" data-name="路径 5482" d="M1839.372,1234.321a1.121,1.121,0,0,1-.8-.329l-.781-.781a1.125,1.125,0,0,1,1.591-1.591l.782.781a1.125,1.125,0,0,1-.8,1.92Z" transform="translate(-1837.465 -1231.29)" fill="#7f7f7f"/>
            </g>
          </g>
        </g>
        <g id="组_3855" data-name="组 3855" transform="translate(0 138.285)">
          <g id="组_3848" data-name="组 3848" transform="translate(4.334)">
            <g id="组_3847" data-name="组 3847">
              <path id="路径_5483" data-name="路径 5483" d="M522.59,1406.5a1.125,1.125,0,0,1-.8-1.921l.853-.852a1.125,1.125,0,0,1,1.591,1.591l-.853.853A1.122,1.122,0,0,1,522.59,1406.5Z" transform="translate(-521.465 -1403.398)" fill="#7f7f7f"/>
            </g>
          </g>
          <g id="组_3850" data-name="组 3850" transform="translate(0.071 4.263)">
            <g id="组_3849" data-name="组 3849">
              <path id="路径_5484" data-name="路径 5484" d="M494.172,1434.919a1.125,1.125,0,0,1-.8-1.92l.852-.853a1.125,1.125,0,0,1,1.591,1.591l-.853.852A1.121,1.121,0,0,1,494.172,1434.919Z" transform="translate(-493.047 -1431.817)" fill="#7f7f7f"/>
            </g>
          </g>
          <g id="组_3852" data-name="组 3852">
            <g id="组_3851" data-name="组 3851">
              <path id="路径_5485" data-name="路径 5485" d="M494.551,1406.5a1.122,1.122,0,0,1-.8-.33l-.852-.853a1.125,1.125,0,1,1,1.591-1.591l.853.852a1.125,1.125,0,0,1-.8,1.921Z" transform="translate(-492.573 -1403.398)" fill="#7f7f7f"/>
            </g>
          </g>
          <g id="组_3854" data-name="组 3854" transform="translate(4.334 4.334)">
            <g id="组_3853" data-name="组 3853">
              <path id="路径_5486" data-name="路径 5486" d="M523.372,1435.321a1.121,1.121,0,0,1-.8-.33l-.781-.781a1.125,1.125,0,0,1,1.591-1.591l.782.781a1.125,1.125,0,0,1-.8,1.92Z" transform="translate(-521.465 -1432.29)" fill="#7f7f7f"/>
            </g>
          </g>
        </g>
        <g id="组_3864" data-name="组 3864" transform="translate(5.4 70.635)">
          <g id="组_3857" data-name="组 3857" transform="translate(4.334)">
            <g id="组_3856" data-name="组 3856">
              <path id="路径_5487" data-name="路径 5487" d="M558.59,955.5a1.125,1.125,0,0,1-.8-1.921l.853-.852a1.125,1.125,0,0,1,1.591,1.591l-.853.853A1.122,1.122,0,0,1,558.59,955.5Z" transform="translate(-557.465 -952.398)" fill="#7f7f7f"/>
            </g>
          </g>
          <g id="组_3859" data-name="组 3859" transform="translate(0.071 4.263)">
            <g id="组_3858" data-name="组 3858">
              <path id="路径_5488" data-name="路径 5488" d="M530.172,983.919a1.125,1.125,0,0,1-.8-1.92l.852-.853a1.125,1.125,0,0,1,1.591,1.591l-.853.852A1.121,1.121,0,0,1,530.172,983.919Z" transform="translate(-529.047 -980.816)" fill="#7f7f7f"/>
            </g>
          </g>
          <g id="组_3861" data-name="组 3861" transform="translate(0 0)">
            <g id="组_3860" data-name="组 3860">
              <path id="路径_5489" data-name="路径 5489" d="M530.551,955.5a1.122,1.122,0,0,1-.8-.33l-.852-.853a1.125,1.125,0,0,1,1.591-1.591l.853.852a1.125,1.125,0,0,1-.8,1.921Z" transform="translate(-528.573 -952.398)" fill="#7f7f7f"/>
            </g>
          </g>
          <g id="组_3863" data-name="组 3863" transform="translate(4.334 4.334)">
            <g id="组_3862" data-name="组 3862">
              <path id="路径_5490" data-name="路径 5490" d="M559.372,984.321a1.121,1.121,0,0,1-.8-.33l-.781-.781a1.125,1.125,0,0,1,1.591-1.591l.782.781a1.125,1.125,0,0,1-.8,1.92Z" transform="translate(-557.465 -981.29)" fill="#7f7f7f"/>
            </g>
          </g>
        </g>
        <g id="组_3873" data-name="组 3873" transform="translate(0 4.635)">
          <g id="组_3866" data-name="组 3866" transform="translate(4.334)">
            <g id="组_3865" data-name="组 3865">
              <path id="路径_5491" data-name="路径 5491" d="M522.59,515.5a1.125,1.125,0,0,1-.8-1.921l.853-.852a1.125,1.125,0,0,1,1.591,1.591l-.853.853A1.122,1.122,0,0,1,522.59,515.5Z" transform="translate(-521.465 -512.398)" fill="#7f7f7f"/>
            </g>
          </g>
          <g id="组_3868" data-name="组 3868" transform="translate(0.071 4.263)">
            <g id="组_3867" data-name="组 3867">
              <path id="路径_5492" data-name="路径 5492" d="M494.172,543.919a1.125,1.125,0,0,1-.8-1.92l.852-.853a1.125,1.125,0,0,1,1.591,1.591l-.853.852A1.121,1.121,0,0,1,494.172,543.919Z" transform="translate(-493.047 -540.816)" fill="#7f7f7f"/>
            </g>
          </g>
          <g id="组_3870" data-name="组 3870">
            <g id="组_3869" data-name="组 3869">
              <path id="路径_5493" data-name="路径 5493" d="M494.551,515.5a1.122,1.122,0,0,1-.8-.33l-.852-.853a1.125,1.125,0,1,1,1.591-1.591l.853.852a1.125,1.125,0,0,1-.8,1.921Z" transform="translate(-492.573 -512.398)" fill="#7f7f7f"/>
            </g>
          </g>
          <g id="组_3872" data-name="组 3872" transform="translate(4.334 4.334)">
            <g id="组_3871" data-name="组 3871">
              <path id="路径_5494" data-name="路径 5494" d="M523.372,544.321a1.121,1.121,0,0,1-.8-.33l-.781-.781a1.125,1.125,0,0,1,1.591-1.591l.782.781a1.125,1.125,0,0,1-.8,1.92Z" transform="translate(-521.465 -541.29)" fill="#7f7f7f"/>
            </g>
          </g>
        </g>
        <g id="组_3882" data-name="组 3882" transform="translate(144.3 8.685)">
          <g id="组_3875" data-name="组 3875" transform="translate(4.334)">
            <g id="组_3874" data-name="组 3874">
              <path id="路径_5495" data-name="路径 5495" d="M1484.59,542.5a1.125,1.125,0,0,1-.8-1.921l.853-.852a1.125,1.125,0,0,1,1.591,1.591l-.853.853A1.122,1.122,0,0,1,1484.59,542.5Z" transform="translate(-1483.465 -539.398)" fill="#7f7f7f"/>
            </g>
          </g>
          <g id="组_3877" data-name="组 3877" transform="translate(0.071 4.263)">
            <g id="组_3876" data-name="组 3876">
              <path id="路径_5496" data-name="路径 5496" d="M1456.172,570.919a1.125,1.125,0,0,1-.8-1.92l.853-.853a1.125,1.125,0,0,1,1.591,1.591l-.853.852A1.121,1.121,0,0,1,1456.172,570.919Z" transform="translate(-1455.047 -567.816)" fill="#7f7f7f"/>
            </g>
          </g>
          <g id="组_3879" data-name="组 3879">
            <g id="组_3878" data-name="组 3878">
              <path id="路径_5497" data-name="路径 5497" d="M1456.551,542.5a1.122,1.122,0,0,1-.8-.33l-.852-.853a1.125,1.125,0,0,1,1.591-1.591l.853.852a1.125,1.125,0,0,1-.8,1.921Z" transform="translate(-1454.573 -539.398)" fill="#7f7f7f"/>
            </g>
          </g>
          <g id="组_3881" data-name="组 3881" transform="translate(4.334 4.334)">
            <g id="组_3880" data-name="组 3880">
              <path id="路径_5498" data-name="路径 5498" d="M1485.372,571.321a1.121,1.121,0,0,1-.8-.33l-.781-.781a1.125,1.125,0,0,1,1.591-1.591l.782.781a1.125,1.125,0,0,1-.8,1.92Z" transform="translate(-1483.465 -568.29)" fill="#7f7f7f"/>
            </g>
          </g>
        </g>
        <g id="组_3884" data-name="组 3884" transform="translate(145.197 161.416)">
          <g id="组_3883" data-name="组 3883" transform="translate(0 0)">
            <path id="路径_5499" data-name="路径 5499" d="M1463.7,1563.3a3.143,3.143,0,0,1-2.223-5.366,1.125,1.125,0,0,1,1.591,1.591.893.893,0,1,0,1.263,1.263,1.125,1.125,0,1,1,1.591,1.591A3.123,3.123,0,0,1,1463.7,1563.3Z" transform="translate(-1460.554 -1557.604)" fill="#7f7f7f"/>
          </g>
        </g>
        <g id="组_3886" data-name="组 3886" transform="translate(3.677 175.2)">
          <g id="组_3885" data-name="组 3885">
            <path id="路径_5500" data-name="路径 5500" d="M520.231,1655.194a3.142,3.142,0,0,1-2.223-5.365,1.125,1.125,0,0,1,1.591,1.591.893.893,0,0,0,1.263,1.263,1.125,1.125,0,0,1,1.591,1.591A3.134,3.134,0,0,1,520.231,1655.194Z" transform="translate(-517.088 -1649.5)" fill="#7f7f7f"/>
          </g>
        </g>
        <g id="组_3888" data-name="组 3888" transform="translate(47.523 9.527)">
          <g id="组_3887" data-name="组 3887">
            <path id="路径_5501" data-name="路径 5501" d="M812.534,550.709a3.142,3.142,0,0,1-2.223-5.364,1.125,1.125,0,0,1,1.591,1.591.893.893,0,0,0,1.263,1.263,1.125,1.125,0,0,1,1.591,1.591A3.134,3.134,0,0,1,812.534,550.709Z" transform="translate(-809.392 -545.015)" fill="#7f7f7f"/>
          </g>
        </g>
        <g id="组_3890" data-name="组 3890" transform="translate(204.309 75.359)">
          <g id="组_3889" data-name="组 3889">
            <path id="路径_5502" data-name="路径 5502" d="M1857.777,989.591a3.143,3.143,0,0,1-2.223-5.366,1.125,1.125,0,0,1,1.591,1.591.893.893,0,1,0,1.263,1.263A1.125,1.125,0,0,1,1860,988.67,3.122,3.122,0,0,1,1857.777,989.591Z" transform="translate(-1854.634 -983.895)" fill="#7f7f7f"/>
          </g>
        </g>
        <g id="组_3903" data-name="组 3903" transform="translate(122.296 32.573)">
          <g id="组_3892" data-name="组 3892" transform="translate(8.57)">
            <g id="组_3891" data-name="组 3891">
              <path id="路径_5503" data-name="路径 5503" d="M1383.667,737.37a18.677,18.677,0,0,1-18.656-18.656,21.01,21.01,0,0,1,5.424-13.851,17.205,17.205,0,0,1,26.464,0,21.01,21.01,0,0,1,5.424,13.851A18.677,18.677,0,0,1,1383.667,737.37Zm0-36.465c-8.74,0-16.406,8.322-16.406,17.809a16.406,16.406,0,1,0,32.811,0C1400.073,709.227,1392.407,700.905,1383.667,700.905Z" transform="translate(-1365.012 -698.655)" fill="#7f7f7f"/>
            </g>
          </g>
          <g id="组_3897" data-name="组 3897" transform="translate(0 33.502)">
            <g id="组_3894" data-name="组 3894" transform="translate(31.725 0.038)">
              <g id="组_3893" data-name="组 3893">
                <path id="路径_5504" data-name="路径 5504" d="M1540.982,959.862h-20.475a1.125,1.125,0,0,1,0-2.25h19.35v-18.4a14.794,14.794,0,0,0-14.845-14.709,1.125,1.125,0,0,1,0-2.25,17.07,17.07,0,0,1,12.078,4.939,16.777,16.777,0,0,1,5.016,12.02v19.529A1.125,1.125,0,0,1,1540.982,959.862Z" transform="translate(-1519.382 -922.25)" fill="#7f7f7f"/>
              </g>
            </g>
            <g id="组_3896" data-name="组 3896">
              <g id="组_3895" data-name="组 3895">
                <path id="路径_5505" data-name="路径 5505" d="M1309.007,952.975a1.125,1.125,0,0,1-1.125-1.125V939a16.992,16.992,0,0,1,17.053-17,1.125,1.125,0,0,1,0,2.25,14.792,14.792,0,0,0-14.8,14.746V951.85A1.125,1.125,0,0,1,1309.007,952.975Z" transform="translate(-1307.882 -922)" fill="#7f7f7f"/>
              </g>
            </g>
          </g>
          <g id="组_3902" data-name="组 3902" transform="translate(10.35 55.177)">
            <g id="组_3899" data-name="组 3899">
              <g id="组_3898" data-name="组 3898">
                <path id="路径_5506" data-name="路径 5506" d="M1378.007,1082.55a1.125,1.125,0,0,1-1.125-1.125v-13.8a1.125,1.125,0,0,1,2.25,0v13.8A1.125,1.125,0,0,1,1378.007,1082.55Z" transform="translate(-1376.882 -1066.5)" fill="#7f7f7f"/>
              </g>
            </g>
            <g id="组_3901" data-name="组 3901" transform="translate(31.5)">
              <g id="组_3900" data-name="组 3900">
                <path id="路径_5507" data-name="路径 5507" d="M1588.007,1082.55a1.125,1.125,0,0,1-1.125-1.125v-13.8a1.125,1.125,0,0,1,2.25,0v13.8A1.125,1.125,0,0,1,1588.007,1082.55Z" transform="translate(-1586.882 -1066.5)" fill="#7f7f7f"/>
              </g>
            </g>
          </g>
        </g>
        <g id="组_3905" data-name="组 3905" transform="translate(148.471 111.375)">
          <g id="组_3904" data-name="组 3904">
            <path id="路径_5508" data-name="路径 5508" d="M1519.807,1226.25h-36.3a1.125,1.125,0,0,1,0-2.25h36.3a1.125,1.125,0,0,1,0,2.25Z" transform="translate(-1482.382 -1224)" fill="#7f7f7f"/>
          </g>
        </g>
        <g id="组_3921" data-name="组 3921" transform="translate(16.471 32.573)">
          <g id="组_3918" data-name="组 3918" transform="translate(10.575)">
            <g id="组_3907" data-name="组 3907" transform="translate(8.57)">
              <g id="组_3906" data-name="组 3906">
                <path id="路径_5509" data-name="路径 5509" d="M748.667,737.37a18.677,18.677,0,0,1-18.655-18.656,21.01,21.01,0,0,1,5.424-13.851,17.205,17.205,0,0,1,26.464,0,21.01,21.01,0,0,1,5.424,13.851A18.677,18.677,0,0,1,748.667,737.37Zm0-36.465c-8.739,0-16.405,8.322-16.405,17.809a16.406,16.406,0,1,0,32.811,0C765.073,709.227,757.407,700.905,748.667,700.905Z" transform="translate(-730.012 -698.655)" fill="#7f7f7f"/>
              </g>
            </g>
            <g id="组_3912" data-name="组 3912" transform="translate(0 33.502)">
              <g id="组_3909" data-name="组 3909" transform="translate(0 0.038)">
                <g id="组_3908" data-name="组 3908">
                  <path id="路径_5510" data-name="路径 5510" d="M694.482,959.862H674.007a1.125,1.125,0,0,1-1.125-1.125V939.209a16.776,16.776,0,0,1,5.017-12.02,17.07,17.07,0,0,1,12.078-4.939,1.125,1.125,0,0,1,0,2.25,14.794,14.794,0,0,0-14.845,14.709v18.4h19.35a1.125,1.125,0,0,1,0,2.25Z" transform="translate(-672.882 -922.25)" fill="#7f7f7f"/>
                </g>
              </g>
              <g id="组_3911" data-name="组 3911" transform="translate(36.272)">
                <g id="组_3910" data-name="组 3910">
                  <path id="路径_5511" data-name="路径 5511" d="M931.748,952.975a1.125,1.125,0,0,1-1.125-1.125V939a14.792,14.792,0,0,0-14.8-14.746,1.125,1.125,0,0,1,0-2.25,16.992,16.992,0,0,1,17.053,17V951.85A1.125,1.125,0,0,1,931.748,952.975Z" transform="translate(-914.695 -922)" fill="#7f7f7f"/>
                </g>
              </g>
            </g>
            <g id="组_3917" data-name="组 3917" transform="translate(10.35 55.177)">
              <g id="组_3914" data-name="组 3914" transform="translate(31.5)">
                <g id="组_3913" data-name="组 3913">
                  <path id="路径_5512" data-name="路径 5512" d="M953.007,1082.55a1.125,1.125,0,0,1-1.125-1.125v-13.8a1.125,1.125,0,0,1,2.25,0v13.8A1.125,1.125,0,0,1,953.007,1082.55Z" transform="translate(-951.882 -1066.5)" fill="#7f7f7f"/>
                </g>
              </g>
              <g id="组_3916" data-name="组 3916">
                <g id="组_3915" data-name="组 3915">
                  <path id="路径_5513" data-name="路径 5513" d="M743.007,1082.55a1.125,1.125,0,0,1-1.125-1.125v-13.8a1.125,1.125,0,0,1,2.25,0v13.8A1.125,1.125,0,0,1,743.007,1082.55Z" transform="translate(-741.882 -1066.5)" fill="#7f7f7f"/>
                </g>
              </g>
            </g>
          </g>
          <g id="组_3920" data-name="组 3920" transform="translate(0 78.802)">
            <g id="组_3919" data-name="组 3919">
              <path id="路径_5514" data-name="路径 5514" d="M639.807,1226.25h-36.3a1.125,1.125,0,0,1,0-2.25h36.3a1.125,1.125,0,0,1,0,2.25Z" transform="translate(-602.382 -1224)" fill="#7f7f7f"/>
            </g>
          </g>
        </g>
        <g id="组_3932" data-name="组 3932" transform="translate(78.851)">
          <g id="组_3924" data-name="组 3924">
            <g id="组_3923" data-name="组 3923">
              <g id="组_3922" data-name="组 3922">
                <path id="路径_5515" data-name="路径 5515" d="M1041.792,520.3a1.125,1.125,0,0,1-.893-.441l-5.007-6.531h-9.109a8.544,8.544,0,0,1-8.535-8.535V490.034a8.544,8.544,0,0,1,8.535-8.534h29.027a8.544,8.544,0,0,1,8.535,8.534v14.758a8.544,8.544,0,0,1-8.535,8.535l-8.613-.112-4.475,6.59a1.124,1.124,0,0,1-.9.493Zm-15.009-36.548a6.292,6.292,0,0,0-6.285,6.284v14.758a6.292,6.292,0,0,0,6.285,6.285h9.664a1.125,1.125,0,0,1,.893.441l4.4,5.735,3.939-5.8a1.134,1.134,0,0,1,.945-.493l9.2.119a6.289,6.289,0,0,0,6.27-6.285V490.034a6.292,6.292,0,0,0-6.285-6.284Z" transform="translate(-1018.248 -481.5)" fill="#7f7f7f"/>
              </g>
            </g>
          </g>
          <g id="组_3931" data-name="组 3931" transform="translate(7.806 11.25)">
            <g id="组_3926" data-name="组 3926">
              <g id="组_3925" data-name="组 3925">
                <path id="路径_5516" data-name="路径 5516" d="M1074.224,564.375a3.938,3.938,0,1,1,3.938-3.937A3.942,3.942,0,0,1,1074.224,564.375Zm0-5.625a1.688,1.688,0,1,0,1.688,1.688A1.689,1.689,0,0,0,1074.224,558.75Z" transform="translate(-1070.286 -556.5)" fill="#7f7f7f"/>
              </g>
            </g>
            <g id="组_3928" data-name="组 3928" transform="translate(22.5)">
              <g id="组_3927" data-name="组 3927">
                <path id="路径_5517" data-name="路径 5517" d="M1224.224,564.375a3.938,3.938,0,1,1,3.938-3.937A3.942,3.942,0,0,1,1224.224,564.375Zm0-5.625a1.688,1.688,0,1,0,1.688,1.688A1.689,1.689,0,0,0,1224.224,558.75Z" transform="translate(-1220.286 -556.5)" fill="#7f7f7f"/>
              </g>
            </g>
            <g id="组_3930" data-name="组 3930" transform="translate(11.25)">
              <g id="组_3929" data-name="组 3929">
                <path id="路径_5518" data-name="路径 5518" d="M1149.224,564.375a3.938,3.938,0,1,1,3.938-3.937A3.942,3.942,0,0,1,1149.224,564.375Zm0-5.625a1.688,1.688,0,1,0,1.688,1.688A1.689,1.689,0,0,0,1149.224,558.75Z" transform="translate(-1145.286 -556.5)" fill="#7f7f7f"/>
              </g>
            </g>
          </g>
        </g>
        <g id="组_3937" data-name="组 3937" transform="translate(157.021 119.4)">
          <g id="组_3934" data-name="组 3934">
            <g id="组_3933" data-name="组 3933">
              <path id="路径_5519" data-name="路径 5519" d="M1556.076,1295.32h-15.569a1.125,1.125,0,0,1-1.125-1.125v-15.57a1.125,1.125,0,0,1,1.125-1.125h15.569a1.125,1.125,0,0,1,1.125,1.125v15.57A1.125,1.125,0,0,1,1556.076,1295.32Zm-14.444-2.25h13.319v-13.32h-13.319Z" transform="translate(-1539.382 -1277.5)" fill="#7f7f7f"/>
            </g>
          </g>
          <g id="组_3936" data-name="组 3936" transform="translate(7.125 7.575)">
            <g id="组_3935" data-name="组 3935">
              <path id="路径_5520" data-name="路径 5520" d="M1611.151,1353.395h-23.145a1.125,1.125,0,0,1-1.125-1.125V1337.45a1.125,1.125,0,0,1,2.25,0v13.694h20.895V1330.25h-13.375a1.125,1.125,0,0,1,0-2.25h14.5a1.125,1.125,0,0,1,1.125,1.125v23.145A1.125,1.125,0,0,1,1611.151,1353.395Z" transform="translate(-1586.882 -1328)" fill="#7f7f7f"/>
            </g>
          </g>
        </g>
        <g id="组_3939" data-name="组 3939" transform="translate(157.021 119.4)">
          <g id="组_3938" data-name="组 3938">
            <path id="路径_5521" data-name="路径 5521" d="M1540.507,1295.32a1.125,1.125,0,0,1-.8-1.92l15.57-15.57a1.125,1.125,0,0,1,1.591,1.591l-15.57,15.57A1.121,1.121,0,0,1,1540.507,1295.32Z" transform="translate(-1539.382 -1277.5)" fill="#7f7f7f"/>
          </g>
        </g>
        <g id="组_3941" data-name="组 3941" transform="translate(69.384 126.975)">
          <g id="组_3940" data-name="组 3940">
            <path id="路径_5522" data-name="路径 5522" d="M1018.927,1368.136H956.255a1.125,1.125,0,0,1-1.125-1.125V1333.12a5.125,5.125,0,0,1,5.12-5.12h54.682a5.125,5.125,0,0,1,5.12,5.12v33.891A1.125,1.125,0,0,1,1018.927,1368.136Zm-61.547-2.25H1017.8V1333.12a2.873,2.873,0,0,0-2.87-2.87H960.25a2.873,2.873,0,0,0-2.87,2.87Z" transform="translate(-955.13 -1328)" fill="#7f7f7f"/>
          </g>
        </g>
        <g id="组_3943" data-name="组 3943" transform="translate(66.906 164.861)">
          <g id="组_3942" data-name="组 3942" transform="translate(0 0)">
            <path id="路径_5523" data-name="路径 5523" d="M1005.493,1586.562H941.6a2.995,2.995,0,0,1,0-5.989h63.889a2.995,2.995,0,0,1,0,5.989Zm-63.889-3.739a.745.745,0,0,0,0,1.489h63.889a.745.745,0,1,0,0-1.489Z" transform="translate(-938.61 -1580.573)" fill="#7f7f7f"/>
          </g>
        </g>
        <g id="组_3945" data-name="组 3945" transform="translate(96.814 142.013)">
          <g id="组_3944" data-name="组 3944" transform="translate(0 0)">
            <path id="路径_5524" data-name="路径 5524" d="M1143.032,1438.313a5.03,5.03,0,1,1,5.03-5.03A5.036,5.036,0,0,1,1143.032,1438.313Zm0-7.81a2.78,2.78,0,1,0,2.78,2.78A2.783,2.783,0,0,0,1143.032,1430.5Z" transform="translate(-1138.002 -1428.253)" fill="#7f7f7f"/>
          </g>
        </g>
      </g>
    </g>
  </g>
</svg>
