<svg xmlns="http://www.w3.org/2000/svg" width="300" height="229.2" viewBox="0 0 300 229.2">
  <g id="img-2" transform="translate(2730 -805)">
    <rect id="矩形_3127" data-name="矩形 3127" width="300" height="229.2" transform="translate(-2730 805)" fill="#fff" opacity="0"/>
    <g id="PROJECT" transform="translate(-2700.3 826.75)">
      <g id="组_4220" data-name="组 4220" transform="translate(0 0)">
        <g id="组_4216" data-name="组 4216">
          <g id="组_3953" data-name="组 3953" transform="translate(92.746 122.202)">
            <g id="组_3948" data-name="组 3948" transform="translate(4.229)">
              <g id="组_3947" data-name="组 3947">
                <path id="路径_5525" data-name="路径 5525" d="M3127.883,1268.659h100.744a10.3,10.3,0,0,0,10.3-10.3v-6.681h-111.04Z" transform="translate(-3127.883 -1251.683)" fill="#c9c9c9"/>
              </g>
            </g>
            <g id="组_3950" data-name="组 3950" transform="translate(35.625 6.598)">
              <g id="组_3949" data-name="组 3949">
                <circle id="椭圆_58" data-name="椭圆 58" cx="1.89" cy="1.89" r="1.89" fill="#fff"/>
              </g>
            </g>
            <g id="组_3952" data-name="组 3952" transform="translate(0 46.699)">
              <g id="组_3951" data-name="组 3951">
                <rect id="矩形_3107" data-name="矩形 3107" width="74.885" height="8.522" rx="4.261" fill="#c9c9c9"/>
              </g>
            </g>
          </g>
          <g id="组_3955" data-name="组 3955" transform="translate(1.312 79.313)">
            <g id="组_3954" data-name="组 3954">
              <path id="路径_5526" data-name="路径 5526" d="M2579.424,965.75h-81.869a6.375,6.375,0,0,0-6.375,6.375l-1.05,5.1h94.62l1.05-5.1A6.375,6.375,0,0,0,2579.424,965.75Z" transform="translate(-2490.13 -965.75)" fill="#c9c9c9"/>
            </g>
          </g>
          <g id="组_3957" data-name="组 3957" transform="translate(110.325 52.018)">
            <g id="组_3956" data-name="组 3956">
              <path id="路径_5527" data-name="路径 5527" d="M3216.882,787.87v42q21.089,8.458,39.9,0v-42A50.794,50.794,0,0,0,3216.882,787.87Z" transform="translate(-3216.882 -783.788)" fill="#e5ddd9"/>
            </g>
          </g>
          <g id="组_3959" data-name="组 3959" transform="translate(33.173 100.882)">
            <g id="组_3958" data-name="组 3958">
              <rect id="矩形_3108" data-name="矩形 3108" width="31.947" height="13.143" fill="#c4a693"/>
            </g>
          </g>
          <g id="组_3961" data-name="组 3961" transform="translate(54.343 131.211)">
            <g id="组_3960" data-name="组 3960">
              <rect id="矩形_3109" data-name="矩形 3109" width="10.716" height="10.716" fill="#c4a693"/>
            </g>
          </g>
          <g id="组_3963" data-name="组 3963" transform="translate(75.655 131.211)">
            <g id="组_3962" data-name="组 3962">
              <rect id="矩形_3110" data-name="矩形 3110" width="10.716" height="10.716" fill="#c4a693"/>
            </g>
          </g>
          <g id="组_3965" data-name="组 3965" transform="translate(11.72 131.211)">
            <g id="组_3964" data-name="组 3964">
              <rect id="矩形_3111" data-name="矩形 3111" width="10.716" height="10.716" fill="#c4a693"/>
            </g>
          </g>
          <g id="组_3967" data-name="组 3967" transform="translate(33.032 131.211)">
            <g id="组_3966" data-name="组 3966">
              <rect id="矩形_3112" data-name="矩形 3112" width="10.716" height="10.716" fill="#c4a693"/>
            </g>
          </g>
          <g id="组_3969" data-name="组 3969" transform="translate(208.298 20.844)">
            <g id="组_3968" data-name="组 3968">
              <circle id="椭圆_59" data-name="椭圆 59" cx="7.616" cy="7.616" r="7.616" transform="translate(0 3.425) rotate(-12.994)" fill="#c4a693"/>
            </g>
          </g>
          <g id="组_3971" data-name="组 3971" transform="translate(103.294 13.3)">
            <g id="组_3970" data-name="组 3970">
              <rect id="矩形_3113" data-name="矩形 3113" width="18.355" height="16.025" fill="#e5ddd9"/>
            </g>
          </g>
          <g id="组_3973" data-name="组 3973" transform="translate(207.432 145.647)">
            <g id="组_3972" data-name="组 3972">
              <rect id="矩形_3114" data-name="矩形 3114" width="26.066" height="15.6" transform="translate(0 18.432) rotate(-45)" fill="#e5ddd9"/>
            </g>
          </g>
          <g id="组_3996" data-name="组 3996" transform="translate(51.424 35.798)">
            <g id="组_3976" data-name="组 3976">
              <g id="组_3975" data-name="组 3975">
                <g id="组_3974" data-name="组 3974">
                  <path id="路径_5528" data-name="路径 5528" d="M2825.332,719.285a1.125,1.125,0,0,1-1.125-1.125V687.7a12.058,12.058,0,0,1,12.045-12.045H2948.2a1.125,1.125,0,0,1,0,2.25H2836.252a9.806,9.806,0,0,0-9.795,9.795v30.46A1.125,1.125,0,0,1,2825.332,719.285Z" transform="translate(-2824.207 -675.655)" fill="#7f7f7f"/>
                </g>
              </g>
            </g>
            <g id="组_3979" data-name="组 3979" transform="translate(45.388 50.613)">
              <g id="组_3978" data-name="组 3978">
                <g id="组_3977" data-name="组 3977">
                  <path id="路径_5529" data-name="路径 5529" d="M3227.116,1067.036h-99.2a1.125,1.125,0,0,1,0-2.25h99.2a9.806,9.806,0,0,0,9.795-9.795V1014.2a1.125,1.125,0,1,1,2.25,0v40.789A12.058,12.058,0,0,1,3227.116,1067.036Z" transform="translate(-3126.793 -1013.077)" fill="#7f7f7f"/>
                </g>
              </g>
            </g>
            <g id="组_3986" data-name="组 3986" transform="translate(52.982 102.376)">
              <g id="组_3982" data-name="组 3982" transform="translate(40.44)">
                <g id="组_3981" data-name="组 3981">
                  <g id="组_3980" data-name="组 3980">
                    <path id="路径_5530" data-name="路径 5530" d="M3457.248,1390.132a1.12,1.12,0,0,1-.693-.239,23.79,23.79,0,0,1-8.87-12.863c-1.407-5.516-.573-11.646,2.477-18.219a1.125,1.125,0,0,1,2.041.947c-6.717,14.476-.587,23.414,5.739,28.364a1.125,1.125,0,0,1-.694,2.011Z" transform="translate(-3447.022 -1358.159)" fill="#7f7f7f"/>
                  </g>
                </g>
              </g>
              <g id="组_3985" data-name="组 3985" transform="translate(0 0)">
                <g id="组_3984" data-name="组 3984">
                  <g id="组_3983" data-name="组 3983">
                    <path id="路径_5531" data-name="路径 5531" d="M3178.549,1390.132a1.125,1.125,0,0,1-.694-2.011c6.325-4.949,12.455-13.888,5.739-28.364a1.125,1.125,0,1,1,2.041-.947c3.05,6.574,3.883,12.7,2.477,18.219a23.79,23.79,0,0,1-8.87,12.863A1.121,1.121,0,0,1,3178.549,1390.132Z" transform="translate(-3177.423 -1358.159)" fill="#7f7f7f"/>
                  </g>
                </g>
              </g>
            </g>
            <g id="组_3989" data-name="组 3989" transform="translate(40.237 132.099)">
              <g id="组_3988" data-name="组 3988">
                <g id="组_3987" data-name="组 3987">
                  <path id="路径_5532" data-name="路径 5532" d="M3164.421,1566.653h-66.8a5.169,5.169,0,1,1,0-10.338h66.8a5.169,5.169,0,1,1,0,10.338Zm-66.8-8.088a2.919,2.919,0,1,0,0,5.838h66.8a2.919,2.919,0,1,0,0-5.838Z" transform="translate(-3092.455 -1556.315)" fill="#7f7f7f"/>
                </g>
              </g>
            </g>
            <g id="组_3992" data-name="组 3992" transform="translate(44.426 85.552)">
              <g id="组_3991" data-name="组 3991">
                <g id="组_3990" data-name="组 3990">
                  <path id="路径_5533" data-name="路径 5533" d="M3232.658,1248.25h-111.15a1.125,1.125,0,0,1,0-2.25h111.15a1.125,1.125,0,0,1,0,2.25Z" transform="translate(-3120.383 -1246)" fill="#7f7f7f"/>
                </g>
              </g>
            </g>
            <g id="组_3995" data-name="组 3995" transform="translate(75 91.053)">
              <g id="组_3994" data-name="组 3994">
                <g id="组_3993" data-name="组 3993">
                  <path id="路径_5534" data-name="路径 5534" d="M3328.014,1290.281a3.8,3.8,0,1,1,3.8-3.8A3.808,3.808,0,0,1,3328.014,1290.281Zm0-5.358a1.554,1.554,0,1,0,1.554,1.554A1.556,1.556,0,0,0,3328.014,1284.923Z" transform="translate(-3324.21 -1282.673)" fill="#7f7f7f"/>
                </g>
              </g>
            </g>
          </g>
          <g id="组_3999" data-name="组 3999" transform="translate(230.946 75.101)">
            <g id="组_3998" data-name="组 3998">
              <g id="组_3997" data-name="组 3997">
                <path id="路径_5535" data-name="路径 5535" d="M4021.021,937.676" transform="translate(-4021.021 -937.676)" fill="none" stroke="#7f7f7f" stroke-linecap="round" stroke-linejoin="round" stroke-width="15"/>
              </g>
            </g>
          </g>
          <g id="组_4002" data-name="组 4002" transform="translate(175.204 16.35)">
            <g id="组_4001" data-name="组 4001">
              <g id="组_4000" data-name="组 4000">
                <path id="路径_5536" data-name="路径 5536" d="M3704.4,617.336l-44.458-.036h-.008a10.547,10.547,0,0,1-10.519-10.527V552.2a6.207,6.207,0,0,1,6.2-6.2h43.431a6.208,6.208,0,0,1,6.2,6.2v53.259a1.123,1.123,0,0,1-.016.189h6.965a2.632,2.632,0,0,1,2.587,3.128A10.6,10.6,0,0,1,3704.4,617.336Zm-37.955-2.28,37.956.03a8.342,8.342,0,0,0,8.175-6.739.368.368,0,0,0-.08-.307.382.382,0,0,0-.3-.141h-41.425a.375.375,0,0,0-.376.307A10.5,10.5,0,0,1,3666.441,615.056Zm-10.829-66.806a3.955,3.955,0,0,0-3.95,3.95v54.573a8.29,8.29,0,0,0,16.5,1.128,2.628,2.628,0,0,1,2.6-2.253h32.242a1.149,1.149,0,0,1-.016-.189V552.2a3.955,3.955,0,0,0-3.951-3.95Z" transform="translate(-3649.411 -546)" fill="#7f7f7f"/>
              </g>
            </g>
          </g>
          <g id="组_4005" data-name="组 4005" transform="translate(183.15 28.2)">
            <g id="组_4004" data-name="组 4004">
              <g id="组_4003" data-name="组 4003">
                <path id="路径_5537" data-name="路径 5537" d="M3722.708,627.25h-19.2a1.125,1.125,0,0,1,0-2.25h19.2a1.125,1.125,0,0,1,0,2.25Z" transform="translate(-3702.383 -625)" fill="#7f7f7f"/>
              </g>
            </g>
          </g>
          <g id="组_4008" data-name="组 4008" transform="translate(183.15 40.35)">
            <g id="组_4007" data-name="组 4007">
              <g id="组_4006" data-name="组 4006">
                <path id="路径_5538" data-name="路径 5538" d="M3726.458,708.25h-22.95a1.125,1.125,0,0,1,0-2.25h22.95a1.125,1.125,0,0,1,0,2.25Z" transform="translate(-3702.383 -706)" fill="#7f7f7f"/>
              </g>
            </g>
          </g>
          <g id="组_4011" data-name="组 4011" transform="translate(183.15 52.2)">
            <g id="组_4010" data-name="组 4010">
              <g id="组_4009" data-name="组 4009">
                <path id="路径_5539" data-name="路径 5539" d="M3728.708,787.25h-25.2a1.125,1.125,0,0,1,0-2.25h25.2a1.125,1.125,0,0,1,0,2.25Z" transform="translate(-3702.383 -785)" fill="#7f7f7f"/>
              </g>
            </g>
          </g>
          <g id="组_4014" data-name="组 4014" transform="translate(183.15 64.05)">
            <g id="组_4013" data-name="组 4013">
              <g id="组_4012" data-name="组 4012">
                <path id="路径_5540" data-name="路径 5540" d="M3741.008,866.25h-37.5a1.125,1.125,0,0,1,0-2.25h37.5a1.125,1.125,0,0,1,0,2.25Z" transform="translate(-3702.383 -864)" fill="#7f7f7f"/>
              </g>
            </g>
          </g>
          <g id="组_4024" data-name="组 4024" transform="translate(0 78.225)">
            <g id="组_4017" data-name="组 4017" transform="translate(0.009 0.128)">
              <g id="组_4016" data-name="组 4016">
                <g id="组_4015" data-name="组 4015">
                  <path id="路径_5541" data-name="路径 5541" d="M2570.825,1036.82h-80.673a8.717,8.717,0,0,1-8.707-8.707v-60.05a8.717,8.717,0,0,1,8.707-8.707h80.673a8.717,8.717,0,0,1,8.707,8.707v60.05A8.717,8.717,0,0,1,2570.825,1036.82Zm-80.673-75.214a6.464,6.464,0,0,0-6.457,6.457v60.05a6.464,6.464,0,0,0,6.457,6.457h80.673a6.464,6.464,0,0,0,6.457-6.457v-60.05a6.464,6.464,0,0,0-6.457-6.457Z" transform="translate(-2481.445 -959.356)" fill="#7f7f7f"/>
                </g>
              </g>
            </g>
            <g id="组_4020" data-name="组 4020" transform="translate(0 11.325)">
              <g id="组_4019" data-name="组 4019">
                <g id="组_4018" data-name="组 4018">
                  <path id="路径_5542" data-name="路径 5542" d="M2578.358,1036.25h-95.85a1.125,1.125,0,0,1,0-2.25h95.85a1.125,1.125,0,0,1,0,2.25Z" transform="translate(-2481.383 -1034)" fill="#7f7f7f"/>
                </g>
              </g>
            </g>
            <g id="组_4023" data-name="组 4023" transform="translate(21.375)">
              <g id="组_4022" data-name="组 4022">
                <g id="组_4021" data-name="组 4021">
                  <path id="路径_5543" data-name="路径 5543" d="M2625.007,966.45a1.125,1.125,0,0,1-1.125-1.125v-5.7a1.125,1.125,0,0,1,2.25,0v5.7A1.125,1.125,0,0,1,2625.007,966.45Z" transform="translate(-2623.882 -958.5)" fill="#7f7f7f"/>
                </g>
              </g>
            </g>
          </g>
          <g id="组_4052" data-name="组 4052" transform="translate(10.595 99.756)">
            <g id="组_4027" data-name="组 4027" transform="translate(21.453)">
              <g id="组_4026" data-name="组 4026">
                <g id="组_4025" data-name="组 4025">
                  <path id="路径_5544" data-name="路径 5544" d="M2728.11,1117.436h-31.947a1.125,1.125,0,0,1-1.125-1.125v-13.143a1.125,1.125,0,0,1,1.125-1.125h31.947a1.125,1.125,0,0,1,1.125,1.125v13.143A1.125,1.125,0,0,1,2728.11,1117.436Zm-30.822-2.25h29.7v-10.893h-29.7Z" transform="translate(-2695.038 -1102.043)" fill="#7f7f7f"/>
                </g>
              </g>
            </g>
            <g id="组_4030" data-name="组 4030" transform="translate(0 30.33)">
              <g id="组_4029" data-name="组 4029">
                <g id="组_4028" data-name="组 4028">
                  <path id="路径_5545" data-name="路径 5545" d="M2563.859,1317.208h-10.717a1.125,1.125,0,0,1-1.125-1.125v-10.717a1.125,1.125,0,0,1,1.125-1.125h10.717a1.125,1.125,0,0,1,1.125,1.125v10.717A1.125,1.125,0,0,1,2563.859,1317.208Zm-9.592-2.25h8.467v-8.467h-8.467Z" transform="translate(-2552.017 -1304.241)" fill="#7f7f7f"/>
                </g>
              </g>
            </g>
            <g id="组_4033" data-name="组 4033" transform="translate(21.312 30.33)">
              <g id="组_4032" data-name="组 4032">
                <g id="组_4031" data-name="组 4031">
                  <path id="路径_5546" data-name="路径 5546" d="M2705.936,1317.208h-10.717a1.125,1.125,0,0,1-1.125-1.125v-10.717a1.125,1.125,0,0,1,1.125-1.125h10.717a1.125,1.125,0,0,1,1.125,1.125v10.717A1.125,1.125,0,0,1,2705.936,1317.208Zm-9.592-2.25h8.467v-8.467h-8.467Z" transform="translate(-2694.094 -1304.241)" fill="#7f7f7f"/>
                </g>
              </g>
            </g>
            <g id="组_4036" data-name="组 4036" transform="translate(42.623 30.33)">
              <g id="组_4035" data-name="组 4035">
                <g id="组_4034" data-name="组 4034">
                  <path id="路径_5547" data-name="路径 5547" d="M2848.014,1317.208H2837.3a1.125,1.125,0,0,1-1.125-1.125v-10.717a1.125,1.125,0,0,1,1.125-1.125h10.717a1.125,1.125,0,0,1,1.125,1.125v10.717A1.125,1.125,0,0,1,2848.014,1317.208Zm-9.592-2.25h8.467v-8.467h-8.467Z" transform="translate(-2836.172 -1304.241)" fill="#7f7f7f"/>
                </g>
              </g>
            </g>
            <g id="组_4039" data-name="组 4039" transform="translate(63.935 30.33)">
              <g id="组_4038" data-name="组 4038">
                <g id="组_4037" data-name="组 4037">
                  <path id="路径_5548" data-name="路径 5548" d="M2990.091,1317.208h-10.717a1.125,1.125,0,0,1-1.125-1.125v-10.717a1.125,1.125,0,0,1,1.125-1.125h10.717a1.125,1.125,0,0,1,1.125,1.125v10.717A1.125,1.125,0,0,1,2990.091,1317.208Zm-9.592-2.25h8.467v-8.467H2980.5Z" transform="translate(-2978.249 -1304.241)" fill="#7f7f7f"/>
                </g>
              </g>
            </g>
            <g id="组_4042" data-name="组 4042" transform="translate(5.358 19.815)">
              <g id="组_4041" data-name="组 4041">
                <g id="组_4040" data-name="组 4040">
                  <path id="路径_5549" data-name="路径 5549" d="M2652.8,1246.91a1.125,1.125,0,0,1-1.125-1.125V1243.6a7.213,7.213,0,0,0-7.205-7.205h-47.274a7.213,7.213,0,0,0-7.205,7.205v2.184a1.125,1.125,0,0,1-2.25,0V1243.6a9.466,9.466,0,0,1,9.455-9.455h47.274a9.466,9.466,0,0,1,9.455,9.455v2.184A1.125,1.125,0,0,1,2652.8,1246.91Z" transform="translate(-2587.739 -1234.146)" fill="#7f7f7f"/>
                </g>
              </g>
            </g>
            <g id="组_4045" data-name="组 4045" transform="translate(37.18 13.269)">
              <g id="组_4044" data-name="组 4044">
                <g id="组_4043" data-name="组 4043">
                  <path id="路径_5550" data-name="路径 5550" d="M2801.007,1199.35a1.125,1.125,0,0,1-1.125-1.125v-6.6a1.125,1.125,0,0,1,2.25,0v6.6A1.125,1.125,0,0,1,2801.007,1199.35Z" transform="translate(-2799.882 -1190.5)" fill="#7f7f7f"/>
                </g>
              </g>
            </g>
            <g id="组_4048" data-name="组 4048" transform="translate(26.38 19.869)">
              <g id="组_4047" data-name="组 4047">
                <g id="组_4046" data-name="组 4046">
                  <path id="路径_5551" data-name="路径 5551" d="M2729.007,1247.25a1.125,1.125,0,0,1-1.125-1.125v-10.5a1.125,1.125,0,0,1,2.25,0v10.5A1.125,1.125,0,0,1,2729.007,1247.25Z" transform="translate(-2727.882 -1234.5)" fill="#7f7f7f"/>
                </g>
              </g>
            </g>
            <g id="组_4051" data-name="组 4051" transform="translate(47.98 19.869)">
              <g id="组_4050" data-name="组 4050">
                <g id="组_4049" data-name="组 4049">
                  <path id="路径_5552" data-name="路径 5552" d="M2873.007,1247.25a1.125,1.125,0,0,1-1.125-1.125v-10.5a1.125,1.125,0,0,1,2.25,0v10.5A1.125,1.125,0,0,1,2873.007,1247.25Z" transform="translate(-2871.882 -1234.5)" fill="#7f7f7f"/>
                </g>
              </g>
            </g>
          </g>
          <g id="组_4059" data-name="组 4059" transform="translate(208.575 21.236)">
            <g id="组_4055" data-name="组 4055">
              <g id="组_4054" data-name="组 4054">
                <g id="组_4053" data-name="组 4053">
                  <path id="路径_5553" data-name="路径 5553" d="M3880.621,596.058a8.741,8.741,0,1,1,8.741-8.741A8.751,8.751,0,0,1,3880.621,596.058Zm0-15.232a6.491,6.491,0,1,0,6.491,6.491A6.5,6.5,0,0,0,3880.621,580.826Z" transform="translate(-3871.88 -578.576)" fill="#7f7f7f"/>
                </g>
              </g>
            </g>
            <g id="组_4058" data-name="组 4058" transform="translate(3.25 13.954)">
              <g id="组_4057" data-name="组 4057">
                <g id="组_4056" data-name="组 4056">
                  <path id="路径_5554" data-name="路径 5554" d="M3903.405,687.127a1.125,1.125,0,0,1-.9-.453l-3.463-4.652-3.464,4.652a1.125,1.125,0,0,1-2.027-.672V672.727a1.125,1.125,0,0,1,2.25,0v9.881l2.339-3.141a1.125,1.125,0,0,1,1.8,0l2.339,3.141v-9.881a1.125,1.125,0,0,1,2.25,0V686a1.125,1.125,0,0,1-1.125,1.125Z" transform="translate(-3893.548 -671.602)" fill="#7f7f7f"/>
                </g>
              </g>
            </g>
          </g>
          <g id="组_4075" data-name="组 4075" transform="translate(36.975 21.45)">
            <g id="组_4062" data-name="组 4062" transform="translate(34.125)">
              <g id="组_4061" data-name="组 4061">
                <g id="组_4060" data-name="组 4060">
                  <path id="路径_5555" data-name="路径 5555" d="M2958.308,582.25h-1.8a1.125,1.125,0,0,1,0-2.25h1.8a1.125,1.125,0,0,1,0,2.25Z" transform="translate(-2955.383 -580)" fill="#7f7f7f"/>
                </g>
              </g>
            </g>
            <g id="组_4065" data-name="组 4065" transform="translate(9.825)">
              <g id="组_4064" data-name="组 4064">
                <g id="组_4063" data-name="组 4063">
                  <path id="路径_5556" data-name="路径 5556" d="M2810.708,582.25h-4.05a1.125,1.125,0,0,1,0-2.25h4.05a1.125,1.125,0,0,1,0,2.25Zm-12.15,0h-4.05a1.125,1.125,0,0,1,0-2.25h4.05a1.125,1.125,0,0,1,0,2.25Z" transform="translate(-2793.383 -580)" fill="#7f7f7f"/>
                </g>
              </g>
            </g>
            <g id="组_4068" data-name="组 4068">
              <g id="组_4067" data-name="组 4067">
                <g id="组_4066" data-name="组 4066">
                  <path id="路径_5557" data-name="路径 5557" d="M2729.007,584.125a1.125,1.125,0,0,1-1.125-1.125v-1.875a1.125,1.125,0,0,1,1.125-1.125h1.875a1.125,1.125,0,0,1,0,2.25h-.75V583A1.125,1.125,0,0,1,2729.007,584.125Z" transform="translate(-2727.882 -580)" fill="#7f7f7f"/>
                </g>
              </g>
            </g>
            <g id="组_4071" data-name="组 4071" transform="translate(0 9.375)">
              <g id="组_4070" data-name="组 4070">
                <g id="组_4069" data-name="组 4069">
                  <path id="路径_5558" data-name="路径 5558" d="M2729.007,682.25a1.125,1.125,0,0,1-1.125-1.125v-3.75a1.125,1.125,0,0,1,2.25,0v3.75A1.125,1.125,0,0,1,2729.007,682.25Zm0-11.25a1.125,1.125,0,0,1-1.125-1.125v-3.75a1.125,1.125,0,0,1,2.25,0v3.75A1.125,1.125,0,0,1,2729.007,671Zm0-11.25a1.125,1.125,0,0,1-1.125-1.125v-3.75a1.125,1.125,0,0,1,2.25,0v3.75A1.125,1.125,0,0,1,2729.007,659.75Zm0-11.25a1.125,1.125,0,0,1-1.125-1.125v-3.75a1.125,1.125,0,0,1,2.25,0v3.75A1.125,1.125,0,0,1,2729.007,648.5Z" transform="translate(-2727.882 -642.5)" fill="#7f7f7f"/>
                </g>
              </g>
            </g>
            <g id="组_4074" data-name="组 4074" transform="translate(0 53.925)">
              <g id="组_4073" data-name="组 4073">
                <g id="组_4072" data-name="组 4072">
                  <path id="路径_5559" data-name="路径 5559" d="M2729.007,943.55a1.125,1.125,0,0,1-1.125-1.125v-1.8a1.125,1.125,0,0,1,2.25,0v1.8A1.125,1.125,0,0,1,2729.007,943.55Z" transform="translate(-2727.882 -939.5)" fill="#7f7f7f"/>
                </g>
              </g>
            </g>
          </g>
          <g id="组_4085" data-name="组 4085" transform="translate(121.2 21.45)">
            <g id="组_4078" data-name="组 4078" transform="translate(52.05)">
              <g id="组_4077" data-name="组 4077">
                <g id="组_4076" data-name="组 4076">
                  <path id="路径_5560" data-name="路径 5560" d="M3639.458,582.25h-1.95a1.125,1.125,0,0,1,0-2.25h1.95a1.125,1.125,0,0,1,0,2.25Z" transform="translate(-3636.383 -580)" fill="#7f7f7f"/>
                </g>
              </g>
            </g>
            <g id="组_4081" data-name="组 4081" transform="translate(9)">
              <g id="组_4080" data-name="组 4080">
                <g id="组_4079" data-name="组 4079">
                  <path id="路径_5561" data-name="路径 5561" d="M3386.508,582.25h-3.6a1.125,1.125,0,0,1,0-2.25h3.6a1.125,1.125,0,0,1,0,2.25Zm-10.8,0h-3.6a1.125,1.125,0,0,1,0-2.25h3.6a1.125,1.125,0,0,1,0,2.25Zm-10.8,0h-3.6a1.125,1.125,0,0,1,0-2.25h3.6a1.125,1.125,0,0,1,0,2.25Zm-10.8,0h-3.6a1.125,1.125,0,0,1,0-2.25h3.6a1.125,1.125,0,0,1,0,2.25Z" transform="translate(-3349.383 -580)" fill="#7f7f7f"/>
                </g>
              </g>
            </g>
            <g id="组_4084" data-name="组 4084">
              <g id="组_4083" data-name="组 4083">
                <g id="组_4082" data-name="组 4082">
                  <path id="路径_5562" data-name="路径 5562" d="M3292.308,582.25h-1.8a1.125,1.125,0,0,1,0-2.25h1.8a1.125,1.125,0,0,1,0,2.25Z" transform="translate(-3289.383 -580)" fill="#7f7f7f"/>
                </g>
              </g>
            </g>
          </g>
          <g id="组_4088" data-name="组 4088" transform="translate(176.329 78.303)">
            <g id="组_4087" data-name="组 4087">
              <g id="组_4086" data-name="组 4086">
                <path id="路径_5563" data-name="路径 5563" d="M3656.911,959.019" transform="translate(-3656.911 -959.019)" fill="none" stroke="#7f7f7f" stroke-linecap="round" stroke-linejoin="round" stroke-width="15"/>
              </g>
            </g>
          </g>
          <g id="组_4110" data-name="组 4110" transform="translate(109.125 50.893)">
            <g id="组_4091" data-name="组 4091" transform="translate(0.051)">
              <g id="组_4090" data-name="组 4090">
                <g id="组_4089" data-name="组 4089">
                  <path id="路径_5564" data-name="路径 5564" d="M3230.272,786.849a73.642,73.642,0,0,1-14.321-1.241c-4.593-.958-6.732-2.241-6.732-4.04s2.139-3.082,6.732-4.04a83.261,83.261,0,0,1,28.641,0c4.593.958,6.732,2.241,6.732,4.04s-2.139,3.082-6.732,4.04A73.642,73.642,0,0,1,3230.272,786.849Zm-18.771-5.28c.271.351,1.624,1.214,5.52,1.959a82.467,82.467,0,0,0,26.5,0c3.9-.745,5.249-1.608,5.52-1.959-.271-.351-1.624-1.214-5.52-1.959a82.467,82.467,0,0,0-26.5,0C3213.125,780.354,3211.772,781.217,3211.5,781.568Zm37.585.076h0Z" transform="translate(-3209.219 -776.288)" fill="#7f7f7f"/>
                </g>
              </g>
            </g>
            <g id="组_4094" data-name="组 4094" transform="translate(0.051 14.655)">
              <g id="组_4093" data-name="组 4093">
                <g id="组_4092" data-name="组 4092">
                  <path id="路径_5565" data-name="路径 5565" d="M3230.272,880.4a73.642,73.642,0,0,1-14.321-1.241c-4.593-.958-6.732-2.241-6.732-4.04a1.125,1.125,0,0,1,2.249-.049c.176.314,1.463,1.226,5.552,2.007a82.467,82.467,0,0,0,26.5,0c4.09-.782,5.377-1.694,5.552-2.007a1.125,1.125,0,0,1,2.249.049c0,1.8-2.139,3.082-6.732,4.04A73.642,73.642,0,0,1,3230.272,880.4Z" transform="translate(-3209.219 -873.991)" fill="#7f7f7f"/>
                </g>
              </g>
            </g>
            <g id="组_4097" data-name="组 4097" transform="translate(0.051 25.155)">
              <g id="组_4096" data-name="组 4096">
                <g id="组_4095" data-name="组 4095">
                  <path id="路径_5566" data-name="路径 5566" d="M3230.272,950.4a73.642,73.642,0,0,1-14.321-1.241c-4.593-.958-6.732-2.241-6.732-4.04a1.125,1.125,0,0,1,2.249-.049c.176.314,1.463,1.226,5.552,2.007a82.467,82.467,0,0,0,26.5,0c4.09-.782,5.377-1.694,5.552-2.007a1.125,1.125,0,0,1,2.249.049c0,1.8-2.139,3.082-6.732,4.04A73.642,73.642,0,0,1,3230.272,950.4Z" transform="translate(-3209.219 -943.991)" fill="#7f7f7f"/>
                </g>
              </g>
            </g>
            <g id="组_4100" data-name="组 4100" transform="translate(0.051 35.655)">
              <g id="组_4099" data-name="组 4099">
                <g id="组_4098" data-name="组 4098">
                  <path id="路径_5567" data-name="路径 5567" d="M3230.272,1020.4a73.642,73.642,0,0,1-14.321-1.241c-4.593-.958-6.732-2.241-6.732-4.04a1.125,1.125,0,0,1,2.249-.049c.176.314,1.463,1.226,5.552,2.007a82.467,82.467,0,0,0,26.5,0c4.09-.782,5.377-1.694,5.552-2.007a1.125,1.125,0,0,1,2.249.049c0,1.8-2.139,3.082-6.732,4.04A73.642,73.642,0,0,1,3230.272,1020.4Z" transform="translate(-3209.219 -1013.991)" fill="#7f7f7f"/>
                </g>
              </g>
            </g>
            <g id="组_4103" data-name="组 4103" transform="translate(0.051 46.155)">
              <g id="组_4102" data-name="组 4102">
                <g id="组_4101" data-name="组 4101">
                  <path id="路径_5568" data-name="路径 5568" d="M3230.272,1090.4a73.646,73.646,0,0,1-14.321-1.241c-4.593-.958-6.732-2.241-6.732-4.04a1.125,1.125,0,0,1,2.249-.049c.176.313,1.463,1.226,5.552,2.007a82.463,82.463,0,0,0,26.5,0c4.09-.782,5.377-1.694,5.552-2.007a1.125,1.125,0,0,1,2.249.049c0,1.8-2.139,3.082-6.732,4.04A73.646,73.646,0,0,1,3230.272,1090.4Z" transform="translate(-3209.219 -1083.991)" fill="#7f7f7f"/>
                </g>
              </g>
            </g>
            <g id="组_4106" data-name="组 4106" transform="translate(39.9 4.082)">
              <g id="组_4105" data-name="组 4105">
                <g id="组_4104" data-name="组 4104">
                  <path id="路径_5569" data-name="路径 5569" d="M3476.007,847.75a1.125,1.125,0,0,1-1.125-1.125v-42a1.125,1.125,0,0,1,2.25,0v42A1.125,1.125,0,0,1,3476.007,847.75Z" transform="translate(-3474.882 -803.5)" fill="#7f7f7f"/>
                </g>
              </g>
            </g>
            <g id="组_4109" data-name="组 4109" transform="translate(0 4.082)">
              <g id="组_4108" data-name="组 4108">
                <g id="组_4107" data-name="组 4107">
                  <path id="路径_5570" data-name="路径 5570" d="M3210.007,847.75a1.125,1.125,0,0,1-1.125-1.125v-42a1.125,1.125,0,0,1,2.25,0v42A1.125,1.125,0,0,1,3210.007,847.75Z" transform="translate(-3208.882 -803.5)" fill="#7f7f7f"/>
                </g>
              </g>
            </g>
          </g>
          <g id="组_4113" data-name="组 4113" transform="translate(149.1 76.05)">
            <g id="组_4112" data-name="组 4112">
              <g id="组_4111" data-name="组 4111">
                <path id="路径_5571" data-name="路径 5571" d="M3502.608,946.25h-3.6a1.125,1.125,0,0,1,0-2.25h3.6a1.125,1.125,0,0,1,0,2.25Zm-11.1,0h-3.75a1.125,1.125,0,0,1,0-2.25h3.75a1.125,1.125,0,0,1,0,2.25Zm-11.25,0h-3.75a1.125,1.125,0,0,1,0-2.25h3.75a1.125,1.125,0,0,1,0,2.25Z" transform="translate(-3475.383 -944)" fill="#7f7f7f"/>
              </g>
            </g>
          </g>
          <g id="组_4116" data-name="组 4116" transform="translate(73.425 61.65)">
            <g id="组_4115" data-name="组 4115">
              <g id="组_4114" data-name="组 4114">
                <path id="路径_5572" data-name="路径 5572" d="M2972.007,863.225a1.125,1.125,0,0,1-1.125-1.125v-3.75a1.125,1.125,0,0,1,2.25,0v3.75A1.125,1.125,0,0,1,2972.007,863.225Zm0-11.25a1.125,1.125,0,0,1-1.125-1.125v-1.725a1.125,1.125,0,0,1,1.125-1.125h2.025a1.125,1.125,0,0,1,0,2.25h-.9v.6A1.125,1.125,0,0,1,2972.007,851.975Zm35.775-1.725h-3.75a1.125,1.125,0,0,1,0-2.25h3.75a1.125,1.125,0,0,1,0,2.25Zm-11.25,0h-3.75a1.125,1.125,0,0,1,0-2.25h3.75a1.125,1.125,0,0,1,0,2.25Zm-11.25,0h-3.75a1.125,1.125,0,0,1,0-2.25h3.75a1.125,1.125,0,0,1,0,2.25Z" transform="translate(-2970.882 -848)" fill="#7f7f7f"/>
              </g>
            </g>
          </g>
          <g id="组_4119" data-name="组 4119" transform="translate(73.425)">
            <g id="组_4118" data-name="组 4118">
              <g id="组_4117" data-name="组 4117">
                <path id="路径_5573" data-name="路径 5573" d="M3020.232,466.325a1.125,1.125,0,0,1-1.125,1.125h-47.1a1.125,1.125,0,0,1-1.125-1.125v-28.2a1.125,1.125,0,0,1,1.125-1.125h47.1a1.125,1.125,0,0,1,1.125,1.125Zm-47.1-1.125h44.85V439.25h-44.85Z" transform="translate(-2970.882 -437)" fill="#7f7f7f"/>
              </g>
            </g>
          </g>
          <g id="组_4140" data-name="组 4140" transform="translate(204.398 143.039)">
            <g id="组_4136" data-name="组 4136">
              <g id="组_4129" data-name="组 4129">
                <g id="组_4122" data-name="组 4122" transform="translate(0 1.483)">
                  <g id="组_4121" data-name="组 4121">
                    <g id="组_4120" data-name="组 4120">
                      <path id="路径_5574" data-name="路径 5574" d="M3845.162,1434.1a1.125,1.125,0,0,1-1.113-1.289l1.909-12.94a1.124,1.124,0,0,1,.317-.631l18.431-18.431a1.125,1.125,0,0,1,1.591,0l11.031,11.031a1.125,1.125,0,0,1,0,1.591l-18.431,18.432a1.126,1.126,0,0,1-.631.317l-12.94,1.909A1.113,1.113,0,0,1,3845.162,1434.1Zm2.968-13.533-1.634,11.074,11.074-1.634,17.373-17.373-9.44-9.44Z" transform="translate(-3844.037 -1400.478)" fill="#7f7f7f"/>
                    </g>
                  </g>
                </g>
                <g id="组_4125" data-name="组 4125" transform="translate(2.278 20.225)">
                  <g id="组_4124" data-name="组 4124">
                    <g id="组_4123" data-name="组 4123">
                      <path id="路径_5575" data-name="路径 5575" d="M3870.53,1537.859a1.121,1.121,0,0,1-.8-.33l-10.182-10.182a1.125,1.125,0,0,1,1.591-1.591l10.182,10.182a1.125,1.125,0,0,1-.8,1.92Z" transform="translate(-3859.222 -1525.426)" fill="#7f7f7f"/>
                    </g>
                  </g>
                </g>
                <g id="组_4128" data-name="组 4128" transform="translate(20.341)">
                  <g id="组_4127" data-name="组 4127">
                    <g id="组_4126" data-name="组 4126">
                      <path id="路径_5576" data-name="路径 5576" d="M3991.8,1405.356a1.121,1.121,0,0,1-.8-.33L3979.97,1394a1.125,1.125,0,0,1,0-1.591,6.2,6.2,0,0,1,8.764,0h0l3.857,3.857a6.2,6.2,0,0,1,0,8.764A1.121,1.121,0,0,1,3991.8,1405.356Zm-9.324-12.04,9.21,9.21a3.953,3.953,0,0,0-.681-4.672l-3.857-3.858A3.955,3.955,0,0,0,3982.473,1393.316Z" transform="translate(-3979.641 -1390.593)" fill="#7f7f7f"/>
                    </g>
                  </g>
                </g>
              </g>
              <g id="组_4132" data-name="组 4132" transform="translate(21.37 12.588)">
                <g id="组_4131" data-name="组 4131">
                  <g id="组_4130" data-name="组 4130">
                    <path id="路径_5577" data-name="路径 5577" d="M3987.627,1480.9a1.125,1.125,0,0,1-.8-1.92l4.136-4.136a1.125,1.125,0,0,1,1.591,1.591l-4.137,4.137A1.121,1.121,0,0,1,3987.627,1480.9Z" transform="translate(-3986.502 -1474.514)" fill="#7f7f7f"/>
                  </g>
                </g>
              </g>
              <g id="组_4135" data-name="组 4135" transform="translate(17.339 19.801)">
                <g id="组_4134" data-name="组 4134">
                  <g id="组_4133" data-name="组 4133">
                    <path id="路径_5578" data-name="路径 5578" d="M3960.757,1525.8a1.125,1.125,0,0,1-.8-1.92l.955-.955a1.125,1.125,0,0,1,1.591,1.591l-.955.955A1.121,1.121,0,0,1,3960.757,1525.8Z" transform="translate(-3959.632 -1522.598)" fill="#7f7f7f"/>
                  </g>
                </g>
              </g>
            </g>
            <g id="组_4139" data-name="组 4139" transform="translate(1.429 27.013)">
              <g id="组_4138" data-name="组 4138">
                <g id="组_4137" data-name="组 4137">
                  <path id="路径_5579" data-name="路径 5579" d="M3859.146,1577.386a1.121,1.121,0,0,1-.8-.329l-4.455-4.455a1.125,1.125,0,1,1,1.591-1.591l4.455,4.455a1.125,1.125,0,0,1-.8,1.921Z" transform="translate(-3853.566 -1570.681)" fill="#7f7f7f"/>
                </g>
              </g>
            </g>
          </g>
          <g id="组_4143" data-name="组 4143" transform="translate(187.8 175.95)">
            <g id="组_4142" data-name="组 4142">
              <g id="组_4141" data-name="组 4141">
                <path id="路径_5580" data-name="路径 5580" d="M3751.158,1612.25h-16.65a1.125,1.125,0,0,1,0-2.25h16.65a1.125,1.125,0,0,1,0,2.25Z" transform="translate(-3733.383 -1610)" fill="#7f7f7f"/>
              </g>
            </g>
          </g>
          <g id="组_4146" data-name="组 4146" transform="translate(175.95 175.95)">
            <g id="组_4145" data-name="组 4145">
              <g id="组_4144" data-name="组 4144">
                <path id="路径_5581" data-name="路径 5581" d="M3661.058,1612.25h-5.55a1.125,1.125,0,0,1,0-2.25h5.55a1.125,1.125,0,0,1,0,2.25Z" transform="translate(-3654.383 -1610)" fill="#7f7f7f"/>
              </g>
            </g>
          </g>
          <g id="组_4149" data-name="组 4149" transform="translate(78.6 7.05)">
            <g id="组_4148" data-name="组 4148">
              <g id="组_4147" data-name="组 4147">
                <path id="路径_5582" data-name="路径 5582" d="M3021.808,486.25h-15.3a1.125,1.125,0,0,1,0-2.25h15.3a1.125,1.125,0,0,1,0,2.25Z" transform="translate(-3005.383 -484)" fill="#7f7f7f"/>
              </g>
            </g>
          </g>
          <g id="组_4152" data-name="组 4152" transform="translate(78.6 14.1)">
            <g id="组_4151" data-name="组 4151">
              <g id="组_4150" data-name="组 4150">
                <path id="路径_5583" data-name="路径 5583" d="M3021.808,533.25h-15.3a1.125,1.125,0,0,1,0-2.25h15.3a1.125,1.125,0,0,1,0,2.25Z" transform="translate(-3005.383 -531)" fill="#7f7f7f"/>
              </g>
            </g>
          </g>
          <g id="组_4155" data-name="组 4155" transform="translate(78.6 21.15)">
            <g id="组_4154" data-name="组 4154">
              <g id="组_4153" data-name="组 4153">
                <path id="路径_5584" data-name="路径 5584" d="M3021.808,580.25h-15.3a1.125,1.125,0,0,1,0-2.25h15.3a1.125,1.125,0,0,1,0,2.25Z" transform="translate(-3005.383 -578)" fill="#7f7f7f"/>
              </g>
            </g>
          </g>
          <g id="组_4158" data-name="组 4158" transform="translate(121.65 29.325)">
            <g id="组_4157" data-name="组 4157">
              <g id="组_4156" data-name="组 4156">
                <path id="路径_5585" data-name="路径 5585" d="M3292.382,632.5" transform="translate(-3292.382 -632.5)" fill="none" stroke="#7f7f7f" stroke-linecap="round" stroke-linejoin="round" stroke-width="15"/>
              </g>
            </g>
          </g>
          <g id="组_4161" data-name="组 4161" transform="translate(102.169 12.175)">
            <g id="组_4160" data-name="组 4160">
              <g id="组_4159" data-name="组 4159">
                <path id="路径_5586" data-name="路径 5586" d="M3163.638,536.442a1.125,1.125,0,0,1-1.125-1.125V519.292a1.125,1.125,0,0,1,1.125-1.125h18.355a1.125,1.125,0,0,1,0,2.25h-17.23v14.9A1.125,1.125,0,0,1,3163.638,536.442Z" transform="translate(-3162.513 -518.167)" fill="#7f7f7f"/>
              </g>
            </g>
          </g>
          <g id="组_4164" data-name="组 4164" transform="translate(179.025 99.15)">
            <g id="组_4163" data-name="组 4163">
              <g id="组_4162" data-name="组 4162">
                <path id="路径_5587" data-name="路径 5587" d="M3676.007,1122.525a1.125,1.125,0,0,1-1.125-1.125v-22.275a1.125,1.125,0,0,1,1.125-1.125h27.825a1.125,1.125,0,0,1,0,2.25h-26.7v21.15A1.125,1.125,0,0,1,3676.007,1122.525Z" transform="translate(-3674.882 -1098)" fill="#7f7f7f"/>
              </g>
            </g>
          </g>
          <g id="组_4167" data-name="组 4167" transform="translate(164.625 85.5)">
            <g id="组_4166" data-name="组 4166">
              <g id="组_4165" data-name="组 4165">
                <path id="路径_5588" data-name="路径 5588" d="M3594.332,1036.85h-14.325a1.125,1.125,0,0,1-1.125-1.125v-27.6a1.125,1.125,0,0,1,1.125-1.125h29.85a1.125,1.125,0,0,1,1.125,1.125V1021.7a1.125,1.125,0,1,1-2.25,0v-12.45h-27.6v25.35h13.2a1.125,1.125,0,0,1,0,2.25Z" transform="translate(-3578.882 -1007)" fill="#7f7f7f"/>
              </g>
            </g>
          </g>
          <g id="组_4180" data-name="组 4180" transform="translate(10.829 42.06)">
            <g id="组_4170" data-name="组 4170" transform="translate(4.334)">
              <g id="组_4169" data-name="组 4169">
                <g id="组_4168" data-name="组 4168">
                  <path id="路径_5589" data-name="路径 5589" d="M2583.59,720.5a1.125,1.125,0,0,1-.8-1.921l.853-.852a1.125,1.125,0,1,1,1.591,1.591l-.853.853A1.122,1.122,0,0,1,2583.59,720.5Z" transform="translate(-2582.465 -717.398)" fill="#7f7f7f"/>
                </g>
              </g>
            </g>
            <g id="组_4173" data-name="组 4173" transform="translate(0.071 4.263)">
              <g id="组_4172" data-name="组 4172">
                <g id="组_4171" data-name="组 4171">
                  <path id="路径_5590" data-name="路径 5590" d="M2555.172,748.919a1.125,1.125,0,0,1-.8-1.92l.853-.853a1.125,1.125,0,0,1,1.591,1.591l-.853.852A1.121,1.121,0,0,1,2555.172,748.919Z" transform="translate(-2554.046 -745.816)" fill="#7f7f7f"/>
                </g>
              </g>
            </g>
            <g id="组_4176" data-name="组 4176">
              <g id="组_4175" data-name="组 4175">
                <g id="组_4174" data-name="组 4174">
                  <path id="路径_5591" data-name="路径 5591" d="M2555.551,720.5a1.122,1.122,0,0,1-.8-.33l-.853-.853a1.125,1.125,0,0,1,1.591-1.591l.853.852a1.125,1.125,0,0,1-.8,1.921Z" transform="translate(-2553.573 -717.398)" fill="#7f7f7f"/>
                </g>
              </g>
            </g>
            <g id="组_4179" data-name="组 4179" transform="translate(4.334 4.334)">
              <g id="组_4178" data-name="组 4178">
                <g id="组_4177" data-name="组 4177">
                  <path id="路径_5592" data-name="路径 5592" d="M2584.372,749.322a1.122,1.122,0,0,1-.8-.33l-.781-.781a1.125,1.125,0,0,1,1.591-1.591l.781.781a1.125,1.125,0,0,1-.8,1.92Z" transform="translate(-2582.465 -746.29)" fill="#7f7f7f"/>
                </g>
              </g>
            </g>
          </g>
          <g id="组_4193" data-name="组 4193" transform="translate(61.379 168.36)">
            <g id="组_4183" data-name="组 4183" transform="translate(4.334)">
              <g id="组_4182" data-name="组 4182">
                <g id="组_4181" data-name="组 4181">
                  <path id="路径_5593" data-name="路径 5593" d="M2920.59,1562.5a1.125,1.125,0,0,1-.8-1.921l.853-.852a1.125,1.125,0,0,1,1.591,1.591l-.853.853A1.122,1.122,0,0,1,2920.59,1562.5Z" transform="translate(-2919.465 -1559.398)" fill="#7f7f7f"/>
                </g>
              </g>
            </g>
            <g id="组_4186" data-name="组 4186" transform="translate(0.071 4.263)">
              <g id="组_4185" data-name="组 4185">
                <g id="组_4184" data-name="组 4184">
                  <path id="路径_5594" data-name="路径 5594" d="M2892.171,1590.919a1.125,1.125,0,0,1-.8-1.92l.853-.853a1.125,1.125,0,1,1,1.591,1.591l-.853.852A1.122,1.122,0,0,1,2892.171,1590.919Z" transform="translate(-2891.046 -1587.817)" fill="#7f7f7f"/>
                </g>
              </g>
            </g>
            <g id="组_4189" data-name="组 4189">
              <g id="组_4188" data-name="组 4188">
                <g id="组_4187" data-name="组 4187">
                  <path id="路径_5595" data-name="路径 5595" d="M2892.551,1562.5a1.122,1.122,0,0,1-.8-.33l-.853-.853a1.125,1.125,0,0,1,1.591-1.591l.853.852a1.125,1.125,0,0,1-.8,1.921Z" transform="translate(-2890.573 -1559.398)" fill="#7f7f7f"/>
                </g>
              </g>
            </g>
            <g id="组_4192" data-name="组 4192" transform="translate(4.334 4.334)">
              <g id="组_4191" data-name="组 4191">
                <g id="组_4190" data-name="组 4190">
                  <path id="路径_5596" data-name="路径 5596" d="M2921.372,1591.322a1.121,1.121,0,0,1-.8-.33l-.781-.781a1.125,1.125,0,0,1,1.591-1.591l.781.781a1.125,1.125,0,0,1-.8,1.92Z" transform="translate(-2919.465 -1588.29)" fill="#7f7f7f"/>
                </g>
              </g>
            </g>
          </g>
          <g id="组_4206" data-name="组 4206" transform="translate(221.279 118.86)">
            <g id="组_4196" data-name="组 4196" transform="translate(4.334)">
              <g id="组_4195" data-name="组 4195">
                <g id="组_4194" data-name="组 4194">
                  <path id="路径_5597" data-name="路径 5597" d="M3986.59,1232.5a1.125,1.125,0,0,1-.8-1.921l.852-.852a1.125,1.125,0,0,1,1.591,1.591l-.853.853A1.121,1.121,0,0,1,3986.59,1232.5Z" transform="translate(-3985.465 -1229.398)" fill="#7f7f7f"/>
                </g>
              </g>
            </g>
            <g id="组_4199" data-name="组 4199" transform="translate(0.071 4.263)">
              <g id="组_4198" data-name="组 4198">
                <g id="组_4197" data-name="组 4197">
                  <path id="路径_5598" data-name="路径 5598" d="M3958.171,1260.919a1.125,1.125,0,0,1-.8-1.92l.853-.853a1.125,1.125,0,1,1,1.591,1.591l-.853.852A1.121,1.121,0,0,1,3958.171,1260.919Z" transform="translate(-3957.046 -1257.817)" fill="#7f7f7f"/>
                </g>
              </g>
            </g>
            <g id="组_4202" data-name="组 4202">
              <g id="组_4201" data-name="组 4201">
                <g id="组_4200" data-name="组 4200">
                  <path id="路径_5599" data-name="路径 5599" d="M3958.551,1232.5a1.122,1.122,0,0,1-.8-.33l-.852-.853a1.125,1.125,0,0,1,1.591-1.591l.853.852a1.125,1.125,0,0,1-.8,1.921Z" transform="translate(-3956.573 -1229.398)" fill="#7f7f7f"/>
                </g>
              </g>
            </g>
            <g id="组_4205" data-name="组 4205" transform="translate(4.334 4.334)">
              <g id="组_4204" data-name="组 4204">
                <g id="组_4203" data-name="组 4203">
                  <path id="路径_5600" data-name="路径 5600" d="M3987.372,1261.322a1.121,1.121,0,0,1-.8-.33l-.781-.781a1.125,1.125,0,0,1,1.591-1.591l.781.781a1.125,1.125,0,0,1-.8,1.92Z" transform="translate(-3985.465 -1258.29)" fill="#7f7f7f"/>
                </g>
              </g>
            </g>
          </g>
          <g id="组_4209" data-name="组 4209" transform="translate(17.739 9.284)">
            <g id="组_4208" data-name="组 4208">
              <g id="组_4207" data-name="组 4207">
                <path id="路径_5601" data-name="路径 5601" d="M2602.785,504.589a3.142,3.142,0,0,1-2.223-5.364,1.125,1.125,0,1,1,1.591,1.591.893.893,0,1,0,1.263,1.263,1.125,1.125,0,0,1,1.591,1.591A3.133,3.133,0,0,1,2602.785,504.589Z" transform="translate(-2599.644 -498.895)" fill="#7f7f7f"/>
              </g>
            </g>
          </g>
          <g id="组_4212" data-name="组 4212" transform="translate(13.441 180.152)">
            <g id="组_4211" data-name="组 4211">
              <g id="组_4210" data-name="组 4210">
                <path id="路径_5602" data-name="路径 5602" d="M2574.133,1643.709a3.142,3.142,0,0,1-2.223-5.364,1.125,1.125,0,0,1,1.591,1.591.893.893,0,1,0,1.263,1.263,1.125,1.125,0,1,1,1.591,1.591A3.134,3.134,0,0,1,2574.133,1643.709Z" transform="translate(-2570.991 -1638.015)" fill="#7f7f7f"/>
              </g>
            </g>
          </g>
          <g id="组_4215" data-name="组 4215" transform="translate(181.429 146.965)">
            <g id="组_4214" data-name="组 4214">
              <g id="组_4213" data-name="组 4213">
                <path id="路径_5603" data-name="路径 5603" d="M3694.05,1422.461a3.143,3.143,0,0,1-2.223-5.366,1.125,1.125,0,1,1,1.591,1.591.893.893,0,1,0,1.263,1.263,1.125,1.125,0,0,1,1.591,1.591A3.122,3.122,0,0,1,3694.05,1422.461Z" transform="translate(-3690.908 -1416.765)" fill="#7f7f7f"/>
              </g>
            </g>
          </g>
        </g>
      </g>
    </g>
  </g>
</svg>
