<svg xmlns="http://www.w3.org/2000/svg" width="300" height="229.2" viewBox="0 0 300 229.2">
  <g id="img-4" transform="translate(-1616 -805)">
    <rect id="矩形_3129" data-name="矩形 3129" width="300" height="229.2" transform="translate(1616 805)" fill="#fff" opacity="0"/>
    <g id="DEVELOPMENT" transform="translate(1655.3 826.75)">
      <g id="组_4572" data-name="组 4572" transform="translate(0 0)">
        <g id="组_4403" data-name="组 4403" transform="translate(41.72 125.713)">
          <g id="组_4398" data-name="组 4398">
            <g id="组_4397" data-name="组 4397">
              <path id="路径_5680" data-name="路径 5680" d="M7078.708,1259.166a10.3,10.3,0,0,0,10.3,10.3h134.915a10.3,10.3,0,0,0,10.3-10.3v-6.681H7078.708Z" transform="translate(-7078.708 -1252.485)" fill="#c9c9c9"/>
            </g>
          </g>
          <g id="组_4400" data-name="组 4400" transform="translate(75.863 6.598)">
            <g id="组_4399" data-name="组 4399">
              <circle id="椭圆_60" data-name="椭圆 60" cx="1.89" cy="1.89" r="1.89" fill="#fff"/>
            </g>
          </g>
          <g id="组_4402" data-name="组 4402" transform="translate(40.237 46.699)">
            <g id="组_4401" data-name="组 4401">
              <rect id="矩形_3119" data-name="矩形 3119" width="74.885" height="8.522" rx="4.261" fill="#c9c9c9"/>
            </g>
          </g>
        </g>
        <g id="组_4405" data-name="组 4405" transform="translate(50.173 50.394)">
          <g id="组_4404" data-name="组 4404">
            <rect id="矩形_3120" data-name="矩形 3120" width="138.6" height="35.196" fill="#e5ddd9"/>
          </g>
        </g>
        <g id="组_4407" data-name="组 4407" transform="translate(88.8 8.317)">
          <g id="组_4406" data-name="组 4406">
            <path id="矩形_3121" data-name="矩形 3121" d="M13.387,0H38.439A13.387,13.387,0,0,1,51.825,13.387v0A13.387,13.387,0,0,1,38.439,26.773H13.387A13.387,13.387,0,0,1,0,13.387v0A13.387,13.387,0,0,1,13.387,0Z" fill="#c4a693"/>
          </g>
        </g>
        <g id="组_4409" data-name="组 4409" transform="translate(202.816 167.807)">
          <g id="组_4408" data-name="组 4408">
            <rect id="矩形_3122" data-name="矩形 3122" width="20.7" height="18.883" fill="#c4a693"/>
          </g>
        </g>
        <g id="组_4411" data-name="组 4411" transform="translate(40.595 39.189)">
          <g id="组_4410" data-name="组 4410">
            <path id="路径_5681" data-name="路径 5681" d="M7217.3,780.281H7082.873a11.678,11.678,0,0,1-11.665-11.665v-81.3a11.678,11.678,0,0,1,11.665-11.665H7217.3a11.678,11.678,0,0,1,11.665,11.665v81.3A11.678,11.678,0,0,1,7217.3,780.281ZM7082.873,677.905a9.426,9.426,0,0,0-9.415,9.415v81.3a9.426,9.426,0,0,0,9.415,9.415H7217.3a9.425,9.425,0,0,0,9.415-9.415v-81.3a9.425,9.425,0,0,0-9.415-9.415Z" transform="translate(-7071.208 -675.655)" fill="#7f7f7f"/>
          </g>
        </g>
        <g id="组_4416" data-name="组 4416" transform="translate(93.578 141.564)">
          <g id="组_4413" data-name="组 4413" transform="translate(40.44)">
            <g id="组_4412" data-name="组 4412">
              <path id="路径_5682" data-name="路径 5682" d="M7704.248,1390.132a1.119,1.119,0,0,1-.692-.239,23.789,23.789,0,0,1-8.87-12.863c-1.407-5.516-.573-11.646,2.477-18.219a1.125,1.125,0,1,1,2.041.947c-6.716,14.476-.586,23.414,5.739,28.364a1.125,1.125,0,0,1-.694,2.011Z" transform="translate(-7694.022 -1358.158)" fill="#7f7f7f"/>
            </g>
          </g>
          <g id="组_4415" data-name="组 4415" transform="translate(0 0)">
            <g id="组_4414" data-name="组 4414">
              <path id="路径_5683" data-name="路径 5683" d="M7425.549,1390.132a1.125,1.125,0,0,1-.694-2.011c6.325-4.949,12.455-13.888,5.738-28.364a1.125,1.125,0,0,1,2.042-.947c3.05,6.574,3.883,12.7,2.477,18.219a23.79,23.79,0,0,1-8.87,12.863A1.121,1.121,0,0,1,7425.549,1390.132Z" transform="translate(-7424.423 -1358.159)" fill="#7f7f7f"/>
            </g>
          </g>
        </g>
        <g id="组_4418" data-name="组 4418" transform="translate(80.832 171.288)">
          <g id="组_4417" data-name="组 4417">
            <path id="路径_5684" data-name="路径 5684" d="M7411.42,1566.653h-66.8a5.169,5.169,0,1,1,0-10.338h66.8a5.169,5.169,0,1,1,0,10.338Zm-66.8-8.088a2.919,2.919,0,1,0,0,5.838h66.8a2.919,2.919,0,1,0,0-5.838Z" transform="translate(-7339.455 -1556.315)" fill="#7f7f7f"/>
          </g>
        </g>
        <g id="组_4420" data-name="组 4420" transform="translate(40.622 124.74)">
          <g id="组_4419" data-name="组 4419">
            <path id="路径_5685" data-name="路径 5685" d="M7228.058,1248.25h-155.55a1.125,1.125,0,0,1,0-2.25h155.55a1.125,1.125,0,0,1,0,2.25Z" transform="translate(-7071.383 -1246)" fill="#7f7f7f"/>
          </g>
        </g>
        <g id="组_4422" data-name="组 4422" transform="translate(115.596 130.241)">
          <g id="组_4421" data-name="组 4421">
            <path id="路径_5686" data-name="路径 5686" d="M7575.014,1290.281a3.8,3.8,0,1,1,3.8-3.8A3.808,3.808,0,0,1,7575.014,1290.281Zm0-5.358a1.554,1.554,0,1,0,1.555,1.554A1.556,1.556,0,0,0,7575.014,1284.923Z" transform="translate(-7571.21 -1282.673)" fill="#7f7f7f"/>
          </g>
        </g>
        <g id="组_4449" data-name="组 4449" transform="translate(2.522 1.515)">
          <g id="组_4424" data-name="组 4424" transform="translate(7.409 7.594)">
            <g id="组_4423" data-name="组 4423">
              <path id="路径_5687" data-name="路径 5687" d="M6882.18,504.955h-5.37a3.169,3.169,0,0,1-3.165-3.165v-1.271a2.5,2.5,0,0,0-1.142-2.09,12.7,12.7,0,0,1,6.691-23.3h0a12.713,12.713,0,0,1,7.282,23.307,2.494,2.494,0,0,0-1.132,2.084v1.273A3.169,3.169,0,0,1,6882.18,504.955Zm-2.94-27.579a10.526,10.526,0,0,0-10.212,10.275,10.4,10.4,0,0,0,4.713,8.9,4.748,4.748,0,0,1,2.155,3.97v1.271a.916.916,0,0,0,.915.915h5.37a.916.916,0,0,0,.915-.915v-1.273a4.737,4.737,0,0,1,2.144-3.962,10.463,10.463,0,0,0-6-19.179Z" transform="translate(-6866.776 -475.123)" fill="#7f7f7f"/>
            </g>
          </g>
          <g id="组_4426" data-name="组 4426" transform="translate(16.5 38.625)">
            <g id="组_4425" data-name="组 4425">
              <path id="路径_5688" data-name="路径 5688" d="M6933.458,684.25h-4.95a1.125,1.125,0,0,1,0-2.25h4.95a1.125,1.125,0,0,1,0,2.25Z" transform="translate(-6927.383 -682)" fill="#7f7f7f"/>
            </g>
          </g>
          <g id="组_4428" data-name="组 4428" transform="translate(16.505 21.3)">
            <g id="组_4427" data-name="组 4427">
              <path id="路径_5689" data-name="路径 5689" d="M6931.015,573.7a3.6,3.6,0,1,1,3.6-3.6A3.6,3.6,0,0,1,6931.015,573.7Zm0-4.95a1.35,1.35,0,1,0,1.35,1.35A1.352,1.352,0,0,0,6931.015,568.75Z" transform="translate(-6927.415 -566.5)" fill="#7f7f7f"/>
            </g>
          </g>
          <g id="组_4430" data-name="组 4430" transform="translate(18.975 26.25)">
            <g id="组_4429" data-name="组 4429">
              <path id="路径_5690" data-name="路径 5690" d="M6945.007,610.45a1.125,1.125,0,0,1-1.125-1.125v-8.7a1.125,1.125,0,0,1,2.25,0v8.7A1.125,1.125,0,0,1,6945.007,610.45Z" transform="translate(-6943.882 -599.5)" fill="#7f7f7f"/>
            </g>
          </g>
          <g id="组_4432" data-name="组 4432" transform="translate(18.975)">
            <g id="组_4431" data-name="组 4431">
              <path id="路径_5691" data-name="路径 5691" d="M6945.007,428.55a1.125,1.125,0,0,1-1.125-1.125v-1.8a1.125,1.125,0,0,1,2.25,0v1.8A1.125,1.125,0,0,1,6945.007,428.55Z" transform="translate(-6943.882 -424.5)" fill="#7f7f7f"/>
            </g>
          </g>
          <g id="组_4437" data-name="组 4437" transform="translate(0 18.825)">
            <g id="组_4434" data-name="组 4434" transform="translate(36.3)">
              <g id="组_4433" data-name="组 4433">
                <path id="路径_5692" data-name="路径 5692" d="M7062.308,552.25h-1.8a1.125,1.125,0,0,1,0-2.25h1.8a1.125,1.125,0,0,1,0,2.25Z" transform="translate(-7059.383 -550)" fill="#7f7f7f"/>
              </g>
            </g>
            <g id="组_4436" data-name="组 4436">
              <g id="组_4435" data-name="组 4435">
                <path id="路径_5693" data-name="路径 5693" d="M6820.308,552.25h-1.8a1.125,1.125,0,0,1,0-2.25h1.8a1.125,1.125,0,0,1,0,2.25Z" transform="translate(-6817.383 -550)" fill="#7f7f7f"/>
              </g>
            </g>
          </g>
          <g id="组_4440" data-name="组 4440" transform="translate(5.533 31.023)">
            <g id="组_4439" data-name="组 4439">
              <g id="组_4438" data-name="组 4438">
                <path id="路径_5694" data-name="路径 5694" d="M6855.393,634.84a1.125,1.125,0,0,1-.8-1.921l1.273-1.273a1.125,1.125,0,0,1,1.591,1.591l-1.273,1.273A1.121,1.121,0,0,1,6855.393,634.84Z" transform="translate(-6854.268 -631.317)" fill="#7f7f7f"/>
              </g>
            </g>
          </g>
          <g id="组_4445" data-name="组 4445" transform="translate(5.533 5.355)">
            <g id="组_4442" data-name="组 4442" transform="translate(25.668 25.668)">
              <g id="组_4441" data-name="组 4441">
                <path id="路径_5695" data-name="路径 5695" d="M7027.785,634.84a1.122,1.122,0,0,1-.8-.33l-1.272-1.273a1.125,1.125,0,1,1,1.591-1.591l1.273,1.273a1.125,1.125,0,0,1-.8,1.921Z" transform="translate(-7025.387 -631.317)" fill="#7f7f7f"/>
              </g>
            </g>
            <g id="组_4444" data-name="组 4444">
              <g id="组_4443" data-name="组 4443">
                <path id="路径_5696" data-name="路径 5696" d="M6856.666,463.72a1.121,1.121,0,0,1-.8-.33l-1.273-1.273a1.125,1.125,0,1,1,1.591-1.591l1.273,1.273a1.125,1.125,0,0,1-.8,1.921Z" transform="translate(-6854.268 -460.197)" fill="#7f7f7f"/>
              </g>
            </g>
          </g>
          <g id="组_4448" data-name="组 4448" transform="translate(31.201 5.355)">
            <g id="组_4447" data-name="组 4447">
              <g id="组_4446" data-name="组 4446">
                <path id="路径_5697" data-name="路径 5697" d="M7026.512,463.72a1.125,1.125,0,0,1-.8-1.921l1.272-1.273a1.125,1.125,0,0,1,1.591,1.591l-1.273,1.273A1.121,1.121,0,0,1,7026.512,463.72Z" transform="translate(-7025.387 -460.197)" fill="#7f7f7f"/>
              </g>
            </g>
          </g>
        </g>
        <g id="组_4472" data-name="组 4472" transform="translate(186.808 2.496)">
          <g id="组_4469" data-name="组 4469" transform="translate(5.238 6.744)">
            <g id="组_4463" data-name="组 4463">
              <g id="组_4451" data-name="组 4451">
                <g id="组_4450" data-name="组 4450">
                  <path id="路径_5698" data-name="路径 5698" d="M8097.907,505.55h-4.35a1.125,1.125,0,0,1-1.125-1.125v-2.106a12.149,12.149,0,0,1-2.6-1.066l-1.441,1.429a1.114,1.114,0,0,1-.8.318h0a1.113,1.113,0,0,1-.795-.319l-3.094-3.09a1.122,1.122,0,0,1,0-1.587l1.456-1.456a12.441,12.441,0,0,1-1.035-2.548h-2.121a1.125,1.125,0,0,1-1.125-1.125v-4.35a1.125,1.125,0,0,1,1.125-1.125h2.113a11.969,11.969,0,0,1,1.036-2.561l-1.449-1.448a1.126,1.126,0,0,1,0-1.591l3.094-3.094a1.125,1.125,0,0,1,1.591,0l1.438,1.438a12.263,12.263,0,0,1,2.6-1.062v-1.956a1.125,1.125,0,0,1,1.125-1.125h4.35a1.125,1.125,0,0,1,1.125,1.125v1.963a11.554,11.554,0,0,1,2.539,1.06l1.441-1.429a1.115,1.115,0,0,1,.8-.318h0a1.114,1.114,0,0,1,.8.319l3.093,3.09a1.121,1.121,0,0,1,0,1.587l-1.44,1.442a12.472,12.472,0,0,1,1.066,2.563h1.985a1.125,1.125,0,0,1,1.125,1.125v4.35a1.125,1.125,0,0,1-1.125,1.125h-1.978a11.963,11.963,0,0,1-1.067,2.576l1.434,1.434a1.125,1.125,0,0,1,0,1.591l-3.094,3.094a1.125,1.125,0,0,1-1.591,0l-1.438-1.438a11.656,11.656,0,0,1-2.542,1.056v2.112A1.125,1.125,0,0,1,8097.907,505.55Zm-3.226-2.25h2.1v-1.869a1.125,1.125,0,0,1,.9-1.1,9.764,9.764,0,0,0,3.443-1.431,1.125,1.125,0,0,1,1.416.143l1.267,1.267,1.5-1.5-1.264-1.264a1.125,1.125,0,0,1-.142-1.417,9.748,9.748,0,0,0,1.439-3.472,1.124,1.124,0,0,1,1.1-.9h1.736v-2.1h-1.736a1.125,1.125,0,0,1-1.1-.891,10.246,10.246,0,0,0-1.446-3.47,1.125,1.125,0,0,1,.14-1.419l1.271-1.272-1.5-1.5-1.271,1.27a1.125,1.125,0,0,1-1.418.142,9.71,9.71,0,0,0-3.437-1.434,1.125,1.125,0,0,1-.9-1.1V478.25h-2.1v1.719a1.125,1.125,0,0,1-.905,1.1,9.824,9.824,0,0,0-3.5,1.429,1.125,1.125,0,0,1-1.414-.144l-1.265-1.265-1.5,1.5,1.272,1.272a1.125,1.125,0,0,1,.147,1.409,9.753,9.753,0,0,0-1.4,3.465,1.125,1.125,0,0,1-1.1.909h-1.878v2.1h1.878a1.126,1.126,0,0,1,1.1.9,10.226,10.226,0,0,0,1.405,3.461,1.125,1.125,0,0,1-.146,1.411l-1.279,1.281,1.5,1.5,1.269-1.269a1.125,1.125,0,0,1,1.416-.143,9.759,9.759,0,0,0,3.5,1.433,1.125,1.125,0,0,1,.905,1.1Z" transform="translate(-8080.882 -476)" fill="#7f7f7f"/>
                </g>
              </g>
              <g id="组_4453" data-name="组 4453" transform="translate(6.255 6.255)">
                <g id="组_4452" data-name="组 4452">
                  <path id="路径_5699" data-name="路径 5699" d="M8131.1,534.74a8.52,8.52,0,1,1,8.52-8.52A8.529,8.529,0,0,1,8131.1,534.74Zm0-14.79a6.27,6.27,0,1,0,6.27,6.27A6.277,6.277,0,0,0,8131.1,519.95Z" transform="translate(-8122.583 -517.7)" fill="#7f7f7f"/>
                </g>
              </g>
              <g id="组_4455" data-name="组 4455" transform="translate(11.6 11.6)">
                <g id="组_4454" data-name="组 4454">
                  <path id="路径_5700" data-name="路径 5700" d="M8161.391,559.683a3.175,3.175,0,1,1,3.175-3.175A3.179,3.179,0,0,1,8161.391,559.683Zm0-4.1a.925.925,0,1,0,.925.925A.926.926,0,0,0,8161.391,555.583Z" transform="translate(-8158.216 -553.333)" fill="#7f7f7f"/>
                </g>
              </g>
              <g id="组_4457" data-name="组 4457" transform="translate(13.65 6.225)">
                <g id="组_4456" data-name="组 4456">
                  <path id="路径_5701" data-name="路径 5701" d="M8173.007,525.15a1.125,1.125,0,0,1-1.125-1.125v-5.4a1.125,1.125,0,0,1,2.25,0v5.4A1.125,1.125,0,0,1,8173.007,525.15Z" transform="translate(-8171.882 -517.5)" fill="#7f7f7f"/>
                </g>
              </g>
              <g id="组_4462" data-name="组 4462" transform="translate(8.623 15.087)">
                <g id="组_4459" data-name="组 4459">
                  <g id="组_4458" data-name="组 4458">
                    <path id="路径_5702" data-name="路径 5702" d="M8139.5,582.225a1.125,1.125,0,0,1-.8-1.92l3.392-3.391a1.125,1.125,0,1,1,1.591,1.591l-3.391,3.391A1.122,1.122,0,0,1,8139.5,582.225Z" transform="translate(-8138.371 -576.583)" fill="#7f7f7f"/>
                  </g>
                </g>
                <g id="组_4461" data-name="组 4461" transform="translate(6.662)">
                  <g id="组_4460" data-name="组 4460">
                    <path id="路径_5703" data-name="路径 5703" d="M8187.3,582.225a1.121,1.121,0,0,1-.8-.33l-3.392-3.391a1.125,1.125,0,0,1,1.591-1.591l3.391,3.391a1.125,1.125,0,0,1-.8,1.92Z" transform="translate(-8182.785 -576.583)" fill="#7f7f7f"/>
                  </g>
                </g>
              </g>
            </g>
            <g id="组_4468" data-name="组 4468" transform="translate(15.75 26.55)">
              <g id="组_4465" data-name="组 4465">
                <g id="组_4464" data-name="组 4464">
                  <path id="路径_5704" data-name="路径 5704" d="M8199.007,675.8h-3.3a1.125,1.125,0,0,1-1.125-1.125v-1.426a8.677,8.677,0,0,1-1.636-.665l-.951.943a1.125,1.125,0,0,1-1.587,0l-2.322-2.321a1.125,1.125,0,0,1,0-1.592l.942-.94a9.2,9.2,0,0,1-.643-1.571h-1.379a1.125,1.125,0,0,1-1.125-1.125v-3.3a1.125,1.125,0,0,1,1.125-1.125h1.377a9.289,9.289,0,0,1,.644-1.586l-.938-.936a1.125,1.125,0,0,1,0-1.592l2.327-2.323a1.124,1.124,0,0,1,1.588,0l.941.937a8.744,8.744,0,0,1,1.637-.663v-1.261a1.125,1.125,0,0,1,1.125-1.125h3.3a1.125,1.125,0,0,1,1.125,1.125v1.265a7.024,7.024,0,0,1,1.539.65l.9-.919a1.125,1.125,0,0,1,1.6-.008l2.323,2.323a1.126,1.126,0,0,1,0,1.591l-.931.931a9.317,9.317,0,0,1,.664,1.591h1.33a1.125,1.125,0,0,1,1.125,1.125v3.3a1.125,1.125,0,0,1-1.125,1.125h-1.328a9.351,9.351,0,0,1-.658,1.587l.927.917a1.126,1.126,0,0,1,0,1.594l-2.314,2.322a1.125,1.125,0,0,1-.8.33h0a1.123,1.123,0,0,1-.8-.333l-.914-.923a7.109,7.109,0,0,1-1.545.651v1.43A1.125,1.125,0,0,1,8199.007,675.8Zm-2.175-2.25h1.05v-1.175a1.126,1.126,0,0,1,.9-1.1,6.866,6.866,0,0,0,2.455-1.033,1.125,1.125,0,0,1,1.42.147l.735.743.719-.721-.747-.74a1.126,1.126,0,0,1-.146-1.422,7.045,7.045,0,0,0,1.036-2.5,1.126,1.126,0,0,1,1.1-.9h1.075V663.8h-1.075a1.124,1.124,0,0,1-1.1-.9,7.063,7.063,0,0,0-1.043-2.5,1.125,1.125,0,0,1,.14-1.419l.755-.755-.724-.724-.725.74a1.125,1.125,0,0,1-1.426.15,6.819,6.819,0,0,0-2.449-1.035,1.125,1.125,0,0,1-.9-1.1v-1.01h-1.05v1.01a1.125,1.125,0,0,1-.9,1.1,7.326,7.326,0,0,0-2.549,1.033,1.125,1.125,0,0,1-1.412-.143l-.759-.756-.735.734.753.752a1.125,1.125,0,0,1,.148,1.41,7.07,7.07,0,0,0-1.012,2.5,1.125,1.125,0,0,1-1.1.907h-1.13v1.05h1.13a1.125,1.125,0,0,1,1.1.906,7.011,7.011,0,0,0,1.014,2.482,1.126,1.126,0,0,1-.147,1.412l-.759.757.733.733.769-.763a1.125,1.125,0,0,1,1.412-.14,7.28,7.28,0,0,0,2.543,1.034,1.125,1.125,0,0,1,.9,1.1Z" transform="translate(-8185.882 -653)" fill="#7f7f7f"/>
                </g>
              </g>
              <g id="组_4467" data-name="组 4467" transform="translate(7.071 7.071)">
                <g id="组_4466" data-name="组 4466">
                  <path id="路径_5705" data-name="路径 5705" d="M8237.352,708.8a4.329,4.329,0,1,1,4.329-4.329A4.334,4.334,0,0,1,8237.352,708.8Zm0-6.408a2.079,2.079,0,1,0,2.079,2.079A2.081,2.081,0,0,0,8237.352,702.39Z" transform="translate(-8233.022 -700.14)" fill="#7f7f7f"/>
                </g>
              </g>
            </g>
          </g>
          <g id="组_4471" data-name="组 4471">
            <g id="组_4470" data-name="组 4470">
              <path id="路径_5706" data-name="路径 5706" d="M8080.076,493.593c-5.152,0-9.8-3.041-13.19-8.892l-18.479-26.816c-.017-.025-.033-.05-.048-.076a17.848,17.848,0,1,1,30.915-17.848c.016.028.031.058.045.088l12.483,26.809a23.2,23.2,0,0,1,3.292,13.306,13.529,13.529,0,0,1-6.85,11.032A16.362,16.362,0,0,1,8080.076,493.593Zm-29.79-36.948,18.478,26.815c.017.025.033.05.048.076,4.48,7.759,11.152,9.84,18.308,5.709a11.423,11.423,0,0,0,5.734-9.277,20.974,20.974,0,0,0-3.024-12.03c-.017-.029-.031-.058-.045-.088L8077.3,441.043a15.6,15.6,0,0,0-27.015,15.6Z" transform="translate(-8045.96 -431.039)" fill="#7f7f7f"/>
            </g>
          </g>
        </g>
        <g id="组_4474" data-name="组 4474" transform="translate(140.672 20.34)">
          <g id="组_4473" data-name="组 4473">
            <path id="路径_5707" data-name="路径 5707" d="M7784.658,552.25h-.15a1.125,1.125,0,0,1,0-2.25h.15a1.125,1.125,0,0,1,0,2.25Zm-7.65,0h-3.75a1.125,1.125,0,0,1,0-2.25h3.75a1.125,1.125,0,0,1,0,2.25Zm-11.25,0h-3.75a1.125,1.125,0,0,1,0-2.25h3.75a1.125,1.125,0,0,1,0,2.25Zm-11.25,0h-3.75a1.125,1.125,0,0,1,0-2.25h3.75a1.125,1.125,0,0,1,0,2.25Zm-11.25,0h-3.75a1.125,1.125,0,0,1,0-2.25h3.75a1.125,1.125,0,0,1,0,2.25Z" transform="translate(-7738.383 -550)" fill="#7f7f7f"/>
          </g>
        </g>
        <g id="组_4476" data-name="组 4476" transform="translate(40.622 20.34)">
          <g id="组_4475" data-name="组 4475">
            <path id="路径_5708" data-name="路径 5708" d="M7118.108,552.25h-.6a1.125,1.125,0,0,1,0-2.25h.6a1.125,1.125,0,0,1,0,2.25Zm-8.1,0h-3.75a1.125,1.125,0,0,1,0-2.25h3.75a1.125,1.125,0,0,1,0,2.25Zm-11.25,0h-3.75a1.125,1.125,0,0,1,0-2.25h3.75a1.125,1.125,0,0,1,0,2.25Zm-11.25,0h-3.75a1.125,1.125,0,0,1,0-2.25h3.75a1.125,1.125,0,0,1,0,2.25Zm-11.25,0h-3.75a1.125,1.125,0,0,1,0-2.25h3.75a1.125,1.125,0,0,1,0,2.25Z" transform="translate(-7071.383 -550)" fill="#7f7f7f"/>
          </g>
        </g>
        <g id="组_4478" data-name="组 4478" transform="translate(86.943 7.192)">
          <g id="组_4477" data-name="组 4477">
            <path id="路径_5709" data-name="路径 5709" d="M7431.014,490.892h-46.835a3.99,3.99,0,0,1-3.986-3.986V466.331a3.99,3.99,0,0,1,3.986-3.986h46.835a3.99,3.99,0,0,1,3.986,3.986v20.575A3.99,3.99,0,0,1,7431.014,490.892Zm-46.835-26.3a1.738,1.738,0,0,0-1.736,1.736v20.575a1.738,1.738,0,0,0,1.736,1.736h46.835a1.738,1.738,0,0,0,1.736-1.736V466.331a1.738,1.738,0,0,0-1.736-1.736Z" transform="translate(-7380.193 -462.345)" fill="#7f7f7f"/>
          </g>
        </g>
        <g id="组_4480" data-name="组 4480" transform="translate(94.622 15.84)">
          <g id="组_4479" data-name="组 4479">
            <path id="路径_5710" data-name="路径 5710" d="M7455.458,522.25h-22.95a1.125,1.125,0,0,1,0-2.25h22.95a1.125,1.125,0,0,1,0,2.25Z" transform="translate(-7431.383 -520)" fill="#7f7f7f"/>
          </g>
        </g>
        <g id="组_4482" data-name="组 4482" transform="translate(124.772 15.84)">
          <g id="组_4481" data-name="组 4481">
            <path id="路径_5711" data-name="路径 5711" d="M7642.958,522.25h-9.45a1.125,1.125,0,0,1,0-2.25h9.45a1.125,1.125,0,0,1,0,2.25Z" transform="translate(-7632.383 -520)" fill="#7f7f7f"/>
          </g>
        </g>
        <g id="组_4484" data-name="组 4484" transform="translate(94.622 24.54)">
          <g id="组_4483" data-name="组 4483">
            <path id="路径_5712" data-name="路径 5712" d="M7472.108,580.25h-39.6a1.125,1.125,0,0,1,0-2.25h39.6a1.125,1.125,0,0,1,0,2.25Z" transform="translate(-7431.383 -578)" fill="#7f7f7f"/>
          </g>
        </g>
        <g id="组_4486" data-name="组 4486" transform="translate(49.048 49.269)">
          <g id="组_4485" data-name="组 4485">
            <path id="路径_5713" data-name="路径 5713" d="M7267.285,780.306h-138.6a1.125,1.125,0,0,1-1.125-1.125v-35.2a1.125,1.125,0,0,1,1.125-1.125h138.6a1.125,1.125,0,0,1,1.125,1.125v35.2A1.125,1.125,0,0,1,7267.285,780.306Zm-137.475-2.25h136.35V745.11h-136.35Z" transform="translate(-7127.561 -742.86)" fill="#7f7f7f"/>
          </g>
        </g>
        <g id="组_4493" data-name="组 4493" transform="translate(3.991 150.161)">
          <g id="组_4488" data-name="组 4488" transform="translate(32.963 9.634)">
            <g id="组_4487" data-name="组 4487">
              <path id="路径_5714" data-name="路径 5714" d="M7056.6,1502.424h-8.547a1.125,1.125,0,0,1,0-2.25h8.547a9.112,9.112,0,1,0,0-18.224h-.127a3.152,3.152,0,0,1-.458.1,1.125,1.125,0,1,1-.326-2.226.93.93,0,0,0,.158-.031,2.2,2.2,0,0,1,.754-.09,11.362,11.362,0,1,1,0,22.724Z" transform="translate(-7046.932 -1479.7)" fill="#7f7f7f"/>
            </g>
          </g>
          <g id="组_4490" data-name="组 4490" transform="translate(0 6.265)">
            <g id="组_4489" data-name="组 4489">
              <path id="路径_5715" data-name="路径 5715" d="M6847.205,1483.33h-6.979a13.047,13.047,0,1,1,13.047-13.047,1.125,1.125,0,0,1-2.25,0,10.8,10.8,0,1,0-10.8,10.8h6.979a1.125,1.125,0,0,1,0,2.25Z" transform="translate(-6827.18 -1457.237)" fill="#7f7f7f"/>
            </g>
          </g>
          <g id="组_4492" data-name="组 4492" transform="translate(13.854 0)">
            <g id="组_4491" data-name="组 4491">
              <path id="路径_5716" data-name="路径 5716" d="M6947.911,1432.907a1.125,1.125,0,0,1-1.125-1.125,14.062,14.062,0,0,0-25.226-8.551,1.125,1.125,0,1,1-1.785-1.369,16.312,16.312,0,0,1,29.261,9.92A1.125,1.125,0,0,1,6947.911,1432.907Z" transform="translate(-6919.543 -1415.47)" fill="#7f7f7f"/>
            </g>
          </g>
        </g>
        <g id="组_4498" data-name="组 4498" transform="translate(27.052 178.403)">
          <g id="组_4495" data-name="组 4495" transform="translate(2.844 0.262)">
            <g id="组_4494" data-name="组 4494">
              <path id="路径_5717" data-name="路径 5717" d="M7001.007,1621.7a1.125,1.125,0,0,1-1.125-1.125v-13.95a1.125,1.125,0,0,1,2.25,0v13.95A1.125,1.125,0,0,1,7001.007,1621.7Z" transform="translate(-6999.882 -1605.5)" fill="#7f7f7f"/>
            </g>
          </g>
          <g id="组_4497" data-name="组 4497">
            <g id="组_4496" data-name="组 4496">
              <path id="路径_5718" data-name="路径 5718" d="M6987.672,1608.814a1.121,1.121,0,0,1-.8-.33l-2.017-2.017-2.017,2.017a1.125,1.125,0,0,1-1.591-1.591l2.813-2.812a1.125,1.125,0,0,1,1.591,0l2.813,2.812a1.125,1.125,0,0,1-.8,1.92Z" transform="translate(-6980.922 -1603.752)" fill="#7f7f7f"/>
            </g>
          </g>
        </g>
        <g id="组_4508" data-name="组 4508" transform="translate(3.511 61.065)">
          <g id="组_4500" data-name="组 4500" transform="translate(14.985 52.95)">
            <g id="组_4499" data-name="组 4499">
              <path id="路径_5719" data-name="路径 5719" d="M6925.007,1191.75a1.125,1.125,0,0,1-1.125-1.125v-3.75a1.125,1.125,0,0,1,2.25,0v3.75A1.125,1.125,0,0,1,6925.007,1191.75Zm0-11.25a1.125,1.125,0,0,1-1.125-1.125v-3.75a1.125,1.125,0,0,1,2.25,0v3.75A1.125,1.125,0,0,1,6925.007,1180.5Z" transform="translate(-6923.882 -1174.5)" fill="#7f7f7f"/>
            </g>
          </g>
          <g id="组_4502" data-name="组 4502" transform="translate(14.985)">
            <g id="组_4501" data-name="组 4501">
              <path id="路径_5720" data-name="路径 5720" d="M6925.007,838.75a1.125,1.125,0,0,1-1.125-1.125v-3.75a1.125,1.125,0,0,1,2.25,0v3.75A1.125,1.125,0,0,1,6925.007,838.75Zm0-11.25a1.125,1.125,0,0,1-1.125-1.125v-3.75a1.125,1.125,0,0,1,2.25,0v3.75A1.125,1.125,0,0,1,6925.007,827.5Z" transform="translate(-6923.882 -821.5)" fill="#7f7f7f"/>
            </g>
          </g>
          <g id="组_4507" data-name="组 4507" transform="translate(0 22.14)">
            <g id="组_4504" data-name="组 4504">
              <g id="组_4503" data-name="组 4503">
                <path id="路径_5721" data-name="路径 5721" d="M6840.092,1001.32a16.11,16.11,0,1,1,16.11-16.11A16.128,16.128,0,0,1,6840.092,1001.32Zm0-29.97a13.86,13.86,0,1,0,13.86,13.86A13.876,13.876,0,0,0,6840.092,971.35Z" transform="translate(-6823.982 -969.1)" fill="#7f7f7f"/>
              </g>
            </g>
            <g id="组_4506" data-name="组 4506" transform="translate(10.518 10.689)">
              <g id="组_4505" data-name="组 4505">
                <path id="路径_5722" data-name="路径 5722" d="M6898.569,1051.2a1.122,1.122,0,0,1-.8-.329l-3.343-3.343a1.125,1.125,0,0,1,1.591-1.591l2.547,2.547,7.8-7.8a1.125,1.125,0,0,1,1.591,1.591l-8.591,8.591A1.122,1.122,0,0,1,6898.569,1051.2Z" transform="translate(-6894.102 -1040.362)" fill="#7f7f7f"/>
              </g>
            </g>
          </g>
        </g>
        <g id="组_4513" data-name="组 4513" transform="translate(190.291 153.465)">
          <g id="组_4510" data-name="组 4510" transform="translate(0 0)">
            <g id="组_4509" data-name="组 4509">
              <path id="路径_5723" data-name="路径 5723" d="M8102.405,1471.85h-32.1a1.125,1.125,0,0,1-1.125-1.125v-32.1a1.125,1.125,0,0,1,1.125-1.125h32.1a1.125,1.125,0,0,1,1.125,1.125v32.1A1.125,1.125,0,0,1,8102.405,1471.85Zm-30.975-2.25h29.85v-29.85h-29.85Z" transform="translate(-8069.18 -1437.5)" fill="#7f7f7f"/>
            </g>
          </g>
          <g id="组_4512" data-name="组 4512" transform="translate(11.4 13.217)">
            <g id="组_4511" data-name="组 4511">
              <path id="路径_5724" data-name="路径 5724" d="M8175.705,1557.261h-29.4a1.125,1.125,0,0,1-1.125-1.125v-29.4a1.125,1.125,0,0,1,1.125-1.125h29.4a1.125,1.125,0,0,1,1.125,1.125v29.4A1.125,1.125,0,0,1,8175.705,1557.261Zm-28.274-2.25h27.149v-27.15h-27.149Z" transform="translate(-8145.181 -1525.611)" fill="#7f7f7f"/>
            </g>
          </g>
        </g>
        <g id="组_4522" data-name="组 4522" transform="translate(228.45 82.05)">
          <g id="组_4515" data-name="组 4515" transform="translate(4.334)">
            <g id="组_4514" data-name="组 4514">
              <path id="路径_5725" data-name="路径 5725" d="M8353.591,964.5a1.125,1.125,0,0,1-.8-1.921l.853-.852a1.125,1.125,0,1,1,1.591,1.591l-.853.853A1.12,1.12,0,0,1,8353.591,964.5Z" transform="translate(-8352.465 -961.398)" fill="#7f7f7f"/>
            </g>
          </g>
          <g id="组_4517" data-name="组 4517" transform="translate(0.071 4.263)">
            <g id="组_4516" data-name="组 4516">
              <path id="路径_5726" data-name="路径 5726" d="M8325.172,992.919a1.125,1.125,0,0,1-.795-1.92l.852-.853a1.125,1.125,0,0,1,1.592,1.591l-.853.852A1.122,1.122,0,0,1,8325.172,992.919Z" transform="translate(-8324.047 -989.816)" fill="#7f7f7f"/>
            </g>
          </g>
          <g id="组_4519" data-name="组 4519">
            <g id="组_4518" data-name="组 4518">
              <path id="路径_5727" data-name="路径 5727" d="M8325.55,964.5a1.122,1.122,0,0,1-.795-.33l-.853-.853a1.125,1.125,0,0,1,1.591-1.591l.853.852a1.125,1.125,0,0,1-.8,1.921Z" transform="translate(-8323.572 -961.398)" fill="#7f7f7f"/>
            </g>
          </g>
          <g id="组_4521" data-name="组 4521" transform="translate(4.334 4.334)">
            <g id="组_4520" data-name="组 4520">
              <path id="路径_5728" data-name="路径 5728" d="M8354.372,993.322a1.122,1.122,0,0,1-.8-.33l-.781-.781a1.125,1.125,0,0,1,1.591-1.591l.782.781a1.125,1.125,0,0,1-.8,1.92Z" transform="translate(-8352.465 -990.29)" fill="#7f7f7f"/>
            </g>
          </g>
        </g>
        <g id="组_4531" data-name="组 4531" transform="translate(160.65)">
          <g id="组_4524" data-name="组 4524" transform="translate(4.334)">
            <g id="组_4523" data-name="组 4523">
              <path id="路径_5729" data-name="路径 5729" d="M7901.59,417.5a1.125,1.125,0,0,1-.8-1.921l.853-.852a1.125,1.125,0,0,1,1.591,1.591l-.853.853A1.121,1.121,0,0,1,7901.59,417.5Z" transform="translate(-7900.465 -414.398)" fill="#7f7f7f"/>
            </g>
          </g>
          <g id="组_4526" data-name="组 4526" transform="translate(0.071 4.263)">
            <g id="组_4525" data-name="组 4525">
              <path id="路径_5730" data-name="路径 5730" d="M7873.171,445.919a1.125,1.125,0,0,1-.8-1.92l.853-.853a1.125,1.125,0,0,1,1.591,1.591l-.853.852A1.122,1.122,0,0,1,7873.171,445.919Z" transform="translate(-7872.046 -442.816)" fill="#7f7f7f"/>
            </g>
          </g>
          <g id="组_4528" data-name="组 4528">
            <g id="组_4527" data-name="组 4527">
              <path id="路径_5731" data-name="路径 5731" d="M7873.551,417.5a1.123,1.123,0,0,1-.8-.33l-.853-.853a1.125,1.125,0,0,1,1.591-1.591l.852.852a1.125,1.125,0,0,1-.795,1.921Z" transform="translate(-7871.573 -414.398)" fill="#7f7f7f"/>
            </g>
          </g>
          <g id="组_4530" data-name="组 4530" transform="translate(4.334 4.334)">
            <g id="组_4529" data-name="组 4529">
              <path id="路径_5732" data-name="路径 5732" d="M7902.372,446.322a1.122,1.122,0,0,1-.8-.33l-.781-.782a1.125,1.125,0,0,1,1.591-1.591l.782.781a1.125,1.125,0,0,1-.8,1.92Z" transform="translate(-7900.465 -443.29)" fill="#7f7f7f"/>
            </g>
          </g>
        </g>
        <g id="组_4540" data-name="组 4540" transform="translate(0 58.5)">
          <g id="组_4533" data-name="组 4533" transform="translate(4.334)">
            <g id="组_4532" data-name="组 4532">
              <path id="路径_5733" data-name="路径 5733" d="M6830.59,807.5a1.125,1.125,0,0,1-.8-1.921l.853-.852a1.125,1.125,0,1,1,1.591,1.591l-.853.853A1.122,1.122,0,0,1,6830.59,807.5Z" transform="translate(-6829.465 -804.398)" fill="#7f7f7f"/>
            </g>
          </g>
          <g id="组_4535" data-name="组 4535" transform="translate(0.071 4.263)">
            <g id="组_4534" data-name="组 4534">
              <path id="路径_5734" data-name="路径 5734" d="M6802.172,835.919a1.125,1.125,0,0,1-.8-1.92l.853-.853a1.125,1.125,0,0,1,1.591,1.591l-.853.852A1.122,1.122,0,0,1,6802.172,835.919Z" transform="translate(-6801.046 -832.816)" fill="#7f7f7f"/>
            </g>
          </g>
          <g id="组_4537" data-name="组 4537">
            <g id="组_4536" data-name="组 4536">
              <path id="路径_5735" data-name="路径 5735" d="M6802.55,807.5a1.122,1.122,0,0,1-.8-.33l-.853-.853a1.125,1.125,0,0,1,1.591-1.591l.853.852a1.125,1.125,0,0,1-.8,1.921Z" transform="translate(-6800.573 -804.398)" fill="#7f7f7f"/>
            </g>
          </g>
          <g id="组_4539" data-name="组 4539" transform="translate(4.334 4.334)">
            <g id="组_4538" data-name="组 4538">
              <path id="路径_5736" data-name="路径 5736" d="M6831.372,836.322a1.122,1.122,0,0,1-.8-.33l-.781-.781a1.125,1.125,0,0,1,1.591-1.591l.782.781a1.125,1.125,0,0,1-.8,1.92Z" transform="translate(-6829.465 -833.29)" fill="#7f7f7f"/>
            </g>
          </g>
        </g>
        <g id="组_4549" data-name="组 4549" transform="translate(165.9 186.3)">
          <g id="组_4542" data-name="组 4542" transform="translate(4.334 0)">
            <g id="组_4541" data-name="组 4541">
              <path id="路径_5737" data-name="路径 5737" d="M7936.59,1659.5a1.125,1.125,0,0,1-.8-1.921l.853-.852a1.125,1.125,0,0,1,1.591,1.591l-.853.853A1.12,1.12,0,0,1,7936.59,1659.5Z" transform="translate(-7935.465 -1656.398)" fill="#7f7f7f"/>
            </g>
          </g>
          <g id="组_4544" data-name="组 4544" transform="translate(0.071 4.263)">
            <g id="组_4543" data-name="组 4543">
              <path id="路径_5738" data-name="路径 5738" d="M7908.171,1687.919a1.125,1.125,0,0,1-.8-1.921l.853-.853a1.125,1.125,0,0,1,1.591,1.591l-.853.853A1.122,1.122,0,0,1,7908.171,1687.919Z" transform="translate(-7907.046 -1684.817)" fill="#7f7f7f"/>
            </g>
          </g>
          <g id="组_4546" data-name="组 4546" transform="translate(0 0)">
            <g id="组_4545" data-name="组 4545">
              <path id="路径_5739" data-name="路径 5739" d="M7908.551,1659.5a1.122,1.122,0,0,1-.8-.329l-.853-.853a1.125,1.125,0,0,1,1.591-1.591l.852.852a1.125,1.125,0,0,1-.795,1.921Z" transform="translate(-7906.573 -1656.398)" fill="#7f7f7f"/>
            </g>
          </g>
          <g id="组_4548" data-name="组 4548" transform="translate(4.334 4.334)">
            <g id="组_4547" data-name="组 4547">
              <path id="路径_5740" data-name="路径 5740" d="M7937.372,1688.322a1.122,1.122,0,0,1-.8-.33l-.781-.781a1.125,1.125,0,0,1,1.591-1.591l.782.781a1.125,1.125,0,0,1-.8,1.921Z" transform="translate(-7935.465 -1685.29)" fill="#7f7f7f"/>
            </g>
          </g>
        </g>
        <g id="组_4551" data-name="组 4551" transform="translate(164.982 152.68)">
          <g id="组_4550" data-name="组 4550">
            <path id="路径_5741" data-name="路径 5741" d="M7903.6,1437.962a3.143,3.143,0,0,1-2.222-5.366,1.125,1.125,0,0,1,1.591,1.591.893.893,0,1,0,1.263,1.263,1.125,1.125,0,0,1,1.591,1.591A3.124,3.124,0,0,1,7903.6,1437.962Z" transform="translate(-7900.454 -1432.267)" fill="#7f7f7f"/>
          </g>
        </g>
        <g id="组_4553" data-name="组 4553" transform="translate(213.146 121.142)">
          <g id="组_4552" data-name="组 4552">
            <path id="路径_5742" data-name="路径 5742" d="M8224.689,1227.709a3.142,3.142,0,0,1-2.223-5.364,1.125,1.125,0,1,1,1.591,1.591.893.893,0,1,0,1.264,1.263,1.125,1.125,0,0,1,1.591,1.591A3.136,3.136,0,0,1,8224.689,1227.709Z" transform="translate(-8221.548 -1222.015)" fill="#7f7f7f"/>
          </g>
        </g>
        <g id="组_4555" data-name="组 4555" transform="translate(0.799 141.015)">
          <g id="组_4554" data-name="组 4554">
            <path id="路径_5743" data-name="路径 5743" d="M6809.04,1360.195a3.142,3.142,0,0,1-2.222-5.365,1.125,1.125,0,1,1,1.59,1.591.893.893,0,0,0,1.264,1.263,1.125,1.125,0,0,1,1.591,1.591A3.133,3.133,0,0,1,6809.04,1360.195Z" transform="translate(-6805.897 -1354.501)" fill="#7f7f7f"/>
          </g>
        </g>
        <g id="组_4563" data-name="组 4563" transform="translate(127.322 94.59)">
          <g id="组_4560" data-name="组 4560">
            <g id="组_4557" data-name="组 4557">
              <g id="组_4556" data-name="组 4556">
                <path id="路径_5744" data-name="路径 5744" d="M7700.308,1047.25h-49.8a1.125,1.125,0,0,1,0-2.25h49.8a1.125,1.125,0,0,1,0,2.25Z" transform="translate(-7649.383 -1045)" fill="#7f7f7f"/>
              </g>
            </g>
            <g id="组_4559" data-name="组 4559" transform="translate(0 9.15)">
              <g id="组_4558" data-name="组 4558">
                <path id="路径_5745" data-name="路径 5745" d="M7700.308,1108.25h-49.8a1.125,1.125,0,0,1,0-2.25h49.8a1.125,1.125,0,0,1,0,2.25Z" transform="translate(-7649.383 -1106)" fill="#7f7f7f"/>
              </g>
            </g>
          </g>
          <g id="组_4562" data-name="组 4562" transform="translate(0 18.6)">
            <g id="组_4561" data-name="组 4561">
              <path id="路径_5746" data-name="路径 5746" d="M7700.308,1171.25h-49.8a1.125,1.125,0,0,1,0-2.25h49.8a1.125,1.125,0,0,1,0,2.25Z" transform="translate(-7649.383 -1169)" fill="#7f7f7f"/>
            </g>
          </g>
        </g>
        <g id="组_4571" data-name="组 4571" transform="translate(59.522 94.59)">
          <g id="组_4568" data-name="组 4568">
            <g id="组_4565" data-name="组 4565">
              <g id="组_4564" data-name="组 4564">
                <path id="路径_5747" data-name="路径 5747" d="M7248.308,1047.25h-49.8a1.125,1.125,0,0,1,0-2.25h49.8a1.125,1.125,0,0,1,0,2.25Z" transform="translate(-7197.383 -1045)" fill="#7f7f7f"/>
              </g>
            </g>
            <g id="组_4567" data-name="组 4567" transform="translate(0 9.15)">
              <g id="组_4566" data-name="组 4566">
                <path id="路径_5748" data-name="路径 5748" d="M7248.308,1108.25h-49.8a1.125,1.125,0,0,1,0-2.25h49.8a1.125,1.125,0,0,1,0,2.25Z" transform="translate(-7197.383 -1106)" fill="#7f7f7f"/>
              </g>
            </g>
          </g>
          <g id="组_4570" data-name="组 4570" transform="translate(0 18.6)">
            <g id="组_4569" data-name="组 4569">
              <path id="路径_5749" data-name="路径 5749" d="M7248.308,1171.25h-49.8a1.125,1.125,0,0,1,0-2.25h49.8a1.125,1.125,0,0,1,0,2.25Z" transform="translate(-7197.383 -1169)" fill="#7f7f7f"/>
            </g>
          </g>
        </g>
      </g>
    </g>
  </g>
</svg>
