<svg xmlns="http://www.w3.org/2000/svg" width="300" height="229.2" viewBox="0 0 300 229.2">
  <g id="img-3" transform="translate(465 -805)">
    <rect id="矩形_3128" data-name="矩形 3128" width="300" height="229.2" transform="translate(-465 805)" fill="#fff" opacity="0"/>
    <g id="ANALYSIS" transform="translate(-435.3 826.75)">
      <g id="组_4396" data-name="组 4396" transform="translate(0 0)">
        <g id="组_4222" data-name="组 4222" transform="translate(45.787 127.672)">
          <g id="组_4221" data-name="组 4221">
            <path id="路径_5605" data-name="路径 5605" d="M4948.628,1279.844a8.593,8.593,0,0,0,8.593,8.593h137.63a8.593,8.593,0,0,0,8.593-8.593V1278.5H4948.628Z" transform="translate(-4948.628 -1278.5)" fill="#c9c9c9"/>
          </g>
        </g>
        <g id="组_4224" data-name="组 4224" transform="translate(107.848 128.105)">
          <g id="组_4223" data-name="组 4223">
            <path id="路径_5606" data-name="路径 5606" d="M5362.37,1282.247a3.266,3.266,0,0,0,3.267,3.266h24.713a3.266,3.266,0,0,0,3.267-3.266v-.858H5362.37Z" transform="translate(-5362.37 -1281.389)" fill="#fff"/>
          </g>
        </g>
        <g id="组_4226" data-name="组 4226" transform="translate(1.125 0.847)">
          <g id="组_4225" data-name="组 4225">
            <path id="路径_5607" data-name="路径 5607" d="M4740.177,433h-81.87a6.375,6.375,0,0,0-6.375,6.375l-1.05,5.1h94.62l1.05-5.1A6.375,6.375,0,0,0,4740.177,433Z" transform="translate(-4650.882 -433)" fill="#c9c9c9"/>
          </g>
        </g>
        <g id="组_4232" data-name="组 4232" transform="translate(9.495 18.772)">
          <g id="组_4228" data-name="组 4228" transform="translate(20.43)">
            <g id="组_4227" data-name="组 4227">
              <path id="路径_5608" data-name="路径 5608" d="M4842.882,552.5v15.375h15.332A15.359,15.359,0,0,0,4842.882,552.5Z" transform="translate(-4842.882 -552.5)" fill="#e5ddd9"/>
            </g>
          </g>
          <g id="组_4231" data-name="组 4231" transform="translate(0 5.214)">
            <g id="组_4230" data-name="组 4230">
              <g id="组_4229" data-name="组 4229">
                <path id="路径_5609" data-name="路径 5609" d="M4721.864,587.264h.029a15.287,15.287,0,1,0,15.338,15.411h-15.367Z" transform="translate(-4706.684 -587.263)" fill="#e5ddd9"/>
              </g>
            </g>
          </g>
        </g>
        <g id="组_4234" data-name="组 4234" transform="translate(218.133 177.557)">
          <g id="组_4233" data-name="组 4233">
            <path id="路径_5610" data-name="路径 5610" d="M6106.367,1612.57a5.132,5.132,0,0,0-7.258,0h0a5.132,5.132,0,0,0,0,7.258l10.853,10.853a5.132,5.132,0,0,0,7.257-7.258Z" transform="translate(-6097.605 -1611.067)" fill="#c9c9c9"/>
          </g>
        </g>
        <g id="组_4236" data-name="组 4236" transform="translate(185.393 21.945)">
          <g id="组_4235" data-name="组 4235">
            <path id="路径_5611" data-name="路径 5611" d="M5893.339,573.658a14,14,0,1,0,14,14A14,14,0,0,0,5893.339,573.658Zm0,20.622a6.621,6.621,0,1,1,6.621-6.621A6.621,6.621,0,0,1,5893.339,594.28Z" transform="translate(-5879.338 -573.658)" fill="#c4a693"/>
          </g>
        </g>
        <g id="组_4238" data-name="组 4238" transform="translate(135.375 44.347)">
          <g id="组_4237" data-name="组 4237">
            <path id="路径_5612" data-name="路径 5612" d="M5583.13,723h-37.249v34.95h55.35v-17A27.715,27.715,0,0,1,5583.13,723Zm-9.574,24.7a7.225,7.225,0,1,1,7.225-7.225A7.225,7.225,0,0,1,5573.557,747.7Z" transform="translate(-5545.882 -723)" fill="#e5ddd9"/>
          </g>
        </g>
        <g id="组_4240" data-name="组 4240" transform="translate(107.895 76.339)">
          <g id="组_4239" data-name="组 4239">
            <rect id="矩形_3115" data-name="矩形 3115" width="7.369" height="51.127" fill="#c4a693"/>
          </g>
        </g>
        <g id="组_4242" data-name="组 4242" transform="translate(93.29 92.047)">
          <g id="组_4241" data-name="组 4241">
            <rect id="矩形_3116" data-name="矩形 3116" width="7.369" height="35.522" fill="#c4a693"/>
          </g>
        </g>
        <g id="组_4244" data-name="组 4244" transform="translate(78.333 100.247)">
          <g id="组_4243" data-name="组 4243">
            <rect id="矩形_3117" data-name="矩形 3117" width="7.369" height="27.322" fill="#c4a693"/>
          </g>
        </g>
        <g id="组_4246" data-name="组 4246" transform="translate(62.994 109.347)">
          <g id="组_4245" data-name="组 4245">
            <rect id="矩形_3118" data-name="矩形 3118" width="7.369" height="18.222" fill="#c4a693"/>
          </g>
        </g>
        <g id="组_4248" data-name="组 4248" transform="translate(54.57 61.922)">
          <g id="组_4247" data-name="组 4247">
            <path id="路径_5613" data-name="路径 5613" d="M5143.305,907.042h-135a1.125,1.125,0,0,1-1.125-1.125V855.763a1.125,1.125,0,0,1,2.25,0v49.029h132.75v-63.5a1.125,1.125,0,0,1,2.25,0v64.625A1.125,1.125,0,0,1,5143.305,907.042Z" transform="translate(-5007.18 -840.167)" fill="#7f7f7f"/>
          </g>
        </g>
        <g id="组_4250" data-name="组 4250" transform="translate(97.109 43.147)">
          <g id="组_4249" data-name="组 4249">
            <path id="路径_5614" data-name="路径 5614" d="M5366.162,717.25H5291.9a1.125,1.125,0,0,1,0-2.25h74.261a1.125,1.125,0,0,1,0,2.25Z" transform="translate(-5290.776 -715)" fill="#7f7f7f"/>
          </g>
        </g>
        <g id="组_4252" data-name="组 4252" transform="translate(44.662 126.547)">
          <g id="组_4251" data-name="组 4251">
            <path id="路径_5615" data-name="路径 5615" d="M5087.132,1283.187H4952.19a11.074,11.074,0,0,1-11.062-11.062,1.125,1.125,0,0,1,1.125-1.125h154.816a1.125,1.125,0,0,1,1.125,1.125A11.074,11.074,0,0,1,5087.132,1283.187Zm-143.682-9.937a8.825,8.825,0,0,0,8.74,7.687h134.942a8.825,8.825,0,0,0,8.74-7.687Z" transform="translate(-4941.128 -1271)" fill="#7f7f7f"/>
          </g>
        </g>
        <g id="组_4259" data-name="组 4259">
          <g id="组_4254" data-name="组 4254" transform="translate(0.009)">
            <g id="组_4253" data-name="组 4253">
              <path id="路径_5616" data-name="路径 5616" d="M4732.825,504.82h-80.672a8.717,8.717,0,0,1-8.708-8.707v-60.05a8.717,8.717,0,0,1,8.708-8.707h80.672a8.717,8.717,0,0,1,8.707,8.707v60.05A8.717,8.717,0,0,1,4732.825,504.82Zm-80.672-75.214a6.464,6.464,0,0,0-6.458,6.457v60.05a6.464,6.464,0,0,0,6.458,6.457h80.672a6.464,6.464,0,0,0,6.457-6.457v-60.05a6.464,6.464,0,0,0-6.457-6.457Z" transform="translate(-4643.445 -427.356)" fill="#7f7f7f"/>
            </g>
          </g>
          <g id="组_4256" data-name="组 4256" transform="translate(0 11.197)">
            <g id="组_4255" data-name="组 4255">
              <path id="路径_5617" data-name="路径 5617" d="M4740.358,504.25h-95.85a1.125,1.125,0,0,1,0-2.25h95.85a1.125,1.125,0,0,1,0,2.25Z" transform="translate(-4643.383 -502)" fill="#7f7f7f"/>
            </g>
          </g>
          <g id="组_4258" data-name="组 4258" transform="translate(21.375 0.172)">
            <g id="组_4257" data-name="组 4257">
              <path id="路径_5618" data-name="路径 5618" d="M4787.007,436.15a1.125,1.125,0,0,1-1.125-1.125v-5.4a1.125,1.125,0,0,1,2.25,0v5.4A1.125,1.125,0,0,1,4787.007,436.15Z" transform="translate(-4785.882 -428.5)" fill="#7f7f7f"/>
            </g>
          </g>
        </g>
        <g id="组_4261" data-name="组 4261" transform="translate(106.17 126.547)">
          <g id="组_4260" data-name="组 4260">
            <path id="路径_5619" data-name="路径 5619" d="M5379.137,1278.219h-21.863a6.1,6.1,0,0,1-6.093-6.094,1.125,1.125,0,0,1,2.25,0,3.848,3.848,0,0,0,3.843,3.844h21.863a3.848,3.848,0,0,0,3.843-3.844,1.125,1.125,0,0,1,2.25,0A6.1,6.1,0,0,1,5379.137,1278.219Z" transform="translate(-5351.18 -1271)" fill="#7f7f7f"/>
          </g>
        </g>
        <g id="组_4263" data-name="组 4263" transform="translate(177.27 13.822)">
          <g id="组_4262" data-name="组 4262">
            <path id="路径_5620" data-name="路径 5620" d="M5847.305,563.75a22.125,22.125,0,1,1,22.125-22.125A22.15,22.15,0,0,1,5847.305,563.75Zm0-42a19.875,19.875,0,1,0,19.875,19.875A19.9,19.9,0,0,0,5847.305,521.75Z" transform="translate(-5825.18 -519.5)" fill="#7f7f7f"/>
          </g>
        </g>
        <g id="组_4265" data-name="组 4265" transform="translate(184.17 20.722)">
          <g id="组_4264" data-name="组 4264">
            <path id="路径_5621" data-name="路径 5621" d="M5886.4,595.95a15.225,15.225,0,1,1,15.225-15.225A15.242,15.242,0,0,1,5886.4,595.95Zm0-28.2a12.975,12.975,0,1,0,12.975,12.975A12.989,12.989,0,0,0,5886.4,567.75Z" transform="translate(-5871.18 -565.5)" fill="#7f7f7f"/>
          </g>
        </g>
        <g id="组_4267" data-name="组 4267" transform="translate(170.67 7.222)">
          <g id="组_4266" data-name="组 4266">
            <path id="路径_5622" data-name="路径 5622" d="M5809.9,532.95a28.725,28.725,0,1,1,28.725-28.725A28.757,28.757,0,0,1,5809.9,532.95Zm0-55.2a26.475,26.475,0,1,0,26.475,26.475A26.5,26.5,0,0,0,5809.9,477.75Z" transform="translate(-5781.18 -475.5)" fill="#7f7f7f"/>
          </g>
        </g>
        <g id="组_4273" data-name="组 4273" transform="translate(8.389 17.647)">
          <g id="组_4269" data-name="组 4269" transform="translate(20.486)">
            <g id="组_4268" data-name="组 4268">
              <path id="路径_5623" data-name="路径 5623" d="M4852.263,562.55h-15.256a1.125,1.125,0,0,1-1.125-1.125v-15.3a1.125,1.125,0,0,1,1.125-1.125,16.357,16.357,0,0,1,16.381,16.425A1.125,1.125,0,0,1,4852.263,562.55Zm-14.131-2.25h12.962a14.175,14.175,0,0,0-12.962-13.006Z" transform="translate(-4835.882 -545)" fill="#7f7f7f"/>
            </g>
          </g>
          <g id="组_4272" data-name="组 4272" transform="translate(0 5.214)">
            <g id="组_4271" data-name="组 4271">
              <g id="组_4270" data-name="组 4270">
                <path id="路径_5624" data-name="路径 5624" d="M4715.7,612.55a16.394,16.394,0,0,1-.037-32.787,1.136,1.136,0,0,1,1.135,1.07c0,.046,0,.091,0,.136V595.1h14.167a1.125,1.125,0,0,1,1.125,1.126A16.388,16.388,0,0,1,4715.7,612.55Zm-1.153-30.493a14.145,14.145,0,1,0,15.246,15.292H4715.67a1.125,1.125,0,0,1-1.125-1.125Z" transform="translate(-4699.309 -579.763)" fill="#7f7f7f"/>
              </g>
            </g>
          </g>
        </g>
        <g id="组_4275" data-name="组 4275" transform="translate(53.55 19.147)">
          <g id="组_4274" data-name="组 4274">
            <path id="路径_5625" data-name="路径 5625" d="M5034.208,557.25h-32.7a1.125,1.125,0,0,1,0-2.25h32.7a1.125,1.125,0,0,1,0,2.25Z" transform="translate(-5000.383 -555)" fill="#7f7f7f"/>
          </g>
        </g>
        <g id="组_4277" data-name="组 4277" transform="translate(53.55 27.247)">
          <g id="组_4276" data-name="组 4276">
            <path id="路径_5626" data-name="路径 5626" d="M5034.208,611.25h-32.7a1.125,1.125,0,0,1,0-2.25h32.7a1.125,1.125,0,0,1,0,2.25Z" transform="translate(-5000.383 -609)" fill="#7f7f7f"/>
          </g>
        </g>
        <g id="组_4279" data-name="组 4279" transform="translate(53.55 35.197)">
          <g id="组_4278" data-name="组 4278">
            <path id="路径_5627" data-name="路径 5627" d="M5034.208,664.25h-32.7a1.125,1.125,0,0,1,0-2.25h32.7a1.125,1.125,0,0,1,0,2.25Z" transform="translate(-5000.383 -662)" fill="#7f7f7f"/>
          </g>
        </g>
        <g id="组_4281" data-name="组 4281" transform="translate(53.55 43.297)">
          <g id="组_4280" data-name="组 4280">
            <path id="路径_5628" data-name="路径 5628" d="M5034.208,718.25h-32.7a1.125,1.125,0,0,1,0-2.25h32.7a1.125,1.125,0,0,1,0,2.25Z" transform="translate(-5000.383 -716)" fill="#7f7f7f"/>
          </g>
        </g>
        <g id="组_4283" data-name="组 4283" transform="translate(53.55 51.247)">
          <g id="组_4282" data-name="组 4282">
            <path id="路径_5629" data-name="路径 5629" d="M5034.208,771.25h-32.7a1.125,1.125,0,0,1,0-2.25h32.7a1.125,1.125,0,0,1,0,2.25Z" transform="translate(-5000.383 -769)" fill="#7f7f7f"/>
          </g>
        </g>
        <g id="组_4285" data-name="组 4285" transform="translate(8.4 59.197)">
          <g id="组_4284" data-name="组 4284">
            <path id="路径_5630" data-name="路径 5630" d="M4779.558,824.25h-79.05a1.125,1.125,0,0,1,0-2.25h79.05a1.125,1.125,0,0,1,0,2.25Z" transform="translate(-4699.383 -822)" fill="#7f7f7f"/>
          </g>
        </g>
        <g id="组_4287" data-name="组 4287" transform="translate(8.4 67.297)">
          <g id="组_4286" data-name="组 4286">
            <path id="路径_5631" data-name="路径 5631" d="M4779.558,878.25h-79.05a1.125,1.125,0,0,1,0-2.25h79.05a1.125,1.125,0,0,1,0,2.25Z" transform="translate(-4699.383 -876)" fill="#7f7f7f"/>
          </g>
        </g>
        <g id="组_4289" data-name="组 4289" transform="translate(191.21 27.762)">
          <g id="组_4288" data-name="组 4288">
            <path id="路径_5632" data-name="路径 5632" d="M5926.3,628.807a8.184,8.184,0,1,1,8.185-8.184A8.194,8.194,0,0,1,5926.3,628.807Zm0-14.119a5.934,5.934,0,1,0,5.935,5.934A5.941,5.941,0,0,0,5926.3,614.688Z" transform="translate(-5918.117 -612.438)" fill="#7f7f7f"/>
          </g>
        </g>
        <g id="组_4291" data-name="组 4291" transform="translate(61.488 107.722)">
          <g id="组_4290" data-name="组 4290">
            <path id="路径_5633" data-name="路径 5633" d="M5062.561,1166.575h-8.13a1.125,1.125,0,0,1-1.125-1.125v-18.825a1.125,1.125,0,0,1,1.125-1.125h8.13a1.125,1.125,0,0,1,1.125,1.125v18.825A1.125,1.125,0,0,1,5062.561,1166.575Zm-7.005-2.25h5.88V1147.75h-5.88Z" transform="translate(-5053.305 -1145.5)" fill="#7f7f7f"/>
          </g>
        </g>
        <g id="组_4293" data-name="组 4293" transform="translate(76.582 99.022)">
          <g id="组_4292" data-name="组 4292">
            <path id="路径_5634" data-name="路径 5634" d="M5163.186,1117.275h-8.13a1.125,1.125,0,0,1-1.125-1.125v-27.525a1.125,1.125,0,0,1,1.125-1.125h8.13a1.125,1.125,0,0,1,1.125,1.125v27.525A1.125,1.125,0,0,1,5163.186,1117.275Zm-7.005-2.25h5.88V1089.75h-5.88Z" transform="translate(-5153.93 -1087.5)" fill="#7f7f7f"/>
          </g>
        </g>
        <g id="组_4295" data-name="组 4295" transform="translate(91.676 90.922)">
          <g id="组_4294" data-name="组 4294">
            <path id="路径_5635" data-name="路径 5635" d="M5263.811,1071.375h-8.13a1.125,1.125,0,0,1-1.125-1.125v-35.625a1.125,1.125,0,0,1,1.125-1.125h8.13a1.125,1.125,0,0,1,1.125,1.125v35.625A1.125,1.125,0,0,1,5263.811,1071.375Zm-7.005-2.25h5.88V1035.75h-5.88Z" transform="translate(-5254.555 -1033.5)" fill="#7f7f7f"/>
          </g>
        </g>
        <g id="组_4297" data-name="组 4297" transform="translate(106.77 75.214)">
          <g id="组_4296" data-name="组 4296">
            <path id="路径_5636" data-name="路径 5636" d="M5364.436,982.364h-8.13a1.125,1.125,0,0,1-1.125-1.125V929.906a1.125,1.125,0,0,1,1.125-1.125h8.13a1.125,1.125,0,0,1,1.125,1.125v51.333A1.125,1.125,0,0,1,5364.436,982.364Zm-7.005-2.25h5.88V931.031h-5.88Z" transform="translate(-5355.18 -928.781)" fill="#7f7f7f"/>
          </g>
        </g>
        <g id="组_4299" data-name="组 4299" transform="translate(134.175 43.222)">
          <g id="组_4298" data-name="组 4298">
            <path id="路径_5637" data-name="路径 5637" d="M5593.682,752.625h-54.675a1.125,1.125,0,0,1-1.125-1.125V716.625a1.125,1.125,0,0,1,2.25,0v33.75h53.55a1.125,1.125,0,0,1,0,2.25Z" transform="translate(-5537.882 -715.5)" fill="#7f7f7f"/>
          </g>
        </g>
        <g id="组_4301" data-name="组 4301" transform="translate(95.85 53.347)">
          <g id="组_4300" data-name="组 4300">
            <path id="路径_5638" data-name="路径 5638" d="M5309.158,785.25h-25.65a1.125,1.125,0,0,1,0-2.25h25.65a1.125,1.125,0,0,1,0,2.25Z" transform="translate(-5282.383 -783)" fill="#7f7f7f"/>
          </g>
        </g>
        <g id="组_4303" data-name="组 4303" transform="translate(95.85 63.847)">
          <g id="组_4302" data-name="组 4302">
            <path id="路径_5639" data-name="路径 5639" d="M5296.258,855.25h-12.75a1.125,1.125,0,0,1,0-2.25h12.75a1.125,1.125,0,0,1,0,2.25Z" transform="translate(-5282.383 -853)" fill="#7f7f7f"/>
          </g>
        </g>
        <g id="组_4310" data-name="组 4310" transform="translate(134.1 90.247)">
          <g id="组_4305" data-name="组 4305">
            <g id="组_4304" data-name="组 4304">
              <path id="路径_5640" data-name="路径 5640" d="M5593.408,1031.25h-54.9a1.125,1.125,0,0,1,0-2.25h54.9a1.125,1.125,0,0,1,0,2.25Z" transform="translate(-5537.383 -1029)" fill="#7f7f7f"/>
            </g>
          </g>
          <g id="组_4307" data-name="组 4307" transform="translate(0 12.15)">
            <g id="组_4306" data-name="组 4306">
              <path id="路径_5641" data-name="路径 5641" d="M5593.408,1112.25h-54.9a1.125,1.125,0,0,1,0-2.25h54.9a1.125,1.125,0,0,1,0,2.25Z" transform="translate(-5537.383 -1110)" fill="#7f7f7f"/>
            </g>
          </g>
          <g id="组_4309" data-name="组 4309" transform="translate(0 24.15)">
            <g id="组_4308" data-name="组 4308">
              <path id="路径_5642" data-name="路径 5642" d="M5593.408,1192.25h-54.9a1.125,1.125,0,0,1,0-2.25h54.9a1.125,1.125,0,0,1,0,2.25Z" transform="translate(-5537.383 -1190)" fill="#7f7f7f"/>
            </g>
          </g>
        </g>
        <g id="组_4315" data-name="组 4315" transform="translate(153.912 53.059)">
          <g id="组_4312" data-name="组 4312" transform="translate(6.261 4.498)">
            <g id="组_4311" data-name="组 4311">
              <path id="路径_5643" data-name="路径 5643" d="M5712.329,819.526a1.125,1.125,0,0,1-1.125-1.125v-6.2a1.125,1.125,0,0,1,1.739-.942l4.757,3.1a1.125,1.125,0,0,1,0,1.885l-4.757,3.1A1.124,1.124,0,0,1,5712.329,819.526Zm1.125-5.252v2.05l1.572-1.025Z" transform="translate(-5711.204 -811.073)" fill="#7f7f7f"/>
            </g>
          </g>
          <g id="组_4314" data-name="组 4314">
            <g id="组_4313" data-name="组 4313">
              <path id="路径_5644" data-name="路径 5644" d="M5678.191,798.533a8.725,8.725,0,1,1,8.725-8.725A8.735,8.735,0,0,1,5678.191,798.533Zm0-15.2a6.475,6.475,0,1,0,6.475,6.475A6.482,6.482,0,0,0,5678.191,783.333Z" transform="translate(-5669.466 -781.083)" fill="#7f7f7f"/>
            </g>
          </g>
        </g>
        <g id="组_4332" data-name="组 4332" transform="translate(10.118 164.589)">
          <g id="组_4317" data-name="组 4317" transform="translate(11.992 7.5)">
            <g id="组_4316" data-name="组 4316">
              <path id="路径_5645" data-name="路径 5645" d="M4795.828,1584.7a5.044,5.044,0,1,1,5.044-5.044A5.05,5.05,0,0,1,4795.828,1584.7Zm0-7.838a2.794,2.794,0,1,0,2.794,2.794A2.8,2.8,0,0,0,4795.828,1576.864Z" transform="translate(-4790.784 -1574.614)" fill="#7f7f7f"/>
            </g>
          </g>
          <g id="组_4319" data-name="组 4319" transform="translate(19.452 15.338)">
            <g id="组_4318" data-name="组 4318">
              <path id="路径_5646" data-name="路径 5646" d="M4854.009,1644.985a1.123,1.123,0,0,1-.888-.434l-12.372-15.87a1.125,1.125,0,0,1,1.774-1.383l12.372,15.87a1.125,1.125,0,0,1-.886,1.817Z" transform="translate(-4840.511 -1626.865)" fill="#7f7f7f"/>
            </g>
          </g>
          <g id="组_4321" data-name="组 4321" transform="translate(0 15.338)">
            <g id="组_4320" data-name="组 4320">
              <path id="路径_5647" data-name="路径 5647" d="M4711.959,1644.989a1.125,1.125,0,0,1-.887-1.817l12.371-15.87a1.125,1.125,0,1,1,1.774,1.383l-12.371,15.87A1.123,1.123,0,0,1,4711.959,1644.989Z" transform="translate(-4710.834 -1626.869)" fill="#7f7f7f"/>
            </g>
          </g>
          <g id="组_4323" data-name="组 4323" transform="translate(43.492 3)">
            <g id="组_4322" data-name="组 4322">
              <path id="路径_5648" data-name="路径 5648" d="M5005.828,1554.7a5.044,5.044,0,1,1,5.044-5.044A5.05,5.05,0,0,1,5005.828,1554.7Zm0-7.838a2.794,2.794,0,1,0,2.794,2.794A2.8,2.8,0,0,0,5005.828,1546.864Z" transform="translate(-5000.784 -1544.614)" fill="#7f7f7f"/>
            </g>
          </g>
          <g id="组_4325" data-name="组 4325" transform="translate(50.286 10.797)">
            <g id="组_4324" data-name="组 4324">
              <path id="路径_5649" data-name="路径 5649" d="M5060.238,1619.254a1.123,1.123,0,0,1-.949-.519l-13.037-20.411a1.125,1.125,0,1,1,1.9-1.211l13.037,20.411a1.125,1.125,0,0,1-.947,1.731Z" transform="translate(-5046.075 -1596.593)" fill="#7f7f7f"/>
            </g>
          </g>
          <g id="组_4327" data-name="组 4327" transform="translate(31.5 10.796)">
            <g id="组_4326" data-name="组 4326">
              <path id="路径_5650" data-name="路径 5650" d="M4921.959,1619.252a1.125,1.125,0,0,1-.947-1.731l13.037-20.411a1.125,1.125,0,0,1,1.9,1.211l-13.038,20.411A1.123,1.123,0,0,1,4921.959,1619.252Z" transform="translate(-4920.834 -1596.59)" fill="#7f7f7f"/>
            </g>
          </g>
          <g id="组_4329" data-name="组 4329" transform="translate(75.292)">
            <g id="组_4328" data-name="组 4328">
              <path id="路径_5651" data-name="路径 5651" d="M5217.829,1534.7a5.044,5.044,0,1,1,5.044-5.044A5.05,5.05,0,0,1,5217.829,1534.7Zm0-7.838a2.794,2.794,0,1,0,2.794,2.794A2.8,2.8,0,0,0,5217.829,1526.864Z" transform="translate(-5212.784 -1524.614)" fill="#7f7f7f"/>
            </g>
          </g>
          <g id="组_4331" data-name="组 4331" transform="translate(63.3 7.838)">
            <g id="组_4330" data-name="组 4330">
              <path id="路径_5652" data-name="路径 5652" d="M5133.958,1602.488a1.126,1.126,0,0,1-.977-1.682l13.323-23.37a1.125,1.125,0,1,1,1.955,1.114l-13.322,23.37A1.125,1.125,0,0,1,5133.958,1602.488Z" transform="translate(-5132.833 -1576.868)" fill="#7f7f7f"/>
            </g>
          </g>
        </g>
        <g id="组_4341" data-name="组 4341" transform="translate(20.279 133.506)">
          <g id="组_4334" data-name="组 4334" transform="translate(4.334)">
            <g id="组_4333" data-name="组 4333">
              <path id="路径_5653" data-name="路径 5653" d="M4808.59,1320.5a1.125,1.125,0,0,1-.8-1.921l.853-.853a1.125,1.125,0,0,1,1.591,1.591l-.853.853A1.122,1.122,0,0,1,4808.59,1320.5Z" transform="translate(-4807.465 -1317.398)" fill="#7f7f7f"/>
            </g>
          </g>
          <g id="组_4336" data-name="组 4336" transform="translate(0.071 4.263)">
            <g id="组_4335" data-name="组 4335">
              <path id="路径_5654" data-name="路径 5654" d="M4780.171,1348.919a1.125,1.125,0,0,1-.8-1.92l.853-.853a1.125,1.125,0,0,1,1.591,1.591l-.853.853A1.12,1.12,0,0,1,4780.171,1348.919Z" transform="translate(-4779.046 -1345.817)" fill="#7f7f7f"/>
            </g>
          </g>
          <g id="组_4338" data-name="组 4338">
            <g id="组_4337" data-name="组 4337">
              <path id="路径_5655" data-name="路径 5655" d="M4780.551,1320.5a1.121,1.121,0,0,1-.8-.329l-.853-.853a1.125,1.125,0,0,1,1.591-1.591l.853.853a1.125,1.125,0,0,1-.8,1.921Z" transform="translate(-4778.573 -1317.398)" fill="#7f7f7f"/>
            </g>
          </g>
          <g id="组_4340" data-name="组 4340" transform="translate(4.334 4.334)">
            <g id="组_4339" data-name="组 4339">
              <path id="路径_5656" data-name="路径 5656" d="M4809.372,1349.322a1.122,1.122,0,0,1-.8-.329l-.781-.781a1.125,1.125,0,0,1,1.591-1.591l.781.781a1.125,1.125,0,0,1-.8,1.92Z" transform="translate(-4807.465 -1346.29)" fill="#7f7f7f"/>
            </g>
          </g>
        </g>
        <g id="组_4350" data-name="组 4350" transform="translate(99.629 183.006)">
          <g id="组_4343" data-name="组 4343" transform="translate(4.334)">
            <g id="组_4342" data-name="组 4342">
              <path id="路径_5657" data-name="路径 5657" d="M5337.59,1650.5a1.125,1.125,0,0,1-.8-1.921l.853-.853a1.125,1.125,0,0,1,1.591,1.591l-.853.853A1.121,1.121,0,0,1,5337.59,1650.5Z" transform="translate(-5336.465 -1647.398)" fill="#7f7f7f"/>
            </g>
          </g>
          <g id="组_4345" data-name="组 4345" transform="translate(0.071 4.263)">
            <g id="组_4344" data-name="组 4344">
              <path id="路径_5658" data-name="路径 5658" d="M5309.171,1678.919a1.125,1.125,0,0,1-.8-1.92l.853-.853a1.125,1.125,0,0,1,1.591,1.591l-.853.853A1.121,1.121,0,0,1,5309.171,1678.919Z" transform="translate(-5308.046 -1675.817)" fill="#7f7f7f"/>
            </g>
          </g>
          <g id="组_4347" data-name="组 4347">
            <g id="组_4346" data-name="组 4346">
              <path id="路径_5659" data-name="路径 5659" d="M5309.551,1650.5a1.122,1.122,0,0,1-.8-.329l-.853-.853a1.125,1.125,0,0,1,1.591-1.591l.853.853a1.125,1.125,0,0,1-.8,1.921Z" transform="translate(-5307.574 -1647.398)" fill="#7f7f7f"/>
            </g>
          </g>
          <g id="组_4349" data-name="组 4349" transform="translate(4.334 4.334)">
            <g id="组_4348" data-name="组 4348">
              <path id="路径_5660" data-name="路径 5660" d="M5338.372,1679.322a1.12,1.12,0,0,1-.8-.329l-.782-.781a1.125,1.125,0,0,1,1.591-1.591l.782.781a1.125,1.125,0,0,1-.8,1.92Z" transform="translate(-5336.465 -1676.29)" fill="#7f7f7f"/>
            </g>
          </g>
        </g>
        <g id="组_4359" data-name="组 4359" transform="translate(146.579 16.656)">
          <g id="组_4352" data-name="组 4352" transform="translate(4.334)">
            <g id="组_4351" data-name="组 4351">
              <path id="路径_5661" data-name="路径 5661" d="M5650.59,541.5a1.125,1.125,0,0,1-.8-1.921l.853-.852a1.125,1.125,0,1,1,1.591,1.591l-.853.853A1.122,1.122,0,0,1,5650.59,541.5Z" transform="translate(-5649.465 -538.398)" fill="#7f7f7f"/>
            </g>
          </g>
          <g id="组_4354" data-name="组 4354" transform="translate(0.071 4.263)">
            <g id="组_4353" data-name="组 4353">
              <path id="路径_5662" data-name="路径 5662" d="M5622.172,569.919a1.125,1.125,0,0,1-.8-1.92l.852-.853a1.125,1.125,0,0,1,1.591,1.591l-.853.852A1.122,1.122,0,0,1,5622.172,569.919Z" transform="translate(-5621.046 -566.816)" fill="#7f7f7f"/>
            </g>
          </g>
          <g id="组_4356" data-name="组 4356">
            <g id="组_4355" data-name="组 4355">
              <path id="路径_5663" data-name="路径 5663" d="M5622.551,541.5a1.121,1.121,0,0,1-.8-.33l-.853-.853a1.125,1.125,0,0,1,1.591-1.591l.853.852a1.125,1.125,0,0,1-.8,1.921Z" transform="translate(-5620.573 -538.398)" fill="#7f7f7f"/>
            </g>
          </g>
          <g id="组_4358" data-name="组 4358" transform="translate(4.334 4.334)">
            <g id="组_4357" data-name="组 4357">
              <path id="路径_5664" data-name="路径 5664" d="M5651.372,570.322a1.121,1.121,0,0,1-.8-.33l-.781-.781a1.125,1.125,0,0,1,1.591-1.591l.781.781a1.125,1.125,0,0,1-.8,1.92Z" transform="translate(-5649.465 -567.29)" fill="#7f7f7f"/>
            </g>
          </g>
        </g>
        <g id="组_4368" data-name="组 4368" transform="translate(209.729 88.356)">
          <g id="组_4361" data-name="组 4361" transform="translate(4.334)">
            <g id="组_4360" data-name="组 4360">
              <path id="路径_5665" data-name="路径 5665" d="M6071.59,1019.5a1.125,1.125,0,0,1-.8-1.921l.853-.852a1.125,1.125,0,0,1,1.591,1.591l-.853.853A1.121,1.121,0,0,1,6071.59,1019.5Z" transform="translate(-6070.465 -1016.398)" fill="#7f7f7f"/>
            </g>
          </g>
          <g id="组_4363" data-name="组 4363" transform="translate(0.071 4.263)">
            <g id="组_4362" data-name="组 4362">
              <path id="路径_5666" data-name="路径 5666" d="M6043.171,1047.919a1.125,1.125,0,0,1-.8-1.92l.853-.853a1.125,1.125,0,0,1,1.591,1.591l-.853.852A1.122,1.122,0,0,1,6043.171,1047.919Z" transform="translate(-6042.046 -1044.816)" fill="#7f7f7f"/>
            </g>
          </g>
          <g id="组_4365" data-name="组 4365">
            <g id="组_4364" data-name="组 4364">
              <path id="路径_5667" data-name="路径 5667" d="M6043.551,1019.5a1.122,1.122,0,0,1-.8-.33l-.853-.853a1.125,1.125,0,0,1,1.591-1.591l.853.852a1.125,1.125,0,0,1-.8,1.921Z" transform="translate(-6041.573 -1016.398)" fill="#7f7f7f"/>
            </g>
          </g>
          <g id="组_4367" data-name="组 4367" transform="translate(4.334 4.334)">
            <g id="组_4366" data-name="组 4366">
              <path id="路径_5668" data-name="路径 5668" d="M6072.372,1048.322a1.122,1.122,0,0,1-.8-.33l-.781-.781a1.125,1.125,0,0,1,1.591-1.591l.781.781a1.125,1.125,0,0,1-.8,1.92Z" transform="translate(-6070.465 -1045.29)" fill="#7f7f7f"/>
            </g>
          </g>
        </g>
        <g id="组_4370" data-name="组 4370" transform="translate(27.189 100.731)">
          <g id="组_4369" data-name="组 4369">
            <path id="路径_5669" data-name="路径 5669" d="M4827.786,1104.589a3.142,3.142,0,0,1-2.223-5.364,1.125,1.125,0,0,1,1.591,1.591.893.893,0,1,0,1.263,1.263,1.125,1.125,0,0,1,1.591,1.591A3.134,3.134,0,0,1,4827.786,1104.589Z" transform="translate(-4824.644 -1098.895)" fill="#7f7f7f"/>
          </g>
        </g>
        <g id="组_4372" data-name="组 4372" transform="translate(231.458 129.792)">
          <g id="组_4371" data-name="组 4371">
            <path id="路径_5670" data-name="路径 5670" d="M6189.576,1298.333a3.143,3.143,0,0,1-2.223-5.366,1.125,1.125,0,0,1,1.591,1.591.893.893,0,1,0,1.263,1.263,1.125,1.125,0,1,1,1.591,1.591A3.123,3.123,0,0,1,6189.576,1298.333Z" transform="translate(-6186.435 -1292.638)" fill="#7f7f7f"/>
          </g>
        </g>
        <g id="组_4374" data-name="组 4374" transform="translate(113.179 0.999)">
          <g id="组_4373" data-name="组 4373">
            <path id="路径_5671" data-name="路径 5671" d="M5401.05,439.711a3.143,3.143,0,0,1-2.223-5.366,1.125,1.125,0,1,1,1.591,1.591.893.893,0,1,0,1.263,1.263,1.125,1.125,0,1,1,1.591,1.591A3.121,3.121,0,0,1,5401.05,439.711Z" transform="translate(-5397.908 -434.015)" fill="#7f7f7f"/>
          </g>
        </g>
        <g id="组_4388" data-name="组 4388" transform="translate(180.283 139.478)">
          <g id="组_4379" data-name="组 4379">
            <g id="组_4376" data-name="组 4376">
              <g id="组_4375" data-name="组 4375">
                <path id="路径_5672" data-name="路径 5672" d="M5864.571,1395.823a19.313,19.313,0,0,1-13.656-32.969h0a19.313,19.313,0,1,1,13.656,32.969Zm-12.065-31.378a17.063,17.063,0,1,0,24.13,0,17.082,17.082,0,0,0-24.13,0Z" transform="translate(-5845.268 -1357.208)" fill="#7f7f7f"/>
              </g>
            </g>
            <g id="组_4378" data-name="组 4378" transform="translate(6.006 6)">
              <g id="组_4377" data-name="组 4377">
                <path id="路径_5673" data-name="路径 5673" d="M5898.606,1423.808a13.293,13.293,0,1,1,9.407-3.89A13.263,13.263,0,0,1,5898.606,1423.808Zm0-24.351a11.053,11.053,0,1,0,7.816,3.238A10.982,10.982,0,0,0,5898.606,1399.457Z" transform="translate(-5885.309 -1397.207)" fill="#7f7f7f"/>
              </g>
            </g>
          </g>
          <g id="组_4387" data-name="组 4387" transform="translate(30.994 31.084)">
            <g id="组_4381" data-name="组 4381">
              <g id="组_4380" data-name="组 4380">
                <path id="路径_5674" data-name="路径 5674" d="M6060.229,1573.9a1.122,1.122,0,0,1-.8-.329l-7.212-7.213a1.125,1.125,0,0,1,1.591-1.591l7.212,7.212a1.125,1.125,0,0,1-.8,1.92Z" transform="translate(-6051.892 -1564.436)" fill="#7f7f7f"/>
              </g>
            </g>
            <g id="组_4386" data-name="组 4386" transform="translate(5.832 5.829)">
              <g id="组_4383" data-name="组 4383">
                <g id="组_4382" data-name="组 4382">
                  <path id="路径_5675" data-name="路径 5675" d="M6107.962,1626.646a6.14,6.14,0,0,1-4.355-1.8l-11.032-11.032a6.16,6.16,0,1,1,8.711-8.711l11.032,11.032a6.157,6.157,0,0,1-4.355,10.512Zm-11.032-21.1a3.91,3.91,0,0,0-2.765,6.674l11.032,11.032a3.91,3.91,0,0,0,5.529-5.529l-11.032-11.032h0A3.885,3.885,0,0,0,6096.93,1605.548Z" transform="translate(-6090.773 -1603.298)" fill="#7f7f7f"/>
                </g>
              </g>
              <g id="组_4385" data-name="组 4385" transform="translate(12.517 12.52)">
                <g id="组_4384" data-name="组 4384">
                  <path id="路径_5676" data-name="路径 5676" d="M6175.346,1696.122a1.125,1.125,0,0,1-.8-1.921l7.107-7.106a1.125,1.125,0,0,1,1.591,1.591l-7.106,7.106A1.122,1.122,0,0,1,6175.346,1696.122Z" transform="translate(-6174.22 -1686.765)" fill="#7f7f7f"/>
                </g>
              </g>
            </g>
          </g>
        </g>
        <g id="组_4395" data-name="组 4395" transform="translate(121.5 157.597)">
          <g id="组_4390" data-name="组 4390">
            <g id="组_4389" data-name="组 4389">
              <path id="路径_5677" data-name="路径 5677" d="M5489.908,1480.25h-35.4a1.125,1.125,0,0,1,0-2.25h35.4a1.125,1.125,0,0,1,0,2.25Z" transform="translate(-5453.383 -1478)" fill="#7f7f7f"/>
            </g>
          </g>
          <g id="组_4392" data-name="组 4392" transform="translate(0 11.85)">
            <g id="组_4391" data-name="组 4391">
              <path id="路径_5678" data-name="路径 5678" d="M5498.008,1559.25h-43.5a1.125,1.125,0,0,1,0-2.25h43.5a1.125,1.125,0,0,1,0,2.25Z" transform="translate(-5453.383 -1557)" fill="#7f7f7f"/>
            </g>
          </g>
          <g id="组_4394" data-name="组 4394" transform="translate(0 23.7)">
            <g id="组_4393" data-name="组 4393">
              <path id="路径_5679" data-name="路径 5679" d="M5509.708,1638.25h-55.2a1.125,1.125,0,0,1,0-2.25h55.2a1.125,1.125,0,0,1,0,2.25Z" transform="translate(-5453.383 -1636)" fill="#7f7f7f"/>
            </g>
          </g>
        </g>
      </g>
    </g>
  </g>
</svg>
