<svg xmlns="http://www.w3.org/2000/svg" xmlns:xlink="http://www.w3.org/1999/xlink" width="32" height="32" viewBox="0 0 32 32"><defs><clipPath id="a"><path d="M4.775,1029A1.752,1.752,0,0,0,3,1030.719v15.5a1.752,1.752,0,0,0,1.775,1.722H17.2a1.751,1.751,0,0,0,1.775-1.722v-8.61s.051-3.437,0-3.444c.116-1.939-4.958-6.1-5.326-5.166C11.613,1028.935,4.775,1029,4.775,1029Z" transform="translate(-3 -1028.864)" fill="#f25bea" opacity="0.369"/></clipPath></defs><g transform="translate(-427 -155)"><rect width="32" height="32" transform="translate(427 155)" fill="#fff" opacity="0"/><g transform="translate(435 161.001)"><path d="M1.956,19.939A1.975,1.975,0,0,1,0,17.945V1.994A1.975,1.975,0,0,1,1.956,0h9.133a1.933,1.933,0,0,1,1.385.582l2.933,2.985a2.015,2.015,0,0,1,.571,1.413V17.945a1.975,1.975,0,0,1-1.957,1.994Z" transform="translate(0 0.06)" fill="#470137"/><path d="M4.775,1029A1.752,1.752,0,0,0,3,1030.719v15.5a1.752,1.752,0,0,0,1.775,1.722H17.2a1.751,1.751,0,0,0,1.775-1.722v-8.61s.051-3.437,0-3.444c.116-1.939-4.958-6.1-5.326-5.166C11.613,1028.935,4.775,1029,4.775,1029Z" transform="translate(-3 -1028.864)" fill="#f25bea" opacity="0.369"/><path d="M-1979.814,677.021a2.291,2.291,0,0,1-.632-1.751,2.347,2.347,0,0,1,.679-1.733,2.435,2.435,0,0,1,1.787-.733,1.871,1.871,0,0,1,.443.047v-2.037a.05.05,0,0,1,.014-.042.05.05,0,0,1,.043-.014h1.107c.032,0,.047.019.047.056v5.7a4.367,4.367,0,0,0,.124.621.074.074,0,0,1-.046.081,4.529,4.529,0,0,1-1.9.4A2.307,2.307,0,0,1-1979.814,677.021Zm.883-2.964a1.754,1.754,0,0,0-.424,1.167,1.615,1.615,0,0,0,.419,1.143,1.213,1.213,0,0,0,.9.409.988.988,0,0,0,.5-.093v-2.9a.654.654,0,0,0-.462-.129h-.034a1.19,1.19,0,0,0-.9.408Zm-3.083,3.313-1.338-2.483h-.009l-1.305,2.483a.144.144,0,0,1-.126.081h-1.143c-.067,0-.081-.033-.039-.1l1.875-3.176-1.785-3.174c-.039-.053-.025-.081.039-.081h1.191a.133.133,0,0,1,.126.067l1.257,2.454h.009l1.251-2.454a.133.133,0,0,1,.127-.067h1.083c.071,0,.084.033.038.1l-1.767,3.067,1.9,3.267c.039.067.023.1-.049.1h-1.2a.149.149,0,0,1-.139-.082Z" transform="translate(1989.088 -665.802)" fill="#ff83f8"/><path d="M-1984.369,673.687l-.484-1.035-.577,1.035h-.57l.895-1.488-.895-1.442h.571l.567,1.019.574-1.019h.571l-.893,1.472.811,1.458Zm.978-.018V670.78c.678-.011,1.393-.169,1.8.539a1.7,1.7,0,0,1-.03,1.785,1.279,1.279,0,0,1-1.239.583C-1983.035,673.687-1983.213,673.676-1983.391,673.669Zm.483-2.439v1.965a.679.679,0,0,0,.815-.267,1.323,1.323,0,0,0,.059-1.361.634.634,0,0,0-.622-.357,1.506,1.506,0,0,0-.253.02Z" transform="translate(1991.625 -656.862)" fill="#fff"/><g transform="translate(0)" clip-path="url(#a)"><path d="M20.759,1035.159,15,1029.4v3.839a1.922,1.922,0,0,0,1.919,1.92Z" transform="translate(-3.253 -1030.425)" fill="#f25bea" style="mix-blend-mode:soft-light;isolation:isolate"/></g></g></g></svg>