<svg xmlns="http://www.w3.org/2000/svg" width="32" height="32" viewBox="0 0 32 32"><g transform="translate(-362 -155)"><rect width="32" height="32" transform="translate(362 155)" fill="#fff" opacity="0"/><g transform="translate(370 161)"><path d="M4.778,1030.4A1.761,1.761,0,0,0,3,1032.139v15.652a1.761,1.761,0,0,0,1.778,1.739H17.222A1.761,1.761,0,0,0,19,1047.791v-12.174l-5.333-5.217Z" transform="translate(-3 -1029.531)" fill="#c0392b"/><path d="M4.778,1029.4A1.761,1.761,0,0,0,3,1031.139v15.652a1.761,1.761,0,0,0,1.778,1.739H17.222A1.761,1.761,0,0,0,19,1046.791v-12.174l-5.333-5.217Z" transform="translate(-3 -1029.4)" fill="#e7523c"/><path d="M20.333,1034.617,15,1029.4v3.478a1.761,1.761,0,0,0,1.778,1.739Z" transform="translate(-4.333 -1029.4)" fill="#c0392b"/></g><path d="M17.431,1039.4h-.258c-.08.087-.533.7-.733.867-.053.087-.133.174-.179.174a28.613,28.613,0,0,1-2.907,2.783,1.585,1.585,0,0,1-.237.174,9.332,9.332,0,0,1-.873.609,8.663,8.663,0,0,1-2.482,1.133,5.512,5.512,0,0,1-4.042-.435,7.144,7.144,0,0,1-1.42-.783c-.339-.261-.3-.261-.3.174v.435l.229.087a13.826,13.826,0,0,0,1.342.7c.315.174.413.261.237.261a3.958,3.958,0,0,0-1.439,0H4.014a2.234,2.234,0,0,0-.015.348v.348h.119a5.774,5.774,0,0,1,2.113-.087,4.4,4.4,0,0,1,1.529.435,4.254,4.254,0,0,1,2.119,2.174l.071.174h.782l-.021-.087a3.566,3.566,0,0,0-.913-1.565,7.837,7.837,0,0,0-.991-.867H8.741a.884.884,0,0,0-.515-.261.231.231,0,0,0-.149-.087c0-.087.062-.087.138,0a8.683,8.683,0,0,0,1.3-.174,8.7,8.7,0,0,0,2.781-1.043c.329-.174,1.075-.783,1.374-.957.222-.261.293-.261.2-.174a2.658,2.658,0,0,1-.138.261c-.043.087-.12.174-.169.261a8.076,8.076,0,0,0-1.255,3.826c-.017.261-.031.521-.031.609v.261h4.149l-.067-.087a7.719,7.719,0,0,1-.992-2.435,7.151,7.151,0,0,1-.086-2.087,4.737,4.737,0,0,1,2.39-3.391,2.354,2.354,0,0,0,.4-.261l.149-.087v-.261a1.388,1.388,0,0,0-.024-.348c-.323.174-1.043.609-1.374.783-.177.174-.187.174-.021,0,.238-.261.649-.7,1.085-1.217l.2-.174H17.43Z" transform="translate(366.89 -869.704)" fill="#ecf0f1"/></g></svg>