<svg xmlns="http://www.w3.org/2000/svg" width="300" height="229.2" viewBox="0 0 300 229.2">
  <g id="img-5" transform="translate(-3813 -805)">
    <rect id="矩形_3130" data-name="矩形 3130" width="300" height="229.2" transform="translate(3813 805)" fill="#fff" opacity="0"/>
    <g id="SEO" transform="translate(3840.15 826.75)">
      <g id="组_4823" data-name="组 4823" transform="translate(0 0)">
        <g id="组_4581" data-name="组 4581" transform="translate(133.396 3.09)">
          <g id="组_4574" data-name="组 4574">
            <g id="组_4573" data-name="组 4573">
              <path id="路径_5750" data-name="路径 5750" d="M10116.442-517h-90.9a9.659,9.659,0,0,0-9.659,9.66v5.265H10126.1v-5.265A9.659,9.659,0,0,0,10116.442-517Z" transform="translate(-10015.883 517)" fill="#c9c9c9"/>
            </g>
          </g>
          <g id="组_4576" data-name="组 4576" transform="translate(4.395 6.075)">
            <g id="组_4575" data-name="组 4575">
              <circle id="椭圆_61" data-name="椭圆 61" cx="1.725" cy="1.725" r="1.725" fill="#fff"/>
            </g>
          </g>
          <g id="组_4578" data-name="组 4578" transform="translate(11.895 6.075)">
            <g id="组_4577" data-name="组 4577">
              <circle id="椭圆_62" data-name="椭圆 62" cx="1.725" cy="1.725" r="1.725" fill="#fff"/>
            </g>
          </g>
          <g id="组_4580" data-name="组 4580" transform="translate(19.395 6.075)">
            <g id="组_4579" data-name="组 4579">
              <circle id="椭圆_63" data-name="椭圆 63" cx="1.725" cy="1.725" r="1.725" fill="#fff"/>
            </g>
          </g>
        </g>
        <g id="组_4583" data-name="组 4583" transform="translate(221.721 144.405)">
          <g id="组_4582" data-name="组 4582" transform="translate(0 0)">
            <path id="路径_5751" data-name="路径 5751" d="M10622.57,426.572a5.034,5.034,0,0,0-7.119,0l-9.268,9.267a5.034,5.034,0,0,0,7.12,7.12l9.267-9.267a5.035,5.035,0,0,0,0-7.12Z" transform="translate(-10604.709 -425.098)" fill="#c9c9c9"/>
          </g>
        </g>
        <g id="组_4592" data-name="组 4592" transform="translate(6.273 123.878)">
          <g id="组_4585" data-name="组 4585" transform="translate(0 0)">
            <g id="组_4584" data-name="组 4584">
              <path id="路径_5752" data-name="路径 5752" d="M9268.95,288.25h-90.9a9.659,9.659,0,0,0-9.66,9.66v5.265h110.22V297.91A9.66,9.66,0,0,0,9268.95,288.25Z" transform="translate(-9168.391 -288.25)" fill="#c9c9c9"/>
            </g>
          </g>
          <g id="组_4587" data-name="组 4587" transform="translate(4.395 6.075)">
            <g id="组_4586" data-name="组 4586">
              <circle id="椭圆_64" data-name="椭圆 64" cx="1.725" cy="1.725" r="1.725" fill="#fff"/>
            </g>
          </g>
          <g id="组_4589" data-name="组 4589" transform="translate(11.895 6.075)">
            <g id="组_4588" data-name="组 4588">
              <circle id="椭圆_65" data-name="椭圆 65" cx="1.725" cy="1.725" r="1.725" fill="#fff"/>
            </g>
          </g>
          <g id="组_4591" data-name="组 4591" transform="translate(19.395 6.075)">
            <g id="组_4590" data-name="组 4590">
              <circle id="椭圆_66" data-name="椭圆 66" cx="1.725" cy="1.725" r="1.725" fill="#fff"/>
            </g>
          </g>
        </g>
        <g id="组_4594" data-name="组 4594" transform="translate(171.562 171.854)">
          <g id="组_4593" data-name="组 4593" transform="translate(0 0)">
            <path id="路径_5753" data-name="路径 5753" d="M10298.079,608.093a27.758,27.758,0,0,0-27.758,27.757h55.515A27.757,27.757,0,0,0,10298.079,608.093Z" transform="translate(-10270.321 -608.093)" fill="#e5ddd9"/>
          </g>
        </g>
        <g id="组_4596" data-name="组 4596" transform="translate(182.151 182.443)">
          <g id="组_4595" data-name="组 4595" transform="translate(0 0)">
            <path id="路径_5754" data-name="路径 5754" d="M10358.083,678.686a17.169,17.169,0,0,0-17.169,17.168h34.337A17.168,17.168,0,0,0,10358.083,678.686Z" transform="translate(-10340.914 -678.686)" fill="#c4a693"/>
          </g>
        </g>
        <g id="组_4598" data-name="组 4598" transform="translate(94.959 155.828)">
          <g id="组_4597" data-name="组 4597">
            <circle id="椭圆_67" data-name="椭圆 67" cx="3.262" cy="3.262" r="3.262" fill="#c4a693"/>
          </g>
        </g>
        <g id="组_4600" data-name="组 4600" transform="translate(58.209 155.828)">
          <g id="组_4599" data-name="组 4599">
            <circle id="椭圆_68" data-name="椭圆 68" cx="3.262" cy="3.262" r="3.262" fill="#c4a693"/>
          </g>
        </g>
        <g id="组_4602" data-name="组 4602" transform="translate(21.459 155.828)">
          <g id="组_4601" data-name="组 4601">
            <circle id="椭圆_69" data-name="椭圆 69" cx="3.262" cy="3.262" r="3.262" fill="#c4a693"/>
          </g>
        </g>
        <g id="组_4604" data-name="组 4604" transform="translate(188.964 26.889)">
          <g id="组_4603" data-name="组 4603">
            <rect id="矩形_3123" data-name="矩形 3123" width="46.756" height="40.948" fill="#e5ddd9"/>
          </g>
        </g>
        <g id="组_4778" data-name="组 4778" transform="translate(5.222 2.565)">
          <g id="组_4616" data-name="组 4616" transform="translate(12.075 10.95)">
            <g id="组_4609" data-name="组 4609" transform="translate(55.972)">
              <g id="组_4606" data-name="组 4606">
                <g id="组_4605" data-name="组 4605">
                  <path id="路径_5755" data-name="路径 5755" d="M9645.212-416.195h-29.056a1.125,1.125,0,0,1-1.125-1.125v-29.055a1.125,1.125,0,0,1,1.125-1.125h29.056a1.125,1.125,0,0,1,1.125,1.125v29.055A1.125,1.125,0,0,1,9645.212-416.195Zm-27.931-2.25h26.806V-445.25h-26.806Z" transform="translate(-9615.031 447.5)" fill="#7f7f7f"/>
                </g>
              </g>
              <g id="组_4608" data-name="组 4608" transform="translate(8.72 9.335)">
                <g id="组_4607" data-name="组 4607">
                  <path id="路径_5756" data-name="路径 5756" d="M9678.419-372.632a1.128,1.128,0,0,1-.8-.33l-4.13-4.13a1.126,1.126,0,0,1,0-1.591,1.126,1.126,0,0,1,1.592,0l3.334,3.334,9.591-9.591a1.125,1.125,0,0,1,1.591,0,1.125,1.125,0,0,1,0,1.591l-10.386,10.386A1.126,1.126,0,0,1,9678.419-372.632Z" transform="translate(-9673.164 385.268)" fill="#7f7f7f"/>
                </g>
              </g>
            </g>
            <g id="组_4611" data-name="组 4611" transform="translate(9 14.625)">
              <g id="组_4610" data-name="组 4610">
                <path id="路径_5757" data-name="路径 5757" d="M9303.008-252.725a1.125,1.125,0,0,1-1.125-1.125v-80.568A15.6,15.6,0,0,1,9317.465-350h32.568a1.125,1.125,0,0,1,1.125,1.125,1.125,1.125,0,0,1-1.125,1.125h-32.568a13.347,13.347,0,0,0-13.332,13.332v80.568A1.125,1.125,0,0,1,9303.008-252.725Z" transform="translate(-9301.883 350)" fill="#7f7f7f"/>
              </g>
            </g>
            <g id="组_4613" data-name="组 4613" transform="translate(18 23.625)">
              <g id="组_4612" data-name="组 4612">
                <path id="路径_5758" data-name="路径 5758" d="M9363.008-201.725a1.125,1.125,0,0,1-1.125-1.125v-73.368A13.8,13.8,0,0,1,9375.665-290h25.218a1.125,1.125,0,0,1,1.125,1.125,1.125,1.125,0,0,1-1.125,1.125h-25.218a11.546,11.546,0,0,0-11.532,11.532v73.368A1.125,1.125,0,0,1,9363.008-201.725Z" transform="translate(-9361.883 290)" fill="#7f7f7f"/>
              </g>
            </g>
            <g id="组_4615" data-name="组 4615" transform="translate(0 5.625)">
              <g id="组_4614" data-name="组 4614">
                <path id="路径_5759" data-name="路径 5759" d="M9243.008-303.725a1.125,1.125,0,0,1-1.125-1.125v-86.194A18.978,18.978,0,0,1,9260.839-410h36.694a1.125,1.125,0,0,1,1.125,1.125,1.125,1.125,0,0,1-1.125,1.125h-36.694a16.725,16.725,0,0,0-16.706,16.706v86.194A1.125,1.125,0,0,1,9243.008-303.725Z" transform="translate(-9241.883 410)" fill="#7f7f7f"/>
              </g>
            </g>
          </g>
          <g id="组_4655" data-name="组 4655" transform="translate(0 120.6)">
            <g id="组_4629" data-name="组 4629">
              <g id="组_4618" data-name="组 4618">
                <g id="组_4617" data-name="组 4617">
                  <path id="路径_5760" data-name="路径 5760" d="M9264.418,361.35h-93.6a9.445,9.445,0,0,1-9.435-9.435V292.935a9.445,9.445,0,0,1,9.435-9.435h93.6a9.445,9.445,0,0,1,9.435,9.435v58.981A9.445,9.445,0,0,1,9264.418,361.35Zm-93.6-75.6a7.193,7.193,0,0,0-7.185,7.185v58.981a7.193,7.193,0,0,0,7.185,7.185h93.6a7.193,7.193,0,0,0,7.185-7.185V292.935a7.193,7.193,0,0,0-7.185-7.185Z" transform="translate(-9161.383 -283.5)" fill="#7f7f7f"/>
                </g>
              </g>
              <g id="组_4620" data-name="组 4620" transform="translate(1.125 14.325)">
                <g id="组_4619" data-name="组 4619">
                  <rect id="矩形_3124" data-name="矩形 3124" width="110.25" height="2.25" fill="#7f7f7f"/>
                </g>
              </g>
              <g id="组_4622" data-name="组 4622" transform="translate(4.47 5.55)">
                <g id="组_4621" data-name="组 4621">
                  <path id="路径_5761" data-name="路径 5761" d="M9193.955,326.05a2.775,2.775,0,1,1,2.775-2.775A2.778,2.778,0,0,1,9193.955,326.05Zm0-3.3a.525.525,0,1,0,.525.525A.526.526,0,0,0,9193.955,322.75Z" transform="translate(-9191.18 -320.5)" fill="#7f7f7f"/>
                </g>
              </g>
              <g id="组_4624" data-name="组 4624" transform="translate(11.97 5.55)">
                <g id="组_4623" data-name="组 4623">
                  <path id="路径_5762" data-name="路径 5762" d="M9243.955,326.05a2.775,2.775,0,1,1,2.775-2.775A2.778,2.778,0,0,1,9243.955,326.05Zm0-3.3a.525.525,0,1,0,.525.525A.526.526,0,0,0,9243.955,322.75Z" transform="translate(-9241.18 -320.5)" fill="#7f7f7f"/>
                </g>
              </g>
              <g id="组_4626" data-name="组 4626" transform="translate(19.47 5.55)">
                <g id="组_4625" data-name="组 4625">
                  <path id="路径_5763" data-name="路径 5763" d="M9293.955,326.05a2.775,2.775,0,1,1,2.775-2.775A2.778,2.778,0,0,1,9293.955,326.05Zm0-3.3a.525.525,0,1,0,.525.525A.526.526,0,0,0,9293.955,322.75Z" transform="translate(-9291.18 -320.5)" fill="#7f7f7f"/>
                </g>
              </g>
              <g id="组_4628" data-name="组 4628" transform="translate(28.575 6)">
                <g id="组_4627" data-name="组 4627">
                  <path id="路径_5764" data-name="路径 5764" d="M9353.007,333.7a1.125,1.125,0,0,1-1.125-1.125v-7.95a1.125,1.125,0,0,1,2.25,0v7.95A1.125,1.125,0,0,1,9353.007,333.7Z" transform="translate(-9351.882 -323.5)" fill="#7f7f7f"/>
                </g>
              </g>
            </g>
            <g id="组_4634" data-name="组 4634" transform="translate(0 31.292)">
              <g id="组_4631" data-name="组 4631" transform="translate(15.163)">
                <g id="组_4630" data-name="组 4630">
                  <path id="路径_5765" data-name="路径 5765" d="M9266.854,500.888a4.387,4.387,0,1,1,4.387-4.387A4.392,4.392,0,0,1,9266.854,500.888Zm0-6.525a2.137,2.137,0,1,0,2.137,2.137A2.14,2.14,0,0,0,9266.854,494.363Z" transform="translate(-9262.467 -492.113)" fill="#7f7f7f"/>
                </g>
              </g>
              <g id="组_4633" data-name="组 4633" transform="translate(0 6.508)">
                <g id="组_4632" data-name="组 4632">
                  <path id="路径_5766" data-name="路径 5766" d="M9180.883,575.55a1.125,1.125,0,0,1-1.125-1.125V538.848l-16.584,12.184a1.125,1.125,0,0,1-1.332-1.813l18.375-13.5a1.125,1.125,0,0,1,1.791.907v37.8A1.125,1.125,0,0,1,9180.883,575.55Z" transform="translate(-9161.383 -535.5)" fill="#7f7f7f"/>
                </g>
              </g>
            </g>
            <g id="组_4639" data-name="组 4639" transform="translate(36.825 31.538)">
              <g id="组_4636" data-name="组 4636" transform="translate(15.038)">
                <g id="组_4635" data-name="组 4635">
                  <path id="路径_5767" data-name="路径 5767" d="M9511.521,502.526a4.387,4.387,0,1,1,4.387-4.387A4.392,4.392,0,0,1,9511.521,502.526Zm0-6.525a2.137,2.137,0,1,0,2.137,2.137A2.14,2.14,0,0,0,9511.521,496Z" transform="translate(-9507.134 -493.751)" fill="#7f7f7f"/>
                </g>
              </g>
              <g id="组_4638" data-name="组 4638" transform="translate(0 6.562)">
                <g id="组_4637" data-name="组 4637">
                  <path id="路径_5768" data-name="路径 5768" d="M9426.158,577.25a1.125,1.125,0,0,1-1.125-1.125V540.835l-16.363,11.9a1.125,1.125,0,0,1-1.323-1.819l18.149-13.2a1.125,1.125,0,0,1,1.787.91v37.5A1.125,1.125,0,0,1,9426.158,577.25Z" transform="translate(-9406.883 -537.5)" fill="#7f7f7f"/>
                </g>
              </g>
            </g>
            <g id="组_4644" data-name="组 4644" transform="translate(73.425 31.522)">
              <g id="组_4641" data-name="组 4641" transform="translate(15.138)">
                <g id="组_4640" data-name="组 4640">
                  <path id="路径_5769" data-name="路径 5769" d="M9756.188,502.421a4.387,4.387,0,1,1,4.388-4.387A4.392,4.392,0,0,1,9756.188,502.421Zm0-6.525a2.137,2.137,0,1,0,2.138,2.138A2.139,2.139,0,0,0,9756.188,495.9Z" transform="translate(-9751.801 -493.646)" fill="#7f7f7f"/>
                </g>
              </g>
              <g id="组_4643" data-name="组 4643" transform="translate(0 6.578)">
                <g id="组_4642" data-name="组 4642">
                  <path id="路径_5770" data-name="路径 5770" d="M9670.457,577.249a1.125,1.125,0,0,1-1.125-1.125V540.813l-16.67,11.927a1.125,1.125,0,0,1-1.31-1.83l18.45-13.2a1.125,1.125,0,0,1,1.779.915v37.5A1.125,1.125,0,0,1,9670.457,577.249Z" transform="translate(-9650.882 -537.499)" fill="#7f7f7f"/>
                </g>
              </g>
            </g>
            <g id="组_4646" data-name="组 4646" transform="translate(18.375 37.8)">
              <g id="组_4645" data-name="组 4645">
                <path id="路径_5771" data-name="路径 5771" d="M9303.457,575.55a1.125,1.125,0,0,1-1.125-1.125V550.7l-17.989-13.163a1.125,1.125,0,0,1,1.329-1.816l18.449,13.5a1.124,1.124,0,0,1,.461.908v24.3A1.125,1.125,0,0,1,9303.457,575.55Z" transform="translate(-9283.882 -535.499)" fill="#7f7f7f"/>
              </g>
            </g>
            <g id="组_4648" data-name="组 4648" transform="translate(54.975 38.1)">
              <g id="组_4647" data-name="组 4647">
                <path id="路径_5772" data-name="路径 5772" d="M9547.457,577.249a1.125,1.125,0,0,1-1.125-1.125V552.4l-17.979-12.863a1.125,1.125,0,1,1,1.31-1.83l18.449,13.2a1.124,1.124,0,0,1,.471.915v24.3A1.125,1.125,0,0,1,9547.457,577.249Z" transform="translate(-9527.882 -537.499)" fill="#7f7f7f"/>
              </g>
            </g>
            <g id="组_4650" data-name="组 4650" transform="translate(93 39.225)">
              <g id="组_4649" data-name="组 4649">
                <path id="路径_5773" data-name="路径 5773" d="M9781.382,545" transform="translate(-9781.382 -545)" fill="none" stroke="#7f7f7f" stroke-linecap="round" stroke-miterlimit="10" stroke-width="15"/>
              </g>
            </g>
            <g id="组_4652" data-name="组 4652" transform="translate(91.875 38.1)">
              <g id="组_4651" data-name="组 4651">
                <path id="路径_5774" data-name="路径 5774" d="M9793.157,552.95a1.121,1.121,0,0,1-.661-.215l-18.149-13.2a1.125,1.125,0,0,1,1.323-1.819l18.15,13.2a1.125,1.125,0,0,1-.663,2.035Z" transform="translate(-9773.883 -537.5)" fill="#7f7f7f"/>
              </g>
            </g>
            <g id="组_4654" data-name="组 4654" transform="translate(101.85 75.675)">
              <g id="组_4653" data-name="组 4653">
                <path id="路径_5775" data-name="路径 5775" d="M9904.508,790.25h-63a1.125,1.125,0,0,1,0-2.25h63a1.125,1.125,0,0,1,0,2.25Z" transform="translate(-9840.383 -788)" fill="#7f7f7f"/>
              </g>
            </g>
          </g>
          <g id="组_4671" data-name="组 4671" transform="translate(127.671 143.592)">
            <g id="组_4657" data-name="组 4657" transform="translate(16.854 33.858)">
              <g id="组_4656" data-name="组 4656">
                <path id="路径_5776" data-name="路径 5776" d="M10126.007,683.5a1.125,1.125,0,0,1-1.125-1.125v-18.75a1.125,1.125,0,0,1,2.25,0v18.75A1.125,1.125,0,0,1,10126.007,683.5Z" transform="translate(-10124.882 -662.5)" fill="#7f7f7f"/>
              </g>
            </g>
            <g id="组_4659" data-name="组 4659" transform="translate(7.854 31.158)">
              <g id="组_4658" data-name="组 4658">
                <path id="路径_5777" data-name="路径 5777" d="M10066.007,668.2a1.125,1.125,0,0,1-1.125-1.125v-21.45a1.125,1.125,0,0,1,2.25,0v21.45A1.125,1.125,0,0,1,10066.007,668.2Z" transform="translate(-10064.882 -644.5)" fill="#7f7f7f"/>
              </g>
            </g>
            <g id="组_4661" data-name="组 4661" transform="translate(25.854 31.158)">
              <g id="组_4660" data-name="组 4660">
                <path id="路径_5778" data-name="路径 5778" d="M10186.007,668.2a1.125,1.125,0,0,1-1.125-1.125v-21.45a1.125,1.125,0,0,1,2.25,0v21.45A1.125,1.125,0,0,1,10186.007,668.2Z" transform="translate(-10184.882 -644.5)" fill="#7f7f7f"/>
              </g>
            </g>
            <g id="组_4663" data-name="组 4663" transform="translate(0 0)">
              <g id="组_4662" data-name="组 4662">
                <path id="路径_5779" data-name="路径 5779" d="M10030.5,472.736a17.979,17.979,0,1,1,17.979-17.979A18,18,0,0,1,10030.5,472.736Zm0-33.708a15.729,15.729,0,1,0,15.729,15.729A15.747,15.747,0,0,0,10030.5,439.028Z" transform="translate(-10012.521 -436.778)" fill="#7f7f7f"/>
              </g>
            </g>
            <g id="组_4670" data-name="组 4670" transform="translate(5.223 11.117)">
              <g id="组_4665" data-name="组 4665" transform="translate(5.894)">
                <g id="组_4664" data-name="组 4664">
                  <path id="路径_5780" data-name="路径 5780" d="M10093.5,524.615a6.862,6.862,0,1,1,6.862-6.862A6.87,6.87,0,0,1,10093.5,524.615Zm0-11.474a4.612,4.612,0,1,0,4.612,4.612A4.618,4.618,0,0,0,10093.5,513.141Z" transform="translate(-10086.635 -510.891)" fill="#7f7f7f"/>
                </g>
              </g>
              <g id="组_4667" data-name="组 4667" transform="translate(16.093 1.246)">
                <g id="组_4666" data-name="组 4666">
                  <path id="路径_5781" data-name="路径 5781" d="M10158.432,530.43a5.572,5.572,0,0,1-3.351-1.109,1.126,1.126,0,0,1-.2-1.61,4.607,4.607,0,0,0,0-5.8,1.126,1.126,0,0,1,.2-1.61,5.616,5.616,0,1,1,3.351,10.124Zm-1.068-2.422a3.366,3.366,0,1,0,0-6.388,6.851,6.851,0,0,1,0,6.388Z" transform="translate(-10154.628 -519.198)" fill="#7f7f7f"/>
                </g>
              </g>
              <g id="组_4669" data-name="组 4669" transform="translate(0 1.246)">
                <g id="组_4668" data-name="组 4668">
                  <path id="路径_5782" data-name="路径 5782" d="M10052.956,530.43a5.616,5.616,0,1,1,3.351-10.124,1.126,1.126,0,0,1,.2,1.61,4.607,4.607,0,0,0,0,5.8,1.126,1.126,0,0,1-.2,1.61A5.572,5.572,0,0,1,10052.956,530.43Zm0-8.982a3.366,3.366,0,1,0,1.068,6.56,6.851,6.851,0,0,1,0-6.388A3.364,3.364,0,0,0,10052.956,521.448Z" transform="translate(-10047.34 -519.198)" fill="#7f7f7f"/>
                </g>
              </g>
            </g>
          </g>
          <g id="组_4684" data-name="组 4684" transform="translate(164.862 140.715)">
            <g id="组_4676" data-name="组 4676" transform="translate(0 27.449)">
              <g id="组_4673" data-name="组 4673">
                <g id="组_4672" data-name="组 4672">
                  <path id="路径_5783" data-name="路径 5783" d="M10317.811,630.954h-10.59a1.125,1.125,0,0,1-1.125-1.125,16.4,16.4,0,1,0-32.794,0,1.125,1.125,0,0,1-1.125,1.125h-10.589a1.125,1.125,0,0,1-1.125-1.125,29.236,29.236,0,0,1,58.473,0A1.125,1.125,0,0,1,10317.811,630.954Zm-9.5-2.25h8.35a26.986,26.986,0,0,0-53.926,0h8.35a18.647,18.647,0,0,1,37.227,0Z" transform="translate(-10260.463 -600.593)" fill="#7f7f7f"/>
                </g>
              </g>
              <g id="组_4675" data-name="组 4675" transform="translate(10.638 28.111)">
                <g id="组_4674" data-name="组 4674">
                  <path id="路径_5784" data-name="路径 5784" d="M10367.458,790.25h-34.95a1.125,1.125,0,0,1,0-2.25h34.95a1.125,1.125,0,0,1,0,2.25Z" transform="translate(-10331.383 -788)" fill="#7f7f7f"/>
                </g>
              </g>
            </g>
            <g id="组_4683" data-name="组 4683" transform="translate(40.653 0)">
              <g id="组_4678" data-name="组 4678" transform="translate(9.859)">
                <g id="组_4677" data-name="组 4677">
                  <path id="路径_5785" data-name="路径 5785" d="M10603.37,439.179a6.157,6.157,0,0,1-4.355-10.512l9.267-9.267a6.159,6.159,0,1,1,8.711,8.711l-9.268,9.267A6.138,6.138,0,0,1,10603.37,439.179Zm9.267-19.332a3.883,3.883,0,0,0-2.765,1.145l-9.267,9.267a3.909,3.909,0,1,0,5.528,5.529l9.267-9.267a3.909,3.909,0,0,0-2.764-6.674Z" transform="translate(-10597.211 -417.597)" fill="#7f7f7f"/>
                </g>
              </g>
              <g id="组_4680" data-name="组 4680" transform="translate(0 17.845)">
                <g id="组_4679" data-name="组 4679">
                  <path id="路径_5786" data-name="路径 5786" d="M10532.607,550.165a1.125,1.125,0,0,1-.8-1.921l11.35-11.349a1.125,1.125,0,0,1,1.591,1.591l-11.35,11.349A1.122,1.122,0,0,1,10532.607,550.165Z" transform="translate(-10531.482 -536.566)" fill="#7f7f7f"/>
                </g>
              </g>
              <g id="组_4682" data-name="组 4682" transform="translate(19.516 2.572)">
                <g id="组_4681" data-name="组 4681">
                  <path id="路径_5787" data-name="路径 5787" d="M10669.822,444.1a1.121,1.121,0,0,1-.795-.33l-7.106-7.106a1.125,1.125,0,0,1,1.591-1.591l7.106,7.106a1.125,1.125,0,0,1-.8,1.92Z" transform="translate(-10661.592 -434.743)" fill="#7f7f7f"/>
                </g>
              </g>
            </g>
          </g>
          <g id="组_4751" data-name="组 4751" transform="translate(82.575)">
            <g id="组_4703" data-name="组 4703" transform="translate(44.475)">
              <g id="组_4687" data-name="组 4687">
                <g id="组_4686" data-name="组 4686">
                  <g id="组_4685" data-name="组 4685">
                    <path id="路径_5788" data-name="路径 5788" d="M10111.417-442.65h-93.6a9.445,9.445,0,0,1-9.435-9.435v-58.981a9.445,9.445,0,0,1,9.435-9.435h93.6a9.445,9.445,0,0,1,9.435,9.435v58.981A9.445,9.445,0,0,1,10111.417-442.65Zm-93.6-75.6a7.193,7.193,0,0,0-7.185,7.185v58.981a7.193,7.193,0,0,0,7.185,7.185h93.6a7.193,7.193,0,0,0,7.185-7.185v-58.981a7.193,7.193,0,0,0-7.185-7.185Z" transform="translate(-10008.383 520.5)" fill="#7f7f7f"/>
                  </g>
                </g>
              </g>
              <g id="组_4690" data-name="组 4690" transform="translate(1.125 14.325)">
                <g id="组_4689" data-name="组 4689">
                  <g id="组_4688" data-name="组 4688">
                    <rect id="矩形_3125" data-name="矩形 3125" width="110.25" height="2.25" fill="#7f7f7f"/>
                  </g>
                </g>
              </g>
              <g id="组_4693" data-name="组 4693" transform="translate(4.47 5.55)">
                <g id="组_4692" data-name="组 4692">
                  <g id="组_4691" data-name="组 4691">
                    <path id="路径_5789" data-name="路径 5789" d="M10040.955-477.95a2.778,2.778,0,0,1-2.775-2.775,2.778,2.778,0,0,1,2.775-2.775,2.778,2.778,0,0,1,2.775,2.775A2.778,2.778,0,0,1,10040.955-477.95Zm0-3.3a.526.526,0,0,0-.525.525.526.526,0,0,0,.525.525.526.526,0,0,0,.525-.525A.526.526,0,0,0,10040.955-481.25Z" transform="translate(-10038.18 483.5)" fill="#7f7f7f"/>
                  </g>
                </g>
              </g>
              <g id="组_4696" data-name="组 4696" transform="translate(11.97 5.55)">
                <g id="组_4695" data-name="组 4695">
                  <g id="组_4694" data-name="组 4694">
                    <path id="路径_5790" data-name="路径 5790" d="M10090.955-477.95a2.778,2.778,0,0,1-2.775-2.775,2.778,2.778,0,0,1,2.775-2.775,2.778,2.778,0,0,1,2.775,2.775A2.778,2.778,0,0,1,10090.955-477.95Zm0-3.3a.526.526,0,0,0-.525.525.526.526,0,0,0,.525.525.526.526,0,0,0,.525-.525A.526.526,0,0,0,10090.955-481.25Z" transform="translate(-10088.18 483.5)" fill="#7f7f7f"/>
                  </g>
                </g>
              </g>
              <g id="组_4699" data-name="组 4699" transform="translate(19.47 5.55)">
                <g id="组_4698" data-name="组 4698">
                  <g id="组_4697" data-name="组 4697">
                    <path id="路径_5791" data-name="路径 5791" d="M10140.955-477.95a2.778,2.778,0,0,1-2.775-2.775,2.778,2.778,0,0,1,2.775-2.775,2.778,2.778,0,0,1,2.775,2.775A2.778,2.778,0,0,1,10140.955-477.95Zm0-3.3a.526.526,0,0,0-.525.525.526.526,0,0,0,.525.525.526.526,0,0,0,.525-.525A.526.526,0,0,0,10140.955-481.25Z" transform="translate(-10138.18 483.5)" fill="#7f7f7f"/>
                  </g>
                </g>
              </g>
              <g id="组_4702" data-name="组 4702" transform="translate(28.575 6)">
                <g id="组_4701" data-name="组 4701">
                  <g id="组_4700" data-name="组 4700">
                    <path id="路径_5792" data-name="路径 5792" d="M10200.007-470.3a1.125,1.125,0,0,1-1.125-1.125v-7.95a1.125,1.125,0,0,1,1.125-1.125,1.125,1.125,0,0,1,1.125,1.125v7.95A1.125,1.125,0,0,1,10200.007-470.3Z" transform="translate(-10198.882 480.5)" fill="#7f7f7f"/>
                  </g>
                </g>
              </g>
            </g>
            <g id="组_4706" data-name="组 4706" transform="translate(100.042 23.199)">
              <g id="组_4705" data-name="组 4705">
                <g id="组_4704" data-name="组 4704">
                  <path id="路径_5793" data-name="路径 5793" d="M10426.712-322.641h-46.755a1.125,1.125,0,0,1-1.125-1.125v-40.948a1.125,1.125,0,0,1,1.125-1.125h46.755a1.125,1.125,0,0,1,1.125,1.125v40.948A1.125,1.125,0,0,1,10426.712-322.641Zm-45.63-2.25h44.5v-38.7h-44.5Z" transform="translate(-10378.832 365.839)" fill="#7f7f7f"/>
                </g>
              </g>
            </g>
            <g id="组_4709" data-name="组 4709" transform="translate(52.402 23.199)">
              <g id="组_4708" data-name="组 4708">
                <g id="组_4707" data-name="组 4707">
                  <path id="路径_5794" data-name="路径 5794" d="M10098.329-336.815h-35.974a1.125,1.125,0,0,1-1.125-1.125v-26.774a1.125,1.125,0,0,1,1.125-1.125h35.974a1.125,1.125,0,0,1,1.125,1.125v26.774A1.125,1.125,0,0,1,10098.329-336.815Zm-34.849-2.25h33.724v-24.524h-33.724Z" transform="translate(-10061.23 365.839)" fill="#7f7f7f"/>
                </g>
              </g>
            </g>
            <g id="组_4712" data-name="组 4712" transform="translate(105.675 31.575)">
              <g id="组_4711" data-name="组 4711">
                <g id="组_4710" data-name="组 4710">
                  <path id="路径_5795" data-name="路径 5795" d="M10453.508-307.75h-36a1.125,1.125,0,0,1-1.125-1.125,1.125,1.125,0,0,1,1.125-1.125h36a1.125,1.125,0,0,1,1.125,1.125A1.125,1.125,0,0,1,10453.508-307.75Z" transform="translate(-10416.383 310)" fill="#7f7f7f"/>
                </g>
              </g>
            </g>
            <g id="组_4715" data-name="组 4715" transform="translate(105.675 39.675)">
              <g id="组_4714" data-name="组 4714">
                <g id="组_4713" data-name="组 4713">
                  <path id="路径_5796" data-name="路径 5796" d="M10453.508-253.75h-36a1.125,1.125,0,0,1-1.125-1.125,1.125,1.125,0,0,1,1.125-1.125h36a1.125,1.125,0,0,1,1.125,1.125A1.125,1.125,0,0,1,10453.508-253.75Z" transform="translate(-10416.383 256)" fill="#7f7f7f"/>
                </g>
              </g>
            </g>
            <g id="组_4718" data-name="组 4718" transform="translate(105.675 56.025)">
              <g id="组_4717" data-name="组 4717">
                <g id="组_4716" data-name="组 4716">
                  <path id="路径_5797" data-name="路径 5797" d="M10453.508-144.75h-36a1.125,1.125,0,0,1-1.125-1.125,1.125,1.125,0,0,1,1.125-1.125h36a1.125,1.125,0,0,1,1.125,1.125A1.125,1.125,0,0,1,10453.508-144.75Z" transform="translate(-10416.383 147)" fill="#7f7f7f"/>
                </g>
              </g>
            </g>
            <g id="组_4721" data-name="组 4721" transform="translate(105.675 47.925)">
              <g id="组_4720" data-name="组 4720">
                <g id="组_4719" data-name="组 4719">
                  <path id="路径_5798" data-name="路径 5798" d="M10453.508-198.75h-36a1.125,1.125,0,0,1-1.125-1.125,1.125,1.125,0,0,1,1.125-1.125h36a1.125,1.125,0,0,1,1.125,1.125A1.125,1.125,0,0,1,10453.508-198.75Z" transform="translate(-10416.383 201)" fill="#7f7f7f"/>
                </g>
              </g>
            </g>
            <g id="组_4724" data-name="组 4724" transform="translate(75 39.825)">
              <g id="组_4723" data-name="组 4723">
                <g id="组_4722" data-name="组 4722">
                  <path id="路径_5799" data-name="路径 5799" d="M10213.007-242.625a1.125,1.125,0,0,1-1.125-1.125v-10.125a1.125,1.125,0,0,1,1.125-1.125h13.425a1.125,1.125,0,0,1,1.125,1.125,1.125,1.125,0,0,1-1.125,1.125h-12.3v9A1.125,1.125,0,0,1,10213.007-242.625Z" transform="translate(-10211.882 255)" fill="#7f7f7f"/>
                </g>
              </g>
            </g>
            <g id="组_4740" data-name="组 4740" transform="translate(52.575 23.25)">
              <g id="组_4727" data-name="组 4727" transform="translate(19.425)">
                <g id="组_4726" data-name="组 4726">
                  <g id="组_4725" data-name="组 4725">
                    <path id="路径_5800" data-name="路径 5800" d="M10193.007-361.3a1.125,1.125,0,0,1-1.125-1.125v-1.95a1.125,1.125,0,0,1,1.125-1.125,1.125,1.125,0,0,1,1.125,1.125v1.95A1.125,1.125,0,0,1,10193.007-361.3Z" transform="translate(-10191.882 365.5)" fill="#7f7f7f"/>
                  </g>
                </g>
              </g>
              <g id="组_4730" data-name="组 4730" transform="translate(19.425 6.45)">
                <g id="组_4729" data-name="组 4729">
                  <g id="组_4728" data-name="组 4728">
                    <path id="路径_5801" data-name="路径 5801" d="M10193.007-316.8a1.125,1.125,0,0,1-1.125-1.125v-3.45a1.125,1.125,0,0,1,1.125-1.125,1.125,1.125,0,0,1,1.125,1.125v3.45A1.125,1.125,0,0,1,10193.007-316.8Z" transform="translate(-10191.882 322.5)" fill="#7f7f7f"/>
                  </g>
                </g>
              </g>
              <g id="组_4733" data-name="组 4733" transform="translate(17.55 14.55)">
                <g id="组_4732" data-name="组 4732">
                  <g id="组_4731" data-name="组 4731">
                    <path id="路径_5802" data-name="路径 5802" d="M10182.383-264.375h-1.875a1.125,1.125,0,0,1-1.125-1.125,1.125,1.125,0,0,1,1.125-1.125h.75v-.75a1.125,1.125,0,0,1,1.125-1.125,1.125,1.125,0,0,1,1.125,1.125v1.875A1.125,1.125,0,0,1,10182.383-264.375Z" transform="translate(-10179.383 268.5)" fill="#7f7f7f"/>
                  </g>
                </g>
              </g>
              <g id="组_4736" data-name="组 4736" transform="translate(7.65 16.425)">
                <g id="组_4735" data-name="组 4735">
                  <g id="组_4734" data-name="组 4734">
                    <path id="路径_5803" data-name="路径 5803" d="M10118.707-253.75h-4.2a1.125,1.125,0,0,1-1.125-1.125,1.125,1.125,0,0,1,1.125-1.125h4.2a1.125,1.125,0,0,1,1.125,1.125A1.125,1.125,0,0,1,10118.707-253.75Z" transform="translate(-10113.383 256)" fill="#7f7f7f"/>
                  </g>
                </g>
              </g>
              <g id="组_4739" data-name="组 4739" transform="translate(0 16.425)">
                <g id="组_4738" data-name="组 4738">
                  <g id="组_4737" data-name="组 4737">
                    <path id="路径_5804" data-name="路径 5804" d="M10065.308-253.75h-1.8a1.125,1.125,0,0,1-1.125-1.125,1.125,1.125,0,0,1,1.125-1.125h1.8a1.125,1.125,0,0,1,1.125,1.125A1.125,1.125,0,0,1,10065.308-253.75Z" transform="translate(-10062.383 256)" fill="#7f7f7f"/>
                  </g>
                </g>
              </g>
            </g>
            <g id="组_4750" data-name="组 4750" transform="translate(0 25.425)">
              <g id="组_4743" data-name="组 4743" transform="translate(0 17.925)">
                <g id="组_4742" data-name="组 4742">
                  <g id="组_4741" data-name="组 4741">
                    <path id="路径_5805" data-name="路径 5805" d="M9713.007-152a1.125,1.125,0,0,1-1.125-1.125v-3.75a1.125,1.125,0,0,1,1.125-1.125,1.125,1.125,0,0,1,1.125,1.125v3.75A1.125,1.125,0,0,1,9713.007-152Zm0-10.5a1.125,1.125,0,0,1-1.125-1.125v-3.75a1.125,1.125,0,0,1,1.125-1.125,1.125,1.125,0,0,1,1.125,1.125v3.75A1.125,1.125,0,0,1,9713.007-162.5Zm0-10.5a1.125,1.125,0,0,1-1.125-1.125v-3.75a1.125,1.125,0,0,1,1.125-1.125,1.125,1.125,0,0,1,1.125,1.125v3.75A1.125,1.125,0,0,1,9713.007-173Zm0-10.5a1.125,1.125,0,0,1-1.125-1.125v-3.75a1.125,1.125,0,0,1,1.125-1.125,1.125,1.125,0,0,1,1.125,1.125v3.75A1.125,1.125,0,0,1,9713.007-183.5Zm0-10.5a1.125,1.125,0,0,1-1.125-1.125v-3.75a1.125,1.125,0,0,1,1.125-1.125,1.125,1.125,0,0,1,1.125,1.125v3.75A1.125,1.125,0,0,1,9713.007-194Zm0-10.5a1.125,1.125,0,0,1-1.125-1.125v-3.75a1.125,1.125,0,0,1,1.125-1.125,1.125,1.125,0,0,1,1.125,1.125v3.75A1.125,1.125,0,0,1,9713.007-204.5Zm0-10.5a1.125,1.125,0,0,1-1.125-1.125v-3.75a1.125,1.125,0,0,1,1.125-1.125,1.125,1.125,0,0,1,1.125,1.125v3.75A1.125,1.125,0,0,1,9713.007-215Zm0-10.5a1.125,1.125,0,0,1-1.125-1.125v-3.75a1.125,1.125,0,0,1,1.125-1.125,1.125,1.125,0,0,1,1.125,1.125v3.75A1.125,1.125,0,0,1,9713.007-225.5Z" transform="translate(-9711.882 231.5)" fill="#7f7f7f"/>
                  </g>
                </g>
              </g>
              <g id="组_4746" data-name="组 4746" transform="translate(14.475)">
                <g id="组_4745" data-name="组 4745">
                  <g id="组_4744" data-name="组 4744">
                    <path id="路径_5806" data-name="路径 5806" d="M9834.258-348.75h-3.75a1.125,1.125,0,0,1-1.125-1.125,1.125,1.125,0,0,1,1.125-1.125h3.75a1.125,1.125,0,0,1,1.125,1.125A1.125,1.125,0,0,1,9834.258-348.75Zm-10.5,0h-3.75a1.125,1.125,0,0,1-1.125-1.125,1.125,1.125,0,0,1,1.125-1.125h3.75a1.125,1.125,0,0,1,1.125,1.125A1.125,1.125,0,0,1,9823.758-348.75Zm-10.5,0h-3.75a1.125,1.125,0,0,1-1.125-1.125,1.125,1.125,0,0,1,1.125-1.125h3.75a1.125,1.125,0,0,1,1.125,1.125A1.125,1.125,0,0,1,9813.258-348.75Z" transform="translate(-9808.383 351)" fill="#7f7f7f"/>
                  </g>
                </g>
              </g>
              <g id="组_4749" data-name="组 4749" transform="translate(117.6 50.175)">
                <g id="组_4748" data-name="组 4748" transform="translate(0 0)">
                  <g id="组_4747" data-name="组 4747">
                    <path id="路径_5807" data-name="路径 5807" d="M10497.008,73.5a1.125,1.125,0,0,1-1.125-1.125v-3.75a1.125,1.125,0,0,1,2.25,0v3.75A1.125,1.125,0,0,1,10497.008,73.5Zm0-10.5a1.125,1.125,0,0,1-1.125-1.125v-3.75a1.125,1.125,0,0,1,2.25,0v3.75A1.125,1.125,0,0,1,10497.008,63Zm0-10.5a1.125,1.125,0,0,1-1.125-1.125v-3.75a1.125,1.125,0,0,1,2.25,0v3.75A1.125,1.125,0,0,1,10497.008,52.5Zm0-10.5a1.125,1.125,0,0,1-1.125-1.125v-3.75a1.125,1.125,0,0,1,2.25,0v3.75A1.125,1.125,0,0,1,10497.008,42Zm0-10.5a1.125,1.125,0,0,1-1.125-1.125v-3.75a1.125,1.125,0,0,1,2.25,0v3.75A1.125,1.125,0,0,1,10497.008,31.5Zm0-10.5a1.125,1.125,0,0,1-1.125-1.125v-3.75a1.125,1.125,0,0,1,2.25,0v3.75A1.125,1.125,0,0,1,10497.008,21Zm0-10.5a1.125,1.125,0,0,1-1.125-1.125V5.625a1.125,1.125,0,0,1,2.25,0v3.75A1.125,1.125,0,0,1,10497.008,10.5Zm0-10.5a1.125,1.125,0,0,1-1.125-1.125v-3.75A1.125,1.125,0,0,1,10497.008-6a1.125,1.125,0,0,1,1.125,1.125v3.75A1.125,1.125,0,0,1,10497.008,0Zm0-10.5a1.125,1.125,0,0,1-1.125-1.125v-3.75a1.125,1.125,0,0,1,1.125-1.125,1.125,1.125,0,0,1,1.125,1.125v3.75A1.125,1.125,0,0,1,10497.008-10.5Z" transform="translate(-10495.883 16.5)" fill="#7f7f7f"/>
                  </g>
                </g>
              </g>
            </g>
          </g>
          <g id="组_4759" data-name="组 4759" transform="translate(102.321 80.983)">
            <g id="组_4753" data-name="组 4753" transform="translate(0 0)">
              <g id="组_4752" data-name="组 4752">
                <path id="路径_5808" data-name="路径 5808" d="M9861.5,55.347a17.979,17.979,0,1,1,17.979-17.979A18,18,0,0,1,9861.5,55.347Zm0-33.708a15.729,15.729,0,1,0,15.729,15.729A15.747,15.747,0,0,0,9861.5,21.639Z" transform="translate(-9843.521 -19.389)" fill="#7f7f7f"/>
              </g>
            </g>
            <g id="组_4758" data-name="组 4758" transform="translate(7.279 7.266)">
              <g id="组_4755" data-name="组 4755">
                <g id="组_4754" data-name="组 4754">
                  <path id="路径_5809" data-name="路径 5809" d="M9900.372,84.47a8.321,8.321,0,1,1,5.886-2.434A8.3,8.3,0,0,1,9900.372,84.47Zm0-14.392a6.072,6.072,0,1,0,4.295,1.776A6.058,6.058,0,0,0,9900.372,70.078Z" transform="translate(-9892.051 -67.829)" fill="#7f7f7f"/>
                </g>
              </g>
              <g id="组_4757" data-name="组 4757" transform="translate(12.192 12.286)">
                <g id="组_4756" data-name="组 4756">
                  <path id="路径_5810" data-name="路径 5810" d="M9981.35,158.88a1.122,1.122,0,0,1-.8-.329l-6.895-6.894a1.125,1.125,0,0,1,1.591-1.591l6.895,6.894a1.125,1.125,0,0,1-.795,1.92Z" transform="translate(-9973.33 -149.735)" fill="#7f7f7f"/>
                </g>
              </g>
            </g>
          </g>
          <g id="组_4761" data-name="组 4761" transform="translate(110.25 75.84)">
            <g id="组_4760" data-name="组 4760" transform="translate(0 0)">
              <path id="路径_5811" data-name="路径 5811" d="M9906.433,40.456a32.256,32.256,0,0,1-9.247-1.346,1.125,1.125,0,1,1,.645-2.156,29.989,29.989,0,0,0,29.8-49.935,1.126,1.126,0,0,1,0-1.591,1.126,1.126,0,0,1,1.592,0,32.025,32.025,0,0,1,9.441,22.793,32.025,32.025,0,0,1-9.441,22.793A32.025,32.025,0,0,1,9906.433,40.456Z" transform="translate(-9896.383 14.901)" fill="#7f7f7f"/>
            </g>
          </g>
          <g id="组_4763" data-name="组 4763" transform="translate(88.066 66.728)">
            <g id="组_4762" data-name="组 4762" transform="translate(0 0)">
              <path id="路径_5812" data-name="路径 5812" d="M9759.137-19.882a1.123,1.123,0,0,1-.78-.315,32.131,32.131,0,0,1-7.217-10.387,32.019,32.019,0,0,1-2.653-12.828,32.024,32.024,0,0,1,9.44-22.793,32.026,32.026,0,0,1,22.794-9.441,32.386,32.386,0,0,1,7.731.933,1.125,1.125,0,0,1,.823,1.361,1.125,1.125,0,0,1-1.361.824,30.119,30.119,0,0,0-7.193-.868,30.018,30.018,0,0,0-29.984,29.984,29.735,29.735,0,0,0,9.182,21.594,1.126,1.126,0,0,1,.029,1.591A1.122,1.122,0,0,1,9759.137-19.882Z" transform="translate(-9748.486 75.646)" fill="#7f7f7f"/>
            </g>
          </g>
          <g id="组_4765" data-name="组 4765" transform="translate(157.761 75.84)">
            <g id="组_4764" data-name="组 4764" transform="translate(0 0)">
              <path id="路径_5813" data-name="路径 5813" d="M10214.248,60.02a1.125,1.125,0,0,1-.684-2.02,62.142,62.142,0,0,0,24.66-49.779,62.351,62.351,0,0,0-3.832-21.609,1.125,1.125,0,0,1,.668-1.444,1.124,1.124,0,0,1,1.443.667,64.6,64.6,0,0,1,3.971,22.386,64.138,64.138,0,0,1-6.951,29.232,65.409,65.409,0,0,1-18.595,22.336A1.121,1.121,0,0,1,10214.248,60.02Z" transform="translate(-10213.122 14.902)" fill="#7f7f7f"/>
            </g>
          </g>
          <g id="组_4767" data-name="组 4767" transform="translate(97.868 34.149)">
            <g id="组_4766" data-name="组 4766">
              <path id="路径_5814" data-name="路径 5814" d="M9814.961-286.941a1.126,1.126,0,0,1-1.061-.749,1.125,1.125,0,0,1,.684-1.436,64.655,64.655,0,0,1,21.684-3.716,65.736,65.736,0,0,1,7.592.44,1.124,1.124,0,0,1,.986,1.248,1.125,1.125,0,0,1-1.247.987,63.5,63.5,0,0,0-7.331-.425,62.41,62.41,0,0,0-20.931,3.587A1.13,1.13,0,0,1,9814.961-286.941Z" transform="translate(-9813.835 292.843)" fill="#7f7f7f"/>
            </g>
          </g>
          <g id="组_4769" data-name="组 4769" transform="translate(55.486 51.099)">
            <g id="组_4768" data-name="组 4768">
              <path id="路径_5815" data-name="路径 5815" d="M9536.468-108.447a1.124,1.124,0,0,1-1.053-.73,64.564,64.564,0,0,1-4.125-22.8,64.325,64.325,0,0,1,5.6-26.392,64.586,64.586,0,0,1,15.186-21.172,1.125,1.125,0,0,1,1.59.061,1.125,1.125,0,0,1-.062,1.59,62.77,62.77,0,0,0-20.063,45.913,62.349,62.349,0,0,0,3.98,22.009,1.124,1.124,0,0,1-.657,1.449A1.118,1.118,0,0,1,9536.468-108.447Z" transform="translate(-9531.29 179.841)" fill="#7f7f7f"/>
            </g>
          </g>
          <g id="组_4771" data-name="组 4771" transform="translate(111.139 161.024)">
            <g id="组_4770" data-name="组 4770" transform="translate(0 0)">
              <path id="路径_5816" data-name="路径 5816" d="M9911.47,555.746a65.662,65.662,0,0,1-8.177-.511,1.125,1.125,0,1,1,.281-2.232,63.434,63.434,0,0,0,15.228.068,1.125,1.125,0,1,1,.261,2.235A65.74,65.74,0,0,1,9911.47,555.746Z" transform="translate(-9902.309 -552.994)" fill="#7f7f7f"/>
            </g>
          </g>
          <g id="组_4773" data-name="组 4773" transform="translate(89.959 48.342)">
            <g id="组_4772" data-name="组 4772" transform="translate(0 0)">
              <path id="路径_5817" data-name="路径 5817" d="M9762.236-186.43a1.125,1.125,0,0,1-.909-.46,1.125,1.125,0,0,1,.243-1.572,50.233,50.233,0,0,1,29.881-9.756,51.2,51.2,0,0,1,7.63.571,1.125,1.125,0,0,1,.944,1.28,1.126,1.126,0,0,1-1.28.944,48.962,48.962,0,0,0-7.294-.546,48,48,0,0,0-28.552,9.321A1.118,1.118,0,0,1,9762.236-186.43Z" transform="translate(-9761.109 198.218)" fill="#7f7f7f"/>
            </g>
          </g>
          <g id="组_4775" data-name="组 4775" transform="translate(69.68 71.941)">
            <g id="组_4774" data-name="组 4774" transform="translate(0 0)">
              <path id="路径_5818" data-name="路径 5818" d="M9632.39,9.658a1.125,1.125,0,0,1-1-.615,50.085,50.085,0,0,1-5.472-22.915,50.511,50.511,0,0,1,7.474-26.486,1.125,1.125,0,0,1,1.548-.369,1.124,1.124,0,0,1,.368,1.548,48.266,48.266,0,0,0-7.14,25.307,47.854,47.854,0,0,0,5.228,21.9,1.126,1.126,0,0,1-1,1.635Z" transform="translate(-9625.914 40.893)" fill="#7f7f7f"/>
            </g>
          </g>
          <g id="组_4777" data-name="组 4777" transform="translate(111.139 75.839)">
            <g id="组_4776" data-name="组 4776" transform="translate(0 0)">
              <path id="路径_5819" data-name="路径 5819" d="M9911.47,58.837a51.167,51.167,0,0,1-8.218-.664,1.125,1.125,0,0,1,.362-2.221,48.915,48.915,0,0,0,7.855.634,48.425,48.425,0,0,0,48.37-48.37,47.872,47.872,0,0,0-5.028-21.5,1.126,1.126,0,0,1,.507-1.508,1.126,1.126,0,0,1,1.509.507,50.113,50.113,0,0,1,5.263,22.5,50.29,50.29,0,0,1-14.826,35.794A50.291,50.291,0,0,1,9911.47,58.837Z" transform="translate(-9902.309 14.907)" fill="#7f7f7f"/>
            </g>
          </g>
        </g>
        <g id="组_4787" data-name="组 4787" transform="translate(234.75 90.75)">
          <g id="组_4780" data-name="组 4780" transform="translate(4.334 0)">
            <g id="组_4779" data-name="组 4779">
              <path id="路径_5820" data-name="路径 5820" d="M10721.591,70.5a1.125,1.125,0,0,1-.8-1.921l.853-.852a1.125,1.125,0,1,1,1.591,1.591l-.853.853A1.122,1.122,0,0,1,10721.591,70.5Z" transform="translate(-10720.465 -67.398)" fill="#7f7f7f"/>
            </g>
          </g>
          <g id="组_4782" data-name="组 4782" transform="translate(0.071 4.263)">
            <g id="组_4781" data-name="组 4781">
              <path id="路径_5821" data-name="路径 5821" d="M10693.172,98.919a1.125,1.125,0,0,1-.795-1.92l.853-.853a1.125,1.125,0,0,1,1.591,1.591l-.853.852A1.122,1.122,0,0,1,10693.172,98.919Z" transform="translate(-10692.047 -95.816)" fill="#7f7f7f"/>
            </g>
          </g>
          <g id="组_4784" data-name="组 4784" transform="translate(0 0)">
            <g id="组_4783" data-name="组 4783">
              <path id="路径_5822" data-name="路径 5822" d="M10693.55,70.5a1.123,1.123,0,0,1-.8-.33l-.853-.853a1.125,1.125,0,0,1,1.591-1.591l.853.852a1.125,1.125,0,0,1-.795,1.921Z" transform="translate(-10691.572 -67.398)" fill="#7f7f7f"/>
            </g>
          </g>
          <g id="组_4786" data-name="组 4786" transform="translate(4.334 4.334)">
            <g id="组_4785" data-name="组 4785">
              <path id="路径_5823" data-name="路径 5823" d="M10722.372,99.322a1.122,1.122,0,0,1-.8-.33l-.781-.782a1.125,1.125,0,0,1,1.591-1.591l.781.782a1.125,1.125,0,0,1-.795,1.92Z" transform="translate(-10720.465 -96.29)" fill="#7f7f7f"/>
            </g>
          </g>
        </g>
        <g id="组_4796" data-name="组 4796" transform="translate(234.75 174.75)">
          <g id="组_4789" data-name="组 4789" transform="translate(4.334)">
            <g id="组_4788" data-name="组 4788">
              <path id="路径_5824" data-name="路径 5824" d="M10721.591,630.5a1.125,1.125,0,0,1-.8-1.921l.853-.852a1.125,1.125,0,1,1,1.591,1.591l-.853.853A1.122,1.122,0,0,1,10721.591,630.5Z" transform="translate(-10720.465 -627.398)" fill="#7f7f7f"/>
            </g>
          </g>
          <g id="组_4791" data-name="组 4791" transform="translate(0.071 4.263)">
            <g id="组_4790" data-name="组 4790">
              <path id="路径_5825" data-name="路径 5825" d="M10693.172,658.919a1.125,1.125,0,0,1-.795-1.92l.853-.853a1.125,1.125,0,0,1,1.591,1.591l-.853.852A1.122,1.122,0,0,1,10693.172,658.919Z" transform="translate(-10692.047 -655.816)" fill="#7f7f7f"/>
            </g>
          </g>
          <g id="组_4793" data-name="组 4793">
            <g id="组_4792" data-name="组 4792">
              <path id="路径_5826" data-name="路径 5826" d="M10693.55,630.5a1.122,1.122,0,0,1-.8-.33l-.853-.853a1.125,1.125,0,0,1,1.591-1.591l.853.852a1.125,1.125,0,0,1-.795,1.921Z" transform="translate(-10691.572 -627.398)" fill="#7f7f7f"/>
            </g>
          </g>
          <g id="组_4795" data-name="组 4795" transform="translate(4.334 4.334)">
            <g id="组_4794" data-name="组 4794">
              <path id="路径_5827" data-name="路径 5827" d="M10722.372,659.322a1.122,1.122,0,0,1-.8-.33l-.781-.781a1.125,1.125,0,0,1,1.591-1.591l.781.781a1.125,1.125,0,0,1-.795,1.92Z" transform="translate(-10720.465 -656.29)" fill="#7f7f7f"/>
            </g>
          </g>
        </g>
        <g id="组_4805" data-name="组 4805" transform="translate(0 75.9)">
          <g id="组_4798" data-name="组 4798" transform="translate(4.334 0)">
            <g id="组_4797" data-name="组 4797">
              <path id="路径_5828" data-name="路径 5828" d="M9156.591-28.5a1.124,1.124,0,0,1-.8-.33,1.127,1.127,0,0,1,0-1.591l.854-.852a1.125,1.125,0,0,1,1.591,0,1.125,1.125,0,0,1,0,1.591l-.853.853A1.123,1.123,0,0,1,9156.591-28.5Z" transform="translate(-9155.466 31.602)" fill="#7f7f7f"/>
            </g>
          </g>
          <g id="组_4800" data-name="组 4800" transform="translate(0.071 4.263)">
            <g id="组_4799" data-name="组 4799" transform="translate(0 0)">
              <path id="路径_5829" data-name="路径 5829" d="M9128.172-.081a1.122,1.122,0,0,1-.8-.33,1.126,1.126,0,0,1,0-1.591l.853-.853a1.126,1.126,0,0,1,1.592,0,1.125,1.125,0,0,1,0,1.591l-.854.852A1.118,1.118,0,0,1,9128.172-.081Z" transform="translate(-9127.047 3.184)" fill="#7f7f7f"/>
            </g>
          </g>
          <g id="组_4802" data-name="组 4802" transform="translate(0 0)">
            <g id="组_4801" data-name="组 4801">
              <path id="路径_5830" data-name="路径 5830" d="M9128.55-28.5a1.124,1.124,0,0,1-.8-.33l-.853-.853a1.126,1.126,0,0,1,0-1.591,1.126,1.126,0,0,1,1.592,0l.853.852a1.125,1.125,0,0,1,0,1.591A1.123,1.123,0,0,1,9128.55-28.5Z" transform="translate(-9126.572 31.602)" fill="#7f7f7f"/>
            </g>
          </g>
          <g id="组_4804" data-name="组 4804" transform="translate(4.334 4.334)">
            <g id="组_4803" data-name="组 4803" transform="translate(0 0)">
              <path id="路径_5831" data-name="路径 5831" d="M9157.372.322a1.121,1.121,0,0,1-.795-.33l-.782-.782a1.126,1.126,0,0,1,0-1.591,1.126,1.126,0,0,1,1.592,0l.781.782a1.125,1.125,0,0,1,0,1.591A1.122,1.122,0,0,1,9157.372.322Z" transform="translate(-9155.466 2.71)" fill="#7f7f7f"/>
            </g>
          </g>
        </g>
        <g id="组_4814" data-name="组 4814" transform="translate(54.45)">
          <g id="组_4807" data-name="组 4807" transform="translate(4.334)">
            <g id="组_4806" data-name="组 4806">
              <path id="路径_5832" data-name="路径 5832" d="M9519.591-534.5a1.122,1.122,0,0,1-.8-.33,1.125,1.125,0,0,1,0-1.591l.853-.852a1.125,1.125,0,0,1,1.591,0,1.125,1.125,0,0,1,0,1.591l-.853.853A1.12,1.12,0,0,1,9519.591-534.5Z" transform="translate(-9518.465 537.602)" fill="#7f7f7f"/>
            </g>
          </g>
          <g id="组_4809" data-name="组 4809" transform="translate(0.071 4.263)">
            <g id="组_4808" data-name="组 4808">
              <path id="路径_5833" data-name="路径 5833" d="M9491.172-506.081a1.121,1.121,0,0,1-.795-.33,1.125,1.125,0,0,1,0-1.591l.853-.853a1.125,1.125,0,0,1,1.591,0,1.125,1.125,0,0,1,0,1.591l-.853.852A1.122,1.122,0,0,1,9491.172-506.081Z" transform="translate(-9490.047 509.183)" fill="#7f7f7f"/>
            </g>
          </g>
          <g id="组_4811" data-name="组 4811">
            <g id="组_4810" data-name="组 4810">
              <path id="路径_5834" data-name="路径 5834" d="M9491.55-534.5a1.122,1.122,0,0,1-.8-.33l-.853-.853a1.126,1.126,0,0,1,0-1.591,1.126,1.126,0,0,1,1.592,0l.853.852a1.125,1.125,0,0,1,0,1.591A1.122,1.122,0,0,1,9491.55-534.5Z" transform="translate(-9489.572 537.602)" fill="#7f7f7f"/>
            </g>
          </g>
          <g id="组_4813" data-name="组 4813" transform="translate(4.334 4.334)">
            <g id="组_4812" data-name="组 4812">
              <path id="路径_5835" data-name="路径 5835" d="M9520.372-505.678a1.124,1.124,0,0,1-.8-.33l-.781-.781a1.125,1.125,0,0,1,0-1.591,1.125,1.125,0,0,1,1.591,0l.782.781a1.125,1.125,0,0,1,0,1.591A1.122,1.122,0,0,1,9520.372-505.678Z" transform="translate(-9518.465 508.71)" fill="#7f7f7f"/>
            </g>
          </g>
        </g>
        <g id="组_4816" data-name="组 4816" transform="translate(11.27 11.792)">
          <g id="组_4815" data-name="组 4815">
            <path id="路径_5836" data-name="路径 5836" d="M9204.847-453.29a3.123,3.123,0,0,1-2.223-.921,3.147,3.147,0,0,1,0-4.445,1.125,1.125,0,0,1,1.591,0,1.125,1.125,0,0,1,0,1.591.9.9,0,0,0,0,1.263.889.889,0,0,0,.632.262.888.888,0,0,0,.632-.262,1.125,1.125,0,0,1,1.591,0,1.125,1.125,0,0,1,0,1.591A3.122,3.122,0,0,1,9204.847-453.29Z" transform="translate(-9201.705 458.985)" fill="#7f7f7f"/>
          </g>
        </g>
        <g id="组_4818" data-name="组 4818" transform="translate(214.688 119.72)">
          <g id="组_4817" data-name="组 4817" transform="translate(0 0)">
            <path id="路径_5837" data-name="路径 5837" d="M10560.972,266.226a3.143,3.143,0,0,1-2.223-5.366,1.125,1.125,0,0,1,1.591,1.591.893.893,0,0,0,1.264,1.263,1.125,1.125,0,0,1,1.591,1.591A3.123,3.123,0,0,1,10560.972,266.226Z" transform="translate(-10557.828 -260.531)" fill="#7f7f7f"/>
          </g>
        </g>
        <g id="组_4820" data-name="组 4820" transform="translate(214.688 119.72)">
          <g id="组_4819" data-name="组 4819" transform="translate(0 0)">
            <path id="路径_5838" data-name="路径 5838" d="M10560.972,266.226a3.143,3.143,0,0,1-2.223-5.366,1.125,1.125,0,0,1,1.591,1.591.893.893,0,0,0,1.264,1.263,1.125,1.125,0,0,1,1.591,1.591A3.123,3.123,0,0,1,10560.972,266.226Z" transform="translate(-10557.828 -260.531)" fill="#7f7f7f"/>
          </g>
        </g>
        <g id="组_4822" data-name="组 4822" transform="translate(110.852 10.817)">
          <g id="组_4821" data-name="组 4821">
            <path id="路径_5839" data-name="路径 5839" d="M9868.727-459.79a3.123,3.123,0,0,1-2.223-.921,3.147,3.147,0,0,1,0-4.445,1.125,1.125,0,0,1,1.591,0,1.125,1.125,0,0,1,0,1.591.9.9,0,0,0,0,1.263.889.889,0,0,0,.632.262.889.889,0,0,0,.632-.262,1.125,1.125,0,0,1,1.591,0,1.125,1.125,0,0,1,0,1.591A3.122,3.122,0,0,1,9868.727-459.79Z" transform="translate(-9865.585 465.485)" fill="#7f7f7f"/>
          </g>
        </g>
      </g>
    </g>
  </g>
</svg>
