<svg xmlns="http://www.w3.org/2000/svg" width="1148" height="240" viewBox="0 0 1148 240">
  <g id="SweiSpring" transform="translate(0 -721)">
    <g id="组_4854" data-name="组 4854" transform="translate(0 721)">
      <rect id="矩形_3596" data-name="矩形 3596" width="1148" height="240" fill="#313740"/>
      <rect id="矩形_3598" data-name="矩形 3598" width="8" height="124" transform="translate(223.043 36)" fill="#ff6baa"/>
    </g>
    <path id="路径_7099" data-name="路径 7099" d="M0,0H120V240H0Z" transform="translate(1028 721)" fill="#313740"/>
    <path id="路径_7100" data-name="路径 7100" d="M0,0H120V240H0Z" transform="translate(908 721)" fill="#313740"/>
    <path id="路径_7101" data-name="路径 7101" d="M0,0H120V240H0Z" transform="translate(788 721)" fill="#313740"/>
    <path id="路径_7102" data-name="路径 7102" d="M0,0H120V240H0Z" transform="translate(668 721)" fill="#313740"/>
    <path id="路径_7103" data-name="路径 7103" d="M0,0H120V240H0Z" transform="translate(548 721)" fill="#313740"/>
    <path id="路径_7104" data-name="路径 7104" d="M0,0H120V240H0Z" transform="translate(428 721)" fill="#313740"/>
    <path id="路径_7105" data-name="路径 7105" d="M0,0H120V240H0Z" transform="translate(308 721)" fill="#313740"/>
    <path id="路径_7106" data-name="路径 7106" d="M0,0H120V240H0Z" transform="translate(188 721)" fill="#313740"/>
    <path id="路径_7107" data-name="路径 7107" d="M9.68-33.24l2.2,1.72A30.655,30.655,0,0,1,8.04-25.8q2.6,5.12,2.68,13.88Q10.88-1.8,8.68,1.48,7.68,3,5.04,3a2.082,2.082,0,0,0-.6-1.76A5.911,5.911,0,0,0,2.24.32V-.4q2.28.24,3.48.24A1.251,1.251,0,0,0,6.88-.68Q8.36-2.8,8.36-11.88q0-1.96-.04-2.92a26.159,26.159,0,0,1-6.6,7.04l-.44-.48a27.65,27.65,0,0,0,3.88-5.32,29.694,29.694,0,0,0,2.68-6.12,27.919,27.919,0,0,0-1.2-4.6,28.858,28.858,0,0,1-4.88,4.24l-.44-.48a36.016,36.016,0,0,0,4.56-5.64,21.967,21.967,0,0,0-4.04-5.96l.6-.52a21.385,21.385,0,0,1,4.48,4.88A36.38,36.38,0,0,0,9.68-33.24ZM15.16-3.28h3.92v-8.6H15.16Zm3.8-22.96h-3.8v7.68h3.8Zm-.24,13.16h2.64V-.92q-.04.2-.76.52a3.217,3.217,0,0,1-1.2.28h-.32v-2H15.16V.68q0,.28-.56.56a2.616,2.616,0,0,1-1.32.32h-.44V-27.48H15.2a35.3,35.3,0,0,0,1.92-6.04l2.32.72a17.27,17.27,0,0,1-3.16,5.36h5v10.28q-.04.2-.76.52a3.217,3.217,0,0,1-1.2.28h-.36v-1.08h-3.8v4.36Zm19.8-16.08H31.08v5.48h5.6v18.8a4.169,4.169,0,0,1-.56,2.44,3.427,3.427,0,0,1-2.44.96,2.846,2.846,0,0,0-.44-1.76A3.146,3.146,0,0,0,31.36-4v-.68q1.92.16,2.4.16.6,0,.6-.64V-22.48H31.08V2.32q0,.08-.24.24a2.242,2.242,0,0,1-.76.36,2.677,2.677,0,0,1-1.04.2h-.4v-25.6h-3V-2.16q0,.2-.6.48a2.734,2.734,0,0,1-1.24.28h-.4V-23.68h5.24v-5.48H22.68l-.32-1.2H38.52Zm33.92-.88H48.88v5.48H72.44ZM48.88-23.36v2.8q0,2.68-.08,4.68-.08,1.96-.48,4.8A30.964,30.964,0,0,1,47.28-6a26.516,26.516,0,0,1-2,4.72A19.747,19.747,0,0,1,42.2,3.08l-.6-.44a27.256,27.256,0,0,0,3.72-10.2,80.766,80.766,0,0,0,.92-12.96V-31.24h28.8v8.52q-.04.2-.84.52a3.562,3.562,0,0,1-1.36.32h-.4v-1.48ZM76.52-5.32l.12,4.96a2.3,2.3,0,0,1,.96.44.926.926,0,0,1,.28.68q0,.96-1.68,1.28a41.3,41.3,0,0,1-6.92.36H64.32a6.82,6.82,0,0,1-3.48-.6,2.627,2.627,0,0,1-.88-2.32V-5.84L49.08-4.36,48.6-5.44,59.96-7v-4.96l-9.68,1.4-.48-1.12,10.16-1.48v-4.68a94.661,94.661,0,0,1-9.72,1.4l-.16-.72A90.533,90.533,0,0,0,60.2-19.6a71.5,71.5,0,0,0,8.64-3.12l.96,2.56q-2.64.76-7.28,1.8v4.84l7.72-1.12,4.04-.56.16,1.16L62.52-12.32v5l9.92-1.36,4.44-.6L77-8.16,62.52-6.2V-1a.981.981,0,0,0,.36.88,4.8,4.8,0,0,0,1.76.2h4.72q3.44,0,4.48-.12a1.094,1.094,0,0,0,.92-.48A30.29,30.29,0,0,0,76-5.32Zm10.12,1.8h26.6v-7a23.536,23.536,0,0,1-4.4.28h-2.96a4.146,4.146,0,0,1-2.52-.52,2.675,2.675,0,0,1-.6-2v-16H97.12q-.08,2.84-.16,4.56-.08,1.68-.4,3.96a16.37,16.37,0,0,1-.88,3.84,23.933,23.933,0,0,1-1.48,3.2,11.838,11.838,0,0,1-2.4,3.04,18.5,18.5,0,0,1-3.44,2.52l-.56-.68a15.037,15.037,0,0,0,2.4-2.28,17.385,17.385,0,0,0,1.76-2.36,11.469,11.469,0,0,0,1.2-2.76,26.165,26.165,0,0,0,.76-2.88,30.479,30.479,0,0,0,.4-3.2q.16-2,.16-3.32.04-1.32.08-3.64H86.64Zm26.6-25.24H105.2v15.4a.942.942,0,0,0,.2.68,2.045,2.045,0,0,0,1,.16h4.2q.88-.04.96-.04a4.908,4.908,0,0,1,.68-.04q.24-.04.8-.2Zm2.6-1.16V1.16q-.04.24-.8.6a3.041,3.041,0,0,1-1.4.4h-.4V-2.36H86.64V1.96q0,.32-.64.64a2.886,2.886,0,0,1-1.44.36h-.48V-29.92h31.76Zm6.24,15.28-.32-.68a36.679,36.679,0,0,0,14.2-8.6H122.92l-.36-1.2h16.12v-4.24q-7.64.56-13.16.56l-.12-.8q6.08-.48,13.08-1.56t11.32-2.2l2.92,2.96q-.68.56-2.16-.16-4.56.6-9.32,1v4.44h16.2v1.2h-16.2v.64q11.4,1.92,14.8,5.32,1.44,1.44.76,2.28a1.3,1.3,0,0,1-1.6.24,35,35,0,0,0-5.72-3.44,68.928,68.928,0,0,0-8.24-3.48V-17q0,.08-.28.24a3.067,3.067,0,0,1-.76.32,3.79,3.79,0,0,1-1.12.16h-.4v-6.48Q132.84-17.44,122.08-14.64Zm36.04,6.36v1.2H141.28V-.76a3.946,3.946,0,0,1-.8,2.72q-.76.88-3.4,1.16a2.762,2.762,0,0,0-.96-1.92,8.679,8.679,0,0,0-3.56-1V-.4q4.4.32,5.24.32.92,0,.92-.8v-6.2H122.24l-.32-1.2h16.8v-3.4l2.2.24q1.56-.92,4.36-2.88H129.16l-.36-1.16h20.72v1.52q-3.48,1.4-7.36,2.68l.52.04q-.16.8-1.4,1v1.96ZM173.4-.48h13.32v-5H173.4Zm0-11.04v4.84h13.32v-4.84ZM185.8-17H174.64a28.08,28.08,0,0,1-2.72,3.48l-.76.84h17.56l-1.04-1.28A19.862,19.862,0,0,1,185.8-17Zm12.56,0h-11.4A14.743,14.743,0,0,0,192-12.52a26.059,26.059,0,0,0,6.88,2.72l-.08.48a3.14,3.14,0,0,0-2.4,2.04,19.463,19.463,0,0,1-6.48-4.2,2.317,2.317,0,0,0-.52-.52V1.96q0,.16-.84.56a3.3,3.3,0,0,1-1.4.36h-.44V.68H173.4v1.4q0,.12-.28.32a2.236,2.236,0,0,1-.8.4,3.093,3.093,0,0,1-1.12.2h-.48V-12.24a29.478,29.478,0,0,1-8.84,5.96l-.4-.44A30.518,30.518,0,0,0,171.92-17h-9.68l-.32-1.2h10.64a39.308,39.308,0,0,0,2.04-4.24h-8.52l-.32-1.2h9.28q.92-2.88,1.24-4.04H164.2l-.32-1.2h12.68q.48-1.88.92-4.8l2.84.88a30.213,30.213,0,0,1-.68,3.92h17.08v1.2h-17.4a39.86,39.86,0,0,1-1.28,4.04h16.48v1.2H177.56a38.823,38.823,0,0,1-2.2,4.24h23Z" transform="translate(68 798)" fill="#fff"/>
    <path id="路径_7108" data-name="路径 7108" d="M-15.76-16.34l.22-.16q2.2.64,2.68,1.92a.956.956,0,0,1-.18,1.18.7.7,0,0,1-.96-.04,3.681,3.681,0,0,0-.6-1.54A5.37,5.37,0,0,0-15.76-16.34Zm2.12,6.2V-7.6h7.32v-2.54Zm8.66,5.18H-3.5v3.8A1.8,1.8,0,0,1-3.9.12,2.694,2.694,0,0,1-5.6.68,1.268,1.268,0,0,0-6-.26a3.784,3.784,0,0,0-1.7-.5v-.3q1.98.14,2.46.14.46,0,.46-.38V-4.36H-9.4V1q0,.06-.14.18a1.091,1.091,0,0,1-.4.22,1.32,1.32,0,0,1-.56.12h-.2V-4.36h-4.48V.28q0,.1-.36.26a1.76,1.76,0,0,1-.72.16h-.2V-4.96h5.76V-7.04h-2.94v.58q0,.1-.36.26a1.76,1.76,0,0,1-.72.16h-.2v-4.68h9.9v4.04q-.02.1-.42.26a1.9,1.9,0,0,1-.68.16h-.2v-.78H-9.4v2.08Zm3.4-8.1v.8a10.7,10.7,0,0,1-2.2,2l-.28-.16a15.567,15.567,0,0,0,.86-2.06H-16.28a3.764,3.764,0,0,1-.34,1.66A2.621,2.621,0,0,1-17.4-9.8a1.3,1.3,0,0,1-.82.3.643.643,0,0,1-.62-.34q-.3-.64.48-1.08a2.945,2.945,0,0,0,1.08-1.24,3.788,3.788,0,0,0,.44-1.86h.36a9.245,9.245,0,0,1,.18.96h5.62v-3.46h1.32v3.46H-7.7a31.938,31.938,0,0,0,1.9-3.5l1.22.82a13,13,0,0,1-2.56,2.68h5.56ZM9.08-7.76H5.36a19.756,19.756,0,0,1-.22,2.34A5.517,5.517,0,0,1,8.38-2.86q.38.9-.06,1.36-.36.38-.92-.02A7.18,7.18,0,0,0,5.04-4.96a9.856,9.856,0,0,1-3.98,6.5L.78,1.28A9.258,9.258,0,0,0,3.26-2.58a18.1,18.1,0,0,0,.82-5.18H1.02l-.14-.6H4.1v-3.9H1.4l-.16-.58H4.1v-3.64H5.38v3.64h3.3v.58H5.38v3.9h3.7Zm1.76-.56v2.7H16.6v-2.7Zm5.76-6.44H10.84v2.6H16.6Zm0,5.84v-2.64H10.84v2.64Zm2.22,6.3L18.88-.1a.6.6,0,0,1,.44.56.647.647,0,0,1-.52.62,6.242,6.242,0,0,1-1.94.2h-1.2a1.664,1.664,0,0,1-1.12-.26A1.243,1.243,0,0,1,14.28.1V-5.04h-1.4A7.522,7.522,0,0,1,11.24-.78a8.512,8.512,0,0,1-4.2,2.34l-.1-.3A7.861,7.861,0,0,0,10.32-1.2a7.789,7.789,0,0,0,1.24-3.84h-.72v.72q0,.06-.12.16a1.533,1.533,0,0,1-.38.16,1.7,1.7,0,0,1-.54.08H9.6V-15.34h8.28V-4.7q0,.04-.14.14a1.415,1.415,0,0,1-.4.18,1.826,1.826,0,0,1-.54.08h-.2v-.74H15.52V-.2q0,.18.06.22a.689.689,0,0,0,.36.06h1.82a.324.324,0,0,0,.28-.24,19.086,19.086,0,0,0,.52-2.46Z" transform="translate(608 802)" fill="#fff"/>
    <path id="路径_7109" data-name="路径 7109" d="M-17.84-3.82h.38a7.981,7.981,0,0,1,.16,2.54A3.471,3.471,0,0,1-17.86.28a1.393,1.393,0,0,1-.62.42.482.482,0,0,1-.56-.12A.5.5,0,0,1-19.12.1a1.225,1.225,0,0,1,.32-.5,3.81,3.81,0,0,0,.74-1.46A5.257,5.257,0,0,0-17.84-3.82Zm1.9-.34.32-.06A4.122,4.122,0,0,1-14.6-1.04q-.14.78-.6.86a.543.543,0,0,1-.5-.26A9.4,9.4,0,0,0-15.94-4.16Zm1.96-.36.26-.1a3.754,3.754,0,0,1,1.74,2.66q.04.76-.4.94a.527.527,0,0,1-.6-.2A6.767,6.767,0,0,0-13.98-4.52Zm-1.24-12.16.92.84a20.181,20.181,0,0,1-3.6,5q1.56.04,3.22-.02a18.314,18.314,0,0,0,1.34-2.16l.8,1.02a17.907,17.907,0,0,1-2.32,3,32.752,32.752,0,0,1-2.88,2.78q2.44-.16,4.58-.36a12.028,12.028,0,0,0-.98-2.18l.28-.1a4.357,4.357,0,0,1,1.92,2.92q.06.76-.38.94a.532.532,0,0,1-.56-.18,6.124,6.124,0,0,0-.18-1q-3,.72-4.86,1.12a.839.839,0,0,1-.48.38l-.6-1.6a1.176,1.176,0,0,0,.52-.16,20.719,20.719,0,0,0,3.44-3.86q-2.3.5-2.9.62a1.051,1.051,0,0,1-.44.36l-.64-1.6a1.612,1.612,0,0,0,.48-.16,12.919,12.919,0,0,0,1.82-2.58A23.2,23.2,0,0,0-15.22-16.68ZM-6.06-.74h3.2v-6.6h-3.2Zm-4.16-6.6v6.6h3.14v-6.6Zm3.14-6.72h-3.14v6.12h3.14Zm4.22,0h-3.2v6.12h3.2Zm1.02-.6V.78q0,.04-.12.12a1.144,1.144,0,0,1-.34.18,1.07,1.07,0,0,1-.4.08h-.16V-.16h-7.36V1.02q0,.04-.1.12a.879.879,0,0,1-.32.18,1.174,1.174,0,0,1-.44.08h-.14V-14.66h9.38Zm5.44-.18v4.74H4.72v-3h2v-1.74ZM5.58-10.1H6.72v-2.4H5.58Zm6.52-3.84H10.6v1.76h1.5Zm2.36,0H12.98v1.76h1.48Zm2.48,0h-1.6v1.76h1.6ZM15.34-9.7h1.6v-1.9h-1.6Zm-2.36-1.9v1.9h1.48v-1.9ZM12.1-9.7v-1.9H10.6v1.9Zm-4.18.18H2.32a2.441,2.441,0,0,1-.44,1.48.9.9,0,0,1-.5.28A.459.459,0,0,1,.9-7.92q-.28-.44.26-.9a1.6,1.6,0,0,0,.46-.8A2.958,2.958,0,0,0,1.8-10.7l.36.02a3.418,3.418,0,0,1,.12.58h.38v-5.34h5v5.34l.8-.64L9.62-9.6v-4.94H12.1v-2h.88v2h1.48v-2h.88v2h2.58v5.6q0,.08-.28.22,1.06.86,1.34,1.14-.06.32-.48.32H8.98l-.16-.6h8.02l.66-.8a1.355,1.355,0,0,1-.42.08h-.14V-9.1H10.6v.36q0,.06-.1.14a2.22,2.22,0,0,1-.3.14,1.527,1.527,0,0,1-.44.06H9.62V-9.56a1.568,1.568,0,0,1-.72.16,7.819,7.819,0,0,1-1,1.32l-.3-.14q.02-.12.14-.58ZM3.62-5.64v.94a16.947,16.947,0,0,1-.08,1.72Q4.72-3.32,6.6-4.02V-7.3H3.62v1.26q2.16-.06,2.66.72.24.4-.1.58a.5.5,0,0,1-.4.04A13.056,13.056,0,0,0,3.62-5.64ZM7.56-7.9V.06a1.347,1.347,0,0,1-.3.98,1.872,1.872,0,0,1-1.22.4.825.825,0,0,0-.3-.56A3.946,3.946,0,0,0,4.46.56V.24Q5.88.36,6.2.36q.4,0,.4-.38V-3.58Q4.72-2.36,4.5-2.24a.633.633,0,0,1-.32.48L3.54-2.94A6.181,6.181,0,0,1,1.18,1.52L.9,1.24A5.619,5.619,0,0,0,2.28-1.32a14.573,14.573,0,0,0,.34-3.36V-7.9H7.56Zm3.68,4.66H15.9V-5.58H11.24ZM19.22.08v.6H8.44L8.28.08h5.86A14.944,14.944,0,0,0,15.2-2.46l.7.22v-.4H11.24v.26q1.54.76,1.62,1.72a.629.629,0,0,1-.38.72.647.647,0,0,1-.64-.18,6.379,6.379,0,0,0-.76-1.98,1.5,1.5,0,0,1-.68.16h-.16V-6.18h6.7v3.72q0,.04-.1.1a1.645,1.645,0,0,1-.24.14,1.549,1.549,0,0,1-.56.1v.52A13.734,13.734,0,0,1,14.74.08Z" transform="translate(488 801)" fill="#fff"/>
    <path id="路径_7110" data-name="路径 7110" d="M-12.32-12.84l-.16-.58h4.76v-3.36l1.26.2v3.16H-.88v.58H-6.46v3.12H-1.3v.6H-11.52l-.16-.6h3.96v-3.12Zm.88,4.8.08.3q-.44.22-1.42.72t-1.5.76V1.06q0,.16-.34.32a1.33,1.33,0,0,1-.66.18h-.26V-5.62q-.52.24-2.22,1.06a.721.721,0,0,1-.4.5l-.88-1.64q.7-.16,3.5-1.04V-11.2h-1.8a17.3,17.3,0,0,1-1.54,4.12l-.34-.16a30.476,30.476,0,0,0,1.2-7.54l1.24.32q-.2,1.66-.42,2.66h1.66v-4.66h1.26v4.66h3.12v.6h-3.12v4.08ZM-.46-6.42v.58H-4.18V-.18a1.625,1.625,0,0,1-.44,1.26,3.135,3.135,0,0,1-1.8.56A1.22,1.22,0,0,0-6.9.8a6.921,6.921,0,0,0-2-.46V.04Q-6.48.2-5.98.2A.668.668,0,0,0-5.56.1a.421.421,0,0,0,.12-.34v-5.6h-7.28l-.16-.58h7.44v-1.9h1.26v1.9Zm-10.7,1.4.22-.14A5.062,5.062,0,0,1-7.9-2.78q.32.82-.1,1.2-.36.34-.9-.04A9.49,9.49,0,0,0-11.16-5.02ZM2.18-3.84h.38a7.506,7.506,0,0,1,.22,2.6A3.348,3.348,0,0,1,2.24.34a1.116,1.116,0,0,1-.68.4A.568.568,0,0,1,.94.58.688.688,0,0,1,.86.02a1.22,1.22,0,0,1,.38-.54,3.624,3.624,0,0,0,.72-1.44A4.85,4.85,0,0,0,2.18-3.84ZM4-4.14l.32-.08A4.033,4.033,0,0,1,5.48-1.08q-.14.82-.62.94a.587.587,0,0,1-.64-.28A9.189,9.189,0,0,0,4-4.14ZM5.96-4.5l.24-.12A3.721,3.721,0,0,1,8.06-2q.06.8-.44,1.02a.616.616,0,0,1-.72-.2A6.145,6.145,0,0,0,5.96-4.5ZM4.66-16.72l1.12.92A20.744,20.744,0,0,1,2.1-10.9q1.36.04,3.18,0a14.6,14.6,0,0,0,1.28-2.18l.96,1.16A18.685,18.685,0,0,1,5.18-8.96,32.739,32.739,0,0,1,2.3-6.28q1.62-.08,4.44-.32a10.628,10.628,0,0,0-.92-2.12l.28-.1A4.208,4.208,0,0,1,8.1-6q.08.8-.38,1.04A.616.616,0,0,1,7-5.16,4.123,4.123,0,0,0,6.84-6.2q-2.92.82-4.78,1.24a.976.976,0,0,1-.48.4L.96-6.32a1.1,1.1,0,0,0,.52-.18,17.975,17.975,0,0,0,3.38-3.82q-1.38.4-2.78.68a.9.9,0,0,1-.44.4L.96-10.98a1.443,1.443,0,0,0,.48-.18,11.864,11.864,0,0,0,1.8-2.56A20.745,20.745,0,0,0,4.66-16.72ZM14.04-.74h2.98V-7.36H14.04ZM9.92-7.36V-.74h2.94V-7.36Zm2.94-6.72H9.92v6.12h2.94Zm4.16,0H14.04v6.12h2.98Zm1.2-.58V.74q0,.04-.14.14a1.393,1.393,0,0,1-.38.2,1.287,1.287,0,0,1-.5.1h-.18V-.14H9.92V.98q0,.06-.12.14a.892.892,0,0,1-.36.18,1.338,1.338,0,0,1-.52.1H8.74V-14.66h9.48Z" transform="translate(368 801)" fill="#fff"/>
    <path id="路径_7111" data-name="路径 7111" d="M-16.3-13.94l-.16-.58h5.78q-.16-.1-.2-.12a2.829,2.829,0,0,0-.46-1.08,4.732,4.732,0,0,0-.78-1l.2-.12a3.855,3.855,0,0,1,1.76.76q.62.52.52.92a1.262,1.262,0,0,1-.36.64h6.14v.58ZM-11.74-3.8h2.8V-6.02h-2.8Zm3.02,1.28h-.22V-3.2h-2.8v.78q0,.08-.3.22a1.605,1.605,0,0,1-.6.12h-.16V-6.62h2.04v-1.8h-2.78l-.16-.6h2.94v-1.4l1.08.2v1.2h3.1v.6h-3.1v1.8h1.8v3.76a.807.807,0,0,1-.32.22A1.232,1.232,0,0,1-8.72-2.52Zm3.62-7.96V-2.4a1.7,1.7,0,0,1-.34,1.16A2.451,2.451,0,0,1-6.9-.76a1.073,1.073,0,0,0-.34-.76,3.248,3.248,0,0,0-1.4-.4v-.32q1.58.12,1.94.12.4,0,.4-.38v-8.24h-7.92v9.42q0,.1-.32.26a1.678,1.678,0,0,1-.68.14h-.2v-10.4h3.02a1.055,1.055,0,0,1-.32-.2,3.491,3.491,0,0,0-.88-2.1l.22-.12a3.432,3.432,0,0,1,1.56.88,1.138,1.138,0,0,1,.38.98.693.693,0,0,1-.48.56h2.84a16.175,16.175,0,0,0,.78-2.42l1.28.5a5.734,5.734,0,0,1-1.46,1.92H-5.1Zm-15.64-5.94.22-.16a3.828,3.828,0,0,1,2.56,2.08.958.958,0,0,1-.18,1.16q-.4.34-.92-.08a4.428,4.428,0,0,0-.6-1.56A7,7,0,0,0-20.74-16.42Zm4.22,9v.66A9.887,9.887,0,0,1-18.78-2.4a.875.875,0,0,1,.34.22A6.031,6.031,0,0,0-15.42-.56a25.994,25.994,0,0,0,5.1.38q4.46,0,6.98-.12l.02.28A1.149,1.149,0,0,0-4.34,1h-6.38A17.369,17.369,0,0,1-15.66.46,6.716,6.716,0,0,1-18.7-1.62q-.36-.38-.58,0-.84,1.4-1.4,2.52a.308.308,0,0,1-.06.4L-21.88,0q.3-.26,1.18-1.14a16.155,16.155,0,0,1,1.22-1.12,11.453,11.453,0,0,0,1.74-4.58H-20.6v-.82a33.1,33.1,0,0,0,2.06-3.5h-2.92l-.16-.6h4.22v.84q-.92,1.64-2.1,3.5h2.98ZM8.02-6.7h5.82v-5.28H8.02ZM.86-6.7H6.68v-5.28H.86ZM15.2-12.56v7.7q-.02.1-.42.26a1.965,1.965,0,0,1-.72.16h-.22V-6.1H8.02V1.02q0,.16-.36.34a1.471,1.471,0,0,1-.72.2H6.68V-6.1H.86v1.44q0,.12-.36.28a1.8,1.8,0,0,1-.74.16h-.2v-8.34H6.68v-3.98H8.02v3.98H15.2Z" transform="translate(728 801)" fill="#fff"/>
    <path id="路径_7112" data-name="路径 7112" d="M-13.46-7.68l-.26-.18a19.965,19.965,0,0,0,1.84-4.1,24.842,24.842,0,0,0,1.14-4.94l2.08.66a17.436,17.436,0,0,1-1.06,3.38h8.36v1A20.614,20.614,0,0,1-2.72-9.54,15.113,15.113,0,0,1-4.38-7.46L-4.6-7.6a31.7,31.7,0,0,0,1.14-4.68H-9.98A13.34,13.34,0,0,1-13.46-7.68Zm.8-4.86H-18.8l-.16-.58h6.3Zm1.14,7.88v.58h-7.64l-.16-.58Zm2.64-5.64H-6.9q-.04.86-.06,1.08A11.969,11.969,0,0,0-5.1-3.98,10.032,10.032,0,0,0-.62-.54L-.64-.3A2.086,2.086,0,0,0-2.4,1.64Q-6.36-.78-7.18-7.66a15.706,15.706,0,0,1-.5,2.1,10.072,10.072,0,0,1-.92,2,8.3,8.3,0,0,1-1.5,1.92A12.721,12.721,0,0,1-12.4.08a19.3,19.3,0,0,1-3.24,1.6l-.22-.32A19.015,19.015,0,0,0-13.54-.22a14.6,14.6,0,0,0,1.72-1.6,9.7,9.7,0,0,0,1.24-1.72,12.338,12.338,0,0,0,.82-1.72,10.776,10.776,0,0,0,.48-1.86q.2-1.04.28-1.86Q-8.92-9.82-8.88-10.3ZM6.3-10.48l-.32-.14q.5-1.64,1.22-4.82l1.44.78A28.035,28.035,0,0,1,6.3-10.48ZM.96-15.14l.26-.1a5.34,5.34,0,0,1,2.36,3.4,1.3,1.3,0,0,1-.46,1.38q-.48.32-1.04-.24A12.521,12.521,0,0,0,.96-15.14ZM9.14-8.98H5.7V1.12q0,.14-.46.34a2.077,2.077,0,0,1-.9.22H3.98V-7.06H3.84A50,50,0,0,1,.88-1.52L.56-1.68q.86-2.88,1.76-6.56l1.66.58V-8.98H.86L.7-9.56H3.98v-7.36l1.72.26v7.1H9.14ZM5.82-7.82l.26-.1a5.182,5.182,0,0,1,2.5,3.28,1.451,1.451,0,0,1-.42,1.5q-.54.36-1.14-.24A11.45,11.45,0,0,0,5.82-7.82Zm5.52,3.26V.2h4.02V-4.56ZM15.36-14.7H11.34v4.36h4.02ZM11.34-9.76v4.62h4.02V-9.76ZM17.18.2h1.76V.78H7.66L7.5.2H9.58V-15.28h7.6V.2Z" transform="translate(848 801)" fill="#fff"/>
    <path id="路径_7113" data-name="路径 7113" d="M-19.18-15.18l.24-.1a5.01,5.01,0,0,1,2.48,3.3,1.488,1.488,0,0,1-.5,1.54q-.62.44-1.3-.26A12.26,12.26,0,0,0-19.18-15.18ZM-10.78-9h-3.38V1.12q0,.16-.56.38a2.823,2.823,0,0,1-1.12.24h-.42V-6.7a37.708,37.708,0,0,1-2.96,5.26l-.3-.14q.8-3.12,1.58-6.8l1.68.6V-9h-2.96l-.16-.56h3.12V-17l2.1.28v7.16h3.38Zm-3.36,1.12.24-.08a5.076,5.076,0,0,1,2.62,3.24,1.58,1.58,0,0,1-.44,1.64q-.64.5-1.36-.2A13.727,13.727,0,0,0-14.14-7.88ZM-8.38-4.6V.26h3.46V-4.6Zm3.46-10.16H-8.38v4.4h3.46Zm0,9.6V-9.78H-8.38v4.62ZM-2.7.26H-.96V.84H-12.3l-.16-.58h1.96v-14.8a.714.714,0,0,1-.74.34,34.536,34.536,0,0,1-2.48,3.74l-.3-.14q.56-2.24,1.06-4.88l2.46.9v-.76h7.8V.26ZM4.06-5.72v1.18q0,.78-.04,1.2.5-.16,2.22-.74v-.8a.845.845,0,0,1-.9.2A4.969,4.969,0,0,0,4.06-5.72ZM6.24-7.24H4.06v1.02q1.62-.24,2.18.38ZM3.86-15.02v4.74h.7v-3H6.34v-1.74ZM5.62-12.7v2.42h.72V-12.7Zm6.56-1.38h-.86v1.92h.86Zm2.12,0h-.86v1.92h.86Zm2.12,0h-.86v1.92h.86Zm-.86,4.44h.86v-1.94h-.86Zm-2.12-1.94v1.94h.86v-1.94ZM12.18-9.64v-1.94h-.86v1.94ZM8-7.8V-.5a2.275,2.275,0,0,1-.42,1.52,2.686,2.686,0,0,1-1.76.6A2.192,2.192,0,0,0,5.52.44,1.833,1.833,0,0,0,4.36-.12v-.3q1.22.1,1.54.1.34,0,.34-.36V-3.24Q5.4-2.3,5.08-1.92a.685.685,0,0,1-.42.52l-.7-1.44A5.952,5.952,0,0,1,.94,1.74L.74,1.5a5.5,5.5,0,0,0,1-1.9,9.124,9.124,0,0,0,.4-1.98q.08-.86.08-2.18V-8.48a1.148,1.148,0,0,1-.34.56.867.867,0,0,1-.74.2.754.754,0,0,1-.62-.44.854.854,0,0,1,.02-.7,1.317,1.317,0,0,1,.54-.54,1.586,1.586,0,0,0,.44-.74,1.566,1.566,0,0,0,.04-.92l.32.02a3.908,3.908,0,0,1,.26.76h.22V-15.6H7.88v5.06h1.7v-4.1h2.6v-2.28l1.26.2v2.08h.86v-2.28l1.26.2v2.08h2.7v5.48q0,.08-.48.28.9.68,1.48,1.18-.08.32-.54.32H9.18l-.16-.58h7.36l.64-.78a1.325,1.325,0,0,1-.28.02h-.32v-.36h-5.1v.2q0,.08-.16.2a2.111,2.111,0,0,1-.52.2,3.594,3.594,0,0,1-.78.08H9.58V-9.52a2.514,2.514,0,0,1-.4.04q-.8.94-1.24,1.38l-.28-.14q.02-.2.06-.72.06-.54.08-.76H2.28A2.814,2.814,0,0,1,2.26-8.6l2.08.8H8Zm4.1,4.92v.38q0,.12-.32.24a3.356,3.356,0,0,1,.94.6,1.52,1.52,0,0,1,.46.62,1.118,1.118,0,0,1,.08.58.788.788,0,0,1-.22.46.961.961,0,0,1-.44.28h1.62a18.623,18.623,0,0,0,.88-2.9l.38.12v-.38ZM15.48-5.7H12.1v2.24h3.38ZM19.54.28V.86H8.46L8.3.28h3.72a1.41,1.41,0,0,1-.58-.36,5.444,5.444,0,0,0-.38-2,4.474,4.474,0,0,1-.54.04h-.34V-6.28H17.5v3.54q0,.04-.18.14a2.111,2.111,0,0,1-.52.2,4.608,4.608,0,0,1-.78.1l.72.5A10.2,10.2,0,0,1,14.86.28Z" transform="translate(968 801)" fill="#fff"/>
    <path id="路径_7114" data-name="路径 7114" d="M-11.94-12.88l-.16-.56h3.76v-3.68l2.8.28v3.4H-.58v.56H-5.54v3.06h4.42v.56H-11.28l-.16-.56h3.1v-3.06Zm-4.96,1h.78v-2.16a1.483,1.483,0,0,1-.3.06Q-16.64-12.9-16.9-11.88Zm5.78,3.36.04.18q-1.1.96-2.36,1.86V.92q0,.24-.74.58a3.158,3.158,0,0,1-1.42.36h-.52v-6.5q-.68.44-1.04.68a.79.79,0,0,1-.52.56l-1.78-3q.7-.14,3.34-.8v-4.12h-.94a14.236,14.236,0,0,1-2,4.28l-.3-.14A43.229,43.229,0,0,0-18.84-15l2.72.44v-2.48l2.68.34v4.1h2.02v1.28h-2.02v3.44q.42-.12,1.2-.32Q-11.44-8.42-11.12-8.52Zm7.2,1.94H-.86V-6H-3.92v4.88A4.07,4.07,0,0,1-4.16.44a2.026,2.026,0,0,1-1.08.98,6.805,6.805,0,0,1-2.38.52A2.829,2.829,0,0,0-8.24.12a4.2,4.2,0,0,0-2.18-.9v-.24q2.76.16,3.26.16.42,0,.42-.36V-6h-5.68l-.16-.56h5.84V-9.1l2.82.3Zm-7.7.92.16-.1q3,.48,3.8,2.02a1.485,1.485,0,0,1-.1,1.7,1.3,1.3,0,0,1-1.52.46A2.115,2.115,0,0,1-9.9-1.9,10.482,10.482,0,0,0-11.62-5.66ZM5.96-8l.14-.04A5.1,5.1,0,0,1,8.88-4.8,1.773,1.773,0,0,1,8.44-3,1.061,1.061,0,0,1,6.96-3a1.462,1.462,0,0,1-.26-.24,12.991,12.991,0,0,0-.74-4.42v8.8q0,.1-.3.26a2.876,2.876,0,0,1-.8.3,3.284,3.284,0,0,1-.92.14H3.42V-5.88a36.361,36.361,0,0,1-2.8,4.6L.34-1.42q.68-3.22,1.44-6.52H3.42V-8.98H.62L.46-9.54H3.42v-1.78a1.3,1.3,0,0,1-.82,1.06,1.235,1.235,0,0,1-1.3-.46,11.967,11.967,0,0,0-.68-4.5l.24-.08a4.807,4.807,0,0,1,2.56,3.12v-4.96l2.54.32v7.28H9.28v.56H5.96Zm6,3.38V.36h2.8V-4.62Zm2.8-10.2h-2.8v4.48h2.8Zm0,9.64v-4.6h-2.8v4.6ZM17.42.14h1.74V.92H7.78L7.62.36h1.8v-14.5a1.114,1.114,0,0,1-.48.08A35.408,35.408,0,0,1,6.26-10.4l-.28-.14q.34-1.78.88-4.02H9.42v-.82h8V.14Z" transform="translate(1088 801)" fill="#fff"/>
    <g id="组_4853" data-name="组 4853" transform="translate(0 905)">
      <rect id="矩形_3599" data-name="矩形 3599" width="1148" height="56" fill="#ff6baa"/>
      <path id="路径_7124" data-name="路径 7124" d="M-91.1-17.928h11.5v1.848L-85.848,0h-3.168l-.24-.24,8.064-14.712H-91.1ZM-54.384-5.4v2.76h1.272l1.176-1.536h-.792V-5.4Zm-4.56-.672h1.44V-8.88h-1.44Zm-6.1-6.072v1.7a5.552,5.552,0,0,1,3.1,2.04v-3.744Zm0-4.44v3.768l1.368-1.968q.936.84,1.728,1.632v.288h4.44v-1.92h-5.352l-.192-.672H-57.5V-17.04q-1.3.048-3.888.048a2.112,2.112,0,0,1-1.488-.072Q-63.888-16.8-65.04-16.584ZM-57.5-9.552v-2.64h-1.44v2.64Zm4.776-2.64h-1.656v2.64h1.656Zm0,6.12V-8.88h-1.656v2.808ZM-48.072.744v.672H-63.36l-.192-.672H-57.5V-1.968h-4.68l-.192-.672H-57.5V-5.4h-1.44v.744q0,.24-.84.6a4.613,4.613,0,0,1-1.728.336h-.432V-6.264A1.366,1.366,0,0,1-63-5.736a1.91,1.91,0,0,1-1.3-.552,9.47,9.47,0,0,0-.744-3.48V1.392q0,.12-.312.312a3.68,3.68,0,0,1-.912.384,4.464,4.464,0,0,1-1.32.192h-.576V-5.448a18.792,18.792,0,0,1-3.312,3.576l-.264-.24a28.808,28.808,0,0,0,3.264-10.032h-2.784l-.192-.672h3.288V-16.1q-1.7.168-3.432.288l-.048-.24A28.768,28.768,0,0,0-67.9-18.048a23.949,23.949,0,0,0,3.1-2.184l3.192,2.712a53.1,53.1,0,0,0,9.336-2.952l1.416,2.976q-1.608.168-3.528.312v1.728h6v.672h-6v1.92h4.776V-4.9q-.024.1-.552.312a7.738,7.738,0,0,1-1.128.312q1.512,1.176,2.3,1.92-.072.384-.648.384h-4.752V.744Zm22.56-17.064v1.392a18.166,18.166,0,0,1-3.576,2.352l.744.624a1.512,1.512,0,0,1-.96.336,30.783,30.783,0,0,1-4.32,2.208l.192.024q-.072.528-.816.624v1.992H-24.7V-6.1h-9.552V-1.56A5.943,5.943,0,0,1-34.416,0a2.556,2.556,0,0,1-.624,1.152,3.106,3.106,0,0,1-1.44.816,11.645,11.645,0,0,1-2.424.408A4.256,4.256,0,0,0-39.7-.048a5.008,5.008,0,0,0-2.688-1.176v-.288q3.432.216,4.056.216.48,0,.48-.432V-6.1h-9l-.192-.672h9.192V-9.744l2.784.216A21.158,21.158,0,0,0-33.192-12.1H-42.6l-.216-.672h13.344q.264-1.464.384-2.88H-43.224a4.913,4.913,0,0,1-.144,2.4,2.6,2.6,0,0,1-1.08,1.464,1.8,1.8,0,0,1-1.656.168,1.877,1.877,0,0,1-1.248-1.272,1.939,1.939,0,0,1,.168-1.512,2.631,2.631,0,0,1,1.2-1.032,4.033,4.033,0,0,0,1.248-1.008,2.029,2.029,0,0,0,.576-1.392h.264a8.932,8.932,0,0,1,.528,1.512h7.224a3,3,0,0,1-.96-.48,4.694,4.694,0,0,0-.384-1.968,4.173,4.173,0,0,0-1.1-1.56l.12-.12q3.816-.216,4.824,1.368a1.613,1.613,0,0,1-.1,1.968,2.184,2.184,0,0,1-1.128.792h9.36ZM-10.344-5.376v2.544h3.336l1.3-1.608a3.46,3.46,0,0,1-.84.1h-.6V-5.376Zm-6.576-.672H-13.9V-8.616H-16.92ZM-13.9-11.76H-16.92v2.472H-13.9Zm6.744,0h-3.192v2.472h3.192Zm0,5.712V-8.616h-3.192v2.568ZM-.624.624V1.3H-23.16l-.192-.672H-13.9V-2.16H-21.24l-.192-.672H-13.9V-5.376H-16.92v.528q0,.264-1.008.672a5.1,5.1,0,0,1-1.968.408h-.5v-8.664h6.5v-2.136H-22.7l-.192-.672h9v-1.776q-4.1.144-7.68.048l-.024-.36q3.936-.48,8.376-1.416a58.357,58.357,0,0,0,7.032-1.848l2.856,2.928q-.48.408-1.68-.1-2.04.288-5.328.528v1.992H-1.1v.672h-9.24v2.136h6.72v7.176q-.048.24-1.272.624,2.064,1.512,2.76,2.088-.1.384-.7.384h-7.512V.624Z" transform="translate(1112 38)" fill="#fff"/>
    </g>
    <path id="路径_7115" data-name="路径 7115" d="M10.68-16.96l1.72.64a16.771,16.771,0,0,1,6.2,3.76,7.251,7.251,0,0,1,1.8,5.04,7.159,7.159,0,0,1-2.82,5.96,11.523,11.523,0,0,1-7.3,2.2A15.019,15.019,0,0,1,1.96-1.68l.2-6H4.2L5.16-2.4a9.7,9.7,0,0,0,4.92,1.24A8.631,8.631,0,0,0,15.4-2.64a4.952,4.952,0,0,0,1.96-4.2,4.586,4.586,0,0,0-1.32-3.42,14.044,14.044,0,0,0-4.52-2.58l-1.64-.64a14.854,14.854,0,0,1-5.44-3.48A7.158,7.158,0,0,1,2.56-22a6.9,6.9,0,0,1,2.68-5.74A10.627,10.627,0,0,1,12-29.84a11.637,11.637,0,0,1,7.04,2.28l-.2,5.6H16.72l-.96-5.08a7.363,7.363,0,0,0-3.84-1A7.3,7.3,0,0,0,7.34-26.7,4.58,4.58,0,0,0,5.6-22.84Q5.6-18.92,10.68-16.96Zm43.68-3.6v1.4l-2.52.48L45.52.28H44.16Q40-10.84,38.32-16.08L32.36.28H31.04L24.08-18.76l-2.6-.4v-1.4h9.56v1.4l-3.52.44L32.4-4.16l5.24-14.52-3.32-.48v-1.4h9.16v1.4l-3.36.48L45.48-4.16l4.4-14.48-3.48-.52v-1.4Zm4.88,8.52H68.6a2.162,2.162,0,0,0,1.7-.54,2.446,2.446,0,0,0,.46-1.62,5.287,5.287,0,0,0-1.48-3.74,4.882,4.882,0,0,0-3.72-1.58,5.525,5.525,0,0,0-4.16,1.94A9.27,9.27,0,0,0,59.24-12.04Zm14.24,1.56L59.2-10.52q.04,4.28,2.06,6.56A6.787,6.787,0,0,0,66.6-1.68,7.911,7.911,0,0,0,72.88-4.8l.84.64A8.75,8.75,0,0,1,65.6.56a9.119,9.119,0,0,1-6.98-2.84q-2.66-2.84-2.66-7.88a11.089,11.089,0,0,1,2.86-7.92,9.176,9.176,0,0,1,6.94-3.04,7.835,7.835,0,0,1,5.76,2.22,7.988,7.988,0,0,1,2.24,5.94A8.314,8.314,0,0,1,73.48-10.48ZM84.24-27.2a2.519,2.519,0,0,1-1.8.68,2.519,2.519,0,0,1-1.8-.68,2.312,2.312,0,0,1-.72-1.76,2.312,2.312,0,0,1,.72-1.76,2.519,2.519,0,0,1,1.8-.68,2.572,2.572,0,0,1,1.84.68A2.312,2.312,0,0,1,85-28.96,2.252,2.252,0,0,1,84.24-27.2ZM84.12-1.8l3.16.52V0H77.52V-1.28l3.44-.52q.08-4.4.08-7.32v-2.24q0-4.08-.08-6.08l-3.68-.24V-19l6.28-2.08.6.4L84.04-15v5.88Q84.04-6.2,84.12-1.8ZM99.56-16.96l1.72.64a16.771,16.771,0,0,1,6.2,3.76,7.251,7.251,0,0,1,1.8,5.04,7.159,7.159,0,0,1-2.82,5.96,11.523,11.523,0,0,1-7.3,2.2,15.019,15.019,0,0,1-8.32-2.32l.2-6h2.04l.96,5.28a9.7,9.7,0,0,0,4.92,1.24,8.631,8.631,0,0,0,5.32-1.48,4.952,4.952,0,0,0,1.96-4.2,4.586,4.586,0,0,0-1.32-3.42,14.044,14.044,0,0,0-4.52-2.58l-1.64-.64a14.854,14.854,0,0,1-5.44-3.48A7.158,7.158,0,0,1,91.44-22a6.9,6.9,0,0,1,2.68-5.74,10.627,10.627,0,0,1,6.76-2.1,11.637,11.637,0,0,1,7.04,2.28l-.2,5.6H105.6l-.96-5.08a7.363,7.363,0,0,0-3.84-1,7.3,7.3,0,0,0-4.58,1.34,4.58,4.58,0,0,0-1.74,3.86Q94.48-18.92,99.56-16.96Zm19.56.44V-3.88a7.34,7.34,0,0,0,5.28,2.4,5.626,5.626,0,0,0,4.54-2.16q1.78-2.16,1.78-6.48a11.526,11.526,0,0,0-1.64-6.64,5.034,5.034,0,0,0-4.32-2.36A8.562,8.562,0,0,0,119.12-16.52Zm-.44-4.16.24,2.88a8.867,8.867,0,0,1,6.76-3.32,7.254,7.254,0,0,1,5.9,2.92,12.046,12.046,0,0,1,2.34,7.76,12.161,12.161,0,0,1-2.48,8,7.882,7.882,0,0,1-6.36,3,7.646,7.646,0,0,1-6.12-3V1.28q0,3.76.12,7.4l4.12.52v1.28H112.36V9.2L116,8.68q.08-4.8.08-7.32V-11.28q0-3.6-.16-6.12l-3.6-.28v-1.28l5.8-2.12Zm25.16,0,.4,5.24a10.752,10.752,0,0,1,2.84-4.16,5.575,5.575,0,0,1,3.68-1.52,4.356,4.356,0,0,1,1.86.4,2.357,2.357,0,0,1,1.18,1.04q0,2.72-2.24,2.72A4.065,4.065,0,0,1,149-18.12l-.56-.48a11.282,11.282,0,0,0-4.16,5.84v3.64q0,2.84.08,7.32l3.68.52V0h-10.2V-1.28l3.28-.48q.12-3.36.12-7.36v-2.2q0-2.32-.16-6.08l-3.56-.28v-1.28l5.76-2.12Zm18.64-6.52a2.519,2.519,0,0,1-1.8.68,2.519,2.519,0,0,1-1.8-.68,2.312,2.312,0,0,1-.72-1.76,2.312,2.312,0,0,1,.72-1.76,2.519,2.519,0,0,1,1.8-.68,2.572,2.572,0,0,1,1.84.68,2.312,2.312,0,0,1,.72,1.76A2.252,2.252,0,0,1,162.48-27.2Zm-.12,25.4,3.16.52V0h-9.76V-1.28l3.44-.52q.08-4.4.08-7.32v-2.24q0-4.08-.08-6.08l-3.68-.24V-19l6.28-2.08.6.4L162.28-15v5.88Q162.28-6.2,162.36-1.8Zm26.56,0,3.16.52V0h-9.8V-1.28l3.4-.48q.08-4.4.08-7.36v-4a7.563,7.563,0,0,0-.9-4.28A3.3,3.3,0,0,0,182-18.64q-3.08,0-6.56,3.2v6.32q0,2.92.08,7.32l3.16.52V0h-9.76V-1.28l3.36-.48q.12-3.36.12-7.36v-2.2q0-2.32-.16-6.08l-3.56-.28v-1.28l5.76-2.12.56.4.32,3.68a14.024,14.024,0,0,1,3.88-3.02,8.922,8.922,0,0,1,4.12-1.1,4.78,4.78,0,0,1,4.14,1.84q1.34,1.84,1.34,6v4.16Q188.8-5.12,188.92-1.8Zm14.84-6.48a4.219,4.219,0,0,0,3.48-1.6,6.522,6.522,0,0,0,1.28-4.2,6.278,6.278,0,0,0-1.24-4.06,4.128,4.128,0,0,0-3.4-1.54,4.255,4.255,0,0,0-3.46,1.58,6.307,6.307,0,0,0-1.3,4.14,6.428,6.428,0,0,0,1.24,4.12A4.107,4.107,0,0,0,203.76-8.28ZM207.4.52h-5.12A17.176,17.176,0,0,1,200.16.4a5.766,5.766,0,0,0-2,4.12,3.648,3.648,0,0,0,1.6,3.24,7.781,7.781,0,0,0,4.4,1.08,9.979,9.979,0,0,0,5.62-1.36,4.032,4.032,0,0,0,2.02-3.44Q211.8.52,207.4.52Zm7.36-21.16v2.36l-4.56-.04A7.037,7.037,0,0,1,211.48-14a6.7,6.7,0,0,1-2.12,5.26,7.958,7.958,0,0,1-5.52,1.9,9.872,9.872,0,0,1-3.36-.56,5.213,5.213,0,0,0-1.36,3.08q0,2.12,2.92,2.12h5.88q6.6,0,6.6,5.32a6.459,6.459,0,0,1-2.74,5.18q-2.74,2.18-7.66,2.18-4.44,0-6.7-1.46a4.518,4.518,0,0,1-2.26-3.98q0-2.92,4.2-4.92-2.8-.76-2.8-3.2,0-2.12,2.92-4.76A6.529,6.529,0,0,1,196.16-14a6.592,6.592,0,0,1,2.16-5.22,8.108,8.108,0,0,1,5.56-1.9,8.342,8.342,0,0,1,5.24,1.6l4.96-1.56Z" transform="translate(68 870)" fill="#fff"/>
    <path id="路径_7116" data-name="路径 7116" d="M-32.79-7.58h1.98a3.725,3.725,0,0,0,2.65-.89,3.021,3.021,0,0,0,.95-2.31q0-2.98-3.46-2.98h-2.06Q-32.79-11.84-32.79-7.58ZM-25.65-.9l1.8.18V0a5.732,5.732,0,0,1-1.54.2,2.723,2.723,0,0,1-1.42-.29,1.554,1.554,0,0,1-.64-.97l-1-3.6a2.876,2.876,0,0,0-.96-1.7,3.756,3.756,0,0,0-2.04-.42h-1.34q0,3.96.06,5.84l2.08.22V0h-5.94V-.72l2.08-.22q.06-1.9.06-5.8v-1.1q0-3.9-.06-5.82l-2.08-.22v-.7h5.96a6.3,6.3,0,0,1,3.81,1,3.3,3.3,0,0,1,1.35,2.82,3.363,3.363,0,0,1-.96,2.38,4.769,4.769,0,0,1-2.7,1.34,2.713,2.713,0,0,1,1.47.8,4.807,4.807,0,0,1,.93,1.8Zm4.62-5.12h4.68a1.081,1.081,0,0,0,.85-.27,1.223,1.223,0,0,0,.23-.81,2.644,2.644,0,0,0-.74-1.87,2.441,2.441,0,0,0-1.86-.79,2.762,2.762,0,0,0-2.08.97A4.635,4.635,0,0,0-21.03-6.02Zm7.12.78-7.14-.02a4.865,4.865,0,0,0,1.03,3.28A3.394,3.394,0,0,0-17.35-.84,3.956,3.956,0,0,0-14.21-2.4l.42.32A4.375,4.375,0,0,1-17.85.28a4.56,4.56,0,0,1-3.49-1.42,5.538,5.538,0,0,1-1.33-3.94,5.545,5.545,0,0,1,1.43-3.96,4.588,4.588,0,0,1,3.47-1.52,3.917,3.917,0,0,1,2.88,1.11,3.994,3.994,0,0,1,1.12,2.97A4.157,4.157,0,0,1-13.91-5.24Zm6.36,1.1a2.109,2.109,0,0,0,1.74-.8,3.261,3.261,0,0,0,.64-2.1,3.139,3.139,0,0,0-.62-2.03,2.064,2.064,0,0,0-1.7-.77,2.127,2.127,0,0,0-1.73.79,3.153,3.153,0,0,0-.65,2.07,3.214,3.214,0,0,0,.62,2.06A2.053,2.053,0,0,0-7.55-4.14ZM-5.73.26H-8.29A8.588,8.588,0,0,1-9.35.2a2.883,2.883,0,0,0-1,2.06,1.824,1.824,0,0,0,.8,1.62,3.891,3.891,0,0,0,2.2.54,4.989,4.989,0,0,0,2.81-.68A2.016,2.016,0,0,0-3.53,2.02Q-3.53.26-5.73.26Zm3.68-10.58v1.18l-2.28-.02A3.519,3.519,0,0,1-3.69-7,3.351,3.351,0,0,1-4.75-4.37a3.979,3.979,0,0,1-2.76.95A4.936,4.936,0,0,1-9.19-3.7a2.606,2.606,0,0,0-.68,1.54q0,1.06,1.46,1.06h2.94q3.3,0,3.3,2.66A3.229,3.229,0,0,1-3.54,4.15,6.006,6.006,0,0,1-7.37,5.24a6.23,6.23,0,0,1-3.35-.73,2.259,2.259,0,0,1-1.13-1.99q0-1.46,2.1-2.46a1.6,1.6,0,0,1-1.4-1.6A3.554,3.554,0,0,1-9.69-3.92,3.264,3.264,0,0,1-11.35-7a3.3,3.3,0,0,1,1.08-2.61,4.054,4.054,0,0,1,2.78-.95,4.171,4.171,0,0,1,2.62.8l2.48-.78ZM8.89-.88l1.54.24V0L7.59.18l-.16-2A4.947,4.947,0,0,1,3.53.28,2.551,2.551,0,0,1,1.39-.64a4.916,4.916,0,0,1-.7-3.04L.75-9.24-.91-9.52v-.64l3-.26.2.22-.1,3.04V-3.8a3.754,3.754,0,0,0,.47,2.16A1.7,1.7,0,0,0,4.13-1,4.518,4.518,0,0,0,7.39-2.6l.04-6.64L5.79-9.52v-.64l2.96-.26.22.22L8.89-7.16ZM15.33-.9l1.8.26V0H11.87V-.64L13.73-.9q.04-2.36.04-3.66v-9.96l-1.82-.16v-.62l3.1-.84.3.18-.06,3.08v8.32Q15.29-3.26,15.33-.9Zm9.46-1.38V-5.74a22.617,22.617,0,0,0-2.24.72,4.288,4.288,0,0,0-1.82,1.09,2,2,0,0,0-.48,1.29,1.64,1.64,0,0,0,.5,1.3,1.956,1.956,0,0,0,1.34.44,2.433,2.433,0,0,0,1.15-.29A11.015,11.015,0,0,0,24.79-2.28Zm3.28,1.1.34.42a2,2,0,0,1-1.74,1q-1.54,0-1.84-1.78A8.532,8.532,0,0,1,23.14-.13a3.2,3.2,0,0,1-1.63.41,3.052,3.052,0,0,1-2.07-.7,2.428,2.428,0,0,1-.81-1.94,2.5,2.5,0,0,1,.77-1.83,7.558,7.558,0,0,1,2.73-1.47q1.56-.48,2.66-.72v-.64a3.41,3.41,0,0,0-.5-2.17,2.138,2.138,0,0,0-1.68-.57,4.282,4.282,0,0,0-1.4.22l-.44,1.48q-.24.88-.98.88a.764.764,0,0,1-.88-.76,3.172,3.172,0,0,1,1.41-1.92,4.879,4.879,0,0,1,2.69-.7,3.311,3.311,0,0,1,2.5.84,3.923,3.923,0,0,1,.8,2.76v4.74q0,1.52.86,1.52A1.291,1.291,0,0,0,28.07-1.18Zm4.42-9.16.2,2.62A5.376,5.376,0,0,1,34.11-9.8a2.788,2.788,0,0,1,1.84-.76,2.178,2.178,0,0,1,.93.2,1.178,1.178,0,0,1,.59.52q0,1.36-1.12,1.36a2.032,2.032,0,0,1-1.28-.58l-.28-.24a5.641,5.641,0,0,0-2.08,2.92v1.82q0,1.42.04,3.66l1.84.26V0h-5.1V-.64l1.64-.24q.06-1.68.06-3.68v-1.1q0-1.16-.08-3.04l-1.78-.14v-.64l2.88-1.06Z" transform="translate(609 868)" fill="#fff"/>
    <path id="路径_7117" data-name="路径 7117" d="M-14.16-3.86h.9L-13.44,0H-23.92V-.64l2.14-.2q.02-1.96.02-5.84V-7.82q0-3.96-.02-5.88l-2.14-.2v-.62h5.8v.62l-2.12.2q-.04,1.94-.04,6.16V-6.3q0,3.58.04,5.5h5.5Zm5.8-9.8a1.124,1.124,0,0,1-.8.3,1.124,1.124,0,0,1-.8-.3,1.02,1.02,0,0,1-.32-.78,1.045,1.045,0,0,1,.32-.8,1.124,1.124,0,0,1,.8-.3,1.16,1.16,0,0,1,.81.3,1.029,1.029,0,0,1,.33.8A.991.991,0,0,1-8.36-13.66ZM-8.38-.8l1.6.22V0h-4.76V-.58L-9.76-.8q.04-2.2.04-3.74v-1.1q0-1.64-.06-3.24l-1.86-.14V-9.6l3-.86.26.2-.04,2.74v2.98Q-8.42-3-8.38-.8ZM-.8-4.02a2.272,2.272,0,0,0,1.83-.82,3.211,3.211,0,0,0,.69-2.14,3.122,3.122,0,0,0-.67-2.09A2.228,2.228,0,0,0-.74-9.86a2.222,2.222,0,0,0-1.8.82,3.18,3.18,0,0,0-.68,2.1,3.2,3.2,0,0,0,.67,2.11A2.163,2.163,0,0,0-.8-4.02ZM1.1.24H-1.46A6.811,6.811,0,0,1-2.6.16,2.664,2.664,0,0,0-3.72,2.24a1.89,1.89,0,0,0,.84,1.67,4.089,4.089,0,0,0,2.32.57,5.01,5.01,0,0,0,2.86-.7A2.075,2.075,0,0,0,3.32,2.02Q3.32.24,1.1.24ZM4.6-10.22v1.08L2.32-9.16A3.472,3.472,0,0,1,3-6.94a3.349,3.349,0,0,1-1.05,2.6,3.86,3.86,0,0,1-2.71.96,4.288,4.288,0,0,1-1.66-.3,2.653,2.653,0,0,0-.8,1.62Q-3.22-1-1.62-1H1.34a3.594,3.594,0,0,1,2.38.68,2.43,2.43,0,0,1,.8,1.96A3.163,3.163,0,0,1,3.18,4.17,5.884,5.884,0,0,1-.58,5.24a5.951,5.951,0,0,1-3.3-.76,2.309,2.309,0,0,1-1.14-2Q-5.02,1.04-3,.02A1.576,1.576,0,0,1-4.32-1.54,3.5,3.5,0,0,1-2.88-3.9,3.238,3.238,0,0,1-4.52-6.94a3.349,3.349,0,0,1,1.05-2.6A3.86,3.86,0,0,1-.76-10.5a3.92,3.92,0,0,1,2.56.8l2.48-.74ZM15.64-.8l1.6.22V0H12.48V-.58L14.24-.8q.04-2.2.04-3.74V-6.62a3.641,3.641,0,0,0-.48-2.15,1.742,1.742,0,0,0-1.48-.63A5.02,5.02,0,0,0,8.84-7.62v3.08Q8.84-3,8.88-.8l1.58.22V0H5.7V-.58L7.46-.8Q7.5-3,7.5-4.54V-14.68l-1.84-.1v-.6l2.88-.68.32.16L8.8-12.82v4.46a5.521,5.521,0,0,1,4.1-2.14,2.357,2.357,0,0,1,2.03.91,5.056,5.056,0,0,1,.67,2.95v2.1Q15.6-3,15.64-.8Zm8.76-.28.34.46a2.866,2.866,0,0,1-2.26.9q-2.36,0-2.3-2.56,0-.2.01-.72t.01-.92V-9.4H18.16v-.68l2.08-.18.42-3.02h.98l-.1,3.06h3v.82H21.52v7.08q0,1.78,1.34,1.78A2.907,2.907,0,0,0,24.4-1.08Z" transform="translate(488 868)" fill="#fff"/>
    <path id="路径_7118" data-name="路径 7118" d="M-38.74-3.52h.76L-38.16,0H-48.9V-.56l2.16-.2q.04-1.94.04-5.9V-7.8q0-3.98-.04-5.94l-2.16-.18v-.54h10.4l.18,3.5h-.78l-.46-2.84H-45.4q-.02,1.92-.02,6.14h3.76l.26-2.1h.62v4.82h-.62l-.24-2.1h-3.78q0,4.42.02,6.38h6.18ZM-27.78-.7l1.48.16V0h-4.54l-.02-.54,1.7-.16-2.66-3.82-2.76,3.8L-33-.54V0h-3.9V-.54l1.46-.16L-32.16-5l-3.12-4.44-1.46-.14v-.56h4.34v.56l-1.56.14,2.58,3.7,2.66-3.68-1.6-.16v-.56h3.82v.56l-1.38.14-3.16,4.16Zm8.2-.24.28.38a2.867,2.867,0,0,1-2.18.84q-2.28,0-2.26-2.6,0-.22.01-.71t.01-.87V-9.44h-2.1v-.58l2.14-.18.4-3.06h.86l-.1,3.12h2.98v.7h-3V-2.3q0,1.84,1.4,1.84A3.027,3.027,0,0,0-19.58-.94Zm4.36-9.28.1,2.72a5.126,5.126,0,0,1,1.43-2.12,2.98,2.98,0,0,1,1.97-.8,2.237,2.237,0,0,1,.95.19,1.062,1.062,0,0,1,.55.49q0,1.02-.92,1.02a1.967,1.967,0,0,1-1.2-.64l-.22-.2a5.288,5.288,0,0,0-2.56,3.14v1.9q0,2.16.06,3.8l1.92.18V0h-4.94V-.54l1.76-.18q.04-2.2.04-3.8v-1.1q0-1.98-.06-3.48l-1.86-.08V-9.7l2.72-.66ZM-2.96-2.3V-5.78A20.986,20.986,0,0,0-5.58-5q-2.4.92-2.4,2.5a1.825,1.825,0,0,0,.53,1.41A2.053,2.053,0,0,0-6-.6,2.762,2.762,0,0,0-4.6-.98,9.245,9.245,0,0,0-2.96-2.3Zm3,1.4.3.34A1.9,1.9,0,0,1-1.24.26Q-2.7.26-2.92-1.68A8.506,8.506,0,0,1-4.68-.18,3.437,3.437,0,0,1-6.46.28,2.854,2.854,0,0,1-8.42-.39a2.387,2.387,0,0,1-.76-1.89A2.53,2.53,0,0,1-8.4-4.15,6.918,6.918,0,0,1-5.8-5.54,23.848,23.848,0,0,1-2.96-6.3v-.68a3.383,3.383,0,0,0-.55-2.24,2.358,2.358,0,0,0-1.81-.6,4.135,4.135,0,0,0-1.76.38l-.36,1.4q-.14.76-.78.76a.649.649,0,0,1-.7-.62A3,3,0,0,1-7.6-9.76a4.584,4.584,0,0,1,2.54-.66,3.408,3.408,0,0,1,2.48.79,3.469,3.469,0,0,1,.8,2.55v4.82A2.97,2.97,0,0,0-1.55-.88a.747.747,0,0,0,.69.4A1.415,1.415,0,0,0,.04-.9ZM11.08-3.74h.76L11.68,0H1.36V-.56l2.16-.2q.04-1.94.04-5.86V-7.8q0-4-.04-5.94l-2.16-.18v-.54H7.04v.54l-2.18.18q-.02,1.96-.02,6.36v1.12q0,3.62.02,5.6h5.7Zm5.48-9.96a1.062,1.062,0,0,1-.72.26,1,1,0,0,1-.71-.27.925.925,0,0,1-.29-.71.933.933,0,0,1,.29-.7.983.983,0,0,1,.71-.28,1.018,1.018,0,0,1,.72.28.918.918,0,0,1,.3.7A.941.941,0,0,1,16.56-13.7Zm0,12.98,1.62.18V0H13.52V-.54l1.82-.18q.04-2.2.04-3.8v-1.1q0-1.96-.08-3.5l-1.88-.06V-9.7l2.9-.66.26.14-.06,2.68v3.02Q16.52-2.92,16.56-.72Zm7.68-3.2a2.341,2.341,0,0,0,1.87-.83,3.222,3.222,0,0,0,.71-2.17,3.142,3.142,0,0,0-.7-2.13,2.314,2.314,0,0,0-1.84-.81,2.353,2.353,0,0,0-1.87.82,3.183,3.183,0,0,0-.71,2.16,3.182,3.182,0,0,0,.7,2.14A2.3,2.3,0,0,0,24.24-3.92ZM26.22.22H23.64A9.469,9.469,0,0,1,22.32.14a2.59,2.59,0,0,0-1.18,2.08,1.956,1.956,0,0,0,.88,1.72,4.37,4.37,0,0,0,2.48.6,4.942,4.942,0,0,0,2.88-.72A2.171,2.171,0,0,0,28.4,1.98Q28.4.22,26.22.22Zm3.32-10.34v.94l-2.32-.04a3.622,3.622,0,0,1,.76,2.32,3.373,3.373,0,0,1-1.04,2.59,3.772,3.772,0,0,1-2.68.97,4.588,4.588,0,0,1-1.72-.32,2.8,2.8,0,0,0-.86,1.7q0,1.08,1.72,1.08h2.98q3.1,0,3.1,2.58a3.053,3.053,0,0,1-1.32,2.47,5.886,5.886,0,0,1-3.7,1.03,5.916,5.916,0,0,1-3.27-.76,2.321,2.321,0,0,1-1.15-2.02q0-1.48,1.92-2.44A1.473,1.473,0,0,1,20.72-1.5a3.615,3.615,0,0,1,1.44-2.36A3.22,3.22,0,0,1,20.54-6.9a3.333,3.333,0,0,1,1.03-2.56,3.787,3.787,0,0,1,2.69-.96,3.942,3.942,0,0,1,2.5.78l2.46-.7Zm11,9.4,1.62.18V0H37.52V-.54l1.76-.18q.04-2.2.04-3.8V-6.68q0-2.82-1.98-2.82A5.175,5.175,0,0,0,33.7-7.56v3.04q0,2.16.06,3.8l1.6.18V0H30.72V-.54L32.5-.72q.04-2.2.04-3.8V-14.86l-1.86-.06v-.54L33.44-16l.32.18-.08,3.04V-8.2a5.572,5.572,0,0,1,4.14-2.22,2.373,2.373,0,0,1,2,.88,4.724,4.724,0,0,1,.68,2.86v2.16Q40.5-2.88,40.54-.72Zm8.88-.22.28.38a2.867,2.867,0,0,1-2.18.84q-2.28,0-2.26-2.6,0-.22.01-.71t.01-.87V-9.44h-2.1v-.58l2.14-.18.4-3.06h.86l-.1,3.12h2.98v.7h-3V-2.3q0,1.84,1.4,1.84A3.027,3.027,0,0,0,49.42-.94Z" transform="translate(368 868)" fill="#fff"/>
    <path id="路径_7119" data-name="路径 7119" d="M-22.26-13.9l-2.04.22q-.04,1.9-.04,5.82v1.08q0,3.86.04,5.8l2.02.22V0h-5.96V-.76l1.9-.22q.04-1.9.04-5.74l.02-5.88L-31.22,0h-.94l-5.12-12.56q.02.84.05,1.97t.05,1.86q.02.73.02.75v6.94l1.9.28V0h-4.9V-.76l1.98-.28.02-12.62-2-.24v-.76h4L-31.22-2.5l4.74-12.16h4.22Zm3.44,7.78,4.22.04a1.146,1.146,0,0,0,.93-.31,1.424,1.424,0,0,0,.25-.91,2.553,2.553,0,0,0-.69-1.79,2.252,2.252,0,0,0-1.73-.75,2.587,2.587,0,0,0-1.96.95A4.629,4.629,0,0,0-18.82-6.12Zm7.02.84-7.04-.02a4.85,4.85,0,0,0,1,3.24A3.33,3.33,0,0,0-15.2-.94a3.476,3.476,0,0,0,1.73-.4,4.866,4.866,0,0,0,1.35-1.18l.44.3A4.35,4.35,0,0,1-15.82.28a4.688,4.688,0,0,1-3.59-1.44,5.56,5.56,0,0,1-1.35-3.96,5.589,5.589,0,0,1,1.47-4.01,4.715,4.715,0,0,1,3.55-1.55,4.013,4.013,0,0,1,2.95,1.14A4.089,4.089,0,0,1-11.64-6.5,3.922,3.922,0,0,1-11.8-5.28Zm9.68,3.2V-8.42A3.831,3.831,0,0,0-4.6-9.58a2.747,2.747,0,0,0-2.24,1.1,5.251,5.251,0,0,0-.88,3.32,5.219,5.219,0,0,0,.84,3.25A2.724,2.724,0,0,0-4.62-.84,3.278,3.278,0,0,0-2.12-2.08Zm1.8,1.2,1.78.2V0l-3.4.22-.12-1.5A3.79,3.79,0,0,1-5.14.28,4.042,4.042,0,0,1-8.39-1.21,5.849,5.849,0,0,1-9.64-5.1,6.013,6.013,0,0,1-8.33-9.15a4.234,4.234,0,0,1,3.37-1.53A3.652,3.652,0,0,1-2.08-9.26v-5.2l-1.84-.16v-.66l3.38-.92.28.16-.06,3.12ZM5.2-13.18a1.41,1.41,0,0,1-1.01-.39,1.284,1.284,0,0,1-.41-.97,1.245,1.245,0,0,1,.41-.97,1.452,1.452,0,0,1,1.01-.37,1.4,1.4,0,0,1,.99.38,1.253,1.253,0,0,1,.41.96,1.284,1.284,0,0,1-.41.97A1.385,1.385,0,0,1,5.2-13.18ZM6.16-.92l1.5.24V0H2.62V-.68L4.3-.92q.04-2.24.04-3.68V-5.76q0-1.46-.06-2.9L2.5-8.82v-.66l3.36-1.18.3.2L6.12-7.54V-4.6Q6.12-3.16,6.16-.92ZM19-.9l1.5.24V0L17.46.18l-.2-1.98A4.923,4.923,0,0,1,13.36.28a2.573,2.573,0,0,1-2.14-.93,4.82,4.82,0,0,1-.72-3.03l.06-5.58L8.98-9.58v-.64l3.22-.32.22.22-.1,3.1v3.44a3.564,3.564,0,0,0,.44,2.03,1.586,1.586,0,0,0,1.38.61A4.3,4.3,0,0,0,17.2-2.58l.06-6.66-1.56-.3v-.66l3.16-.34.2.22L19-7.22ZM38.8-.92l1.54.24V0H35.32V-.68l1.62-.24q.04-2.2.04-3.68V-6.66a3.559,3.559,0,0,0-.43-2.05,1.653,1.653,0,0,0-1.41-.57,4.632,4.632,0,0,0-3,1.46A9.466,9.466,0,0,1,32.2-6.7v2.1q0,2.04.06,3.68l1.5.24V0H28.72V-.68l1.66-.24q.04-2.2.04-3.68V-6.62A3.743,3.743,0,0,0,30-8.68a1.565,1.565,0,0,0-1.38-.6,4.589,4.589,0,0,0-2.98,1.44V-4.6q0,1.44.04,3.68l1.52.24V0H22.16V-.68l1.62-.24q.04-2.24.04-3.68V-5.74q0-2-.06-2.88L22.02-8.8v-.66l3.08-1.2.3.2.18,1.78a5.12,5.12,0,0,1,3.82-2A2.47,2.47,0,0,1,32-8.62a5.026,5.026,0,0,1,3.96-2.06q2.8,0,2.8,3.8V-4.6Q38.76-3.12,38.8-.92Z" transform="translate(728 868)" fill="#fff"/>
    <path id="路径_7120" data-name="路径 7120" d="M-41.73-8.82l.9.4a8.514,8.514,0,0,1,3.14,1.93,3.771,3.771,0,0,1,.92,2.61A3.74,3.74,0,0,1-38.22-.79,6.087,6.087,0,0,1-42.11.36,8.055,8.055,0,0,1-46.45-.82L-46.33-4h1.1l.68,2.92a4.906,4.906,0,0,0,2.26.5,3.993,3.993,0,0,0,2.5-.71,2.37,2.37,0,0,0,.92-1.99,2.321,2.321,0,0,0-.6-1.67,5.705,5.705,0,0,0-2.04-1.19l-.86-.38a8.1,8.1,0,0,1-2.87-1.86,3.763,3.763,0,0,1-.97-2.64,3.582,3.582,0,0,1,1.4-2.99,5.722,5.722,0,0,1,3.62-1.09,6.164,6.164,0,0,1,3.68,1.16l-.12,2.96h-1.12l-.68-2.8a3.475,3.475,0,0,0-1.68-.38,3.444,3.444,0,0,0-2.2.65,2.246,2.246,0,0,0-.82,1.87,2.4,2.4,0,0,0,.6,1.68A4.813,4.813,0,0,0-41.73-8.82Zm9.02,2.7h3.92a1.085,1.085,0,0,0,.9-.31,1.625,1.625,0,0,0,.24-.99,2.754,2.754,0,0,0-.65-1.87,2.088,2.088,0,0,0-1.65-.75,2.32,2.32,0,0,0-1.85.99A5.157,5.157,0,0,0-32.71-6.12Zm6.98.78h-7a4.907,4.907,0,0,0,1.02,3.26,3.312,3.312,0,0,0,2.6,1.1,3.752,3.752,0,0,0,3.06-1.54l.4.28A4.694,4.694,0,0,1-27.34-.37,4.631,4.631,0,0,1-29.85.3a4.963,4.963,0,0,1-3.74-1.47,5.614,5.614,0,0,1-1.42-4.07,5.483,5.483,0,0,1,1.53-4.04,4.989,4.989,0,0,1,3.67-1.54,4.1,4.1,0,0,1,3.06,1.18,4.205,4.205,0,0,1,1.16,3.08A4.19,4.19,0,0,1-25.73-5.34ZM-6.79-.86l1.46.22V0h-5.18V-.64l1.5-.22q.04-2.24.04-3.78V-6.88a3.622,3.622,0,0,0-.4-2,1.51,1.51,0,0,0-1.32-.56A4.261,4.261,0,0,0-13.51-8a9.606,9.606,0,0,1,.06,1.1v2.26q0,1.54.04,3.78l1.44.22V0h-5.2V-.64l1.56-.22q.04-2.24.04-3.78V-6.86a3.763,3.763,0,0,0-.39-2,1.462,1.462,0,0,0-1.31-.58,4.174,4.174,0,0,0-2.8,1.46v3.34q0,1.54.04,3.78l1.44.22V0h-5.22V-.64l1.56-.22q.06-1.72.06-3.78V-5.92q0-1.1-.08-2.94l-1.68-.16v-.6l3.38-1.18.3.2.16,1.8a5.058,5.058,0,0,1,3.76-2.02,2.546,2.546,0,0,1,2.7,2.06,4.975,4.975,0,0,1,3.9-2.06q2.92,0,2.92,3.84v2.34Q-6.83-3.1-6.79-.86Zm5.5-12.38a1.485,1.485,0,0,1-1.05-.4,1.309,1.309,0,0,1-.43-1,1.278,1.278,0,0,1,.43-.99,1.506,1.506,0,0,1,1.05-.39,1.471,1.471,0,0,1,1.04.39,1.292,1.292,0,0,1,.42.99,1.309,1.309,0,0,1-.43,1A1.459,1.459,0,0,1-1.29-13.24ZM-.13-.86l1.44.22V0H-3.91V-.64l1.56-.22q.04-2.28.04-3.78V-5.92q0-1.52-.06-2.96l-1.7-.16v-.62L-.41-10.8l.28.2L-.17-7.62v2.98Q-.17-3.1-.13-.86Zm7.38.02h1.4a4.63,4.63,0,0,0,2.95-.81,2.858,2.858,0,0,0,1.01-2.37A2.9,2.9,0,0,0,11.6-6.44a5.093,5.093,0,0,0-3.17-.8H7.23Q7.23-2.86,7.25-.84Zm1.4-13.08H7.25Q7.23-12,7.23-8.06H8.31q3.66,0,3.66-3.06a2.614,2.614,0,0,0-.81-2.12A3.853,3.853,0,0,0,8.65-13.92Zm-5.74-.82H9.33a5.822,5.822,0,0,1,3.64.97,3.1,3.1,0,0,1,1.24,2.57,3.058,3.058,0,0,1-.88,2.17,5.022,5.022,0,0,1-2.78,1.29,6.136,6.136,0,0,1,3.37,1.25,3.138,3.138,0,0,1,1.09,2.45,3.553,3.553,0,0,1-1.46,2.87A7.294,7.294,0,0,1,8.97,0H2.91V-.72L4.89-.94q.04-1.98.04-6.02v-.98q0-3.92-.04-5.86l-1.98-.22ZM21.97.3a5.063,5.063,0,0,1-3.7-1.48,5.472,5.472,0,0,1-1.5-4.08,5.438,5.438,0,0,1,1.52-4.07,5.064,5.064,0,0,1,3.68-1.49,5.04,5.04,0,0,1,3.66,1.49,5.438,5.438,0,0,1,1.52,4.07,5.472,5.472,0,0,1-1.5,4.08A5.038,5.038,0,0,1,21.97.3Zm0-.8a2.355,2.355,0,0,0,2.11-1.21,6.765,6.765,0,0,0,.75-3.53,6.926,6.926,0,0,0-.75-3.57,2.348,2.348,0,0,0-2.11-1.23,2.345,2.345,0,0,0-2.12,1.22,7,7,0,0,0-.74,3.58,6.832,6.832,0,0,0,.74,3.54A2.352,2.352,0,0,0,21.97-.5ZM32.45-.86l1.66.22V0H28.57V-.64l1.68-.22q.04-2.48.04-3.78v-10l-1.72-.16v-.62l3.62-.86.3.16-.08,3.14v8.34Q32.41-3.34,32.45-.86ZM43.19-1.94V-8.68a3.457,3.457,0,0,0-2.22-.98,2.719,2.719,0,0,0-2.22,1.07,5.282,5.282,0,0,0-.86,3.33,5.385,5.385,0,0,0,.83,3.31A2.657,2.657,0,0,0,40.93-.88,3.127,3.127,0,0,0,43.19-1.94ZM45.31-.8l1.68.16V0l-3.6.22L43.25-1.2A3.862,3.862,0,0,1,40.15.3a4.078,4.078,0,0,1-3.27-1.51,5.961,5.961,0,0,1-1.27-3.97,6.025,6.025,0,0,1,1.34-4.1,4.332,4.332,0,0,1,3.42-1.54,3.653,3.653,0,0,1,2.9,1.4v-5.22l-1.8-.16v-.62l3.64-.86.3.16L45.31-13Z" transform="translate(848 868)" fill="#fff"/>
    <path id="路径_7121" data-name="路径 7121" d="M-17.71-.78h1.24a4.034,4.034,0,0,0,2.74-.84,3.068,3.068,0,0,0,.96-2.44,3.062,3.062,0,0,0-.95-2.48,4.52,4.52,0,0,0-2.95-.8h-1.1Q-17.77-2.86-17.71-.78Zm1.18-13.28h-1.18q-.06,1.94-.06,5.96h.94q3.4,0,3.4-3.12Q-13.43-14.06-16.53-14.06Zm-5.92-.78h6.68a6.234,6.234,0,0,1,3.79.95,3.059,3.059,0,0,1,1.25,2.57q0,2.7-3.86,3.46,4.68.56,4.68,3.78a3.567,3.567,0,0,1-1.5,2.9Q-12.91,0-16.27,0h-6.18V-.7l1.9-.18q.04-2.04.04-6.22v-.86q0-4-.04-5.98l-1.9-.18ZM-2.87.32A5.228,5.228,0,0,1-6.76-1.21,5.677,5.677,0,0,1-8.27-5.38,5.487,5.487,0,0,1-6.71-9.5a5.29,5.29,0,0,1,3.84-1.52A5.29,5.29,0,0,1,.97-9.5,5.487,5.487,0,0,1,2.53-5.38,5.656,5.656,0,0,1,1.01-1.21,5.236,5.236,0,0,1-2.87.32Zm0-.74A2.086,2.086,0,0,0-.96-1.66a8.012,8.012,0,0,0,.67-3.7A7.956,7.956,0,0,0-.96-9.04a2.086,2.086,0,0,0-1.91-1.24q-2.58,0-2.58,4.92Q-5.45-.42-2.87-.42ZM8.17-.78l1.54.16V0H3.91V-.62L5.45-.8q.06-1.88.06-3.9V-14.84l-1.62-.12v-.56l4.02-.86.28.18-.08,3.18V-4.7Q8.11-2.7,8.17-.78Zm10.56-.98V-9a2.906,2.906,0,0,0-1.9-.76,2.542,2.542,0,0,0-2.11,1.05,5.514,5.514,0,0,0-.81,3.35,5.684,5.684,0,0,0,.78,3.34,2.474,2.474,0,0,0,2.1,1.06A2.775,2.775,0,0,0,18.73-1.76ZM21.37-.74l1.5.12V0L18.93.22l-.14-1.34A3.961,3.961,0,0,1,15.69.32,4.135,4.135,0,0,1,12.4-1.19a6.025,6.025,0,0,1-1.29-4.05,6.169,6.169,0,0,1,1.37-4.22,4.418,4.418,0,0,1,3.47-1.56,3.634,3.634,0,0,1,2.88,1.4v-5.2l-1.72-.14v-.56l4.04-.86.28.18-.06,3.16Z" transform="translate(968 868)" fill="#fff"/>
    <path id="路径_7122" data-name="路径 7122" d="M-22.94-.74h1.02a3.53,3.53,0,0,0,2.54-.86,3.3,3.3,0,0,0,.9-2.5,3.334,3.334,0,0,0-.87-2.55,3.84,3.84,0,0,0-2.69-.81H-23Q-23-2.88-22.94-.74ZM-22-14.18h-.94q-.06,1.96-.06,6h.78A3.028,3.028,0,0,0-19.92-9a3.234,3.234,0,0,0,.78-2.32A2.528,2.528,0,0,0-22-14.18Zm-6.16-.76h7.04q5.22,0,5.22,3.5,0,2.72-4.18,3.46,5.06.5,5.06,3.82a3.5,3.5,0,0,1-.32,1.49,4.049,4.049,0,0,1-1.04,1.32,5.145,5.145,0,0,1-2.11.99A13.426,13.426,0,0,1-21.82,0h-6.34V-.68l1.8-.18q.06-2.1.06-6.42V-8q0-4.08-.06-6.1l-1.8-.16ZM-9.3-.74l1.36.12V0H-14V-.62l1.38-.12q.04-2.6.04-4.02V-15l-1.46-.14v-.52l4.48-.86.28.18-.08,3.22v8.36Q-9.36-2.68-9.3-.74Zm8.78-1.2V-6.1a9.616,9.616,0,0,0-1.1.34A3.051,3.051,0,0,0-3.76-2.78q0,1.76,1.5,1.76A2.946,2.946,0,0,0-.52-1.94Zm4.64.44.34.28A2.546,2.546,0,0,1,1.92.34,2.205,2.205,0,0,1-.44-1.4,6.872,6.872,0,0,1-2-.06a3.644,3.644,0,0,1-1.82.4A3.006,3.006,0,0,1-5.93-.4a2.551,2.551,0,0,1-.81-1.98,2.817,2.817,0,0,1,.93-2.21A8.992,8.992,0,0,1-2.48-6.12q.56-.16,1.96-.52V-7.86A3.749,3.749,0,0,0-.95-9.99a1.858,1.858,0,0,0-1.57-.57,4.276,4.276,0,0,0-.84.08L-3.5-9.06a2.24,2.24,0,0,1-.46,1.43A1.339,1.339,0,0,1-5-7.16,1.255,1.255,0,0,1-6.38-8.18a2.845,2.845,0,0,1,1.42-2.26,6.681,6.681,0,0,1,3.58-.82,4.083,4.083,0,0,1,3.05.97A4.447,4.447,0,0,1,2.6-7.14v5.38q0,1.02.62,1.02Q3.64-.74,4.12-1.5ZM12.4-8.98l-.2-1.54q-.4-.04-.56-.04A2.583,2.583,0,0,0,9.42-9.28a6.248,6.248,0,0,0-.86,3.52,5.415,5.415,0,0,0,.98,3.44,3.169,3.169,0,0,0,2.62,1.24A3.414,3.414,0,0,0,14.9-2.5l.4.26A4.823,4.823,0,0,1,10.74.34,5.514,5.514,0,0,1,6.76-1.2a5.608,5.608,0,0,1-1.6-4.24A5.447,5.447,0,0,1,6.89-9.7a6.224,6.224,0,0,1,4.33-1.56,4.337,4.337,0,0,1,2.79.9,3.463,3.463,0,0,1,1.33,2.28,1.281,1.281,0,0,1-1.32,1.06Q12.5-7.02,12.4-8.98ZM27.62-.78l1.3.16V0H24.56L21.72-5.88l-.9.82v.14q0,1.86.04,4.18l1.26.12V0h-5.9V-.62l1.34-.12q.04-2.32.04-4.02V-15l-1.46-.14v-.52l4.48-.86.28.18-.08,3.22V-5.9l4.32-4.18-2.02-.24v-.6h5.22v.6l-1.96.2-2.4,2.2Z" transform="translate(1088 868)" fill="#fff"/>
    <path id="路径_7123" data-name="路径 7123" d="M0,0H8V124H0Z" transform="translate(36 757)" fill="#ff6baa"/>
  </g>
</svg>
