<svg xmlns="http://www.w3.org/2000/svg" width="872" height="240" viewBox="0 0 872 240">
  <g id="fakePearl" transform="translate(0 -721)">
    <rect id="矩形_3596" data-name="矩形 3596" width="872" height="240" transform="translate(0 721)" fill="#313740"/>
    <path id="路径_6909" data-name="路径 6909" d="M10.234-31.836q1.563,0,1.563,1.328,0,1.484-2.422,7.5V2.031q0,1.8-1.523,1.8-1.484,0-1.484-1.8V-15.937a32.964,32.964,0,0,1-1.738,3.262q-.645,1-1.035,1-1.445,0-1.445-1.172a3.415,3.415,0,0,1,.469-1.719,54.445,54.445,0,0,0,5.859-15.2,4.194,4.194,0,0,1,.684-1.562A1.315,1.315,0,0,1,10.234-31.836ZM15.7-3.086V1.836q0,1.836-1.523,1.836T12.656,1.836V-27.3a2.52,2.52,0,0,1,2.852-2.852h5.273q2.813,0,2.813,2.852v6.172q0,2.852-2.812,2.852H15.7v4.3h5.43q1.719,0,1.719,1.445,0,1.406-1.719,1.406H15.7v5.2h5.82q1.758,0,1.758,1.445,0,1.406-1.758,1.406ZM31.367-21.211a1.132,1.132,0,0,0,1.25-1.211v-3.633q0-1.133-1.25-1.211H26.406q-1.719,0-1.719-1.445t1.719-1.445h6.133a3.328,3.328,0,0,1,2.422.742,2.986,2.986,0,0,1,.664,2.344v5.664a3.328,3.328,0,0,1-.742,2.422,2.986,2.986,0,0,1-2.344.664H26.406q-1.719,0-1.719-1.445t1.719-1.445ZM15.7-21.133h4.063q1.016,0,1.094-1.094V-26.25q0-1.055-1.094-1.055H16.8A1,1,0,0,0,15.7-26.25ZM36.094-.273q1.563.859,1.563,1.758,0,1.719-1.641,1.719-2.227,0-6.6-4.375L27.422.547q-4.141,2.891-5.937,2.891a1.364,1.364,0,0,1-1.523-1.562q0-1.016,1.523-1.6a17.477,17.477,0,0,0,6.133-3.555q-2.93-4.141-2.93-7.148a1.122,1.122,0,0,1,1.289-1.25q1.133,0,1.563,1.484A14.958,14.958,0,0,0,29.57-5.508a26.446,26.446,0,0,0,2.266-4.219A15.362,15.362,0,0,0,32.852-12.5q0-.508-.859-.508H25.039q-1.719,0-1.719-1.406,0-1.445,1.719-1.445H33.32q2.93,0,2.93,1.836a11.646,11.646,0,0,1-1.406,4.609A40.7,40.7,0,0,1,31.328-3.4,22.551,22.551,0,0,0,36.094-.273Zm14.18,4.18q-1.484,0-1.484-1.836V-11.68a32.272,32.272,0,0,1-2.656,5.82Q44.57-3.32,43.516-3.32q-1.445,0-1.445-1.562a2.571,2.571,0,0,1,.7-1.68,27.778,27.778,0,0,0,5.664-10.781H43.945q-1.758,0-1.758-1.562,0-1.523,1.758-1.523h4.844v-9.648q0-1.836,1.523-1.836t1.523,1.836v9.648h2.93a1.8,1.8,0,0,1,1.25.391,1.453,1.453,0,0,1,.43,1.133q0,1.562-1.68,1.563h-2.93v4.3A1.169,1.169,0,0,1,52.7-13.4q.9,0,2.656,2.383,1.875,2.539,1.875,3.2a1.3,1.3,0,0,1-1.445,1.484q-.7,0-1.914-1.953l-1.953-3.008-.078-.156V2.07Q51.836,3.906,50.273,3.906ZM76.211-13.32q-1.523,0-3.867-3.789A23.2,23.2,0,0,1,69.3-26.133a2.216,2.216,0,0,0-.469-1.172,1.369,1.369,0,0,0-.977-.43H65.625q-1.406,0-1.406-1.523t1.406-1.523h3.438A2.8,2.8,0,0,1,71.25-30a4.218,4.218,0,0,1,.859,2.461,16.924,16.924,0,0,0,5.234,11.328,1.505,1.505,0,0,1,.43,1.172Q77.773-13.32,76.211-13.32ZM54.648-21.836a1.5,1.5,0,0,1-.957-.293,1.007,1.007,0,0,1-.371-.84,8.176,8.176,0,0,1,.352-1.8l.547-2.344q.312-1.562,1.523-1.562a1.518,1.518,0,0,1,1.055.352,1.3,1.3,0,0,1,.391,1.016A15.989,15.989,0,0,1,56.25-23.4Q55.7-21.836,54.648-21.836Zm-9.18-.078a1.078,1.078,0,0,1-.9-.469,5.026,5.026,0,0,1-.664-1.484l-.273-.859a13.7,13.7,0,0,1-.664-2.656,1.106,1.106,0,0,1,.352-.84,1.366,1.366,0,0,1,.977-.332,1.334,1.334,0,0,1,1,.488,3.554,3.554,0,0,1,.723,1.387L46.6-24.8a5.753,5.753,0,0,1,.352,1.406A1.312,1.312,0,0,1,45.469-21.914Zm12.656,7.422q-1.172,1.719-1.992,1.719a1.5,1.5,0,0,1-1.074-.352,1.231,1.231,0,0,1-.371-.937,1.568,1.568,0,0,1,.43-1.094,17.754,17.754,0,0,0,2.7-4.277,45.709,45.709,0,0,0,2.109-5.41,4.68,4.68,0,0,1,.684-1.445,1.129,1.129,0,0,1,.918-.469q1.523,0,1.523,1.328A14.212,14.212,0,0,1,61.6-20.977,37.84,37.84,0,0,1,58.125-14.492Zm13.438-.547q3.32,0,3.32,2.852L74.531-5.9q-.273,5.352-1.641,7.383Q71.6,3.359,67.07,3.359q-1.8,0-1.8-1.68,0-1.641,2.539-1.758Q70.469-.2,70.9-1.523q.781-2.578.781-9.18a1.243,1.243,0,0,0-1.406-1.406H65.2A23.982,23.982,0,0,1,63.711-4.1a12.373,12.373,0,0,1-4.18,5.391A14.561,14.561,0,0,1,57.07,2.852,4.559,4.559,0,0,1,55.2,3.4a1.364,1.364,0,0,1-1.523-1.562A1.205,1.205,0,0,1,54.219.9,9.625,9.625,0,0,1,56.055-.117q6.055-2.891,6.172-11.992H59.336A1.3,1.3,0,0,1,58.32-12.5a1.518,1.518,0,0,1-.352-1.055q0-1.484,1.563-1.484Zm16.25,18.32a4.288,4.288,0,0,1-3.164-1,4.48,4.48,0,0,1-.977-3.223v-25.2a4.544,4.544,0,0,1,.977-3.262,4.288,4.288,0,0,1,3.164-1h24.453a4.288,4.288,0,0,1,3.164,1,4.544,4.544,0,0,1,.977,3.262v25.2a4.48,4.48,0,0,1-.977,3.223,4.288,4.288,0,0,1-3.164,1ZM111.25.469a1.761,1.761,0,0,0,1.992-1.992v-24.1a1.744,1.744,0,0,0-1.992-1.953H88.828a1.744,1.744,0,0,0-1.992,1.953V-1.484A1.744,1.744,0,0,0,88.828.469ZM93.594-19.492q-2.656,0-2.656-2.266v-1.6a2.063,2.063,0,0,1,.7-1.68,3.1,3.1,0,0,1,2.031-.586h13.047q2.539,0,2.656,2.266v1.6q0,2.266-2.656,2.266Zm12.07-2.109a1,1,0,0,0,.684-.2,1.057,1.057,0,0,0,.215-.781,1,1,0,0,0-.234-.762.948.948,0,0,0-.664-.215H94.648q-.9,0-.9.859a1.282,1.282,0,0,0,.215.879.935.935,0,0,0,.684.215ZM92.734-5.117q-2.812,0-2.812-2.852V-15a2.486,2.486,0,0,1,2.813-2.812h14.844A2.486,2.486,0,0,1,110.391-15v7.031q0,2.852-2.734,2.852Zm14.922-9.648a.937.937,0,0,0-.273-.723,1.2,1.2,0,0,0-.742-.293H93.672a1,1,0,0,0-.742.273,1,1,0,0,0-.273.742v.586h15Zm0,3.984V-12.3h-15v1.523Zm-1.016,3.633a1.078,1.078,0,0,0,.781-.234,1.015,1.015,0,0,0,.234-.742v-.742h-15v.742q0,.9,1.016.977ZM90.2-.7A1.484,1.484,0,0,1,89.16-.957a.965.965,0,0,1-.371-.8.9.9,0,0,1,.41-.879,4.171,4.171,0,0,1,1.133-.352q.723-.137,1.035-.215,2.031-.352,4.141-.937.234-.078.723-.215a3.022,3.022,0,0,1,.684-.137q1.211.039,1.211,1.094,0,.781-1.719,1.289A34.818,34.818,0,0,1,90.2-.7Zm19.766.039a10.526,10.526,0,0,1-2.051-.371q-1.5-.371-3.848-1-1.953-.508-1.953-1.25a1.147,1.147,0,0,1,.371-.957,1.121,1.121,0,0,1,.957-.176q2.93.586,6.836,1.328,1.172.234,1.172,1.055Q111.445-.664,109.961-.664Zm31.8-15.273a3.466,3.466,0,0,1-2.48-.742,2.906,2.906,0,0,1-.645-2.383v-6.328a3.542,3.542,0,0,1,.742-2.5,2.863,2.863,0,0,1,2.383-.664h2.031v-1.953a1.315,1.315,0,0,1,.293-.957,1.194,1.194,0,0,1,.879-.293,1.088,1.088,0,0,1,1.211,1.25v1.953h2.617v-1.953A1.088,1.088,0,0,1,150-31.758q1.172,0,1.172,1.25v1.953h2.266a3.466,3.466,0,0,1,2.48.742,3.063,3.063,0,0,1,.684,2.422v6.328a3.418,3.418,0,0,1-.762,2.461,2.923,2.923,0,0,1-2.4.664ZM123.75-12.852q-1.289,0-1.289-1.523v-3.4a2.8,2.8,0,0,1,.488-1.758,1.915,1.915,0,0,1,1.426-.7v-7.422q0-2.891,2.93-2.891H133.4q2.93,0,2.93,2.891v7.422a2.011,2.011,0,0,1,1.426.7,2.8,2.8,0,0,1,.566,1.758v2.734q0,1.563-1.289,1.563t-1.289-1.562v-1.523a.863.863,0,0,0-.977-.977h-8.711a.9.9,0,0,0-1.016.977v2.188Q125.039-12.852,123.75-12.852Zm5.2-10.234a2.089,2.089,0,0,1,2.344-2.383h2.578v-1.289a.919.919,0,0,0-1.016-1.016H127.93q-.977,0-1.055,1.055v6.445h2.07Zm14.883-2.969h-1.6q-.82,0-.9.9V-23.4h2.5Zm5,2.656v-2.656h-2.7V-23.4Zm5.039-1.758a.794.794,0,0,0-.9-.9h-1.836V-23.4h2.734Zm-20,2.148h-1.484q-.937,0-.937.9v1.836h2.422Zm9.961,1.836h-2.5V-19.3a.816.816,0,0,0,.9.9h1.6Zm5,2.773v-2.773h-2.7V-18.4Zm4.141,0a.794.794,0,0,0,.9-.9v-1.875h-2.734V-18.4ZM126.641,3.789a1.359,1.359,0,0,1-1.035-.391,1.644,1.644,0,0,1-.371-1.172V-12.7q0-2.773,2.852-2.773h4.922q2.813,0,2.813,2.773V.313a3.583,3.583,0,0,1-.781,2.52,3.16,3.16,0,0,1-2.422.84h-1.328a1.485,1.485,0,0,1-1.055-.332,1.364,1.364,0,0,1-.352-1.035A1.226,1.226,0,0,1,131.25.9h.664a1.161,1.161,0,0,0,.859-.312,1.216,1.216,0,0,0,.313-.9V-2.93h-5.039V2.227Q128.047,3.789,126.641,3.789ZM139.453-11.6a1.424,1.424,0,0,1-1.016-.332,1.2,1.2,0,0,1-.352-.918q0-1.289,1.367-1.289H156.6a1.122,1.122,0,0,1,1.25,1.289,1.1,1.1,0,0,1-1.25,1.25Zm-6.367-.273a.9.9,0,0,0-1.016-1.016h-3.008a.9.9,0,0,0-1.016,1.016v1.523h5.039Zm4.883,15a1.139,1.139,0,0,1-1.289-1.289A1.139,1.139,0,0,1,137.969.547h4.609l-.7-3.008a3.257,3.257,0,0,1-2.109-.605,2.16,2.16,0,0,1-.742-1.777v-2.5a2.428,2.428,0,0,1,.684-1.855,2.829,2.829,0,0,1,2.012-.645h11.445q2.734,0,2.734,2.422v2.461q0,2.5-2.852,2.5L152.383.547h4.18a1.139,1.139,0,0,1,1.289,1.289,1.139,1.139,0,0,1-1.289,1.289ZM133.086-5.43V-7.852h-5.039V-5.43Zm19.063.664q.781,0,.859-.9v-.977a.8.8,0,0,0-.859-.9h-9.375q-.859,0-.859.9v.977a.823.823,0,0,0,.859.9ZM149.727.547l.547-2.891v-.117h-5.7L145.2.273l.039.273Z" transform="translate(68 798)" fill="#fff"/>
    <path id="路径_6910" data-name="路径 6910" d="M4.648,1.016q0,.508.254.645a.816.816,0,0,0,.352.059.515.515,0,0,0,.381-.146.793.793,0,0,0,.146-.557V-4.727l1.465-.586a.477.477,0,0,0,.313-.469.539.539,0,0,0-.117-.391.507.507,0,0,0-.371-.117,8.668,8.668,0,0,0-1.289.449v-4.531H7.09a.578.578,0,0,0,.42-.127.578.578,0,0,0,.127-.42q0-.41-.293-.508a.693.693,0,0,0-.254-.039H5.781v-3.574a.758.758,0,0,0-.146-.537.568.568,0,0,0-.42-.146.557.557,0,0,0-.41.137.762.762,0,0,0-.156.547v3.574h-1.7l.156-1.7a.539.539,0,0,0-.117-.391.539.539,0,0,0-.391-.117.4.4,0,0,0-.293.117,1.441,1.441,0,0,0-.254.9A24.291,24.291,0,0,1,1.406-7.5l-.078.41a.416.416,0,0,0,.117.322.608.608,0,0,0,.41.107q.215,0,.41-.371A9.318,9.318,0,0,0,2.891-10.2l.02-.176H4.648v4.883l-2.52.723q-.859.2-.859.7a.618.618,0,0,0,.137.449.618.618,0,0,0,.449.137,15.369,15.369,0,0,0,2.793-.859ZM12.6.586a.572.572,0,0,0-.137.42.572.572,0,0,0,.137.42.953.953,0,0,0,.684.2h1.094A1.722,1.722,0,0,0,15.7,1.172a2.208,2.208,0,0,0,.449-1.5V-4.863h1.484q.547,0,.645-.312a.388.388,0,0,0,.039-.176.809.809,0,0,0-.01-.146q-.01-.049-.02-.088a.267.267,0,0,1-.01-.059q-.137-.273-.645-.273H16.152v-2.6h1.836a.832.832,0,0,0,.586-.156.507.507,0,0,0,.117-.371.463.463,0,0,0-.137-.371.929.929,0,0,0-.566-.137H13.477v-2.715h3.535a.755.755,0,0,0,.566-.156.439.439,0,0,0,.117-.352.486.486,0,0,0-.156-.4.847.847,0,0,0-.527-.127H13.477v-1.543a.909.909,0,0,0-.176-.645.557.557,0,0,0-.41-.137.557.557,0,0,0-.41.137.909.909,0,0,0-.176.645V-13.3H9.023a.792.792,0,0,0-.547.137.529.529,0,0,0-.137.391.549.549,0,0,0,.137.391.945.945,0,0,0,.547.117H12.3v2.715H8.477q-.645,0-.723.41v.127a.4.4,0,0,0,.02.127.281.281,0,0,0,.1.2.841.841,0,0,0,.605.176h6.5v2.6H9.023q-.547,0-.645.313a.487.487,0,0,0-.039.215.507.507,0,0,0,.117.371.8.8,0,0,0,.566.156H14.98V-.605a.99.99,0,0,1-.264.732,1.1,1.1,0,0,1-.811.264h-.625A.953.953,0,0,0,12.6.586ZM10.586-1.387q.332.488.645.488a.684.684,0,0,0,.488-.137.557.557,0,0,0,.137-.41,3,3,0,0,0-.723-1.27q-.7-.879-1.035-.879-.488,0-.586.273a.822.822,0,0,0-.02.2A4.8,4.8,0,0,0,10-2.266ZM21.25-6.836q0,.566.41.566.039,0,2.637-.254V1.113a.719.719,0,0,0,.137.508.684.684,0,0,0,.82,0,.719.719,0,0,0,.137-.508V-6.621l1.836-.234.039.156q.254.742.645.742a.428.428,0,0,0,.41-.176.544.544,0,0,0,.039-.234q-.176-.527-.527-1.5a3.853,3.853,0,0,0-.625-1.152.449.449,0,0,0-.273-.137q-.293,0-.371.156a.224.224,0,0,0-.039.127.343.343,0,0,0,.01.1.676.676,0,0,1,.02.078.9.9,0,0,0,.029.107q.039.117.41.957-1.016.078-3.047.176a35.172,35.172,0,0,0,3.555-4.9,1.051,1.051,0,0,0,.117-.352.618.618,0,0,0-.137-.449.65.65,0,0,0-.469-.137q-.117,0-.371.254a4.737,4.737,0,0,0-.625.879L24.961-10.43q-.449-.312-.957-.742l-.566-.449a18.863,18.863,0,0,0,2.051-3.32.639.639,0,0,0,.039-.156.65.65,0,0,0-.137-.469.618.618,0,0,0-.449-.137.633.633,0,0,0-.391.117,1.632,1.632,0,0,0-.312.469,21.364,21.364,0,0,1-1.387,2.832l-.117.176-.176-.117a1.472,1.472,0,0,0-.684-.332q-.508,0-.508.488a.605.605,0,0,0,.215.41,3.56,3.56,0,0,0,.5.41q.283.2.42.293l.283.205q.146.107.313.234t.361.264q.352.293.9.742L22.91-7.441l-.645.039a1.441,1.441,0,0,0-.9.254A.422.422,0,0,0,21.25-6.836ZM30.781.977h5.605A1.571,1.571,0,0,0,37.539.605,1.541,1.541,0,0,0,37.91-.527V-12.773a1.751,1.751,0,0,0-.352-1.113,1.4,1.4,0,0,0-1.172-.41H30.781a1.586,1.586,0,0,0-1.172.41,1.57,1.57,0,0,0-.332,1.133V-.527A1.719,1.719,0,0,0,29.609.586,1.439,1.439,0,0,0,30.781.977Zm2.227-14.219V-7.3h-2.6v-5a.847.847,0,0,1,.43-.84,1.218,1.218,0,0,1,.508-.1Zm2.813,0a.837.837,0,0,1,.957.938v5H34.063v-5.937ZM33.008-6.27V-.059h-1.66A.938.938,0,0,1,30.654-.3a.966.966,0,0,1-.244-.713V-6.27Zm3.77,5.254a.966.966,0,0,1-.244.713.966.966,0,0,1-.713.244H34.063V-6.27h2.715ZM21.25-.684a.507.507,0,0,0,.117.371.572.572,0,0,0,.41.117q.43,0,.7-1.016a13.817,13.817,0,0,0,.527-3.4.572.572,0,0,0-.117-.41.477.477,0,0,0-.352-.117.431.431,0,0,0-.3.117.7.7,0,0,0-.146.469,12.665,12.665,0,0,1-.723,3.379A1.875,1.875,0,0,0,21.25-.684Zm6.367.117q.488,0,.527-.332v-.156q-.1-.937-.273-1.953T27.5-4.727a.56.56,0,0,0-.137-.293.46.46,0,0,0-.332-.1q-.41,0-.41.273,0,.039.078.508v.02q.215,1.445.293,2.188.078.547.1.781Q27.129-.566,27.617-.566Z" transform="translate(416 801)" fill="#fff"/>
    <path id="路径_6911" data-name="路径 6911" d="M4.219,1.113q0,.547.371.684a.693.693,0,0,0,.254.039.608.608,0,0,0,.449-.156.777.777,0,0,0,.176-.566V-6.562l1.7-.215.039.1q.273.8.7.8a.547.547,0,0,0,.4-.127.489.489,0,0,0,.127-.361q-.078-.273-.547-1.543Q7.461-9,7.09-9.18a.316.316,0,0,0-.2-.059q-.449,0-.449.43a1.774,1.774,0,0,0,.2.527l.254.586q-.937.059-2.793.156Q7.7-12.012,7.7-12.715a.555.555,0,0,0-.371-.605.736.736,0,0,0-.293-.059q-.371,0-1.074,1.172l-1.016,1.68q-.391-.273-.9-.7l-.508-.41q1.191-1.7,1.631-2.471a3.023,3.023,0,0,0,.439-.986.706.706,0,0,0-.166-.518.676.676,0,0,0-.5-.166q-.508,0-.762.645a21.71,21.71,0,0,1-1.465,2.93L2.6-12.285a1.506,1.506,0,0,0-.742-.352.5.5,0,0,0-.527.332.631.631,0,0,0-.039.234.644.644,0,0,0,.234.459,5.85,5.85,0,0,0,.684.537,24.866,24.866,0,0,1,2.07,1.582L2.891-7.52l-.645.039a1.615,1.615,0,0,0-.937.293.476.476,0,0,0-.137.352.716.716,0,0,0,.176.527.449.449,0,0,0,.332.117q.039,0,2.539-.254Zm6.563-.059h5.605A1.651,1.651,0,0,0,17.6.664a1.621,1.621,0,0,0,.391-1.191V-12.773a1.8,1.8,0,0,0-.371-1.152,1.443,1.443,0,0,0-1.23-.449H10.781a1.679,1.679,0,0,0-1.211.43A1.633,1.633,0,0,0,9.2-12.754V-.527A1.788,1.788,0,0,0,9.609.7,1.617,1.617,0,0,0,10.781,1.055ZM12.93-13.164v5.781H10.488V-12.3q0-.8.723-.859H12.93Zm3.77.859v4.922H14.141v-5.781h1.68A.768.768,0,0,1,16.7-12.3ZM12.93-6.191V-.137H11.348a.858.858,0,0,1-.635-.225.886.886,0,0,1-.225-.654V-6.191ZM16.7-1.016a.783.783,0,0,1-.508.84,1.545,1.545,0,0,1-.371.039h-1.68V-6.191H16.7ZM1.172-.684A.5.5,0,0,0,1.5-.156a.48.48,0,0,0,.176.039h.1q.488,0,.781-1.113a13.42,13.42,0,0,0,.527-3.379.65.65,0,0,0-.137-.469.529.529,0,0,0-.391-.137.431.431,0,0,0-.43.254.9.9,0,0,0-.117.41,13.117,13.117,0,0,1-.7,3.359A1.636,1.636,0,0,0,1.172-.684Zm6.445.2a.621.621,0,0,0,.488-.176.422.422,0,0,0,.117-.312,6.188,6.188,0,0,0-.078-.732q-.078-.537-.1-.674-.234-1.445-.469-2.363A.732.732,0,0,0,7.4-5.078.507.507,0,0,0,7.031-5.2a.529.529,0,0,0-.391.137.26.26,0,0,0-.1.215q0,.039.059.4t.1.586q.039.225.059.43t.049.381q.029.176.049.352.039.312.059.566.078.508.1.762v.02a1.177,1.177,0,0,0,.234.7A.507.507,0,0,0,7.617-.488Zm23.262-7.6h6.055a1.176,1.176,0,0,0,.9-.312,1.553,1.553,0,0,0,.352-1.133v-3.32a1.263,1.263,0,0,0-.312-.957,1.585,1.585,0,0,0-1.152-.352h-1.25v-1.094a.539.539,0,0,0-.117-.391A.477.477,0,0,0,35-15.762q-.488,0-.488.508v1.094H32.969v-1.094a.539.539,0,0,0-.117-.391.507.507,0,0,0-.371-.117.623.623,0,0,0-.352.117.539.539,0,0,0-.117.391v1.094H30.576a.869.869,0,0,0-.166.02l-.186.039a.718.718,0,0,0-.166.059q-.625.273-.625,1.348v3.369q0,.088.01.205a1.333,1.333,0,0,0,.049.254.772.772,0,0,0,.234.43A1.585,1.585,0,0,0,30.879-8.086Zm-9.531.9q0,.488.313.605a.573.573,0,0,0,.215.039.5.5,0,0,0,.371-.137.7.7,0,0,0,.156-.508V-8.281a.557.557,0,0,1,.488-.605h4.492a.608.608,0,0,1,.449.156.608.608,0,0,1,.156.449v.762A.723.723,0,0,0,28.135-7a.515.515,0,0,0,.381.146A.515.515,0,0,0,28.9-7a.723.723,0,0,0,.146-.518V-8.887a1.36,1.36,0,0,0-.312-.859A.938.938,0,0,0,28.145-10h-.1v-3.828A1.183,1.183,0,0,0,26.7-15.156H23.652q-1.016,0-1.25.742a1.626,1.626,0,0,0-.1.586V-10a1.4,1.4,0,0,0-.43.078q-.527.215-.527,1.035Zm3.242-4.355v1.523H23.32v-3.34a.582.582,0,0,1,.391-.605A.8.8,0,0,1,23.965-14h2.461a.614.614,0,0,1,.469.166.643.643,0,0,1,.156.459v.762H25.645a.9.9,0,0,0-.977.586A1.423,1.423,0,0,0,24.59-11.543Zm7.441-1.6v1.563H30.547v-1a.581.581,0,0,1,.156-.43.6.6,0,0,1,.41-.137Zm2.5,1.563H32.949v-1.562h1.582Zm2.52-1v1h-1.6v-1.562h1.035a.513.513,0,0,1,.547.332A1.213,1.213,0,0,1,37.051-12.578Zm-10,.957v1.6H25.605v-1.035a.568.568,0,0,1,.146-.42.6.6,0,0,1,.439-.146Zm4.98.918v1.621h-.918a.568.568,0,0,1-.42-.146.568.568,0,0,1-.146-.42V-10.7Zm2.5,1.621H32.949V-10.7h1.582Zm2.52-.566a.513.513,0,0,1-.332.547,1.213,1.213,0,0,1-.234.02H35.449V-10.7h1.6ZM22.734,1.113q0,.664.586.664a.581.581,0,0,0,.43-.156.7.7,0,0,0,.156-.508v-2.7H26.66V-.156a.727.727,0,0,1-.186.537.7.7,0,0,1-.518.186h-.332A.587.587,0,0,0,25.2.7a.618.618,0,0,0-.137.449.533.533,0,0,0,.215.488.749.749,0,0,0,.371.078h.664a1.461,1.461,0,0,0,1.123-.391A1.673,1.673,0,0,0,27.793.156v-6.5A1.3,1.3,0,0,0,27.48-7.3a1.333,1.333,0,0,0-.977-.312H24.043a1.112,1.112,0,0,0-1.211.723,1.414,1.414,0,0,0-.1.547Zm6.992-7.031H38.3a.517.517,0,0,0,.381-.127.532.532,0,0,0,.127-.391.532.532,0,0,0-.127-.391.517.517,0,0,0-.381-.127H29.727a.587.587,0,0,0-.43.137.5.5,0,0,0-.137.371Q29.16-5.918,29.727-5.918Zm-3.066-.02v.879H23.906v-.879a.637.637,0,0,1,.156-.469.637.637,0,0,1,.469-.156h1.5a.637.637,0,0,1,.469.156A.637.637,0,0,1,26.66-5.937ZM28.574.508a.617.617,0,0,0-.117.41.547.547,0,0,0,.127.4.547.547,0,0,0,.4.127h9.3a.451.451,0,0,0,.488-.293.631.631,0,0,0,.039-.234.547.547,0,0,0-.127-.4.547.547,0,0,0-.4-.127H36.035l.391-1.738h.1a1.342,1.342,0,0,0,1.016-.332,1.043,1.043,0,0,0,.293-.8v-1.23a1.057,1.057,0,0,0-.273-.781,1.333,1.333,0,0,0-.977-.312H30.859q-1.23,0-1.23,1.133v1.25a.977.977,0,0,0,.332.8,1.505,1.505,0,0,0,.977.273h.1l.41,1.738H28.984A.617.617,0,0,0,28.574.508ZM26.66-2.6H23.906V-4.043H26.66Zm9.414.332H31.387a.5.5,0,0,1-.469-.234.659.659,0,0,1-.078-.332V-3.32a.568.568,0,0,1,.146-.42.541.541,0,0,1,.4-.146h4.688a.535.535,0,0,1,.41.146.593.593,0,0,1,.137.42v.488a.548.548,0,0,1-.156.42A.549.549,0,0,1,36.074-2.266ZM32.5.391,32.48.156l-.352-1.5h3.125v.2L34.961.391Z" transform="translate(506 801)" fill="#fff"/>
    <path id="路径_6912" data-name="路径 6912" d="M2.363-8.418q-.8,0-.8-.937V-11.23a1.716,1.716,0,0,1,.4-1.27,1.7,1.7,0,0,1,1.3-.352H9.2v-2.324q0-.8.84-.8a.717.717,0,0,1,.82.8v2.324h6.133a1.915,1.915,0,0,1,1.328.381,1.48,1.48,0,0,1,.352,1.24v1.875q0,.938-.82.938-.8,0-.8-.937v-1.426q0-.684-.742-.723H3.906a.669.669,0,0,0-.742.723v1.426Q3.164-8.418,2.363-8.418Zm12.012-4.707q-.84,0-.84-.684a3.433,3.433,0,0,1,.508-1q.527-.859,1.035-.859.84,0,.84.664a1.139,1.139,0,0,1-.234.586L15.43-14Q14.883-13.125,14.375-13.125Zm-8.73-.039a.738.738,0,0,1-.479-.166,2.984,2.984,0,0,1-.479-.537,3.475,3.475,0,0,1-.605-1.074q0-.684.879-.684.508,0,1.035.762a2.65,2.65,0,0,1,.547,1.035Q6.543-13.164,5.645-13.164ZM10.02,1.914q-.8,0-.8-.957V-3.125h-4q-.7,0-.742.762V.313q0,.957-.781.957-.8,0-.8-.957V-2.656a2.008,2.008,0,0,1,.43-1.426,1.775,1.775,0,0,1,1.406-.41H9.219V-5.859H6.328A1.566,1.566,0,0,1,5.166-6.23,1.518,1.518,0,0,1,4.844-7.4V-8.809a1.7,1.7,0,0,1,.361-1.2,1.333,1.333,0,0,1,1.123-.322h7.48a1.593,1.593,0,0,1,1.162.361,1.485,1.485,0,0,1,.322,1.162V-7.4a1.725,1.725,0,0,1-.352,1.211,1.4,1.4,0,0,1-1.133.332H10.8v1.367h4.8a2.047,2.047,0,0,1,1.455.439,1.661,1.661,0,0,1,.381,1.4V-.8q.156,2.168-2.051,2.012H14.1q-.879,0-.879-.781,0-.8.879-.8h1.035q.664,0,.7-.723v-1.27a.687.687,0,0,0-.742-.762H10.8V.957Q10.8,1.914,10.02,1.914ZM13.2-7.129q.527,0,.566-.566v-.82q0-.508-.566-.547H6.934a.5.5,0,0,0-.566.547v.82q0,.527.566.566ZM21.914,1a.734.734,0,0,1-.84-.82A.654.654,0,0,1,21.211-.2a3.94,3.94,0,0,1,.43-.488A8.282,8.282,0,0,0,23.75-3.965a5.09,5.09,0,0,0,.225-1.064q.088-.693.166-1.826H21.973q-.9,0-.9-.762,0-.742.9-.742H24.2l.02-2.227.02-.293H22.4q-.918,0-.918-.762T22.4-12.4h1.836l-.02-2.48q0-.937.781-.937.762,0,.762.9l-.02,2.52h1.582q.9,0,.9.762t-.9.762h-1.6l-.039,2.266-.02.254h1.973q.918,0,.918.742,0,.762-.918.762H25.625q-.1,1.25-.254,2.207a.691.691,0,0,1,.488-.234,1.493,1.493,0,0,1,.9.547q1.758,1.7,1.758,2.246,0,.7-.781.7-.332,0-.762-.566l-.762-.918-.293-.352q-.254-.312-.459-.537a2.462,2.462,0,0,1-.225-.264A9.927,9.927,0,0,1,23.652-.469Q22.6,1,21.914,1Zm5.02.762a.682.682,0,0,1-.762-.781q0-.566.879-.84A5.891,5.891,0,0,0,29.9-1.5a4.357,4.357,0,0,0,.9-2.773q-1.855,0-1.777-1.816v-7.187a1.97,1.97,0,0,1,.43-1.416,1.689,1.689,0,0,1,1.367-.381H35.9a1.97,1.97,0,0,1,1.416.43,1.719,1.719,0,0,1,.381,1.387v7.148a2.04,2.04,0,0,1-.43,1.445,1.667,1.667,0,0,1-1.367.391h-.664V-.8q0,.684.977.684.957,0,1.094-.273a3.425,3.425,0,0,0,.156-1.016,1.073,1.073,0,0,1,.205-.664.671.671,0,0,1,.537-.215q.723,0,.723.879A4.326,4.326,0,0,1,38.535.7q-.43.723-2.266.723a4.309,4.309,0,0,1-2.07-.293A1.286,1.286,0,0,1,33.73.1V-4.277H32.285a7.247,7.247,0,0,1-1.055,3.5,5.967,5.967,0,0,1-2.949,2.148A4.719,4.719,0,0,1,26.934,1.758Zm9.238-14.863a.587.587,0,0,0-.166-.449.716.716,0,0,0-.459-.176H31.133q-.566,0-.605.605v1.152h5.645Zm0,4.219v-1.8H30.527v1.8Zm-.625,3.281q.586,0,.625-.625V-7.6H30.527v1.387a.592.592,0,0,0,.146.449.725.725,0,0,0,.459.156Z" transform="translate(583 801)" fill="#fff"/>
    <path id="路径_6913" data-name="路径 6913" d="M6.406-9.375a1.606,1.606,0,0,1,1.8-1.836h.84l-.371-1.543H7.012A1,1,0,0,1,6.279-13a.884.884,0,0,1-.244-.654A.871.871,0,0,1,6.27-14.3a1.006,1.006,0,0,1,.742-.254h4.3v-.586a.99.99,0,0,1,.264-.732,1.017,1.017,0,0,1,.752-.264,1.045,1.045,0,0,1,.771.264.99.99,0,0,1,.264.732v.586h4.707a.9.9,0,0,1,.84.391.926.926,0,0,1,.137.508A.884.884,0,0,1,18.8-13a1,1,0,0,1-.732.244H15.918l-.41,1.543h1.035a1.606,1.606,0,0,1,1.8,1.836v6.719a2.151,2.151,0,0,1-.488,1.543,2.079,2.079,0,0,1-1.523.488H15.41a1.006,1.006,0,0,1-.742-.254.95.95,0,0,1-.254-.7,1.087,1.087,0,0,1,.1-.488,2.429,2.429,0,0,1-.547.059H10.781a1.6,1.6,0,0,1-1.182-.4,1.6,1.6,0,0,1-.4-1.182V-4.922a1.385,1.385,0,0,1,.918-1.484,2.1,2.1,0,0,1,.664-.1h.605v-.625H9.453a.955.955,0,0,1-.7-.234.819.819,0,0,1-.215-.605.727.727,0,0,1,.41-.723,1.218,1.218,0,0,1,.508-.1h1.934v-.664H8.77a.421.421,0,0,0-.3.088.421.421,0,0,0-.088.3v7.246a1.174,1.174,0,0,1-.273.859.964.964,0,0,1-.713.273A.964.964,0,0,1,6.68-.957a1.174,1.174,0,0,1-.273-.859ZM13.223-6.5H14a1.506,1.506,0,0,1,1.113.391,1.614,1.614,0,0,1,.41,1.191v1.328a1.675,1.675,0,0,1-.312,1.074h.742a.46.46,0,0,0,.332-.1.46.46,0,0,0,.1-.332V-9.062a.421.421,0,0,0-.088-.3.421.421,0,0,0-.3-.088H13.223v.664h2.051a.915.915,0,0,1,.674.225.805.805,0,0,1,.225.6.819.819,0,0,1-.215.605.926.926,0,0,1-.684.234H13.223ZM2.109-14.766a.9.9,0,0,1,.449-.879,1.218,1.218,0,0,1,.508-.1,6.833,6.833,0,0,1,1.641.586q1.348.605,1.348,1.387a.926.926,0,0,1-.469.918,1.045,1.045,0,0,1-.508.117,1.2,1.2,0,0,1-.488-.156L2.91-13.75Q2.109-14.16,2.109-14.766Zm11.582,3.555.293-1.543H10.566l.332,1.543Zm-12.5.176a.978.978,0,0,1,.254-.723.978.978,0,0,1,.723-.254,6.241,6.241,0,0,1,1.7.566q1.406.605,1.406,1.328a.885.885,0,0,1-.469.9.908.908,0,0,1-.439.117,1.179,1.179,0,0,1-.41-.068,2.718,2.718,0,0,1-.42-.205l-1.621-.7A1.043,1.043,0,0,1,1.191-11.035ZM3.4-7.324q1.8,0,1.8,1.582v4l.469.449q1.25.957,5.547.957L18.145-.41a.966.966,0,0,1,.713.244A.911.911,0,0,1,19.1.508a.909.909,0,0,1-.547.9,2.011,2.011,0,0,1-.8.137l-6.035-.02a21.434,21.434,0,0,1-4.951-.391A5.709,5.709,0,0,1,4.355-.156,13.877,13.877,0,0,1,2.783,1.055a1.982,1.982,0,0,1-.908.371.924.924,0,0,1-.684-.254A1.165,1.165,0,0,1,.9.313Q.9-.449,1.914-.859A12.28,12.28,0,0,0,3.32-1.582v-3.5a.421.421,0,0,0-.088-.3.421.421,0,0,0-.3-.088H1.875a.841.841,0,0,1-.918-.547A1.23,1.23,0,0,1,.9-6.406q0-.918.977-.918ZM11.27-4.941a.269.269,0,0,0-.2.059.269.269,0,0,0-.059.2v.82a.269.269,0,0,0,.059.2.269.269,0,0,0,.2.059h2.188a.264.264,0,0,0,.186-.049.3.3,0,0,0,.049-.205v-.82a.3.3,0,0,0-.049-.205.264.264,0,0,0-.186-.049Zm24.98-7.676a2.1,2.1,0,0,1,1.553.537,2.188,2.188,0,0,1,.537,1.611V-5.9a2.537,2.537,0,0,1-.586,1.855,2.011,2.011,0,0,1-1.484.508A1.931,1.931,0,0,1,36-3.555H31.074V.957a1.265,1.265,0,0,1-.293.9,1.253,1.253,0,0,1-1.562,0,1.265,1.265,0,0,1-.293-.9V-3.555h-4.98a2.1,2.1,0,0,1-1.553-.537,2.159,2.159,0,0,1-.537-1.592v-4.57a2.568,2.568,0,0,1,.586-1.875,1.971,1.971,0,0,1,1.484-.508,1.931,1.931,0,0,1,.273.02h4.727v-2.344a1.244,1.244,0,0,1,.313-.918A1.03,1.03,0,0,1,30-16.152a.964.964,0,0,1,.977.586,1.687,1.687,0,0,1,.1.605v2.344H36.25Zm-7.324,1.992H24.883a1.931,1.931,0,0,0-.479.049.8.8,0,0,0-.264.107,1.244,1.244,0,0,0-.156.762v3.262a1.1,1.1,0,0,0,.166.732,1.1,1.1,0,0,0,.732.166h4.043Zm7.266.918a2.031,2.031,0,0,0-.049-.5.8.8,0,0,0-.107-.264,1.2,1.2,0,0,0-.742-.156H31.074v5.078h4.219a1.931,1.931,0,0,0,.479-.049.8.8,0,0,0,.264-.107,1.2,1.2,0,0,0,.156-.742Z" transform="translate(674 801)" fill="#fff"/>
    <path id="路径_6914" data-name="路径 6914" d="M14.883-7.5a1.594,1.594,0,0,1,.293-.8,20.476,20.476,0,0,0,1.035-2.227.8.8,0,0,0,.059-.273v-.059l-.156-.02H8.73a10.293,10.293,0,0,1-1.6,2.773,1.055,1.055,0,0,1-.723.371,1.057,1.057,0,0,1-.781-.273,1.085,1.085,0,0,1-.273-.8A1.794,1.794,0,0,1,5.7-9.687,15.546,15.546,0,0,0,8.047-15.1a1.277,1.277,0,0,1,.391-.742.994.994,0,0,1,.7-.273q.918,0,1.094.605a.8.8,0,0,1,.039.254v.039L9.9-13.945l-.391,1.094h7.5a1.854,1.854,0,0,1,1.348.41,1.135,1.135,0,0,1,.313.84,10.017,10.017,0,0,1-1.113,2.988l-.566,1.172a2.229,2.229,0,0,1-.371.566,1.029,1.029,0,0,1-.723.352.95.95,0,0,1-.879-.41A1.106,1.106,0,0,1,14.883-7.5ZM2.051-13.2a1.3,1.3,0,0,1-.41-.84,1.057,1.057,0,0,1,.273-.781,1.144,1.144,0,0,1,.84-.273,1.311,1.311,0,0,1,.674.264,7.863,7.863,0,0,1,1.045.889,7.6,7.6,0,0,1,.918,1.055,1.329,1.329,0,0,1,.273.684,1.165,1.165,0,0,1-.293.859,1.165,1.165,0,0,1-.859.293.63.63,0,0,1-.3-.068,2.273,2.273,0,0,1-.293-.2q-.166-.127-.518-.459ZM3.906.078q.02-.039.039-.039A.056.056,0,0,0,3.984.02Q4.063-.02,4.3-.107l.342-.127L4.8-.293q.117-.039.254-.078,5-1.895,5.41-8.477a10.871,10.871,0,0,1,.137-1.484.424.424,0,0,1,.078-.156.927.927,0,0,1,.381-.293,1.224,1.224,0,0,1,.439-.078.95.95,0,0,1,.7.254,1.057,1.057,0,0,1,.273.781v.02l-.2,2.051A10.5,10.5,0,0,0,18.066-.469q1.055.547,1.055,1.23a.969.969,0,0,1-.088.42,1.7,1.7,0,0,1-.283.4,1.037,1.037,0,0,1-.732.352,2.255,2.255,0,0,1-.986-.322A13.553,13.553,0,0,1,15.41.527a11.519,11.519,0,0,1-3.75-5.137A9.265,9.265,0,0,1,6.6,1.309a6.123,6.123,0,0,1-1.973.684,1.109,1.109,0,0,1-.82-.293A1.137,1.137,0,0,1,3.516.889.99.99,0,0,1,3.906.078ZM1.094-1.387a1.261,1.261,0,0,1,.146-.537A5.043,5.043,0,0,1,1.7-2.656,25.6,25.6,0,0,0,4.277-6.621a1.936,1.936,0,0,1,.352-.508.916.916,0,0,1,.664-.293.954.954,0,0,1,.762.293.981.981,0,0,1,.313.664,6.541,6.541,0,0,1-.947,2Q4.473-2.852,3.691-1.68A4.333,4.333,0,0,1,2.539-.391a.658.658,0,0,1-.371.117,1.069,1.069,0,0,1-.791-.283A1.125,1.125,0,0,1,1.094-1.387ZM26.348-6.953a.761.761,0,0,1,.3-.059.617.617,0,0,1,.342.117,5.63,5.63,0,0,1,1.289,1.23,12.393,12.393,0,0,1,.781,1.035,4.787,4.787,0,0,1,.254.439.564.564,0,0,1,.059.234,1.075,1.075,0,0,1-.01.166q-.01.059-.02.127a.726.726,0,0,1-.029.127l-.039.117a.829.829,0,0,1-.82.43,1.023,1.023,0,0,1-.664-.371,5.342,5.342,0,0,1-.605-.762l-.84-1.172V.938a1.194,1.194,0,0,1-.293.879.924.924,0,0,1-.684.254.856.856,0,0,1-.7-.312,1.282,1.282,0,0,1-.234-.82V-4.609q-.449.82-1.094,1.777a7.635,7.635,0,0,1-.928,1.24,1.047,1.047,0,0,1-.674.381.78.78,0,0,1-.605-.234,1.111,1.111,0,0,1-.293-.85,1.757,1.757,0,0,1,.527-1.162A13.908,13.908,0,0,0,24.141-8.5H21.953a1.144,1.144,0,0,1-.84-.273.911.911,0,0,1-.254-.674.925.925,0,0,1,.264-.684,1.134,1.134,0,0,1,.83-.264h2.441V-15.1a1.174,1.174,0,0,1,.273-.859.952.952,0,0,1,.7-.273.878.878,0,0,1,.723.313,1.213,1.213,0,0,1,.254.82v4.707h2.012a1.165,1.165,0,0,1,.85.264.925.925,0,0,1,.264.684.884.884,0,0,1-.234.654,1.194,1.194,0,0,1-.879.293H26.348Zm3.359-6.133q0-1.992,1.68-1.992a1.8,1.8,0,0,1,.254.02h4.043q1.543,0,1.875,1.133a3,3,0,0,1,.078.723V-.449h.586a.911.911,0,0,1,.674.244.966.966,0,0,1,.244.713.966.966,0,0,1-.244.713.911.911,0,0,1-.674.244H27.969a.978.978,0,0,1-.723-.254.95.95,0,0,1-.254-.7.881.881,0,0,1,.449-.859,1.271,1.271,0,0,1,.527-.1h1.738Zm-1.719-1.289a.779.779,0,0,1,.264-.059H28.4a.321.321,0,0,1,.078.01.321.321,0,0,0,.078.01.216.216,0,0,1,.068.01l.068.02a.217.217,0,0,1,.068.029.247.247,0,0,0,.059.029.536.536,0,0,1,.068.029.845.845,0,0,1,.332.742,1.288,1.288,0,0,1-.029.244q-.029.146-.088.4-.1.41-.234.889l-.176.615a1.473,1.473,0,0,1-.293.43.827.827,0,0,1-.605.254.915.915,0,0,1-.674-.225.831.831,0,0,1-.225-.615v-.02l.449-1.895A1.153,1.153,0,0,1,27.988-14.375Zm-6.582.762a.756.756,0,0,1,.225-.557.945.945,0,0,1,.693-.225q.664,0,1.094,1.133a4.91,4.91,0,0,1,.41,1.6.786.786,0,0,1-.371.742,1.106,1.106,0,0,1-.566.137.906.906,0,0,1-.82-.625,4.852,4.852,0,0,1-.273-.82q-.156-.527-.254-.8A2.4,2.4,0,0,1,21.406-13.613Zm14.238.918a.468.468,0,0,0-.107-.342.468.468,0,0,0-.342-.107H32.109a.428.428,0,0,0-.312.1.525.525,0,0,0-.117.332v2.3h3.965ZM31.68-5.645h3.965V-8.535H31.68ZM35.645-3.77H31.68v3.32h3.965Z" transform="translate(772 801)" fill="#fff"/>
    <g id="组_4853" data-name="组 4853" transform="translate(0 905)">
      <rect id="矩形_3599" data-name="矩形 3599" width="872" height="56" fill="#48d7dd"/>
      <path id="路径_6922" data-name="路径 6922" d="M-86.789.258A9.2,9.2,0,0,1-91.8-1.1a1.25,1.25,0,0,1-.352-.352.969.969,0,0,1-.117-.516A1.048,1.048,0,0,1-92-2.707.9.9,0,0,1-91.312-3a1.311,1.311,0,0,1,.492.117,8.1,8.1,0,0,0,3.75.984,6.166,6.166,0,0,0,3.422-.762,2.82,2.82,0,0,0,1.125-2.52,2.864,2.864,0,0,0-.961-2.285A3.913,3.913,0,0,0-86.133-8.3a6.644,6.644,0,0,0-3.586,1.008L-90-7.148a1.074,1.074,0,0,1-.562.141,1.654,1.654,0,0,1-1.125-.387,1.259,1.259,0,0,1-.445-1,4.973,4.973,0,0,1,.047-.562l1.055-6.234a1.418,1.418,0,0,1,.41-.867,1.182,1.182,0,0,1,.855-.328h7.523a.992.992,0,0,1,.727.3.992.992,0,0,1,.3.727.954.954,0,0,1-.3.715,1.012,1.012,0,0,1-.727.293H-88.57a.464.464,0,0,0-.516.422l-.68,4.477a8.413,8.413,0,0,1,3.938-.937,6.288,6.288,0,0,1,2.977.68,4.629,4.629,0,0,1,1.863,1.875,5.737,5.737,0,0,1,.645,2.766,4.871,4.871,0,0,1-1.664,3.879A7.092,7.092,0,0,1-86.789.258Zm23.367,1.289q-.961,0-.961-.844a.758.758,0,0,1,.246-.609,1.07,1.07,0,0,1,.715-.211h6.141V-1.758h-4.594q-.867,0-.867-.8,0-.773.867-.773h4.594V-4.781h-3.211q-1.852,0-1.852-1.734v-3.7q0-1.781,1.852-1.781h3.211v-1.406h-4.992q-.961,0-.961-.844,0-.82.961-.82h4.992v-1.477l-4.242.281q-.867.07-.867-.867,0-.891,1.43-.844l.633-.023a64.387,64.387,0,0,0,8.156-.82l.773-.117a.651.651,0,0,1,.645.188,1.04,1.04,0,0,1,.223.7q0,.82-1.523,1.008l-3.562.352v1.617h5.227q.961,0,.961.844a.758.758,0,0,1-.246.609,1.07,1.07,0,0,1-.715.211h-5.227V-12H-52.2q1.875,0,1.875,1.734v3.7a1.6,1.6,0,0,1-1.828,1.781h-3.469v1.453h4.781q.891,0,.891.8,0,.773-.891.773h-4.781V-.117H-50.2q.914,0,.914.82,0,.844-.914.844Zm-3,.75q-.867,0-.867-.961V-7.852q-1.617,4.922-2.7,4.922-.727,0-.727-.937a1.947,1.947,0,0,1,.469-1.078,18.979,18.979,0,0,0,2.766-6.422l.023-.07h-2.039q-1.055,0-1.055-.844,0-.867,1.055-.867h2.2v-3.3l-2.461.258a.665.665,0,0,1-.609-.187.984.984,0,0,1-.211-.68q0-.773,1.547-.937l.539-.07q1.8-.211,2.2-.281,1.055-.187,2.25-.469l.4-.07q1.008,0,1.008.938,0,.563-.82.82a16.613,16.613,0,0,1-2.109.422v3.563h1.641q1.055,0,1.055.867,0,.844-1.055.844h-1.641v2.93a.729.729,0,0,1,.586-.352q.281,0,.75.539a7.5,7.5,0,0,1,1.57,2.367q0,.82-.773.82-.328,0-.727-.633-.3-.516-.914-1.336l-.492-.75V1.336Q-65.555,2.3-66.422,2.3Zm9.141-12.844h-2.742a.559.559,0,0,0-.633.633v.867h3.375Zm5.2.633a.559.559,0,0,0-.633-.633h-2.906v1.5h3.539Zm-5.2,2.273h-3.375v.75q0,.656.633.656h2.742Zm4.57,1.406q.633,0,.633-.656v-.75h-3.539v1.406Zm7.477-4.523a.913.913,0,0,1-.727-.27,1.287,1.287,0,0,1-.234-.855v-2.25a2.261,2.261,0,0,1,.469-1.828,2.223,2.223,0,0,1,1.8-.469h6.867v-1.43q0-1.2,1.055-1.2a.97.97,0,0,1,.785.293,1.383,1.383,0,0,1,.246.9v1.43H-28.1a2.223,2.223,0,0,1,1.8.469,2.261,2.261,0,0,1,.469,1.828v2.25a1.287,1.287,0,0,1-.234.855.913.913,0,0,1-.727.27.876.876,0,0,1-.715-.27,1.335,1.335,0,0,1-.223-.855V-13.5a1.133,1.133,0,0,0-.3-.855,1.2,1.2,0,0,0-.867-.293H-43.125A1.015,1.015,0,0,0-44.273-13.5v1.617a1.287,1.287,0,0,1-.234.855A.913.913,0,0,1-45.234-10.758Zm6.141,12.914a1.2,1.2,0,0,1-.832-.246.951.951,0,0,1-.27-.738q0-1.008,1.1-1.008h1.43a.9.9,0,0,0,.68-.246A.929.929,0,0,0-36.75-.75V-4.57h-8.531q-1.125,0-1.125-.867a.81.81,0,0,1,.27-.68,1.391,1.391,0,0,1,.855-.211h8.531V-7.336a1.936,1.936,0,0,1,.492-1.43A.987.987,0,0,1-36-8.941a2.4,2.4,0,0,0,.234-.129l3.117-1.383q.07-.023.211-.082a.625.625,0,0,0,.188-.105.135.135,0,0,0,.047-.094q0-.117-.164-.117H-42.375a1.015,1.015,0,0,1-.715-.211.832.832,0,0,1-.223-.633.832.832,0,0,1,.223-.633,1.015,1.015,0,0,1,.715-.211H-30.4a2.57,2.57,0,0,1,1.266.246.765.765,0,0,1,.422.691,1.09,1.09,0,0,1-.152.621,1.64,1.64,0,0,1-.645.457l-1.383.7a31,31,0,0,1-3.281,1.57,1.052,1.052,0,0,0-.539.363,1.034,1.034,0,0,0-.117.527v1.031h8.109a1.391,1.391,0,0,1,.855.211.81.81,0,0,1,.27.68q0,.867-1.125.867h-8.109V-.492a2.852,2.852,0,0,1-.6,2.039,2.771,2.771,0,0,1-2.027.609Zm17.32-.422q-.937,0-.937-.82,0-.8.938-.8h8.742v-1.57h-7.43q-.844,0-.844-.773,0-.75.844-.75h7.43V-4.453h-5.508a2.089,2.089,0,0,1-1.5-.457,1.811,1.811,0,0,1-.422-1.441v-3.727a2.018,2.018,0,0,1,.469-1.477A1.913,1.913,0,0,1-18.539-12h5.508v-1.312H-21.68q-.891,0-.891-.8t.891-.8h8.648v-1.547l-7.359.234a1.043,1.043,0,0,1-.773-.211.872.872,0,0,1-.258-.68q0-.867,1.125-.867l1.617.023q1.992.023,6.633-.234a57.861,57.861,0,0,0,6.141-.586l1.148-.117a1.119,1.119,0,0,1,.867.223,1.023,1.023,0,0,1,.3.809q0,.609-1.312.8-3.023.4-5.719.492l-.562.047v1.617h8.813q.914,0,.914.8t-.914.8H-11.18V-12h5.719a2.055,2.055,0,0,1,1.5.469,1.849,1.849,0,0,1,.422,1.453v3.727a2.018,2.018,0,0,1-.469,1.477,1.849,1.849,0,0,1-1.453.422H-11.18v1.477h7.617q.867,0,.867.773,0,.75-.867.75H-11.18V.117h8.953q.938,0,.938.8,0,.82-.937.82Zm8.742-12.258h-4.852q-.68,0-.727.75V-9h5.578Zm7.641.75a.679.679,0,0,0-.727-.75H-11.18V-9h5.789Zm-7.641,2.25h-5.578v.867q0,.68.727.727h4.852ZM-6.117-5.93a.655.655,0,0,0,.727-.727v-.867H-11.18V-5.93Z" transform="translate(836 36)" fill="#fff"/>
    </g>
    <path id="路径_6915" data-name="路径 6915" d="M5.547.234a1.731,1.731,0,0,1-1.27-.527,1.731,1.731,0,0,1-.527-1.27V-25.469a1.8,1.8,0,0,1,.527-1.289,1.7,1.7,0,0,1,1.27-.547h15.2a1.653,1.653,0,0,1,1.211.508,1.653,1.653,0,0,1,.508,1.211,1.59,1.59,0,0,1-.508,1.191,1.687,1.687,0,0,1-1.211.488H7.852a.414.414,0,0,0-.469.469v8.086H19.375a1.653,1.653,0,0,1,1.211.508,1.653,1.653,0,0,1,.508,1.211,1.59,1.59,0,0,1-.508,1.191,1.687,1.687,0,0,1-1.211.488H7.383V-1.562a1.7,1.7,0,0,1-.547,1.27A1.8,1.8,0,0,1,5.547.234Zm23.4.2a7.3,7.3,0,0,1-3.164-.7A5.435,5.435,0,0,1,23.4-2.344a5.748,5.748,0,0,1-.859-3.125A5.413,5.413,0,0,1,24.9-10.176a11.468,11.468,0,0,1,6.66-1.66H36.25v-.273a4.8,4.8,0,0,0-1.23-3.652,5.679,5.679,0,0,0-3.965-1.152,13.686,13.686,0,0,0-2.539.215,20.912,20.912,0,0,0-2.656.723l-.508.078a1.422,1.422,0,0,1-1.035-.449,1.466,1.466,0,0,1-.449-1.074,1.534,1.534,0,0,1,1.055-1.523,16.994,16.994,0,0,1,6.758-1.406,9.147,9.147,0,0,1,4.609,1.094,6.857,6.857,0,0,1,2.7,2.793,8.254,8.254,0,0,1,.9,3.848V-1.562a1.7,1.7,0,0,1-.547,1.27,1.8,1.8,0,0,1-1.289.527,1.731,1.731,0,0,1-1.27-.527,1.731,1.731,0,0,1-.527-1.27V-2.5A9.671,9.671,0,0,1,28.945.43Zm1.328-3.2a7.14,7.14,0,0,0,3.262-.8,8.962,8.962,0,0,0,2.715-2.09V-8.906H32.031q-5.859,0-5.859,3.047Q26.172-2.773,30.273-2.773ZM47.578.234a1.731,1.731,0,0,1-1.27-.527,1.731,1.731,0,0,1-.527-1.27V-26.914a1.8,1.8,0,0,1,.527-1.289,1.7,1.7,0,0,1,1.27-.547,1.763,1.763,0,0,1,1.289.547,1.763,1.763,0,0,1,.547,1.289v15.9l9.219-8.555a1.945,1.945,0,0,1,1.211-.508,1.729,1.729,0,0,1,1.309.469A1.786,1.786,0,0,1,61.6-18.32a2.15,2.15,0,0,1-.664,1.367l-5.625,5,7.07,9.336a2,2,0,0,1,.391,1.094,1.65,1.65,0,0,1-.527,1.27,1.853,1.853,0,0,1-1.309.488,1.855,1.855,0,0,1-.8-.2,1.873,1.873,0,0,1-.684-.547l-6.68-9.141L49.414-6.6v5.039a1.7,1.7,0,0,1-.547,1.27A1.8,1.8,0,0,1,47.578.234Zm28.086.2A9.987,9.987,0,0,1,68.184-2.3q-2.676-2.734-2.676-7.656a13.288,13.288,0,0,1,1.016-5.117,8.51,8.51,0,0,1,3.2-3.867,9.205,9.205,0,0,1,5.156-1.406,9.388,9.388,0,0,1,5.039,1.328,9.052,9.052,0,0,1,3.164,3.574,10.9,10.9,0,0,1,1.133,4.98,1.765,1.765,0,0,1-.508,1.27,1.76,1.76,0,0,1-1.328.527H69.18a6.334,6.334,0,0,0,2.09,4.238,7.071,7.071,0,0,0,4.707,1.465,12.1,12.1,0,0,0,2.793-.293,11.513,11.513,0,0,0,2.48-.918,1.406,1.406,0,0,1,.7-.156,1.6,1.6,0,0,1,1.113.449,1.452,1.452,0,0,1,.488,1.113A1.71,1.71,0,0,1,82.5-1.289,14.728,14.728,0,0,1,79.375.02,14.186,14.186,0,0,1,75.664.43Zm4.453-12.07a.413.413,0,0,0,.469-.508,5.171,5.171,0,0,0-.937-2.617,5.528,5.528,0,0,0-2.129-1.875,5.9,5.9,0,0,0-2.637-.625,6.64,6.64,0,0,0-2.617.586A5.114,5.114,0,0,0,70.1-14.707a6.626,6.626,0,0,0-.918,3.066ZM90.9.234a1.731,1.731,0,0,1-1.27-.527,1.731,1.731,0,0,1-.527-1.27V-25.469a1.8,1.8,0,0,1,.527-1.289A1.7,1.7,0,0,1,90.9-27.3H99.8a12.973,12.973,0,0,1,6.055,1.25,8.2,8.2,0,0,1,3.3,3.066,8.512,8.512,0,0,1,1.113,4.395,8.859,8.859,0,0,1-1.016,4.219,7.506,7.506,0,0,1-3.457,3.281,13.254,13.254,0,0,1-6,1.211h-7.07v8.32a1.7,1.7,0,0,1-.547,1.27A1.8,1.8,0,0,1,90.9.234ZM99.453-13.32a8.951,8.951,0,0,0,5.371-1.348,4.585,4.585,0,0,0,1.816-3.926,4.585,4.585,0,0,0-1.816-3.926,8.951,8.951,0,0,0-5.371-1.348H93.2a.414.414,0,0,0-.469.469V-13.32ZM123.047.43a9.987,9.987,0,0,1-7.48-2.734q-2.676-2.734-2.676-7.656a13.288,13.288,0,0,1,1.016-5.117,8.51,8.51,0,0,1,3.2-3.867,9.205,9.205,0,0,1,5.156-1.406,9.388,9.388,0,0,1,5.039,1.328,9.052,9.052,0,0,1,3.164,3.574,10.9,10.9,0,0,1,1.133,4.98,1.765,1.765,0,0,1-.508,1.27,1.76,1.76,0,0,1-1.328.527h-13.2a6.334,6.334,0,0,0,2.09,4.238,7.071,7.071,0,0,0,4.707,1.465,12.1,12.1,0,0,0,2.793-.293,11.513,11.513,0,0,0,2.48-.918,1.406,1.406,0,0,1,.7-.156,1.6,1.6,0,0,1,1.113.449,1.452,1.452,0,0,1,.488,1.113,1.71,1.71,0,0,1-1.055,1.484A14.728,14.728,0,0,1,126.758.02,14.186,14.186,0,0,1,123.047.43Zm4.453-12.07a.413.413,0,0,0,.469-.508,5.171,5.171,0,0,0-.937-2.617,5.528,5.528,0,0,0-2.129-1.875,5.9,5.9,0,0,0-2.637-.625,6.64,6.64,0,0,0-2.617.586,5.114,5.114,0,0,0-2.168,1.973,6.626,6.626,0,0,0-.918,3.066ZM141.328.43a7.3,7.3,0,0,1-3.164-.7,5.435,5.435,0,0,1-2.383-2.07,5.748,5.748,0,0,1-.859-3.125,5.413,5.413,0,0,1,2.363-4.707,11.468,11.468,0,0,1,6.66-1.66h4.688v-.273a4.8,4.8,0,0,0-1.23-3.652,5.679,5.679,0,0,0-3.965-1.152,13.686,13.686,0,0,0-2.539.215,20.913,20.913,0,0,0-2.656.723l-.508.078a1.422,1.422,0,0,1-1.035-.449,1.466,1.466,0,0,1-.449-1.074,1.534,1.534,0,0,1,1.055-1.523,16.994,16.994,0,0,1,6.758-1.406,9.147,9.147,0,0,1,4.609,1.094,6.857,6.857,0,0,1,2.7,2.793,8.254,8.254,0,0,1,.9,3.848V-1.562a1.7,1.7,0,0,1-.547,1.27,1.8,1.8,0,0,1-1.289.527,1.731,1.731,0,0,1-1.27-.527,1.731,1.731,0,0,1-.527-1.27V-2.5A9.671,9.671,0,0,1,141.328.43Zm1.328-3.2a7.14,7.14,0,0,0,3.262-.8,8.962,8.962,0,0,0,2.715-2.09V-8.906h-4.219q-5.859,0-5.859,3.047Q138.555-2.773,142.656-2.773Zm17.3,3.008a1.731,1.731,0,0,1-1.27-.527,1.731,1.731,0,0,1-.527-1.27V-18.32a1.8,1.8,0,0,1,.527-1.289,1.7,1.7,0,0,1,1.27-.547,1.763,1.763,0,0,1,1.289.547,1.763,1.763,0,0,1,.547,1.289v1.563q2.7-3.594,6.094-3.594h.2a1.667,1.667,0,0,1,1.25.527,1.765,1.765,0,0,1,.508,1.27,1.605,1.605,0,0,1-.527,1.23,1.853,1.853,0,0,1-1.309.488h-.2a6.709,6.709,0,0,0-3.379.879,7.825,7.825,0,0,0-2.637,2.52V-1.562a1.7,1.7,0,0,1-.547,1.27A1.8,1.8,0,0,1,159.961.234Zm14.961,0a1.731,1.731,0,0,1-1.27-.527,1.731,1.731,0,0,1-.527-1.27V-26.914a1.8,1.8,0,0,1,.527-1.289,1.7,1.7,0,0,1,1.27-.547,1.777,1.777,0,0,1,1.309.527,1.777,1.777,0,0,1,.527,1.309V-1.562a1.7,1.7,0,0,1-.547,1.27A1.8,1.8,0,0,1,174.922.234Z" transform="translate(68 870)" fill="#fff"/>
    <path id="路径_6916" data-name="路径 6916" d="M0,0H8V124H0Z" transform="translate(36 757)" fill="#48d7dd"/>
    <path id="路径_6917" data-name="路径 6917" d="M2.773-.176h7.832a.639.639,0,0,0,.469-.2.628.628,0,0,0,.2-.459.628.628,0,0,0-.2-.459.639.639,0,0,0-.469-.2H3.926A.422.422,0,0,1,3.613-1.6.422.422,0,0,1,3.5-1.914V-6.172H9.9a.639.639,0,0,0,.469-.2.628.628,0,0,0,.2-.459.628.628,0,0,0-.2-.459.639.639,0,0,0-.469-.2H3.5v-4.238a.422.422,0,0,1,.117-.312.422.422,0,0,1,.313-.117h6.68a.639.639,0,0,0,.469-.2.618.618,0,0,0,.2-.449.639.639,0,0,0-.2-.469.639.639,0,0,0-.469-.2H2.773a.663.663,0,0,0-.5.215.711.711,0,0,0-.205.508V-.879a.678.678,0,0,0,.205.5A.678.678,0,0,0,2.773-.176ZM13.633-.8a.759.759,0,0,0,.176.527.623.623,0,0,0,.488.2.742.742,0,0,0,.625-.312l2.754-3.457Q20.625-.293,20.693-.234a.7.7,0,0,0,.186.107.654.654,0,0,0,.254.049.677.677,0,0,0,.527-.215.706.706,0,0,0,.2-.488.75.75,0,0,0-.176-.488l-3.145-3.77,3.184-3.73a.854.854,0,0,0,.156-.479.607.607,0,0,0-.2-.439.755.755,0,0,0-.527-.2.685.685,0,0,0-.547.254L17.754-6.074q-2.91-3.594-2.93-3.613a.662.662,0,0,0-.488-.2.7.7,0,0,0-.518.205.645.645,0,0,0-.205.469.816.816,0,0,0,.176.5l3.125,3.789L13.789-1.25A.815.815,0,0,0,13.633-.8ZM24.16-9.687a.518.518,0,0,0-.586.586.518.518,0,0,0,.586.586h1.172v6.133a2.358,2.358,0,0,0,.586,1.738,2.855,2.855,0,0,0,2.09.664,3.652,3.652,0,0,0,1.543-.332A.589.589,0,0,0,29.9-.84a.539.539,0,0,0-.234-.449.581.581,0,0,0-.293-.078,2.137,2.137,0,0,0-.254.02.132.132,0,0,1-.1.039,2.84,2.84,0,0,1-.82.117,1.564,1.564,0,0,1-1.123-.322,1.4,1.4,0,0,1-.322-1.025V-8.516h2.383a.553.553,0,0,0,.42-.176.59.59,0,0,0,.166-.42.557.557,0,0,0-.166-.41.569.569,0,0,0-.42-.166H26.758V-11.27a.727.727,0,0,0-.186-.537.7.7,0,0,0-.518-.186.639.639,0,0,0-.723.723v1.582ZM33.633-.781v-6a4.184,4.184,0,0,1,1.416-1.377,3.564,3.564,0,0,1,1.787-.459h.1a.713.713,0,0,0,.527-.2.639.639,0,0,0,.2-.469.682.682,0,0,0-.332-.605.65.65,0,0,0-.352-.1h-.1a3.634,3.634,0,0,0-2.891,1.719l-.352.469V-9.16a.694.694,0,0,0-.215-.508.694.694,0,0,0-.508-.215.663.663,0,0,0-.5.215.711.711,0,0,0-.205.508V-.781a.678.678,0,0,0,.205.5.678.678,0,0,0,.5.205.694.694,0,0,0,.508-.215A.673.673,0,0,0,33.633-.781ZM45.9-1.738v.957a.678.678,0,0,0,.205.5.678.678,0,0,0,.5.205.694.694,0,0,0,.508-.215.673.673,0,0,0,.215-.488V-6.309a3.9,3.9,0,0,0-.43-1.836,3.228,3.228,0,0,0-1.27-1.309,4.36,4.36,0,0,0-2.207-.527,8.329,8.329,0,0,0-3.3.684,1.441,1.441,0,0,0-.254.156.555.555,0,0,0-.156.41.569.569,0,0,0,.166.42.5.5,0,0,0,.361.166l.234-.039a8.809,8.809,0,0,1,1.738-.41,5.469,5.469,0,0,1,.771-.059q.361,0,.576.02t.41.049a3.11,3.11,0,0,1,.371.078,1.844,1.844,0,0,1,.332.127A2.271,2.271,0,0,1,45.9-6.055v.332H43.359a4.929,4.929,0,0,0-3.594,1.113,2.537,2.537,0,0,0-.723,1.875A2.566,2.566,0,0,0,39.785-.84a2.576,2.576,0,0,0,.762.527,3.478,3.478,0,0,0,1.5.332,4.649,4.649,0,0,0,3.516-1.406Zm-3.184.547q-1.582,0-2.051-.9a1.7,1.7,0,0,1-.2-.84,1.349,1.349,0,0,1,.391-1,3.891,3.891,0,0,1,2.734-.723h2.3v1.895q-.156.156-.254.273a4.446,4.446,0,0,1-1.211.859A3.733,3.733,0,0,1,42.715-1.191ZM58.73-.176a.694.694,0,0,0,.508-.215.683.683,0,0,0,.215-.5.683.683,0,0,0-.215-.5A.694.694,0,0,0,58.73-1.6H52.6a.422.422,0,0,1-.312-.117.422.422,0,0,1-.117-.312v-10.8a.694.694,0,0,0-.215-.508.694.694,0,0,0-.508-.215.663.663,0,0,0-.5.215.711.711,0,0,0-.205.508v11.6a1.014,1.014,0,0,0,.313.742,1.014,1.014,0,0,0,.742.313ZM62.3-12.168h.117a.783.783,0,0,0,.664-.352.727.727,0,0,0,.156-.469v-.078A.788.788,0,0,0,63-13.643a.788.788,0,0,0-.576-.244H62.3a.788.788,0,0,0-.576.244.788.788,0,0,0-.244.576v.078a.788.788,0,0,0,.244.576A.788.788,0,0,0,62.3-12.168ZM63.066-.781V-9.16a.7.7,0,0,0-.205-.518.678.678,0,0,0-.5-.205.685.685,0,0,0-.518.215.711.711,0,0,0-.205.508V-.781a.678.678,0,0,0,.205.5.678.678,0,0,0,.5.205.694.694,0,0,0,.508-.215A.673.673,0,0,0,63.066-.781Zm7.91,5.293a4.152,4.152,0,0,0,3.281-1.279A5.35,5.35,0,0,0,75.391-.43V-9.16a.694.694,0,0,0-.215-.508.694.694,0,0,0-.508-.215.605.605,0,0,0-.254.039.739.739,0,0,0-.449.684v.918A6.334,6.334,0,0,0,73.5-8.73a4.146,4.146,0,0,0-3.047-1.25,4.51,4.51,0,0,0-2.178.566,4.432,4.432,0,0,0-1.689,1.621A5.119,5.119,0,0,0,65.9-5.1,4.859,4.859,0,0,0,67.266-1.5a5.142,5.142,0,0,0,1.465.977,4.319,4.319,0,0,0,1.719.352,4.174,4.174,0,0,0,3.184-1.387l.332-.352V-.176a3.481,3.481,0,0,1-.84,2.559,3.148,3.148,0,0,1-2.324.8,7.437,7.437,0,0,1-3.3-.762.8.8,0,0,0-.273-.059.556.556,0,0,0-.43.2.629.629,0,0,0-.176.43.581.581,0,0,0,.059.293q.059.1.1.156l.117.078a7.287,7.287,0,0,0,1.875.713A9.084,9.084,0,0,0,70.977,4.512ZM70.82-1.445A3.432,3.432,0,0,1,68.281-2.4a3.617,3.617,0,0,1-.957-2.676,3.617,3.617,0,0,1,.957-2.676,3.432,3.432,0,0,1,2.539-.957,3.468,3.468,0,0,1,1.641.391,6.189,6.189,0,0,1,1.5,1.152v4.18a6.327,6.327,0,0,1-1.514,1.162A3.481,3.481,0,0,1,70.82-1.445Zm9.434.664V-6.719A6.5,6.5,0,0,1,81.846-8.2a3.333,3.333,0,0,1,1.787-.488,2.1,2.1,0,0,1,1.973.957,3.174,3.174,0,0,1,.352,1.6V-.781a.678.678,0,0,0,.205.5.678.678,0,0,0,.5.205.694.694,0,0,0,.508-.215.673.673,0,0,0,.215-.488V-6.328a3.863,3.863,0,0,0-.8-2.5,3.012,3.012,0,0,0-2.52-1.152,3.78,3.78,0,0,0-1.816.41,6.033,6.033,0,0,0-1.66,1.289l-.332.352v-5.527a.694.694,0,0,0-.215-.508.694.694,0,0,0-.508-.215.663.663,0,0,0-.5.215.711.711,0,0,0-.205.508V-.781a.678.678,0,0,0,.205.5.678.678,0,0,0,.5.205.694.694,0,0,0,.508-.215A.673.673,0,0,0,80.254-.781ZM89.9-9.687a.518.518,0,0,0-.586.586.518.518,0,0,0,.586.586h1.172v6.133A2.358,2.358,0,0,0,91.66-.645,2.855,2.855,0,0,0,93.75.02a3.652,3.652,0,0,0,1.543-.332.589.589,0,0,0,.352-.527.539.539,0,0,0-.234-.449.581.581,0,0,0-.293-.078,2.137,2.137,0,0,0-.254.02.132.132,0,0,1-.1.039,2.84,2.84,0,0,1-.82.117,1.564,1.564,0,0,1-1.123-.322A1.4,1.4,0,0,1,92.5-2.539V-8.516h2.383a.553.553,0,0,0,.42-.176.59.59,0,0,0,.166-.42.557.557,0,0,0-.166-.41.569.569,0,0,0-.42-.166H92.5V-11.27a.727.727,0,0,0-.186-.537.7.7,0,0,0-.518-.186.639.639,0,0,0-.723.723v1.582Z" transform="translate(390 871)" fill="#fff"/>
    <path id="路径_6918" data-name="路径 6918" d="M10.059-.1a.782.782,0,0,0,.557-.234.735.735,0,0,0,.244-.547.767.767,0,0,0-.244-.557.767.767,0,0,0-.557-.244H3.926a.315.315,0,0,1-.312-.156.522.522,0,0,1-.039-.2v-10.8a.767.767,0,0,0-.244-.557.767.767,0,0,0-.557-.244.6.6,0,0,0-.332.078.821.821,0,0,0-.449.723v11.6a1.086,1.086,0,0,0,.342.791A1.086,1.086,0,0,0,3.125-.1ZM13.633-12.09h.117a.86.86,0,0,0,.625-.273.86.86,0,0,0,.273-.625v-.078a.86.86,0,0,0-.273-.625.86.86,0,0,0-.625-.273h-.117a.86.86,0,0,0-.625.273.86.86,0,0,0-.273.625v.078a.86.86,0,0,0,.273.625A.86.86,0,0,0,13.633-12.09Zm.84,11.309V-9.16a.772.772,0,0,0-.234-.566.772.772,0,0,0-.566-.234.735.735,0,0,0-.547.244.782.782,0,0,0-.234.557V-.781a.75.75,0,0,0,.234.547A.75.75,0,0,0,13.672,0a.772.772,0,0,0,.566-.234A.75.75,0,0,0,14.473-.781ZM22.3,4.59a4.189,4.189,0,0,0,3.32-1.309A5.331,5.331,0,0,0,26.8-.43V-9.16a.767.767,0,0,0-.244-.557A.767.767,0,0,0,26-9.961a.735.735,0,0,0-.547.244.782.782,0,0,0-.234.557V-8.4q-.273-.312-.332-.371a4.191,4.191,0,0,0-3.105-1.289,4.541,4.541,0,0,0-2.207.576,4.586,4.586,0,0,0-1.719,1.65,5.148,5.148,0,0,0-.7,2.734,4.913,4.913,0,0,0,1.387,3.633,4.473,4.473,0,0,0,1.074.781A4.339,4.339,0,0,0,21.777-.1,4.229,4.229,0,0,0,25-1.5l.215-.254V-.176a3.472,3.472,0,0,1-.82,2.52,3.116,3.116,0,0,1-2.266.762,7.556,7.556,0,0,1-3.281-.742l-.293-.078a.612.612,0,0,0-.469.215.719.719,0,0,0-.215.488.645.645,0,0,0,.313.586,7.877,7.877,0,0,0,1.9.723A8.912,8.912,0,0,0,22.3,4.59Zm-.156-6.113a3.365,3.365,0,0,1-2.49-.928,3.553,3.553,0,0,1-.928-2.627,3.553,3.553,0,0,1,.928-2.627,3.365,3.365,0,0,1,2.49-.928,3.437,3.437,0,0,1,1.611.371,6.068,6.068,0,0,1,1.455,1.113v4.141A6.164,6.164,0,0,1,23.77-1.895,3.5,3.5,0,0,1,22.148-1.523Zm9.512.742v-5.9A6.642,6.642,0,0,1,33.2-8.145,3.424,3.424,0,0,1,35-8.613a2.139,2.139,0,0,1,1.582.566,2.606,2.606,0,0,1,.625,1.914V-.781a.75.75,0,0,0,.234.547A.75.75,0,0,0,37.988,0a.772.772,0,0,0,.566-.234.75.75,0,0,0,.234-.547V-6.328a3.761,3.761,0,0,0-1.055-2.812,3.085,3.085,0,0,0-2.3-.918h-.039a4.016,4.016,0,0,0-1.855.41,6.385,6.385,0,0,0-1.66,1.309l-.215.254v-5.371a.767.767,0,0,0-.244-.557.767.767,0,0,0-.557-.244.735.735,0,0,0-.547.244.782.782,0,0,0-.234.557V-.781a.75.75,0,0,0,.234.547A.75.75,0,0,0,30.859,0a.772.772,0,0,0,.566-.234A.75.75,0,0,0,31.66-.781Zm14.785-.664a1.148,1.148,0,0,0-.273.039.217.217,0,0,1-.1.02,2.646,2.646,0,0,1-.8.117,1.486,1.486,0,0,1-1.064-.3,1.324,1.324,0,0,1-.3-.967v-5.9h2.3a.624.624,0,0,0,.469-.205.661.661,0,0,0,.2-.469.628.628,0,0,0-.2-.459.639.639,0,0,0-.469-.2h-2.3v-1.5a.792.792,0,0,0-.215-.586.727.727,0,0,0-.566-.215.894.894,0,0,0-.391.068.545.545,0,0,0-.2.146.753.753,0,0,0-.215.586v1.5H41.23a.66.66,0,0,0-.488.176.66.66,0,0,0-.176.488.66.66,0,0,0,.176.488.66.66,0,0,0,.488.176h1.094v6.055a2.432,2.432,0,0,0,.625,1.8A2.9,2.9,0,0,0,45.078.1a3.606,3.606,0,0,0,1.563-.352.651.651,0,0,0,.41-.586.579.579,0,0,0-.186-.42A.579.579,0,0,0,46.445-1.445Z" transform="translate(502 871)" fill="#fff"/>
    <path id="路径_6919" data-name="路径 6919" d="M10.137-6.133A2.806,2.806,0,0,1,11.973-4.5a6.808,6.808,0,0,1,.566,2.822v.9a.865.865,0,0,1-.264.635.865.865,0,0,1-.635.264.918.918,0,0,1-.664-.244.865.865,0,0,1-.254-.654v-.586a8.865,8.865,0,0,0-.176-1.816A2.673,2.673,0,0,0,9.658-4.7a2.891,2.891,0,0,0-1.943-.6H3.691V-.781a.85.85,0,0,1-.273.635.9.9,0,0,1-.645.264.865.865,0,0,1-.635-.264.865.865,0,0,1-.264-.635V-12.734a.9.9,0,0,1,.264-.645.85.85,0,0,1,.635-.273H7.324a6.274,6.274,0,0,1,3.955,1.084,3.5,3.5,0,0,1,1.377,2.9A3.719,3.719,0,0,1,12-7.52,3.668,3.668,0,0,1,10.137-6.133Zm-2.93-.879a4.6,4.6,0,0,0,2.666-.674,2.132,2.132,0,0,0,.967-1.846,2.042,2.042,0,0,0-.869-1.807,5.219,5.219,0,0,0-2.861-.6H3.926a.207.207,0,0,0-.234.234v4.688ZM19.9.215a4.994,4.994,0,0,1-3.74-1.367A5.242,5.242,0,0,1,14.824-4.98a6.644,6.644,0,0,1,.508-2.559,4.255,4.255,0,0,1,1.6-1.934,4.6,4.6,0,0,1,2.578-.7,4.694,4.694,0,0,1,2.52.664,4.526,4.526,0,0,1,1.582,1.787,5.451,5.451,0,0,1,.566,2.49.882.882,0,0,1-.254.635.88.88,0,0,1-.664.264h-6.6a3.167,3.167,0,0,0,1.045,2.119,3.536,3.536,0,0,0,2.354.732,6.051,6.051,0,0,0,1.4-.146A5.757,5.757,0,0,0,22.7-2.09a.7.7,0,0,1,.352-.078.8.8,0,0,1,.557.225.726.726,0,0,1,.244.557.855.855,0,0,1-.527.742A7.364,7.364,0,0,1,21.758.01,7.093,7.093,0,0,1,19.9.215ZM22.129-5.82a.207.207,0,0,0,.234-.254,2.585,2.585,0,0,0-.469-1.309A2.764,2.764,0,0,0,20.83-8.32a2.95,2.95,0,0,0-1.318-.312A3.32,3.32,0,0,0,18.2-8.34a2.557,2.557,0,0,0-1.084.986A3.313,3.313,0,0,0,16.66-5.82ZM31.152,4.707A9.214,9.214,0,0,1,28.9,4.414a7.841,7.841,0,0,1-1.924-.723.777.777,0,0,1-.371-.7.815.815,0,0,1,.234-.566.743.743,0,0,1,.566-.254.96.96,0,0,1,.352.078,7.265,7.265,0,0,0,3.223.742q2.969,0,2.969-3.164v-1.25A4.361,4.361,0,0,1,30.625.02,4.518,4.518,0,0,1,28.4-.566a4.563,4.563,0,0,1-1.836-1.768,5.315,5.315,0,0,1-.684-2.744,5.368,5.368,0,0,1,.7-2.812,4.652,4.652,0,0,1,1.768-1.7,4.719,4.719,0,0,1,2.275-.586,4.361,4.361,0,0,1,3.32,1.445v-.43a.9.9,0,0,1,.264-.645.85.85,0,0,1,.635-.273.882.882,0,0,1,.645.273.882.882,0,0,1,.273.645V-.43a5.524,5.524,0,0,1-1.191,3.8A4.337,4.337,0,0,1,31.152,4.707ZM31-1.641A3.309,3.309,0,0,0,32.549-2a5.809,5.809,0,0,0,1.4-1.064V-7.09a5.809,5.809,0,0,0-1.4-1.064A3.309,3.309,0,0,0,31-8.516a3.247,3.247,0,0,0-2.4.9,3.434,3.434,0,0,0-.9,2.539,3.434,3.434,0,0,0,.9,2.539A3.247,3.247,0,0,0,31-1.641ZM42.227.215a3.489,3.489,0,0,1-1.875-.508A3.393,3.393,0,0,1,39.141-1.68a4.387,4.387,0,0,1-.43-1.953V-9.18a.85.85,0,0,1,.273-.635.9.9,0,0,1,.645-.264.865.865,0,0,1,.635.264.865.865,0,0,1,.264.635v5.352q0,2.363,2.129,2.363a3.128,3.128,0,0,0,1.689-.469A6.2,6.2,0,0,0,45.84-3.32V-9.18a.85.85,0,0,1,.273-.635.9.9,0,0,1,.645-.264.865.865,0,0,1,.635.264.865.865,0,0,1,.264.635V-.8a.9.9,0,0,1-.264.645.85.85,0,0,1-.635.273.882.882,0,0,1-.645-.273A.882.882,0,0,1,45.84-.8v-.742A6.264,6.264,0,0,1,44.18-.234,4.153,4.153,0,0,1,42.227.215ZM51.6.117a.865.865,0,0,1-.635-.264A.865.865,0,0,1,50.7-.781V-13.457a.9.9,0,0,1,.264-.645.85.85,0,0,1,.635-.273.888.888,0,0,1,.654.264.888.888,0,0,1,.264.654V-.781a.85.85,0,0,1-.273.635A.9.9,0,0,1,51.6.117Zm6.523.1a3.649,3.649,0,0,1-1.582-.352,2.717,2.717,0,0,1-1.191-1.035,2.874,2.874,0,0,1-.43-1.562A2.707,2.707,0,0,1,56.1-5.088a5.734,5.734,0,0,1,3.33-.83h2.344v-.137a2.4,2.4,0,0,0-.615-1.826,2.84,2.84,0,0,0-1.982-.576,6.843,6.843,0,0,0-1.27.107,10.456,10.456,0,0,0-1.328.361l-.254.039a.711.711,0,0,1-.518-.225.733.733,0,0,1-.225-.537.767.767,0,0,1,.527-.762,8.5,8.5,0,0,1,3.379-.7,4.573,4.573,0,0,1,2.3.547,3.428,3.428,0,0,1,1.348,1.4,4.127,4.127,0,0,1,.449,1.924V-.781a.85.85,0,0,1-.273.635.9.9,0,0,1-.645.264.865.865,0,0,1-.635-.264.865.865,0,0,1-.264-.635V-1.25A4.836,4.836,0,0,1,58.125.215Zm.664-1.6a3.57,3.57,0,0,0,1.631-.4,4.481,4.481,0,0,0,1.357-1.045V-4.453H59.668q-2.93,0-2.93,1.523Q56.738-1.387,58.789-1.387Zm8.652,1.5a.865.865,0,0,1-.635-.264.865.865,0,0,1-.264-.635V-9.16a.9.9,0,0,1,.264-.645.85.85,0,0,1,.635-.273.882.882,0,0,1,.645.273.882.882,0,0,1,.273.645v.781a3.816,3.816,0,0,1,3.047-1.8h.1a.834.834,0,0,1,.625.264.882.882,0,0,1,.254.635.8.8,0,0,1-.264.615.927.927,0,0,1-.654.244h-.1a3.354,3.354,0,0,0-1.689.439,3.913,3.913,0,0,0-1.318,1.26V-.781a.85.85,0,0,1-.273.635A.9.9,0,0,1,67.441.117Z" transform="translate(566 871)" fill="#fff"/>
    <path id="路径_6920" data-name="路径 6920" d="M1.66-.781v-11.66a1.509,1.509,0,0,1,.449-1.074,1.444,1.444,0,0,1,1.055-.449h.645a1.444,1.444,0,0,1,1.055.449,1.7,1.7,0,0,1,.352.527L9.434-2.48l4.219-10.527a1.639,1.639,0,0,1,.586-.693,1.444,1.444,0,0,1,.82-.264H15.7a1.444,1.444,0,0,1,1.055.449,1.509,1.509,0,0,1,.449,1.074V-.781a1.075,1.075,0,0,1-.322.791A1.064,1.064,0,0,1,16.1.332,1.146,1.146,0,0,1,15.293,0a1.069,1.069,0,0,1-.332-.781v-9.9L10.9-.645a1.53,1.53,0,0,1-.586.7,1.556,1.556,0,0,1-.879.273A1.513,1.513,0,0,1,8.3-.156a1.3,1.3,0,0,1-.332-.488L3.906-10.684v9.9A1.069,1.069,0,0,1,3.574,0a1.146,1.146,0,0,1-.811.332A1.064,1.064,0,0,1,1.982.01,1.075,1.075,0,0,1,1.66-.781ZM19.3-4.98a6.714,6.714,0,0,1,.527-2.637A4.441,4.441,0,0,1,21.5-9.648a4.807,4.807,0,0,1,2.7-.742,4.772,4.772,0,0,1,2.637.7,4.7,4.7,0,0,1,1.65,1.855,5.649,5.649,0,0,1,.6,2.6,1.091,1.091,0,0,1-.332.8,1.084,1.084,0,0,1-.8.313H21.6a2.75,2.75,0,0,0,.938,1.738,3.292,3.292,0,0,0,2.207.684,5.63,5.63,0,0,0,1.934-.312q.293-.117.605-.273a.918.918,0,0,1,.449-.1.982.982,0,0,1,.723.293.959.959,0,0,1,.293.7,1.082,1.082,0,0,1-.645.938,8.061,8.061,0,0,1-1.6.664A7.184,7.184,0,0,1,24.59.43a5.185,5.185,0,0,1-3.9-1.436A5.459,5.459,0,0,1,19.3-4.98Zm7.52-1.055q.02,0,.02-.01v-.01a2.492,2.492,0,0,0-.43-1.211,2.553,2.553,0,0,0-.986-.859,2.7,2.7,0,0,0-1.2-.293,3.054,3.054,0,0,0-1.23.273,2.451,2.451,0,0,0-1.27,1.465,3.129,3.129,0,0,0-.137.645Zm8.5-4.355a4.593,4.593,0,0,1,3.105,1.172v-4.238a1.091,1.091,0,0,1,.332-.8,1.134,1.134,0,0,1,.8-.332,1.069,1.069,0,0,1,.781.332,1.134,1.134,0,0,1,.332.8V-.781a1.075,1.075,0,0,1-.322.791,1.064,1.064,0,0,1-.781.322A1.146,1.146,0,0,1,38.75,0a1.088,1.088,0,0,1-.332-.742A4.641,4.641,0,0,1,35.313.43,4.748,4.748,0,0,1,32.93-.215a4.805,4.805,0,0,1-1.885-1.914A5.82,5.82,0,0,1,30.352-5a5.647,5.647,0,0,1,.7-2.852,4.987,4.987,0,0,1,1.826-1.885A4.747,4.747,0,0,1,35.313-10.391Zm.254,2.129A2.782,2.782,0,0,0,33.4-7.4a3.418,3.418,0,0,0-.8,2.422,3.342,3.342,0,0,0,.879,2.5,2.784,2.784,0,0,0,2.09.781,3.715,3.715,0,0,0,2.207-.762,5.285,5.285,0,0,0,.645-.547V-6.953A4.952,4.952,0,0,0,37.1-7.9,3.423,3.423,0,0,0,35.566-8.262Zm7.559-4.727v-.078a1.185,1.185,0,0,1,.361-.869,1.185,1.185,0,0,1,.869-.361h.117a1.185,1.185,0,0,1,.869.361,1.185,1.185,0,0,1,.361.869v.078a1.185,1.185,0,0,1-.361.869,1.185,1.185,0,0,1-.869.361h-.117a1.185,1.185,0,0,1-.869-.361A1.185,1.185,0,0,1,43.125-12.988ZM43.281-.781V-9.16a1.134,1.134,0,0,1,.332-.8,1.091,1.091,0,0,1,.8-.332,1.075,1.075,0,0,1,.791.322,1.1,1.1,0,0,1,.322.811V-.781A1.069,1.069,0,0,1,45.2,0a1.146,1.146,0,0,1-.811.332A1.064,1.064,0,0,1,43.6.01,1.075,1.075,0,0,1,43.281-.781Zm4.766-2.852V-9.18a1.069,1.069,0,0,1,.332-.781,1.146,1.146,0,0,1,.811-.332,1.064,1.064,0,0,1,.781.322,1.075,1.075,0,0,1,.322.791v5.352a2.3,2.3,0,0,0,.527,1.68,1.881,1.881,0,0,0,1.387.469,2.874,2.874,0,0,0,1.572-.439,6.216,6.216,0,0,0,1.4-1.279V-9.18a1.069,1.069,0,0,1,.332-.781,1.146,1.146,0,0,1,.811-.332,1.064,1.064,0,0,1,.781.322,1.075,1.075,0,0,1,.322.791V-.8a1.134,1.134,0,0,1-.332.8A1.08,1.08,0,0,1,56.3.332,1.08,1.08,0,0,1,55.508,0a1.091,1.091,0,0,1-.332-.8v-.215a6.2,6.2,0,0,1-1.348.977A4.368,4.368,0,0,1,51.777.43,3.428,3.428,0,0,1,49.219-.586a3.989,3.989,0,0,1-.723-1A4.6,4.6,0,0,1,48.047-3.633ZM68.4-8.613a4.088,4.088,0,0,1,3.555-1.777,3.23,3.23,0,0,1,1.992.586,3.852,3.852,0,0,1,1.406,2.4,5.067,5.067,0,0,1,.1,1V-.781A1.069,1.069,0,0,1,75.117,0a1.146,1.146,0,0,1-.811.332A1.064,1.064,0,0,1,73.525.01,1.075,1.075,0,0,1,73.2-.781V-6.055a2.572,2.572,0,0,0-.488-1.816,1.73,1.73,0,0,0-1.27-.41A2.377,2.377,0,0,0,70-7.852a4.758,4.758,0,0,0-1.133,1.27v5.8A1.069,1.069,0,0,1,68.535,0a1.146,1.146,0,0,1-.811.332A1.064,1.064,0,0,1,66.943.01a1.075,1.075,0,0,1-.322-.791V-6.055A4.3,4.3,0,0,0,66.5-7.129a1.573,1.573,0,0,0-.293-.664l-.078-.078a1.73,1.73,0,0,0-1.27-.41,2.377,2.377,0,0,0-1.445.43,4.758,4.758,0,0,0-1.133,1.27v5.8A1.069,1.069,0,0,1,61.953,0a1.146,1.146,0,0,1-.811.332A1.064,1.064,0,0,1,60.361.01a1.075,1.075,0,0,1-.322-.791V-9.16a1.134,1.134,0,0,1,.332-.8,1.08,1.08,0,0,1,.791-.332,1.08,1.08,0,0,1,.791.332,1.091,1.091,0,0,1,.332.8v.117A4.632,4.632,0,0,1,63.34-9.9a3.9,3.9,0,0,1,1.992-.488,3.367,3.367,0,0,1,2.48,1A3.408,3.408,0,0,1,68.4-8.613Z" transform="translate(655 873)" fill="#fff"/>
    <path id="路径_6921" data-name="路径 6921" d="M11.426-3.613a3.581,3.581,0,0,1-1.074,2.6,4.839,4.839,0,0,1-1.465.957,7.053,7.053,0,0,1-2.7.488A11.751,11.751,0,0,1,1.465-.527a1.129,1.129,0,0,1-.5-.4,1.027,1.027,0,0,1-.205-.615,1.021,1.021,0,0,1,.3-.752A1,1,0,0,1,1.8-2.6a1.119,1.119,0,0,1,.469.1,9.129,9.129,0,0,0,3.75.781q2.578,0,3.066-1.289A2.114,2.114,0,0,0,9.2-3.75a1,1,0,0,0-.352-.781,2.853,2.853,0,0,0-.43-.312,3.239,3.239,0,0,0-.488-.234q-.566-.2-1.914-.547a23.6,23.6,0,0,1-2.578-.82A4.081,4.081,0,0,1,1.543-7.773,3.321,3.321,0,0,1,.9-9.824a3.819,3.819,0,0,1,1.133-2.812,4.943,4.943,0,0,1,2.227-1.191,7.64,7.64,0,0,1,1.934-.234,11.257,11.257,0,0,1,3.965.664.975.975,0,0,1,.7,1,1.014,1.014,0,0,1-.312.742.971.971,0,0,1-.7.313.956.956,0,0,1-.391-.1,9.409,9.409,0,0,0-3.066-.508,4.59,4.59,0,0,0-2.4.547,1.629,1.629,0,0,0-.84,1.445A1.223,1.223,0,0,0,3.535-9a3.567,3.567,0,0,0,1.045.625,14.257,14.257,0,0,0,1.885.527,16.863,16.863,0,0,1,2.52.762,3.928,3.928,0,0,1,1.768,1.279A3.48,3.48,0,0,1,11.426-3.613ZM12.734-4.98a6.714,6.714,0,0,1,.527-2.637,4.441,4.441,0,0,1,1.68-2.031,4.807,4.807,0,0,1,2.7-.742,4.772,4.772,0,0,1,2.637.7,4.7,4.7,0,0,1,1.65,1.855,5.649,5.649,0,0,1,.6,2.6,1.091,1.091,0,0,1-.332.8,1.084,1.084,0,0,1-.8.313H15.039a2.75,2.75,0,0,0,.938,1.738,3.292,3.292,0,0,0,2.207.684,5.63,5.63,0,0,0,1.934-.312q.293-.117.605-.273a.918.918,0,0,1,.449-.1.982.982,0,0,1,.723.293.959.959,0,0,1,.293.7,1.082,1.082,0,0,1-.645.938,8.061,8.061,0,0,1-1.6.664A7.184,7.184,0,0,1,18.027.43a5.185,5.185,0,0,1-3.9-1.436A5.459,5.459,0,0,1,12.734-4.98Zm7.52-1.055q.02,0,.02-.01v-.01a2.492,2.492,0,0,0-.43-1.211,2.553,2.553,0,0,0-.986-.859,2.7,2.7,0,0,0-1.2-.293,3.054,3.054,0,0,0-1.23.273,2.451,2.451,0,0,0-1.27,1.465,3.129,3.129,0,0,0-.137.645Zm12.5-2.578a4.088,4.088,0,0,1,3.555-1.777A3.23,3.23,0,0,1,38.3-9.8a3.852,3.852,0,0,1,1.406,2.4,5.067,5.067,0,0,1,.1,1V-.781A1.069,1.069,0,0,1,39.473,0a1.146,1.146,0,0,1-.811.332A1.064,1.064,0,0,1,37.881.01a1.075,1.075,0,0,1-.322-.791V-6.055a2.572,2.572,0,0,0-.488-1.816,1.73,1.73,0,0,0-1.27-.41,2.377,2.377,0,0,0-1.445.43,4.758,4.758,0,0,0-1.133,1.27v5.8A1.069,1.069,0,0,1,32.891,0a1.146,1.146,0,0,1-.811.332A1.064,1.064,0,0,1,31.3.01a1.075,1.075,0,0,1-.322-.791V-6.055a4.3,4.3,0,0,0-.117-1.074,1.573,1.573,0,0,0-.293-.664l-.078-.078a1.73,1.73,0,0,0-1.27-.41,2.377,2.377,0,0,0-1.445.43,4.758,4.758,0,0,0-1.133,1.27v5.8A1.069,1.069,0,0,1,26.309,0,1.146,1.146,0,0,1,25.5.332,1.064,1.064,0,0,1,24.717.01a1.075,1.075,0,0,1-.322-.791V-9.16a1.134,1.134,0,0,1,.332-.8,1.08,1.08,0,0,1,.791-.332,1.08,1.08,0,0,1,.791.332,1.091,1.091,0,0,1,.332.8v.117A4.632,4.632,0,0,1,27.7-9.9a3.9,3.9,0,0,1,1.992-.488,3.367,3.367,0,0,1,2.48,1A3.408,3.408,0,0,1,32.754-8.613Zm9.414-4.375v-.078a1.185,1.185,0,0,1,.361-.869A1.185,1.185,0,0,1,43.4-14.3h.117a1.185,1.185,0,0,1,.869.361,1.185,1.185,0,0,1,.361.869v.078a1.185,1.185,0,0,1-.361.869,1.185,1.185,0,0,1-.869.361H43.4a1.185,1.185,0,0,1-.869-.361A1.185,1.185,0,0,1,42.168-12.988ZM42.324-.781V-9.16a1.134,1.134,0,0,1,.332-.8,1.091,1.091,0,0,1,.8-.332,1.075,1.075,0,0,1,.791.322,1.1,1.1,0,0,1,.322.811V-.781A1.069,1.069,0,0,1,44.238,0a1.146,1.146,0,0,1-.811.332A1.064,1.064,0,0,1,42.646.01,1.075,1.075,0,0,1,42.324-.781Zm5.215-.1V-12.734a1.134,1.134,0,0,1,.332-.8,1.069,1.069,0,0,1,.781-.332h4.609a4.921,4.921,0,0,1,3.633,1.25,3.41,3.41,0,0,1,.977,2.52,3.385,3.385,0,0,1-.977,2.5,3.307,3.307,0,0,1-.586.469,4.21,4.21,0,0,1,1.563,1.113,3.268,3.268,0,0,1,.762,2.188A3.617,3.617,0,0,1,57.266-.781,6.371,6.371,0,0,1,53.379.234H48.652a1.075,1.075,0,0,1-.791-.322A1.075,1.075,0,0,1,47.539-.879ZM55.7-9.922a1.547,1.547,0,0,0-.684-1.328,3.212,3.212,0,0,0-1.895-.488h-3.34v3.77h3.008a3.439,3.439,0,0,0,2.422-.645A1.768,1.768,0,0,0,55.7-9.922Zm-.566,7.793a1.712,1.712,0,0,0,1.309-1.758,1.649,1.649,0,0,0-.469-1.25A3.827,3.827,0,0,0,53.223-5.9H49.785v3.984q0,.02.01.02H53.2A6.576,6.576,0,0,0,55.137-2.129Zm6.074.781A5.649,5.649,0,0,1,60.02-5a5.929,5.929,0,0,1,.645-2.793A4.744,4.744,0,0,1,62.52-9.727a5.521,5.521,0,0,1,2.734-.664,5.412,5.412,0,0,1,2.715.664,4.8,4.8,0,0,1,1.865,1.934,5.9,5.9,0,0,1,.654,2.813,5.855,5.855,0,0,1-.645,2.793A4.777,4.777,0,0,1,67.969-.244,5.457,5.457,0,0,1,65.234.43,5,5,0,0,1,61.543-1,2.855,2.855,0,0,1,61.211-1.348Zm6.582-5.527A2.607,2.607,0,0,0,66.035-8.2a2.67,2.67,0,0,0-.674-.1,4.567,4.567,0,0,0-.479.02q-.176.02-.371.059A2.618,2.618,0,0,0,62.7-6.875a3.855,3.855,0,0,0-.43,1.914,3.526,3.526,0,0,0,.43,1.855,3.332,3.332,0,0,0,.488.645,2.431,2.431,0,0,0,.586.43,2.99,2.99,0,0,0,1.484.371A3.2,3.2,0,0,0,66.7-2.012a2.608,2.608,0,0,0,1.123-1.113,3.883,3.883,0,0,0,.42-1.895A3.465,3.465,0,0,0,67.793-6.875ZM72.5-.781V-13.457a1.134,1.134,0,0,1,.332-.8,1.091,1.091,0,0,1,.8-.332,1.075,1.075,0,0,1,.791.322,1.1,1.1,0,0,1,.322.811V-.781A1.069,1.069,0,0,1,74.414,0,1.146,1.146,0,0,1,73.6.332,1.064,1.064,0,0,1,72.822.01,1.075,1.075,0,0,1,72.5-.781Zm9.219-9.609a4.593,4.593,0,0,1,3.105,1.172v-4.238a1.091,1.091,0,0,1,.332-.8,1.134,1.134,0,0,1,.8-.332,1.069,1.069,0,0,1,.781.332,1.134,1.134,0,0,1,.332.8V-.781a1.075,1.075,0,0,1-.322.791,1.064,1.064,0,0,1-.781.322A1.146,1.146,0,0,1,85.156,0a1.088,1.088,0,0,1-.332-.742A4.641,4.641,0,0,1,81.719.43a4.748,4.748,0,0,1-2.383-.645,4.805,4.805,0,0,1-1.885-1.914A5.82,5.82,0,0,1,76.758-5a5.647,5.647,0,0,1,.7-2.852,4.987,4.987,0,0,1,1.826-1.885A4.747,4.747,0,0,1,81.719-10.391Zm.254,2.129A2.782,2.782,0,0,0,79.8-7.4,3.418,3.418,0,0,0,79-4.98a3.342,3.342,0,0,0,.879,2.5,2.784,2.784,0,0,0,2.09.781,3.715,3.715,0,0,0,2.207-.762,5.285,5.285,0,0,0,.645-.547V-6.953A4.952,4.952,0,0,0,83.506-7.9,3.423,3.423,0,0,0,81.973-8.262Z" transform="translate(748 873)" fill="#fff"/>
  </g>
</svg>
