<svg xmlns="http://www.w3.org/2000/svg" width="872" height="240" viewBox="0 0 872 240">
  <g id="genseki" transform="translate(0 -721)">
    <g id="组_4854" data-name="组 4854" transform="translate(0 721)">
      <rect id="矩形_3596" data-name="矩形 3596" width="872" height="240" fill="#313740"/>
      <rect id="矩形_3598" data-name="矩形 3598" width="8" height="124" transform="translate(36 36)" fill="#51b5db"/>
    </g>
    <path id="路径_6852" data-name="路径 6852" d="M27.24,2.6q-1.08.48-5.32.4A8.757,8.757,0,0,0,21.08.48q1.56.08,3.72.04h.32q.68-.04.68-.6V-10.76H22.32q-1.8,0-3.48.16a.141.141,0,0,1-.16-.16,10.959,10.959,0,0,0,.16-2.72v-4.16q0-3.92-.28-6.84,0-.16.28-.16a29.4,29.4,0,0,0,3.08.16h3.12q.52-2.2.84-4.32H16.56v8.16q0,15.88-5.28,23.52a7.632,7.632,0,0,0-2.4-1.56A27.228,27.228,0,0,0,12.92-9.6a67.5,67.5,0,0,0,.76-11.04v-5.44a48.747,48.747,0,0,0-.24-5.44.212.212,0,0,1,.24-.24,58.563,58.563,0,0,0,5.96.24H31.56q3.04,0,5.96-.24a4.97,4.97,0,0,1,.12,1.58,4.97,4.97,0,0,1-.12,1.58,39.878,39.878,0,0,0-4.32-.2H28.88l.2.04q-.56,2.12-1.2,4.28h4.08a35.263,35.263,0,0,0,4.08-.2q.16,0,.16.2-.16,1.68-.16,3.44v3.44q0,3.88.28,6.84,0,.16-.28.16-1.84-.16-3.72-.16H28.6V-.04a4.623,4.623,0,0,1-.24,1.72A1.871,1.871,0,0,1,27.24,2.6ZM5.44,2.48,2.84.8Q4.28-1.76,5.8-5.08,7.32-8.24,8.8-12a18.448,18.448,0,0,1,1.8,1.48q.88.88.76,1.2a.729.729,0,0,1-.4.4,1.476,1.476,0,0,0-.8.92Q7.76-2.16,5.44,2.48ZM17.72.76a5,5,0,0,1-.4-.32Q15.96-.52,15.44-.8A23.28,23.28,0,0,0,20.2-8.52a7.139,7.139,0,0,1,2,.8q1,.56.84.88a.962.962,0,0,1-.4.4,1.792,1.792,0,0,0-.84.92q-.56,1.08-1.28,2.36A27.677,27.677,0,0,1,17.72.76ZM35.68.28A30.986,30.986,0,0,0,33.8-3.64,31.563,31.563,0,0,0,31.2-7.8l2.48-1.08a30.381,30.381,0,0,1,4.6,7.92ZM21.4-13.04H33.32v-3.52H21.4Zm-12.8-3a18.128,18.128,0,0,0-2.88-2.2A34.024,34.024,0,0,0,2-20.28l1.64-2.16a24.479,24.479,0,0,1,6.64,4Zm12.8-2.68H33.32V-22.2H21.4Zm-11-7.72a14.824,14.824,0,0,0-2.88-2.32,26.4,26.4,0,0,0-3.6-2.2l1.64-2.12a21.6,21.6,0,0,1,6.56,4.32ZM51.48,3.28a4.057,4.057,0,0,1-1.76-.2q.32-3.12.32-7.92v-7.92A34.118,34.118,0,0,1,43.52-6a9.435,9.435,0,0,0-2.04-2.28,33.183,33.183,0,0,0,7.84-8.68,47.026,47.026,0,0,0,4.96-10.52h-5.6q-2.8,0-5.56.24A6.049,6.049,0,0,1,43-28.96a6.585,6.585,0,0,1,.12-1.76q3.32.32,8.44.32H68.52q3.96,0,8.44-.32a6.713,6.713,0,0,1,.12,1.78,6.713,6.713,0,0,1-.12,1.78q-3.84-.32-9.68-.32H57.56a57.814,57.814,0,0,1-4.68,10.4H63.76q6.56,0,10.84-.32.24,0,.24.32a41.112,41.112,0,0,0-.24,5.04V-7q0,6.08.32,10.04a4.212,4.212,0,0,1-1.8.2q-1.56,0-1.64-.2a10.976,10.976,0,0,0,.08-1.36V.28H52.96v1.4a11.33,11.33,0,0,0,.08,1.4Q53,3.28,51.48,3.28ZM52.96-2.6h18.6V-14.24H52.96ZM85.44,3.24,82.76,1.92a16.654,16.654,0,0,0,4.36-6.64,9.857,9.857,0,0,1,2.08.8q1.08.56.96.78a.787.787,0,0,1-.4.34,1.2,1.2,0,0,0-.72.72,1.753,1.753,0,0,1-.16.32Q88.32-.64,88-.12A14.4,14.4,0,0,1,85.44,3.24Zm29.28-.12a26.669,26.669,0,0,0-2.16-3.36,36.888,36.888,0,0,0-2.84-3.56l2.64-.92a36.916,36.916,0,0,1,2.9,3.4A31.6,31.6,0,0,1,117.52,2ZM94.48,2.84q0-1.16-.2-3.08-.24-2.12-.52-3.48l2.72-.2a25.6,25.6,0,0,1,.84,6.36Zm9.4,0q-.2-.96-.84-3.08a3.14,3.14,0,0,0-.16-.44q-.68-2.04-1.08-2.96l2.72-.56a34.074,34.074,0,0,1,2.24,6.32ZM82.72-6a5.843,5.843,0,0,1-.12-1.64,5.843,5.843,0,0,1,.12-1.64q3.12.32,7.88.32h7.92v-3.6H92.2q-2.64,0-6.28.28a4.782,4.782,0,0,1-.12-1.5,4.782,4.782,0,0,1,.12-1.5A62.073,62.073,0,0,0,92.2-15h6.32v-3.28H92.56a58.564,58.564,0,0,0-5.96.24q-.16,0-.16-.24a10.7,10.7,0,0,0,.16-2.68v-4.16q0-3.92-.28-6.84,0-.32.28-.32,4.8.32,12,.32h7.36a68.493,68.493,0,0,0,7.32-.32q.16,0,.16.32-.16,1.68-.16,3.4v3.44q0,3.88.28,6.84,0,.24-.28.24a57.843,57.843,0,0,0-5.96-.24h-5.96V-15h6.36q2.68,0,6.32-.28a4.782,4.782,0,0,1,.12,1.5,4.782,4.782,0,0,1-.12,1.5,62.538,62.538,0,0,0-6.32-.28h-6.36v3.6h8q3.72,0,7.96-.32a5.843,5.843,0,0,1,.12,1.64A5.843,5.843,0,0,1,117.32-6q-3.44-.32-8.64-.32H91.36Q87.32-6.32,82.72-6Zm6.64-14.8h9.16v-8.64H89.36Zm12,0h9.04v-8.64h-9.04Zm3.64-.56-1.88-.8a36.054,36.054,0,0,0,3.04-6.32,10.078,10.078,0,0,1,1.68.88q.84.56.72.8a.638.638,0,0,1-.36.28,1.085,1.085,0,0,0-.64.56q-.56,1.12-.88,1.68A31.564,31.564,0,0,1,105-21.36ZM94-21.8a15.293,15.293,0,0,0-.92-2.88,22.082,22.082,0,0,0-1.52-3.08l1.92-.68a18.585,18.585,0,0,1,2.56,5.84ZM126.4,3.24q-1.24,0-1.4-.2a44.051,44.051,0,0,0,.2-4.56V-15.28h-2.24V-21h2.24v-5.56a49.686,49.686,0,0,0-.24-5.52.212.212,0,0,1,.24-.24,48.747,48.747,0,0,0,5.44.24h2.76a24.045,24.045,0,0,0,2.72-.12q.24,0,.24.12a49.684,49.684,0,0,0-.24,5.52V-21h2.32v2.88a26.134,26.134,0,0,0,.12,2.84q-.08.16-1.28.16-1.16,0-1.24-.16.08-.88.08-1.8v-1.8H125.2v2.68h5.44a48.747,48.747,0,0,0,5.44-.24q.32,0,.32.24-.32,3.28-.32,8.24V.28q0,1.8-1.04,2.32a12.39,12.39,0,0,1-4.2.44,6.029,6.029,0,0,0-.8-2.32,26.7,26.7,0,0,0,3.04,0q.44,0,.44-.48v-4.2h-5.88V-.44q0,1.8.16,3.48Q127.68,3.24,126.4,3.24ZM158,2.56a41.111,41.111,0,0,0-5.04-.24H142.88q-2.28,0-5,.2a3.639,3.639,0,0,1-.12-1.32q0-1.16.12-1.24a28.312,28.312,0,0,0,2.96.12h3a16.685,16.685,0,0,0-1.48-4.04l2.12-.72A17.156,17.156,0,0,1,146.2-.12l-.56.2h4.28l-.36-.12a25.182,25.182,0,0,0,1.84-4.68,7.093,7.093,0,0,1,1.86.86q.9.58.74.86a.824.824,0,0,1-.4.32,1.657,1.657,0,0,0-.8.8q-.68,1.36-1,1.96h3.12Q156,.08,158-.08a3.337,3.337,0,0,1,.12,1.3A3.734,3.734,0,0,1,158,2.56Zm-2.36-7a73.5,73.5,0,0,0-7.56-.32h-7.56V-8.44q0-1.84-.16-3.68a.141.141,0,0,1,.16-.16q1.84.16,3.76.16h11.36v3.68q0,1.84.16,3.68Q155.8-4.44,155.64-4.44Zm-28-1.68h5.88v-3h-5.88Zm15.28-.6h10.2v-3.44h-10.2ZM127.64-11.2h5.88v-2.84h-5.88Zm10.96-2.52a4.5,4.5,0,0,1-.12-1.4,3.639,3.639,0,0,1,.12-1.32,47.19,47.19,0,0,0,4.76.2h9.6q2.16,0,4.76-.2a3.546,3.546,0,0,1,.12,1.3,3.546,3.546,0,0,1-.12,1.3,47.19,47.19,0,0,0-4.76-.2h-4.8Q143.64-14.04,138.6-13.72ZM139.76-18q-.12,0-.12-.2a15.1,15.1,0,0,0,.12-2.4V-24a55.126,55.126,0,0,0-.24-5.8q0-.12.24-.12a17.34,17.34,0,0,0,2.32.12h2.32v-1.84q0-.76-.08-1.96a7.9,7.9,0,0,1,1.76.04q1.16.16,1.16.52a2.562,2.562,0,0,0-.64,1.6v1.64h2.76v-1.84q0-.76-.08-1.96a7.9,7.9,0,0,1,1.76.04q1.16.16,1.16.52a2.562,2.562,0,0,0-.64,1.6v1.64h2.4a18.708,18.708,0,0,0,2.4-.12.106.106,0,0,1,.12.12,27.313,27.313,0,0,0-.12,2.88V-24a55.121,55.121,0,0,0,.24,5.8q0,.2-.24.2a36.77,36.77,0,0,0-4.16-.2h-8.32A35.688,35.688,0,0,0,139.76-18ZM142-20.28h2.76v-2.76H142Zm4.6,0h2.76v-2.76H146.6Zm4.56,0h2.92v-2.76h-2.92ZM127.4-21h2.04v-6.2h4.36v-2.6h-6.4V-21Zm3.88,0h2.52v-4.32h-2.52V-21ZM142-25h2.76v-2.72H142Zm4.6,0h2.76v-2.72H146.6Zm4.56,0h2.92v-2.72h-2.92Z" transform="translate(68 798)" fill="#fff"/>
    <path id="路径_6853" data-name="路径 6853" d="M4.98,1.52a.887.887,0,0,1-.54-.1q.12-1.6.12-4.28v-4.3q-.88.06-2.48.2-.7.06-1.02.08L.9-7.8l1.5-.08q.88-1.14,1.36-1.84A14.139,14.139,0,0,0,1.1-12.66l.52-.62.64.58a26.963,26.963,0,0,0,2.02-3.98,3,3,0,0,1,.66.4q.34.26.29.37a.278.278,0,0,1-.19.15.622.622,0,0,0-.32.32A29.91,29.91,0,0,1,2.8-12.16a11.172,11.172,0,0,1,1.48,1.72,35.949,35.949,0,0,0,2.42-4,4.072,4.072,0,0,1,.64.42q.32.28.26.38a.2.2,0,0,1-.16.1.618.618,0,0,0-.34.28,59.925,59.925,0,0,1-3.7,5.3q1.52-.1,3.78-.24A15.761,15.761,0,0,0,6.1-9.98l.76-.34A17.59,17.59,0,0,1,9.02-6.26l-.78.4q-.26-.7-.68-1.58l-2.14.2v6.5a19.939,19.939,0,0,0,.1,2.16Q5.44,1.52,4.98,1.52ZM9.7,1.34a.937.937,0,0,1-.56-.1q.12-1.5.12-4.06v-8.14q0-2.56-.12-4.06a.106.106,0,0,1,.12-.12q1.68.12,4.52.12h2.26a21.79,21.79,0,0,0,2.26-.1q.12,0,.12.1-.12,1.88-.12,5.04v5.04q0,3.74.12,6-.08.1-.56.1t-.5-.1V.9q.02-.2.02-.3V.14H10.14V.7a3.3,3.3,0,0,0,.04.54Q10.16,1.34,9.7,1.34ZM1.74-.26a1.866,1.866,0,0,0-.8-.38A14.878,14.878,0,0,0,2.32-5.46a2.667,2.667,0,0,1,.7.22q.36.16.34.28a.3.3,0,0,1-.14.2.544.544,0,0,0-.22.4q-.18.92-.42,1.8A11.045,11.045,0,0,1,1.74-.26Zm8.4-.5h3.1V-7.14h-3.1Zm3.96,0h3.28V-7.14H14.1V-.76ZM7.8-1.38a11.606,11.606,0,0,0-.5-1.9A20.418,20.418,0,0,0,6.52-5.3l.74-.24A15.716,15.716,0,0,1,8.6-1.64Zm2.34-6.68h3.1V-14.1h-3.1Zm3.96,0h3.28V-14.1H14.1v6.04Zm9,9.62q-.44,0-.52-.1a23.35,23.35,0,0,0,.1-2.36V-5.66a23.6,23.6,0,0,0-.1-2.38q0-.12.1-.12a21.6,21.6,0,0,0,2.56.12h1.3a10.8,10.8,0,0,0,1.28-.06q.12,0,.12.06-.12,1.56-.12,4.2V.38q0,.74-.46.92a8.751,8.751,0,0,1-2.1.14,3.143,3.143,0,0,0-.32-.78,16.4,16.4,0,0,0,1.72,0q.3,0,.3-.28V-2.14H23.54v1.8q0,.92.08,1.8Q23.56,1.56,23.1,1.56Zm5.66-.44A1.183,1.183,0,0,1,28.7.61a1.028,1.028,0,0,1,.06-.49q.8.08,1.62.08h1.64a7.492,7.492,0,0,0-.74-2.22l.74-.24a6.84,6.84,0,0,1,.8,2.3L32.38.2H35.2L34.8.04a16.452,16.452,0,0,0,.9-2.32,3.669,3.669,0,0,1,.64.34q.32.24.27.35a.351.351,0,0,1-.17.17.619.619,0,0,0-.32.34l-.18.36q-.3.64-.44.92h1.72q.58,0,1.7-.08a1.028,1.028,0,0,1,.06.49,1.183,1.183,0,0,1-.06.51A20.771,20.771,0,0,0,36.38,1H31.3Q30.02,1,28.76,1.12Zm1.46-3.4q-.04,0-.04-.12a4.082,4.082,0,0,0,.04-.72V-4.2q0-.92-.08-1.8a.071.071,0,0,1,.08-.08q.92.08,1.84.08h3.68q.92,0,1.84-.08.04,0,.04.08-.04.44-.04.9v.9q0,.92.08,1.8a.071.071,0,0,1-.08.08q-.92-.08-1.84-.08H33.9Q31.6-2.4,30.22-2.28Zm-6.68-.64h3.42v-1.8H23.54Zm7.52-.22h5.66V-5.26H31.06ZM23.54-5.52h3.42V-7.26H23.54Zm5.54-1.52a1.312,1.312,0,0,1-.06-.52,1.146,1.146,0,0,1,.06-.5q1,.1,2.42.1h4.88q1.1,0,2.44-.1a1.146,1.146,0,0,1,.06.5,1.146,1.146,0,0,1-.06.5q-1-.1-2.44-.1H33.94Q31.52-7.16,29.08-7.04Zm-7.1-.6q-.4,0-.44-.08a12.354,12.354,0,0,0,.06-1.36v-1.36h1.1v-2.74a24.374,24.374,0,0,0-.12-2.72.106.106,0,0,1,.12-.12,21.6,21.6,0,0,0,2.56.12h1.28a10.8,10.8,0,0,0,1.28-.06q.12,0,.12.06a24.374,24.374,0,0,0-.12,2.72v2.74h1.12v1.36A12.353,12.353,0,0,0,29-7.72q-.04.08-.46.08-.4,0-.44-.08.04-.48.04-.96v-.98H22.38v.98q0,.48.04.96Q22.4-7.64,21.98-7.64Zm7.8-1.4q-.06,0-.06-.1a6.945,6.945,0,0,0,.06-1.16v-1.64a25.079,25.079,0,0,0-.12-2.78q0-.06.12-.06a9.646,9.646,0,0,0,1.2.06H32.2v-.98q0-.4-.04-1.04a2.374,2.374,0,0,1,.68.02q.46.08.46.26a1.351,1.351,0,0,0-.32.86v.88H34.7v-.98q0-.4-.04-1.04a2.374,2.374,0,0,1,.68.02q.46.08.46.26a1.351,1.351,0,0,0-.32.86v.88h1.28a9.982,9.982,0,0,0,1.26-.06.053.053,0,0,1,.06.06,12.493,12.493,0,0,0-.06,1.4v1.4a25.08,25.08,0,0,0,.12,2.78q0,.1-.12.1a17.844,17.844,0,0,0-2.06-.1H31.84A17.844,17.844,0,0,0,29.78-9.04Zm.78-.86h1.72v-1.66H30.56Zm2.42,0H34.7v-1.66H32.98Zm2.42,0h1.8v-1.66H35.4Zm-11.9-.54h1.24v-1.54a14.7,14.7,0,0,0-.08-1.54q0-.06.08-.06a8.281,8.281,0,0,0,1.12.06H27V-15.1H23.5v4.66Zm1.98,0H27v-2.34H25.48v2.34Zm5.08-1.9h1.72v-1.62H30.56Zm2.42,0H34.7v-1.62H32.98Zm2.42,0h1.8v-1.62H35.4Z" transform="translate(572 801)" fill="#fff"/>
    <path id="路径_6854" data-name="路径 6854" d="M10.26,1.64a1.868,1.868,0,0,1-.86-.1,22.266,22.266,0,0,0,.12-2.62V-3.72H4.66v2.18A20.164,20.164,0,0,0,4.76.64q-.08.1-.82.1A1.8,1.8,0,0,1,3.1.64a26.72,26.72,0,0,0,.12-2.86V-3.66a12.733,12.733,0,0,0-.06-1.42q0-.14.06-.14a31.036,31.036,0,0,0,3.14.14H9.52V-6.72H4.96v-2.1a18.6,18.6,0,0,0-.1-2.1q0-.12.1-.12a21.6,21.6,0,0,0,2.56.12H15.2v2.1a18.6,18.6,0,0,0,.1,2.1.088.088,0,0,1-.1.1,18.6,18.6,0,0,0-2.1-.1H10.98v1.64H14a29.176,29.176,0,0,0,3-.12q.1,0,.1.12A18.385,18.385,0,0,0,17-3V-.9a2.11,2.11,0,0,1-.16.92,1.014,1.014,0,0,1-.59.48,4.7,4.7,0,0,1-1.23.22q-.5.02-1.88.02a5.65,5.65,0,0,0-.52-1.36q1.86.06,2.52.02.38-.02.38-.32v-2.8H10.98v2.64a22.266,22.266,0,0,0,.12,2.62Q11.02,1.64,10.26,1.64ZM6.36-7.84h7.38V-9.8H6.36ZM2.64-9.28a1.935,1.935,0,0,1-.8-.08,19.039,19.039,0,0,0,.1-2.14v-2.14H5.08A12.116,12.116,0,0,0,3.56-16l1.28-.54A10.251,10.251,0,0,1,6.52-14.2l-1.22.56H9.4V-15.2q0-.7-.08-1.62a7.044,7.044,0,0,1,1.18.02q.76.08.76.26a2.4,2.4,0,0,0-.4,1.28v1.62H18.2v2.14a19.039,19.039,0,0,0,.1,2.14,2.02,2.02,0,0,1-.82.08q-.74,0-.78-.08a14.156,14.156,0,0,0,.06-1.48v-1.5H3.34v1.5A14.156,14.156,0,0,0,3.4-9.36Q3.36-9.28,2.64-9.28Zm12-4.36-1.18-.5a13.015,13.015,0,0,0,1.64-2.44,7.137,7.137,0,0,1,1.09.52q.51.3.44.38a.311.311,0,0,1-.19.1.483.483,0,0,0-.34.2q-.18.26-.5.64Q15-14,14.64-13.64ZM27.8,1.5A2.979,2.979,0,0,0,26.98.38,5.766,5.766,0,0,0,30.04-1.7a7.061,7.061,0,0,0,1.08-3.2H29.54v-5.54q0-3.32-.16-5.52a.141.141,0,0,1,.16-.16q1.66.16,4.18.16h2.1a18.385,18.385,0,0,0,2.08-.1q.12,0,.12.1a24.843,24.843,0,0,0-.12,2.76v5.54a24.843,24.843,0,0,0,.12,2.76q0,.06-.12.06a8.67,8.67,0,0,0-1.16-.06H35.56V-.66a.667.667,0,0,0,.09.43.623.623,0,0,0,.41.09H37.3q.32,0,.42-.45a15.509,15.509,0,0,0,.14-2.19,3.158,3.158,0,0,0,1.22.56A7.787,7.787,0,0,1,38.66.49a1.24,1.24,0,0,1-1.22.69H35.86a1.656,1.656,0,0,1-1.32-.4,2.4,2.4,0,0,1-.3-1.44V-4.9H32.48a8.821,8.821,0,0,1-1.22,3.88A6.6,6.6,0,0,1,27.8,1.5Zm-5.82-.2A3.507,3.507,0,0,0,21,.22q2.98-2.26,3.3-7.7H22.7q-.54,0-1.58.08a2.15,2.15,0,0,1-.06-.75q0-.69.06-.71.4.04.8.04h2.44V-12.1H22.94q-.7,0-1.4.06a1.888,1.888,0,0,1-.06-.72,1.888,1.888,0,0,1,.06-.72,12.826,12.826,0,0,0,1.4.06h1.42v-1.56q0-.7-.08-1.62a6.127,6.127,0,0,1,1.1.02q.72.08.72.26a2.4,2.4,0,0,0-.4,1.28v1.62h1.4q.7,0,1.38-.06a1.888,1.888,0,0,1,.06.72,1.888,1.888,0,0,1-.06.72,12.256,12.256,0,0,0-1.38-.06H25.7v3.28h1.56q.52,0,1.56-.08a2.15,2.15,0,0,1,.06.75,2.15,2.15,0,0,1-.06.75,15.1,15.1,0,0,0-1.58-.08l-1.6.02v.04q-.04.74-.08,1.1,1.5,1.54,3.34,3.76l-1,1.1A37.58,37.58,0,0,0,25.34-4.8,10.3,10.3,0,0,1,21.98,1.3ZM30.9-6.24h5.58v-2H30.9Zm0-3.22h5.58v-1.96H30.9Zm0-3.2h5.58V-14.6H30.9Z" transform="translate(628 801)" fill="#fff"/>
    <path id="路径_6855" data-name="路径 6855" d="M1.78,1.44.88-.38Q2.4-1.48,3.52-2.42V-5.94H2.3q-.6,0-1.2.06a2.973,2.973,0,0,1-.06-.92,3.514,3.514,0,0,1,.06-.96,18.385,18.385,0,0,0,2.08.1H5.26v5.08Q6.54-.6,9.92-.48q1.74.08,4.48.04,2.88-.04,4.66-.18a5.6,5.6,0,0,0-.58,1.8q-4.54.2-8.54.06a9.631,9.631,0,0,1-3.2-.6A5.522,5.522,0,0,1,4.5-1.06Q3.58-.14,1.78,1.44ZM7.66-1.44a2.779,2.779,0,0,1-.96-.08,22.266,22.266,0,0,0,.12-2.62v-7.88h2.4a6.764,6.764,0,0,0-.68-1.62l.58-.14H6.22v-.38l-1.28,1.2a8.162,8.162,0,0,0-1.32-1.26,17.469,17.469,0,0,0-1.7-1.22L3.1-16.56A12.433,12.433,0,0,1,6.22-14.2v-1.04h5.22V-16q0-.32-.04-.84a8.54,8.54,0,0,1,1.3.02q.82.08.82.26a.938.938,0,0,0-.32.66v.66h2.74q1.4,0,2.74-.12a2.769,2.769,0,0,1,.06.84,2.292,2.292,0,0,1-.06.8,11.021,11.021,0,0,0-1.3-.06H16.06l.24.06q-.44.92-.9,1.7h2.7v8.68a2.582,2.582,0,0,1-.14.98,1.047,1.047,0,0,1-.56.56,6.824,6.824,0,0,1-2.5.3,7.651,7.651,0,0,0-.5-1.56,15.45,15.45,0,0,0,1.72.02.265.265,0,0,0,.3-.3v-7.22H13.08v1.22H14.4q.66,0,1.32-.06a1.612,1.612,0,0,1,.06.66,1.612,1.612,0,0,1-.06.66,11.245,11.245,0,0,0-1.32-.06H13.08v1.26h1.98v1.86q0,.92.08,1.84a.071.071,0,0,1-.08.08q-.96-.08-1.98-.08H11.1v.34a1.654,1.654,0,0,0,.02.22v.12q-.02.08-.68.08A1.692,1.692,0,0,1,9.7-2.5a20.164,20.164,0,0,0,.1-2.18v-2.2h1.9V-8.14H10.38q-.66,0-1.3.06a1.612,1.612,0,0,1-.06-.66,1.612,1.612,0,0,1,.06-.66,11.021,11.021,0,0,0,1.3.06H11.7v-1.22H8.48v4.52a43.221,43.221,0,0,0,.2,4.52A3.34,3.34,0,0,1,7.66-1.44ZM11.1-4.3h2.64V-5.78H11.1ZM4.4-9A9.342,9.342,0,0,0,3-10.26,13.381,13.381,0,0,0,1.18-11.4l1.2-1.16a12.9,12.9,0,0,1,1.8,1.06,9.327,9.327,0,0,1,1.46,1.22Zm6.42-3.02h2.92a10.38,10.38,0,0,0,.72-1.76H10.22a7.347,7.347,0,0,1,.68,1.74ZM29.96,1.66a2.857,2.857,0,0,1-1.1-.1A31.5,31.5,0,0,0,29-1.62V-4.8H23.92v.6a4.1,4.1,0,0,0,.04.58q-.02.08-.96.08a2.867,2.867,0,0,1-1-.08q.1-1,.1-2.4v-4.84q0-1.42-.1-2.42,0-.14.1-.14,1.5.14,3.44.14H29v-1.74q0-.82-.08-1.82a11.4,11.4,0,0,1,1.5.02q.96.08.96.26a3.087,3.087,0,0,0-.48,1.6v1.68h3.5q2,0,3.5-.14.1,0,.1.14a23.6,23.6,0,0,0-.1,2.38v2.4q0,2.82.2,4.78a3.917,3.917,0,0,1-1.12.08,2.738,2.738,0,0,1-1.02-.08A3.3,3.3,0,0,0,36-4.26V-4.8H30.9v3.18a31.5,31.5,0,0,0,.14,3.18A2.766,2.766,0,0,1,29.96,1.66ZM23.92-6.62H29v-4.84H23.92Zm6.98,0H36v-4.84H30.9Z" transform="translate(684 801)" fill="#fff"/>
    <path id="路径_6856" data-name="路径 6856" d="M5.06,1.8a3.432,3.432,0,0,1-1.22-.1q.14-1.44.14-3.28v-3.3A17.9,17.9,0,0,1,1.92-.46,13.746,13.746,0,0,0,.84-2.92,17.688,17.688,0,0,0,3.46-8.1H2.3a11.075,11.075,0,0,0-1.14.06A4.679,4.679,0,0,1,1.1-9.21a4.679,4.679,0,0,1,.06-1.17,12.826,12.826,0,0,0,1.4.06H3.98v-3.3q0-1.8-.14-3.38a14.874,14.874,0,0,1,1.72.02q1.06.08,1.06.26a4.26,4.26,0,0,0-.48,1.92v4.48H7.46q.66,0,1.32-.06a4.679,4.679,0,0,1,.06,1.17,4.679,4.679,0,0,1-.06,1.17A11.245,11.245,0,0,0,7.46-8.1H6.14v.32q.52.5,1.52,1.62.96,1.08,1.26,1.48L7.52-2.8A25.365,25.365,0,0,0,6.14-5.18V-.02q0,.88.08,1.72A2.924,2.924,0,0,1,5.06,1.8ZM7.9,1.6A7.345,7.345,0,0,1,7.84.28,4.431,4.431,0,0,1,7.9-.88q.44.04.9.04h.9v-9.32a59.075,59.075,0,0,0-.24-6q0-.16.24-.16,1.6.16,4,.16h2q1,0,2-.08.16,0,.16.08a37.241,37.241,0,0,0-.16,3.82V-.84h.74q.24,0,.72-.04A4.357,4.357,0,0,1,19.22.27a5.355,5.355,0,0,1-.06,1.21,25.893,25.893,0,0,0-2.82-.12H13.52Q10.7,1.36,7.9,1.6ZM11.94-.84h3.42V-3.88H11.94Zm0-5.16h3.42V-8.94H11.94Zm-9.9-4.78a14.482,14.482,0,0,0-.3-2.24,16.73,16.73,0,0,0-.6-2.38l1.62-.42a15.433,15.433,0,0,1,.68,2.36,14.6,14.6,0,0,1,.34,2.22Zm5.6-.04-1.48-.42a28.05,28.05,0,0,0,1.1-4.7,8.531,8.531,0,0,1,1.46.46q.72.28.66.46a.364.364,0,0,1-.18.22.876.876,0,0,0-.34.52q-.06.2-.2.63T8.44-13Q8.04-11.76,7.64-10.82Zm4.3-.24h3.42v-2.9H11.94ZM23.32,1.84a3.474,3.474,0,0,1-1.16-.1,45.126,45.126,0,0,0,.2-4.62V-7.52H21.2v-3.12h1.12v-2.84a26.135,26.135,0,0,0-.12-2.84q0-.14.12-.14a29.976,29.976,0,0,0,3.08.14h3.08v5.68h1.16v2.26h4.68q2.1,0,4.66-.2a4.052,4.052,0,0,1,.06.97,3.192,3.192,0,0,1-.06.91,23.107,23.107,0,0,0-2.34-.1H29.62v-.72H28.4V-.26A3.461,3.461,0,0,1,28.28.78a1.225,1.225,0,0,1-.54.62,2.205,2.205,0,0,1-.88.3q-.38.04-1.22.04a6.678,6.678,0,0,0-.52-1.8q.46.02,1.08.02a.215.215,0,0,0,.22-.24V-1.66h-2.1V.04q0,.86.08,1.7Q24.34,1.84,23.32,1.84Zm5.9-.24a3.383,3.383,0,0,1-.06-.94,2.853,2.853,0,0,1,.06-.9,10.064,10.064,0,0,0,1.24.06h1.26A7.453,7.453,0,0,0,31-1.82l1.2-.44H30.32V-4.22q0-.98-.08-1.94,0-.16.08-.16,1.6.16,4,.16h2.02q1,0,2-.08a.071.071,0,0,1,.08.08q-.08.96-.08,1.94v1.96H36.48l1.18.28q-.4.76-1.02,1.8h1.28q.66,0,1.28-.06a2.853,2.853,0,0,1,.06.9,3.383,3.383,0,0,1-.06.94q-1.04-.1-2.5-.1h-5Q30.58,1.5,29.22,1.6ZM33.56-.18H34.9a14.211,14.211,0,0,0,.78-2.08h-3A6.473,6.473,0,0,1,33.56-.18ZM24.32-3.26h2.1v-.92h-2.1Zm7.88-.4h4.18v-1.1H32.2ZM24.32-5.74h2.1v-.88h-2.1ZM22.86-8.22H27.9v-.8H22.86Zm7.18-.74q-.14,0-.14-.1a11.788,11.788,0,0,0,.14-2.5v-3.7h2.18v-.84q0-.34-.04-.9a7.261,7.261,0,0,1,1.2.02q.78.08.78.26a1.091,1.091,0,0,0-.32.72v.74h.84v-.84q0-.34-.04-.9a7.526,7.526,0,0,1,1.22.02q.8.08.8.26a1.091,1.091,0,0,0-.32.72v.74H38.6v3.1a30.2,30.2,0,0,0,.14,3.1q0,.1-.14.1a19.039,19.039,0,0,0-2.14-.1H32.18A19.039,19.039,0,0,0,30.04-8.96Zm1.7-1.62h.84v-.88h-.84Zm2.1,0h.84v-.88h-.84Zm2.1,0h.86v-.88h-.86v.88Zm-11.96-.06h.68v-3.18h2.06v-.82H23.98v4Zm1.92,0h.82v-1.84H25.9v1.84Zm5.84-2.26h.84v-.86h-.84Zm2.1,0h.84v-.86h-.84v.86Zm2.1,0h.86v-.86h-.86Z" transform="translate(740 801)" fill="#fff"/>
    <path id="路径_6857" data-name="路径 6857" d="M5.36,2a4.626,4.626,0,0,1-1.44-.1q.14-1.4.14-3.24V-4.6q-1.54.48-2.76.82L.64-6.56q1.02-.22,3.42-.84v-3.32H3.04A16.044,16.044,0,0,1,2.38-8.4,14.172,14.172,0,0,0,.4-9.72a24.623,24.623,0,0,0,1-6.36,16.324,16.324,0,0,1,1.74.38q.88.26.86.4a.277.277,0,0,1-.14.22.632.632,0,0,0-.22.48,8.432,8.432,0,0,1-.12,1.12h.54V-15.3q0-.84-.08-1.88a18.946,18.946,0,0,1,1.94.02q1.22.08,1.22.26a3.393,3.393,0,0,0-.48,1.7v1.72H8.08v1.8H12.2v-1.24H10.54q-.56,0-1.64.08a6.712,6.712,0,0,1-.06-1.39,6.712,6.712,0,0,1,.06-1.39q.8.08,1.64.08H12.2v-.8q0-.34-.04-.86a19.3,19.3,0,0,1,1.96.02q1.22.08,1.22.26a.956.956,0,0,0-.32.68v.7h1.72q.58,0,1.7-.08a6.712,6.712,0,0,1,.06,1.39,6.712,6.712,0,0,1-.06,1.39q-.84-.08-1.7-.08H15.02v1.24h2.14q.98,0,2.14-.1a7.3,7.3,0,0,1,.06,1.43,6.5,6.5,0,0,1-.06,1.39Q18.82-9,18.3-9H17.28v1.48h.9q.32,0,.88-.04a6.035,6.035,0,0,1,.06,1.36,6.414,6.414,0,0,1-.06,1.38q-.44-.04-.88-.04h-.9v3.62A4.881,4.881,0,0,1,17.06.42a1.817,1.817,0,0,1-.9.94,8.65,8.65,0,0,1-3.52.5,9.372,9.372,0,0,0-.84-2.88q.84.04,2.24.04a.581.581,0,0,0,.32-.06.318.318,0,0,0,.08-.26V-4.86h-3.3A16.856,16.856,0,0,1,13.08-2.3L10.84-.8A14.289,14.289,0,0,0,8.7-3.88l1.54-.98H8.2v-1l-1.54.48V.08q0,.94.08,1.82A4.03,4.03,0,0,1,5.36,2ZM8.38-7.52h6.06V-9H7.72v-1.72H6.66v2.6l1.56-.42ZM25.02,1.94a4.626,4.626,0,0,1-1.44-.1,27.314,27.314,0,0,0,.12-2.88V-3.92A16.936,16.936,0,0,1,21.94-.1,19.139,19.139,0,0,0,20.7-3.14a15.911,15.911,0,0,0,2.32-4.62h-1q-.36,0-1,.04a6.593,6.593,0,0,1-.06-1.4,6.593,6.593,0,0,1,.06-1.4,11.472,11.472,0,0,0,1.34.06H23.7v-.82l-2,.52a16.263,16.263,0,0,0-.24-2.3,18.063,18.063,0,0,0-.56-2.48l1.96-.5a17.66,17.66,0,0,1,.84,3.68v-2.36q0-1.32-.1-2.42.98-.04,2.02.02,1.28.08,1.28.26a5.12,5.12,0,0,0-.38.84,3.918,3.918,0,0,0-.18,1.24v2.34q.44-1.92.68-3.74a7.609,7.609,0,0,1,1.76.6q.88.42.8.72a.7.7,0,0,1-.28.38,1.7,1.7,0,0,0-.54.9q-.58,1.88-.94,2.72l-1.48-.4v.8h1.24q.62,0,1.22-.06a6.684,6.684,0,0,1,.06,1.41A6.684,6.684,0,0,1,28.8-7.7a9.56,9.56,0,0,0-1.22-.06H26.34v.22q1.18,1.08,2.72,2.78L27.38-2.5q-.3-.62-1.04-1.86V.3a14.7,14.7,0,0,0,.08,1.54A4.139,4.139,0,0,1,25.02,1.94ZM28,1.8A9.818,9.818,0,0,1,27.94.24,6.386,6.386,0,0,1,28-1.16q.4.04.8.04h.82v-9.2a59.076,59.076,0,0,0-.24-6q0-.18.24-.18a38.24,38.24,0,0,0,4.18.18h4.18v15.2h.68q.22,0,.66-.04A6.3,6.3,0,0,1,39.38.23a7.491,7.491,0,0,1-.06,1.45,25.893,25.893,0,0,0-2.82-.12H33.66Q30.82,1.56,28,1.8Zm4.36-2.92h2.76v-2.5H32.36Zm0-5.08h2.76V-8.66H32.36Zm0-5.04h2.76v-2.4H32.36Z" transform="translate(796 801)" fill="#fff"/>
    <g id="组_4853" data-name="组 4853" transform="translate(0 905)">
      <rect id="矩形_3599" data-name="矩形 3599" width="872" height="56" fill="#51b5db"/>
      <path id="路径_6864" data-name="路径 6864" d="M-84.432.312a7.625,7.625,0,0,1-5.592-2.328l1.08-1.44a5.988,5.988,0,0,0,4.32,1.944,3.5,3.5,0,0,0,2.64-1.1,4.273,4.273,0,0,0,1.1-3.048,4.173,4.173,0,0,0-.984-2.94,3.445,3.445,0,0,0-2.664-1.068,4.3,4.3,0,0,0-1.536.264,7.015,7.015,0,0,0-1.392.768l-1.176-.72.552-8.232h6.432q.744,0,2.136-.1a3.3,3.3,0,0,1,.072,1.032,3.929,3.929,0,0,1-.072,1.08,29.811,29.811,0,0,0-3.312-.144H-86.16l-.432,5.088a5.3,5.3,0,0,1,2.616-.7,5.214,5.214,0,0,1,3.744,1.344,5.609,5.609,0,0,1,1.56,4.26,5.883,5.883,0,0,1-1.752,4.452A5.587,5.587,0,0,1-84.432.312ZM-65.856,1.9q-.864,0-.96-.12a24.468,24.468,0,0,0,.12-2.64V-8.832A23.843,23.843,0,0,1-70.1-2.544a7.134,7.134,0,0,0-.888-1.632,17.672,17.672,0,0,0,2.232-3.36,28.507,28.507,0,0,0,1.824-4.152h-1.8q-.888,0-1.8.072a2.5,2.5,0,0,1-.072-.912,2.768,2.768,0,0,1,.072-.936q.96.1,1.92.1h1.92v-3.648q-1.248.264-3.432.6a5.819,5.819,0,0,0-.552-1.392,31.221,31.221,0,0,0,7.464-1.92,4.635,4.635,0,0,1,.756,1.14q.3.636.108.708a.364.364,0,0,1-.336-.024.958.958,0,0,0-.7.024q-.7.216-1.632.456v4.056h1.488q.744,0,1.464-.072a2.5,2.5,0,0,1,.072.912,2.5,2.5,0,0,1-.072.912,11.473,11.473,0,0,0-1.464-.072h-1.488v1.464a21.431,21.431,0,0,1,1.7,1.68q1.056,1.08,1.512,1.608L-62.88-5.52A19.276,19.276,0,0,0-65.016-8.5V-3.36q0,3.1.192,5.136A2.343,2.343,0,0,1-65.856,1.9Zm2.712-.408A2.66,2.66,0,0,1-63.216.6a2.66,2.66,0,0,1,.072-.888,28.3,28.3,0,0,0,3.216.144h3.216V-2.016h-2.544q-1.152,0-2.544.12a2.416,2.416,0,0,1-.072-.84,2.416,2.416,0,0,1,.072-.84,22.583,22.583,0,0,0,2.544.12h2.544v-1.7h-2.424a20.906,20.906,0,0,0-2.424.12q-.1,0-.1-.12a5.688,5.688,0,0,0,.1-1.512V-9a37.8,37.8,0,0,0-.168-3.816q0-.12.168-.12a20.906,20.906,0,0,0,2.424.12h2.424v-1.608H-59.64q-1.3,0-2.9.12a2.475,2.475,0,0,1-.072-.852,2.475,2.475,0,0,1,.072-.852q1.2.12,2.9.12h2.928V-17.5q-2.136.144-5.016.24a3.73,3.73,0,0,0-.384-1.344,70.389,70.389,0,0,0,11.4-1.176l1.056,1.344a44.741,44.741,0,0,1-5.376.792v1.752h2.712q1.224,0,2.712-.12a2.475,2.475,0,0,1,.072.852,2.475,2.475,0,0,1-.072.852,26.149,26.149,0,0,0-2.712-.12h-2.712v1.608h2.5a21.412,21.412,0,0,0,2.472-.12q.1,0,.1.12-.1.96-.1,1.92v1.92A37.8,37.8,0,0,0-49.9-5.16q0,.12-.168.12a21.412,21.412,0,0,0-2.472-.12h-2.5v1.7h2.544q1.128,0,2.52-.12a2.416,2.416,0,0,1,.072.84,2.416,2.416,0,0,1-.072.84,22.321,22.321,0,0,0-2.52-.12h-2.544V-.144h2.952q1.32,0,2.928-.12a2.6,2.6,0,0,1,.072.876,2.6,2.6,0,0,1-.072.876,33.372,33.372,0,0,0-3.5-.144h-7.008Q-61.416,1.344-63.144,1.488ZM-60-6.5h3.288v-1.92H-60Zm4.968,0h3.384v-1.92h-3.384ZM-60-9.6h3.288v-1.872H-60Zm4.968,0h3.384v-1.872h-3.384Zm14.88,11.376A6.916,6.916,0,0,0-40.968.024q2.64.072,3.528.024A.8.8,0,0,0-37-.072a.434.434,0,0,0,.108-.336V-5.52h-4.56q-2.136,0-4.56.192a3.875,3.875,0,0,1-.072-1.044,3.875,3.875,0,0,1,.072-1.044,44.394,44.394,0,0,0,4.56.192h4.56V-9h.864a17.9,17.9,0,0,0,3.312-2.544h-4.776q-2.208,0-4.752.192a3.651,3.651,0,0,1-.072-1.008,3.048,3.048,0,0,1,.072-.96,27.44,27.44,0,0,0,2.784.12h8.376l.384-.1,1.152.888a20.733,20.733,0,0,1-5.52,4.44v.744h4.584q2.136,0,4.56-.192a3.875,3.875,0,0,1,.072,1.044,3.875,3.875,0,0,1-.072,1.044,44.394,44.394,0,0,0-4.56-.192h-4.584V-.384A2.45,2.45,0,0,1-35.316.84a1.539,1.539,0,0,1-.852.648A16.416,16.416,0,0,1-40.152,1.776Zm-4.8-13.56a2.424,2.424,0,0,1-.984-.1,27.729,27.729,0,0,0,.12-2.808V-16.1a10.4,10.4,0,0,0-.072-1.392q0-.192.072-.192a42.511,42.511,0,0,0,4.44.192h4.44v-1.32a11.829,11.829,0,0,0-.072-1.392,8.146,8.146,0,0,1,1.392.024q.864.1.864.312a2.1,2.1,0,0,0-.384,1.176v1.2h4.464a42.8,42.8,0,0,0,4.464-.192q.072,0,.072.192a10.4,10.4,0,0,0-.072,1.392v1.416a27.729,27.729,0,0,0,.12,2.808,2.528,2.528,0,0,1-1.008.1,2.41,2.41,0,0,1-1.008-.1q.1-.96.1-1.968v-1.968h-16.08v1.968q0,1.008.1,1.968A2.209,2.209,0,0,1-44.952-11.784ZM-22.44,1.272a3.155,3.155,0,0,1-.072-.924,3.155,3.155,0,0,1,.072-.924q1.872.192,4.752.192h4.752V-2.448h-3.888q-1.632,0-3.864.168a2.8,2.8,0,0,1-.072-.888,2.8,2.8,0,0,1,.072-.888q1.68.168,3.864.168h3.888V-5.544h-3.528a33.372,33.372,0,0,0-3.5.144q-.1,0-.1-.144a5.273,5.273,0,0,0,.1-1.464V-9.24a35.533,35.533,0,0,0-.168-3.7q0-.144.168-.144a33.371,33.371,0,0,0,3.5.144h3.528v-1.44h-4.7q-2.184,0-4.68.192a3.155,3.155,0,0,1-.072-.924,3.155,3.155,0,0,1,.072-.924,46.765,46.765,0,0,0,4.68.192h4.7v-1.728q-3.36.24-7.248.312a3.847,3.847,0,0,0-.384-1.416,104.785,104.785,0,0,0,15.72-1.272l.936,1.392q-2.544.48-7.32.864v1.848h4.8q2.232,0,4.776-.192a3.155,3.155,0,0,1,.072.924,3.155,3.155,0,0,1-.072.924q-1.872-.192-4.776-.192h-4.8v1.44h3.7A35.26,35.26,0,0,0-3.864-13.1q.1,0,.1.168a17.642,17.642,0,0,0-.1,1.848V-9.24a35.971,35.971,0,0,0,.168,3.7.148.148,0,0,1-.168.168,35.26,35.26,0,0,0-3.672-.168h-3.7v1.656H-7.1q1.7,0,4.1-.168a2.8,2.8,0,0,1,.072.888A2.8,2.8,0,0,1-3-2.28q-1.752-.168-4.1-.168h-4.128V-.384H-6.36q2.28,0,4.848-.192A3.155,3.155,0,0,1-1.44.348a3.155,3.155,0,0,1-.072.924Q-3.576,1.08-6.744,1.08H-17.208Q-19.68,1.08-22.44,1.272Zm4.176-8.088h5.328V-8.64h-5.328Zm7.032,0h5.616V-8.64h-5.616ZM-18.264-9.84h5.328v-1.8h-5.328Zm7.032,0h5.616v-1.8h-5.616Z" transform="translate(836 36)" fill="#fff"/>
    </g>
    <path id="路径_6858" data-name="路径 6858" d="M15.52.52a12.143,12.143,0,0,1-9.48-4Q2.32-7.6,2.32-14.62T6.12-25.8a12.444,12.444,0,0,1,9.64-4.08,11.081,11.081,0,0,1,8.44,3.64l-2,2.4a8.428,8.428,0,0,0-6.36-2.8,8.707,8.707,0,0,0-7.08,3.2q-2.64,3.2-2.64,8.68,0,5.6,2.52,8.8a8.764,8.764,0,0,0,7.24,3.24A7.51,7.51,0,0,0,21.2-4.44v-7.68H18.08q-1.08,0-3.08.16a5.389,5.389,0,0,1-.12-1.7A5.893,5.893,0,0,1,15-15.4q2,.2,4.8.2h2.4a18.708,18.708,0,0,0,2.4-.12q.16,0,.16.12a29.4,29.4,0,0,0-.16,3.08v9.24A10.8,10.8,0,0,1,20.84-.44,14.4,14.4,0,0,1,15.52.52ZM40,.52a9.758,9.758,0,0,1-7.36-3,11.552,11.552,0,0,1-3.04-8.36,11.908,11.908,0,0,1,3-8.36,8.933,8.933,0,0,1,6.8-3.08,7.911,7.911,0,0,1,6.4,2.76,11.362,11.362,0,0,1,2.24,7.44A13.66,13.66,0,0,1,47.88-10H33.24a8.235,8.235,0,0,0,2.14,5.54A6.713,6.713,0,0,0,40.44-2.4a9.587,9.587,0,0,0,5.44-1.72l1.32,2.4A13.129,13.129,0,0,1,40,.52ZM33.2-12.6H44.84a7.765,7.765,0,0,0-1.42-5.02,4.85,4.85,0,0,0-3.98-1.74,5.558,5.558,0,0,0-4.12,1.76A8.2,8.2,0,0,0,33.2-12.6ZM53.4,0V-21.72h3l.32,3.12h.12a16.046,16.046,0,0,1,3.32-2.6,7.978,7.978,0,0,1,3.96-1.08q6.64,0,6.64,8.52V0H67.12V-13.28a7.771,7.771,0,0,0-.98-4.42A3.584,3.584,0,0,0,63-19.08a5.732,5.732,0,0,0-3,.84,16.312,16.312,0,0,0-2.96,2.48V0ZM83.52.52a12.362,12.362,0,0,1-4.44-.84A13.367,13.367,0,0,1,75.4-2.48l1.8-2.4a10.179,10.179,0,0,0,6.44,2.56,4.807,4.807,0,0,0,3.24-1,3.053,3.053,0,0,0,1.04-2.4,3.094,3.094,0,0,0-1.56-2.56,18.6,18.6,0,0,0-3.4-1.56,16.662,16.662,0,0,1-4.36-2.2,4.976,4.976,0,0,1-2.12-4.08,5.473,5.473,0,0,1,1.96-4.36,8.139,8.139,0,0,1,5.52-1.8,10.862,10.862,0,0,1,6.76,2.44l-1.76,2.36a8.5,8.5,0,0,0-5-1.92,4.484,4.484,0,0,0-3,.92A2.761,2.761,0,0,0,80-16.3a2.6,2.6,0,0,0,1.32,2.22,16.94,16.94,0,0,0,3.08,1.4,3.14,3.14,0,0,0,.44.16l.04.04a18.153,18.153,0,0,1,4.48,2.2,5.274,5.274,0,0,1,2.08,4.36A5.7,5.7,0,0,1,89.4-1.4,8.441,8.441,0,0,1,83.52.52Zm21.8,0a9.758,9.758,0,0,1-7.36-3,11.552,11.552,0,0,1-3.04-8.36,11.908,11.908,0,0,1,3-8.36,8.933,8.933,0,0,1,6.8-3.08,7.911,7.911,0,0,1,6.4,2.76,11.362,11.362,0,0,1,2.24,7.44A13.66,13.66,0,0,1,113.2-10H98.56a8.235,8.235,0,0,0,2.14,5.54,6.713,6.713,0,0,0,5.06,2.06,9.587,9.587,0,0,0,5.44-1.72l1.32,2.4A13.129,13.129,0,0,1,105.32.52ZM98.52-12.6h11.64a7.765,7.765,0,0,0-1.42-5.02,4.85,4.85,0,0,0-3.98-1.74,5.558,5.558,0,0,0-4.12,1.76A8.2,8.2,0,0,0,98.52-12.6ZM118.72,0V-31.84h3.6v21.6h.08l9.32-11.48h4.04L128.48-13l8.24,13h-3.96L126.4-10.48l-4.08,4.76V0ZM140.8,0V-21.72h3.64V0Zm1.84-26.2a2.519,2.519,0,0,1-1.8-.68,2.219,2.219,0,0,1-.72-1.68,2.217,2.217,0,0,1,.7-1.72,2.592,2.592,0,0,1,1.82-.64,2.592,2.592,0,0,1,1.82.64,2.217,2.217,0,0,1,.7,1.72,2.14,2.14,0,0,1-.72,1.68A2.433,2.433,0,0,1,142.64-26.2Z" transform="translate(68 870)" fill="#fff"/>
    <path id="路径_6859" data-name="路径 6859" d="M9.96.12Q8.5,0,6.04,0H4.08q-1,0-1.96.08Q2,.08,2,0a19.577,19.577,0,0,0,.12-3.02v-7.92q0-2.3-.12-3.64a1.392,1.392,0,0,1,.72-.1q.64,0,.72.1-.12,2.24-.12,6v7.54H6.64q1.68,0,3.32-.12a1.727,1.727,0,0,1,.06.64A1.727,1.727,0,0,1,9.96.12Z" transform="translate(582 873)" fill="#fff"/>
    <path id="路径_6860" data-name="路径 6860" d="M2,0V-11a34.247,34.247,0,0,0-.16-3.66q0-.1.16-.1a22.262,22.262,0,0,0,2.3.1H6.6q5.12,0,5.12,4.12a4.135,4.135,0,0,1-.9,2.74A4.481,4.481,0,0,1,8.4-6.42L12.16,0h-2.1L6.5-6.22H3.86V0ZM3.86-7.72H6.32q3.56,0,3.56-2.82a2.31,2.31,0,0,0-.92-2.04,4.723,4.723,0,0,0-2.64-.58H3.86v5.44Z" transform="translate(642 873)" fill="#fff"/>
    <path id="路径_6861" data-name="路径 6861" d="M2.98.1A3.89,3.89,0,0,1,1.74,0q.2-2.5.2-6v-8.72H4.6L7.3-7.28q.18.52.52,1.6.3.92.46,1.38h.1q.16-.48.46-1.42.32-1.04.5-1.56L12-14.72h2.68V-3.68A35.188,35.188,0,0,0,14.84,0,3.65,3.65,0,0,1,13.6.1,3.65,3.65,0,0,1,12.36,0a34.011,34.011,0,0,0,.16-3.64V-7.28q0-1.22.28-4.28a2.709,2.709,0,0,0,.02-.28h-.08l-1.18,3.4L9-1.42H7.56L4.98-8.44l-1.16-3.4H3.74q.02.28.08.9.2,2.62.2,3.66v3.64A34.011,34.011,0,0,0,4.18,0,3.446,3.446,0,0,1,2.98.1Z" transform="translate(696 873)" fill="#fff"/>
    <path id="路径_6862" data-name="路径 6862" d="M1.82.12Q1.66.12,1.66,0a15.435,15.435,0,0,0,.16-3.02V-11.1a35.426,35.426,0,0,0-.16-3.7q0-.1.16-.1,1,.1,2.44.1H6.72q5.36,0,5.36,3.64a3.638,3.638,0,0,1-.54,1.94,2.763,2.763,0,0,1-1.48,1.26v.1a3.732,3.732,0,0,1,2,1.14,3.523,3.523,0,0,1,.78,2.36,3.8,3.8,0,0,1-1.64,3.3A7.05,7.05,0,0,1,7.1,0H4.46A23.128,23.128,0,0,0,1.82.12Zm2.96-2.4H6.84q3.12,0,3.12-2.26,0-2.04-3.12-2.04H4.78v4.3Zm0-6.5H6.5q2.7,0,2.7-1.94a1.561,1.561,0,0,0-.66-1.4,3.723,3.723,0,0,0-2-.42H4.78v3.76Z" transform="translate(753 873)" fill="#fff"/>
    <path id="路径_6863" data-name="路径 6863" d="M1.72,0V-14.88H5.3v5.66h4.9v-5.66h3.54V0H10.2V-6.12H5.3V0Z" transform="translate(809 873)" fill="#fff"/>
  </g>
</svg>
