<svg xmlns="http://www.w3.org/2000/svg" width="872" height="240" viewBox="0 0 872 240">
  <g id="naikai" transform="translate(0 -721)">
    <rect id="矩形_3596" data-name="矩形 3596" width="872" height="240" transform="translate(0 721)" fill="#313740"/>
    <path id="路径_6882" data-name="路径 6882" d="M16.211-32.422q3.516-.039,4.16.039a1.329,1.329,0,0,1,.859.332,1.849,1.849,0,0,1,.332.8,5.867,5.867,0,0,1,0,1.68A21.291,21.291,0,0,0,22.031-25q8.828.078,11.094.332t2.344,1.387q.078,1.133.156,6.348T35.332-5.547q-.371,6.172-1.25,7.773t-2.988.508A10.065,10.065,0,0,1,28.047.7a1.31,1.31,0,0,1,.313-1.719A1.652,1.652,0,0,1,30.7-.937l.938.508q.2-1.172.605-6.055t.332-15.039l-9.766-.234q.391,1.211,1.445,3.672a22.656,22.656,0,0,0,3.5,5.391Q30.2-9.766,31.484-8.2a1.323,1.323,0,0,1-.43,1.055,1.642,1.642,0,0,1-2.148.117A22.56,22.56,0,0,1,24.59-11.6,34.3,34.3,0,0,1,20.7-18.828a58.863,58.863,0,0,1-3.34,6.152,45.13,45.13,0,0,1-3.086,4.316q-1.5,1.836-2.09,2.422-2.031,1.25-2.7-.977A2.886,2.886,0,0,1,10.82-8.906a16.882,16.882,0,0,0,2.852-3.437q.82-1.445,1.992-3.613t3.008-6.113l-10.937.2q.039,5.43.254,14.59T7.7,3.125a1.419,1.419,0,0,1-2.07.078,1.675,1.675,0,0,1-.547-1.367Q4.8-17.734,4.785-20.7a9.844,9.844,0,0,1,.293-3.457,1.933,1.933,0,0,1,1.484-.605q1.172-.117,12.344-.391-.273-2.461-.352-4.3l-7.3.156q-1.8-1.289-.2-2.969ZM65.352,2.891,64.1,1.172a3.7,3.7,0,0,1-.7-1.953l.391-.781A1.816,1.816,0,0,1,65.2-1.953l.859.547.625.625,1.016-1.8q-7.891-.234-8.906-.664t-.742-1.895q.273-1.465.586-3.184t.625-3.359q-1.094-.078-2.187-.078a3.962,3.962,0,0,1-2.031-.547,1.816,1.816,0,0,1-.391-1.406l.391-.781a2.85,2.85,0,0,1,2.188-.391l2.5.234q.391-1.875.781-4.18a23.08,23.08,0,0,1,.625-2.969.926.926,0,0,1,1.094-.586q10.117-.078,11.211.156t.859,1.953q-.234,1.719-.547,6.016a5.669,5.669,0,0,1,3.125.391,1.9,1.9,0,0,1,.469,1.484l-.391.781a6.91,6.91,0,0,1-3.672.313q-.664,3.32-1.172,5.938a8.375,8.375,0,0,1,3.828.391,1.879,1.879,0,0,1,.391,1.445l-.391.781-1.016.469-3.828-.078A18.966,18.966,0,0,1,69.668.313q-.723,1.094-1.66,2.578Q66.953,4.1,65.352,2.891ZM43.828,2.266l-.781-.391A2.074,2.074,0,0,1,42.656.391l.391-.781.234-.234a35.258,35.258,0,0,1,4.063-2.383q2.109-1.055,4.336-1.953l.781.391a1.942,1.942,0,0,1,.391,1.445l-.547.859a38.217,38.217,0,0,1-4.2,2.383Q45.938,1.172,43.828,2.266ZM68.945-5.586q.508-2.617,1.289-5.7h-2.3q-.859,4.141-1.172,5.547ZM63.633-5.9q.391-1.641,1.25-5.391l-2.656-.078a12.945,12.945,0,0,1-.43,2.7,17.63,17.63,0,0,0-.508,2.7Zm1.719-8.437a38.348,38.348,0,0,0,.625-5H63.789l-1.016,5Zm5.352,0,.391-4.922-2.07-.078a36.388,36.388,0,0,1-.625,5ZM50.82-16.055a23.338,23.338,0,0,0-3.594-.352,10.307,10.307,0,0,1-3.477-.664,2.074,2.074,0,0,1-.391-1.484l.391-.781a2.074,2.074,0,0,1,1.484-.391q1.8.234,3.652.352a13.752,13.752,0,0,1,3.5.664,1.816,1.816,0,0,1,.391,1.406l-.391.781A2.756,2.756,0,0,1,50.82-16.055Zm4.3-.7-.781-.391a2.074,2.074,0,0,1-.391-1.484,33.848,33.848,0,0,0,2.3-6.465q.82-3.34,1.6-6.621a1.816,1.816,0,0,1,1.406-.391l.781.391a2.529,2.529,0,0,1,.391,1.875l-.547,2.578,15.273-.078.859.469a1.816,1.816,0,0,1,.391,1.406l-.391.781a3.718,3.718,0,0,1-2.656.508H59.18a18.618,18.618,0,0,1-1.133,3.594q-.742,1.719-1.523,3.438A1.816,1.816,0,0,1,55.117-16.758Zm-3.281-9.648a19.57,19.57,0,0,0-3.809-.586,16.291,16.291,0,0,1-3.809-.664,1.816,1.816,0,0,1-.391-1.406l.391-.781a2.62,2.62,0,0,1,2.109-.391q1.8.156,3.535.391a23.914,23.914,0,0,1,3.379.7,2.074,2.074,0,0,1,.391,1.484l-.391.781A2.285,2.285,0,0,1,51.836-26.406ZM100.664,3.4a3.568,3.568,0,0,1-1.875-1.055A13.331,13.331,0,0,1,97.422.664a3.793,3.793,0,0,1-.664-1.875l.391-.781a1.816,1.816,0,0,1,1.406-.391l.859.547L100.43-.664q.391-1.641.7-2.812a14.183,14.183,0,0,0,.391-2.969l-13.477.078a2.073,2.073,0,0,1-1.094-.469,1.816,1.816,0,0,1-.391-1.406l.391-.781a2.535,2.535,0,0,1,1.172-.469h13.242a4.759,4.759,0,0,0-2.5-3.281q-1.328-1.328,0-2.266,1.016-.7,2.031-1.562a20.515,20.515,0,0,0,1.875-1.8H94.258a2.073,2.073,0,0,1-1.094-.469,1.816,1.816,0,0,1-.391-1.406l.391-.781.781-.391q13.828-.469,14.922.254t-.742,2.285l-5.664,5.117a10.266,10.266,0,0,1,1.406,2.031,5.8,5.8,0,0,1,.547,2.266q7.93.078,9.023.078a4.478,4.478,0,0,1,2.031.469,1.816,1.816,0,0,1,.391,1.406l-.391.781a2.715,2.715,0,0,1-2.031.469l-8.867-.156a28.384,28.384,0,0,1-.664,4.883,9.941,9.941,0,0,1-1.484,3.516Q101.445,3.32,100.664,3.4ZM85.313-18.633l-.781-.391a9.166,9.166,0,0,1-.664-3.691,26.724,26.724,0,0,0-.2-3.848q-.078-1.25,2.031-1.328l12.852.391L98.4-30.547l.391-.781a2.074,2.074,0,0,1,1.484-.391l.781.391A10.342,10.342,0,0,1,101.6-27.5q11.914.234,13.086.2a7.082,7.082,0,0,1,2.051.2q.879.234.508,1.816a24.226,24.226,0,0,0-.527,3.184,13.687,13.687,0,0,1-.625,3.008,1.816,1.816,0,0,1-1.406.391l-.781-.391a2.271,2.271,0,0,1-.469-1.641l.547-3.516-27.109-.43.234,4.883-.391.781A1.816,1.816,0,0,1,85.313-18.633Zm48.4,22.383a5.034,5.034,0,0,1-2.5-1.406A1.816,1.816,0,0,1,130.82.938l.391-.781a1.816,1.816,0,0,1,1.406-.391l-.156-2.891-4.648.078V1.8l-.391.781a1.816,1.816,0,0,1-1.406.391l-.781-.391a2.073,2.073,0,0,1-.469-1.094L124.688-14.1a2.073,2.073,0,0,1,.469-1.094,3.688,3.688,0,0,1,1.719-.781h5.742a6.021,6.021,0,0,1,2.578.547l.391.781q.156,16.6-.469,17.93A2.285,2.285,0,0,1,133.711,3.75Zm22.07-1.016-16.914-.156a2.073,2.073,0,0,1-1.094-.469A1.816,1.816,0,0,1,137.383.7l.391-.781a2.016,2.016,0,0,1,1.563-.469l3.672.078a20.774,20.774,0,0,1-.781-3.359l-.859.078a1.427,1.427,0,0,1-.781-.82l-.078-2.891a7.477,7.477,0,0,1,.547-3.594,7.073,7.073,0,0,1,3.516-.391h8.164a3,3,0,0,1,2.031.547l.234.391q0,5.156-.078,5.781a1.642,1.642,0,0,1-1.094.977l-.7-.156a21.116,21.116,0,0,1-1.094,3.516h3.984a4.139,4.139,0,0,1,2.266.469,1.816,1.816,0,0,1,.391,1.406l-.391.781A4.018,4.018,0,0,1,155.781,2.734ZM148.867-.391l1.094-3.516h-4.687l.859,3.438Zm-16.25-5.82V-7.773l-4.8-.078v1.719Zm20.117,0V-9.1l-.312-.078h-9.57l-.078,2.969Zm-20.2-4.609-.156-2.109h-4.57V-10.9Zm10.078-1.953a11.408,11.408,0,0,1-4.375-.469,1.816,1.816,0,0,1-.391-1.406l.391-.781a2,2,0,0,1,1.719-.469l17.461.313.781.391a1.816,1.816,0,0,1,.391,1.406l-.391.781a2.535,2.535,0,0,1-1.172.469Zm-5.547-2.734-.781-.391a2.819,2.819,0,0,1-.469-1.875l.078-.781-11.445-.078.078,1.8-.391.781a2.074,2.074,0,0,1-1.484.391l-.781-.391a4.935,4.935,0,0,1-.469-3.047,4.357,4.357,0,0,1,.7-2.187,3.249,3.249,0,0,1,2.344-.391l-.234-7.617a4.016,4.016,0,0,1,.7-2.344,2.529,2.529,0,0,1,1.875-.391l8.32.078.781.391a2.331,2.331,0,0,1,.469,2.031l-.156,7.852a6.027,6.027,0,0,1,2.344.625,7.073,7.073,0,0,1,.391,3.516,2.271,2.271,0,0,1-.469,1.641A1.816,1.816,0,0,1,137.07-15.508Zm14.961-2.109-9.648-.234a3.724,3.724,0,0,1-2.5-.547l-.391-.937v-9.336l.469-.859a3.767,3.767,0,0,1,2.07-.508,21.052,21.052,0,0,0,2.227-.039,3.579,3.579,0,0,1,.469-2.578,1.3,1.3,0,0,1,1.016-.234,1.436,1.436,0,0,1,.781.781v1.953h2.344a3.424,3.424,0,0,1,.469-2.5,1.371,1.371,0,0,1,1.055-.234,1.436,1.436,0,0,1,.781.781v1.953q1.328.078,2.656.039a5,5,0,0,1,2.422.508l.234.391v9.961l-.7,1.328A10.981,10.981,0,0,1,152.031-17.617Zm2.188-2.266v-3.281l-3.125-.078-.078,3.281Zm-5.508-.156v-3.2l-2.187.078.078,3.047Zm-4.375-.156-.078-2.891h-2.5V-20.2ZM128.828-21.6v-2.852a3.237,3.237,0,0,1,.625-1.953,6.663,6.663,0,0,1,2.7-.234l1.016.078v-2.344h-5.9l.234,7.3Zm4.336,0,.078-2.578-2.109-.156V-21.6Zm11.094-3.789v-2.422l-2.5.078v2.344Zm9.961-.078v-2.344l-3.047-.078v2.344Zm-5.352-.078v-2.344h-2.344v2.422Z" transform="translate(68 798)" fill="#fff"/>
    <path id="路径_6883" data-name="路径 6883" d="M11.709-1.943a.367.367,0,0,0,.01-.1.657.657,0,0,0-.029-.176.558.558,0,0,0-.1-.19l-1.68-1.3a.657.657,0,0,0-.107-.01.759.759,0,0,0-.439.127l-.137.283a.2.2,0,0,0-.01.063q0,.034,0,.088a.363.363,0,0,0,.024.1.551.551,0,0,0,.1.2l1.436,1.133a.838.838,0,0,0,.41.215,1.245,1.245,0,0,0,.381-.146ZM5.6,1.2a.319.319,0,0,0,.093.01.634.634,0,0,0,.156-.024A.6.6,0,0,0,6.025,1.1L6.162.811q.01-.166.01-.518,0-1.66-.137-7.627.762-.049,1.162-.1a5.442,5.442,0,0,0,1.309-.254l.156-.3a.222.222,0,0,0,.01-.083.634.634,0,0,0-.024-.156.6.6,0,0,0-.083-.181l-.273-.127L6.006-8.32v-3.232q.586-.049.854-.054t.425,0a2.074,2.074,0,0,0,.293-.02,1.568,1.568,0,0,0,.479-.176l.137-.273a.343.343,0,0,0,.01-.1.7.7,0,0,0-.024-.166.591.591,0,0,0-.083-.186l-.283-.137-1.846.088v-1.514a2.346,2.346,0,0,0-.166-.967l-.264-.127a.161.161,0,0,0-.049-.01.7.7,0,0,0-.42.127.792.792,0,0,0-.156.381l.049,2.129-1.65.059.254-1.3a.994.994,0,0,0,.02-.2.89.89,0,0,0-.137-.488l-.273-.137a.216.216,0,0,0-.068-.01.807.807,0,0,0-.107.01.6.6,0,0,0-.234.088,19.914,19.914,0,0,0-.508,2.373l-.391,2.51a.926.926,0,0,0,.146.518l.283.137a.161.161,0,0,0,.049.01A.617.617,0,0,0,2.725-9.1a2.067,2.067,0,0,0,.215-.937,3.574,3.574,0,0,1,.215-1.24l.059-.166,1.777-.107v3.438q-1.084.2-1.924.313A6.9,6.9,0,0,0,1.6-7.432l-.127.254a.319.319,0,0,0-.01.093.634.634,0,0,0,.024.156.6.6,0,0,0,.083.181l.273.127A12.864,12.864,0,0,0,3.14-6.826q.649-.137,1.89-.293L5.068-.566a4.805,4.805,0,0,0,.283,1.65ZM16.875-8.75l.566.01a2.517,2.517,0,0,0,1-.2l.127-.254a.161.161,0,0,0,.01-.049.656.656,0,0,0-.107-.381l-.283-.137-4.365.127-.039-3.262,2.363.059a.9.9,0,0,0,.527-.156l.137-.283a.343.343,0,0,0,.01-.1.6.6,0,0,0-.029-.166.469.469,0,0,0-.1-.176.848.848,0,0,0-.518-.166H13.8l.059-.85a.905.905,0,0,0,.02-.176.759.759,0,0,0-.127-.439l-.283-.137a.161.161,0,0,0-.049-.01.591.591,0,0,0-.381.117,2.013,2.013,0,0,0-.225.947q0,.127.01.254l.029.273q-1.025.059-1.8.059a4.024,4.024,0,0,0-1.24.186l-.117.244a.161.161,0,0,0-.01.049.739.739,0,0,0,.117.42l.352.176,2.627-.127.039,3.281-3.174.088a.993.993,0,0,0-.4.146l-.137.283a.161.161,0,0,0-.01.049.656.656,0,0,0,.107.381l.283.137L14.639-8.6l.2,2.324L9.7-6.2l-.264.127-.127.264a.161.161,0,0,0-.01.049.615.615,0,0,0,.127.4.792.792,0,0,0,.381.156l5.088-.078V-.625l-.8-.4A.319.319,0,0,0,14-1.035a.634.634,0,0,0-.156.024.6.6,0,0,0-.181.083l-.137.293a.161.161,0,0,0-.01.049.615.615,0,0,0,.127.4q.43.352.859.752a1.555,1.555,0,0,0,.869.43.436.436,0,0,0,.215.02q.225-.029.322-.5l.039-5.84h1.885a.993.993,0,0,0,.4-.146l.137-.283a.161.161,0,0,0,.01-.049.656.656,0,0,0-.107-.381l-.283-.137H15.85L15.693-8.7Q16.416-8.75,16.875-8.75ZM31.123-7.686v-4.092l2.666.1.137,3.994Zm6.768.088-2.949-.1-.1-3.926,2.949.1ZM31.24-1.67l-.078-5.02h2.793l.039,5.02Zm6.436.039L35.01-1.67,34.971-6.7l2.92.1ZM28.613-.566a.656.656,0,0,0,.381-.107l.127-.264a2.939,2.939,0,0,0-.508-1.221,8.4,8.4,0,0,1-.752-1.3L27.6-3.594a.9.9,0,0,0-.127-.01.711.711,0,0,0-.41.127l-.117.244a4.624,4.624,0,0,0,.581,1.274q.4.61.767,1.245l.273.137A.161.161,0,0,0,28.613-.566ZM23.574-3.027a.656.656,0,0,0-.107-.381l-.293-.137a.2.2,0,0,0-.063-.01q-.034,0-.083,0a.5.5,0,0,0-.107.024.517.517,0,0,0-.205.088q-.254.654-.454,1.348t-.4,1.406a1.035,1.035,0,0,0,.166.42.717.717,0,0,0,.352.156.948.948,0,0,0,.43-.156,25.228,25.228,0,0,1,.752-2.705A.184.184,0,0,0,23.574-3.027ZM38.184-.635q.371.059.479-.049a.341.341,0,0,0,.078-.249,1.953,1.953,0,0,0-.059-.425L38.8-12.08q-.039-.391-.215-.439a9.076,9.076,0,0,0-1.089-.093q-.962-.054-3.13-.122T31.348-12.8q-.869,0-1.123.029a.114.114,0,0,0-.029.02.518.518,0,0,0-.068.332v.068l.1,10.879a1,1,0,0,0,.225.684.588.588,0,0,0,.3.156ZM25.332,1.23a.591.591,0,0,0,.381-.117,1.657,1.657,0,0,0,.2-.8,1.8,1.8,0,0,0-.02-.254L25.684-5.5l2.188-.146.469.9.264.127a.235.235,0,0,0,.073.01.825.825,0,0,0,.112-.01.6.6,0,0,0,.244-.1l.117-.254a8.523,8.523,0,0,0-.62-1.6,9.132,9.132,0,0,0-.942-1.484l-.3-.146a.9.9,0,0,0-.127-.01.711.711,0,0,0-.41.127l-.137.283a.161.161,0,0,0-.01.049.624.624,0,0,0,.137.41l.7.7q-1.416.127-2.266.225L22.8-6.143,23.1-6.6A11.9,11.9,0,0,1,24.526-8.35q1.03-1.094,2.378-2.715l.156-.312a.235.235,0,0,0,.01-.073.825.825,0,0,0-.01-.112.488.488,0,0,0-.107-.244l-.3-.166h-.078a.65.65,0,0,0-.5.225,6.956,6.956,0,0,0-.967,1.279l-.127.215-.225-.117a4.856,4.856,0,0,1-1.367-1.162l-.117-.137.088-.156a29.337,29.337,0,0,1,2.334-2.969l.156-.312a.161.161,0,0,0,.01-.049.739.739,0,0,0-.117-.42l-.264-.137-.352.029q-2.266,2.754-2.783,3.574a.882.882,0,0,0-.107.186,1.123,1.123,0,0,0-.088.352.339.339,0,0,0,.073.225q.073.088.156.181l.171.19q.5.527.908.889.244.215.488.41l.234.176-.2.205q-.811.889-1.514,1.8a10.156,10.156,0,0,0-1.113,1.846.161.161,0,0,0-.01.049.489.489,0,0,0,.127.361.735.735,0,0,0,.361.2l2.832-.3L24.834.02A2.16,2.16,0,0,0,24.8.3a1.764,1.764,0,0,0,.049.459,1.3,1.3,0,0,0,.137.322l.293.137A.161.161,0,0,0,25.332,1.23Z" transform="translate(442 801)" fill="#fff"/>
    <path id="路径_6884" data-name="路径 6884" d="M11.221-7.783v-3.9l2.471.1.137,3.8Zm6.563.088-2.754-.1-.078-3.73,2.754.1ZM11.338-1.768,11.26-6.592h2.6L13.9-1.768Zm6.24.039-2.471-.039L15.068-6.6l2.725.1ZM8.613-.469a.678.678,0,0,0,.449-.146l.156-.312a3.126,3.126,0,0,0-.542-1.313,7.745,7.745,0,0,1-.737-1.294l-.312-.156a1.259,1.259,0,0,0-.156-.01.838.838,0,0,0-.488.156l-.146.3a4.852,4.852,0,0,0,.6,1.333q.405.63.786,1.274l.322.156A.287.287,0,0,0,8.613-.469ZM3.672-3.027a.678.678,0,0,0-.146-.449l-.332-.166a.287.287,0,0,0-.068-.01.846.846,0,0,0-.488.146q-.264.674-.469,1.382t-.4,1.431a1.084,1.084,0,0,0,.2.5.853.853,0,0,0,.42.186,1.1,1.1,0,0,0,.518-.2,27.622,27.622,0,0,1,.762-2.744A.321.321,0,0,0,3.672-3.027ZM18.418-.518a.446.446,0,0,0,.317-.1.445.445,0,0,0,.1-.332,1.94,1.94,0,0,0-.059-.42L18.9-12.08q-.049-.469-.293-.537-.332-.088-4.258-.215-2.139-.068-3-.068t-1.094.029l-.068.01q-.156.059-.156.439v.068l.1,10.889a1.052,1.052,0,0,0,.254.742.71.71,0,0,0,.361.186h7.432A1.907,1.907,0,0,0,18.418-.518ZM5.254,1.318a.633.633,0,0,0,.317-.024.741.741,0,0,0,.22-.112A1.773,1.773,0,0,0,6.006.313a1.865,1.865,0,0,0-.02-.264L5.781-5.41l2.031-.137.459.869.313.156a.267.267,0,0,0,.059.01.307.307,0,0,0,.049,0,.421.421,0,0,1,.068,0,.321.321,0,0,0,.078-.01l.073-.02a.429.429,0,0,0,.073-.029A.611.611,0,0,0,9.1-4.658l.156-.3a8.049,8.049,0,0,0-.64-1.65,9.728,9.728,0,0,0-.972-1.514L7.314-8.3a1.22,1.22,0,0,0-.151-.01.807.807,0,0,0-.132.01,1.158,1.158,0,0,0-.127.029.986.986,0,0,0-.234.117l-.156.332a.287.287,0,0,0-.01.068q0,.029,0,.078t.015.1a.82.82,0,0,0,.029.112.52.52,0,0,0,.117.176l.557.566q-1.211.107-2.061.205L3-6.26l.186-.293A12.183,12.183,0,0,1,4.6-8.286q1.03-1.1,2.388-2.72l.166-.352a.521.521,0,0,0,.01-.117.674.674,0,0,0-.034-.19.741.741,0,0,0-.112-.22l-.332-.186H6.528a.864.864,0,0,0-.229.039.934.934,0,0,0-.3.215,7.083,7.083,0,0,0-.967,1.3l-.088.137L4.8-10.459a4.83,4.83,0,0,1-1.338-1.133L3.4-11.68l.049-.1a28.944,28.944,0,0,1,2.334-2.959l.166-.352a.287.287,0,0,0,.01-.068.863.863,0,0,0-.146-.5L5.5-15.811l-.42.029q-2.295,2.793-2.822,3.613a.9.9,0,0,0-.107.205,1.063,1.063,0,0,0-.1.391.453.453,0,0,0,.107.3q.273.312.752.8a10.46,10.46,0,0,0,.977.874l.146.107q-.527.576-.908,1.03t-.723.9A10.4,10.4,0,0,0,1.26-5.684a.67.67,0,0,0-.01.127.627.627,0,0,0,.034.186.481.481,0,0,0,.122.2.768.768,0,0,0,.43.225L4.57-5.244,4.736.01a2.258,2.258,0,0,0-.029.352,1.5,1.5,0,0,0,.215.8ZM33.1-12.559v-1.553h1.5v1.494Zm2.324-.049v-1.5l1.855.039v1.5Zm-3.125.078H30.713v-1.494l1.582-.059ZM25.4-10.635v-1.709l1.387.1-.049,1.611Zm-.82,0h-.986l-.137-3.984h3.291v1.514l-.918-.068h-.254q-.068,0-.176.01a3.456,3.456,0,0,0-.576.107,1.448,1.448,0,0,0-.244.83Zm6.133.7v-1.777h1.582l.039,1.777ZM34.521-11.8v1.953L33.135-9.9,33.1-11.738Zm2.754.049v1.973l-1.934-.039.039-1.973Zm-5.889-3.1-.449-.01a1.723,1.723,0,0,0-.83.205l-.2.352v4.6l.166.381a1.606,1.606,0,0,0,.859.234q.117,0,.244-.01l4.844.117q.254.02.405.02t.332,0A4.4,4.4,0,0,0,37.227-9a4.78,4.78,0,0,0,.547-.107l.3-.557v-4.893l-.068-.117A2.343,2.343,0,0,0,37-14.893l-.171,0q-.132,0-.356,0-.449,0-1.055-.039v-1.094a.515.515,0,0,0-.273-.264.287.287,0,0,0-.068-.01H35.02a.42.42,0,0,0-.078.01.34.34,0,0,0-.146.068,1.438,1.438,0,0,0-.225.791,1.692,1.692,0,0,0,.029.313l.029.2H33.1v-1.1a.515.515,0,0,0-.273-.264.274.274,0,0,0-.063-.01h-.054a.42.42,0,0,0-.078.01.339.339,0,0,0-.137.068,1.5,1.5,0,0,0-.225.811,1.907,1.907,0,0,0,.029.332l.029.186Q31.768-14.844,31.387-14.844ZM28.652-7.91a.7.7,0,0,0,.469-.156.934.934,0,0,0,.2-.586.847.847,0,0,0-.01-.117,4.869,4.869,0,0,0,.029-.518,3.3,3.3,0,0,0-.186-1.123,3.067,3.067,0,0,0-1.055-.264l-.156-.01.078-4.1a1.358,1.358,0,0,0,.029-.264.945.945,0,0,0-.205-.6l-.322-.166-4.141-.039a1.367,1.367,0,0,0-.225-.02,1.029,1.029,0,0,0-.576.166,1.872,1.872,0,0,0-.3,1.055l.127,4-.205-.029a1.853,1.853,0,0,0-.322-.029,1.385,1.385,0,0,0-.7.186,2.1,2.1,0,0,0-.3.986,2.83,2.83,0,0,0-.029.4,2.114,2.114,0,0,0,.225.977L21.377-8a.521.521,0,0,0,.117.01.776.776,0,0,0,.2-.034.984.984,0,0,0,.249-.112l.156-.322-.049-1.025,6.084.039-.059.566a1.332,1.332,0,0,0-.01.181,1.182,1.182,0,0,0,.044.283,1.145,1.145,0,0,0,.151.337l.322.156A.287.287,0,0,0,28.652-7.91Zm10.488.9a.678.678,0,0,0-.146-.449l-.322-.166-8.721-.156a.853.853,0,0,0-.186-.02.753.753,0,0,0-.508.2l-.166.332a.287.287,0,0,0-.01.068.678.678,0,0,0,.146.449,4.819,4.819,0,0,0,1.7.215q.186,0,.381-.01l7.2.117a1.089,1.089,0,0,0,.469-.176l.156-.332A.287.287,0,0,0,39.141-7.012ZM23.74-5.283V-6.631h2.607l.1,1.387ZM36.533-2.939H31.221l.039-1.816H36.23l.3.078ZM23.74-2.9V-4.092l2.734.039v1.113Zm11.465.781-.654,2.09L32.939-.068l-.518-2.051Zm2.959,3.34a1.763,1.763,0,0,0,.85-.205L39.17.693a.287.287,0,0,0,.01-.068.718.718,0,0,0-.146-.459,1.879,1.879,0,0,0-.869-.205l-.156.01H35.771l.088-.225A9.748,9.748,0,0,0,36.4-1.992l.039-.156.469.1a.617.617,0,0,0,.391-.352q.039-.381.039-2.8l-.078-.127a1.3,1.3,0,0,0-.762-.225H32.275a4.6,4.6,0,0,0-.508-.029,3.222,3.222,0,0,0-1.113.186,3.541,3.541,0,0,0-.244,1.318q0,.078.01.352l.039,1.406a.572.572,0,0,0,.254.283l.547-.049.02.156a10.9,10.9,0,0,0,.381,1.65l.068.215L29.551-.107a.806.806,0,0,0-.527.176L28.857.4a.287.287,0,0,0-.01.068A.7.7,0,0,0,29,.938a.81.81,0,0,0,.439.186L37.91,1.2A1.667,1.667,0,0,0,38.164,1.221Zm-10.742.313A12.777,12.777,0,0,0,27.6-.684q.049-1.221.049-3.091t-.02-3.511l-.156-.3a2.829,2.829,0,0,0-1.162-.234H23.447a1.613,1.613,0,0,0-.752.342.854.854,0,0,0-.186.439L22.549.732a.787.787,0,0,0,.176.42l.332.166a.321.321,0,0,0,.078.01q.039,0,.093,0a.669.669,0,0,0,.347-.142L23.74.859V-1.689l2.646-.039.1,1.8Q26.24.039,26.191.039a.678.678,0,0,0-.449.146l-.166.332a.287.287,0,0,0-.01.068.677.677,0,0,0,.166.469,2.291,2.291,0,0,0,1.143.654A.914.914,0,0,0,27.422,1.533Zm-2.6-14.59a.32.32,0,0,1,.039-.049l-.088.059A.161.161,0,0,1,24.824-13.057Z" transform="translate(533 801)" fill="#fff"/>
    <path id="路径_6885" data-name="路径 6885" d="M9.824,1.777l-.391-.2L9-3.027,5.371-2.91,5.879.43l-.2.391a.932.932,0,0,1-.8.2L4.492.82A8.331,8.331,0,0,1,3.965-1.24q-.137-1.084-.176-2.217-.117-.879.41-.928t4.727-.166v-.781l-2.461.078a.7.7,0,0,1-.752-.566,6.966,6.966,0,0,1-.146-1.641q0-1.074-.039-2.129.02-.7.537-.8t6.494-.176q1.23-.117,1.279.566t.205,3.77q-.02.977-1.055.938l-2.539-.039v.781q4.746-.039,5.381.029t.5,1.455q-.078,1.191-.156,2.148a3.625,3.625,0,0,1-.43,1.553.95.95,0,0,1-1.1.449,2.482,2.482,0,0,1-1.377-.85.908.908,0,0,1-.2-.7l.2-.391a.908.908,0,0,1,.7-.2L14.59-.7l.156-2.363-4.219.039.234,4.1-.234.508A.908.908,0,0,1,9.824,1.777ZM12.48-6.816l-.117-2.227-5.312.117.078,2.031ZM16.523-8.73l-.391-.2A1.566,1.566,0,0,1,15.9-9.59l.2-1.641q-6.25-.371-12.656-.234a6.579,6.579,0,0,0,.273,1.992l-.2.391a1.037,1.037,0,0,1-.742.2l-.391-.2a2.708,2.708,0,0,1-.43-1.5,11.317,11.317,0,0,0-.117-1.641q-.039-.879.625-.742l2.383-.078a9.091,9.091,0,0,1-.43-1.758l.2-.391a.939.939,0,0,1,.723-.2l.391.2q.234.508.43,1.035a7.787,7.787,0,0,1,.313,1.074H8.926q.039-.742.02-1.5A3.213,3.213,0,0,1,9.2-15.977a.908.908,0,0,1,.7-.2l.391.2a3.731,3.731,0,0,1,.2,1.8v1.133l2.656.117a1.388,1.388,0,0,1,0-.937,5.254,5.254,0,0,0,.352-.84,9.177,9.177,0,0,1,.469-1.113.908.908,0,0,1,.7-.2l.41.2a.9.9,0,0,1,.2.781l-.84,2.188q2.4.039,2.93.088t.371,1.064a7.959,7.959,0,0,0-.2,1.406,3.893,3.893,0,0,1-.312,1.367A.908.908,0,0,1,16.523-8.73Zm20.137,9.8A4.826,4.826,0,0,1,35.625.811,2.058,2.058,0,0,1,34.7-.059a4.117,4.117,0,0,1-.566-1.758Q34-2.891,33.926-3.965H33.3a16.233,16.233,0,0,1-1.816,2.949A15.446,15.446,0,0,1,29.16,1.172a.941.941,0,0,1-.781.273l-.371-.2a.818.818,0,0,1-.2-.664l.2-.371a10.543,10.543,0,0,0,1.7-1.465,18.863,18.863,0,0,0,2.031-2.715,3.277,3.277,0,0,1-1.143.029q-.42-.088-.537-.781t-.332-9.639a.908.908,0,0,1,.254-.518.723.723,0,0,1,.625-.186h6.445q.645,0,.752.361t.244,10.146q-.059.586-.518.654a13.843,13.843,0,0,1-2.119-.029q.039,1.016.146,1.836a2.162,2.162,0,0,0,.605,1.309,1.492,1.492,0,0,0,1.26.41l-.039-.742a1.109,1.109,0,0,1,.215-.527.859.859,0,0,1,.664-.176l.391.176A6.3,6.3,0,0,1,38.867.488q-.039.7-.859.645T36.66,1.074Zm-14.3-2.559-.371-.2a.818.818,0,0,1-.2-.664,10.059,10.059,0,0,0,1.055-1.611,8.04,8.04,0,0,0,.537-1.416q.205-.742.361-1.484-.605-.039-1.24-.02a2.208,2.208,0,0,1-1.162-.273.923.923,0,0,1-.176-.684l.176-.371a.906.906,0,0,1,.762-.176l1.973.059q.1-.664.176-1.328T24.375-11l-1.895.039a1.011,1.011,0,0,1-.527-.215.921.921,0,0,1-.2-.664l.2-.391a2.476,2.476,0,0,1,1.172-.2,6.621,6.621,0,0,0,1.25-.039l-.078-1.23.2-.371a1.024,1.024,0,0,1,.723-.176l.371.176a3.086,3.086,0,0,1,.215,1.523h1.992l.371.2a.923.923,0,0,1,.176.684l-.176.371a1.255,1.255,0,0,1-.566.234H25.84q-.039.664-.107,1.328t-.146,1.348l3.164-.156.371.2a.818.818,0,0,1,.2.664l-.2.371a3.742,3.742,0,0,1-1.543.273,9.435,9.435,0,0,0-1.621.1q.566.566,1.084,1.1t.967,1.045a.94.94,0,0,1,.254.82l-.176.371a.877.877,0,0,1-.684.2l-.371-.2A9.327,9.327,0,0,0,26.1-4.717,9.021,9.021,0,0,0,24.98-5.7a16.327,16.327,0,0,1-.586,1.943,5.017,5.017,0,0,1-.967,1.631Q22.813-1.445,22.363-1.484ZM36.6-5.332v-2.09l-5.273.078.1,1.934Zm-.078-3.535-.117-1.523H31.25v1.563Zm-.234-3.008v-1.738l-5.117.078.039,1.7Z" transform="translate(609 801)" fill="#fff"/>
    <path id="路径_6886" data-name="路径 6886" d="M14.121,1.836A38.962,38.962,0,0,1,10.2,1.328Q8.262.977,6.748.732a13.547,13.547,0,0,0-3.9.088A1.037,1.037,0,0,1,2.3.586a.908.908,0,0,1-.2-.7l.2-.391q.469-.2.918-.391a3.964,3.964,0,0,0,.986-.664A.965.965,0,0,0,4.58-2.607q-.166-.576-.459-1.338a3.85,3.85,0,0,1-.254-1.582A3.179,3.179,0,0,1,4.3-7.012L5.078-8.34h-2.7a1.037,1.037,0,0,1-.547-.234.908.908,0,0,1-.2-.7l.2-.391.391-.2h4.98q.8.137.586.9a15.29,15.29,0,0,0-1.5,1.7Q6-6.816,5.7-6.309a2.076,2.076,0,0,0-.234,1.23A3.114,3.114,0,0,0,6-3.633,1.993,1.993,0,0,1,6.348-2.2,2.961,2.961,0,0,1,5.84-.937q2.3.273,4.531.742a16.707,16.707,0,0,0,3.76.43Q15.664.2,16.406.156a7.959,7.959,0,0,0,1.406-.2l.391.2a.908.908,0,0,1,.2.7l-.2.391a4.917,4.917,0,0,1-1.963.469Q15.176,1.758,14.121,1.836ZM17.188-.977a3.91,3.91,0,0,1-1.68-.9.928.928,0,0,1-.215-.723l-3.4-.039q-.723-.059-.859-.527a4.009,4.009,0,0,1-.127-1.162q.01-.693-.029-1.377t.488-.82a4.387,4.387,0,0,1,1.426-.059l-.039-.586-1.836.039a.718.718,0,0,1-.391-.391v-.352a.718.718,0,0,1,.391-.391L12.754-8.3l-.039-.273L12.949-9a.651.651,0,0,1,.508-.117.7.7,0,0,1,.43.43V-8.3L15.7-8.34a.718.718,0,0,1,.391.391v.313a.718.718,0,0,1-.391.391l-1.816.078.039.547a5.244,5.244,0,0,1,1.348-.049q.449.068.43.479v3.047h.156l.352-.039.43.2L16.8-9.277l-6.855.039q.078,3.086.2,4.57t.273,2.949l-.2.391a.908.908,0,0,1-.7.2l-.391-.2a16.26,16.26,0,0,1-.488-3.105q-.1-1.6-.215-5.469-.059-.918.9-.859h1.6v-1.621H8.652a1.037,1.037,0,0,1-.547-.234.908.908,0,0,1-.2-.7l.2-.391.391-.2h4.1a5.515,5.515,0,0,1-.078-1.25,1.037,1.037,0,0,1,.234-.547.908.908,0,0,1,.7-.2l.391.2a9.959,9.959,0,0,1,.313,1.8l2.6.039a2.158,2.158,0,0,1,1.172.234,1.037,1.037,0,0,1,.2.742l-.2.391a1.705,1.705,0,0,1-1.211.2L15.7-12.344v1.582L17.7-10.8q.723.02.625.742Q18.2-5.8,18.2-4.258a22.736,22.736,0,0,1-.117,2.549Q17.969-.7,17.188-.977ZM14.551-3.77V-5.488l-2.539.039.156,1.68Zm-.43-7.031.039-1.543-1.719-.039v1.621Zm-8.77-1.465q-.625-.391-1.23-.781a14.435,14.435,0,0,1-1.191-.859.908.908,0,0,1-.2-.7L2.93-15a.9.9,0,0,1,.781-.2q1.934,1.289,2.363,1.6a1.037,1.037,0,0,1,.2.742l-.2.391A.939.939,0,0,1,5.352-12.266ZM30.293,1.563l-.391-.2A1.037,1.037,0,0,1,29.668.82L29.59-4.707l-5.684.039q-.723-.02-.859-.4t-.43-6.4q-.059-.586.342-.713t6.514-.049l-.039-2.734.2-.391a1.037,1.037,0,0,1,.742-.2l.391.2a1.267,1.267,0,0,1,.234.586v2.6q5.645-.059,6.074.049t.508.771l-.312,6.133a.724.724,0,0,1-.9.625l-5.254-.117L31.191.977l-.2.391A.908.908,0,0,1,30.293,1.563ZM35.82-6.191l.234-4.375L31-10.645l.117,4.414ZM29.59-6.23l-.117-4.453-5.332-.039.352,4.531Z" transform="translate(690 801)" fill="#fff"/>
    <path id="路径_6887" data-name="路径 6887" d="M2.529,1.289l-.117-.02A.632.632,0,0,1,2.3,1.24L2.2,1.2a.683.683,0,0,1-.1-.049q-.049-.029-.093-.059t-.093-.068l-.01-.01A1.045,1.045,0,0,1,1.68.225V.205l.01-.02.2-.391L1.9-.244l.029-.01A9.021,9.021,0,0,0,3.691-1.621,4.593,4.593,0,0,1,5.654-2.793l.039-.01.039.02.391.2.029.01.01.02a1.076,1.076,0,0,1,.225.811v.039l-.039.029q-.859.869-1.377,1.3A12.779,12.779,0,0,0,3.936.586a2.363,2.363,0,0,1-1.377.7h-.02Zm6.152-.117a1.079,1.079,0,0,1-.327-.088A1.4,1.4,0,0,1,8.066.908L8.057.9A1.045,1.045,0,0,1,7.832.107V.088l.01-.02.2-.391.01-.01v-.01A14.188,14.188,0,0,0,9.229-2.236q.527-1,1.113-2.227A16.527,16.527,0,0,0,11.348-7.2q.146-.508.249-1.025t.166-1.045q.063-.527.093-1.074v-.049l.049-.039a1.169,1.169,0,0,1,.82-.215h.02l.02.01.391.2.039.02.02.039a3.247,3.247,0,0,1,.225,1.641A14.676,14.676,0,0,1,13.184-7.2q-.146.645-.332,1.279.312.264.723.669t.938.972A34.209,34.209,0,0,0,18.125-1.1a1.243,1.243,0,0,1,.469,1.074v.02l-.01.02-.2.391-.01.029-.02.01A.881.881,0,0,1,18,.63a1.263,1.263,0,0,1-.435.034h-.039l-.02-.02q-1.5-1.162-2.5-2.017a16.805,16.805,0,0,1-1.489-1.411,10.187,10.187,0,0,0-1.387-1.357q-.527,1.23-1.172,2.432-.693,1.26-1.592,2.6l-.01.02-.02.01a1.365,1.365,0,0,1-.308.171,1.31,1.31,0,0,1-.337.083h-.01ZM7.158-7.061l-.391-.2-.029-.02-.02-.02a1.3,1.3,0,0,1-.171-.317,1.467,1.467,0,0,1-.083-.366v-.029l.01-.02a30.89,30.89,0,0,0,1.2-3.984q.234-1.016.41-2.041T8.379-16.1l.01-.049.029-.029a1.045,1.045,0,0,1,.791-.225h.02l.02.01.391.2.02.01.02.02a1.159,1.159,0,0,1,.215.386,1.121,1.121,0,0,1,.049.444q0,.625-.059,1.23-.029.264-.073.537t-.1.527l7.393-.117a2,2,0,0,1,.928.137q.5.205.156,1.094a9.289,9.289,0,0,0-.449,1.621,4.32,4.32,0,0,1-.684,1.65l-.01.01-.01.01a.881.881,0,0,1-.356.19,1.263,1.263,0,0,1-.435.034h-.02l-.02-.01-.391-.2-.029-.02-.02-.02a1.169,1.169,0,0,1-.215-.82v-.029l.02-.02a3.766,3.766,0,0,0,.391-.967q.117-.449.225-.889l-6.924.2q-.078.332-.156.654t-.156.64q-.078.317-.156.649a9,9,0,0,1-.327,1,7.154,7.154,0,0,1-.454.942L8-7.285l-.01.01a1.045,1.045,0,0,1-.791.225h-.02ZM5.771-12.187q-.918-.273-1.836-.527t-1.787-.576l-.029-.01L2.09-13.33a1.169,1.169,0,0,1-.215-.82v-.02l.01-.02.2-.391.02-.029.02-.02a1.169,1.169,0,0,1,.82-.215h.01l.02.01q.85.264,1.758.5a13.128,13.128,0,0,1,1.748.6l.02.01.02.02a.881.881,0,0,1,.19.356,1.263,1.263,0,0,1,.034.435v.02l-.01.02-.2.391-.02.029-.02.02a1.3,1.3,0,0,1-.317.171,1.467,1.467,0,0,1-.366.083h-.02ZM25.908,1.9l-.391-.2-.059-.029-.01-.059a40.978,40.978,0,0,1-.41-4.238q-.039-.967-.1-1.929t-.132-1.9q-.117.244-.234.483l-.234.479q-.117.239-.239.474t-.239.479q-.1.186-.19.376t-.181.381q-.088.19-.166.381T23.164-3q-.078.2-.146.4t-.137.4l-.01.029-.02.02a1,1,0,0,1-.791.244h-.029l-.02-.01-.391-.215-.02-.02-.02-.02a1.2,1.2,0,0,1-.19-.361,1.319,1.319,0,0,1-.063-.41v-.02l.01-.02Q22-4.756,22.783-6.475q.742-1.621,1.582-3.184l-1.748.068a1.743,1.743,0,0,1-.513-.073,1.671,1.671,0,0,1-.454-.22l-.01-.01-.01-.01a.881.881,0,0,1-.19-.356,1.263,1.263,0,0,1-.034-.435v-.02l.01-.02.2-.391.02-.029.02-.02a1.485,1.485,0,0,1,1.055-.215l2.021-.039v-3.262a1.774,1.774,0,0,1,.313-1.162l.01-.01.01-.01a1.045,1.045,0,0,1,.791-.225h.02l.02.01.391.2.029.02.02.02a1.448,1.448,0,0,1,.215,1.133L26.5-11.465h2.178l.02.01.391.2.029.01.01.02a.881.881,0,0,1,.19.356,1.263,1.263,0,0,1,.034.435v.02l-.01.02-.2.391-.02.029-.02.02a1.32,1.32,0,0,1-.645.254H26.846l2.168,2.422a1.18,1.18,0,0,1,.342.947v.02l-.01.02-.2.391-.01.029-.02.01a1.045,1.045,0,0,1-.791.225H28.3l-.02-.01-.43-.234-.01-.01-.02-.02-1.3-1.4q.146,2.49.273,4.4.137,2.041.176,4.121V1.24l-.01.02-.2.391-.01.029-.02.01a1.045,1.045,0,0,1-.791.225h-.02ZM38.2,1.211q-7.422,0-8.135.02A2.111,2.111,0,0,1,28.779.879l-.01-.01-.01-.01a1.045,1.045,0,0,1-.225-.791V.049l.01-.02.2-.391L28.76-.4,28.8-.42A3.277,3.277,0,0,1,30.41-.635l-.156-12.48a1.336,1.336,0,0,1,0-.4.625.625,0,0,1,.122-.288.5.5,0,0,1,.259-.166,29.59,29.59,0,0,1,3.32-.156q2.93-.059,3.32-.01a.4.4,0,0,1,.3.205,1.052,1.052,0,0,1,.122.459,5.46,5.46,0,0,1,0,.654L37.617-.625a2.746,2.746,0,0,1,.679.063,2.7,2.7,0,0,1,.62.22l.029.01.01.02a1.045,1.045,0,0,1,.225.791V.5l-.01.02-.2.391-.02.029-.029.02a1.6,1.6,0,0,1-.713.254ZM35.859-.625,35.82-3.887l-3.652.039.039,3.34Zm0-5.02.078-2.617-3.887.039.039,2.617ZM35.9-10.02v-2.4l-3.887.039.039,2.4ZM23.232-11.4l-.391-.2-.039-.02-.02-.039q-.068-.156-.122-.312t-.1-.317q-.049-.161-.088-.322t-.068-.322q-.029-.161-.059-.317-.117-.8-.234-1.621V-14.9l.01-.029.2-.391.02-.029.02-.02a1.169,1.169,0,0,1,.82-.215h.02l.02.01.391.2.049.029.01.049q.127.391.22.786t.161.786q.137.781.254,1.621v.039l-.01.029-.2.391-.01.029-.02.01a.993.993,0,0,1-.229.142.986.986,0,0,1-.264.073,1.5,1.5,0,0,1-.3.01h-.02Zm4.238-.273-.391-.2-.029-.02-.02-.02a1.447,1.447,0,0,1-.19-.391,1.479,1.479,0,0,1-.063-.439v-.029q.205-.713.459-1.4a8.789,8.789,0,0,1,.615-1.328l.01-.02.01-.01a1.022,1.022,0,0,1,.386-.22,1.183,1.183,0,0,1,.444-.044h.02l.02.01.391.2.029.01.01.02a.881.881,0,0,1,.19.356,1.263,1.263,0,0,1,.034.435v.02l-.01.01q-.273.7-.547,1.387t-.508,1.406l-.01.029-.02.02a1.045,1.045,0,0,1-.791.225h-.02Z" transform="translate(776 801)" fill="#fff"/>
    <g id="组_4853" data-name="组 4853" transform="translate(0 905)">
      <rect id="矩形_3599" data-name="矩形 3599" width="872" height="56" fill="#febd17"/>
      <path id="路径_6895" data-name="路径 6895" d="M-90.422-.375l-.469-.234a1.244,1.244,0,0,1-.234-.891l.234-.469q.7-.281,1.418-.621a4.308,4.308,0,0,0,1.488-1.395,3.252,3.252,0,0,0,.75-1.969,1.712,1.712,0,0,0-.68-1.406,3.226,3.226,0,0,0-1.617-.6,7.49,7.49,0,0,0-1.957.047q-1,.152-1.746.246-.867,0-.8-1.078.141-6.258.164-7.055a3.771,3.771,0,0,1,.352-1.5,1.09,1.09,0,0,1,.844-.234l.469.234a1.211,1.211,0,0,1,.234.984l-.094.938q1.547.094,3.129.094a12.1,12.1,0,0,1,3.035.375,1.284,1.284,0,0,1,.234.914l-.234.469a1.09,1.09,0,0,1-.844.234l-5.461-.234v3.7a19.13,19.13,0,0,1,2.7,0,5.357,5.357,0,0,1,1.664.375,4.849,4.849,0,0,1,1.383,1.031,3.3,3.3,0,0,1,.938,1.523A4.752,4.752,0,0,1-85.43-5.25,5.193,5.193,0,0,1-85.9-3.586a5.175,5.175,0,0,1-1.2,1.559,7.305,7.305,0,0,1-1.594,1.16A4.76,4.76,0,0,1-90.422-.375Zm40.125,2.2q-.8-.094-1.617-.164t-9-.07a1.244,1.244,0,0,1-.656-.281A1.09,1.09,0,0,1-61.8.469L-61.57,0a1.183,1.183,0,0,1,.8-.281h4.828l-.047-1.453h-2.672l-.562-.281a1.09,1.09,0,0,1-.234-.844l.234-.492.469-.234h2.672V-4.9l-2.672.047q-.937-.07-.891-1.219l-.141-5.391a.968.968,0,0,1,.363-.762,1.331,1.331,0,0,1,.809-.129l2.625.047v-.984q-2.578-.047-3.211-.047a2.1,2.1,0,0,1-1.148-.328,1.09,1.09,0,0,1-.234-.844l.234-.492a1.289,1.289,0,0,1,1.031-.234l3.328.094.047-1.734q-.75.141-1.406.258t-1.312.211l-.469-.234a1.14,1.14,0,0,1-.281-.891L-59.18-18a39.258,39.258,0,0,1,3.973-.844q2.051-.328,4.113-.469l.469.234a1.244,1.244,0,0,1,.234.891l-.234.469a4.72,4.72,0,0,1-1.687.352,14.342,14.342,0,0,0-1.8.164l-.047,2.063h4.055l.469.234a1.165,1.165,0,0,1,.234.867l-.234.469a3.855,3.855,0,0,1-1.922.375l-2.6-.094v1.031q2.7.141,3.188.2a.6.6,0,0,1,.563.586q.07.527-.07,5.777-.094,1.125-1.125.891L-54.258-4.9v1.359h2.883l.469.234a1.165,1.165,0,0,1,.234.867l-.234.469a1.521,1.521,0,0,1-.7.281h-2.555l.047,1.406q1.2.094,2.391.117a7.312,7.312,0,0,1,2.273.4,1.09,1.09,0,0,1,.234.844l-.234.469A1.371,1.371,0,0,1-50.3,1.828Zm-14.883.234a1.244,1.244,0,0,1-.656-.281l-.258-.469.047-10.289q-.844,1.547-1.57,3.117t-1.57,3.07a1.043,1.043,0,0,1-.844.258l-.469-.258a1.244,1.244,0,0,1-.234-.891q1.031-2.062,2.016-4.2a38.183,38.183,0,0,1,2.2-4.1l-3.281.094-.469-.234a1.14,1.14,0,0,1-.281-.891l.234-.469A5.25,5.25,0,0,1-68.2-13.8h2.156l.07-2.789-2.273.375a1.244,1.244,0,0,1-.656-.281,1.09,1.09,0,0,1-.234-.844l.234-.469q1.688-.422,3.457-.727a30.34,30.34,0,0,1,3.6-.4l.469.234a1.09,1.09,0,0,1,.234.844l-.234.469a2.821,2.821,0,0,1-1.359.328,6.7,6.7,0,0,0-1.406.141L-64.2-13.8h2.766l.469.234a1.244,1.244,0,0,1,.234.891l-.234.469-.469.234h-2.437q.75.891,1.477,1.664a3.213,3.213,0,0,1,.867,1.8l-.234.469A1.09,1.09,0,0,1-62.6-7.8l-.469-.234a5.269,5.269,0,0,0-1.078-1.406l-.094,10.758-.234.469A1.521,1.521,0,0,1-65.18,2.063ZM-52.312-6.68V-7.945L-54.3-7.992v1.266Zm-3.82-.047V-7.992L-57.82-7.9V-6.68ZM-52.359-9.3l.047-1.031-1.852-.094-.047,1.078Zm-3.68-.047.047-1.125h-1.969l.047,1.219ZM-35.6,2.039a2.141,2.141,0,0,1-1.125-.633A8,8,0,0,1-37.547.4a2.276,2.276,0,0,1-.4-1.125l.234-.469a1.09,1.09,0,0,1,.844-.234l.516.328.609.7q.234-.984.422-1.687a8.51,8.51,0,0,0,.234-1.781l-8.086.047a1.244,1.244,0,0,1-.656-.281,1.09,1.09,0,0,1-.234-.844l.234-.469a1.521,1.521,0,0,1,.7-.281h7.945a2.855,2.855,0,0,0-1.5-1.969q-.8-.8,0-1.359.609-.422,1.219-.937a12.309,12.309,0,0,0,1.125-1.078h-5.109a1.244,1.244,0,0,1-.656-.281,1.09,1.09,0,0,1-.234-.844l.234-.469.469-.234q8.3-.281,8.953.152t-.445,1.371l-3.4,3.07a6.159,6.159,0,0,1,.844,1.219A3.48,3.48,0,0,1-33.352-5.7q4.758.047,5.414.047a2.687,2.687,0,0,1,1.219.281,1.09,1.09,0,0,1,.234.844l-.234.469a1.629,1.629,0,0,1-1.219.281l-5.32-.094a17.03,17.03,0,0,1-.4,2.93,5.965,5.965,0,0,1-.891,2.109Q-35.133,1.992-35.6,2.039ZM-44.812-11.18l-.469-.234a5.5,5.5,0,0,1-.4-2.215,16.034,16.034,0,0,0-.117-2.309q-.047-.75,1.219-.8l7.711.234-.094-1.828.234-.469a1.244,1.244,0,0,1,.891-.234l.469.234a6.2,6.2,0,0,1,.328,2.3q7.148.141,7.852.117a4.249,4.249,0,0,1,1.23.117q.527.141.3,1.09a14.536,14.536,0,0,0-.316,1.91,8.212,8.212,0,0,1-.375,1.8,1.09,1.09,0,0,1-.844.234l-.469-.234a1.362,1.362,0,0,1-.281-.984l.328-2.109-16.266-.258.141,2.93-.234.469A1.09,1.09,0,0,1-44.812-11.18Zm40.453,13.1q-1.8-.234-3.656-.352t-11.859-.187l-.375.023a1,1,0,0,1-.633-.258,1.053,1.053,0,0,1-.234-.82l.234-.469a1.285,1.285,0,0,1,.961-.281h7.477L-12.4-2.25l-4.078-.094-.445-.234a1.09,1.09,0,0,1-.234-.844l.234-.469.492-.258,4.078.094V-5.3q-4.641-.187-5.109-.164t-.645-.621a55.567,55.567,0,0,1-.363-5.965q0-.867.609-.937t5.461.164v-1.1l-8.437.188a1.244,1.244,0,0,1-.656-.281,1.23,1.23,0,0,1-.234-.844l.234-.469a12.817,12.817,0,0,1,2.473-.281l6.574-.117v-1.336l-4.617.492a1.217,1.217,0,0,1-.68-.258,1.107,1.107,0,0,1-.211-.82l.211-.469a41.2,41.2,0,0,1,5.438-.762q2.742-.2,5.508-.34l.445.234a1.165,1.165,0,0,1,.234.867l-.234.469a5.109,5.109,0,0,1-2.086.375,21.065,21.065,0,0,0-2.227.07v1.57l5.672.094a4.648,4.648,0,0,1,2.063.445,1.09,1.09,0,0,1,.234.844l-.234.469a1.046,1.046,0,0,1-.914.234l-6.773-.281v1.055q4.313.281,5.168.328t.785,1.453q-.094,4.688-.187,5.2t-.984.633L-10.57-5.25v1.2q1.055.047,2.133.047a6.265,6.265,0,0,1,1.992.3,1.09,1.09,0,0,1,.234.844l-.234.469a1.623,1.623,0,0,1-.961.281l-3.211-.141-.047,1.875q1.8.094,3.645.211A22.257,22.257,0,0,1-3.445.352a1.09,1.09,0,0,1,.234.844l-.234.445A1.545,1.545,0,0,1-4.359,1.922ZM-6.68-6.961l.047-1.406-3.937-.187v1.5Zm-5.672-.117v-1.57l-4.266-.094.141,1.477ZM-6.586-9.7l.047-1.008-4.031-.281v1.1Zm-5.766-.281-.047-1.055-4.266-.094v1.055Z" transform="translate(836 36)" fill="#fff"/>
    </g>
    <path id="路径_6888" data-name="路径 6888" d="M15.352-.156,14.57-.547A3.034,3.034,0,0,1,14.1-2.891q.156-1.6.273-3.086a28.252,28.252,0,0,0,.078-2.969,8.711,8.711,0,0,0-.469-2.7,5.469,5.469,0,0,0-1.289-2.07,2.234,2.234,0,0,0-1.973-.7A3.01,3.01,0,0,0,8.75-13.125q-.859,1.133-1.8,2.539A7.347,7.347,0,0,0,5.781-7.461v3.828l.078,1.055L5.469-1.8a1.816,1.816,0,0,1-1.406.391L3.281-1.8a49.352,49.352,0,0,1-.937-7.852q-.156-3.984-.469-7.891a2.073,2.073,0,0,1,.469-1.094,1.816,1.816,0,0,1,1.406-.391l.781.391A9.58,9.58,0,0,1,5-16.172q.078,1.289.156,2.617.859-1.094,1.719-2.031a7.261,7.261,0,0,1,2.09-1.562,4.549,4.549,0,0,1,2.871-.352A5.515,5.515,0,0,1,14.8-15.937a8.471,8.471,0,0,1,2.012,3.047,12.977,12.977,0,0,1,.547,5.039q-.137,3.281-.137,4.707a6.936,6.936,0,0,1-.469,2.6A1.816,1.816,0,0,1,15.352-.156ZM36.6.078a2.073,2.073,0,0,1-1.094-.469l-.547-.859a14.511,14.511,0,0,1-2.539.938,9.663,9.663,0,0,1-2.676.273,6.566,6.566,0,0,1-2.793-.7A10.193,10.193,0,0,1,24.492-2.48a5.073,5.073,0,0,1-1.484-2.559,8.983,8.983,0,0,1-.2-3.008,9.568,9.568,0,0,1,.664-2.734,6.673,6.673,0,0,1,1.563-2.227,6.02,6.02,0,0,1,2.5-1.445,6.828,6.828,0,0,1,2.891-.234,10.314,10.314,0,0,1,2.422.586A2.543,2.543,0,0,0,31.8-16.328a8.324,8.324,0,0,0-2.285-1.133,4.208,4.208,0,0,0-2.4-.078,12.149,12.149,0,0,1-2.187.391l-.937-.469a1.816,1.816,0,0,1-.391-1.406l.469-.859a5.317,5.317,0,0,1,2.461-.82,10.53,10.53,0,0,1,2.715.117,12.95,12.95,0,0,1,3.379,1.25,5.908,5.908,0,0,1,2.891,3.008,18.238,18.238,0,0,1,.9,6.523,22.627,22.627,0,0,0,1.758,8.633l-.391.781A2.535,2.535,0,0,1,36.6.078ZM32.773-3.711l1.094-.937q-.234-1.406-.312-2.539t-.156-2.3A4.508,4.508,0,0,0,29.8-11.5a3.952,3.952,0,0,0-2.734.879,3.793,3.793,0,0,0-1.055,1.953A7.164,7.164,0,0,0,25.9-6.445a2.962,2.962,0,0,0,.859,1.836,5.529,5.529,0,0,0,1.836,1.191,4.1,4.1,0,0,0,2.227.273A7.06,7.06,0,0,0,32.773-3.711ZM50.039-.7l-.82-.391q-.547-3.555-.742-7.148T48.2-15.43a2.073,2.073,0,0,1,.469-1.094,1.879,1.879,0,0,1,1.445-.391l.781.391q.391,3.594.625,7.266t.313,7.383l-.391.781A1.816,1.816,0,0,1,50.039-.7Zm-.9-18.711A4.258,4.258,0,0,1,47.031-20.9a22.178,22.178,0,0,1-1.523-2.187,4.469,4.469,0,0,1-.723-1.777,1.764,1.764,0,0,1,.664-1.387,1.687,1.687,0,0,1,1.895-.273,4.107,4.107,0,0,1,2.031,1.836q1.055-1.758,2.441-1.6a2.523,2.523,0,0,1,1.8.723,1.5,1.5,0,0,1,.1,1.445,5.786,5.786,0,0,1-.977,1.7A16.706,16.706,0,0,1,51-20.625,5.265,5.265,0,0,1,49.141-19.414ZM76.055-.156l-.781-.391q-1.641-2.5-3.281-4.98t-3.4-4.9L66.328-8.086l.156,6.445-.391.781a1.816,1.816,0,0,1-1.406.391l-.781-.391a3.6,3.6,0,0,1-.547-1.973q0-1.113-.469-25.605a2.073,2.073,0,0,1,.469-1.094,1.816,1.816,0,0,1,1.406-.391l.781.391.391.781.313,15.977,5.9-6.875a2.827,2.827,0,0,1,2.344-.937l.781.391a1.816,1.816,0,0,1,.391,1.406l-.391.781L70.586-12.93q5.078,7.578,6.055,8.809a5.8,5.8,0,0,1,1.211,2.793l-.391.781A1.816,1.816,0,0,1,76.055-.156ZM96.6.078a2.073,2.073,0,0,1-1.094-.469l-.547-.859a14.511,14.511,0,0,1-2.539.938,9.663,9.663,0,0,1-2.676.273,6.566,6.566,0,0,1-2.793-.7A10.193,10.193,0,0,1,84.492-2.48a5.073,5.073,0,0,1-1.484-2.559,8.983,8.983,0,0,1-.2-3.008,9.568,9.568,0,0,1,.664-2.734,6.673,6.673,0,0,1,1.563-2.227,6.02,6.02,0,0,1,2.5-1.445,6.828,6.828,0,0,1,2.891-.234,10.314,10.314,0,0,1,2.422.586A2.543,2.543,0,0,0,91.8-16.328a8.324,8.324,0,0,0-2.285-1.133,4.208,4.208,0,0,0-2.4-.078,12.149,12.149,0,0,1-2.187.391l-.937-.469a1.816,1.816,0,0,1-.391-1.406l.469-.859a5.317,5.317,0,0,1,2.461-.82,10.53,10.53,0,0,1,2.715.117,12.95,12.95,0,0,1,3.379,1.25,5.908,5.908,0,0,1,2.891,3.008,18.238,18.238,0,0,1,.9,6.523,22.627,22.627,0,0,0,1.758,8.633l-.391.781A2.535,2.535,0,0,1,96.6.078ZM92.773-3.711l1.094-.937q-.234-1.406-.312-2.539t-.156-2.3A4.508,4.508,0,0,0,89.8-11.5a3.952,3.952,0,0,0-2.734.879,3.793,3.793,0,0,0-1.055,1.953A7.164,7.164,0,0,0,85.9-6.445a2.962,2.962,0,0,0,.859,1.836,5.529,5.529,0,0,0,1.836,1.191,4.1,4.1,0,0,0,2.227.273A7.06,7.06,0,0,0,92.773-3.711ZM110.039-.7l-.82-.391q-.547-3.555-.742-7.148T108.2-15.43a2.073,2.073,0,0,1,.469-1.094,1.879,1.879,0,0,1,1.445-.391l.781.391q.391,3.594.625,7.266t.313,7.383l-.391.781A1.816,1.816,0,0,1,110.039-.7Zm-.9-18.711a4.258,4.258,0,0,1-2.109-1.484,22.179,22.179,0,0,1-1.523-2.187,4.469,4.469,0,0,1-.723-1.777,1.764,1.764,0,0,1,.664-1.387,1.687,1.687,0,0,1,1.895-.273,4.107,4.107,0,0,1,2.031,1.836q1.055-1.758,2.441-1.6a2.523,2.523,0,0,1,1.8.723,1.5,1.5,0,0,1,.1,1.445,5.786,5.786,0,0,1-.977,1.7,16.706,16.706,0,0,1-1.738,1.8A5.265,5.265,0,0,1,109.141-19.414Z" transform="translate(68 870)" fill="#fff"/>
    <path id="路径_6889" data-name="路径 6889" d="M0,0H8V124H0Z" transform="translate(36 757)" fill="#febd17"/>
    <path id="路径_6890" data-name="路径 6890" d="M-91.6-.7a.656.656,0,0,0-.107-.381l-.283-.137h-5.215l-.176-5.859,4.766.039a.993.993,0,0,0,.4-.146l.137-.283a.161.161,0,0,0,.01-.049.739.739,0,0,0-.117-.42l-.273-.137h-4.9l-.293-5.781,5.43.078a.993.993,0,0,0,.4-.146l.137-.283a.161.161,0,0,0,.01-.049.656.656,0,0,0-.107-.381l-.293-.137-6.045-.166a.489.489,0,0,0-.361.127.648.648,0,0,0-.2.371q.361,12.217.469,13.887l.01.225a.245.245,0,0,0,.059.1A.418.418,0,0,0-98-.156a.982.982,0,0,0,.273.049,42.97,42.97,0,0,0,6-.312l.117-.234A.161.161,0,0,0-91.6-.7Zm3.936.322a.2.2,0,0,0,.063.01.716.716,0,0,0,.078,0A.357.357,0,0,0-87.432-.4a.514.514,0,0,0,.186-.078,16.441,16.441,0,0,1,1.982-2.979l.2-.264,2.6,3.076.293.146a.171.171,0,0,0,.054.01.329.329,0,0,0,.054,0l.063-.01a.512.512,0,0,0,.068-.015l.073-.02A.493.493,0,0,0-81.748-.6l.137-.283a1.887,1.887,0,0,0-.557-1.152l-2.354-2.686,2.686-4.521v-.049a.722.722,0,0,0-.117-.41l-.264-.137-.342.029a6.535,6.535,0,0,0-1.27,1.719A21.876,21.876,0,0,1-85.01-6.045l-.205.313L-87.559-8.8l-.283-.137a.161.161,0,0,0-.049-.01.739.739,0,0,0-.42.117l-.117.244A4.985,4.985,0,0,0-87.4-6.777q.811.928,1.523,1.875l.107.146A20.5,20.5,0,0,0-88.086-.908a1,1,0,0,0,.137.391Zm9.99-8.018-.42-.01a1.166,1.166,0,0,0-.645.176l-.137.273a.243.243,0,0,0-.01.088.562.562,0,0,0,.034.171.651.651,0,0,0,.112.2l.283.146,1.641-.088q.127,3.369.322,4.629a3.311,3.311,0,0,0,.82,1.855,2.118,2.118,0,0,0,1.221.732q.117.01.234.01a4.2,4.2,0,0,0,1.177-.166,3.7,3.7,0,0,0,1.108-.547l.205-.361a.161.161,0,0,0,.01-.049.674.674,0,0,0-.107-.391l-.244-.117A12.275,12.275,0,0,1-73.76-1.4a2.63,2.63,0,0,1-.43.039,1.039,1.039,0,0,1-.986-.5,3.942,3.942,0,0,1-.42-1.533q-.1-.947-.225-4.053l.244-.029a13.461,13.461,0,0,1,1.631-.1h.4a5.074,5.074,0,0,0,1.465-.205l.117-.244a.161.161,0,0,0,.01-.049.656.656,0,0,0-.107-.381l-.283-.137-3.379.088-.049-2.4a1.315,1.315,0,0,0,.02-.215.873.873,0,0,0-.137-.479l-.273-.137a.161.161,0,0,0-.049-.01.637.637,0,0,0-.361.1,7.485,7.485,0,0,0-.176,1.973q0,.449.029,1.221Q-77.324-8.4-77.676-8.4ZM-66.807-.381a.319.319,0,0,0,.093.01A.634.634,0,0,0-66.558-.4a.6.6,0,0,0,.181-.083l.137-.283q-.029-.605-.029-1.084A8.315,8.315,0,0,1-66.2-3.057a5.737,5.737,0,0,1,.85-2.119q.244-.371.547-.752a2.342,2.342,0,0,1,1.641-.928q.781-.078,1.445-.166l.107-.215a.161.161,0,0,0,.01-.049.656.656,0,0,0-.107-.381l-.283-.137q-.625.039-1.23.059A3.394,3.394,0,0,0-65.566-6.66a5.336,5.336,0,0,0-.732.918l-.42.674q-.146-1.729-.2-2.642a9.415,9.415,0,0,0-.259-1.733l-.234-.117a.161.161,0,0,0-.049-.01.615.615,0,0,0-.4.127.733.733,0,0,0-.156.371q.2,2.168.347,4.346A26.74,26.74,0,0,0-67.041-.5Zm12.256-.928a3.014,3.014,0,0,1-.332.02,2.449,2.449,0,0,1-.918-.176,3.023,3.023,0,0,1-1.006-.654,1.737,1.737,0,0,1-.508-1.074q-.02-.2-.02-.4a3.816,3.816,0,0,1,.088-.8,2.156,2.156,0,0,1,.6-1.113,2.187,2.187,0,0,1,1.538-.508h.122a1.9,1.9,0,0,1,.259.024,1.762,1.762,0,0,1,.342.088,2.039,2.039,0,0,1,.342.161,3.255,3.255,0,0,1,.947.83l.049.068.088,1.23q.039.557.176,1.4l-.684.586A4.065,4.065,0,0,1-54.551-1.309Zm-1.729-8.8q-.225,0-.439.02a2.449,2.449,0,0,0-1.055.332l-.166.322a.222.222,0,0,0-.01.083.634.634,0,0,0,.024.156.6.6,0,0,0,.083.181l.352.166a5.745,5.745,0,0,0,.977-.176,2.437,2.437,0,0,1,.63-.078,2.349,2.349,0,0,1,.688.107,4.86,4.86,0,0,1,1.25.615,1.437,1.437,0,0,1,.527.684,1.86,1.86,0,0,1,.107.645v.391l-.361-.146a4.686,4.686,0,0,0-1.152-.273,2.9,2.9,0,0,0-.41-.029,3.2,3.2,0,0,0-.918.137,2.792,2.792,0,0,0-1.2.713,2.992,2.992,0,0,0-.664.967,4.369,4.369,0,0,0-.312,1.3q-.02.215-.02.439a4.533,4.533,0,0,0,.107.977,2.3,2.3,0,0,0,.684,1.162,4.725,4.725,0,0,0,1.147.806,3.082,3.082,0,0,0,1.294.327h.156a4.543,4.543,0,0,0,1.1-.127,7.6,7.6,0,0,0,1.221-.449l.215-.107.371.6a1.036,1.036,0,0,0,.352.146,1.245,1.245,0,0,0,.381-.146l.107-.225a11.582,11.582,0,0,1-.85-4.282,8.943,8.943,0,0,0-.43-3.179,2.712,2.712,0,0,0-1.318-1.377,6.231,6.231,0,0,0-1.621-.6A4.635,4.635,0,0,0-56.279-10.107Zm7.383,7.93q0,.771.01,1.113l.02.176a.439.439,0,0,0,.078.156.556.556,0,0,0,.361.117q.547.02,2.383.117,2.227.029,2.964.029t.923-.01a1.986,1.986,0,0,0,.85-.225l.127-.264a.161.161,0,0,0,.01-.049.656.656,0,0,0-.107-.381l-.293-.137-6.318-.186.244-11.709a.905.905,0,0,0,.02-.176.711.711,0,0,0-.127-.41l-.283-.137a.343.343,0,0,0-.1-.01.6.6,0,0,0-.166.029.469.469,0,0,0-.176.1,1.045,1.045,0,0,0-.205.537Q-48.9-4.971-48.9-2.178Zm15.508-9.971a.844.844,0,0,0,.049-.264.33.33,0,0,0-.088-.244,1.216,1.216,0,0,0-.693-.225.363.363,0,0,0-.088-.01.7.7,0,0,0-.269.059.955.955,0,0,0-.3.215,2.117,2.117,0,0,0-.312.41l-.225.371-.225-.371a1.813,1.813,0,0,0-.879-.811,1.094,1.094,0,0,0-.322-.059.481.481,0,0,0-.186.029.893.893,0,0,0-.21.156.713.713,0,0,0-.161.215.478.478,0,0,0-.049.2,3.148,3.148,0,0,0,.674,1.338,5.254,5.254,0,0,0,.537.7,2.255,2.255,0,0,0,.342.278,1.69,1.69,0,0,0,.361.176,2.833,2.833,0,0,0,.752-.518,8.9,8.9,0,0,0,.83-.859A2.7,2.7,0,0,0-33.389-12.148ZM-34.912-.615a.235.235,0,0,0,.073.01.825.825,0,0,0,.112-.01.6.6,0,0,0,.244-.1L-34.346-1q-.078-3.613-.449-7.09l-.215-.107a.184.184,0,0,0-.059-.01.63.63,0,0,0-.41.127.792.792,0,0,0-.156.381q.039,1.777.132,3.525a34.334,34.334,0,0,0,.356,3.447ZM-26.084-4.5a.678.678,0,0,1-.5-.205,1.654,1.654,0,0,1-.332-1.182,2.762,2.762,0,0,1,.176-1,1.773,1.773,0,0,1,1.025-1.123,1.225,1.225,0,0,1,.449-.088,1.129,1.129,0,0,1,.557.146,2.029,2.029,0,0,1,.762.635l.059.078-.01.107a5.653,5.653,0,0,1-.342,1.348,2.369,2.369,0,0,1-.9,1.064A2.169,2.169,0,0,1-26.084-4.5Zm1.25-4.57a5.881,5.881,0,0,0-.728-.059,4.268,4.268,0,0,0-.454.02,1.5,1.5,0,0,0-.83.488,3.5,3.5,0,0,0-.762,1.211A5,5,0,0,0-28-5.557a2.346,2.346,0,0,0,.107.742,2.559,2.559,0,0,0,.654,1,1.572,1.572,0,0,0,.938.488,1.8,1.8,0,0,0,.254.02,1.761,1.761,0,0,0,.762-.166,9.593,9.593,0,0,0,1.055-.6l.391-.244L-23.77-2.5l-.264.01a4.408,4.408,0,0,0-1.445.313,4.975,4.975,0,0,0-1.348.85,1.542,1.542,0,0,0-.645,1.055q-.01.1-.01.2a2.511,2.511,0,0,0,.146.869,3.284,3.284,0,0,0,.615.967,1.828,1.828,0,0,0,1.152.557,2.807,2.807,0,0,0,1.9-.977,3.629,3.629,0,0,0,.586-.713A1.693,1.693,0,0,0-22.832,0a6.424,6.424,0,0,0,.068-.947q0-.264-.039-.82h.283a2.108,2.108,0,0,0,.938-.205l.127-.264a.161.161,0,0,0,.01-.049.739.739,0,0,0-.117-.42l-.332-.186h-.049a1.283,1.283,0,0,0-.479.107l-.352.146-.088-4.043a2.857,2.857,0,0,0,.029-.337V-7.2a1.248,1.248,0,0,0-.015-.171q-.015-.1-.034-.2a2.263,2.263,0,0,0-.127-.371A4.073,4.073,0,0,0-24.834-9.072Zm.1,10.137.02-.02ZM-26.25-.371a2.467,2.467,0,0,1,.9-.757,4.313,4.313,0,0,1,1.309-.366l.273-.029.029.264a3.365,3.365,0,0,1,.02.352A2.255,2.255,0,0,1-23.965.166a2.8,2.8,0,0,1-.771.9.867.867,0,0,1-.625.215A1.189,1.189,0,0,1-26.211.8.845.845,0,0,1-26.465.22.965.965,0,0,1-26.25-.371ZM-12.129-.1a.617.617,0,0,0,.381-.117,2.285,2.285,0,0,0,.234-.947q.02-.605.029-1.616t.01-1.147a11.665,11.665,0,0,0-.215-2.554,3.219,3.219,0,0,0-.859-1.553,2.824,2.824,0,0,0-1.426-.815,3.1,3.1,0,0,0-.566-.059,1.645,1.645,0,0,0-.723.146,3.642,3.642,0,0,0-.957.635,7.434,7.434,0,0,0-.723.771l-.469.576v-6.875l-.127-.254-.264-.127a.161.161,0,0,0-.049-.01.615.615,0,0,0-.4.127.792.792,0,0,0-.156.381q0,11.24.059,11.924a3.393,3.393,0,0,0,.273,1.1l.254.127a.161.161,0,0,0,.049.01.656.656,0,0,0,.381-.107l.137-.283-.078-2.354a5.406,5.406,0,0,1,.42-1.738q.342-.781.693-1.631a2.018,2.018,0,0,1,1.377-1.25,2.009,2.009,0,0,1,.557-.088,1.26,1.26,0,0,1,1.016.469,3.041,3.041,0,0,1,.654,1.362,13.948,13.948,0,0,1,.166,2.573,12.268,12.268,0,0,1-.2,2.6V-.7a.688.688,0,0,0,.039.2.827.827,0,0,0,.137.249l.293.146A.161.161,0,0,0-12.129-.1Zm4.453-8.3-.42-.01a1.166,1.166,0,0,0-.645.176l-.137.273a.243.243,0,0,0-.01.088.562.562,0,0,0,.034.171.651.651,0,0,0,.112.2l.283.146,1.641-.088q.127,3.369.322,4.629a3.311,3.311,0,0,0,.82,1.855,2.118,2.118,0,0,0,1.221.732q.117.01.234.01A4.2,4.2,0,0,0-3.042-.381,3.7,3.7,0,0,0-1.934-.928l.205-.361a.161.161,0,0,0,.01-.049.674.674,0,0,0-.107-.391l-.244-.117A12.275,12.275,0,0,1-3.76-1.4a2.63,2.63,0,0,1-.43.039,1.039,1.039,0,0,1-.986-.5A3.942,3.942,0,0,1-5.6-3.389q-.1-.947-.225-4.053l.244-.029a13.461,13.461,0,0,1,1.631-.1h.4A5.074,5.074,0,0,0-2.08-7.773l.117-.244a.161.161,0,0,0,.01-.049.656.656,0,0,0-.107-.381l-.283-.137L-5.723-8.5l-.049-2.4a1.315,1.315,0,0,0,.02-.215.873.873,0,0,0-.137-.479l-.273-.137a.161.161,0,0,0-.049-.01.637.637,0,0,0-.361.1,7.485,7.485,0,0,0-.176,1.973q0,.449.029,1.221Q-7.324-8.4-7.676-8.4Z" transform="translate(512 871)" fill="#fff"/>
    <path id="路径_6891" data-name="路径 6891" d="M-48.994-2.178q0,.781.01,1.113l.02.205a.49.49,0,0,0,.117.2.6.6,0,0,0,.42.146q.547.02,2.383.117,2.217.029,2.959.029t.928-.01a2.047,2.047,0,0,0,.918-.244l.156-.322a.321.321,0,0,0,.01-.078q0-.039,0-.093A.673.673,0,0,0-41.1-1.24a.672.672,0,0,0-.117-.225l-.322-.166-6.24-.176.234-11.621a.808.808,0,0,0,.02-.176.838.838,0,0,0-.156-.488l-.332-.156a.521.521,0,0,0-.117-.01.724.724,0,0,0-.2.034.636.636,0,0,0-.225.122,1.277,1.277,0,0,0-.225.6Q-48.994-4.98-48.994-2.178ZM-33.3-12.119a.746.746,0,0,0,.054-.2q0-.068,0-.117a.415.415,0,0,0-.088-.254q-.156-.225-.781-.293a.453.453,0,0,0-.088-.01q-.537,0-.967.732l-.146.234-.146-.234a1.853,1.853,0,0,0-.928-.85,1.018,1.018,0,0,0-.352-.068.6.6,0,0,0-.439.186.746.746,0,0,0-.264.508,1.848,1.848,0,0,0,.332.84,12.167,12.167,0,0,0,.752,1.094,1.985,1.985,0,0,0,.928.664,3.822,3.822,0,0,0,1.191-.908q.273-.283.479-.527A2.625,2.625,0,0,0-33.3-12.119ZM-34.863-.508a.678.678,0,0,0,.449-.146l.166-.322q-.078-3.662-.459-7.178l-.283-.137a.321.321,0,0,0-.078-.01.717.717,0,0,0-.479.156.921.921,0,0,0-.186.439q.039,1.787.137,3.555t.352,3.5l.3.137A.321.321,0,0,0-34.863-.508ZM-26.084-4.6a.553.553,0,0,1-.42-.176,1.152,1.152,0,0,1-.283-.684,2.975,2.975,0,0,1-.029-.4,2.855,2.855,0,0,1,.166-1,1.734,1.734,0,0,1,.811-.986A1.2,1.2,0,0,1-25.273-8a1.1,1.1,0,0,1,.527.137,1.931,1.931,0,0,1,.723.6l.039.059a5.534,5.534,0,0,1-.342,1.387,2.334,2.334,0,0,1-.859,1.025A2.1,2.1,0,0,1-26.084-4.6Zm1.27-4.57a6.132,6.132,0,0,0-.742-.059,4.326,4.326,0,0,0-.459.02,1.584,1.584,0,0,0-.9.518,3.546,3.546,0,0,0-.781,1.24,5.082,5.082,0,0,0-.4,1.895,2.605,2.605,0,0,0,.107.781A2.718,2.718,0,0,0-27.3-3.75a1.691,1.691,0,0,0,1,.518,1.931,1.931,0,0,0,.273.02,1.889,1.889,0,0,0,.8-.176,10.347,10.347,0,0,0,1.064-.6l.244-.156.059,1.543a6.723,6.723,0,0,0-.684.059,3.929,3.929,0,0,0-.908.244,4.964,4.964,0,0,0-.742.381,5.785,5.785,0,0,0-.684.508,1.672,1.672,0,0,0-.684,1.123q-.01.107-.01.205a2.5,2.5,0,0,0,.156.9,3.263,3.263,0,0,0,.635,1.006,1.88,1.88,0,0,0,1.211.586,2.917,2.917,0,0,0,1.982-1,2.668,2.668,0,0,0,.859-1.4,6.693,6.693,0,0,0,.068-.967q0-.264-.029-.723h.176A2.141,2.141,0,0,0-21.514-1.9l.156-.312a.287.287,0,0,0,.01-.068.824.824,0,0,0-.156-.5l-.361-.2a.321.321,0,0,0-.078-.01,1.367,1.367,0,0,0-.518.117l-.215.088-.088-3.887a3.258,3.258,0,0,0,.029-.42,2.108,2.108,0,0,0-.2-.918A4.127,4.127,0,0,0-24.814-9.17Zm.02,10.156a.009.009,0,0,0,.01-.01ZM-26.055.83l-.088-.1a.766.766,0,0,1-.225-.527.872.872,0,0,1,.2-.518A2.412,2.412,0,0,1-25.3-1.04,4.255,4.255,0,0,1-24.023-1.4l.166-.02a4.941,4.941,0,0,1,.039.508A2.111,2.111,0,0,1-24.053.117a2.622,2.622,0,0,1-.742.869.774.774,0,0,1-.557.2A1.013,1.013,0,0,1-26.055.83ZM-12.129,0a.718.718,0,0,0,.459-.146,2.429,2.429,0,0,0,.254-1.035q.02-.576.029-1.592t.01-1.152a11.654,11.654,0,0,0-.215-2.559A3.256,3.256,0,0,0-12.476-8.1a2.9,2.9,0,0,0-1.479-.835A2.749,2.749,0,0,0-14.541-9a1.83,1.83,0,0,0-.791.166,3.761,3.761,0,0,0-.957.635,8.43,8.43,0,0,0-.732.791l-.293.361v-6.621l-.156-.3-.312-.156a.287.287,0,0,0-.068-.01.7.7,0,0,0-.469.156.81.81,0,0,0-.186.439q0,11.25.054,11.909a3.57,3.57,0,0,0,.3,1.2l.313.156a.287.287,0,0,0,.068.01.678.678,0,0,0,.449-.146l.166-.322-.078-2.363a5.474,5.474,0,0,1,.42-1.729q.332-.762.684-1.611a1.9,1.9,0,0,1,1.309-1.191,2.1,2.1,0,0,1,.537-.078,1.179,1.179,0,0,1,.938.42,2.912,2.912,0,0,1,.64,1.328,14.06,14.06,0,0,1,.161,2.554,12.087,12.087,0,0,1-.2,2.583v.068a.88.88,0,0,0,.215.586l.332.166A.287.287,0,0,0-12.129,0Zm4.453-8.5-.42-.01a1.287,1.287,0,0,0-.723.205l-.156.322a.184.184,0,0,0-.01.059.739.739,0,0,0,.186.5l.322.166,1.563-.088q.127,3.281.317,4.521A3.48,3.48,0,0,0-5.742-.889a2.2,2.2,0,0,0,1.279.762q.127.01.249.01t.308-.01a4.384,4.384,0,0,0,.85-.146A3.766,3.766,0,0,0-1.865-.859l.234-.4a.274.274,0,0,0,.01-.063.329.329,0,0,0,0-.054.457.457,0,0,1,0-.073.341.341,0,0,0-.01-.083.483.483,0,0,0-.024-.073.483.483,0,0,1-.024-.073A.369.369,0,0,0-1.768-1.8l-.293-.156a12.049,12.049,0,0,1-1.719.459,2.41,2.41,0,0,1-.41.039A.966.966,0,0,1-5.1-1.9a3.8,3.8,0,0,1-.4-1.484q-.1-.957-.225-3.965l.156-.02a13.221,13.221,0,0,1,1.621-.1h.4A5.075,5.075,0,0,0-2.012-7.7l.146-.3a.363.363,0,0,0,.01-.088.549.549,0,0,0-.02-.127A.6.6,0,0,0-2-8.516l-.322-.166L-5.635-8.6l-.039-2.285a1.268,1.268,0,0,0,.02-.205,1.115,1.115,0,0,0-.01-.156,1.455,1.455,0,0,0-.029-.146,1.03,1.03,0,0,0-.127-.273l-.322-.156a.491.491,0,0,0-.112-.01.765.765,0,0,0-.186.029.655.655,0,0,0-.22.107,7.364,7.364,0,0,0-.186,2.021q0,.449.029,1.143Q-7.324-8.5-7.676-8.5Z" transform="translate(578 871)" fill="#fff"/>
    <path id="路径_6892" data-name="路径 6892" d="M-67.5.391l-.391-.2q-.352-1.973-.859-14.141-.02-1.074.6-1.182a16.048,16.048,0,0,1,2.4-.088,6.018,6.018,0,0,1,2.334.313,5.667,5.667,0,0,1,1.25,1,3.21,3.21,0,0,1,.9,1.5,4.114,4.114,0,0,1,.078,1.592,5.554,5.554,0,0,1-.391,1.416,6.13,6.13,0,0,1-1.152,1.563,6.46,6.46,0,0,1-1.348,1.191,5.166,5.166,0,0,1-1,.41l3.77,4.336a1.178,1.178,0,0,1,.352.957l-.2.391a.908.908,0,0,1-.7.2l-5.02-5.254q.117,1.484.156,2.793T-66.6-.2L-66.8.2A.908.908,0,0,1-67.5.391Zm2.813-8.457A2.659,2.659,0,0,0-63.4-9.2q.371-.7.586-1.211a2.551,2.551,0,0,0,.137-1.26,2.06,2.06,0,0,0-.684-1.318,2.48,2.48,0,0,0-1.445-.664,9.837,9.837,0,0,0-2.3.1l.117,6.152A7.656,7.656,0,0,0-65.7-7.637,4.411,4.411,0,0,0-64.687-8.066Zm9.727,8.027a5.38,5.38,0,0,1-1.348-.41,4.174,4.174,0,0,1-1.348-1.1,4.594,4.594,0,0,1-.977-2.1,9.742,9.742,0,0,1-.234-2.363,7.618,7.618,0,0,1,.254-1.816,3.3,3.3,0,0,1,.781-1.348,4.3,4.3,0,0,1,1.309-.957,2.911,2.911,0,0,1,1.553-.273,5.508,5.508,0,0,1,1.387.293,4.027,4.027,0,0,1,1.406,1.172A4.22,4.22,0,0,1-51.162-6.8a12.728,12.728,0,0,1,.186,1.68q0,.488-.283.576t-5.928.225a6.488,6.488,0,0,0,.313,1.133,2.27,2.27,0,0,0,.605.879,3.2,3.2,0,0,0,.889.576,2.393,2.393,0,0,0,1.1.166,2.363,2.363,0,0,0,1.172-.4,3.772,3.772,0,0,1,1.172-.518l.391.2a1.07,1.07,0,0,1,.2.762l-.2.391a4.6,4.6,0,0,1-1.7.9A7.238,7.238,0,0,1-54.961-.039Zm2.4-6a4.7,4.7,0,0,0-.225-1.309,2.158,2.158,0,0,0-.6-.9,2.554,2.554,0,0,0-1-.547,2.319,2.319,0,0,0-1.152-.059,1.887,1.887,0,0,0-1,.566,2.677,2.677,0,0,0-.615,1,5.8,5.8,0,0,0-.244,1.445Zm6.973,8.613a2.081,2.081,0,0,1-1.328-.645A3.374,3.374,0,0,1-47.578.879a2.848,2.848,0,0,1-.156-1.172,1.813,1.813,0,0,1,.742-1.24,5.363,5.363,0,0,1,1.416-.889,4.575,4.575,0,0,1,1.533-.332l-.039-1.094a9.581,9.581,0,0,1-1.084.605,2.065,2.065,0,0,1-1.162.176,1.881,1.881,0,0,1-1.133-.605,2.855,2.855,0,0,1-.684-1.055,3.023,3.023,0,0,1-.1-1.27,5.712,5.712,0,0,1,.391-1.523,3.779,3.779,0,0,1,.82-1.289,1.754,1.754,0,0,1,1-.566,5.164,5.164,0,0,1,1.24.039,4.342,4.342,0,0,1,2,1.23,2.4,2.4,0,0,1,.2,1.445l.078,3.633a1.427,1.427,0,0,1,.7-.117l.43.234a1.037,1.037,0,0,1,.2.742l-.2.391A2.351,2.351,0,0,1-42.52-1.5,7.121,7.121,0,0,1-42.568.039,3.059,3.059,0,0,1-43.633,1.68,2.864,2.864,0,0,1-45.586,2.578ZM-44.9.859a2.4,2.4,0,0,0,.7-.82A2.173,2.173,0,0,0-44-1.23,3.974,3.974,0,0,0-45.225-.9a2.205,2.205,0,0,0-.811.684.6.6,0,0,0,.02.84.953.953,0,0,0,.654.391A.622.622,0,0,0-44.9.859Zm-.371-5.8a2.12,2.12,0,0,0,.791-.937,5.18,5.18,0,0,0,.322-1.289,1.784,1.784,0,0,0-.664-.547.962.962,0,0,0-.937.02,1.549,1.549,0,0,0-.723.879,2.707,2.707,0,0,0-.137,1.338q.1.713.537.713A1.869,1.869,0,0,0-45.273-4.941Zm13.457,5.1-.391-.2a2.84,2.84,0,0,1-.312-.918q-.078-.488-.156-1.016A4.954,4.954,0,0,1-34.482-.41a3.041,3.041,0,0,1-1.709.234,2.507,2.507,0,0,1-1.5-.908A3.789,3.789,0,0,1-38.555-2.7a12.394,12.394,0,0,1-.273-1.758q-.078-.918-.039-2.832a2.179,2.179,0,0,1,.352-1.094.95.95,0,0,1,.742-.234l.391.2a1.037,1.037,0,0,1,.2.742,21.885,21.885,0,0,0-.146,3.125,8.116,8.116,0,0,0,.244,1.426,2.506,2.506,0,0,0,.605,1.094,1,1,0,0,0,1.064.273,2.655,2.655,0,0,0,1.3-1.074,4.94,4.94,0,0,0,.859-2.285,17.747,17.747,0,0,1,.586-2.676.908.908,0,0,1,.7-.2l.391.2a2.157,2.157,0,0,1,.2,1.367,35.834,35.834,0,0,0,.2,4.268q.156.869.273,1.729l-.2.391A.908.908,0,0,1-31.816.156ZM-23.184,0l-.391-.2q-.391-.547-.8-1.074a3.586,3.586,0,0,1-.605-1.172,7.929,7.929,0,0,1-1.133,1.23,2.588,2.588,0,0,1-1.621.781l-.391-.2a1.037,1.037,0,0,1-.2-.742l.2-.391a2.611,2.611,0,0,0,1.211-.771,4.459,4.459,0,0,0,.7-1.045,7.3,7.3,0,0,0,.391-1.055,38.115,38.115,0,0,1-.9-3.789,15.056,15.056,0,0,1-.293-3.291,13.309,13.309,0,0,1,.215-2.1,2.542,2.542,0,0,1,.605-1.211.994.994,0,0,1,1.084-.3,1.628,1.628,0,0,1,.986.82,5.344,5.344,0,0,1,.527,1.7q.176,1.064.264,1.973a12.392,12.392,0,0,1,0,2.09,14.6,14.6,0,0,1-.322,2.2l-.469,2.031q.234.625.449,1.25A7.452,7.452,0,0,0-22.48-1.406a1.009,1.009,0,0,1,.2.82l-.2.391A.908.908,0,0,1-23.184,0Zm-1.758-7.949a14.043,14.043,0,0,0,.156-2.646q-.078-.674-.127-1.309a3.2,3.2,0,0,0-.205-1q-.156-.361-.254-.117a3.109,3.109,0,0,0-.156.742,7.521,7.521,0,0,0-.02,1.24,14.543,14.543,0,0,0,.2,1.66q.156.918.371,1.816ZM-11.7.039A1.037,1.037,0,0,1-12.246-.2l-.273-.43a7.255,7.255,0,0,1-1.27.469,4.832,4.832,0,0,1-1.338.137,3.283,3.283,0,0,1-1.4-.352,5.1,5.1,0,0,1-1.23-.869A2.536,2.536,0,0,1-18.5-2.52a4.492,4.492,0,0,1-.1-1.5,4.784,4.784,0,0,1,.332-1.367A3.336,3.336,0,0,1-17.48-6.5a3.01,3.01,0,0,1,1.25-.723,3.414,3.414,0,0,1,1.445-.117,5.157,5.157,0,0,1,1.211.293A1.271,1.271,0,0,0-14.1-8.164a4.162,4.162,0,0,0-1.143-.566,2.1,2.1,0,0,0-1.2-.039,6.074,6.074,0,0,1-1.094.2l-.469-.234a.908.908,0,0,1-.2-.7l.234-.43a2.659,2.659,0,0,1,1.23-.41,5.265,5.265,0,0,1,1.357.059,6.475,6.475,0,0,1,1.689.625,2.954,2.954,0,0,1,1.445,1.5A9.119,9.119,0,0,1-11.8-4.9a11.313,11.313,0,0,0,.879,4.316l-.2.391A1.267,1.267,0,0,1-11.7.039Zm-1.914-1.895.547-.469q-.117-.7-.156-1.27T-13.3-4.746a2.254,2.254,0,0,0-1.8-1.006,1.976,1.976,0,0,0-1.367.439,1.9,1.9,0,0,0-.527.977,3.582,3.582,0,0,0-.059,1.113,1.481,1.481,0,0,0,.43.918,2.764,2.764,0,0,0,.918.6,2.052,2.052,0,0,0,1.113.137A3.53,3.53,0,0,0-13.613-1.855ZM-6.875-.117l-.391-.2A26.836,26.836,0,0,1-7.93-4.668q-.156-2.227-.352-4.414a1.037,1.037,0,0,1,.234-.547.908.908,0,0,1,.7-.2l.391.2A9.675,9.675,0,0,1-6.66-7.773q.059.957.137,1.895a5.433,5.433,0,0,1,.918-1.113,3.911,3.911,0,0,1,1.123-.742,3.4,3.4,0,0,1,1.24-.273q.645-.02,1.309-.059l.391.2a.908.908,0,0,1,.2.7l-.2.391q-.723.1-1.592.186a2.1,2.1,0,0,0-1.465.83,7.16,7.16,0,0,0-.908,1.406,5.233,5.233,0,0,0-.43,1.348A12.092,12.092,0,0,0-5.977-.7l-.2.391A.908.908,0,0,1-6.875-.117Z" transform="translate(664 871)" fill="#fff"/>
    <path id="路径_6893" data-name="路径 6893" d="M-58.477.117a1.037,1.037,0,0,1-.547-.234,1.074,1.074,0,0,1-.2-.859q.039-11.172.078-11.758a3.075,3.075,0,0,1,.273-1.094q.449-.7,1.133,0,.7,1.445,1.387,2.939t1.23,3.057q.762-1.6,1.465-3.193t1.543-3.115q.859-.762,1.152.313l.352,13.281-.2.391a.908.908,0,0,1-.7.2l-.391-.2A1.037,1.037,0,0,1-52.129-.7l-.312-9A15.9,15.9,0,0,0-53.73-7.07q-.508,1.348-.9,2.754-.527.645-1.113,0-.469-1.406-.879-2.891A20.648,20.648,0,0,0-57.656-10.1v9.082a1.34,1.34,0,0,1-.234.9A1.267,1.267,0,0,1-58.477.117Zm13.516-.156a5.38,5.38,0,0,1-1.348-.41,4.174,4.174,0,0,1-1.348-1.1,4.594,4.594,0,0,1-.977-2.1,9.742,9.742,0,0,1-.234-2.363,7.618,7.618,0,0,1,.254-1.816,3.3,3.3,0,0,1,.781-1.348,4.3,4.3,0,0,1,1.309-.957,2.911,2.911,0,0,1,1.553-.273,5.508,5.508,0,0,1,1.387.293,4.027,4.027,0,0,1,1.406,1.172A4.22,4.22,0,0,1-41.162-6.8a12.728,12.728,0,0,1,.186,1.68q0,.488-.283.576t-5.928.225a6.488,6.488,0,0,0,.313,1.133,2.27,2.27,0,0,0,.605.879,3.2,3.2,0,0,0,.889.576,2.393,2.393,0,0,0,1.1.166,2.363,2.363,0,0,0,1.172-.4,3.772,3.772,0,0,1,1.172-.518l.391.2a1.07,1.07,0,0,1,.2.762l-.2.391a4.6,4.6,0,0,1-1.7.9A7.238,7.238,0,0,1-44.961-.039Zm2.4-6a4.7,4.7,0,0,0-.225-1.309,2.158,2.158,0,0,0-.6-.9,2.554,2.554,0,0,0-1-.547,2.319,2.319,0,0,0-1.152-.059,1.887,1.887,0,0,0-1,.566,2.677,2.677,0,0,0-.615,1,5.8,5.8,0,0,0-.244,1.445ZM-31.934-.078l-.391-.2a1.2,1.2,0,0,1-.234-.742q-.7.234-1.289.371a4.055,4.055,0,0,1-1.338.059A5.864,5.864,0,0,1-36.66-.937a3,3,0,0,1-1.27-.947,4.114,4.114,0,0,1-.781-1.553,5.124,5.124,0,0,1-.156-1.777,7.214,7.214,0,0,1,.332-1.66,3.361,3.361,0,0,1,.918-1.387,3.391,3.391,0,0,1,1.543-.84,4.894,4.894,0,0,1,1.8-.1,6.342,6.342,0,0,1,1.328.273l-.156-5.527A1.037,1.037,0,0,1-32.871-15a.908.908,0,0,1,.7-.2l.391.2a1.926,1.926,0,0,1,.234.938q0,.508.547,13.359l-.2.391A.95.95,0,0,1-31.934-.078Zm-.781-2.715-.117-4.3A4.365,4.365,0,0,0-35.225-7.7a2.322,2.322,0,0,0-1.318.586,2.619,2.619,0,0,0-.645,1.035,3.745,3.745,0,0,0-.2,1.191,3.771,3.771,0,0,0,.156,1.113,2.465,2.465,0,0,0,.547.938,2.043,2.043,0,0,0,.977.6,3.352,3.352,0,0,0,1.318.078A4.482,4.482,0,0,0-32.715-2.793ZM-24.98-.352l-.41-.2q-.273-1.777-.371-3.574T-25.9-7.715a1.037,1.037,0,0,1,.234-.547.939.939,0,0,1,.723-.2l.391.2q.2,1.8.313,3.633t.156,3.691l-.2.391A.908.908,0,0,1-24.98-.352Zm-.449-9.355a2.129,2.129,0,0,1-1.055-.742,11.089,11.089,0,0,1-.762-1.094,2.234,2.234,0,0,1-.361-.889.882.882,0,0,1,.332-.693.843.843,0,0,1,.947-.137,2.054,2.054,0,0,1,1.016.918q.527-.879,1.221-.8a1.261,1.261,0,0,1,.9.361.748.748,0,0,1,.049.723,2.893,2.893,0,0,1-.488.85,8.353,8.353,0,0,1-.869.9A2.633,2.633,0,0,1-25.43-9.707ZM-11.816.156l-.391-.2a2.84,2.84,0,0,1-.312-.918q-.078-.488-.156-1.016A4.954,4.954,0,0,1-14.482-.41a3.041,3.041,0,0,1-1.709.234,2.507,2.507,0,0,1-1.5-.908A3.789,3.789,0,0,1-18.555-2.7a12.394,12.394,0,0,1-.273-1.758q-.078-.918-.039-2.832a2.179,2.179,0,0,1,.352-1.094.95.95,0,0,1,.742-.234l.391.2a1.037,1.037,0,0,1,.2.742,21.886,21.886,0,0,0-.146,3.125,8.116,8.116,0,0,0,.244,1.426,2.506,2.506,0,0,0,.605,1.094,1,1,0,0,0,1.064.273,2.655,2.655,0,0,0,1.3-1.074,4.94,4.94,0,0,0,.859-2.285,17.747,17.747,0,0,1,.586-2.676.908.908,0,0,1,.7-.2l.391.2a2.157,2.157,0,0,1,.2,1.367,35.834,35.834,0,0,0,.2,4.268q.156.869.273,1.729l-.2.391A.908.908,0,0,1-11.816.156ZM-4.941.039l-.41-.2A2.292,2.292,0,0,1-5.605-1.65q.1-.947.176-2.061t.078-2.09a2.858,2.858,0,0,0-.205-1.318q-.205-.342-.5.107T-6.8-5.684a5.775,5.775,0,0,0-.537,2.256q-.088,1.377-.283,2.92a.908.908,0,0,1-.7.2l-.391-.2a39.753,39.753,0,0,1-.566-4.2q-.176-2.148-.332-4.258l.2-.391a1.037,1.037,0,0,1,.742-.2l.391.2a3.586,3.586,0,0,1,.273,1.211q.039.664.078,1.289A6.2,6.2,0,0,1-6.914-8.418a1.329,1.329,0,0,1,1.27-.566,1.751,1.751,0,0,1,.957.479,5.05,5.05,0,0,1,.566.752,2.578,2.578,0,0,1,1.367-.879A1.411,1.411,0,0,1-1.406-8.4,2.276,2.276,0,0,1-.684-7.227a7.556,7.556,0,0,1,.244,1.5q.049.781-.02,2.344t-.068,2.1A2.218,2.218,0,0,1-.762-.273a.908.908,0,0,1-.7.2l-.391-.2A1.228,1.228,0,0,1-2.09-1.328q.156-3.652.137-4.414a2.886,2.886,0,0,0-.205-1.143q-.186-.381-.557-.1A2.4,2.4,0,0,0-3.369-5.8a13.652,13.652,0,0,0-.459,2.49Q-4-1.719-4.238-.156A.908.908,0,0,1-4.941.039Z" transform="translate(740 873)" fill="#fff"/>
    <path id="路径_6894" data-name="路径 6894" d="M-76.6,0a2.846,2.846,0,0,1-1.514-.488l-.01-.01-.01-.01a1.087,1.087,0,0,1-.264-.83v-.02l.01-.02.2-.41.01-.02.02-.02a1.045,1.045,0,0,1,.791-.225h.02l.029.01a2.547,2.547,0,0,0,1.523.313q.264-.029.5-.063t.449-.073q.21-.039.386-.088A1.537,1.537,0,0,0-73.94-2.2a3.269,3.269,0,0,0,.552-.5,1.765,1.765,0,0,0,.459-1.431,1.928,1.928,0,0,0-.85-1.382,9.786,9.786,0,0,0-1.748-1.025q-.332-.156-.635-.337a5.959,5.959,0,0,1-.576-.391q-.273-.21-.527-.444A4.045,4.045,0,0,1-78.33-9.277a4.562,4.562,0,0,1-.264-1.758,3.846,3.846,0,0,1,.4-1.611,5.2,5.2,0,0,1,.425-.674,5.025,5.025,0,0,1,.542-.615,2.742,2.742,0,0,1,.654-.474,2.83,2.83,0,0,1,.742-.259,5.054,5.054,0,0,1,1.533-.039,3.656,3.656,0,0,1,.723.166,3.24,3.24,0,0,1,.645.3l.02.01.01.01a1.248,1.248,0,0,1,.3.947v.02l-.01.02-.2.391-.01.029-.02.01a1.045,1.045,0,0,1-.791.225h-.02l-.02-.01a2.993,2.993,0,0,0-1.572-.342,1.6,1.6,0,0,0-.889.42,2.707,2.707,0,0,0-.547.83,1.99,1.99,0,0,0-.166.967,3.652,3.652,0,0,0,.205.967,2.479,2.479,0,0,0,.781.947,5.959,5.959,0,0,0,1.6.918,5.409,5.409,0,0,1,.977.518,6.56,6.56,0,0,1,.889.713,4.309,4.309,0,0,1,.7.845,2.993,2.993,0,0,1,.376.894,5.628,5.628,0,0,1,.122.864,4.4,4.4,0,0,1-.024.806,4.712,4.712,0,0,1-.3,1.23,2.044,2.044,0,0,1-.337.508,4.753,4.753,0,0,1-.591.557,3.715,3.715,0,0,1-.835.493,4.553,4.553,0,0,1-1.021.3A11.123,11.123,0,0,1-76.6,0ZM-64.98.078a5.273,5.273,0,0,1-1.377-.42,4.316,4.316,0,0,1-1.387-1.133A4.719,4.719,0,0,1-68.75-3.633a9.9,9.9,0,0,1-.234-2.383q.01-.371.044-.693t.088-.61q.054-.288.122-.542a3.453,3.453,0,0,1,.317-.737,3.587,3.587,0,0,1,.493-.659,4.444,4.444,0,0,1,1.348-.986,3.065,3.065,0,0,1,1.611-.283,7.213,7.213,0,0,1,.767.112,3.817,3.817,0,0,1,.649.19,4.119,4.119,0,0,1,1.455,1.2A4.364,4.364,0,0,1-61.4-7.979a4.409,4.409,0,0,1,.356,1.162,12.928,12.928,0,0,1,.186,1.7q0,.576-.361.684-.3.1-5.82.234a2.222,2.222,0,0,0,.054.264q.034.127.068.249t.073.234q.039.112.078.229a2.15,2.15,0,0,0,.576.83,3.082,3.082,0,0,0,.859.557,2.228,2.228,0,0,0,1.045.156,2.259,2.259,0,0,0,1.113-.381A4.031,4.031,0,0,1-61.963-2.6l.039-.01.039.02.391.2.029.02.02.02a1.2,1.2,0,0,1,.215.84v.02l-.01.02-.2.391-.01.029-.029.01a5.46,5.46,0,0,1-.889.591,4.074,4.074,0,0,1-.85.337,7.529,7.529,0,0,1-1.748.2h-.01Zm2.295-6.221a5.027,5.027,0,0,0-.073-.64,3.941,3.941,0,0,0-.132-.522,1.988,1.988,0,0,0-.229-.464,2.092,2.092,0,0,0-.337-.386,2.535,2.535,0,0,0-.947-.527,2.617,2.617,0,0,0-.557-.093,2.071,2.071,0,0,0-.547.044A1.484,1.484,0,0,0-66-8.545a2.228,2.228,0,0,0-.435.342,2.914,2.914,0,0,0-.356.454,2.3,2.3,0,0,0-.239.5,4.536,4.536,0,0,0-.137.566,6.881,6.881,0,0,0-.088.713Zm7.7,6.289-.41-.2-.029-.02-.02-.029a2.406,2.406,0,0,1-.273-1.562q.1-.947.176-2.056t.078-2.085a2.812,2.812,0,0,0-.186-1.26.287.287,0,0,0-.068-.078q-.078-.049-.234.2a13.413,13.413,0,0,0-.732,1.309,4.24,4.24,0,0,0-.356.981,7.07,7.07,0,0,0-.171,1.235Q-57.3-2.041-57.5-.488l-.01.039-.029.029A1.045,1.045,0,0,1-58.33-.2h-.02l-.02-.01-.391-.2-.059-.029-.01-.059A39.709,39.709,0,0,1-59.395-4.7q-.176-2.148-.332-4.258v-.029l.01-.029.2-.391.02-.029.02-.02a1.169,1.169,0,0,1,.82-.215h.02l.02.01.391.2.039.02.02.039a3.857,3.857,0,0,1,.19.6,3.817,3.817,0,0,1,.093.654q.01.215.024.435t.024.415a6.367,6.367,0,0,1,.386-.62A6.353,6.353,0,0,1-57-8.5,1.446,1.446,0,0,1-55.625-9.1a3.254,3.254,0,0,1,.322.088,2.085,2.085,0,0,1,.273.112,1.658,1.658,0,0,1,.234.142,1.255,1.255,0,0,1,.2.176,5.287,5.287,0,0,1,.488.635,2.7,2.7,0,0,1,1.328-.8,1.918,1.918,0,0,1,.8-.044,1.383,1.383,0,0,1,.659.308,2.313,2.313,0,0,1,.464.542,2.685,2.685,0,0,1,.3.688,7.752,7.752,0,0,1,.244,1.523q.049.791-.02,2.363-.068,1.553-.068,2.09a2.325,2.325,0,0,1-.244,1.055l-.01.029-.02.01a1.045,1.045,0,0,1-.791.225h-.02l-.02-.01-.391-.2-.029-.01-.01-.02a1.359,1.359,0,0,1-.264-1.143q.078-1.836.112-2.93t.024-1.475a4.37,4.37,0,0,0-.059-.645,1.671,1.671,0,0,0-.137-.449.513.513,0,0,0-.049-.078.245.245,0,0,0-.078-.068.126.126,0,0,0-.1,0,.572.572,0,0,0-.156.1,1.077,1.077,0,0,0-.122.122,1.555,1.555,0,0,0-.127.171q-.063.1-.127.22a2.534,2.534,0,0,0-.122.278q-.059.156-.117.332A13.847,13.847,0,0,0-53.711-3.3q-.176,1.6-.41,3.164l-.01.039-.029.029a1.045,1.045,0,0,1-.791.225h-.02Zm9.961-.391-.41-.2L-45.5-.469l-.01-.059q-.273-1.787-.371-3.589t-.137-3.6v-.01a1.22,1.22,0,0,1,.264-.615l.01-.01a1.076,1.076,0,0,1,.811-.225h.02l.02.01.391.2.059.029.01.068q.2,1.8.313,3.633t.156,3.7v.029l-.01.02-.2.391-.01.029-.02.01a1.045,1.045,0,0,1-.791.225h-.02ZM-45.469-9.6a2.221,2.221,0,0,1-1.1-.781q-.117-.137-.215-.273l-.2-.273q-.1-.137-.19-.278t-.171-.278a2.254,2.254,0,0,1-.381-.937A.785.785,0,0,1-47.7-12.7a.965.965,0,0,1,.122-.264,1.389,1.389,0,0,1,.22-.254.918.918,0,0,1,.308-.19.9.9,0,0,1,.361-.054,1.3,1.3,0,0,1,.4.088,2.006,2.006,0,0,1,.977.811,1.311,1.311,0,0,1,1.23-.7,1.384,1.384,0,0,1,.986.41.87.87,0,0,1,.059.83,2.463,2.463,0,0,1-.205.454,3.276,3.276,0,0,1-.3.435,8.515,8.515,0,0,1-.879.908,3.73,3.73,0,0,1-.518.41A1.691,1.691,0,0,1-45.4-9.6l-.029.02ZM-37,0q-.732-.049-.9-.947-.146-.82-.381-12.441-.117-1.211.469-1.523a3.2,3.2,0,0,1,.4-.156,3.775,3.775,0,0,1,.449-.112,3.345,3.345,0,0,1,.488-.054,12.636,12.636,0,0,1,1.406,0,5.77,5.77,0,0,1,1.143.176,1.988,1.988,0,0,1,.542.254,3.122,3.122,0,0,1,.532.449,3.929,3.929,0,0,1,.352.381q.166.205.317.43t.3.479a2.522,2.522,0,0,1,.264,1.709,6.906,6.906,0,0,1-.205.859,6.927,6.927,0,0,1-.293.781,9.623,9.623,0,0,1-1.074,1.68,1.128,1.128,0,0,1,.2.1q.1.063.2.142t.215.176q.112.1.225.205t.239.244a3.754,3.754,0,0,1,.947,1.592,4.58,4.58,0,0,1,.1,1.748,2.668,2.668,0,0,1-.337.967,5.7,5.7,0,0,1-.767,1.035A4.194,4.194,0,0,1-34.463-.488q-1.26.254-2.51.488h-.01Zm3.1-2.617a2.216,2.216,0,0,0,.913-.947,2.061,2.061,0,0,0,.166-1.26,2.326,2.326,0,0,0-.659-1.25,2.236,2.236,0,0,0-1.367-.664,13.649,13.649,0,0,0-1.66-.117l.254,4.863q.381-.049.693-.1t.586-.112A3.276,3.276,0,0,0-33.906-2.617Zm-.762-6.562a2.5,2.5,0,0,0,.347-.269,1.824,1.824,0,0,0,.259-.3,1.908,1.908,0,0,0,.186-.342q.234-.557.391-1.025a1.692,1.692,0,0,0-.029-1,1.62,1.62,0,0,0-.269-.527,2.6,2.6,0,0,0-.493-.488,1.85,1.85,0,0,0-.845-.3,6.334,6.334,0,0,0-1.362-.024l-.039,4.8q.254-.049.483-.1t.444-.107A4.286,4.286,0,0,0-34.668-9.18Zm8.916,9.141a2.883,2.883,0,0,1-.371-.044q-.186-.034-.371-.083a3.344,3.344,0,0,1-.361-.117,1.837,1.837,0,0,1-.566-.332A4.486,4.486,0,0,1-28-1.2a4.266,4.266,0,0,1-.83-1.621,6.421,6.421,0,0,1-.2-1.885q.01-.332.049-.664t.1-.664q.059-.332.137-.664a4.318,4.318,0,0,1,.967-1.826,4.5,4.5,0,0,1,.5-.5,5.153,5.153,0,0,1,.552-.41,4.263,4.263,0,0,1,.6-.322,3.759,3.759,0,0,1,2.031-.283,2.75,2.75,0,0,1,.425.093,3.378,3.378,0,0,1,.415.156,3.4,3.4,0,0,1,.4.215,3.339,3.339,0,0,1,.381.278,4.608,4.608,0,0,1,.371.352q.293.312.508.591a3.087,3.087,0,0,1,.342.542,2.146,2.146,0,0,1,.176.508q.117.664.2,1.357a8.581,8.581,0,0,1,0,1.641,6.306,6.306,0,0,1-.381,1.748,4.17,4.17,0,0,1-.957,1.475,3.96,3.96,0,0,1-.356.317,3.173,3.173,0,0,1-.376.254,2.965,2.965,0,0,1-.41.2,4.066,4.066,0,0,1-.439.142q-.3.068-.62.107t-.649.049A6.079,6.079,0,0,1-25.752-.039Zm2-2.08a1.888,1.888,0,0,0,.85-.986,5.551,5.551,0,0,0,.283-1.318,9.4,9.4,0,0,0,0-1.484A3.3,3.3,0,0,0-23.105-7.4a1.6,1.6,0,0,0-.889-.781.858.858,0,0,0-.19-.039q-.1-.01-.215-.01t-.229.01q-.117.01-.249.029t-.259.049a2.425,2.425,0,0,0-1.279.9,3.216,3.216,0,0,0-.752,1.5,6.052,6.052,0,0,0-.1,1.416,5.176,5.176,0,0,0,.088.674q.068.352.176.713a1.419,1.419,0,0,0,.83.947,2.726,2.726,0,0,0,1.3.186,3.526,3.526,0,0,0,.42-.063,3.282,3.282,0,0,0,.376-.1A1.967,1.967,0,0,0-23.75-2.119ZM-13.232.107l-.391-.2-.029-.02-.02-.02q-.391-.547-.791-1.074a3.439,3.439,0,0,1-.557-.986,9.6,9.6,0,0,1-1.016,1.064,2.678,2.678,0,0,1-1.689.811h-.039l-.02-.01-.391-.2-.029-.02-.02-.02a1.169,1.169,0,0,1-.215-.82V-1.4l.01-.02.2-.391.029-.049.039-.01A2.492,2.492,0,0,0-17-2.607q.156-.176.283-.347a3.784,3.784,0,0,0,.225-.337q.1-.166.176-.332a7.131,7.131,0,0,0,.381-1.006,37.746,37.746,0,0,1-.9-3.77,15.274,15.274,0,0,1-.293-3.32q.029-.693.083-1.221a8.747,8.747,0,0,1,.132-.9,3.248,3.248,0,0,1,.244-.688,2.4,2.4,0,0,1,.391-.571,1.2,1.2,0,0,1,.552-.352,1.162,1.162,0,0,1,.649.01,1.752,1.752,0,0,1,1.055.879,5.258,5.258,0,0,1,.547,1.738q.029.176.054.352t.049.347q.024.171.049.332t.044.322q.02.161.034.317t.034.313a9.347,9.347,0,0,1,.049.986q0,.527-.049,1.123a14.866,14.866,0,0,1-.322,2.217l-.459,1.992q.107.313.22.615t.21.605a4.163,4.163,0,0,0,.4.752q.293.459.771,1.074a1.1,1.1,0,0,1,.225.908v.02l-.01.01-.2.391-.01.029-.02.01a1.045,1.045,0,0,1-.791.225h-.02ZM-15.02-8.271a12.819,12.819,0,0,0,.117-2.314q-.078-.674-.127-1.309a3.551,3.551,0,0,0-.073-.552,2.537,2.537,0,0,0-.122-.405l-.02-.039a.268.268,0,0,1-.015-.034.061.061,0,0,0-.015-.024.946.946,0,0,0-.034.1q-.015.054-.029.117t-.029.137q-.015.073-.024.156t-.02.171a5.387,5.387,0,0,0-.034.552q0,.308.015.674t.068.776q.049.41.127.869.049.283.1.566T-15.02-8.271ZM-1.982.029l-.391-.2L-2.4-.186l-.02-.02a1.332,1.332,0,0,1-.244-.654q-.625.205-1.152.332A4.3,4.3,0,0,1-5.2-.469,5.762,5.762,0,0,1-6.7-.83a3.111,3.111,0,0,1-1.318-.977q-.117-.146-.215-.293t-.186-.3q-.088-.156-.161-.317t-.137-.332q-.063-.171-.112-.356a5.348,5.348,0,0,1-.156-1.816,7.2,7.2,0,0,1,.342-1.689,2.713,2.713,0,0,1,.117-.308,2.894,2.894,0,0,1,.156-.3q.088-.146.19-.288a3.5,3.5,0,0,1,.225-.278q.122-.137.259-.264A3.513,3.513,0,0,1-6.1-9.219a5.153,5.153,0,0,1,1.846-.1q.254.029.474.068t.4.078q.176.039.322.078l-.156-5.361v-.01a1.22,1.22,0,0,1,.264-.615l.01-.01a1.045,1.045,0,0,1,.791-.225h.02l.02.01.391.2.039.02.02.029q.049.1.088.19a1.889,1.889,0,0,1,.068.19,2,2,0,0,1,.049.2q.02.1.029.205t.01.21q0,.508.547,13.35v.039l-.01.02-.2.391-.01.02-.02.02A1.022,1.022,0,0,1-1.5,0a1.183,1.183,0,0,1-.444.044h-.02Zm-.85-2.891-.117-4.15a4.175,4.175,0,0,0-2.256-.566,2.883,2.883,0,0,0-.518.117,2.126,2.126,0,0,0-.415.186,1.9,1.9,0,0,0-.327.244,2.858,2.858,0,0,0-.366.469,2.614,2.614,0,0,0-.249.527,3.68,3.68,0,0,0-.186,1.152,3.727,3.727,0,0,0,.146,1.074,2.441,2.441,0,0,0,.527.9,1.8,1.8,0,0,0,.415.342,2.11,2.11,0,0,0,.5.215,3.155,3.155,0,0,0,1.279.078A4.254,4.254,0,0,0-2.832-2.861Z" transform="translate(836 873)" fill="#fff"/>
  </g>
</svg>
