<svg xmlns="http://www.w3.org/2000/svg" xmlns:xlink="http://www.w3.org/1999/xlink" width="48" height="48" viewBox="0 0 48 48"><defs><clipPath id="a"><path d="M5.663,1029.064A2.628,2.628,0,0,0,3,1031.647v23.248a2.628,2.628,0,0,0,2.663,2.583H24.3a2.627,2.627,0,0,0,2.663-2.583v-12.915s.076-5.156,0-5.166c.174-2.909-7.437-9.146-7.989-7.749C15.92,1028.971,5.663,1029.064,5.663,1029.064Z" transform="translate(8045 -2960.863)" fill="#f25bea" opacity="0.369"/></clipPath></defs><g transform="translate(-427 -155)"><rect width="48" height="48" transform="translate(427 155)" fill="#fff" opacity="0"/><g transform="translate(409 156.243)"><path d="M2.934,29.909A2.963,2.963,0,0,1,0,26.918V2.991A2.963,2.963,0,0,1,2.934,0h13.7a2.9,2.9,0,0,1,2.078.873l4.4,4.478a3.023,3.023,0,0,1,.856,2.119V26.918a2.963,2.963,0,0,1-2.935,2.991Z" transform="translate(30 7.848)" fill="#470137"/><path d="M5.663,1029.064A2.628,2.628,0,0,0,3,1031.647v23.248a2.628,2.628,0,0,0,2.663,2.583H24.3a2.627,2.627,0,0,0,2.663-2.583v-12.915s.076-5.156,0-5.166c.174-2.909-7.437-9.146-7.989-7.749C15.92,1028.971,5.663,1029.064,5.663,1029.064Z" transform="translate(27 -1021.106)" fill="#f25bea" opacity="0.369"/><path d="M-1976.722,680.153a3.438,3.438,0,0,1-.947-2.626,3.518,3.518,0,0,1,1.018-2.6,3.652,3.652,0,0,1,2.681-1.1,2.8,2.8,0,0,1,.664.071v-3.056a.076.076,0,0,1,.021-.063.076.076,0,0,1,.064-.021h1.661c.048,0,.071.028.071.084v8.55a6.54,6.54,0,0,0,.185.931.111.111,0,0,1-.069.122,6.791,6.791,0,0,1-2.851.6A3.461,3.461,0,0,1-1976.722,680.153Zm1.325-4.446a2.63,2.63,0,0,0-.635,1.751,2.42,2.42,0,0,0,.628,1.714,1.819,1.819,0,0,0,1.346.613,1.482,1.482,0,0,0,.752-.14v-4.356a.981.981,0,0,0-.693-.194h-.051A1.785,1.785,0,0,0-1975.4,675.707Zm-4.625,4.969-2.007-3.725h-.014l-1.958,3.725a.216.216,0,0,1-.189.122h-1.714c-.1,0-.122-.049-.059-.148l2.812-4.764-2.677-4.761c-.058-.08-.038-.122.058-.122h1.786a.2.2,0,0,1,.19.1l1.885,3.681h.014l1.876-3.681a.2.2,0,0,1,.19-.1h1.625c.106,0,.126.049.057.148l-2.65,4.6,2.856,4.9c.058.1.034.148-.074.148h-1.8A.223.223,0,0,1-1980.023,680.676Z" transform="translate(2020.632 -655.567)" fill="#ff83f8"/><path d="M-1983.554,675.152l-.726-1.553-.865,1.553H-1986l1.342-2.232-1.342-2.163h.856l.851,1.529.861-1.529h.857l-1.34,2.208,1.217,2.187Zm1.467-.027v-4.333c1.017-.017,2.09-.254,2.7.809a2.545,2.545,0,0,1-.045,2.677,1.918,1.918,0,0,1-1.858.874C-1981.552,675.152-1981.819,675.136-1982.087,675.125Zm.724-3.659v2.947a1.019,1.019,0,0,0,1.223-.4,1.985,1.985,0,0,0,.089-2.041.95.95,0,0,0-.933-.536A2.264,2.264,0,0,0-1981.364,671.466Z" transform="translate(2024.437 -642.156)" fill="#fff"/><g transform="translate(-8018 1939.757)" clip-path="url(#a)"><path d="M23.638,1038.039,15,1029.4v5.759a2.883,2.883,0,0,0,2.879,2.88Z" transform="translate(8050.621 -2962.936)" fill="#f25bea" style="mix-blend-mode:soft-light;isolation:isolate"/></g></g></g></svg>