<svg xmlns="http://www.w3.org/2000/svg" width="1148" height="240" viewBox="0 0 1148 240">
  <g id="taiwanPearl" transform="translate(0 -721)">
    <path id="路径_6831" data-name="路径 6831" d="M0,0H1148V240H0Z" transform="translate(0 721)" fill="#313740"/>
    <path id="路径_6832" data-name="路径 6832" d="M0,0H120V240H0Z" transform="translate(1028 721)" fill="#313740"/>
    <path id="路径_6833" data-name="路径 6833" d="M0,0H120V240H0Z" transform="translate(908 721)" fill="#313740"/>
    <path id="路径_6834" data-name="路径 6834" d="M0,0H120V240H0Z" transform="translate(788 721)" fill="#313740"/>
    <path id="路径_6835" data-name="路径 6835" d="M0,0H120V240H0Z" transform="translate(668 721)" fill="#313740"/>
    <path id="路径_6836" data-name="路径 6836" d="M0,0H120V240H0Z" transform="translate(548 721)" fill="#313740"/>
    <path id="路径_6837" data-name="路径 6837" d="M29.531.977a.818.818,0,0,0,.508-.508V-7.578a.944.944,0,0,0-.508-.547H10.352a.824.824,0,0,0-.508.547V.469a.818.818,0,0,0,.508.508ZM8.164-11.406H31.875a2.809,2.809,0,0,1,1.8,1.8V2.539a2.809,2.809,0,0,1-1.8,1.8H8.125a2.809,2.809,0,0,1-1.8-1.8V-9.609a2.809,2.809,0,0,1,1.8-1.8Zm16.8-13.437a1.3,1.3,0,0,1-.469-.859,1.3,1.3,0,0,1,.742-1.055,2.584,2.584,0,0,1,1.348-.469,1.818,1.818,0,0,1,1.191.508A63.452,63.452,0,0,1,33.2-21.25a26.958,26.958,0,0,1,3.984,5,1.763,1.763,0,0,1,.352.9q0,.664-.937,1.289a2.035,2.035,0,0,1-1.172.508,1.184,1.184,0,0,1-1.055-.664,24.746,24.746,0,0,0-1.836-2.539Q7.852-15.312,6.328-15.117l-.781.2a1.81,1.81,0,0,1-.352.039q-1.133,0-1.641-1.484A3.205,3.205,0,0,1,3.4-17.3a1.64,1.64,0,0,1,.82-1.484.113.113,0,0,1,.078-.039q.625-.039,2.227-1.758l.2-.2q.2-.156.664-.625,1.406-1.406,3.711-4.062a45.808,45.808,0,0,0,4.531-5.977,1.336,1.336,0,0,1,1.211-.742,3.079,3.079,0,0,1,1.211.313q1.133.469,1.133,1.211a1.212,1.212,0,0,1-.312.742,85.843,85.843,0,0,1-9.8,11.172l20.9-1.016Zm46.6-2.266q0,.117.156.156l1.914-.156.352-.586q.547-.937,1.25-.937a1.3,1.3,0,0,1,.508.117.861.861,0,0,1,.625.781,1.553,1.553,0,0,1-.391.9L72.07-21.8l2.852-.352a2.121,2.121,0,0,1-.273-.879.666.666,0,0,1,.156-.488.952.952,0,0,1,.7-.273q.625,0,1.25.938a7.388,7.388,0,0,1,1.055,1.875,2.885,2.885,0,0,1,.117.742A1.041,1.041,0,0,1,77.3-19.18a1.147,1.147,0,0,1-.43.078.762.762,0,0,1-.508-.273,2.2,2.2,0,0,1-.469-.82l-.039-.156a34.745,34.745,0,0,0-5.547.977,1.162,1.162,0,0,1-.586.078A1.344,1.344,0,0,1,68.4-20a1.045,1.045,0,0,1-.078-.391q0-.664,1.016-1.25h.117q.078,0,.2-.156L72.227-25l-2.031.313a3.862,3.862,0,0,1-.547.039,1.278,1.278,0,0,1-1.289-.664,1.147,1.147,0,0,1-.078-.43,1.782,1.782,0,0,1,.9-1.328,1.277,1.277,0,0,1,.078-.137.19.19,0,0,0,.039-.1,8.443,8.443,0,0,0,2.07-3.594q.313-1.094,1.055-1.094a1.434,1.434,0,0,1,.469.1,1.306,1.306,0,0,1,.488.313.792.792,0,0,1,.215.586,2.691,2.691,0,0,1-.156.84A11.91,11.91,0,0,1,71.6-27.187.113.113,0,0,0,71.563-27.109Zm2.461,14.336a1.21,1.21,0,0,1-.781.352.486.486,0,0,1-.352-.156,1.283,1.283,0,0,1-.234-.9v-.2a18.717,18.717,0,0,1-.7-2.773,2.994,2.994,0,0,1-.117-.781.739.739,0,0,1,.2-.547,1,1,0,0,1,.684-.293.838.838,0,0,1,.684.273,2.4,2.4,0,0,1,.469.879,13.184,13.184,0,0,1,.625,2.7A1.969,1.969,0,0,1,74.023-12.773Zm-4.18-5.312a.866.866,0,0,1,.273.039,1.082,1.082,0,0,1,.859,1.211,3.389,3.389,0,0,1-.039.469,10.253,10.253,0,0,1-.977,3.086q-.43.9-1.055.9a.9.9,0,0,1-.469-.117.847.847,0,0,1-.273-.234,1.217,1.217,0,0,1-.352-.9,2.737,2.737,0,0,1,.156-.859.035.035,0,0,1,.039-.039,5.471,5.471,0,0,0,.82-2.344,1.657,1.657,0,0,1,.41-.937A.886.886,0,0,1,69.844-18.086ZM67.031-28.477a1.682,1.682,0,0,1,1.211.352.977.977,0,0,1,.273.723.977.977,0,0,1-.273.723,1.492,1.492,0,0,1-1.094.352h-7.07a1.682,1.682,0,0,1-1.211-.352.977.977,0,0,1-.273-.723.977.977,0,0,1,.273-.723,1.682,1.682,0,0,1,1.211-.352Zm-5.742,8.164a1.749,1.749,0,0,1-1.25-.352.819.819,0,0,1-.234-.605.959.959,0,0,1,.234-.645,1.749,1.749,0,0,1,1.25-.352h4.727a1.682,1.682,0,0,1,1.211.352.845.845,0,0,1,.234.625q0,.977-1.445.977Zm4.727-4.922a1.682,1.682,0,0,1,1.211.352.845.845,0,0,1,.234.625q0,1.016-1.328,1.016H61.289a1.749,1.749,0,0,1-1.25-.352.845.845,0,0,1-.234-.625.986.986,0,0,1,.234-.664,1.749,1.749,0,0,1,1.25-.352Zm-.859,8.516a.818.818,0,0,0-.508-.508H62.461a.818.818,0,0,0-.508.508v1.289a.818.818,0,0,0,.508.508h2.188a.818.818,0,0,0,.508-.508ZM59.688-14.8v-2.539a2.809,2.809,0,0,1,1.8-1.8H65.7a2.809,2.809,0,0,1,1.8,1.8v2.578a2.809,2.809,0,0,1-1.8,1.8H61.484a2.809,2.809,0,0,1-1.8-1.8ZM53.047-27.031q0,.117.156.2l1.914-.156.352-.586q.547-.937,1.211-.937a1.3,1.3,0,0,1,.508.117.962.962,0,0,1,.664.82,1.647,1.647,0,0,1-.352.9,36.226,36.226,0,0,1-3.906,5l2.813-.352a1.577,1.577,0,0,1-.273-.9.667.667,0,0,1,.508-.7.569.569,0,0,1,.352-.039q.664,0,1.289.938a4.322,4.322,0,0,1,.859,1.641l.078.234a2.678,2.678,0,0,1,.039.508,1.041,1.041,0,0,1-.625,1.055.96.96,0,0,1-.352.078q-.625,0-1.055-1.016a34.579,34.579,0,0,0-5.43.977q-.078.117-.684.117a1.433,1.433,0,0,1-1-.352,1.109,1.109,0,0,1-.312-.82q0-.664.9-1.25a.133.133,0,0,1,.1-.039q.059,0,.059.039H50.9l.078-.078a.113.113,0,0,0,.039-.078l1.68-1.992a2.246,2.246,0,0,0,.586-.937q0-.156-.273-.156a6.313,6.313,0,0,0-.723.117q-.605.117-.723.137a2.323,2.323,0,0,1-.352.02,1.38,1.38,0,0,1-1.367-.7,1.147,1.147,0,0,1-.078-.43q0-.664.9-1.25v-.039a.838.838,0,0,1,.156-.2A10.435,10.435,0,0,0,52.7-30.859V-30.9q.43-1.055,1.211-1.016a1.358,1.358,0,0,1,.488.1,1.345,1.345,0,0,1,.469.313.792.792,0,0,1,.215.586,2.691,2.691,0,0,1-.156.84,13.769,13.769,0,0,1-1.836,2.969A.113.113,0,0,0,53.047-27.031Zm3.516,10.078a2.481,2.481,0,0,1-.2-.859.761.761,0,0,1,.547-.781,1.148,1.148,0,0,1,.273-.039q.7,0,1.094,1.172l.625,1.8a2.417,2.417,0,0,1,.137.879,1.152,1.152,0,0,1-.293.723.821.821,0,0,1-.586.273q-.664,0-1.016-1.133v-.039a4.526,4.526,0,0,0-.586-1.953Zm-1.094,3.828a1.169,1.169,0,0,1-.859.352.657.657,0,0,1-.469-.254,2.107,2.107,0,0,1-.391-.918l-.43-2.383a3.606,3.606,0,0,1-.039-.508q0-.977.7-1.133a.737.737,0,0,1,.234-.039q.742,0,1.172,1.172a15.4,15.4,0,0,1,.547,2.266A1.969,1.969,0,0,1,55.469-13.125Zm-6.484-13.2a1.48,1.48,0,0,1-1.074.664,1.457,1.457,0,0,1-1-.43v-.039a9.446,9.446,0,0,0-3.4-2.852q-.742-.43-.742-.977a1.524,1.524,0,0,1,.547-1.016,1.642,1.642,0,0,1,1.172-.547,1.68,1.68,0,0,1,.938.313q2.891,1.641,3.477,2.734a1.423,1.423,0,0,1,.586,1.055A1.625,1.625,0,0,1,48.984-26.328Zm-.156,9.141a2.154,2.154,0,0,1-.7,1.445,1.351,1.351,0,0,1-.937.469,1.541,1.541,0,0,1-.977-.43l-.117-.2a7.364,7.364,0,0,0-.508-.547A11.807,11.807,0,0,0,42.7-18.437q-.781-.391-.781-.977a1.548,1.548,0,0,1,.547-1.055,1.642,1.642,0,0,1,1.172-.547,2.009,2.009,0,0,1,.9.234,11.216,11.216,0,0,1,3.789,2.5A1.53,1.53,0,0,1,48.828-17.187Zm-3.164,19.8a1.09,1.09,0,0,1-1.055.82,1.787,1.787,0,0,1-.9-.273,5.392,5.392,0,0,1-.7-.469,1.346,1.346,0,0,1-.43-.977,1.663,1.663,0,0,1,.2-.742A83.65,83.65,0,0,0,46.8-9.3q.273-.9.938-.9a1.477,1.477,0,0,1,.859.352A1.845,1.845,0,0,1,49.57-8.32a2.1,2.1,0,0,1-.117.664A106.12,106.12,0,0,1,45.664,2.617ZM51.328-17.93a1.082,1.082,0,0,1,.8.293,1.137,1.137,0,0,1,.293.84,2.422,2.422,0,0,1-.078.586A9,9,0,0,1,51.289-13.2q-.352.977-.977.977a1,1,0,0,1-.684-.312,1.174,1.174,0,0,1-.332-.9,2.4,2.4,0,0,1,.156-.82.035.035,0,0,1,.039-.039,5.288,5.288,0,0,0,.859-2.383,1.75,1.75,0,0,1,.391-1A.85.85,0,0,1,51.328-17.93ZM55.859-4.336a.509.509,0,0,0,.391.43h18.4a2.511,2.511,0,0,1,1.68,1.875q0,.039-.078.508-.977,3.906-2.617,5.078a5.561,5.561,0,0,1-2.969.859q-.508.039-1.621.039t-3.3-.156A1.975,1.975,0,0,1,63.828,2.93,1.917,1.917,0,0,1,63.75,2.4a.653.653,0,0,1,.215-.469,1,1,0,0,1,.723-.215q.117,0,1.328.078,1.484.117,3.184.117A4.391,4.391,0,0,0,71.328,1.6l1.406-2.773v-.039a.375.375,0,0,0-.234-.352H54.3a2.292,2.292,0,0,1-1.719-2.227v-.039l.352-1.23a8.51,8.51,0,0,1,.391-1.23,3.444,3.444,0,0,1,1.992-1.523h15.9a.824.824,0,0,0,.508-.547v-.7a.944.944,0,0,0-.508-.547h-17.5A1.682,1.682,0,0,1,52.5-9.961a1,1,0,0,1-.273-.742,1.144,1.144,0,0,1,.273-.781,1.682,1.682,0,0,1,1.211-.352h19.3a2.809,2.809,0,0,1,1.8,1.8v2.656a2.809,2.809,0,0,1-1.8,1.8H56.8a1.31,1.31,0,0,0-.664.508ZM75.117-16.992a1.868,1.868,0,0,1-.2-.9.759.759,0,0,1,.508-.781.441.441,0,0,1,.313-.039q.664,0,1.289.938h.039a7.029,7.029,0,0,1,.9,3.125,1.4,1.4,0,0,1-.742,1.406,1.045,1.045,0,0,1-.391.078.625.625,0,0,1-.391-.156,1.636,1.636,0,0,1-.352-.977A9.312,9.312,0,0,0,75.117-16.992ZM61.641-31.016a.918.918,0,0,1,.469-.781,1.058,1.058,0,0,1,.508-.078q1.094,0,1.836,1.406a2.318,2.318,0,0,1,.391,1.094,1.07,1.07,0,0,1-.9,1.055q-.508.156-.547.156a.069.069,0,0,1-.078-.078q-1.6-2.539-1.641-2.539A.737.737,0,0,1,61.641-31.016Zm32.852,9.258a.944.944,0,0,0,.508.547h9.922a.824.824,0,0,0,.508-.547v-1.016a.944.944,0,0,0-.508-.547H95a.824.824,0,0,0-.508.547Zm12.148,2.617H93.32a2.809,2.809,0,0,1-1.8-1.8v-2.656a2.809,2.809,0,0,1,1.8-1.8H106.68a2.809,2.809,0,0,1,1.8,1.8v2.656a2.809,2.809,0,0,1-1.8,1.8Zm-.078,12.383a.818.818,0,0,0,.508-.508V-8.437h-14.3v1.172a.818.818,0,0,0,.508.508Zm.508-5.352h-14.3v1.6h14.3ZM93.281-15.781a.818.818,0,0,0-.508.508v1.094h14.3v-1.094a.818.818,0,0,0-.508-.508ZM89.727-6.445v-9.648a2.809,2.809,0,0,1,1.8-1.8H108.4a2.809,2.809,0,0,1,1.8,1.8v9.688a2.809,2.809,0,0,1-1.8,1.8H91.523a2.809,2.809,0,0,1-1.8-1.8ZM86.172-27.461a.944.944,0,0,0-.547.508V.82a.818.818,0,0,0,.508.508h27.656a.944.944,0,0,0,.547-.508V-26.953a.818.818,0,0,0-.508-.508Zm31.563-1.328V2.656a2.809,2.809,0,0,1-1.8,1.8H84.1a2.809,2.809,0,0,1-1.8-1.8V-28.828a2.809,2.809,0,0,1,1.8-1.8h31.836a2.809,2.809,0,0,1,1.8,1.8ZM103.945-4.648a3.317,3.317,0,0,1,.977.156q4.766,1.641,6.094,2.852.625.313.625.664,0,.391-.781.781A2.672,2.672,0,0,1,109.8.039a2.121,2.121,0,0,1-1.367-.508,20.821,20.821,0,0,0-5.391-2.5q-.859-.273-.859-.7,0-.312.469-.586A2.275,2.275,0,0,1,103.945-4.648Zm-9.766.313a3.481,3.481,0,0,1,1.406-.352,4.136,4.136,0,0,1,1.113.137,1.583,1.583,0,0,1,.684.332.6.6,0,0,1,.2.43q0,.312-.547.7A20.275,20.275,0,0,1,91.016-.078a2.994,2.994,0,0,1-.781.117,2.379,2.379,0,0,1-1.68-.7,1.067,1.067,0,0,1-.391-.664q0-.547.82-.781Q93.2-3.4,94.141-4.3A.035.035,0,0,1,94.18-4.336Zm60.156-22.07a.824.824,0,0,0-.547-.508h-2.383v2.539h2.93Zm-.547,6.992a.94.94,0,0,0,.547-.547V-22.07h-2.93v2.656Zm-12.461-.547a.944.944,0,0,0,.508.547H144.1V-22.07h-2.773Zm.508-6.953a.818.818,0,0,0-.508.508v2.031H144.1v-2.539Zm7.266,7.5V-22.07h-2.7v2.656Zm-2.7-7.5v2.539h2.7v-2.539Zm8.789,9.922H140.469a2.809,2.809,0,0,1-1.8-1.8v-8.75a2.809,2.809,0,0,1,1.8-1.8h3.164V-30.9A1.512,1.512,0,0,1,144-32.012a1.372,1.372,0,0,1,1.016-.371,1.372,1.372,0,0,1,1.016.371,1.512,1.512,0,0,1,.371,1.113v1.563h2.539V-30.9a1.512,1.512,0,0,1,.371-1.113,1.372,1.372,0,0,1,1.016-.371,1.372,1.372,0,0,1,1.016.371,1.512,1.512,0,0,1,.371,1.113v1.563h3.516a2.809,2.809,0,0,1,1.8,1.8v8.75a2.809,2.809,0,0,1-1.8,1.8Zm1.367,1.758a1.553,1.553,0,0,1,1.133.352,1.267,1.267,0,0,1,.352.938,1.267,1.267,0,0,1-.352.938,1.553,1.553,0,0,1-1.133.352H139.3a1.553,1.553,0,0,1-1.133-.352,1.267,1.267,0,0,1-.352-.937,1.267,1.267,0,0,1,.352-.937,1.553,1.553,0,0,1,1.133-.352ZM153.008-8.2a.818.818,0,0,0-.508-.508h-9.3a.712.712,0,0,0-.469.508v2.031a.822.822,0,0,0,.469.508h9.3a.818.818,0,0,0,.508-.508ZM139.766-5.2V-9.258a2.809,2.809,0,0,1,1.8-1.8H154.3a2.809,2.809,0,0,1,1.8,1.8v4.1a2.809,2.809,0,0,1-1.8,1.8H141.563a2.809,2.809,0,0,1-1.8-1.8ZM124.688-15.7a.818.818,0,0,0,.508.508h9.141a.818.818,0,0,0,.508-.508v-1.289a.818.818,0,0,0-.508-.508H125.2a.818.818,0,0,0-.508.508Zm2.3-12.734a.824.824,0,0,0-.508.547V-20h2.148v-4.766a2.118,2.118,0,0,1,1.445-1.406h2.93v-1.719a.944.944,0,0,0-.508-.547Zm4.258,4.453a.944.944,0,0,0-.547.508V-20h2.3v-3.984Zm-4.375,11.25v6.016q0,6.719-2.383,9.922-.234.859-.82.82a1.446,1.446,0,0,1-.82-.352,1.87,1.87,0,0,1-.859-1.562,2.369,2.369,0,0,1,.039-.488q.039-.176.078-.176,1.914-2.852,1.953-8.984v-6.406h-.547a2.121,2.121,0,0,1-1.445-1.445v-3.164A2.225,2.225,0,0,1,123.516-20h.2v-9.219a2.809,2.809,0,0,1,1.8-1.8h8.477a2.809,2.809,0,0,1,1.8,1.8V-20h.313a2.223,2.223,0,0,1,1.406,1.445v3.164a2.225,2.225,0,0,1-1.406,1.445h-.43V1.211a2.477,2.477,0,0,1-1.172,2.461q-.43.43-3.242.469a1.85,1.85,0,0,1-1.914-1.289,1.163,1.163,0,0,1-.1-.547.87.87,0,0,1,.254-.527,1.214,1.214,0,0,1,.9-.254h2.168a.313.313,0,0,0,.2-.078.332.332,0,0,0,.1-.273V-3.789l-4.023,2.383a2.473,2.473,0,0,1-.9.313,1.155,1.155,0,0,1-1.016-.7,1.733,1.733,0,0,1-.2-.781.926.926,0,0,1,.352-.7,2.476,2.476,0,0,1,.547-.391l5.234-2.539v-6.523Zm5.547,4.648a1.27,1.27,0,0,1-.41.918,1.232,1.232,0,0,1-.879.41,1.769,1.769,0,0,1-1.055-.469l-2.227-1.836a1.471,1.471,0,0,1-.664-1.055,1.013,1.013,0,0,1,.352-.7,1.214,1.214,0,0,1,.879-.391,2.168,2.168,0,0,1,1.113.391A9.321,9.321,0,0,1,131.8-9.062,1.277,1.277,0,0,1,132.422-8.086Zm19.844,4.8a2.675,2.675,0,0,1,.723.117,1.548,1.548,0,0,1,.684.391.84.84,0,0,1,.273.605,1.88,1.88,0,0,1-.2.762L152.461.977h4.453a1.553,1.553,0,0,1,1.133.352,1.32,1.32,0,0,1,.352.977,1.253,1.253,0,0,1-.352.957,1.485,1.485,0,0,1-1.055.332H138.867a1.538,1.538,0,0,1-1.113-.332,1.188,1.188,0,0,1-.332-.879A1.261,1.261,0,0,1,138.867.977h4.18l-.9-2.344a2.271,2.271,0,0,1-.117-.723.849.849,0,0,1,.254-.625,1.52,1.52,0,0,1,.723-.371,1.982,1.982,0,0,1,.547-.078,1.082,1.082,0,0,1,.8.293,1.945,1.945,0,0,1,.449.723l1.25,3.125h3.594l1.25-3.2A1.4,1.4,0,0,1,152.266-3.281Z" transform="translate(68 798)" fill="#fff"/>
    <path id="路径_6804" data-name="路径 6804" d="M8.711-13.32q0,.586.547.586H12.91V-9.98H10.1a.557.557,0,0,0-.41.137.618.618,0,0,0-.137.449.618.618,0,0,0,.137.449.557.557,0,0,0,.41.137h7.246a.557.557,0,0,0,.41-.137.618.618,0,0,0,.137-.449.618.618,0,0,0-.137-.449.557.557,0,0,0-.41-.137h-3.2v-2.754H17.93a.529.529,0,0,0,.391-.137.6.6,0,0,0,.137-.439.6.6,0,0,0-.127-.43.547.547,0,0,0-.4-.127H14.141v-1.621A.557.557,0,0,0,14-15.9a.667.667,0,0,0-.479-.137.667.667,0,0,0-.479.137.557.557,0,0,0-.137.41v1.621H9.219a.517.517,0,0,0-.381.127A.578.578,0,0,0,8.711-13.32Zm-1.5,2.578a.529.529,0,0,0,.391-.137.65.65,0,0,0,.137-.469.645.645,0,0,0-.127-.459.547.547,0,0,0-.4-.127H5.723v-3.535a.557.557,0,0,0-.137-.41.65.65,0,0,0-.469-.137.65.65,0,0,0-.469.137.557.557,0,0,0-.137.41v3.535H2.852l.254-1.914v-.137A.468.468,0,0,0,3-14.326a.506.506,0,0,0-.322-.127.574.574,0,0,0-.137-.02.312.312,0,0,0-.244.1A.732.732,0,0,0,2.168-14a15.342,15.342,0,0,1-1.23,5.43L.918-8.5a.822.822,0,0,0-.02.2v.039a.442.442,0,0,0,.1.293.755.755,0,0,0,.527.2.32.32,0,0,0,.234-.1.7.7,0,0,0,.156-.254,12.253,12.253,0,0,0,.664-2.617H4.512v5.273L1.66-4.844a.521.521,0,0,0-.293.146.391.391,0,0,0-.1.273,1.324,1.324,0,0,0,.039.322.774.774,0,0,0,.186.381.437.437,0,0,0,.322.127h.1q.02,0,2.6-.684V1.445a.557.557,0,0,0,.137.41.65.65,0,0,0,.469.137.65.65,0,0,0,.469-.137.557.557,0,0,0,.137-.41V-4.57l1.621-.469A.51.51,0,0,0,7.656-5.2a.622.622,0,0,0,.156-.459.622.622,0,0,0-.156-.459.265.265,0,0,0-.2-.078.875.875,0,0,0-.234.039l-1.5.371v-4.961Zm3.027,6.895a1.216,1.216,0,0,0-.176.127.246.246,0,0,0-.078.2.5.5,0,0,0,.156.3,10.971,10.971,0,0,1,1.641,2.148,1.7,1.7,0,0,0,.137.176.467.467,0,0,0,.332.156.844.844,0,0,0,.41-.137q.312-.2.313-.391a.578.578,0,0,0-.156-.332,10.288,10.288,0,0,0-1.68-2.168.684.684,0,0,0-.449-.215A.894.894,0,0,0,10.234-3.848Zm8.652-1.738a.492.492,0,0,0-.547-.566H16.582V-7.5a.529.529,0,0,0-.137-.391.684.684,0,0,0-.488-.137.68.68,0,0,0-.479.127.547.547,0,0,0-.127.4v1.348H9.023a.492.492,0,0,0-.547.566.611.611,0,0,0,.127.439.578.578,0,0,0,.42.127h6.328V.254a.46.46,0,0,1-.1.332l-.039.039q-.371.059-2.129.1h-.039a.377.377,0,0,0-.264.068.251.251,0,0,0-.068.186.964.964,0,0,0,.059.293.814.814,0,0,0,.8.664A16.1,16.1,0,0,0,15.2,1.846a1.476,1.476,0,0,0,.664-.186,1.065,1.065,0,0,0,.391-.215,1.162,1.162,0,0,0,.176-.215,2.236,2.236,0,0,0,.156-.957V-5.02h1.8a.517.517,0,0,0,.381-.127A.611.611,0,0,0,18.887-5.586Zm2.031-4.121v.156a1.03,1.03,0,0,0,.059.264.782.782,0,0,0,.2.322.529.529,0,0,0,.391.137.159.159,0,0,0,.117-.039,8.314,8.314,0,0,1,2.148-.371l.43-.039q-1.309,1.895-1.914,2.6l-1.035.957a.827.827,0,0,0-.254.605,1.051,1.051,0,0,0,.059.332.752.752,0,0,0,.186.342.489.489,0,0,0,.361.127H21.8a4.19,4.19,0,0,1,1.26-.352q1.1-.215,3.877-.625l.1.313a.572.572,0,0,0,.127.3.261.261,0,0,0,.186.088.687.687,0,0,0,.244-.059.86.86,0,0,0,.264-.166.443.443,0,0,0,.117-.342,1.315,1.315,0,0,0-.02-.215,11.361,11.361,0,0,0-1-2.6,1.043,1.043,0,0,0-.2-.273.4.4,0,0,0-.293-.117.838.838,0,0,0-.215.039Q26-8.242,26-8.047a1.051,1.051,0,0,0,.059.332l.625,1.582-4,.527.332-.371a37.1,37.1,0,0,0,4.082-5.977.559.559,0,0,0,.1-.293q0-.234-.352-.43a.726.726,0,0,0-.371-.137h-.039q-.2,0-.332.293l-1.23,2.227-2.5.234.273-.352a27.111,27.111,0,0,0,2.715-4.609.475.475,0,0,0-.059-.547A.87.87,0,0,0,25-15.742a1.6,1.6,0,0,0-.352-.059q-.234,0-.371.332a14.893,14.893,0,0,1-1.113,2.383,13.1,13.1,0,0,1-1.641,2.48.969.969,0,0,1-.391.273A2.068,2.068,0,0,0,20.918-9.707Zm1.66,7.188a.468.468,0,0,0-.107-.342.506.506,0,0,0-.322-.127.642.642,0,0,0-.156-.02.383.383,0,0,0-.283.107.618.618,0,0,0-.146.342L20.84.781A1.315,1.315,0,0,0,20.82,1a.526.526,0,0,0,.352.508.5.5,0,0,0,.508-.059.87.87,0,0,0,.176-.293A16.222,16.222,0,0,0,22.578-2.4ZM23.906-2.6,24.3.547a.7.7,0,0,0,.117.342A.241.241,0,0,0,24.6.977,1.044,1.044,0,0,0,24.8.957a.562.562,0,0,0,.283-.146A.468.468,0,0,0,25.2.469V.391l-.41-3.047a.491.491,0,0,0-.127-.332.353.353,0,0,0-.244-.1A.555.555,0,0,0,24-2.93.46.46,0,0,0,23.906-2.6ZM27.148-3.2q-.2-.371-.41-.371a.545.545,0,0,0-.43.176.217.217,0,0,0-.078.186,1.427,1.427,0,0,0,.039.3,12.892,12.892,0,0,1,.781,2.7.687.687,0,0,0,.146.3.271.271,0,0,0,.2.088.9.9,0,0,0,.244-.039.559.559,0,0,0,.244-.146.468.468,0,0,0,.107-.342,1.315,1.315,0,0,0-.02-.215A15.084,15.084,0,0,0,27.148-3.2ZM34.336-.586v-5.9h3.027V-1a.968.968,0,0,1-.176.254.7.7,0,0,1-.254.156ZM30.352-1V-6.484H33.2v5.9H30.762a.586.586,0,0,1-.391-.391Zm.41-12.715H33.2v6.035H30.352V-13.3a.586.586,0,0,1,.391-.391Zm6.6.41v5.625H34.336v-6.035h2.6a.59.59,0,0,1,.41.391ZM37.813.586a1.17,1.17,0,0,0,.742-.742V-14.219a1.17,1.17,0,0,0-.742-.742H29.922a1.17,1.17,0,0,0-.742.742V-.156a1.17,1.17,0,0,0,.742.742Z" transform="translate(588.369 800.035)" fill="#fff"/>
    <path id="路径_6805" data-name="路径 6805" d="M.84-9.707v.156a1.1,1.1,0,0,0,.068.283.914.914,0,0,0,.225.361.581.581,0,0,0,.43.156.217.217,0,0,0,.1-.02l.039-.02A10.236,10.236,0,0,1,4.1-9.2Q2.891-7.422,2.3-6.719,1.289-5.8,1.27-5.781a.916.916,0,0,0-.293.664,1.237,1.237,0,0,0,.059.352.955.955,0,0,0,.225.381.541.541,0,0,0,.4.146.592.592,0,0,0,.176-.02,4.581,4.581,0,0,1,1.24-.332q1.1-.215,3.818-.625l.059.254a.728.728,0,0,0,.166.342.318.318,0,0,0,.225.107.629.629,0,0,0,.273-.078.571.571,0,0,0,.43-.566,1.7,1.7,0,0,0-.02-.234A11.292,11.292,0,0,0,7.012-8.008q-.215-.43-.547-.43a.717.717,0,0,0-.234.049.6.6,0,0,0-.225.137.317.317,0,0,0-.088.234A.942.942,0,0,0,6-7.676l.586,1.484-3.73.508.215-.254a37.1,37.1,0,0,0,4.082-5.977.605.605,0,0,0,.117-.332q0-.273-.391-.488a.774.774,0,0,0-.41-.156H6.426q-.234,0-.391.332L4.824-10.352l-2.3.215.176-.234A26.847,26.847,0,0,0,5.41-15a1.406,1.406,0,0,0,.078-.293q-.02-.332-.449-.508-.254-.059-.352-.078a.39.39,0,0,0-.3.117.833.833,0,0,0-.166.273,14.228,14.228,0,0,1-1.113,2.363Q1.621-10.469,1.094-10.41A2.761,2.761,0,0,0,.84-9.707ZM.742,1a.568.568,0,0,0,.41.566q.215.039.293.059.313,0,.469-.43a15.68,15.68,0,0,0,.742-3.574V-2.52A.529.529,0,0,0,2.52-2.91a.887.887,0,0,0-.352-.156.905.905,0,0,0-.176-.02.429.429,0,0,0-.332.127.831.831,0,0,0-.176.381L.762.762A1.694,1.694,0,0,0,.742,1ZM3.828-2.6,4.219.547a.705.705,0,0,0,.146.4.318.318,0,0,0,.225.107,1.423,1.423,0,0,0,.234-.02A.752.752,0,0,0,5.146.85.517.517,0,0,0,5.273.469V.391l-.41-3.047A.642.642,0,0,0,4.7-3.047a.408.408,0,0,0-.283-.117.577.577,0,0,0-.449.2A.463.463,0,0,0,3.828-2.6Zm3.379-.625q-.215-.43-.449-.43a.687.687,0,0,0-.508.2.331.331,0,0,0-.1.244,1.027,1.027,0,0,0,.059.322A13.531,13.531,0,0,1,6.973-.2q.117.449.449.449A.684.684,0,0,0,7.637.215a.571.571,0,0,0,.43-.566,1.7,1.7,0,0,0-.02-.234A14.285,14.285,0,0,0,7.207-3.223ZM16.914-.664h-2.5V-6.406h2.871V-1A.586.586,0,0,1,16.914-.664ZM10.43-1.016V-6.406h2.7V-.664H10.781A.528.528,0,0,1,10.43-1.016Zm.352-12.617h2.344v5.879h-2.7v-5.527A.528.528,0,0,1,10.781-13.633Zm6.5.352v5.527H14.414v-5.879h2.5a.534.534,0,0,1,.371.332ZM17.832.664a1.287,1.287,0,0,0,.8-.8v-14.1a1.287,1.287,0,0,0-.8-.8H9.9a1.287,1.287,0,0,0-.8.8v14.1a1.287,1.287,0,0,0,.8.8ZM37.285-13.223v1.152h-1.7v-1.5h1.328a.534.534,0,0,1,.371.332ZM36.914-9.59H35.586v-1.562h1.7v1.191A.584.584,0,0,1,36.914-9.59Zm-6.367-.371v-1.191h1.621V-9.59H30.879A.586.586,0,0,1,30.547-9.961Zm.352-3.613h1.27v1.5H30.547v-1.152A.528.528,0,0,1,30.9-13.574Zm3.77,3.984H33.086v-1.562h1.582Zm-1.582-3.984h1.582v1.5H33.086ZM38.4-13.75a1.287,1.287,0,0,0-.8-.8H35.742v-.9q0-.625-.576-.625t-.576.625v.9h-1.5v-.9q0-.625-.576-.625t-.576.625v.9h-1.68a1.287,1.287,0,0,0-.8.8v4.336a1.287,1.287,0,0,0,.8.8H37.6a1.287,1.287,0,0,0,.8-.8ZM38.281-7.5H29.648a.658.658,0,0,0-.479.146.515.515,0,0,0-.146.381.515.515,0,0,0,.146.381.658.658,0,0,0,.479.146h8.633a.658.658,0,0,0,.479-.146.515.515,0,0,0,.146-.381.515.515,0,0,0-.146-.381A.658.658,0,0,0,38.281-7.5Zm-1.66,3.379v1.055a.528.528,0,0,1-.352.352H31.582a.527.527,0,0,1-.332-.352V-4.121a.479.479,0,0,1,.313-.352H36.27A.528.528,0,0,1,36.621-4.121ZM30.8-5.41a1.287,1.287,0,0,0-.8.8V-2.6a1.287,1.287,0,0,0,.8.8h6.328a1.287,1.287,0,0,0,.8-.8V-4.609a1.287,1.287,0,0,0-.8-.8ZM22.227-7.832v-.684a.528.528,0,0,1,.352-.352h4.609a.528.528,0,0,1,.352.352v.684a.528.528,0,0,1-.352.352H22.578A.528.528,0,0,1,22.227-7.832Zm2.832-5.137a.938.938,0,0,0-.625.605v2.48H23.125v-4.082a.534.534,0,0,1,.332-.371h2.832a.586.586,0,0,1,.332.371v1Zm.547.859h1.016v2.227H25.234v-1.895A.586.586,0,0,1,25.605-12.109ZM21.152-7.715a.939.939,0,0,0,.625.625h.371v3.32a8.6,8.6,0,0,1-1,4.59.544.544,0,0,0-.039.234.811.811,0,0,0,.391.684.578.578,0,0,0,.332.156h.02q.176,0,.273-.352a8.161,8.161,0,0,0,1.191-4.9V-6.484h3.223v3.457L23.867-1.719a.879.879,0,0,0-.205.127l-.068.068a.355.355,0,0,0-.117.254A.547.547,0,0,0,23.555-1a1.059,1.059,0,0,0,.166.225.33.33,0,0,0,.244.088.826.826,0,0,0,.391-.137l2.188-1.289v2.7a.267.267,0,0,1-.088.225.276.276,0,0,1-.166.068H25.2q-.273,0-.352.1a.289.289,0,0,0-.1.205.547.547,0,0,0,.039.205.821.821,0,0,0,.84.566,8.906,8.906,0,0,0,1.113-.078.936.936,0,0,0,.43-.137,1.1,1.1,0,0,0,.234-.176,1.263,1.263,0,0,0,.313-.957v-7.7h.313a1,1,0,0,0,.605-.625V-9.258a1,1,0,0,0-.605-.625h-.254V-14.59a1.287,1.287,0,0,0-.8-.8h-4.2a1.287,1.287,0,0,0-.8.8v4.707h-.2a.994.994,0,0,0-.625.625ZM25.547-3.5a.523.523,0,0,0,.371-.176A.493.493,0,0,0,26.094-4a.585.585,0,0,0-.293-.449,5.267,5.267,0,0,0-1.094-.859,1.013,1.013,0,0,0-.488-.176.486.486,0,0,0-.352.156.437.437,0,0,0-.156.293q0,.176.293.41l1.113.918A.733.733,0,0,0,25.547-3.5ZM36.133-1.523a.469.469,0,0,0-.361.137,1.13,1.13,0,0,0-.205.313L34.9.605H32.949l-.664-1.641a1.1,1.1,0,0,0-.2-.3.361.361,0,0,0-.273-.127.8.8,0,0,0-.586.2.331.331,0,0,0-.1.244.86.86,0,0,0,.059.3L31.7.605H29.434a.627.627,0,0,0-.459.146.541.541,0,0,0-.146.4.529.529,0,0,0,.137.391.65.65,0,0,0,.469.137H38.5a.618.618,0,0,0,.449-.137.529.529,0,0,0,.137-.391.541.541,0,0,0-.146-.4.658.658,0,0,0-.479-.146H36.016l.742-1.367a.65.65,0,0,0,.1-.3.327.327,0,0,0-.107-.234.707.707,0,0,0-.293-.166A1.094,1.094,0,0,0,36.133-1.523Z" transform="translate(708.258 800.074)" fill="#fff"/>
    <path id="路径_6807" data-name="路径 6807" d="M11.172-12.09v.039a1.269,1.269,0,0,1-.215.645h2.7l.8-1.68H10.762A2.61,2.61,0,0,1,11.172-12.09Zm.41,6.992a.3.3,0,0,0-.176.156v.8a.293.293,0,0,0,.176.176H14a.239.239,0,0,0,.156-.176v-.8A.235.235,0,0,0,14-5.1ZM9.063-9.844a.3.3,0,0,0-.176.156v8.223a.831.831,0,0,1-.225.615.872.872,0,0,1-.645.225A.872.872,0,0,1,7.373-.85a.831.831,0,0,1-.225-.615V-10.41a1.523,1.523,0,0,1,1-1H9.551a2.858,2.858,0,0,0-.449-.977.226.226,0,0,1-.039-.156.963.963,0,0,1,.156-.547H6.973a.847.847,0,0,1-.625-.215.779.779,0,0,1-.215-.576.779.779,0,0,1,.215-.576.847.847,0,0,1,.625-.215h4.473l-.293-.508A.827.827,0,0,1,11-15.635a.5.5,0,0,1,.146-.371.987.987,0,0,1,.352-.225,1.121,1.121,0,0,1,.4-.078.873.873,0,0,1,.762.469l.762,1.172h4.824a.858.858,0,0,1,.635.225.78.78,0,0,1,.225.576.766.766,0,0,1-.215.566.819.819,0,0,1-.605.215H16.094a.832.832,0,0,1,.039.293.9.9,0,0,1-.078.371l-.566,1.016H17.4a1.523,1.523,0,0,1,1,1L18.262-1.6v.059a1.176,1.176,0,0,1-.225.3,1.88,1.88,0,0,1-.439.3A4.172,4.172,0,0,1,15.684-.7a1.054,1.054,0,0,1-1.074-.781,1.353,1.353,0,0,1-.059-.391.486.486,0,0,1,.156-.352.71.71,0,0,1,.488-.156l1.328.039a.113.113,0,0,0,.078-.02.2.2,0,0,0,.02-.117V-9.668a.3.3,0,0,0-.156-.176h-2.93v.977h2.129a.9.9,0,0,1,.654.205.69.69,0,0,1,.205.508.675.675,0,0,1-.2.5.856.856,0,0,1-.625.2H13.535v1.035h1.133a1.523,1.523,0,0,1,1,1v1.8a1.523,1.523,0,0,1-1,1h-3.75a1.523,1.523,0,0,1-1-1v-1.8a1.523,1.523,0,0,1,1-1h1.094V-7.461H9.863a.967.967,0,0,1-.7-.215A.757.757,0,0,1,9-8.164a.678.678,0,0,1,.205-.5.9.9,0,0,1,.654-.205h2.148v-.977Zm-3.711-3.32a.808.808,0,0,1-.43.645.965.965,0,0,1-.566.215A.77.77,0,0,1,3.73-12.7a17.276,17.276,0,0,0-1.66-2.148.827.827,0,0,1-.273-.527.669.669,0,0,1,.41-.566,2.233,2.233,0,0,1,.527-.176h.02a.894.894,0,0,1,.684.371l1.7,2.031A.944.944,0,0,1,5.352-13.164ZM4.414-5.1A.3.3,0,0,0,4.3-5.2H1.621a.42.42,0,0,1-.234.078.4.4,0,0,1-.264-.146,1.8,1.8,0,0,1-.3-.459,1.475,1.475,0,0,1-.078-.469.829.829,0,0,1,.488-.781l.391-.234a23.054,23.054,0,0,0,2.207-2.91H1.68a.858.858,0,0,1-.635-.225.793.793,0,0,1-.225-.586.813.813,0,0,1,.215-.586.852.852,0,0,1,.645-.225l3.086-.1A2.637,2.637,0,0,1,6-11.562a.554.554,0,0,1,.391.508.926.926,0,0,1-.215.527L3.32-6.8l2.051.176.02.02A1.42,1.42,0,0,1,6.25-5.566v.078L5.1-1.895A4.006,4.006,0,0,0,7.578-.156a19.51,19.51,0,0,0,4.99.488q3.252,0,6.1-.234h.059A.637.637,0,0,1,19.2.254.476.476,0,0,1,19.355.6a1.176,1.176,0,0,1-.078.4,1.132,1.132,0,0,1-1.094.879q-2.656.137-5.9.137a19.671,19.671,0,0,1-5.117-.527A5.505,5.505,0,0,1,4.316-.371,6.991,6.991,0,0,1,2.285,1.953a.942.942,0,0,1-.547.176A1.093,1.093,0,0,1,1,1.777.874.874,0,0,1,.7,1.23.681.681,0,0,1,1.094.645Q3.613-1.016,4.414-5.1ZM36.27-10.781a.239.239,0,0,0-.176-.156H30.918v4.9h5.176a.312.312,0,0,0,.176-.137ZM23.652-6.172a.237.237,0,0,0,.156.137h5.176v-4.9H23.828a.3.3,0,0,0-.176.156Zm5.332-9.316a.834.834,0,0,1,.244-.615.98.98,0,0,1,.723-.244.98.98,0,0,1,.723.244.834.834,0,0,1,.244.615v2.7h6.27a1.523,1.523,0,0,1,1,1v6.621a1.523,1.523,0,0,1-1,1h-6.27V1.445a.834.834,0,0,1-.244.615,1.192,1.192,0,0,1-1.445,0,.834.834,0,0,1-.244-.615V-4.18H22.793a1.523,1.523,0,0,1-1-1V-11.8a1.523,1.523,0,0,1,1-1h6.191Z" transform="translate(948.297 800.348)" fill="#fff"/>
    <path id="路径_6808" data-name="路径 6808" d="M15.371-7.109a.709.709,0,0,1-.234-.508,1.289,1.289,0,0,1,.117-.547,14.929,14.929,0,0,0,1.074-2.812H9.668A14.227,14.227,0,0,1,7.949-7.461a.835.835,0,0,1-.742.449,1.445,1.445,0,0,1-.742-.254.99.99,0,0,1-.605-.82.774.774,0,0,1,.234-.527,15.83,15.83,0,0,0,2.617-6.934,1.036,1.036,0,0,1,.273-.537.852.852,0,0,1,.645-.225,1.81,1.81,0,0,1,.352.039,1.188,1.188,0,0,1,.674.313.789.789,0,0,1,.225.566,1.931,1.931,0,0,1-.02.273l-.547,2.09,7.148-.078h.1l.41.234h.059l.059.059a1.954,1.954,0,0,1,.586,1.328v.059a18.3,18.3,0,0,1-1.641,4.16.863.863,0,0,1-.8.547.956.956,0,0,1-.488-.137A1.419,1.419,0,0,1,15.371-7.109ZM6.074-13.3a.95.95,0,0,1,.7.254,1.035,1.035,0,0,1,.254.762,1.024,1.024,0,0,1-.244.752.911.911,0,0,1-.674.244H2.168a.95.95,0,0,1-.7-.254,1.02,1.02,0,0,1-.254-.752,1.02,1.02,0,0,1,.254-.752.95.95,0,0,1,.7-.254ZM6.68-5.1a.95.95,0,0,1,.7.254,1.035,1.035,0,0,1,.254.762,1.035,1.035,0,0,1-.254.762.95.95,0,0,1-.7.254H1.719a.95.95,0,0,1-.7-.254,1.035,1.035,0,0,1-.254-.762,1.035,1.035,0,0,1,.254-.762A.9.9,0,0,1,1.68-5.1Zm4.375-5.352a1.114,1.114,0,0,1,.82-.273,1.1,1.1,0,0,1,.811.264.937.937,0,0,1,.264.693v1.758q1.172,6.641,5.7,8.223a.981.981,0,0,1,.391.234.567.567,0,0,1,.156.42,1.107,1.107,0,0,1-.293.635,1.221,1.221,0,0,1-1,.605,1.167,1.167,0,0,1-.449-.1,10.051,10.051,0,0,1-5.215-5.9A10.631,10.631,0,0,1,6.758,2.148a1.245,1.245,0,0,1-.527.117A1.321,1.321,0,0,1,5.273,1.8a1.131,1.131,0,0,1-.352-.723A.714.714,0,0,1,5.371.43,11.458,11.458,0,0,0,8.184-1.66,9.9,9.9,0,0,0,9.355-3.047a8.77,8.77,0,0,0,.938-2.08,10.149,10.149,0,0,0,.43-1.953q.078-.811.078-1.826v-.859A.924.924,0,0,1,11.055-10.449Zm15.957-3.789a1.112,1.112,0,0,1,.264-.508.576.576,0,0,1,.43-.2,1.175,1.175,0,0,1,.439.078,1.062,1.062,0,0,1,.488.273.687.687,0,0,1,.2.508,1.154,1.154,0,0,1-.078.391,25.569,25.569,0,0,1-1.211,3.008.861.861,0,0,1-.781.625,1.051,1.051,0,0,1-.332-.059.854.854,0,0,1-.332-.215.581.581,0,0,1-.156-.43,1.379,1.379,0,0,1,.117-.547A13.113,13.113,0,0,0,27.012-14.238ZM21.895-15a.726.726,0,0,1,.537.205,1.086,1.086,0,0,1,.283.5,13.211,13.211,0,0,1,.82,3.262.779.779,0,0,1-.205.576.88.88,0,0,1-.42.254,1.616,1.616,0,0,1-.332.049.726.726,0,0,1-.537-.205,1.094,1.094,0,0,1-.283-.537l-.723-2.949A1.81,1.81,0,0,1,21-14.2a.674.674,0,0,1,.2-.527A.912.912,0,0,1,21.895-15Zm1.152,7.93a.911.911,0,0,1,.674.244.859.859,0,0,1,.244.635,2.864,2.864,0,0,1-.02.313,29.379,29.379,0,0,1-.84,2.959A7.941,7.941,0,0,1,21.992-.645a1.467,1.467,0,0,0-.137.156,1.364,1.364,0,0,1-.41.2h-.02q-.391,0-.7-.586V-.9a2,2,0,0,1-.176-.791,1.234,1.234,0,0,1,.254-.732A13.007,13.007,0,0,0,21.7-4.2a10.546,10.546,0,0,0,.684-2.129,1.137,1.137,0,0,1,.254-.557A.548.548,0,0,1,23.047-7.07Zm5.391-2.441a1.006,1.006,0,0,1,.254.742,1.006,1.006,0,0,1-.254.742.95.95,0,0,1-.7.254H25.8V1.465a.95.95,0,0,1-.254.7,1.183,1.183,0,0,1-1.465,0,.95.95,0,0,1-.254-.7V-7.773H21.6a.95.95,0,0,1-.7-.254,1.006,1.006,0,0,1-.254-.742,1.006,1.006,0,0,1,.254-.742.95.95,0,0,1,.7-.254h2.227v-5.7a.95.95,0,0,1,.254-.7.992.992,0,0,1,.732-.254.992.992,0,0,1,.732.254.95.95,0,0,1,.254.7v5.7h1.934A.95.95,0,0,1,28.438-9.512Zm.293,6.055a1.438,1.438,0,0,1-.43.918v.02a.942.942,0,0,1-.645.332q-.391,0-.605-.488L25.762-5.625a1.567,1.567,0,0,1-.117-.586.727.727,0,0,1,.371-.645.725.725,0,0,1,.469-.176.724.724,0,0,1,.605.391q.176.273.82,1.416t.732,1.357A1.083,1.083,0,0,1,28.73-3.457Zm6.914.078h-4.3v3.32h4.3Zm-4.2-10.273a.188.188,0,0,0-.1.078v3.086h4.3v-3.086a.117.117,0,0,0-.078-.078Zm-.1,5.117v3.2h4.3v-3.2ZM39.141.2a.992.992,0,0,1,.254.732.992.992,0,0,1-.254.732.95.95,0,0,1-.7.254H28.145a.95.95,0,0,1-.7-.254,1.006,1.006,0,0,1-.254-.742,1,1,0,0,1,.244-.732.911.911,0,0,1,.674-.244h1.25V-14.551a1.584,1.584,0,0,1,1.035-1.055l.039-.02h6.191a1.584,1.584,0,0,1,1.055,1.035l.02.039V-.059h.742A.95.95,0,0,1,39.141.2Z" transform="translate(1068 800.426)" fill="#fff"/>
    <g id="组_4853" data-name="组 4853" transform="translate(0 905)">
      <rect id="矩形_3599" data-name="矩形 3599" width="1148" height="56" fill="#48d7dd"/>
      <path id="路径_7097" data-name="路径 7097" d="M-84.211-10.969h.258a5.533,5.533,0,0,1,4.125,1.594A5.85,5.85,0,0,1-78.3-5.016a6.128,6.128,0,0,1-1.8,4.652,6.028,6.028,0,0,1-4.312,1.723q-.328.023-.68.023A6.325,6.325,0,0,1-89.719-.492a1.232,1.232,0,0,1-.375-.855,1.511,1.511,0,0,1,.328-.9,1.169,1.169,0,0,1,.914-.562,1.042,1.042,0,0,1,.7.328,10.545,10.545,0,0,0,3.539,1.313A3.208,3.208,0,0,0-82.2-2.2a3.839,3.839,0,0,0,.984-2.766,3.816,3.816,0,0,0-.891-2.7,2.963,2.963,0,0,0-2.273-.961H-84.4a2.641,2.641,0,0,0-.469-.047,3.158,3.158,0,0,0-1.734.586,1.511,1.511,0,0,1-.844.3A1.431,1.431,0,0,1-88.5-8.2a1.52,1.52,0,0,1-.422-1.125q0-.164.469-6.7a1.9,1.9,0,0,1,1.289-1.219l.023-.023H-80.3a1.125,1.125,0,0,1,.832.316,1.343,1.343,0,0,1,.316.984,1.343,1.343,0,0,1-.316.984,1.125,1.125,0,0,1-.832.316h-5.391a.151.151,0,0,0-.117.117l-.375,4.031A4.435,4.435,0,0,1-84.211-10.969Zm13.219,8.625h-.047l-.07-.141a2.243,2.243,0,0,1-.211-.926,1.313,1.313,0,0,1,.375-.879,17.322,17.322,0,0,0,1.734-2.766,31.652,31.652,0,0,0,1.617-3.586h-2.367a1.14,1.14,0,0,1-.844-.3,1.207,1.207,0,0,1-.3-.891,1.194,1.194,0,0,1,.293-.879,1.093,1.093,0,0,1,.809-.293H-67.2v-2.859q-.891.188-2.344.4h-.234a1.219,1.219,0,0,1-1.2-.8,1.234,1.234,0,0,1-.094-.5.691.691,0,0,1,.234-.516,1.2,1.2,0,0,1,.633-.293,22.016,22.016,0,0,0,5.93-1.523.937.937,0,0,1,.563-.117,1.666,1.666,0,0,1,1.266.633,1.2,1.2,0,0,1,.375.727q0,.539-.656.727l-2.039.68v3.445h1.852a1.14,1.14,0,0,1,.844.3,1.19,1.19,0,0,1,.3.879,1.19,1.19,0,0,1-.3.879,1.14,1.14,0,0,1-.844.3h-1.852v.961q.516.469,1.523,1.477t1.254,1.289a1.029,1.029,0,0,1,.246.7,1.548,1.548,0,0,1-.375.914,1.039,1.039,0,0,1-.82.516.869.869,0,0,1-.727-.469l-1.1-1.477V1.688a1.14,1.14,0,0,1-.3.844,1.241,1.241,0,0,1-.914.3,1.241,1.241,0,0,1-.914-.3,1.14,1.14,0,0,1-.3-.844V-6.375A16.475,16.475,0,0,1-69.633-2.3a.792.792,0,0,1-.656.445A.9.9,0,0,1-70.992-2.344Zm11.344-3.914a.141.141,0,0,0,.094.094H-57v-1.2h-2.648Zm.094-4.148a.141.141,0,0,0-.094.094v1.055H-57v-1.148Zm7.734.094a.149.149,0,0,0-.117-.094h-2.648v1.148h2.766Zm-.117,4.148a.226.226,0,0,0,.117-.094v-1.1h-2.766v1.2Zm-2.648,3.07h4.031a1.181,1.181,0,0,1,.867.281,1.045,1.045,0,0,1,.281.773,1.061,1.061,0,0,1-.293.785,1.159,1.159,0,0,1-.855.293h-4.031V.211h4.852A1.159,1.159,0,0,1-48.879.5a1.093,1.093,0,0,1,.293.809,1.078,1.078,0,0,1-.281.8,1.111,1.111,0,0,1-.82.281H-62.414A1.159,1.159,0,0,1-63.27,2.1a1.077,1.077,0,0,1-.293-.8A1.077,1.077,0,0,1-63.27.5a1.159,1.159,0,0,1,.855-.293H-57V-.961h-4.055a1.159,1.159,0,0,1-.855-.293,1.061,1.061,0,0,1-.293-.785,1.045,1.045,0,0,1,.281-.773,1.111,1.111,0,0,1,.82-.281H-57V-4.1h-3.656a1.9,1.9,0,0,1-1.266-1.242l-.023-.047V-11.18A1.9,1.9,0,0,1-60.7-12.445l.047-.023H-57v-.891h-4.8a1.159,1.159,0,0,1-.855-.293,1.077,1.077,0,0,1-.293-.8,1.077,1.077,0,0,1,.293-.8,1.159,1.159,0,0,1,.855-.293H-57v-.867q-1.711.117-3.961.188h-.047a1.381,1.381,0,0,1-.984-.352,1.221,1.221,0,0,1-.3-.562.827.827,0,0,1-.07-.328.757.757,0,0,1,.234-.574,1.142,1.142,0,0,1,.75-.246,58.438,58.438,0,0,0,10.055-1.055h.234a1.692,1.692,0,0,1,1.383.727,1.112,1.112,0,0,1,.3.656q0,.563-.727.68l-4.453.633v1.1h4.406a1.159,1.159,0,0,1,.855.293,1.077,1.077,0,0,1,.293.8,1.077,1.077,0,0,1-.293.8,1.159,1.159,0,0,1-.855.293h-4.406v.891h3.773a1.9,1.9,0,0,1,1.266,1.242l.023.047v5.789a1.9,1.9,0,0,1-1.242,1.266l-.047.023h-3.773ZM-43.8-14.812a.149.149,0,0,0-.094.117v1.945a1.108,1.108,0,0,1-.3.82,1.259,1.259,0,0,1-.926.3,1.259,1.259,0,0,1-.926-.3,1.108,1.108,0,0,1-.3-.82v-3.187A1.9,1.9,0,0,1-45.117-17.2l.047-.023H-37.1a5.014,5.014,0,0,0-.527-.937.933.933,0,0,1-.223-.586q0-.586.8-.844a1.687,1.687,0,0,1,.609-.117,1.3,1.3,0,0,1,1.1.586,10.834,10.834,0,0,1,1.1,1.9h7.289a1.9,1.9,0,0,1,1.266,1.242l.023.047v3.188a1.108,1.108,0,0,1-.3.82,1.3,1.3,0,0,1-.949.3,1.307,1.307,0,0,1-.961-.316,1.1,1.1,0,0,1-.316-.809V-14.7a.226.226,0,0,0-.094-.117Zm2.227,4.336a1.125,1.125,0,0,1-.832-.293,1.194,1.194,0,0,1-.293-.879,1.207,1.207,0,0,1,.3-.891,1.108,1.108,0,0,1,.82-.3l10.219-.094a2.465,2.465,0,0,1,1.57.516.916.916,0,0,1,.516.75,1.12,1.12,0,0,1-.375.8,19.514,19.514,0,0,1-4.9,3.586.705.705,0,0,0-.187.3v.117h8.156a1.14,1.14,0,0,1,.844.3,1.224,1.224,0,0,1,.3.9,1.211,1.211,0,0,1-.293.891,1.093,1.093,0,0,1-.809.293h-8.2V.352a2.685,2.685,0,0,1-.3,1.406,1.949,1.949,0,0,1-.961.82,12.146,12.146,0,0,1-3.469.281,1.651,1.651,0,0,1-1.547-1.078,1.7,1.7,0,0,1-.164-.668.688.688,0,0,1,.211-.5A.932.932,0,0,1-40.289.4a19.422,19.422,0,0,0,3-.047V-4.477h-8.227a1.125,1.125,0,0,1-.832-.293,1.211,1.211,0,0,1-.293-.891,1.224,1.224,0,0,1,.3-.9,1.108,1.108,0,0,1,.82-.3h8.227v-.3a2.849,2.849,0,0,1,.844-1.43v-.07l.141-.047a13.487,13.487,0,0,0,2.625-1.758Zm23.555,3.914a.141.141,0,0,0,.094.094h4.617V-7.594h-4.711Zm.094-4.031a.149.149,0,0,0-.094.117v.984h4.711v-1.1Zm12.094.117a.214.214,0,0,0-.117-.117h-4.9v1.1h5.016Zm-.117,4.008a.226.226,0,0,0,.117-.094V-7.594h-5.016v1.125Zm-4.9,2.93h7.242a1.159,1.159,0,0,1,.855.293,1.061,1.061,0,0,1,.293.785,1.061,1.061,0,0,1-.293.785,1.159,1.159,0,0,1-.855.293h-7.242V-.023h8.766a1.181,1.181,0,0,1,.867.281,1.061,1.061,0,0,1,.281.785,1.077,1.077,0,0,1-.293.8,1.159,1.159,0,0,1-.855.293H-21.867a1.159,1.159,0,0,1-.855-.293,1.077,1.077,0,0,1-.293-.8,1.061,1.061,0,0,1,.281-.785,1.111,1.111,0,0,1,.82-.281h8.6V-1.383h-6.75a1.159,1.159,0,0,1-.855-.293,1.061,1.061,0,0,1-.293-.785,1.061,1.061,0,0,1,.293-.785,1.159,1.159,0,0,1,.855-.293h6.75V-4.5H-19.2a1.9,1.9,0,0,1-1.266-1.242l-.023-.047V-11.3a1.9,1.9,0,0,1,1.242-1.266l.047-.023h5.883v-.727H-21.75a1.159,1.159,0,0,1-.855-.293,1.077,1.077,0,0,1-.293-.8,1.077,1.077,0,0,1,.293-.8,1.159,1.159,0,0,1,.855-.293h8.438V-16.5q-2.883.211-6.258.3a1.331,1.331,0,0,1-.984-.352,1.459,1.459,0,0,1-.352-.609,1.275,1.275,0,0,1-.047-.352.8.8,0,0,1,.234-.586,1.065,1.065,0,0,1,.773-.234,97.844,97.844,0,0,0,14.438-1.2h.188a1.578,1.578,0,0,1,1.383.8,1.015,1.015,0,0,1,.258.609.655.655,0,0,1-.2.48.953.953,0,0,1-.574.246q-2.227.4-6.4.727v1.172h8.625a1.159,1.159,0,0,1,.855.293,1.077,1.077,0,0,1,.293.8,1.077,1.077,0,0,1-.293.8,1.159,1.159,0,0,1-.855.293h-8.625v.727h6.211a1.9,1.9,0,0,1,1.266,1.242l.023.047v5.508A1.9,1.9,0,0,1-4.594-4.523l-.047.023h-6.211Z" transform="translate(1112 38)" fill="#fff"/>
    </g>
    <path id="路径_6838" data-name="路径 6838" d="M11.875.234a1.731,1.731,0,0,1-1.27-.527,1.731,1.731,0,0,1-.527-1.27V-23.906H2.148a1.621,1.621,0,0,1-1.191-.488,1.621,1.621,0,0,1-.488-1.191A1.687,1.687,0,0,1,.957-26.8,1.59,1.59,0,0,1,2.148-27.3H21.6a1.653,1.653,0,0,1,1.211.508,1.653,1.653,0,0,1,.508,1.211,1.59,1.59,0,0,1-.508,1.191,1.687,1.687,0,0,1-1.211.488H13.711V-1.562a1.7,1.7,0,0,1-.547,1.27A1.8,1.8,0,0,1,11.875.234Zm13.711.2a7.3,7.3,0,0,1-3.164-.7,5.435,5.435,0,0,1-2.383-2.07,5.748,5.748,0,0,1-.859-3.125,5.413,5.413,0,0,1,2.363-4.707,11.468,11.468,0,0,1,6.66-1.66h4.688v-.273a4.8,4.8,0,0,0-1.23-3.652A5.679,5.679,0,0,0,27.7-16.914a13.686,13.686,0,0,0-2.539.215,20.912,20.912,0,0,0-2.656.723l-.508.078a1.422,1.422,0,0,1-1.035-.449,1.466,1.466,0,0,1-.449-1.074,1.534,1.534,0,0,1,1.055-1.523,16.994,16.994,0,0,1,6.758-1.406,9.147,9.147,0,0,1,4.609,1.094,6.857,6.857,0,0,1,2.7,2.793,8.254,8.254,0,0,1,.9,3.848V-1.562a1.7,1.7,0,0,1-.547,1.27,1.8,1.8,0,0,1-1.289.527,1.731,1.731,0,0,1-1.27-.527,1.731,1.731,0,0,1-.527-1.27V-2.5A9.671,9.671,0,0,1,25.586.43Zm1.328-3.2a7.14,7.14,0,0,0,3.262-.8,8.962,8.962,0,0,0,2.715-2.09V-8.906H28.672q-5.859,0-5.859,3.047Q22.813-2.773,26.914-2.773ZM44.141-23.945a1.951,1.951,0,0,1-1.426-.605,1.951,1.951,0,0,1-.605-1.426v-.156a1.951,1.951,0,0,1,.605-1.426,1.951,1.951,0,0,1,1.426-.605h.234a1.951,1.951,0,0,1,1.426.605,1.951,1.951,0,0,1,.605,1.426v.156a1.951,1.951,0,0,1-.605,1.426,1.951,1.951,0,0,1-1.426.605ZM44.219.234a1.731,1.731,0,0,1-1.27-.527,1.731,1.731,0,0,1-.527-1.27V-18.32a1.8,1.8,0,0,1,.527-1.289,1.7,1.7,0,0,1,1.27-.547,1.777,1.777,0,0,1,1.309.527,1.777,1.777,0,0,1,.527,1.309V-1.562a1.7,1.7,0,0,1-.547,1.27A1.8,1.8,0,0,1,44.219.234Zm13.906,0A2.369,2.369,0,0,1,56.7-.234a2.334,2.334,0,0,1-.879-1.211L50.273-17.7a2.1,2.1,0,0,1-.117-.664,1.731,1.731,0,0,1,.527-1.27,1.731,1.731,0,0,1,1.27-.527,1.852,1.852,0,0,1,1.035.293,1.433,1.433,0,0,1,.605.8L57.852-5.078q.117.313.273.313t.273-.312l4.219-13.633a1.925,1.925,0,0,1,.742-1.055,2.036,2.036,0,0,1,1.211-.391,2.036,2.036,0,0,1,1.211.391,1.925,1.925,0,0,1,.742,1.055L70.742-5.078q.117.313.273.313t.273-.312l4.258-13.984a1.433,1.433,0,0,1,.605-.8,1.852,1.852,0,0,1,1.035-.293,1.731,1.731,0,0,1,1.27.527,1.731,1.731,0,0,1,.527,1.27,2.1,2.1,0,0,1-.117.664L73.32-1.445a2.334,2.334,0,0,1-.879,1.211,2.369,2.369,0,0,1-1.426.469A2.369,2.369,0,0,1,69.59-.234a2.545,2.545,0,0,1-.918-1.25L64.844-13.4q-.117-.312-.273-.312T64.3-13.4L60.469-1.484a2.545,2.545,0,0,1-.918,1.25A2.369,2.369,0,0,1,58.125.234Zm29.648.2a7.3,7.3,0,0,1-3.164-.7,5.435,5.435,0,0,1-2.383-2.07,5.748,5.748,0,0,1-.859-3.125,5.413,5.413,0,0,1,2.363-4.707,11.468,11.468,0,0,1,6.66-1.66h4.688v-.273a4.8,4.8,0,0,0-1.23-3.652,5.679,5.679,0,0,0-3.965-1.152,13.686,13.686,0,0,0-2.539.215,20.912,20.912,0,0,0-2.656.723l-.508.078a1.422,1.422,0,0,1-1.035-.449,1.466,1.466,0,0,1-.449-1.074,1.534,1.534,0,0,1,1.055-1.523,16.994,16.994,0,0,1,6.758-1.406,9.147,9.147,0,0,1,4.609,1.094,6.857,6.857,0,0,1,2.7,2.793,8.254,8.254,0,0,1,.9,3.848V-1.562a1.7,1.7,0,0,1-.547,1.27,1.8,1.8,0,0,1-1.289.527,1.731,1.731,0,0,1-1.27-.527,1.731,1.731,0,0,1-.527-1.27V-2.5A9.671,9.671,0,0,1,87.773.43Zm1.328-3.2a7.14,7.14,0,0,0,3.262-.8,8.962,8.962,0,0,0,2.715-2.09V-8.906H90.859Q85-8.906,85-5.859,85-2.773,89.1-2.773Zm17.3,3.008a1.731,1.731,0,0,1-1.27-.527,1.731,1.731,0,0,1-.527-1.27V-18.32a1.8,1.8,0,0,1,.527-1.289,1.7,1.7,0,0,1,1.27-.547,1.763,1.763,0,0,1,1.289.547,1.763,1.763,0,0,1,.547,1.289v1.484a12.528,12.528,0,0,1,3.32-2.617,8.306,8.306,0,0,1,3.906-.9,7.05,7.05,0,0,1,3.789,1.016,6.65,6.65,0,0,1,2.4,2.773,8.945,8.945,0,0,1,.84,3.906V-1.562a1.7,1.7,0,0,1-.547,1.27,1.8,1.8,0,0,1-1.289.527,1.731,1.731,0,0,1-1.27-.527,1.731,1.731,0,0,1-.527-1.27v-10.7q0-4.727-4.258-4.727a6.256,6.256,0,0,0-3.379.938,12.39,12.39,0,0,0-2.988,2.773V-1.562a1.7,1.7,0,0,1-.547,1.27A1.8,1.8,0,0,1,106.406.234Zm23.945,0a1.731,1.731,0,0,1-1.27-.527,1.731,1.731,0,0,1-.527-1.27V-25.469a1.8,1.8,0,0,1,.527-1.289,1.7,1.7,0,0,1,1.27-.547h8.906a12.973,12.973,0,0,1,6.055,1.25,8.2,8.2,0,0,1,3.3,3.066,8.512,8.512,0,0,1,1.113,4.395,8.859,8.859,0,0,1-1.016,4.219,7.506,7.506,0,0,1-3.457,3.281,13.254,13.254,0,0,1-6,1.211h-7.07v8.32a1.7,1.7,0,0,1-.547,1.27A1.8,1.8,0,0,1,130.352.234Zm8.555-13.555a8.951,8.951,0,0,0,5.371-1.348,4.585,4.585,0,0,0,1.816-3.926,4.585,4.585,0,0,0-1.816-3.926,8.951,8.951,0,0,0-5.371-1.348h-6.25a.414.414,0,0,0-.469.469V-13.32ZM161.406.43a9.987,9.987,0,0,1-7.48-2.734q-2.676-2.734-2.676-7.656a13.288,13.288,0,0,1,1.016-5.117,8.51,8.51,0,0,1,3.2-3.867,9.205,9.205,0,0,1,5.156-1.406,9.388,9.388,0,0,1,5.039,1.328,9.052,9.052,0,0,1,3.164,3.574,10.9,10.9,0,0,1,1.133,4.98,1.765,1.765,0,0,1-.508,1.27,1.76,1.76,0,0,1-1.328.527h-13.2a6.334,6.334,0,0,0,2.09,4.238,7.071,7.071,0,0,0,4.707,1.465,12.1,12.1,0,0,0,2.793-.293,11.513,11.513,0,0,0,2.48-.918,1.406,1.406,0,0,1,.7-.156,1.6,1.6,0,0,1,1.113.449,1.452,1.452,0,0,1,.488,1.113,1.71,1.71,0,0,1-1.055,1.484A14.728,14.728,0,0,1,165.117.02,14.186,14.186,0,0,1,161.406.43Zm4.453-12.07a.413.413,0,0,0,.469-.508,5.171,5.171,0,0,0-.937-2.617,5.528,5.528,0,0,0-2.129-1.875,5.9,5.9,0,0,0-2.637-.625,6.64,6.64,0,0,0-2.617.586,5.114,5.114,0,0,0-2.168,1.973,6.626,6.626,0,0,0-.918,3.066ZM179.063.43a7.3,7.3,0,0,1-3.164-.7,5.435,5.435,0,0,1-2.383-2.07,5.748,5.748,0,0,1-.859-3.125,5.413,5.413,0,0,1,2.363-4.707,11.468,11.468,0,0,1,6.66-1.66h4.688v-.273a4.8,4.8,0,0,0-1.23-3.652,5.679,5.679,0,0,0-3.965-1.152,13.686,13.686,0,0,0-2.539.215,20.913,20.913,0,0,0-2.656.723l-.508.078a1.422,1.422,0,0,1-1.035-.449,1.466,1.466,0,0,1-.449-1.074,1.534,1.534,0,0,1,1.055-1.523,16.994,16.994,0,0,1,6.758-1.406,9.147,9.147,0,0,1,4.609,1.094,6.857,6.857,0,0,1,2.7,2.793,8.254,8.254,0,0,1,.9,3.848V-1.562a1.7,1.7,0,0,1-.547,1.27,1.8,1.8,0,0,1-1.289.527,1.731,1.731,0,0,1-1.27-.527,1.731,1.731,0,0,1-.527-1.27V-2.5A9.671,9.671,0,0,1,179.063.43Zm1.328-3.2a7.14,7.14,0,0,0,3.262-.8,8.962,8.962,0,0,0,2.715-2.09V-8.906h-4.219q-5.859,0-5.859,3.047Q176.289-2.773,180.391-2.773ZM197.7.234a1.731,1.731,0,0,1-1.27-.527,1.731,1.731,0,0,1-.527-1.27V-18.32a1.8,1.8,0,0,1,.527-1.289,1.7,1.7,0,0,1,1.27-.547,1.763,1.763,0,0,1,1.289.547,1.763,1.763,0,0,1,.547,1.289v1.563q2.7-3.594,6.094-3.594h.2a1.667,1.667,0,0,1,1.25.527,1.765,1.765,0,0,1,.508,1.27,1.605,1.605,0,0,1-.527,1.23,1.853,1.853,0,0,1-1.309.488h-.2a6.709,6.709,0,0,0-3.379.879,7.825,7.825,0,0,0-2.637,2.52V-1.562a1.7,1.7,0,0,1-.547,1.27A1.8,1.8,0,0,1,197.7.234Zm14.961,0a1.731,1.731,0,0,1-1.27-.527,1.731,1.731,0,0,1-.527-1.27V-26.914a1.8,1.8,0,0,1,.527-1.289,1.7,1.7,0,0,1,1.27-.547,1.777,1.777,0,0,1,1.309.527,1.777,1.777,0,0,1,.527,1.309V-1.562a1.7,1.7,0,0,1-.547,1.27A1.8,1.8,0,0,1,212.656.234Z" transform="translate(68 870)" fill="#fff"/>
    <path id="路径_6839" data-name="路径 6839" d="M0,0H8V124H0Z" transform="translate(36 757)" fill="#48d7dd"/>
    <path id="路径_6840" data-name="路径 6840" d="M2.773-.176h7.832a.639.639,0,0,0,.469-.2.628.628,0,0,0,.2-.459.628.628,0,0,0-.2-.459.639.639,0,0,0-.469-.2H3.926A.422.422,0,0,1,3.613-1.6.422.422,0,0,1,3.5-1.914V-6.172H9.9a.639.639,0,0,0,.469-.2.628.628,0,0,0,.2-.459.628.628,0,0,0-.2-.459.639.639,0,0,0-.469-.2H3.5v-4.238a.422.422,0,0,1,.117-.312.422.422,0,0,1,.313-.117h6.68a.639.639,0,0,0,.469-.2.628.628,0,0,0,.2-.459.628.628,0,0,0-.2-.459.639.639,0,0,0-.469-.2H2.773a.663.663,0,0,0-.5.215.711.711,0,0,0-.205.508V-.879a.678.678,0,0,0,.205.5A.678.678,0,0,0,2.773-.176ZM12.949-.8a.759.759,0,0,0,.176.527.623.623,0,0,0,.488.2.742.742,0,0,0,.625-.312l2.754-3.457Q19.941-.293,19.98-.273a.662.662,0,0,0,.488.2.654.654,0,0,0,.508-.215.706.706,0,0,0,.2-.488A.75.75,0,0,0,21-1.27l-3.145-3.77,3.184-3.73a.854.854,0,0,0,.156-.479.573.573,0,0,0-.176-.42.717.717,0,0,0-.527-.215.706.706,0,0,0-.566.254L17.07-6.074q-2.91-3.594-2.93-3.613a.662.662,0,0,0-.488-.2.7.7,0,0,0-.518.205.645.645,0,0,0-.205.469.816.816,0,0,0,.176.5L16.23-4.922,13.105-1.25A2.045,2.045,0,0,0,12.949-.8Zm9.98-8.887a.518.518,0,0,0-.586.586.518.518,0,0,0,.586.586H24.1v6.133a2.358,2.358,0,0,0,.586,1.738,2.855,2.855,0,0,0,2.09.664A3.652,3.652,0,0,0,28.32-.312a.589.589,0,0,0,.352-.527.507.507,0,0,0-.156-.371.507.507,0,0,0-.371-.156,2.137,2.137,0,0,0-.254.02.132.132,0,0,1-.1.039,2.84,2.84,0,0,1-.82.117,1.564,1.564,0,0,1-1.123-.322,1.4,1.4,0,0,1-.322-1.025V-8.516H27.91a.553.553,0,0,0,.42-.176.59.59,0,0,0,.166-.42.557.557,0,0,0-.166-.41.569.569,0,0,0-.42-.166H25.527V-11.27a.727.727,0,0,0-.186-.537.7.7,0,0,0-.518-.186.639.639,0,0,0-.723.723v1.582ZM31.68-.078a.694.694,0,0,0,.508-.215A.673.673,0,0,0,32.4-.781v-6a5.345,5.345,0,0,1,.635-.771,3.652,3.652,0,0,1,.791-.6,3.453,3.453,0,0,1,1.777-.469h.1a.713.713,0,0,0,.527-.2.662.662,0,0,0,.2-.488.656.656,0,0,0-.205-.479.656.656,0,0,0-.479-.205h-.1a3.634,3.634,0,0,0-2.891,1.719l-.352.469V-9.16a.694.694,0,0,0-.215-.508.694.694,0,0,0-.508-.215.663.663,0,0,0-.5.215.711.711,0,0,0-.205.508V-.781a.678.678,0,0,0,.205.5A.678.678,0,0,0,31.68-.078Zm12.441-1.66v.957a.678.678,0,0,0,.205.5.678.678,0,0,0,.5.205.694.694,0,0,0,.508-.215.673.673,0,0,0,.215-.488V-6.309a3.9,3.9,0,0,0-.43-1.836,3.228,3.228,0,0,0-1.27-1.309,4.36,4.36,0,0,0-2.207-.527,8.329,8.329,0,0,0-3.3.684,1.441,1.441,0,0,0-.254.156.555.555,0,0,0-.156.41.569.569,0,0,0,.166.42.5.5,0,0,0,.361.166l.234-.039a10.269,10.269,0,0,1,1.338-.361,7.124,7.124,0,0,1,1.3-.107A2.94,2.94,0,0,1,43.467-8a2.637,2.637,0,0,1,.654,1.943v.332H41.582a4.929,4.929,0,0,0-3.594,1.113,2.537,2.537,0,0,0-.723,1.875A2.566,2.566,0,0,0,38.008-.84a2.576,2.576,0,0,0,.762.527,3.478,3.478,0,0,0,1.5.332,4.649,4.649,0,0,0,3.516-1.406Zm-3.184.547a2.489,2.489,0,0,1-1.816-.566,1.583,1.583,0,0,1-.43-1.172,1.349,1.349,0,0,1,.391-1,3.891,3.891,0,0,1,2.734-.723h2.3v1.895q-.156.156-.254.273a4.446,4.446,0,0,1-1.211.859A3.733,3.733,0,0,1,40.938-1.191ZM56.953-.176a.694.694,0,0,0,.508-.215.683.683,0,0,0,.215-.5.683.683,0,0,0-.215-.5.694.694,0,0,0-.508-.215H50.82a.422.422,0,0,1-.312-.117.422.422,0,0,1-.117-.312v-10.8a.694.694,0,0,0-.215-.508.694.694,0,0,0-.508-.215.663.663,0,0,0-.5.215.711.711,0,0,0-.205.508v11.6a1.014,1.014,0,0,0,.313.742,1.014,1.014,0,0,0,.742.313Zm3.574-11.992h.117a.788.788,0,0,0,.576-.244.788.788,0,0,0,.244-.576v-.078a.788.788,0,0,0-.244-.576.788.788,0,0,0-.576-.244h-.117a.788.788,0,0,0-.576.244.788.788,0,0,0-.244.576v.078a.788.788,0,0,0,.244.576A.788.788,0,0,0,60.527-12.168Zm.039,12.09a.694.694,0,0,0,.508-.215.673.673,0,0,0,.215-.488V-9.16a.7.7,0,0,0-.205-.518.678.678,0,0,0-.5-.205.685.685,0,0,0-.518.215.711.711,0,0,0-.205.508V-.781a.678.678,0,0,0,.205.5A.678.678,0,0,0,60.566-.078ZM69.2,4.512A4.152,4.152,0,0,0,72.48,3.232,5.35,5.35,0,0,0,73.613-.43V-9.16a.694.694,0,0,0-.215-.508.694.694,0,0,0-.508-.215.663.663,0,0,0-.5.215.711.711,0,0,0-.205.508v.918a6.334,6.334,0,0,0-.469-.488,4.146,4.146,0,0,0-3.047-1.25,4.51,4.51,0,0,0-2.178.566A4.432,4.432,0,0,0,64.8-7.793a5.119,5.119,0,0,0-.684,2.7A4.859,4.859,0,0,0,65.488-1.5a4.977,4.977,0,0,0,1.055.762,4.31,4.31,0,0,0,2.129.566,4.174,4.174,0,0,0,3.184-1.387l.332-.352V-.176a3.481,3.481,0,0,1-.84,2.559,3.148,3.148,0,0,1-2.324.8,7.437,7.437,0,0,1-3.3-.762.8.8,0,0,0-.273-.059.556.556,0,0,0-.43.2.652.652,0,0,0-.176.449.568.568,0,0,0,.273.508,7.287,7.287,0,0,0,1.875.713A9.084,9.084,0,0,0,69.2,4.512Zm-.156-5.957A3.432,3.432,0,0,1,66.5-2.4a3.617,3.617,0,0,1-.957-2.676A3.617,3.617,0,0,1,66.5-7.754a3.432,3.432,0,0,1,2.539-.957,3.481,3.481,0,0,1,1.631.381,6.327,6.327,0,0,1,1.514,1.162v4.18a6.327,6.327,0,0,1-1.514,1.162A3.481,3.481,0,0,1,69.043-1.445ZM77.754-.078a.694.694,0,0,0,.508-.215.673.673,0,0,0,.215-.488V-6.719A6.5,6.5,0,0,1,80.068-8.2,3.423,3.423,0,0,1,81.9-8.691a2.2,2.2,0,0,1,1.631.586,2.685,2.685,0,0,1,.645,1.973V-.781a.678.678,0,0,0,.205.5.678.678,0,0,0,.5.205.694.694,0,0,0,.508-.215.673.673,0,0,0,.215-.488V-6.328A4.216,4.216,0,0,0,85.2-8.2a3.211,3.211,0,0,0-1.113-1.309,3.462,3.462,0,0,0-1.816-.469,3.736,3.736,0,0,0-1.8.41,6.033,6.033,0,0,0-1.66,1.289l-.332.352v-5.527a.694.694,0,0,0-.215-.508.694.694,0,0,0-.508-.215.663.663,0,0,0-.5.215.711.711,0,0,0-.205.508V-.781a.678.678,0,0,0,.205.5A.678.678,0,0,0,77.754-.078ZM88.125-9.687a.518.518,0,0,0-.586.586.518.518,0,0,0,.586.586H89.3v6.133a2.358,2.358,0,0,0,.586,1.738,2.855,2.855,0,0,0,2.09.664,3.652,3.652,0,0,0,1.543-.332.589.589,0,0,0,.352-.527.507.507,0,0,0-.156-.371.507.507,0,0,0-.371-.156,2.137,2.137,0,0,0-.254.02.132.132,0,0,1-.1.039,2.84,2.84,0,0,1-.82.117,1.564,1.564,0,0,1-1.123-.322,1.4,1.4,0,0,1-.322-1.025V-8.516h2.383a.553.553,0,0,0,.42-.176.59.59,0,0,0,.166-.42.557.557,0,0,0-.166-.41.569.569,0,0,0-.42-.166H90.723V-11.27a.727.727,0,0,0-.186-.537.7.7,0,0,0-.518-.186.639.639,0,0,0-.723.723v1.582Z" transform="translate(561 871)" fill="#fff"/>
    <path id="路径_6841" data-name="路径 6841" d="M10.059-.1a.782.782,0,0,0,.557-.234.735.735,0,0,0,.244-.547.767.767,0,0,0-.244-.557.767.767,0,0,0-.557-.244H3.926a.358.358,0,0,1-.264-.088.358.358,0,0,1-.088-.264v-10.8a.767.767,0,0,0-.244-.557.767.767,0,0,0-.557-.244.735.735,0,0,0-.547.244.782.782,0,0,0-.234.557v11.6a1.086,1.086,0,0,0,.342.791A1.086,1.086,0,0,0,3.125-.1ZM13.633-12.09h.117a.86.86,0,0,0,.625-.273.86.86,0,0,0,.273-.625v-.078a.86.86,0,0,0-.273-.625.86.86,0,0,0-.625-.273h-.117a.86.86,0,0,0-.625.273.86.86,0,0,0-.273.625v.078a.86.86,0,0,0,.273.625A.86.86,0,0,0,13.633-12.09Zm.84,11.309V-9.16a.772.772,0,0,0-.234-.566.75.75,0,0,0-.547-.234.756.756,0,0,0-.566.244.782.782,0,0,0-.234.557V-.781a.75.75,0,0,0,.234.547A.75.75,0,0,0,13.672,0a.772.772,0,0,0,.566-.234A.75.75,0,0,0,14.473-.781ZM22.3,4.59a4.236,4.236,0,0,0,3.33-1.3A5.4,5.4,0,0,0,26.8-.43V-9.16a.767.767,0,0,0-.244-.557A.767.767,0,0,0,26-9.961a.735.735,0,0,0-.547.244.782.782,0,0,0-.234.557V-8.4q-.273-.312-.332-.371a4.191,4.191,0,0,0-3.105-1.289,4.541,4.541,0,0,0-2.207.576,4.586,4.586,0,0,0-1.719,1.65,5.148,5.148,0,0,0-.7,2.734,4.913,4.913,0,0,0,1.387,3.633,4.473,4.473,0,0,0,1.074.781A4.339,4.339,0,0,0,21.777-.1,4.229,4.229,0,0,0,25-1.5l.215-.254V-.176a3.472,3.472,0,0,1-.82,2.52,3.116,3.116,0,0,1-2.266.762,7.556,7.556,0,0,1-3.281-.742l-.293-.078a.63.63,0,0,0-.479.225.722.722,0,0,0-.205.5.628.628,0,0,0,.313.566,7.877,7.877,0,0,0,1.9.723A8.912,8.912,0,0,0,22.3,4.59Zm-.156-6.113a3.365,3.365,0,0,1-2.49-.928,3.553,3.553,0,0,1-.928-2.627,3.553,3.553,0,0,1,.928-2.627,3.365,3.365,0,0,1,2.49-.928,3.437,3.437,0,0,1,1.611.371,6.068,6.068,0,0,1,1.455,1.113v4.141A6.068,6.068,0,0,1,23.76-1.895,3.437,3.437,0,0,1,22.148-1.523Zm9.512.742v-5.9a6.35,6.35,0,0,1,1.553-1.455A3.32,3.32,0,0,1,35-8.613a2.139,2.139,0,0,1,1.582.566,2.606,2.606,0,0,1,.625,1.914V-.781a.75.75,0,0,0,.234.547A.75.75,0,0,0,37.988,0a.772.772,0,0,0,.566-.234.75.75,0,0,0,.234-.547V-6.328a4.261,4.261,0,0,0-.41-1.895A3.246,3.246,0,0,0,37.227-9.57a3.319,3.319,0,0,0-1.8-.488h-.039a4.016,4.016,0,0,0-1.855.41,6.385,6.385,0,0,0-1.66,1.309l-.215.254v-5.371a.767.767,0,0,0-.244-.557.767.767,0,0,0-.557-.244.735.735,0,0,0-.547.244.782.782,0,0,0-.234.557V-.781a.75.75,0,0,0,.234.547A.75.75,0,0,0,30.859,0a.772.772,0,0,0,.566-.234A.75.75,0,0,0,31.66-.781Zm14.785-.664a1.148,1.148,0,0,0-.273.039.217.217,0,0,1-.1.02,2.646,2.646,0,0,1-.8.117,1.486,1.486,0,0,1-1.064-.3,1.324,1.324,0,0,1-.3-.967v-5.9h2.3a.624.624,0,0,0,.469-.205.661.661,0,0,0,.2-.469.628.628,0,0,0-.2-.459.639.639,0,0,0-.469-.2h-2.3v-1.5a.814.814,0,0,0-.205-.586.759.759,0,0,0-.576-.215.814.814,0,0,0-.586.205.785.785,0,0,0-.215.6v1.5H41.23a.66.66,0,0,0-.488.176.66.66,0,0,0-.176.488.66.66,0,0,0,.176.488.66.66,0,0,0,.488.176h1.094v6.055a2.432,2.432,0,0,0,.625,1.8A2.9,2.9,0,0,0,45.078.1a3.606,3.606,0,0,0,1.563-.352.651.651,0,0,0,.41-.586.579.579,0,0,0-.186-.42A.579.579,0,0,0,46.445-1.445Z" transform="translate(704 871)" fill="#fff"/>
    <path id="路径_6842" data-name="路径 6842" d="M10.137-6.133A2.806,2.806,0,0,1,11.973-4.5a6.808,6.808,0,0,1,.566,2.822v.9a.865.865,0,0,1-.264.635.865.865,0,0,1-.635.264.918.918,0,0,1-.664-.244.865.865,0,0,1-.254-.654v-.586a8.865,8.865,0,0,0-.176-1.816A2.673,2.673,0,0,0,9.658-4.7a2.891,2.891,0,0,0-1.943-.6H3.691V-.781a.85.85,0,0,1-.273.635.9.9,0,0,1-.645.264.865.865,0,0,1-.635-.264.865.865,0,0,1-.264-.635V-12.734a.9.9,0,0,1,.264-.645.85.85,0,0,1,.635-.273H7.324a6.274,6.274,0,0,1,3.955,1.084,3.5,3.5,0,0,1,1.377,2.9A3.719,3.719,0,0,1,12-7.52,3.668,3.668,0,0,1,10.137-6.133Zm-2.93-.879a4.6,4.6,0,0,0,2.666-.674,2.132,2.132,0,0,0,.967-1.846,2.042,2.042,0,0,0-.869-1.807,5.219,5.219,0,0,0-2.861-.6H3.926a.207.207,0,0,0-.234.234v4.688ZM19.688.215a4.994,4.994,0,0,1-3.74-1.367A5.242,5.242,0,0,1,14.609-4.98a6.644,6.644,0,0,1,.508-2.559,4.255,4.255,0,0,1,1.6-1.934,4.6,4.6,0,0,1,2.578-.7,4.694,4.694,0,0,1,2.52.664A4.526,4.526,0,0,1,23.4-7.725a5.451,5.451,0,0,1,.566,2.49.882.882,0,0,1-.254.635.88.88,0,0,1-.664.264h-6.6A3.167,3.167,0,0,0,17.49-2.217a3.536,3.536,0,0,0,2.354.732,6.051,6.051,0,0,0,1.4-.146,5.757,5.757,0,0,0,1.24-.459.7.7,0,0,1,.352-.078.8.8,0,0,1,.557.225.726.726,0,0,1,.244.557.855.855,0,0,1-.527.742A7.364,7.364,0,0,1,21.543.01,7.093,7.093,0,0,1,19.688.215ZM21.914-5.82a.207.207,0,0,0,.234-.254,2.585,2.585,0,0,0-.469-1.309,2.764,2.764,0,0,0-1.064-.937A2.95,2.95,0,0,0,19.3-8.633a3.32,3.32,0,0,0-1.309.293,2.557,2.557,0,0,0-1.084.986,3.313,3.313,0,0,0-.459,1.533ZM30.723,4.707a9.214,9.214,0,0,1-2.256-.293,7.841,7.841,0,0,1-1.924-.723.777.777,0,0,1-.371-.7.815.815,0,0,1,.234-.566.743.743,0,0,1,.566-.254.96.96,0,0,1,.352.078,7.265,7.265,0,0,0,3.223.742q2.969,0,2.969-3.164v-1.25A4.361,4.361,0,0,1,30.2.02a4.518,4.518,0,0,1-2.227-.586,4.563,4.563,0,0,1-1.836-1.768,5.315,5.315,0,0,1-.684-2.744,5.368,5.368,0,0,1,.7-2.812,4.652,4.652,0,0,1,1.768-1.7,4.719,4.719,0,0,1,2.275-.586,4.361,4.361,0,0,1,3.32,1.445v-.43a.9.9,0,0,1,.264-.645.85.85,0,0,1,.635-.273.882.882,0,0,1,.645.273.882.882,0,0,1,.273.645V-.43a5.524,5.524,0,0,1-1.191,3.8A4.337,4.337,0,0,1,30.723,4.707Zm-.156-6.348A3.309,3.309,0,0,0,32.119-2a5.809,5.809,0,0,0,1.4-1.064V-7.09a5.809,5.809,0,0,0-1.4-1.064,3.309,3.309,0,0,0-1.553-.361,3.247,3.247,0,0,0-2.4.9,3.434,3.434,0,0,0-.9,2.539,3.434,3.434,0,0,0,.9,2.539A3.247,3.247,0,0,0,30.566-1.641ZM41.8.215a3.489,3.489,0,0,1-1.875-.508A3.393,3.393,0,0,1,38.711-1.68a4.387,4.387,0,0,1-.43-1.953V-9.18a.85.85,0,0,1,.273-.635.9.9,0,0,1,.645-.264.865.865,0,0,1,.635.264.865.865,0,0,1,.264.635v5.352q0,2.363,2.129,2.363a3.128,3.128,0,0,0,1.689-.469A6.2,6.2,0,0,0,45.41-3.32V-9.18a.85.85,0,0,1,.273-.635.9.9,0,0,1,.645-.264.865.865,0,0,1,.635.264.865.865,0,0,1,.264.635V-.8a.9.9,0,0,1-.264.645.85.85,0,0,1-.635.273.882.882,0,0,1-.645-.273A.882.882,0,0,1,45.41-.8v-.742A6.264,6.264,0,0,1,43.75-.234,4.153,4.153,0,0,1,41.8.215Zm9.375-.1a.865.865,0,0,1-.635-.264.865.865,0,0,1-.264-.635V-13.457a.9.9,0,0,1,.264-.645.85.85,0,0,1,.635-.273.888.888,0,0,1,.654.264.888.888,0,0,1,.264.654V-.781a.85.85,0,0,1-.273.635A.9.9,0,0,1,51.172.117Zm6.523.1a3.649,3.649,0,0,1-1.582-.352,2.717,2.717,0,0,1-1.191-1.035,2.874,2.874,0,0,1-.43-1.562,2.707,2.707,0,0,1,1.182-2.354A5.734,5.734,0,0,1,59-5.918h2.344v-.137a2.4,2.4,0,0,0-.615-1.826,2.84,2.84,0,0,0-1.982-.576,6.843,6.843,0,0,0-1.27.107,10.456,10.456,0,0,0-1.328.361l-.254.039a.711.711,0,0,1-.518-.225.733.733,0,0,1-.225-.537.767.767,0,0,1,.527-.762,8.5,8.5,0,0,1,3.379-.7,4.573,4.573,0,0,1,2.3.547,3.428,3.428,0,0,1,1.348,1.4,4.127,4.127,0,0,1,.449,1.924V-.781a.85.85,0,0,1-.273.635.9.9,0,0,1-.645.264.865.865,0,0,1-.635-.264.865.865,0,0,1-.264-.635V-1.25A4.836,4.836,0,0,1,57.7.215Zm.664-1.6a3.57,3.57,0,0,0,1.631-.4,4.481,4.481,0,0,0,1.357-1.045V-4.453H59.238q-2.93,0-2.93,1.523Q56.309-1.387,58.359-1.387Zm8.652,1.5a.865.865,0,0,1-.635-.264.865.865,0,0,1-.264-.635V-9.16a.9.9,0,0,1,.264-.645.85.85,0,0,1,.635-.273.882.882,0,0,1,.645.273.882.882,0,0,1,.273.645v.781a3.816,3.816,0,0,1,3.047-1.8h.1a.834.834,0,0,1,.625.264.882.882,0,0,1,.254.635.8.8,0,0,1-.264.615.927.927,0,0,1-.654.244h-.1a3.354,3.354,0,0,0-1.689.439,3.913,3.913,0,0,0-1.318,1.26V-.781a.85.85,0,0,1-.273.635A.9.9,0,0,1,67.012.117Z" transform="translate(812 871)" fill="#fff"/>
    <path id="路径_6843" data-name="路径 6843" d="M3.633.508a1.046,1.046,0,0,1-.8.273,1.046,1.046,0,0,1-.8-.273A.755.755,0,0,1,1.8-.078V-13.3a1.424,1.424,0,0,1,1-1h.723a2.085,2.085,0,0,1,1.113.781q.039.039,3.516,9.883,3.359-9.648,3.438-9.844a1.785,1.785,0,0,1,.254-.312,2.035,2.035,0,0,1,.879-.508h.723a1.424,1.424,0,0,1,1,1V-.078a.827.827,0,0,1-.254.605,1.125,1.125,0,0,1-.82.254,1.144,1.144,0,0,1-.84-.273A.792.792,0,0,1,12.3-.078l.215-10.605Q9.16-1.5,9.121-1.465A1.864,1.864,0,0,1,8.027-.7H7.949a1.581,1.581,0,0,1-.781-.527Q7.129-1.27,3.73-10.684L3.867-.078A.755.755,0,0,1,3.633.508Zm22.4-.937a.7.7,0,0,1-.371.605V.215l-.059.02a6.793,6.793,0,0,1-3.164.8A5.138,5.138,0,0,1,18.574-.547a5.908,5.908,0,0,1-1.523-4.248,6.049,6.049,0,0,1,1.523-4.287,4.688,4.688,0,0,1,3.594-1.66,4.125,4.125,0,0,1,3.32,1.426A5.958,5.958,0,0,1,26.66-5.449q0,.02-.039.41v.02a1.289,1.289,0,0,1-.859.8H19.434a.3.3,0,0,0-.176.156,3.251,3.251,0,0,0,1.016,2.285A3.256,3.256,0,0,0,22.617-.8h.039a2.508,2.508,0,0,0,.449.039,2.9,2.9,0,0,0,1.641-.508,1.654,1.654,0,0,1,.469-.176h.02a.742.742,0,0,1,.645.469A1.094,1.094,0,0,1,26.035-.43ZM24.512-5.937a.235.235,0,0,0,.156-.156A2.789,2.789,0,0,0,24-8.086q-.078-.117-.156-.215a2.258,2.258,0,0,0-1.641-.605,2.671,2.671,0,0,0-1.973.859,3.712,3.712,0,0,0-.977,2.109ZM35.879-9.746q.059,0,.059-.2l-.1-4.727a.766.766,0,0,1,.215-.566,1.208,1.208,0,0,1,.889-.293,1.208,1.208,0,0,1,.889.293.766.766,0,0,1,.215.566V-.078a.845.845,0,0,1-.234.625A.97.97,0,0,1,37.1.781a1.016,1.016,0,0,1-.752-.273.854.854,0,0,1-.254-.566l-.039-.254a4.835,4.835,0,0,1-3.2,1.348A4.23,4.23,0,0,1,29.414-.527a6.632,6.632,0,0,1-1.25-4.258A6.3,6.3,0,0,1,29.59-9.1l.273-.273a6.585,6.585,0,0,1,3.184-1.367,1.716,1.716,0,0,1,1.074.059,9.35,9.35,0,0,1,1.367.762A.908.908,0,0,0,35.879-9.746Zm-.039,7.5V-7.773a3.88,3.88,0,0,0-2.461-1.055,2.543,2.543,0,0,0-2.09,1.094,4.724,4.724,0,0,0-.84,2.949,4.987,4.987,0,0,0,.742,2.91,2.343,2.343,0,0,0,2.041,1A3.613,3.613,0,0,0,35.84-2.246Zm5.7,2.754a.834.834,0,0,1-.215-.586V-9.609q0-.859,1.094-.859a1.223,1.223,0,0,1,.9.293.766.766,0,0,1,.215.566V-.078a.766.766,0,0,1-.215.566,1.238,1.238,0,0,1-.908.293A1.149,1.149,0,0,1,41.543.508Zm-.117-13.2a1.374,1.374,0,0,1-.391-1.016,1.271,1.271,0,0,1,.391-1,1.379,1.379,0,0,1,1.016-.41,1.339,1.339,0,0,1,1.016.41,1.316,1.316,0,0,1,.41,1,1.339,1.339,0,0,1-.41,1.016,1.414,1.414,0,0,1-1.016.371A1.414,1.414,0,0,1,41.426-12.7ZM53.672-.684a4.861,4.861,0,0,1-3.5,1.719A3.14,3.14,0,0,1,47.793.156,4.785,4.785,0,0,1,46.68-3.4V-9.609q0-.859,1.113-.859a1.194,1.194,0,0,1,.879.293.766.766,0,0,1,.215.566v6a3.245,3.245,0,0,0,.586,2.266,1.531,1.531,0,0,0,1.133.41,2.72,2.72,0,0,0,1.5-.391,6.492,6.492,0,0,0,1.367-1.309V-9.609q0-.859,1.113-.859a1.194,1.194,0,0,1,.879.293.766.766,0,0,1,.215.566V-.078a.845.845,0,0,1-.234.625.97.97,0,0,1-.713.234,1,1,0,0,1-.723-.234.869.869,0,0,1-.264-.605Zm16.5-8.066a3.832,3.832,0,0,0-2.441,1.543V-.078a.766.766,0,0,1-.215.566,1.194,1.194,0,0,1-.879.293,1.2,1.2,0,0,1-.9-.273.834.834,0,0,1-.215-.586V-6.055a3.249,3.249,0,0,0-.605-2.285,1.558,1.558,0,0,0-1.152-.41h-.059a3.748,3.748,0,0,0-2.559,1.543V-.078a.766.766,0,0,1-.215.566,1.223,1.223,0,0,1-.9.293A1.164,1.164,0,0,1,59.16.508a.834.834,0,0,1-.215-.586V-9.609a.845.845,0,0,1,.234-.625.985.985,0,0,1,.723-.234.991.991,0,0,1,.762.293.786.786,0,0,1,.234.566l.059.488a9.959,9.959,0,0,1,3.184-1.641.217.217,0,0,1,.1.02,3.081,3.081,0,0,1,3.086,1.895,5.064,5.064,0,0,1,3.5-1.895,3.22,3.22,0,0,1,2.383.879,4.9,4.9,0,0,1,1.113,3.574V-.078A.766.766,0,0,1,74.1.488a1.223,1.223,0,0,1-.9.293,1.164,1.164,0,0,1-.879-.273.834.834,0,0,1-.215-.586V-6.055a3.221,3.221,0,0,0-.625-2.285,1.7,1.7,0,0,0-1.25-.41Z" transform="translate(930 872)" fill="#fff"/>
    <path id="路径_6844" data-name="路径 6844" d="M9.883-.117a5.571,5.571,0,0,1-3.809,1.25q-.273.02-.566.02A5.8,5.8,0,0,1,1.172-.664a.994.994,0,0,1-.273-.7,1.357,1.357,0,0,1,.488-.9,1.013,1.013,0,0,1,.7-.352.834.834,0,0,1,.625.293,4.881,4.881,0,0,0,3.32,1.25h.059A3.013,3.013,0,0,0,8.34-1.816a1.791,1.791,0,0,0,.547-1.348A1.614,1.614,0,0,0,8.262-4.57a7.422,7.422,0,0,0-1.641-.937L4.512-6.426Q1.348-7.793,1.348-10.449a3.8,3.8,0,0,1,1.406-3.027v-.02A5.413,5.413,0,0,1,6.27-14.648q.273-.02.547-.02A4.672,4.672,0,0,1,10.332-13.2a.992.992,0,0,1,.313.723,1.267,1.267,0,0,1-.449.859.916.916,0,0,1-.645.313.87.87,0,0,1-.605-.254,8.862,8.862,0,0,0-2.676-.879,2.906,2.906,0,0,0-1.836.547,1.6,1.6,0,0,0-.625,1.328,1.732,1.732,0,0,0,.938,1.543L6.055-8.4l2.129.9a6.927,6.927,0,0,1,2.334,1.611,3.933,3.933,0,0,1,.83,2.705A3.957,3.957,0,0,1,9.883-.117ZM21.836-.43a.805.805,0,0,1-.371.664V.273l-.117.059a6.868,6.868,0,0,1-3.2.8A5.216,5.216,0,0,1,14.209-.488a5.966,5.966,0,0,1-1.553-4.307A6.128,6.128,0,0,1,14.2-9.141a4.8,4.8,0,0,1,3.672-1.7,4.2,4.2,0,0,1,3.4,1.465,6.036,6.036,0,0,1,1.191,3.926v.02L22.422-5a1.4,1.4,0,0,1-.918.859l-.02.02H15.156a.188.188,0,0,0-.1.078,3.191,3.191,0,0,0,1,2.188l.02.039A3.16,3.16,0,0,0,18.32-.9h.039a2.734,2.734,0,0,0,.449.039,2.767,2.767,0,0,0,1.582-.488.937.937,0,0,1,.547-.2.855.855,0,0,1,.742.527A1.235,1.235,0,0,1,21.836-.43ZM20.2-6.035a.117.117,0,0,0,.078-.078,2.681,2.681,0,0,0-.645-1.914,1.28,1.28,0,0,0-.156-.2,2.153,2.153,0,0,0-1.562-.586,2.532,2.532,0,0,0-1.895.84,3.437,3.437,0,0,0-.937,1.934ZM35.879-8.652a3.733,3.733,0,0,0-2.344,1.484v7.09A.871.871,0,0,1,33.3.566a1.3,1.3,0,0,1-.957.313,1.435,1.435,0,0,1-.977-.293.986.986,0,0,1-.234-.664V-6.055a3.136,3.136,0,0,0-.586-2.207,1.452,1.452,0,0,0-1.074-.391h-.059a3.641,3.641,0,0,0-2.461,1.484v7.09a.871.871,0,0,1-.234.645,1.3,1.3,0,0,1-.957.313,1.435,1.435,0,0,1-.977-.293.986.986,0,0,1-.234-.664V-9.609a.95.95,0,0,1,.254-.7,1.079,1.079,0,0,1,.791-.254,1.148,1.148,0,0,1,.85.313.913.913,0,0,1,.254.625l.039.293a4.734,4.734,0,0,1,3.2-1.5,3.157,3.157,0,0,1,3.105,1.816,5.123,5.123,0,0,1,3.477-1.816,3.325,3.325,0,0,1,2.461.9,5.009,5.009,0,0,1,1.133,3.652V-.078a.871.871,0,0,1-.234.645,1.3,1.3,0,0,1-.957.313,1.435,1.435,0,0,1-.977-.293.986.986,0,0,1-.234-.664V-6.055a3.108,3.108,0,0,0-.605-2.207,1.592,1.592,0,0,0-1.172-.391ZM45.234.566a1.3,1.3,0,0,1-.957.313A1.435,1.435,0,0,1,43.3.586a.986.986,0,0,1-.234-.664V-9.609a.986.986,0,0,1,.234-.664,1.435,1.435,0,0,1,.977-.293,1.3,1.3,0,0,1,.957.313.871.871,0,0,1,.234.645V-.078A.871.871,0,0,1,45.234.566Zm.137-13.184a1.55,1.55,0,0,1-1.084.391,1.623,1.623,0,0,1-1.1-.391,1.478,1.478,0,0,1-.41-1.094,1.413,1.413,0,0,1,.41-1.074,1.524,1.524,0,0,1,1.094-.43,1.441,1.441,0,0,1,1.094.43,1.417,1.417,0,0,1,.43,1.074A1.482,1.482,0,0,1,45.371-12.617ZM48.711-.2V-13.32a1.489,1.489,0,0,1,1.055-1.055l.02-.02h3.594a6.865,6.865,0,0,1,3.848.938,3.253,3.253,0,0,1,1.484,2.969,3.759,3.759,0,0,1-.645,2.148,3.026,3.026,0,0,1-1.055,1.016A3.655,3.655,0,0,1,58.652-6.25a3.6,3.6,0,0,1,.9,2.539,3.94,3.94,0,0,1-1.66,3.438,6.923,6.923,0,0,1-4.2,1.152H49.785A1.489,1.489,0,0,1,48.73-.176ZM51.25-12.324a.117.117,0,0,0-.078.078v4.121h1.875a3.836,3.836,0,0,0,2.734-.762,1.874,1.874,0,0,0,.508-1.387,1.671,1.671,0,0,0-.723-1.543,4.519,4.519,0,0,0-2.441-.508ZM51.172-1.27a.117.117,0,0,0,.078.078h2.188a4.242,4.242,0,0,0,3.086-.9,2.23,2.23,0,0,0,.625-1.68A2.006,2.006,0,0,0,56.6-5.254a4.442,4.442,0,0,0-3.164-.879H51.172ZM69.98-9.2a6.056,6.056,0,0,1,1.543,4.355A6.056,6.056,0,0,1,69.98-.488a4.983,4.983,0,0,1-3.75,1.621A5.08,5.08,0,0,1,62.412-.488a6.033,6.033,0,0,1-1.553-4.355,6.044,6.044,0,0,1,1.66-4.473,5,5,0,0,1,3.672-1.523A5,5,0,0,1,69.98-9.2ZM63.359-4.844A4.268,4.268,0,0,0,64.414-1.7a2.439,2.439,0,0,0,1.8.723,2.475,2.475,0,0,0,2.061-1.035,4.559,4.559,0,0,0,.791-2.832,4.336,4.336,0,0,0-1.113-3.2,2.361,2.361,0,0,0-1.738-.7A2.461,2.461,0,0,0,64.16-7.686,4.614,4.614,0,0,0,63.359-4.844Zm10.43,3.262V-14.668a.986.986,0,0,1,.234-.664A1.435,1.435,0,0,1,75-15.625a1.3,1.3,0,0,1,.957.313.871.871,0,0,1,.234.645V-1.445a.644.644,0,0,0,.1.43.159.159,0,0,0,.117.039h.078a1.118,1.118,0,0,1,.42.244,1.763,1.763,0,0,1,.264.342v.039q.02.1.078.332a1.931,1.931,0,0,1,.02.273.7.7,0,0,1-.2.547.931.931,0,0,1-.488.254,9.03,9.03,0,0,1-1.23.078h-.02a1.513,1.513,0,0,1-.9-.41A3.23,3.23,0,0,1,73.789-1.582ZM86.6-15.312a1.318,1.318,0,0,1,.967-.312,1.318,1.318,0,0,1,.967.313.871.871,0,0,1,.234.645V-.078a.95.95,0,0,1-.254.7,1.079,1.079,0,0,1-.791.254,1.123,1.123,0,0,1-.83-.293,1.174,1.174,0,0,1-.273-.645V-.117a4.917,4.917,0,0,1-3.145,1.25,4.34,4.34,0,0,1-3.516-1.6,6.709,6.709,0,0,1-1.27-4.316A6.325,6.325,0,0,1,80.156-9.16a2.731,2.731,0,0,1,.254-.293,6.925,6.925,0,0,1,3.262-1.387,1.74,1.74,0,0,1,1.133.059A9.794,9.794,0,0,1,86.172-10a1.166,1.166,0,0,0,.293.137v-.078l-.1-4.727A.871.871,0,0,1,86.6-15.312ZM86.367-2.285V-7.734A3.792,3.792,0,0,0,84-8.73a2.452,2.452,0,0,0-2.021,1.064,4.644,4.644,0,0,0-.811,2.881,4.915,4.915,0,0,0,.723,2.852,2.265,2.265,0,0,0,1.963.957A3.5,3.5,0,0,0,86.367-2.285Z" transform="translate(1043 872)" fill="#fff"/>
    <path id="路径_6845" data-name="路径 6845" d="M13.75-8.867a.47.47,0,0,0-.273-.273H6.621a.409.409,0,0,0-.254.254V-7.6a.472.472,0,0,0,.254.273h6.855a.472.472,0,0,0,.273-.254ZM4.9-3.047a.472.472,0,0,0-.273.254V.566a.739.739,0,0,1-.2.547.841.841,0,0,1-.615.2.841.841,0,0,1-.615-.2.739.739,0,0,1-.2-.547V-3.672a1.348,1.348,0,0,1,.879-.9H9.414V-6.055H5.684a1.4,1.4,0,0,1-.9-.9V-9.512a1.4,1.4,0,0,1,.9-.9h8.789a1.4,1.4,0,0,1,.9.9v2.559a1.4,1.4,0,0,1-.9.9h-3.4V-4.57h5.254a1.4,1.4,0,0,1,.9.9V-.312a2,2,0,0,1-.186.957,1.421,1.421,0,0,1-.576.547,8.29,8.29,0,0,1-2.6.215,1,1,0,0,1-1-.742,1.115,1.115,0,0,1-.078-.371A.375.375,0,0,1,12.91.02.539.539,0,0,1,13.3-.1l1.25.02q.469,0,.674-.01A.426.426,0,0,0,15.5-.166a.226.226,0,0,0,.068-.166V-2.793a.412.412,0,0,0-.273-.254H11.074V1.465A.726.726,0,0,1,10.869,2a.865.865,0,0,1-.635.205.856.856,0,0,1-.625-.2.739.739,0,0,1-.2-.547V-3.047Zm9.629-10.078a.991.991,0,0,1-.41-.1q-.449-.2-.43-.508a.705.705,0,0,1,.156-.41l.938-1.348a.843.843,0,0,1,.7-.41,1.644,1.644,0,0,1,.508.1,1.023,1.023,0,0,1,.43.244.443.443,0,0,1,.137.3.634.634,0,0,1-.137.352,11.071,11.071,0,0,1-1.191,1.426A.926.926,0,0,1,14.531-13.125Zm-11,1.445a.412.412,0,0,0-.254.273v1.973a.739.739,0,0,1-.2.547.811.811,0,0,1-.6.2.811.811,0,0,1-.6-.2.739.739,0,0,1-.2-.547v-2.793a1.4,1.4,0,0,1,.9-.9H9.3v-2.363a.739.739,0,0,1,.2-.547.856.856,0,0,1,.625-.2.865.865,0,0,1,.635.205.726.726,0,0,1,.205.537v2.363h6.582a1.4,1.4,0,0,1,.9.9v2.793a.739.739,0,0,1-.2.547.841.841,0,0,1-.615.2.841.841,0,0,1-.615-.2.739.739,0,0,1-.2-.547v-1.973a.481.481,0,0,0-.234-.273ZM5.41-13.164a.805.805,0,0,1-.664-.371l-1-1.328a.686.686,0,0,1-.156-.391q0-.332.449-.508a1.358,1.358,0,0,1,.488-.1.906.906,0,0,1,.7.332,5.153,5.153,0,0,1,.977,1.289.775.775,0,0,1,.107.41.488.488,0,0,1-.146.332,1.219,1.219,0,0,1-.342.234A.967.967,0,0,1,5.41-13.164Zm15.879,1.055q0-.8.723-.8H24.16v-2.363a.739.739,0,0,1,.2-.547.8.8,0,0,1,.586-.2.8.8,0,0,1,.586.2.739.739,0,0,1,.2.547v2.363h2.031a.739.739,0,0,1,.547.2.767.767,0,0,1,.2.566.756.756,0,0,1-.186.557.756.756,0,0,1-.557.186H25.723V-8.32h2.422a.739.739,0,0,1,.547.2.767.767,0,0,1,.2.566.767.767,0,0,1-.2.566.739.739,0,0,1-.547.2h-2.5l-.117,1.016q.586.625,1.67,1.943t1.24,1.572a.81.81,0,0,1,.2.488,1.013,1.013,0,0,1-.352.7.706.706,0,0,1-.469.254.607.607,0,0,1-.488-.293q-.371-.645-2.109-2.91A9.184,9.184,0,0,1,22.4,1.465a.774.774,0,0,1-.527.234.874.874,0,0,1-.586-.312A.809.809,0,0,1,21,.859.632.632,0,0,1,21.27.352Q23.809-1.875,24.082-6.8H21.6a.739.739,0,0,1-.547-.2.767.767,0,0,1-.2-.566.767.767,0,0,1,.2-.566.739.739,0,0,1,.547-.2h2.539l.02-3.086H22.012a.727.727,0,0,1-.537-.186A.7.7,0,0,1,21.289-12.109Zm15,6.387A.412.412,0,0,0,36.543-6V-7.559H31V-6a.472.472,0,0,0,.254.273Zm.254-5.039H31v1.836h5.547ZM31.25-13.945a.412.412,0,0,0-.254.273v1.523h5.547v-1.523a.472.472,0,0,0-.254-.273ZM36.152.371H37.5q.215,0,.254-.1l.117-.762a.642.642,0,0,1,.146-.42.392.392,0,0,1,.283-.127.925.925,0,0,1,.371.1.874.874,0,0,1,.605.9v.1a2.633,2.633,0,0,1-.508,1.426,1.553,1.553,0,0,1-1.133.352h-1.66a1.927,1.927,0,0,1-1.4-.381,2.235,2.235,0,0,1-.361-1.494v-4.2H32.93A9.765,9.765,0,0,1,31.719-.312a5.568,5.568,0,0,1-3.008,2.285,1.237,1.237,0,0,1-.352.059.911.911,0,0,1-.762-.449.758.758,0,0,1-.2-.41q0-.332.43-.469a5.017,5.017,0,0,0,2.48-1.816,7.535,7.535,0,0,0,1.035-3.125h-1a1.4,1.4,0,0,1-.9-.9v-9.414a1.4,1.4,0,0,1,.9-.9h6.895a1.4,1.4,0,0,1,.9.9v9.414a1.4,1.4,0,0,1-.9.9H35.762v4.2A.614.614,0,0,0,35.82.3Q35.879.371,36.152.371Z" transform="translate(828 800)" fill="#fff"/>
  </g>
</svg>
