<svg xmlns="http://www.w3.org/2000/svg" xmlns:xlink="http://www.w3.org/1999/xlink" width="240" height="80" viewBox="0 0 240 80"><defs><linearGradient id="a" x1="1" y1="0.5" x2="0" y2="0.5" gradientUnits="objectBoundingBox"><stop offset="0" stop-color="#f75def"/><stop offset="1" stop-color="#f85ef0" stop-opacity="0"/></linearGradient><filter id="b" x="95.757" y="27.833" width="125.04" height="27.92" filterUnits="userSpaceOnUse"><feOffset dy="2" input="SourceAlpha"/><feGaussianBlur stdDeviation="2" result="c"/><feFlood flood-opacity="0.659"/><feComposite operator="in" in2="c"/><feComposite in="SourceGraphic"/></filter></defs><g transform="translate(-469 -331)"><g transform="translate(509 347)"><rect width="200" height="47.333" rx="16" transform="translate(0)" fill="url(#a)" style="mix-blend-mode:darken;isolation:isolate"/><g transform="matrix(1, 0, 0, 1, -40, -16)" filter="url(#b)"><path d="M-75.725-13.35l-1.76-5.02-1.76,5.02Zm1.04,2.98h-5.6l-.9,2.62h-4.18l5.74-15.08h4.28l5.74,15.08h-4.18Zm10.72-.7h.9a4.868,4.868,0,0,0,1.82-.32,3.886,3.886,0,0,0,1.35-.88,3.768,3.768,0,0,0,.84-1.33,4.759,4.759,0,0,0,.29-1.69,4.64,4.64,0,0,0-.3-1.68,3.868,3.868,0,0,0-.85-1.34,3.886,3.886,0,0,0-1.35-.88,4.811,4.811,0,0,0-1.8-.32h-.9Zm-3.92-11.76h5.8a6.842,6.842,0,0,1,2.89.62,7.876,7.876,0,0,1,2.36,1.65,7.654,7.654,0,0,1,1.59,2.4,7.288,7.288,0,0,1,.58,2.87,7.348,7.348,0,0,1-.57,2.85,7.633,7.633,0,0,1-1.58,2.41,7.788,7.788,0,0,1-2.36,1.66,6.888,6.888,0,0,1-2.91.62h-5.8Zm19.14,7.54a4.018,4.018,0,0,0,.34,1.66,4.2,4.2,0,0,0,.92,1.32,4.159,4.159,0,0,0,1.35.87,4.323,4.323,0,0,0,1.63.31,4.323,4.323,0,0,0,1.63-.31,4.275,4.275,0,0,0,1.36-.87,4.119,4.119,0,0,0,.93-1.32,4.018,4.018,0,0,0,.34-1.66,4.018,4.018,0,0,0-.34-1.66,4.119,4.119,0,0,0-.93-1.32,4.275,4.275,0,0,0-1.36-.87,4.323,4.323,0,0,0-1.63-.31,4.323,4.323,0,0,0-1.63.31,4.159,4.159,0,0,0-1.35.87,4.2,4.2,0,0,0-.92,1.32A4.018,4.018,0,0,0-48.745-15.29Zm-4.1,0a7.877,7.877,0,0,1,.62-3.13,7.811,7.811,0,0,1,1.72-2.53,7.859,7.859,0,0,1,2.63-1.69,9.022,9.022,0,0,1,3.37-.61,9.044,9.044,0,0,1,3.36.61,7.948,7.948,0,0,1,2.65,1.69,7.735,7.735,0,0,1,1.73,2.53,7.877,7.877,0,0,1,.62,3.13,7.877,7.877,0,0,1-.62,3.13A7.735,7.735,0,0,1-38.5-9.63a7.948,7.948,0,0,1-2.65,1.69,9.044,9.044,0,0,1-3.36.61,9.022,9.022,0,0,1-3.37-.61,7.859,7.859,0,0,1-2.63-1.69,7.811,7.811,0,0,1-1.72-2.53A7.877,7.877,0,0,1-52.845-15.29Zm23.1,4.5h.86a4.372,4.372,0,0,0,2.12-.38,1.312,1.312,0,0,0,.64-1.22,1.312,1.312,0,0,0-.64-1.22,4.372,4.372,0,0,0-2.12-.38h-.86Zm0-6.12h.72q1.84,0,1.84-1.46t-1.84-1.46h-.72Zm-3.92-5.92h5.84a4.494,4.494,0,0,1,3.16,1,3.731,3.731,0,0,1,1.08,2.88A3.908,3.908,0,0,1-24-17.06a3.448,3.448,0,0,1-1.25,1.27,4.737,4.737,0,0,1,1.43.49,3.1,3.1,0,0,1,.96.81,3.028,3.028,0,0,1,.53,1.08,4.951,4.951,0,0,1,.16,1.28,4.527,4.527,0,0,1-.37,1.88,3.819,3.819,0,0,1-1.04,1.38,4.447,4.447,0,0,1-1.63.84,7.71,7.71,0,0,1-2.16.28h-6.3Zm22.42,3.32h-4.66v2.52h4.4v3.32h-4.4v2.6h4.66v3.32h-8.58V-22.83h8.58Zm13.94,3.72-4.7-7.04h4.84l2.04,3.9,2.52-3.9h4.84l-4.98,7.04,5.62,8.04H8.095l-3.02-4.92L1.535-7.75h-4.74Zm15.68,4.72h.9a4.868,4.868,0,0,0,1.82-.32,3.886,3.886,0,0,0,1.35-.88,3.768,3.768,0,0,0,.84-1.33,4.759,4.759,0,0,0,.29-1.69,4.64,4.64,0,0,0-.3-1.68,3.868,3.868,0,0,0-.85-1.34,3.886,3.886,0,0,0-1.35-.88,4.811,4.811,0,0,0-1.8-.32h-.9Zm-3.92-11.76h5.8a6.842,6.842,0,0,1,2.89.62,7.876,7.876,0,0,1,2.36,1.65,7.654,7.654,0,0,1,1.59,2.4,7.288,7.288,0,0,1,.58,2.87,7.349,7.349,0,0,1-.57,2.85,7.633,7.633,0,0,1-1.58,2.41,7.788,7.788,0,0,1-2.36,1.66,6.888,6.888,0,0,1-2.91.62h-5.8Z" transform="translate(187.12 55.08)" fill="#fff"/></g></g><g transform="translate(469 331)"><rect width="80" height="80" fill="#313740" opacity="0"/><g transform="translate(9.62 10.38)"><path d="M10.759,0H50A10.75,10.75,0,0,1,60.759,10.759V48.481A10.75,10.75,0,0,1,50,59.241H10.759A10.75,10.75,0,0,1,0,48.481V10.759A10.75,10.75,0,0,1,10.759,0Z" fill="#470137"/><g transform="translate(8.851 12.983)"><path d="M58.059,60.38,50.464,72.911l8.1,13.291a.436.436,0,0,1,.051.3c-.025.1-.127.025-.278.051h-5.8c-.405,0-.684-.025-.861-.278-.532-1.063-1.089-2.1-1.62-3.165-.532-1.038-1.114-2.1-1.722-3.19s-1.215-2.177-1.823-3.291h-.051c-.532,1.089-1.114,2.177-1.7,3.266s-1.165,2.177-1.722,3.241c-.582,1.063-1.165,2.152-1.747,3.19-.1.253-.3.278-.582.278h-5.57c-.1,0-.177.051-.177-.076a.352.352,0,0,1,.051-.278l7.873-12.911L35.224,60.354c-.076-.1-.1-.2-.051-.253a.294.294,0,0,1,.253-.1h5.747a1.494,1.494,0,0,1,.354.051.718.718,0,0,1,.253.228c.481,1.089,1.038,2.177,1.62,3.266.608,1.089,1.19,2.152,1.823,3.215.608,1.063,1.165,2.127,1.7,3.215h.051c.532-1.114,1.089-2.2,1.646-3.266s1.139-2.127,1.722-3.19,1.139-2.152,1.7-3.19a.431.431,0,0,1,.152-.253.483.483,0,0,1,.329-.051h5.342a.233.233,0,0,1,.278.177c.025.025-.025.127-.076.177Z" transform="translate(-34.961 -57.794)" fill="#ff61f6"/><path d="M140.955,80.58a12.586,12.586,0,0,1-5.443-1.139A8.826,8.826,0,0,1,131.69,76a10.954,10.954,0,0,1-1.392-5.772,10.4,10.4,0,0,1,1.392-5.342,10.513,10.513,0,0,1,4.025-3.924,12.95,12.95,0,0,1,6.405-1.468,4.52,4.52,0,0,1,.532.025c.228.025.481.025.785.051v-8c0-.177.076-.278.253-.278h5.139a.227.227,0,0,1,.253.177V75.618c0,.456.025.962.051,1.519.051.532.076,1.038.1,1.468a.411.411,0,0,1-.253.405,19.334,19.334,0,0,1-4.127,1.215A22.331,22.331,0,0,1,140.955,80.58Zm2.481-5.063V64.377a6.477,6.477,0,0,0-.684-.127c-.278-.025-.557-.051-.835-.051a6.241,6.241,0,0,0-2.861.658,5.675,5.675,0,0,0-2.152,1.873,5.612,5.612,0,0,0-.835,3.215,7.055,7.055,0,0,0,.43,2.608,4.948,4.948,0,0,0,1.139,1.8,4.373,4.373,0,0,0,1.721,1.013,6.627,6.627,0,0,0,2.1.329c.38,0,.734-.025,1.063-.051a2.214,2.214,0,0,0,.911-.127Z" transform="translate(-106.161 -51.284)" fill="#ff61f6"/></g></g></g></g></svg>