<svg xmlns="http://www.w3.org/2000/svg" xmlns:xlink="http://www.w3.org/1999/xlink" width="240" height="80" viewBox="0 0 240 80"><defs><linearGradient id="a" x1="1" y1="0.5" x2="0" y2="0.5" gradientUnits="objectBoundingBox"><stop offset="0" stop-color="#6a61fa"/><stop offset="1" stop-color="#9f61fa" stop-opacity="0"/></linearGradient><filter id="b" x="139.38" y="27.833" width="82.68" height="27.92" filterUnits="userSpaceOnUse"><feOffset dy="2" input="SourceAlpha"/><feGaussianBlur stdDeviation="2" result="c"/><feFlood flood-opacity="0.659"/><feComposite operator="in" in2="c"/><feComposite in="SourceGraphic"/></filter></defs><g transform="translate(-2747 -75)"><g transform="translate(2787 91)"><rect width="200" height="47.333" rx="16" transform="translate(0)" fill="url(#a)" style="mix-blend-mode:darken;isolation:isolate"/><g transform="matrix(1, 0, 0, 1, -40, -16)" filter="url(#b)"><path d="M-43.29-19.51h-4.72v2.52h4.3v3.32h-4.3v5.92h-3.92V-22.83h8.64Zm6.26-3.32V-7.75h-3.92V-22.83Zm10.5,6.64h7.78a21.613,21.613,0,0,1-.1,2.18,7.726,7.726,0,0,1-.4,1.82,7.263,7.263,0,0,1-1.14,2.09,6.668,6.668,0,0,1-1.69,1.52,7.944,7.944,0,0,1-2.13.93,9.136,9.136,0,0,1-2.44.32,8.571,8.571,0,0,1-3.21-.58,7.244,7.244,0,0,1-2.49-1.63,7.382,7.382,0,0,1-1.62-2.52,8.783,8.783,0,0,1-.58-3.25,8.862,8.862,0,0,1,.57-3.23,7.089,7.089,0,0,1,1.62-2.51,7.362,7.362,0,0,1,2.53-1.62,8.976,8.976,0,0,1,3.3-.58,8.181,8.181,0,0,1,4.14,1.02,7.062,7.062,0,0,1,2.82,3.16l-3.72,1.54a3.784,3.784,0,0,0-1.35-1.78,3.389,3.389,0,0,0-1.89-.54,3.8,3.8,0,0,0-1.6.33,3.467,3.467,0,0,0-1.23.94,4.512,4.512,0,0,0-.8,1.47,5.985,5.985,0,0,0-.29,1.92,6.078,6.078,0,0,0,.25,1.78,4.02,4.02,0,0,0,.75,1.42,3.382,3.382,0,0,0,1.24.93,4.189,4.189,0,0,0,1.72.33,4.769,4.769,0,0,0,1.12-.13,2.955,2.955,0,0,0,.97-.42,2.39,2.39,0,0,0,.71-.75,3,3,0,0,0,.38-1.12h-3.22Zm9.58,8.44,2.56-15.08h3.88l3.02,8.04,3-8.04H-.61L1.95-7.75h-3.9l-1.3-8.68L-6.81-7.75H-8.37l-3.38-8.68-1.3,8.68Zm29.58-5.6-1.76-5.02L9.11-13.35Zm1.04,2.98H8.07l-.9,2.62H2.99L8.73-22.83h4.28L18.75-7.75H14.57Z" transform="translate(197.31 55.08)" fill="#fff"/></g></g><g transform="translate(2747 75)"><rect width="80" height="80" fill="#313740" opacity="0"/><g transform="translate(18.868 8.302)"><path d="M10.566,221.132a10.57,10.57,0,0,0,10.566-10.566V200H10.566a10.566,10.566,0,1,0,0,21.132Z" transform="translate(0 -157.737)" fill="#0acf83"/><path d="M0,110.566A10.57,10.57,0,0,1,10.566,100H21.132v21.132H10.566A10.57,10.57,0,0,1,0,110.566Z" transform="translate(0 -78.868)" fill="#a259ff"/><path d="M0,10.566A10.57,10.57,0,0,1,10.566,0H21.132V21.132H10.566A10.57,10.57,0,0,1,0,10.566Z" fill="#f24e1e"/><path d="M100,0h10.566a10.566,10.566,0,1,1,0,21.132H100Z" transform="translate(-78.868)" fill="#ff7262"/><path d="M121.132,110.566A10.566,10.566,0,1,1,110.566,100,10.57,10.57,0,0,1,121.132,110.566Z" transform="translate(-78.868 -78.868)" fill="#1abcfe"/></g></g></g></svg>