<svg xmlns="http://www.w3.org/2000/svg" width="24" height="30" viewBox="0 0 24 30"><g transform="translate(-30 -7.757)"><path d="M2.934,29.909A2.963,2.963,0,0,1,0,26.918V2.991A2.963,2.963,0,0,1,2.934,0h13.7a2.9,2.9,0,0,1,2.078.873l4.4,4.478a3.023,3.023,0,0,1,.856,2.119V26.918a2.963,2.963,0,0,1-2.935,2.991Z" transform="translate(30 7.848)" fill="#470137"/><path d="M5.663,1029.064A2.628,2.628,0,0,0,3,1031.647v23.248a2.628,2.628,0,0,0,2.663,2.583H24.3a2.627,2.627,0,0,0,2.663-2.583v-12.915s.076-5.156,0-5.166c.174-2.909-7.437-9.146-7.989-7.749C15.92,1028.971,5.663,1029.064,5.663,1029.064Z" transform="translate(27 -1021.106)" fill="#f25bea" opacity="0.369"/><g transform="translate(34.632 15.191)" opacity="0.749"><path d="M75.812,58.144l-2.65,4.6,2.856,4.9c.059.1.034.148-.073.148H74.159a.222.222,0,0,1-.219-.122l-2.007-3.725h-.015L69.96,67.67a.218.218,0,0,1-.19.122H68.056c-.1,0-.122-.049-.059-.148l2.811-4.764-2.678-4.761c-.058-.08-.038-.122.059-.122h1.785a.2.2,0,0,1,.19.1l1.884,3.681h.015L73.94,58.1a.2.2,0,0,1,.19-.1h1.625C75.861,58,75.881,58.047,75.812,58.144Z" transform="translate(-67.962 -57.751)" fill="#ff83f8"/><path d="M139.445,66.28A3.187,3.187,0,0,1,136,62.764a3.517,3.517,0,0,1,1.018-2.6,3.65,3.65,0,0,1,2.682-1.1,2.74,2.74,0,0,1,.664.071V56.079a.075.075,0,0,1,.084-.084h1.662c.048,0,.071.028.071.084v8.549a6.523,6.523,0,0,0,.185.932.111.111,0,0,1-.07.122A6.79,6.79,0,0,1,139.445,66.28Zm.918-1.4V60.525a.982.982,0,0,0-.693-.193,1.789,1.789,0,0,0-1.4.612,2.633,2.633,0,0,0-.636,1.751,2.42,2.42,0,0,0,.628,1.714,1.816,1.816,0,0,0,1.347.612A1.478,1.478,0,0,0,140.363,64.882Z" transform="translate(-127.669 -55.994)" fill="#ff83f8"/></g><path d="M131,178.035c1.017-.017,2.09-.254,2.7.809a2.546,2.546,0,0,1-.045,2.677c-.611,1.008-1.627.889-2.653.847Zm.724.674v2.947a1.018,1.018,0,0,0,1.223-.4,1.985,1.985,0,0,0,.089-2.041A1.091,1.091,0,0,0,131.724,178.708Z" transform="translate(-88.65 -149.399)" fill="#fff"/><path d="M102.424,178l-1.481,2.442-1.087,1.953H99l1.467-2.442,1.1-1.953Z" transform="translate(-60.563 -149.399)" fill="#fff"/><path d="M99,178l1.59,2.564.856,1.831h.856L99.856,178Z" transform="translate(-60.563 -149.399)" fill="#fff"/></g></svg>