<svg xmlns="http://www.w3.org/2000/svg" width="24" height="30" viewBox="0 0 24 30"><g transform="translate(-3 -1029.4)"><g transform="translate(3 1029.4)"><path d="M5.667,1030.4A2.642,2.642,0,0,0,3,1033.009v23.478a2.642,2.642,0,0,0,2.667,2.609H24.333A2.642,2.642,0,0,0,27,1056.487v-18.261l-8-7.826Z" transform="translate(-3 -1029.096)" fill="#c0392b"/><path d="M5.667,1029.4A2.642,2.642,0,0,0,3,1032.009v23.478a2.642,2.642,0,0,0,2.667,2.609H24.333A2.642,2.642,0,0,0,27,1055.487v-18.261l-8-7.826Z" transform="translate(-3 -1029.4)" fill="#e7523c"/><path d="M23,1037.226l-8-7.826v5.217a2.642,2.642,0,0,0,2.667,2.609Z" transform="translate(1 -1029.4)" fill="#c0392b"/></g><path d="M24.149,1039.4h-.387c-.12.13-.8,1.044-1.1,1.3-.08.13-.2.261-.268.261a42.916,42.916,0,0,1-4.361,4.174,2.377,2.377,0,0,1-.355.261,14.018,14.018,0,0,1-1.309.913,12.993,12.993,0,0,1-3.723,1.7,8.268,8.268,0,0,1-6.063-.652,10.72,10.72,0,0,1-2.13-1.174c-.509-.391-.456-.391-.455.261v.652l.344.13a20.722,20.722,0,0,0,2.013,1.044c.473.261.62.391.356.391a5.941,5.941,0,0,0-2.158,0H4.023a3.35,3.35,0,0,0-.022.522v.522h.178a8.659,8.659,0,0,1,3.17-.13,6.607,6.607,0,0,1,2.293.652,6.382,6.382,0,0,1,3.178,3.261l.107.261H14.1l-.032-.13a5.348,5.348,0,0,0-1.369-2.348,11.749,11.749,0,0,0-1.486-1.3h-.1a1.327,1.327,0,0,0-.772-.391.347.347,0,0,0-.224-.13c0-.13.093-.13.207,0a13.042,13.042,0,0,0,1.95-.261,13.052,13.052,0,0,0,4.172-1.565c.493-.261,1.613-1.174,2.061-1.435.333-.391.44-.391.3-.261a3.987,3.987,0,0,1-.207.391c-.065.13-.18.261-.253.391a12.115,12.115,0,0,0-1.883,5.739c-.025.391-.047.782-.047.913v.391H22.64l-.1-.13a11.577,11.577,0,0,1-1.488-3.652,10.727,10.727,0,0,1-.129-3.131,7.106,7.106,0,0,1,3.585-5.087,3.527,3.527,0,0,0,.6-.391l.223-.13v-.391a2.083,2.083,0,0,0-.036-.522c-.485.261-1.565.913-2.061,1.174-.265.261-.281.261-.032,0,.357-.391.973-1.043,1.628-1.826l.305-.261h-.988Z" transform="translate(0.333 3.044)" fill="#ecf0f1"/></g></svg>