<svg xmlns="http://www.w3.org/2000/svg" width="36" height="36" viewBox="0 0 36 36"><g transform="translate(-3951 -3956)"><rect width="36" height="36" transform="translate(3951 3956)" fill="#f85ef0" opacity="0"/><path d="M-2868.179,6677.235l-6.037-5.573A10.919,10.919,0,0,1-2881,6674a10.93,10.93,0,0,1-7.78-3.222A10.928,10.928,0,0,1-2892,6663a10.928,10.928,0,0,1,3.222-7.778A10.93,10.93,0,0,1-2881,6652a10.928,10.928,0,0,1,7.778,3.222A10.929,10.929,0,0,1-2870,6663a10.92,10.92,0,0,1-2.759,7.286l5.935,5.479ZM-2881,6654a9.011,9.011,0,0,0-9,9,9.011,9.011,0,0,0,9,9,9.01,9.01,0,0,0,9-9A9.01,9.01,0,0,0-2881,6654Z" transform="translate(6848.251 -2690.75)" fill="#f85ef0"/></g></svg>