<svg xmlns="http://www.w3.org/2000/svg" width="36" height="36" viewBox="0 0 36 36"><g transform="translate(-3951 -4166)"><rect width="36" height="36" transform="translate(3951 4166)" fill="#50004c" opacity="0"/><path d="M18.341,17.6l2.342-7.035L24.27,7.876l-7.4-7.4L14.186,4.067l-7.035,2.3L.884,22.86.27,24.48l1.62-.614Zm-1.3-14.784,4.892,4.892L20.683,5.595ZM8.334,7.638l6.144-2.043L19.186,10.3l-2.043,6.144L4.671,21.155l6.144-6.144a3.11,3.11,0,1,0-1.1-1.075L3.572,20.079ZM10.815,12.4a1.536,1.536,0,1,1,1.536,1.536A1.536,1.536,0,0,1,10.815,12.4Z" transform="translate(3956.73 4171.52)" fill="#50004c"/></g></svg>