<svg xmlns="http://www.w3.org/2000/svg" width="36" height="36" viewBox="0 0 36 36"><g transform="translate(-3951 -4040)"><rect width="36" height="36" transform="translate(3951 4040)" fill="#f85ef0" opacity="0"/><path d="M3,1V4.462H4.385V2.385h6.923v18H8.8v1.385h6.39V20.385h-2.5v-18h6.923V4.462H21V1Z" transform="translate(3957 4046.615)" fill="#f85ef0"/><path d="M3,1V4.462H4.385V2.385h6.923v18H8.8v1.385h6.39V20.385h-2.5v-18h6.923V4.462H21V1H3M2.5.5h19V4.962H19.115V2.885H13.192v17h2.5v2.385H8.3V19.885h2.506v-17H4.885V4.962H2.5Z" transform="translate(3957 4046.615)" fill="#f85ef0"/></g></svg>