<svg xmlns="http://www.w3.org/2000/svg" width="36" height="36" viewBox="0 0 36 36"><g transform="translate(-3951 -4124)"><rect width="36" height="36" transform="translate(3951 4124)" fill="#f85ef0" opacity="0"/><g transform="translate(3924.25 4130.298)"><path d="M53.183.979A3.589,3.589,0,0,0,50.1.064l-.093.029-3.52,4.393L44.087,2.558,41.54,5.738l2.115,1.694L35.443,17.681l.965,1.727-1.659,2.07L37.155,23.4l1.619-2.02,1.729.773,8.417-10.505,2.156,1.728L53.623,10.2l-2.4-1.927,3.52-4.393.009-.1A3.5,3.5,0,0,0,53.183.979ZM40.124,20.592,38.4,19.818l-1.437,1.793-.414-.331,1.4-1.744-.965-1.727L44.651,8.23l3.276,2.624Z" transform="translate(0 0)" fill="#f85ef0"/></g></g></svg>