<svg xmlns="http://www.w3.org/2000/svg" xmlns:xlink="http://www.w3.org/1999/xlink" width="360" height="120" viewBox="0 0 360 120"><defs><linearGradient id="a" x1="1" y1="0.5" x2="0" y2="0.5" gradientUnits="objectBoundingBox"><stop offset="0" stop-color="#f7fd36"/><stop offset="1" stop-color="#f7fd36" stop-opacity="0"/></linearGradient><filter id="b" x="197.345" y="43.75" width="130.29" height="35.88" filterUnits="userSpaceOnUse"><feOffset dy="2" input="SourceAlpha"/><feGaussianBlur stdDeviation="2" result="c"/><feFlood flood-opacity="0.659"/><feComposite operator="in" in2="c"/><feComposite in="SourceGraphic"/></filter></defs><g transform="translate(-61 -331)"><g transform="translate(-526 -1301)"><rect width="300" height="71" rx="16" transform="translate(647 1656)" fill="url(#a)" style="mix-blend-mode:darken;isolation:isolate"/><g transform="matrix(1, 0, 0, 1, 587, 1632)" filter="url(#b)"><path d="M-46.215-16.83a7.261,7.261,0,0,0-1.92-1.155,5.1,5.1,0,0,0-1.86-.375,3.018,3.018,0,0,0-1.86.54,1.683,1.683,0,0,0-.72,1.41,1.4,1.4,0,0,0,.36.99,3.137,3.137,0,0,0,.945.675,8.088,8.088,0,0,0,1.32.495q.735.21,1.455.45a9.072,9.072,0,0,1,4.215,2.565A6.328,6.328,0,0,1-42.945-7.05,8.147,8.147,0,0,1-43.53-3.9a6.573,6.573,0,0,1-1.71,2.415A7.89,7.89,0,0,1-48,.075,11.494,11.494,0,0,1-51.7.63a13.626,13.626,0,0,1-7.95-2.55l2.52-4.74a10.222,10.222,0,0,0,2.61,1.74,6.273,6.273,0,0,0,2.55.57,3.044,3.044,0,0,0,2.145-.66,2.008,2.008,0,0,0,.705-1.5,2.026,2.026,0,0,0-.18-.885,1.917,1.917,0,0,0-.6-.69A4.809,4.809,0,0,0-51-8.67q-.675-.27-1.635-.6-1.14-.36-2.235-.8a7.033,7.033,0,0,1-1.95-1.155,5.367,5.367,0,0,1-1.38-1.815,6.419,6.419,0,0,1-.525-2.775,8.017,8.017,0,0,1,.555-3.045,6.767,6.767,0,0,1,1.56-2.34,6.954,6.954,0,0,1,2.46-1.515,9.3,9.3,0,0,1,3.255-.54,14.248,14.248,0,0,1,3.51.465,15.481,15.481,0,0,1,3.51,1.365Zm12.84,3.54,7.17-9.33h7.26l-8.97,10.71L-18.105,0h-7.62l-7.65-9.81V0h-5.88V-22.62h5.88Zm30.75-4.35h-6.99v3.78h6.6v4.98h-6.6v3.9h6.99V0h-12.87V-22.62h12.87Zm12.81,0V0H4.305V-17.64H-.525v-4.98h15.54v4.98Zm23.52,2.58a6.275,6.275,0,0,0-5.04-2.49,6.165,6.165,0,0,0-2.445.48,5.95,5.95,0,0,0-1.935,1.3A6.009,6.009,0,0,0,23.01-13.8a6.451,6.451,0,0,0-.465,2.46,6.531,6.531,0,0,0,.465,2.49A6.057,6.057,0,0,0,24.3-6.87a6.047,6.047,0,0,0,1.935,1.32,5.981,5.981,0,0,0,2.4.48,6.809,6.809,0,0,0,5.07-2.4V-.51l-.6.21a17.36,17.36,0,0,1-2.52.7,12.212,12.212,0,0,1-2.31.225A11.646,11.646,0,0,1,23.79-.255a11.727,11.727,0,0,1-3.78-2.49,12.387,12.387,0,0,1-2.625-3.81,11.62,11.62,0,0,1-.99-4.815,11.564,11.564,0,0,1,.975-4.785,11.909,11.909,0,0,1,2.61-3.75,11.936,11.936,0,0,1,3.8-2.46,11.834,11.834,0,0,1,4.53-.885,12.407,12.407,0,0,1,2.655.285,16.1,16.1,0,0,1,2.745.885Zm10.56,1.17h8.49v-8.73h5.88V0h-5.88V-9.33h-8.49V0h-5.88V-22.62h5.88Z" transform="translate(263 71)" fill="#fff"/></g></g><g transform="translate(208 -1354)"><rect width="120" height="120" transform="translate(-147 1685)" fill="#313740" opacity="0"/><g transform="translate(-135.608 1700.949)"><path d="M48.607,0l-27.4,2.9L0,31.37l48.608,56.6,48.608-56.6L76,2.9Z" transform="translate(0 0)" fill="#fdb300"/><path d="M0,82.608l48.608,56.6-28.919-56.6Z" transform="translate(0 -51.238)" fill="#eb6c00"/><path d="M156.919,82.608,128,139.21l48.607-56.6Z" transform="translate(-79.393 -51.238)" fill="#eb6c00"/><path d="M51.846,82.608l28.919,56.6,28.919-56.6Z" transform="translate(-32.158 -51.238)" fill="#fdad00"/><path d="M53.368,2.9,51.846,31.37,80.765,0Z" transform="translate(-32.157 0)" fill="#fdd231"/><path d="M156.919,31.37,155.4,2.9,128,0Z" transform="translate(-79.393 0)" fill="#fdd231"/><path d="M201.668,36.1h19.688L200.145,7.628Z" transform="translate(-124.141 -4.731)" fill="#fdad00"/><path d="M0,36.1H19.688L21.211,7.628Z" transform="translate(0 -4.731)" fill="#fdad00"/><path d="M80.765,0,51.846,31.37h57.838Z" transform="translate(-32.157 0)" fill="#feeeb7"/></g></g></g></svg>