<svg xmlns="http://www.w3.org/2000/svg" xmlns:xlink="http://www.w3.org/1999/xlink" width="240" height="80" viewBox="0 0 240 80"><defs><linearGradient id="a" x1="1" y1="0.5" x2="0" y2="0.5" gradientUnits="objectBoundingBox"><stop offset="0" stop-color="#f7fd36"/><stop offset="1" stop-color="#f7fd36" stop-opacity="0"/></linearGradient><filter id="b" x="129.563" y="27.833" width="90.86" height="27.92" filterUnits="userSpaceOnUse"><feOffset dy="2" input="SourceAlpha"/><feGaussianBlur stdDeviation="2" result="c"/><feFlood flood-opacity="0.659"/><feComposite operator="in" in2="c"/><feComposite in="SourceGraphic"/></filter></defs><g transform="translate(-61 -331)"><g transform="translate(101 347)"><rect width="200" height="47.333" rx="16" fill="url(#a)" style="mix-blend-mode:darken;isolation:isolate"/><g transform="matrix(1, 0, 0, 1, -40, -16)" filter="url(#b)"><path d="M-50.695-18.97a4.841,4.841,0,0,0-1.28-.77,3.4,3.4,0,0,0-1.24-.25,2.012,2.012,0,0,0-1.24.36,1.122,1.122,0,0,0-.48.94.935.935,0,0,0,.24.66,2.092,2.092,0,0,0,.63.45,5.392,5.392,0,0,0,.88.33q.49.14.97.3a6.048,6.048,0,0,1,2.81,1.71,4.219,4.219,0,0,1,.89,2.79,5.432,5.432,0,0,1-.39,2.1,4.382,4.382,0,0,1-1.14,1.61,5.26,5.26,0,0,1-1.84,1.04,7.663,7.663,0,0,1-2.47.37,9.084,9.084,0,0,1-5.3-1.7l1.68-3.16a6.815,6.815,0,0,0,1.74,1.16,4.182,4.182,0,0,0,1.7.38,2.029,2.029,0,0,0,1.43-.44,1.339,1.339,0,0,0,.47-1,1.351,1.351,0,0,0-.12-.59,1.278,1.278,0,0,0-.4-.46,3.206,3.206,0,0,0-.73-.39q-.45-.18-1.09-.4-.76-.24-1.49-.53a4.688,4.688,0,0,1-1.3-.77,3.578,3.578,0,0,1-.92-1.21,4.279,4.279,0,0,1-.35-1.85,5.344,5.344,0,0,1,.37-2.03,4.511,4.511,0,0,1,1.04-1.56,4.636,4.636,0,0,1,1.64-1.01,6.2,6.2,0,0,1,2.17-.36,9.5,9.5,0,0,1,2.34.31,10.321,10.321,0,0,1,2.34.91Zm8.56,2.36,4.78-6.22h4.84l-5.98,7.14,6.54,7.94h-5.08l-5.1-6.54v6.54h-3.92V-22.83h3.92Zm20.5-2.9h-4.66v2.52h4.4v3.32h-4.4v2.6h4.66v3.32h-8.58V-22.83h8.58Zm8.54,0V-7.75h-3.92V-19.51h-3.22v-3.32h10.36v3.32Zm15.68,1.72a4.183,4.183,0,0,0-3.36-1.66,4.11,4.11,0,0,0-1.63.32,3.967,3.967,0,0,0-1.29.87,4.006,4.006,0,0,0-.85,1.31,4.3,4.3,0,0,0-.31,1.64,4.354,4.354,0,0,0,.31,1.66,4.038,4.038,0,0,0,.86,1.32,4.031,4.031,0,0,0,1.29.88,3.987,3.987,0,0,0,1.6.32,4.539,4.539,0,0,0,3.38-1.6v4.64l-.4.14a11.573,11.573,0,0,1-1.68.47,8.141,8.141,0,0,1-1.54.15,7.764,7.764,0,0,1-2.99-.59,7.818,7.818,0,0,1-2.52-1.66,8.258,8.258,0,0,1-1.75-2.54,7.746,7.746,0,0,1-.66-3.21,7.71,7.71,0,0,1,.65-3.19,7.94,7.94,0,0,1,1.74-2.5,7.958,7.958,0,0,1,2.53-1.64,7.889,7.889,0,0,1,3.02-.59,8.272,8.272,0,0,1,1.77.19,10.737,10.737,0,0,1,1.83.59Zm7.04.78h5.66v-5.82h3.92V-7.75h-3.92v-6.22H9.625v6.22H5.7V-22.83h3.92Z" transform="translate(195.22 55.08)" fill="#fff"/></g></g><g transform="translate(61 331)"><rect width="80" height="80" fill="#313740" opacity="0"/><g transform="translate(7.595 10.633)"><path d="M32.4,0,14.14,1.931,0,20.913,32.4,58.649,64.81,20.913,50.67,1.931Z" transform="translate(0 0)" fill="#fdb300"/><path d="M0,82.608l32.405,37.735L13.126,82.608Z" transform="translate(0 -61.694)" fill="#eb6c00"/><path d="M147.28,82.608,128,120.343l32.4-37.735Z" transform="translate(-95.595 -61.694)" fill="#eb6c00"/><path d="M51.846,82.608l19.28,37.735L90.405,82.608Z" transform="translate(-38.721 -61.694)" fill="#fdad00"/><path d="M52.861,1.931,51.846,20.913,71.125,0Z" transform="translate(-38.72 0)" fill="#fdd231"/><path d="M147.28,20.914,146.265,1.931,128,0Z" transform="translate(-95.595 0)" fill="#fdd231"/><path d="M201.16,26.61h13.125L200.145,7.628Z" transform="translate(-149.475 -5.697)" fill="#fdad00"/><path d="M0,26.61H13.126L14.141,7.628Z" transform="translate(0 -5.697)" fill="#fdad00"/><path d="M71.125,0,51.846,20.913H90.4Z" transform="translate(-38.72 0)" fill="#feeeb7"/></g></g></g></svg>