<svg xmlns="http://www.w3.org/2000/svg" width="84.48" height="22.14" viewBox="0 0 84.48 22.14">
  <path id="f-Caslon" d="M21.03-5.34c-.09-.09-.21,0-.36.21A8.75,8.75,0,0,1,13.5-1.65,6.465,6.465,0,0,1,8.34-3.99a12.145,12.145,0,0,1-2.76-7.8c0-4.32,1.98-8.64,6.78-8.64a7.151,7.151,0,0,1,5.22,2.22,10.631,10.631,0,0,1,2.34,3.9c.09.24.18.36.33.3l.57-.18c.12-.03.15-.12.12-.3-.12-.9-.72-5.7-.72-6.24,0-.42-.06-.48-.42-.48s-.42,0-.48.18l-.24.78c-.06.24-.18.24-.6,0a13.066,13.066,0,0,0-6.06-1.44,10.369,10.369,0,0,0-7.8,3.18,11.637,11.637,0,0,0-3.06,8.04c0,2.64,1.02,6.12,3.24,8.1A10.624,10.624,0,0,0,12.66.45,10.771,10.771,0,0,0,21.6-4.59a.233.233,0,0,0-.06-.3Zm9.51,3.87A2.476,2.476,0,0,0,33.06.36a3.015,3.015,0,0,0,2.76-1.74c.12-.3.06-.42-.06-.48L35.4-2.1c-.12-.06-.18-.06-.3.12a1.154,1.154,0,0,1-.96.48c-.54,0-.78-.48-.78-2.1V-5.04L33.3-9.78a2.816,2.816,0,0,0-.72-2.25,3.459,3.459,0,0,0-2.76-.84,7.908,7.908,0,0,0-4.86,1.68,3.186,3.186,0,0,0-1.38,2.46A.975.975,0,0,0,24.6-7.71a1.573,1.573,0,0,0,1.8-1.74c0-.72-.3-1.17.12-1.47a3.126,3.126,0,0,1,1.74-.54,2,2,0,0,1,1.5.45,2.927,2.927,0,0,1,.48,1.68v1.56a31.475,31.475,0,0,1-3.66,1.86c-2.16.96-2.76,2.31-2.76,3.69,0,1.68.96,2.58,2.07,2.58A6.275,6.275,0,0,0,27.81.15a5.807,5.807,0,0,0,2.61-1.62Zm-.3-1.26c0,.54-1.08,1.38-1.92,1.44-.72,0-1.38-.6-1.38-1.83,0-2.19,1.98-2.7,3.3-3.54Zm7.2,1.98a.769.769,0,0,0,.24.33,6.307,6.307,0,0,0,3.24.78c2.97,0,5.01-1.8,5.01-4.32a3.079,3.079,0,0,0-.9-2.4,5.531,5.531,0,0,0-3-1.56c-1.8-.48-2.7-.84-2.7-2.07A1.866,1.866,0,0,1,41.4-11.7a2.431,2.431,0,0,1,1.89.93l1.44,1.62a.189.189,0,0,0,.24.12l.57-.27a.4.4,0,0,0,.03-.33l-.39-2.04c-.03-.18-.12-.3-.57-.54a5.792,5.792,0,0,0-2.91-.66,4.96,4.96,0,0,0-3.12.99,3.648,3.648,0,0,0-1.53,3.15c0,2.13,1.62,3.15,3.66,3.75,2.1.6,2.88,1.14,2.88,2.34A1.937,1.937,0,0,1,41.46-.81a2.685,2.685,0,0,1-2.58-1.62l-.99-1.68c-.06-.12-.15-.12-.27-.09l-.57.18c-.09.03-.12.12-.09.24ZM49.38-11.49V-2.1c0,.84-.45,1.08-.75,1.08H47.49c-.36,0-.42.06-.42.24v.57c0,.18.06.3.24.3.24,0,1.44-.09,3.72-.09,2.1,0,3.42.09,3.66.09.12,0,.18-.12.18-.3V-.75c0-.21-.06-.27-.36-.27H53.37c-.66,0-.72-.42-.78-.96-.06-.9-.06-3.96-.06-5.34v-4.32c0-1.65.06-7.89.12-9.51,0-.42-.12-.54-.3-.54a2.729,2.729,0,0,0-.66.18,25.044,25.044,0,0,1-4.5,1.74c-.18.06-.24.18-.24.24v.36c0,.12,0,.18.18.24l.6.18a1.831,1.831,0,0,1,1.53,1.8C49.32-16.17,49.38-13.59,49.38-11.49Zm13.05-1.38a6.5,6.5,0,0,0-4.26,1.44,6.7,6.7,0,0,0-2.52,4.98A6.3,6.3,0,0,0,57.27-1.8,5.863,5.863,0,0,0,62.13.36,6.653,6.653,0,0,0,67.17-1.8a6.886,6.886,0,0,0,1.86-4.56,6.472,6.472,0,0,0-2.07-4.74A6.346,6.346,0,0,0,62.43-12.87ZM62.37-.9A2.519,2.519,0,0,1,60-2.19a7,7,0,0,1-.93-4.17c0-2.19.36-3.45,1.29-4.5a2.354,2.354,0,0,1,1.89-.81c1.38,0,3.12,1.92,3.12,5.22C65.37-3.39,64.35-.9,62.37-.9Zm8.91-10.17c-.18.06-.3.18-.3.3v.24a.306.306,0,0,0,.24.3l.24.12a1.878,1.878,0,0,1,1.26,1.74v6.75c0,.48-.42.6-.78.6h-.6c-.24,0-.3.06-.3.24v.57c0,.18.06.3.18.3.18,0,1.14-.09,3-.09,1.8,0,2.64.09,2.82.09s.24-.12.24-.3V-.75c0-.21-.06-.27-.3-.27h-.54c-.42,0-.57-.36-.57-1.02V-8.22a3.063,3.063,0,0,1,.63-2.13,2.771,2.771,0,0,1,1.92-.78,2.3,2.3,0,0,1,1.8.54c.72.6.78,1.38.78,2.58v3.45a24.359,24.359,0,0,1-.12,2.82c-.06.54-.3.72-.54.72h-.6c-.3,0-.36.06-.36.24v.51c0,.24.06.36.24.36S80.76,0,82.56,0c2.1,0,3,.09,3.24.09.18,0,.24-.06.24-.21V-.81c0-.15-.09-.21-.36-.21h-.84c-.36,0-.72-.18-.72-.84,0-.6.03-1.92.03-2.88V-9.06a3.391,3.391,0,0,0-1.65-3.09,4.157,4.157,0,0,0-2.64-.72,4.694,4.694,0,0,0-2.4.72,5.085,5.085,0,0,0-1.5,1.2h-.18l-.24-1.56q-.09-.36-.36-.36a1.558,1.558,0,0,0-.6.24Z" transform="translate(-1.56 21.69)" fill="#222750"/>
</svg>
