<svg xmlns="http://www.w3.org/2000/svg" width="105.214" height="22.666" viewBox="0 0 105.214 22.666">
  <path id="f-Centaur" d="M21.09-21l-.33.06a2.149,2.149,0,0,1-1.44,0c-4.08-1.17-5.73-1.35-7.83-1.08a11.538,11.538,0,0,0-9.93,8.37C-.33-6.27,5.37.69,14.49.18A11.244,11.244,0,0,0,15.9.03L16.17,0l2.34-.39L19.8-.6l.33-1.02.33-1.02.39-1.32.39-1.29-.75-.03a1.668,1.668,0,0,1-.27.51,6.8,6.8,0,0,1-5.34,3.69A8.063,8.063,0,0,1,9.27-2.49,10.414,10.414,0,0,1,5.25-13.02c.72-3.84,2.61-6.21,5.22-7.29a7.435,7.435,0,0,1,4.98-.21,8.34,8.34,0,0,1,2.43,1.02c1.44.87,1.68,1.29,1.68,2.88v.3h.66c.12-.75.27-1.53.45-2.28s.42-1.5.66-2.22ZM34.98-9.15l-.18-.12-.09-.09a7.448,7.448,0,0,1-.69-.9A5.343,5.343,0,0,0,30-12.72c-3.21-.42-6.12,1.8-6.72,5.67a7.717,7.717,0,0,0-.06,1.44A6.134,6.134,0,0,0,31.44.09a10.423,10.423,0,0,0,2.7-1.44,3.991,3.991,0,0,0,.57-.42l-.33-.6c-.15.09-.27.18-.42.27a9.789,9.789,0,0,1-1.14.54c-3.24,1.32-6-.3-6.45-4.59a2.581,2.581,0,0,1-.03-.48l1.95-.42,1.98-.42c1.56-.33,3.21-.66,4.71-.93ZM26.25-7.59l.03-.33.03-.36a2.557,2.557,0,0,1,.09-.69,4.512,4.512,0,0,1,.33-1.2,2.354,2.354,0,0,1,4.05-.69,3.3,3.3,0,0,1,.69.99c.3.75.15,1.02-.75,1.29-.09.03-.18.06-.3.09Zm10.29-3.09.15.51h.33c1.26.09,1.62.78,1.68,4.56.06,3.72-.18,4.38-1.38,4.83a2.068,2.068,0,0,1-.3.12l-.15.03h-.18V.03A63.576,63.576,0,0,1,43.86,0V-.6h-.15l-.36-.06c-1.71-.27-1.65-.42-1.74-4.65V-6.33l.03-3.39a6.445,6.445,0,0,1,2.1-.99c.15-.03.3-.06.48-.09,2.34-.33,3.24.66,3.39,5.13.03.39.03.81.03,1.2-.06,2.85-.3,3.42-1.62,3.78l-.24.06L45.6-.6V0c1.26-.06,2.49-.12,3.78-.09,1.08,0,2.19.03,3.27.09V-.63h-.12L52.2-.69c-1.38-.21-1.68-.66-1.56-2.16a30.1,30.1,0,0,0-.18-6.48c-.36-2.91-3.18-4.38-7.53-2.22-.18.12-.39.21-.57.33l-.36.18-.33.18.03-.45-.03-.45v-.48l-.03-.48h-.72c-.3.18-.6.36-.93.54A20.691,20.691,0,0,1,36.54-10.68Zm17.73-.48h1.8l.06,1.41v.27c-.15,4.35-.15,5.01-.12,5.55.12,3.6,1.62,4.92,5.4,3.9a13.053,13.053,0,0,0,2.22-.96l.69-.36-.48-.75a10.557,10.557,0,0,1-1.2.54c-3.15,1.05-3.99-.33-3.54-8.01l.09-1.65h4.86V-12.3H59.22l.03-.54.03-.54.03-.66.06-.66h-.72a8.989,8.989,0,0,1-.9.96,8.237,8.237,0,0,1-3.48,1.89ZM71.25-6.21l-.57.12-.63.12a16.8,16.8,0,0,0-2.79.81,10.212,10.212,0,0,0-1.56.72,2.6,2.6,0,0,0-.63.42l-.03.06-.03.15-.09.3-.03.21a7.46,7.46,0,0,0-.12,1.41c0,1.86,1.71,3.03,4.26,2.1a9.571,9.571,0,0,0,1.83-.9l.69-.42.09.18.09.15a1.715,1.715,0,0,0,.21.24c.84.93,1.44,1.08,3,.45l.51-.21.45-.18.39-.18.27-.12v-.63l-.24.09-.24.06-.18.06-.33.06c-.96.15-1.29-.3-1.41-2.55V-4.2l-.03-4.62c-.3-2.28-.96-3.21-2.85-3.78a5.674,5.674,0,0,0-.69-.15c-.36.06-.72.15-1.05.21a12.528,12.528,0,0,0-2.28.84c-2.13,1.02-2.49,1.53-2.19,2.88l.06.3.03.09,2.52-1.02v-.09l-.06-.21c-.18-.75.18-1.29,1.08-1.41a2.068,2.068,0,0,1,1.44.42c.75.51,1.11,1.38,1.11,3.6Zm-.03,1.26a25.4,25.4,0,0,0,.03,3.03,4.7,4.7,0,0,1-.9.6,3.611,3.611,0,0,1-1.32.45c-1.02.18-1.89-.78-1.56-2.13a2.852,2.852,0,0,1,2.85-2.01h.42l.24.03Zm6.75-5.88.15.48.15-.03.33-.06c.84-.12,1.26.27,1.23,1.41-.09,6.72.09,7.68,1.53,8.67,1.26.87,2.85.87,5.88-.69.27-.12.54-.27.81-.42l.36-.18.33-.21.15.9C89.07.3,89.37.48,90.54.06l3.3-1.14-.03-.54-.09.03-.45.09c-1.23.27-1.38,0-1.53-2.43-.03-.81-.03-1.83.06-4.5.03-.75.06-1.5.12-2.22l.06-1.08.12-1.17h-.81c-.57.24-1.2.45-1.77.63-.87.3-1.77.57-2.64.81l.12.51a.445.445,0,0,1,.21-.03c1.68-.24,1.77.3,1.53,6.51l-.09,1.71-.24.15-.39.21a2.823,2.823,0,0,1-.66.36c-2.55,1.26-4.05.39-4.38-2.19a31.674,31.674,0,0,1-.09-3.93c.03-1.11.06-2.19.21-3.66.03-.33.06-.69.09-1.02h-.72C80.97-12.09,79.47-11.43,77.97-10.83Zm17.49.21.12.57.12-.03.33-.06c1.2-.21,1.47.42,1.44,4.65,0,4.05-.24,4.62-1.5,4.86l-.33.03-.03.03v.6c1.23-.06,2.52-.09,3.72-.09,1.53,0,3.03,0,4.56.06l-.03-.72-.36.03-.6-.03h-.36l-.72-.06c-1.29-.12-1.41-.51-1.44-3.78-.03-.66,0-1.29.03-1.92l.15-2.85.12-.12.12-.12a3.5,3.5,0,0,1,1.08-.66c.96-.42,1.44-.27,1.65.24a.326.326,0,0,1,.03.15l.06.24c.09.24.3.33.96.27a2.366,2.366,0,0,0,1.05-.39,1.515,1.515,0,0,0,.33-2.4,2.1,2.1,0,0,0-.3-.24l-.33-.18-.24-.15-.24-.15-.12-.06a.541.541,0,0,0-.3-.03c-.15,0-.21,0-.24.03l-.27.18-.24.15-.78.45-1.86,1.08-.09.06-.36.21v-2.28H99.9c-1.05.66-2.13,1.29-3.21,1.86C96.27-10.98,95.88-10.8,95.46-10.62Z" transform="translate(-1.199 22.13)" fill="#222750"/>
</svg>
