<svg xmlns="http://www.w3.org/2000/svg" width="126.589" height="22.175" viewBox="0 0 126.589 22.175">
  <path id="f-Garamond" d="M19.71-4.86c0-1.83.18-2.07,1.29-2.25l.54-.09a.55.55,0,0,0-.06-.87c-1.29.06-2.31.09-3.66.09-2.07,0-3.51-.03-4.68-.09a.643.643,0,0,0-.03.87l1.08.18c2.01.33,2.04.51,2.04,2.64V-3.3a3.83,3.83,0,0,1-.27,1.89c-.36.45-1.23.69-2.67.69A7.643,7.643,0,0,1,7.5-3.27a10.631,10.631,0,0,1-2.16-6.9c0-5.1,2.55-8.91,7.83-8.91,2.97,0,5.1,1.44,5.76,4.35a.648.648,0,0,0,.96-.06c-.15-2.34-.36-3.87-.39-4.77a12.014,12.014,0,0,1-1.92-.27,21.544,21.544,0,0,0-3.99-.45c-4.17,0-7.44,1.29-9.57,3.54A10.077,10.077,0,0,0,1.26-9.69,9.861,9.861,0,0,0,3.9-2.82C6.15-.48,9.54.48,13.14.48a27.14,27.14,0,0,0,5.82-.81A8.862,8.862,0,0,1,20.4-.57a.36.36,0,0,0,.03-.45c-.57-.27-.72-1.05-.72-2.1Zm12.9-3.63c.12-2.64-1.35-3.75-3.72-3.75a8.23,8.23,0,0,0-4.62,1.89c-.99.93-1.17,1.56-1.17,1.92,0,.27.18.48.57.48a4.128,4.128,0,0,0,1.92-.54,1.283,1.283,0,0,0,.57-1.08,1.472,1.472,0,0,1,1.59-1.32c1.47,0,1.89,1.32,1.83,2.85l-.03.78c0,.3-.09.57-.69.78-1.11.42-2.25.84-3.3,1.2-2.07.72-2.49,1.71-2.49,2.79A2.842,2.842,0,0,0,26.13.42a4.843,4.843,0,0,0,2.55-.78c.45-.27.66-.42.81-.42s.27.15.48.36a2.866,2.866,0,0,0,2.16.84,4.14,4.14,0,0,0,3-1.32c.09-.27-.12-.6-.27-.6a2.76,2.76,0,0,1-1.02.33c-1.08,0-1.53-.9-1.44-2.64ZM29.4-2.67a1.334,1.334,0,0,1-1.44,1.44,1.682,1.682,0,0,1-1.68-1.74A1.974,1.974,0,0,1,27.9-4.98a4.891,4.891,0,0,1,1.32-.36c.15,0,.24.18.24.51Zm7.98-.9c0,2.22-.12,2.52-1.14,2.7l-.54.09c-.21.21-.18.75.06.87C36.9.03,37.89,0,38.88,0c1.11,0,2.13.03,3.93.09.24-.12.27-.66.06-.87L41.7-.9c-1.05-.12-1.17-.45-1.17-2.67V-7.68c0-1.47.18-2.16.87-2.16a2.721,2.721,0,0,1,1.44.57,1.509,1.509,0,0,0,.81.24,1.652,1.652,0,0,0,1.68-1.74,1.5,1.5,0,0,0-1.65-1.47c-1.02,0-2.01.9-2.94,1.56-.18,0-.3-.15-.3-.36,0-.27.03-.78.06-1.35a.425.425,0,0,0-.42-.27,21.342,21.342,0,0,1-3.78,1.62.8.8,0,0,0-.03.69l.36.21c.75.45.75.81.75,2.16Zm18.3-4.92c.12-2.64-1.35-3.75-3.72-3.75a8.23,8.23,0,0,0-4.62,1.89c-.99.93-1.17,1.56-1.17,1.92,0,.27.18.48.57.48a4.128,4.128,0,0,0,1.92-.54,1.283,1.283,0,0,0,.57-1.08,1.472,1.472,0,0,1,1.59-1.32c1.47,0,1.89,1.32,1.83,2.85l-.03.78c0,.3-.09.57-.69.78-1.11.42-2.25.84-3.3,1.2-2.07.72-2.49,1.71-2.49,2.79A2.842,2.842,0,0,0,49.2.42a4.843,4.843,0,0,0,2.55-.78c.45-.27.66-.42.81-.42s.27.15.48.36A2.866,2.866,0,0,0,55.2.42a4.14,4.14,0,0,0,3-1.32c.09-.27-.12-.6-.27-.6a2.76,2.76,0,0,1-1.02.33c-1.08,0-1.53-.9-1.44-2.64ZM52.47-2.67a1.334,1.334,0,0,1-1.44,1.44,1.682,1.682,0,0,1-1.68-1.74,1.974,1.974,0,0,1,1.62-2.01,4.891,4.891,0,0,1,1.32-.36c.15,0,.24.18.24.51Zm7.95-.9c0,2.22-.12,2.52-1.14,2.7l-.54.09c-.21.21-.18.75.06.87C59.94.03,60.93,0,61.92,0c1.11,0,2.13.03,3.18.09.24-.12.27-.66.06-.87l-.45-.06c-1.02-.15-1.14-.51-1.14-2.73V-7.59c0-1.17.03-1.44.39-1.92a2.694,2.694,0,0,1,2.13-.93c1.74,0,2.28,1.2,2.28,2.79v4.08c0,2.22-.12,2.58-1.14,2.73l-.39.06c-.21.21-.18.75.06.87.99-.06,2.01-.09,3-.09,1.11,0,2.1.03,3.15.09.24-.12.27-.66.06-.87l-.45-.06c-1.02-.15-1.14-.51-1.14-2.73V-7.98c0-.84.06-1.2.36-1.56a2.705,2.705,0,0,1,2.01-.9c1.89,0,2.43,1.2,2.43,2.79v4.08c0,2.22-.12,2.52-1.14,2.7l-.48.09c-.21.21-.18.75.06.87C75.84.03,76.86,0,77.85,0c1.11,0,2.13.03,3.42.09.12-.12.27-.66,0-.87l-.66-.09c-1.02-.15-1.14-.48-1.14-2.7V-8.22c0-2.34-1.14-4.02-3.66-4.02a6.963,6.963,0,0,0-3.84,1.41,1.738,1.738,0,0,1-.66.3c-.12,0-.3-.18-.48-.45a3.454,3.454,0,0,0-2.7-1.26c-2.04,0-2.82.72-4.29,1.5-.18-.03-.27-.09-.27-.3a13.5,13.5,0,0,1,.06-1.38.417.417,0,0,0-.39-.24,19.549,19.549,0,0,1-3.9,1.62.8.8,0,0,0-.03.69l.36.21c.75.45.75.81.75,2.16Zm28.8-8.67A6.375,6.375,0,0,0,82.65-5.7c0,3.93,2.88,6.12,6.33,6.12,3.57,0,6.57-2.22,6.57-6.48A6.022,6.022,0,0,0,89.22-12.24ZM86.19-6.15c0-3.33,1.2-4.89,2.73-4.89,2.22,0,3.09,2.97,3.09,5.49,0,2.31-.6,4.77-2.67,4.77C87.18-.78,86.19-3.42,86.19-6.15Zm16.08-1.44c0-1.11.03-1.38.42-1.92a2.453,2.453,0,0,1,1.98-.93c1.8,0,2.4,1.2,2.4,2.73v4.14c0,2.22-.12,2.58-1.14,2.73l-.45.06c-.21.21-.18.75.06.87Q107.115,0,108.6,0c1.11,0,2.13.03,3.39.09.24-.12.27-.66.06-.87l-.69-.09c-1.02-.12-1.14-.48-1.14-2.7V-8.22c0-2.34-1.14-4.02-3.57-4.02-1.86,0-2.7.72-4.11,1.5-.18-.03-.27-.09-.27-.3a13.5,13.5,0,0,1,.06-1.38.417.417,0,0,0-.39-.24,20.321,20.321,0,0,1-3.9,1.62.8.8,0,0,0-.03.69l.36.21c.75.45.75.81.75,2.16v4.41c0,2.22-.12,2.55-1.14,2.7l-.66.09c-.21.21-.18.75.06.87C98.64.03,99.66,0,100.62,0c1.11,0,2.13.03,3.18.09.24-.12.27-.66.06-.87l-.45-.06c-1.02-.15-1.14-.51-1.14-2.73Zm23.4-9.27c0-1.29.03-3.15.09-4.35a.4.4,0,0,0-.42-.24c-1.2.48-2.76,1.11-3.93,1.44-.21.09-.18.57,0,.69l.42.27c.63.42.69.6.69,2.61v3.93c0,.33-.06.45-.18.48a6.049,6.049,0,0,0-1.74-.21c-3.75,0-7.2,2.58-7.2,6.9A5.544,5.544,0,0,0,118.95.42,5.776,5.776,0,0,0,122.4-.93l.15.03a1.706,1.706,0,0,1,.03.84l-.06.45a.5.5,0,0,0,.36.33,18.617,18.617,0,0,1,4.74-1.14c.33-.18.27-.9.03-1.08a3.668,3.668,0,0,1-1.26.27c-.51,0-.72-.93-.72-3.66ZM122.52-2.88a1.182,1.182,0,0,1-.21.84,2.853,2.853,0,0,1-1.77.66c-2.13,0-3.75-2.04-3.75-5.13,0-2.52,1.29-4.53,3.33-4.53a2.421,2.421,0,0,1,2.01,1.02,2.262,2.262,0,0,1,.39,1.44Z" transform="translate(-1.26 21.455)" fill="#222750"/>
</svg>
