<svg id="logo-invision" xmlns="http://www.w3.org/2000/svg" width="90" height="90" viewBox="0 0 90 90">
  <rect id="矩形_3718" data-name="矩形 3718" width="90" height="90" fill="#313740" opacity="0"/>
  <g id="invision-seeklogo.com" transform="translate(6.75 6.75)">
    <path id="路径_19964" data-name="路径 19964" d="M69.565,0H6.935A6.935,6.935,0,0,0,0,6.935v62.63A6.935,6.935,0,0,0,6.935,76.5h62.63A6.935,6.935,0,0,0,76.5,69.565V6.935A6.935,6.935,0,0,0,69.565,0" fill="#dc395f"/>
    <path id="路径_19965" data-name="路径 19965" d="M74.591,58.937a4.6,4.6,0,1,0-4.673-4.606,4.62,4.62,0,0,0,4.673,4.606" transform="translate(-49.025 -34.868)" fill="#fff"/>
    <path id="路径_19966" data-name="路径 19966" d="M48.614,113.788a15.829,15.829,0,0,0-.412,3.459c0,4.055,2.2,6.748,6.873,6.748,3.876,0,7.018-2.3,9.28-6.018l-1.381,5.544h7.7l4.4-17.643c1.1-4.467,3.23-6.786,6.46-6.786a3.846,3.846,0,0,1,4.123,4.192,8.238,8.238,0,0,1-.344,2.474l-2.268,8.109a12.188,12.188,0,0,0-.48,3.436c0,3.85,2.267,6.666,7.009,6.666,4.055,0,7.285-2.61,9.072-8.864l-3.023-1.167c-1.512,4.19-2.818,4.948-3.849,4.948s-1.581-.687-1.581-2.061a9.108,9.108,0,0,1,.344-2.131l2.2-7.9a17.429,17.429,0,0,0,.756-5.012c0-5.91-3.574-8.995-7.9-8.995-4.054,0-8.178,3.657-10.239,7.506l1.511-6.909H65.1l-1.65,6.085h5.5l-3.385,13.555c-2.659,5.91-7.543,6.006-8.156,5.869-1.006-.227-1.65-.609-1.65-1.917a12.959,12.959,0,0,1,.481-3.145L61.4,93.385H48.34L46.69,99.47h5.429l-3.5,14.318" transform="translate(-32.738 -65.06)" fill="#fff"/>
  </g>
</svg>
