<svg xmlns="http://www.w3.org/2000/svg" width="160" height="160" viewBox="0 0 160 160">
  <g id="logo-xd" transform="translate(-242 -1730)">
    <rect id="矩形_3560" data-name="矩形 3560" width="160" height="160" transform="translate(242 1730)" fill="#313740" opacity="0"/>
    <g id="adobe-xd-seeklogo.com" transform="translate(261.241 1750.76)">
      <path id="路径_6799" data-name="路径 6799" d="M21.519,0H100a21.5,21.5,0,0,1,21.519,21.519V96.962A21.5,21.5,0,0,1,100,118.481H21.519A21.5,21.5,0,0,1,0,96.962V21.519A21.5,21.5,0,0,1,21.519,0Z" fill="#470137"/>
      <g id="组_4828" data-name="组 4828" transform="translate(17.702 25.967)">
        <path id="路径_6800" data-name="路径 6800" d="M81.158,60.759,65.968,85.823l16.2,26.582a.871.871,0,0,1,.1.608c-.051.2-.253.051-.557.1H70.12c-.81,0-1.367-.051-1.722-.557-1.063-2.127-2.177-4.2-3.241-6.329-1.063-2.076-2.228-4.2-3.443-6.38s-2.43-4.354-3.646-6.582h-.1C56.9,95.443,55.74,97.62,54.576,99.8s-2.329,4.354-3.443,6.481c-1.165,2.127-2.329,4.3-3.494,6.38-.2.506-.608.557-1.165.557H35.335c-.2,0-.354.1-.354-.152a.7.7,0,0,1,.1-.557L50.829,86.684,35.487,60.709c-.152-.2-.2-.405-.1-.506a.587.587,0,0,1,.506-.2H47.386a2.988,2.988,0,0,1,.709.1,1.436,1.436,0,0,1,.506.456c.962,2.177,2.076,4.354,3.241,6.532,1.215,2.177,2.38,4.3,3.646,6.43,1.215,2.127,2.329,4.253,3.392,6.43h.1c1.063-2.228,2.177-4.405,3.291-6.532s2.278-4.253,3.443-6.38,2.278-4.3,3.392-6.38a.861.861,0,0,1,.3-.506.965.965,0,0,1,.658-.1H80.753a.466.466,0,0,1,.557.354c.051.051-.051.253-.152.354Z" transform="translate(-34.961 -55.587)" fill="#ff61f6"/>
        <path id="路径_6801" data-name="路径 6801" d="M151.615,109.875a25.172,25.172,0,0,1-10.886-2.278,17.652,17.652,0,0,1-7.646-6.886A21.909,21.909,0,0,1,130.3,89.166a20.8,20.8,0,0,1,2.785-10.684,21.027,21.027,0,0,1,8.051-7.848,25.9,25.9,0,0,1,12.81-2.937,9.041,9.041,0,0,1,1.063.051c.456.051.962.051,1.57.1v-16c0-.354.152-.557.506-.557h10.278a.454.454,0,0,1,.506.354v48.3c0,.911.051,1.924.1,3.038.1,1.063.152,2.076.2,2.937a.822.822,0,0,1-.506.81,38.669,38.669,0,0,1-8.253,2.43A44.662,44.662,0,0,1,151.615,109.875Zm4.962-10.127V77.47a12.952,12.952,0,0,0-1.367-.253c-.557-.051-1.114-.1-1.671-.1a12.482,12.482,0,0,0-5.722,1.316,11.351,11.351,0,0,0-4.3,3.747,11.224,11.224,0,0,0-1.671,6.43,14.11,14.11,0,0,0,.861,5.215,9.9,9.9,0,0,0,2.278,3.595,8.747,8.747,0,0,0,3.443,2.025,13.254,13.254,0,0,0,4.2.658c.759,0,1.468-.051,2.127-.1a4.428,4.428,0,0,0,1.823-.253Z" transform="translate(-82.025 -51.284)" fill="#ff61f6"/>
      </g>
    </g>
  </g>
</svg>
