<svg xmlns="http://www.w3.org/2000/svg" width="160" height="160" viewBox="0 0 160 160">
  <g id="logo-sk" transform="translate(147 -1685)">
    <rect id="矩形_3559" data-name="矩形 3559" width="160" height="160" transform="translate(-147 1685)" fill="#313740" opacity="0"/>
    <g id="sketch-seeklogo.com" transform="translate(-131.81 1706.266)">
      <path id="路径_6790" data-name="路径 6790" d="M64.81,0,28.281,3.862,0,41.827,64.81,117.3l64.81-75.471L101.34,3.862Z" transform="translate(0 0)" fill="#fdb300"/>
      <path id="路径_6791" data-name="路径 6791" d="M0,82.608l64.81,75.47L26.251,82.608Z" transform="translate(0 -40.781)" fill="#eb6c00"/>
      <path id="路径_6792" data-name="路径 6792" d="M166.559,82.608,128,158.078l64.81-75.47Z" transform="translate(-63.19 -40.781)" fill="#eb6c00"/>
      <path id="路径_6793" data-name="路径 6793" d="M51.846,82.608l38.559,75.47,38.559-75.47Z" transform="translate(-25.595 -40.781)" fill="#fdad00"/>
      <path id="路径_6794" data-name="路径 6794" d="M53.876,3.862l-2.03,37.964L90.4,0Z" transform="translate(-25.595 0)" fill="#fdd231"/>
      <path id="路径_6795" data-name="路径 6795" d="M166.559,41.827,164.529,3.862,128,0Z" transform="translate(-63.19 0)" fill="#fdd231"/>
      <path id="路径_6796" data-name="路径 6796" d="M202.175,45.592h26.251L200.145,7.628Z" transform="translate(-98.806 -3.766)" fill="#fdad00"/>
      <path id="路径_6797" data-name="路径 6797" d="M0,45.592H26.251l2.03-37.965Z" transform="translate(0 -3.766)" fill="#fdad00"/>
      <path id="路径_6798" data-name="路径 6798" d="M90.4,0,51.846,41.827h77.118Z" transform="translate(-25.595 0)" fill="#feeeb7"/>
    </g>
  </g>
</svg>
