<svg xmlns="http://www.w3.org/2000/svg" width="160" height="160" viewBox="0 0 160 160">
  <g id="logo-invision" transform="translate(-2169 -19)">
    <g id="invision-seeklogo.com" transform="translate(2183 32)">
      <path id="路径_19964" data-name="路径 19964" d="M120.943,0H12.057A12.057,12.057,0,0,0,0,12.057V120.943A12.057,12.057,0,0,0,12.057,133H120.943A12.057,12.057,0,0,0,133,120.943V12.057A12.057,12.057,0,0,0,120.943,0" fill="#dc395f"/>
      <path id="路径_19965" data-name="路径 19965" d="M78.042,65.738a8.006,8.006,0,1,0-8.124-8.007,8.032,8.032,0,0,0,8.124,8.007" transform="translate(-33.593 -23.893)" fill="#fff"/>
      <path id="路径_19966" data-name="路径 19966" d="M50.035,129.3a27.519,27.519,0,0,0-.717,6.014c0,7.051,3.823,11.731,11.948,11.731,6.739,0,12.2-4,16.134-10.463L75,146.22H88.38l7.648-30.673c1.911-7.766,5.615-11.8,11.231-11.8,4.421,0,7.169,2.749,7.169,7.288a14.322,14.322,0,0,1-.6,4.3l-3.944,14.1a21.19,21.19,0,0,0-.835,5.974c0,6.693,3.942,11.589,12.186,11.589,7.049,0,12.665-4.538,15.772-15.411l-5.257-2.03c-2.629,7.285-4.9,8.6-6.691,8.6s-2.749-1.194-2.749-3.582a15.836,15.836,0,0,1,.6-3.705l3.824-13.736a30.3,30.3,0,0,0,1.314-8.713c0-10.275-6.214-15.638-13.741-15.638-7.049,0-14.218,6.358-17.8,13.05l2.628-12.011H78.7l-2.868,10.58h9.559l-5.886,23.566c-4.623,10.275-13.114,10.442-14.179,10.2-1.75-.394-2.869-1.059-2.869-3.333a22.529,22.529,0,0,1,.836-5.468l8.962-35.548h-22.7l-2.868,10.58h9.438L50.035,129.3" transform="translate(-22.433 -44.581)" fill="#fff"/>
    </g>
    <rect id="矩形_3718" data-name="矩形 3718" width="160" height="160" transform="translate(2169 19)" fill="#313740" opacity="0"/>
  </g>
</svg>
