<svg xmlns="http://www.w3.org/2000/svg" width="160" height="160" viewBox="0 0 160 160">
  <g id="logo-protopie" transform="translate(-2710 -85)">
    <rect id="矩形_3717" data-name="矩形 3717" width="160" height="160" transform="translate(2710 85)" fill="#313740" opacity="0"/>
    <g id="组_9089" data-name="组 9089" transform="translate(2721.894 94.178)">
      <path id="路径_19968" data-name="路径 19968" d="M68.114,76.04l.362,22.183a12.731,12.731,0,0,1-8.869-3.591l-1.732-2.062L15.791,42.528,1.477,25.491a.2.2,0,0,1-.086-.09l-.226-.262-.045-.059a4.717,4.717,0,0,1-.665-1.212,4.857,4.857,0,0,1-.348-1.673V21.85a1.633,1.633,0,0,1,.032-.33,4.975,4.975,0,0,1,1.339-2.976,5.065,5.065,0,0,1,3.718-1.628H19.328L68.109,76.049l.009-.009Z" transform="translate(0.004 42.603)" fill="#fcd1ca" fill-rule="evenodd"/>
      <path id="路径_19969" data-name="路径 19969" d="M68.108,71.314V98.807L1.381,19.181A5.1,5.1,0,0,1,.106,15.966v-.339a4.975,4.975,0,0,1,1.37-3.292,5,5,0,0,1,3.718-1.628H17.848l50.26,60.6Z" transform="translate(0 20.727)" fill="#ff9d8d" fill-rule="evenodd"/>
      <path id="路径_19970" data-name="路径 19970" d="M5.163,4.827a4.977,4.977,0,0,0-3.7,1.619A4.951,4.951,0,0,0,.107,9.72v.335a4.6,4.6,0,0,0,.344,1.673.479.479,0,0,0,.045.136A4.753,4.753,0,0,0,1.428,13.3l.072.081L68.1,92.041v48.786a12.627,12.627,0,0,0,8.819-3.564c.014,0,.014,0,.014-.009l57.89-68.726a2.484,2.484,0,0,0,.2-.235,4.711,4.711,0,0,0,.733-1.28,4.871,4.871,0,0,0,.344-1.832V9.878a5.073,5.073,0,0,0-5.07-5.056H5.168Z" transform="translate(0.004 0)" fill="#ff6661" fill-rule="evenodd"/>
    </g>
  </g>
</svg>
