<svg id="logo-protopie" xmlns="http://www.w3.org/2000/svg" width="90" height="90" viewBox="0 0 90 90">
  <rect id="矩形_3717" data-name="矩形 3717" width="90" height="90" fill="#313740" opacity="0"/>
  <g id="组_9089" data-name="组 9089" transform="translate(6.75 7.875)">
    <path id="路径_19968" data-name="路径 19968" d="M38.361,50.173l.2,12.478a7.161,7.161,0,0,1-4.989-2.02l-.974-1.16L8.93,31.323.878,21.739a.112.112,0,0,1-.048-.051L.7,21.541l-.025-.033A2.653,2.653,0,0,1,.3,20.826a2.732,2.732,0,0,1-.2-.941v-.193a.919.919,0,0,1,.018-.186,2.8,2.8,0,0,1,.753-1.674,2.849,2.849,0,0,1,2.091-.916h7.95L38.358,50.179l.005-.005Z" transform="translate(-0.104 13.851)" fill="#fcd1ca" fill-rule="evenodd"/>
    <path id="路径_19969" data-name="路径 19969" d="M38.357,44.8V60.263L.823,15.473a2.866,2.866,0,0,1-.717-1.809v-.191a2.8,2.8,0,0,1,.771-1.852,2.813,2.813,0,0,1,2.091-.916h7.118L38.357,44.8Z" transform="translate(-0.106 4.263)" fill="#ff9d8d" fill-rule="evenodd"/>
    <path id="路径_19970" data-name="路径 19970" d="M2.951,4.825A2.8,2.8,0,0,0,.87,5.735,2.785,2.785,0,0,0,.107,7.577v.188A2.589,2.589,0,0,0,.3,8.707a.27.27,0,0,0,.025.076,2.674,2.674,0,0,0,.524.809l.041.046L38.356,53.883V81.325a7.1,7.1,0,0,0,4.961-2c.008,0,.008,0,.008-.005L75.887,40.657A1.4,1.4,0,0,0,76,40.524a2.65,2.65,0,0,0,.412-.72,2.74,2.74,0,0,0,.193-1.03V7.666a2.854,2.854,0,0,0-2.852-2.844H2.954Z" transform="translate(-0.104 -4.822)" fill="#ff6661" fill-rule="evenodd"/>
  </g>
</svg>
