<svg id="logo-figma" xmlns="http://www.w3.org/2000/svg" width="90" height="90" viewBox="0 0 90 90">
  <rect id="矩形_3561" data-name="矩形 3561" width="90" height="90" fill="#313740" opacity="0"/>
  <g id="figma-seeklogo.com" transform="translate(16.875 2.812)">
    <path id="path0_fill" d="M14.062,228.125a14.068,14.068,0,0,0,14.062-14.062V200H14.062a14.063,14.063,0,0,0,0,28.125Z" transform="translate(0 -143.75)" fill="#0acf83"/>
    <path id="path1_fill" d="M0,114.062A14.068,14.068,0,0,1,14.062,100H28.125v28.125H14.062A14.068,14.068,0,0,1,0,114.062Z" transform="translate(0 -71.875)" fill="#a259ff"/>
    <path id="path1_fill_1_" d="M0,14.062A14.068,14.068,0,0,1,14.062,0H28.125V28.125H14.062A14.068,14.068,0,0,1,0,14.062Z" transform="translate(0 0)" fill="#f24e1e"/>
    <path id="path2_fill" d="M100,0h14.063a14.062,14.062,0,0,1,0,28.125H100Z" transform="translate(-71.875 0)" fill="#ff7262"/>
    <path id="path3_fill" d="M128.125,114.062A14.062,14.062,0,1,1,114.062,100,14.068,14.068,0,0,1,128.125,114.062Z" transform="translate(-71.875 -71.875)" fill="#1abcfe"/>
  </g>
</svg>
