<svg xmlns="http://www.w3.org/2000/svg" width="160" height="160" viewBox="0 0 160 160">
  <g id="logo-invision" transform="translate(-2169 -19)">
    <rect id="矩形_3718" data-name="矩形 3718" width="160" height="160" transform="translate(2169 19)" fill="#313740" opacity="0"/>
    <g id="invision-seeklogo.com" transform="translate(2181 31)">
      <path id="路径_19964" data-name="路径 19964" d="M123.671,0H12.329A12.329,12.329,0,0,0,0,12.329V123.671A12.329,12.329,0,0,0,12.329,136H123.671A12.329,12.329,0,0,0,136,123.671V12.329A12.329,12.329,0,0,0,123.671,0" fill="#dc395f"/>
      <path id="路径_19965" data-name="路径 19965" d="M78.225,66.1a8.187,8.187,0,1,0-8.307-8.188A8.213,8.213,0,0,0,78.225,66.1" transform="translate(-32.774 -23.31)" fill="#fff"/>
      <path id="路径_19966" data-name="路径 19966" d="M50.111,130.122a28.14,28.14,0,0,0-.733,6.15c0,7.21,3.909,12,12.218,12,6.891,0,12.476-4.092,16.5-10.7l-2.456,9.856H89.32l7.82-31.365C99.095,108.119,102.882,104,108.625,104c4.52,0,7.331,2.811,7.331,7.452a14.646,14.646,0,0,1-.611,4.4l-4.033,14.417a21.668,21.668,0,0,0-.854,6.109c0,6.844,4.031,11.851,12.461,11.851,7.208,0,12.95-4.64,16.127-15.759l-5.375-2.076c-2.689,7.449-5.01,8.8-6.842,8.8s-2.811-1.221-2.811-3.663a16.192,16.192,0,0,1,.611-3.789l3.91-14.046a30.985,30.985,0,0,0,1.344-8.91c0-10.507-6.354-15.99-14.051-15.99-7.208,0-14.539,6.5-18.2,13.344l2.687-12.282H79.425l-2.933,10.818h9.774l-6.019,24.1c-4.727,10.507-13.409,10.678-14.5,10.433-1.789-.4-2.933-1.083-2.933-3.408a23.038,23.038,0,0,1,.855-5.591l9.164-36.35H49.623L46.69,104.668h9.651l-6.231,25.455" transform="translate(-21.886 -43.494)" fill="#fff"/>
    </g>
  </g>
</svg>
