<svg xmlns="http://www.w3.org/2000/svg" width="160" height="160" viewBox="0 0 160 160">
  <g id="logo-protopie" transform="translate(-2710 -85)">
    <g id="组_9089" data-name="组 9089" transform="translate(2722.894 93.178)">
      <path id="路径_19968" data-name="路径 19968" d="M66.614,74.736l.354,21.694a12.45,12.45,0,0,1-8.673-3.512L56.6,90.9,15.445,41.963,1.447,25.3a.2.2,0,0,1-.084-.088l-.221-.257L1.1,24.9a4.613,4.613,0,0,1-.65-1.185,4.75,4.75,0,0,1-.341-1.636v-.336a1.6,1.6,0,0,1,.031-.323,4.865,4.865,0,0,1,1.309-2.91,4.954,4.954,0,0,1,3.636-1.592H18.9L66.609,74.745l.009-.009Z" transform="translate(0.003 41.396)" fill="#fcd1ca" fill-rule="evenodd"/>
      <path id="路径_19969" data-name="路径 19969" d="M66.608,69.977V96.863L1.353,18.994A4.983,4.983,0,0,1,.106,15.85v-.332a4.866,4.866,0,0,1,1.34-3.22,4.89,4.89,0,0,1,3.636-1.592H17.457L66.608,69.972Z" transform="translate(0 20.14)" fill="#ff9d8d" fill-rule="evenodd"/>
      <path id="路径_19970" data-name="路径 19970" d="M5.052,4.826A4.867,4.867,0,0,0,1.434,6.41a4.842,4.842,0,0,0-1.327,3.2v.327a4.5,4.5,0,0,0,.336,1.636.469.469,0,0,0,.044.133A4.648,4.648,0,0,0,1.4,13.115l.071.08L66.6,90.117v47.709a12.349,12.349,0,0,0,8.625-3.485c.013,0,.013,0,.013-.009l56.613-67.21a2.428,2.428,0,0,0,.195-.23,4.607,4.607,0,0,0,.717-1.252,4.764,4.764,0,0,0,.336-1.791V9.767a4.961,4.961,0,0,0-4.958-4.945H5.056Z" transform="translate(0.003 0)" fill="#ff6661" fill-rule="evenodd"/>
    </g>
    <rect id="矩形_3717" data-name="矩形 3717" width="160" height="160" transform="translate(2710 85)" fill="#313740" opacity="0"/>
  </g>
</svg>
