<svg id="logo-xd" xmlns="http://www.w3.org/2000/svg" width="90" height="90" viewBox="0 0 90 90">
  <rect id="矩形_3560" data-name="矩形 3560" width="90" height="90" fill="#313740" opacity="0"/>
  <g id="adobe-xd-seeklogo.com" transform="translate(6.188 7.313)">
    <path id="路径_6799" data-name="路径 6799" d="M13.746,0H63.879A13.735,13.735,0,0,1,77.625,13.746V61.938A13.735,13.735,0,0,1,63.879,75.684H13.746A13.735,13.735,0,0,1,0,61.938V13.746A13.735,13.735,0,0,1,13.746,0Z" fill="#470137"/>
    <g id="组_4828" data-name="组 4828" transform="translate(11.144 16.347)">
      <path id="路径_6800" data-name="路径 6800" d="M64.043,60.478,54.481,76.256l10.2,16.734a.549.549,0,0,1,.064.382c-.032.127-.159.032-.351.064h-7.3c-.51,0-.861-.032-1.084-.351-.669-1.339-1.371-2.646-2.04-3.984-.669-1.307-1.4-2.646-2.168-4.016s-1.53-2.741-2.295-4.144h-.064c-.669,1.371-1.4,2.741-2.136,4.112s-1.466,2.741-2.168,4.08c-.733,1.339-1.466,2.709-2.2,4.016-.128.319-.383.351-.733.351H35.2c-.127,0-.223.064-.223-.1a.443.443,0,0,1,.064-.351L44.95,76.8,35.292,60.446c-.1-.128-.127-.255-.064-.319A.37.37,0,0,1,35.547,60h7.236a1.881,1.881,0,0,1,.446.064.9.9,0,0,1,.319.287c.606,1.371,1.307,2.741,2.04,4.112.765,1.371,1.5,2.709,2.295,4.048.765,1.339,1.466,2.677,2.136,4.048h.064c.669-1.4,1.371-2.773,2.072-4.112s1.434-2.677,2.167-4.016,1.434-2.709,2.136-4.016a.542.542,0,0,1,.191-.319.608.608,0,0,1,.414-.064h6.726a.294.294,0,0,1,.351.223c.032.032-.032.159-.1.223Z" transform="translate(-34.961 -57.222)" fill="#ff61f6"/>
      <path id="路径_6801" data-name="路径 6801" d="M143.717,88.169a15.847,15.847,0,0,1-6.853-1.434,11.113,11.113,0,0,1-4.813-4.335,13.792,13.792,0,0,1-1.753-7.268,13.091,13.091,0,0,1,1.753-6.726,13.237,13.237,0,0,1,5.068-4.941,16.3,16.3,0,0,1,8.064-1.849,5.692,5.692,0,0,1,.669.032c.287.032.606.032.988.064V51.64c0-.223.1-.351.319-.351h6.471a.286.286,0,0,1,.319.223V81.921c0,.574.032,1.211.064,1.912.064.669.1,1.307.127,1.849a.518.518,0,0,1-.319.51,24.344,24.344,0,0,1-5.2,1.53A28.117,28.117,0,0,1,143.717,88.169Zm3.124-6.375V67.769a8.155,8.155,0,0,0-.861-.159c-.351-.032-.7-.064-1.052-.064a7.858,7.858,0,0,0-3.6.829,7.146,7.146,0,0,0-2.709,2.359,7.066,7.066,0,0,0-1.052,4.048,8.883,8.883,0,0,0,.542,3.283,6.23,6.23,0,0,0,1.434,2.263,5.507,5.507,0,0,0,2.167,1.275,8.344,8.344,0,0,0,2.646.414c.478,0,.924-.032,1.339-.064a2.788,2.788,0,0,0,1.148-.159Z" transform="translate(-99.908 -51.284)" fill="#ff61f6"/>
    </g>
  </g>
</svg>
