<svg xmlns="http://www.w3.org/2000/svg" width="872" height="240" viewBox="0 0 872 240">
  <g id="genryu" transform="translate(0 -721)">
    <g id="组_4854" data-name="组 4854" transform="translate(0 721)">
      <rect id="矩形_3596" data-name="矩形 3596" width="872" height="240" fill="#313740"/>
      <rect id="矩形_3598" data-name="矩形 3598" width="8" height="124" transform="translate(36 36)" fill="#ff6baa"/>
    </g>
    <text id="源流明體" transform="translate(68 798)" fill="#fff" font-size="40" font-family="GenRyuMinTW-R, GenRyuMin TW"><tspan x="0" y="0">源流明體</tspan></text>
    <text id="細體" transform="translate(648 801)" fill="#fff" font-size="20" font-family="GenRyuMinTW-L, GenRyuMin TW"><tspan x="-20" y="0">細體</tspan></text>
    <text id="極細" transform="translate(592 801)" fill="#fff" font-size="20" font-family="GenRyuMinTW-EL, GenRyuMin TW"><tspan x="-20" y="0">極細</tspan></text>
    <text id="常規" transform="translate(704 801)" fill="#fff" font-size="20" font-family="GenRyuMinTW-R, GenRyuMin TW"><tspan x="-20" y="0">常規</tspan></text>
    <text id="適中" transform="translate(760 801)" fill="#fff" font-size="20" font-family="GenRyuMinTW-M, GenRyuMin TW"><tspan x="-20" y="0">適中</tspan></text>
    <text id="粗體" transform="translate(816 801)" fill="#fff" font-size="20" font-family="GenRyuMinTW-SB, GenRyuMin TW"><tspan x="-20" y="0">粗體</tspan></text>
    <g id="组_4853" data-name="组 4853" transform="translate(0 905)">
      <rect id="矩形_3599" data-name="矩形 3599" width="872" height="56" fill="#ff6baa"/>
      <text id="_5_種字重" data-name="5 種字重" transform="translate(836 36)" fill="#fff" font-size="24" font-family="GenRyuMinTW-R, GenRyuMin TW"><tspan x="-91.128" y="0">5 種字重</tspan></text>
    </g>
    <text id="genryu-2" data-name="genryu" transform="translate(68 870)" fill="#fff" font-size="40" font-family="GenRyuMinTW-R, GenRyuMin TW"><tspan x="0" y="0">Genryu</tspan></text>
    <text id="L" transform="translate(655 879)" fill="#fff" font-size="20" font-family="GenRyuMinTW-L, GenRyuMin TW"><tspan x="-12.6" y="0">L</tspan></text>
    <text id="EL" transform="translate(605 879)" fill="#fff" font-size="20" font-family="GenRyuMinTW-EL, GenRyuMin TW"><tspan x="-25.3" y="0">EL</tspan></text>
    <text id="R" transform="translate(711 879)" fill="#fff" font-size="20" font-family="GenRyuMinTW-R, GenRyuMin TW"><tspan x="-14.14" y="0">R</tspan></text>
    <text id="M" transform="translate(760 879)" fill="#fff" font-size="20" font-family="GenRyuMinTW-M, GenRyuMin TW"><tspan x="-9.87" y="0">M</tspan></text>
    <text id="SB" transform="translate(816 879)" fill="#fff" font-size="20" font-family="GenRyuMinTW-SB, GenRyuMin TW"><tspan x="-12.66" y="0">SB</tspan></text>
  </g>
</svg>
