<svg xmlns="http://www.w3.org/2000/svg" width="872" height="240" viewBox="0 0 872 240">
  <g id="genyo" transform="translate(0 -721)">
    <g id="组_4854" data-name="组 4854" transform="translate(0 721)">
      <rect id="矩形_3596" data-name="矩形 3596" width="872" height="240" fill="#313740"/>
      <rect id="矩形_3598" data-name="矩形 3598" width="8" height="124" transform="translate(36 36)" fill="#ff6baa"/>
    </g>
    <path id="路径_6822" data-name="路径 6822" d="M24.52,3.12a2.587,2.587,0,0,0-.8-1.84A6.948,6.948,0,0,0,20.56.36V-.28Q22.8-.16,25,0q.88,0,.88-.72V-12.2H21.04v1.32q0,.24-.64.52a3.948,3.948,0,0,1-1.44.28H18.6V-25.92l2.64,1.2h3.52q.44-2.12.76-4.76H15.96v8.56a57.614,57.614,0,0,1-1.04,12A24,24,0,0,1,9.04,2.68l-.56-.4a30.407,30.407,0,0,0,4.16-11.2,71.11,71.11,0,0,0,.84-11.96V-32.04l2.96,1.4H33.2L35.04-33l3.44,2.88q-.16.64-1.04.64H25.84l3.44.84q-.28.8-1.4.76a34.122,34.122,0,0,1-1.72,3.16h6.88l1.44-1.52,3.16,2.36a2.915,2.915,0,0,1-1.68.8v11.72q-.04.2-.8.52a3.5,3.5,0,0,1-1.32.32h-.4V-12.2h-5V-.68a4.1,4.1,0,0,1-.64,2.56A4.956,4.956,0,0,1,24.52,3.12ZM5.56,2.76Q4.52,2.76,4.4.72a26.444,26.444,0,0,0,.24-5.24q-.16-2.16-.82-2.6a4.247,4.247,0,0,0-1.94-.56v-.84H3.64a.879.879,0,0,0,.52-.12,1.78,1.78,0,0,0,.48-.72q.64-1.4,7.4-16.56l.76.2q-.84,2.36-3.12,8.76-2.08,5.8-2.4,6.68a12.947,12.947,0,0,0-.56,3.36,10.913,10.913,0,0,0,.4,2.32A17.567,17.567,0,0,1,7.68.04Q7.48,2.76,5.56,2.76ZM14.44.68,13.96.2a23.541,23.541,0,0,0,3.72-4.52,26.4,26.4,0,0,0,2.6-4.72l3.56,1.68q-.36.64-1.48.48a27.531,27.531,0,0,1-3.32,3.96A23.816,23.816,0,0,1,14.44.68ZM37.88-.2q-.76.6-1.84-.16a13.086,13.086,0,0,0-2.08-4.16A23.209,23.209,0,0,0,30.84-8.2l.48-.28a16,16,0,0,1,5.24,3.2A6.05,6.05,0,0,1,38.4-2.2,1.984,1.984,0,0,1,37.88-.2ZM21.04-13.4h12.4v-4.52H21.04ZM7.2-19.12a1.531,1.531,0,0,1-1.76-.08,6.713,6.713,0,0,0-1.56-2.6,14.312,14.312,0,0,0-2.44-2.16l.4-.36a10.146,10.146,0,0,1,4.4,1.52,3.415,3.415,0,0,1,1.52,2.12A1.49,1.49,0,0,1,7.2-19.12Zm13.84.08h12.4v-4.52H21.04ZM10.68-27.6a1.531,1.531,0,0,1-1.76-.08,9.175,9.175,0,0,0-1.8-2.8,14.078,14.078,0,0,0-2.56-2.36l.4-.36a11.681,11.681,0,0,1,4.6,1.76A3.833,3.833,0,0,1,11.2-29.2,1.475,1.475,0,0,1,10.68-27.6ZM63.6,3.12a2.868,2.868,0,0,0-.88-1.8A6.185,6.185,0,0,0,59.64.36V-.28q2.28.12,4.52.28a.853.853,0,0,0,.64-.18.936.936,0,0,0,.16-.62V-11.72H58.04l-.24-1.16h6.88l1.2-1.52,3.32,2.48a3.343,3.343,0,0,1-1.72.8v.04A17.06,17.06,0,0,0,69.76-7.2a65.94,65.94,0,0,0,5.12-5.96l3.28,2.2q-.36.6-1.48.24Q75.16-9.68,70.6-6.8l-.36.24A18.741,18.741,0,0,0,79-.72l-.08.44a2.883,2.883,0,0,0-2.2,2.36A19.183,19.183,0,0,1,67.48-8.76V-.44a3.519,3.519,0,0,1-.64,2.36A4.915,4.915,0,0,1,63.6,3.12Zm-16-.08V-15.32a31.548,31.548,0,0,1-5.72,9.24l-.56-.56Q45.36-12.88,47.16-23H41.92l-.28-1.16H47.6v-9.32l4,.44q-.2.96-1.48,1.16v7.72h1.32l1.72-2.28,3.2,2.8q-.16.64-1.04.64h-5.2v5.08a12.97,12.97,0,0,1,4,2.76,4.563,4.563,0,0,1,1.24,2.52,1.411,1.411,0,0,1-.64,1.46,1.3,1.3,0,0,1-1.56-.26,16.713,16.713,0,0,0-3.04-5.64V2.12q0,.28-.64.6a2.918,2.918,0,0,1-1.32.32Zm4.96-.92-.36-.6a16.832,16.832,0,0,0,4.64-4.08,17.34,17.34,0,0,0,2.88-5.12H54.36L54-8.8h5.68l1.64-1.56,2.8,2.4q-.28.44-1.56.48A17.4,17.4,0,0,1,52.56,2.12ZM69.84-13.76a1.1,1.1,0,0,1-1.36.44,10.561,10.561,0,0,0-2.8-1.84,19.285,19.285,0,0,0-4.56-1.6l.12-.64a17.483,17.483,0,0,1,5.72.52,4.981,4.981,0,0,1,2.6,1.56A1.336,1.336,0,0,1,69.84-13.76ZM54.88-18.24l-.32-1.16H64.84v-3.24H57.12L56.8-23.8h8.04v-3.08H55.72l-.32-1.16h7.08a2.588,2.588,0,0,1-.56-.28,6.91,6.91,0,0,0-1.12-2.6,12.9,12.9,0,0,0-1.92-2.24l.48-.32a8.383,8.383,0,0,1,3.84,1.96,2.726,2.726,0,0,1,1,2.16,1.29,1.29,0,0,1-.88,1.32h4.44q1.6-3.6,2.24-5.48l3.96,1q-.2.88-1.48.8a34.657,34.657,0,0,1-3.56,3.68H72.8l1.8-2.2,3.28,2.72q-.16.64-1.04.64H67.36v3.08h4.16l1.8-2.2,3.28,2.72q-.16.64-1.04.64h-8.2v3.24h5.8L75-21.68l1.2.96q1.36,1.12,2.16,1.88-.16.6-1,.6ZM92.6,3.16l-.56-.48a19.835,19.835,0,0,0,7-9.36,34.6,34.6,0,0,0,1.6-11.52V-32.28l3,1.32h9.48l1.32-1.68,3.36,2.56a2.863,2.863,0,0,1-1.76.8V-.84a3.907,3.907,0,0,1-.72,2.64q-.96,1-3.76,1.32a2.59,2.59,0,0,0-1.08-1.92A10.831,10.831,0,0,0,106.44.12V-.52q3,.16,5.96.36a1.421,1.421,0,0,0,.88-.2.959.959,0,0,0,.24-.76V-11.28H102.68A19.391,19.391,0,0,1,92.6,3.16ZM83.2-3.72V-31.56l3,1.24h6.64l1.48-1.6,3.16,2.48a2.913,2.913,0,0,1-1.72.84V-6.28q-.04.24-.76.6a2.984,2.984,0,0,1-1.36.4h-.4V-8.52H85.72v3.84q0,.24-.56.56a3.019,3.019,0,0,1-1.56.4Zm2.52-5.96h7.52V-19H85.72Zm17.12-2.72h10.68v-8.24H103.16v2.4A47.527,47.527,0,0,1,102.84-12.4ZM85.72-20.2h7.52v-8.92H85.72Zm17.44-1.6h10.36v-8H103.16Zm22.04,25V-17.88l2.64,1.24h5.6l1.2-1.52,3.08,2.32a2.643,2.643,0,0,1-1.48.72V-.32A3.7,3.7,0,0,1,135.68,2a4.221,4.221,0,0,1-2.84,1.12,2.813,2.813,0,0,0-.6-1.72,4.107,4.107,0,0,0-2.28-.84V-.12q1.56.08,3.08.2.72,0,.72-.68V-5.08h-6.12v7.4q0,.24-.6.56a3.341,3.341,0,0,1-1.44.32Zm12.4-1.28L137.28.8h11.16a61.171,61.171,0,0,0,1.76-5.96l3.92,1.4a1.266,1.266,0,0,1-1.52.68A32.073,32.073,0,0,1,149.48.8h4.8l1.64-2.12,1.12.88q1.28,1.04,2,1.76-.16.6-1,.6ZM145.44.6a1.366,1.366,0,0,1-1.48-.44,9.72,9.72,0,0,0-.52-2.6A12.838,12.838,0,0,0,142.4-4.8a3.357,3.357,0,0,1-1.76.48h-.36V-13.8l2.6,1.16h9.32l1.44-1.6,3.28,2.48a3.481,3.481,0,0,1-1.84.8v5.4q-.04.2-.78.46a4,4,0,0,1-1.3.26h-.4v-1.4h-9.88v1.16a.115.115,0,0,1-.04.08l.16-.08a7.536,7.536,0,0,1,2.88,2.36,2.874,2.874,0,0,1,.6,2.12A1.347,1.347,0,0,1,145.44.6Zm-17.8-6.84h6.12V-10.4h-6.12Zm15.08-1.2h9.88v-4.04h-9.88ZM127.64-11.6h6.12v-3.88h-6.12Zm10.8-3.44-.28-1.16h15.96l1.56-2.08q1.52,1.28,3,2.6-.16.64-1,.64Zm-15.92-1.24a.989.989,0,0,1-1-.44,1.143,1.143,0,0,1-.08-1.02,1.958,1.958,0,0,1,.68-.9,3.517,3.517,0,0,0,1-1.6,4.435,4.435,0,0,0,.32-2.12h.76q.12.4.28,1.2h.64V-32.64l2.64,1.16h5.72l1.28-1.64L138-30.76a2.7,2.7,0,0,1-1.84.76v8.84h.4L138-22.6l1.2,1.16v-9.4l2.48,1.2h2.6V-33.4l3.2.4q-.12.72-1.24.96v2.4h2.88V-33.4l3.16.4q-.12.76-1.2.96v2.4h2.32l1.4-1.56,3.12,2.4a3.065,3.065,0,0,1-1.8.8v9.2q-.04.2-.74.5a3.179,3.179,0,0,1-1.22.3h-.36v-1.36H141.52v1.28q0,.2-.6.48a3.17,3.17,0,0,1-1.36.32h-.36v-2.36h-.04a19.887,19.887,0,0,1-2.84,2.52l-.6-.24q.6-1.64.92-2.64H124.56a4.093,4.093,0,0,1-.92,3.16A1.625,1.625,0,0,1,122.52-16.28Zm19-4.28h2.76v-3.36h-2.76Zm4.72,0h2.88v-3.36h-2.88Zm4.84,0h2.72v-3.36h-2.72Zm-23.76-.6h2.12v-6.92l2.44,1.12h2.04v-3.32h-6.6Zm4.04,0h2.56v-4.6h-2.56Zm10.16-3.92h2.76v-3.4h-2.76Zm4.72,0h2.88v-3.4h-2.88Zm4.84,0h2.72v-3.4h-2.72Z" transform="translate(68 798)" fill="#fff"/>
    <path id="路径_6823" data-name="路径 6823" d="M-8.28,1.54A1.2,1.2,0,0,0-8.7.66,4.424,4.424,0,0,0-10.52.2V-.12L-7.9.04a.592.592,0,0,0,.37-.08.362.362,0,0,0,.09-.28V-4.1h-5.28l-.16-.56h9.54l.9-1.1q.84.68,1.66,1.36-.08.3-.52.3H-6.16V-.3A1.733,1.733,0,0,1-6.52.92,2.792,2.792,0,0,1-8.28,1.54Zm-8.18-.02v-9.2a16.714,16.714,0,0,1-2.6,4.54l-.3-.26a23.029,23.029,0,0,0,2.64-8.1H-19l-.14-.58h2.68v-4.66l1.98.22q-.06.48-.72.58v3.86h.52l.84-1.12.56.48a12.384,12.384,0,0,1,.98.9q-.08.32-.5.32h-2.4v2.66a5.782,5.782,0,0,1,1.94,1.36,2.06,2.06,0,0,1,.6,1.22.717.717,0,0,1-.34.72.7.7,0,0,1-.8-.14,8.423,8.423,0,0,0-1.4-2.74V1.06q0,.14-.33.3a1.482,1.482,0,0,1-.65.16ZM-1.26.46A.672.672,0,0,1-2.12.44,5.973,5.973,0,0,0-3.28-1.38,10.757,10.757,0,0,0-4.92-2.96l.22-.18a8.124,8.124,0,0,1,2.64,1.3,2.831,2.831,0,0,1,1,1.38A.834.834,0,0,1-1.26.46ZM-13.7.72l-.22-.24a10.623,10.623,0,0,0,2-1.84,9.173,9.173,0,0,0,1.4-2l1.72.86q-.18.28-.72.2A9.789,9.789,0,0,1-11.3-.64,10.829,10.829,0,0,1-13.7.72Zm2.38-7.22-.16-.6h6.9l.88-1.06q.3.22.6.46.68.52,1.08.88-.08.32-.54.32Zm-.82-1.36V-13.6l1.42.62h1.66V-14.9H-12.8l-.16-.58h9.64l.9-1.08q.84.66,1.68,1.34-.08.32-.52.32H-4.88v1.92h1.9l.58-.72L-1-12.64a1.069,1.069,0,0,1-.72.3v3.72q0,.08-.3.22a1.627,1.627,0,0,1-.7.16h-.22V-8.9h-8v.64q0,.1-.26.24a1.634,1.634,0,0,1-.74.16Zm1.2-1.62h1.88V-12.4h-1.88Zm3,0h1.98V-12.4H-7.94Zm3.06,0h1.94V-12.4H-4.88Zm-3.06-3.5h1.98V-14.9H-7.94ZM9.32,1.56v-4.3H1.08L.92-3.32h8.4V-5.44l1.88.2q-.06.36-.54.46v1.46h5.6l1.02-1.26q.32.26.66.52.74.58,1.18,1-.08.32-.52.32H10.66V1.12q0,.12-.37.28a1.787,1.787,0,0,1-.71.16Zm-6.3-6.4q-.44,0-.54-.78.24-2.44-.34-2.74A2.754,2.754,0,0,0,1.2-8.6v-.44h.98a.542.542,0,0,0,.26-.04,1.085,1.085,0,0,0,.26-.28q.44-.5,4.18-5.5l.34.16q-.32.52-1.32,2.1Q4.22-9.94,4.02-9.56a2.7,2.7,0,0,0-.44,1.28,2.737,2.737,0,0,0,.16.74A4.567,4.567,0,0,1,4-5.92Q3.96-4.84,3.02-4.84ZM7.96-5.1v-6.94A12,12,0,0,1,5.6-9.9l-.28-.24a14.083,14.083,0,0,0,2.18-2.9,18.227,18.227,0,0,0,1.7-3.84l1.92.74q-.14.4-.76.34-.42.88-.84,1.6h2.72a19.821,19.821,0,0,0,.8-2.56l2.06.46q-.1.44-.74.44a11.982,11.982,0,0,1-1.48,1.66h3.16l.92-1.14q.86.7,1.7,1.4-.06.32-.54.32H13.54v1.8h1.98l.86-1.06q.28.22.56.46.64.52,1.02.88-.06.32-.52.32h-3.9V-9.3H15.6l.86-1.1q.78.66,1.56,1.34-.08.32-.52.32H13.54v1.96h3.02l.9-1.14.6.48a13.585,13.585,0,0,1,1.08.94q-.08.32-.5.32H9.22v.64q0,.1-.28.26a1.642,1.642,0,0,1-.78.18ZM9.22-6.78h3.06V-8.74H9.22Zm0-2.52h3.06v-1.92H9.22Zm-5.9-2.54a.7.7,0,0,1-.8-.02,3.952,3.952,0,0,0-.8-1.16,5.624,5.624,0,0,0-1.1-.96l.18-.16a4.527,4.527,0,0,1,2.06.64,1.46,1.46,0,0,1,.72.94A.69.69,0,0,1,3.32-11.84Zm5.9.02h3.06v-1.8H9.22ZM5-14.2a.716.716,0,0,1-.82-.04,4.151,4.151,0,0,0-.78-1.24,6.16,6.16,0,0,0-1.1-1.04l.18-.18a4.855,4.855,0,0,1,2.08.76,1.511,1.511,0,0,1,.7,1A.713.713,0,0,1,5-14.2Z" transform="translate(704 801)" fill="#fff"/>
    <path id="路径_6824" data-name="路径 6824" d="M-15.66,1.5V-7.52l-2.36.42a.66.66,0,0,1-.5.4L-19-8.04q.82-.04,2.02-.12a29.409,29.409,0,0,0,3.5-6.4l1.66.7q-.18.38-.76.32A25.89,25.89,0,0,1-16.34-8.2q1.64-.1,3.28-.24a9.689,9.689,0,0,0-.92-1.48l.26-.14a6.179,6.179,0,0,1,1.76,1.54,2.6,2.6,0,0,1,.54,1.32.815.815,0,0,1-.3.77q-.32.21-.7-.13a5.235,5.235,0,0,0-.44-1.46l-1.76.32V1.12q0,.1-.26.22a1.34,1.34,0,0,1-.64.16Zm4.9-.18V-15.52l1.28.58h6.7l.6-.76,1.42,1.12a1.4,1.4,0,0,1-.86.36V.76q0,.08-.28.24a1.383,1.383,0,0,1-.62.16h-.16V-.14H-9.72V.92q0,.12-.26.24a1.38,1.38,0,0,1-.66.16ZM-18.8,0l-.34-.18a20.015,20.015,0,0,0,1.44-5.6l1.7.46a.682.682,0,0,1-.7.4A14.924,14.924,0,0,1-18.8,0Zm9.08-.74h2.96V-7.38H-9.72Zm3.98,0h3.06V-7.38H-5.74Zm-6.34-.86q-.34.22-.72-.16A11.755,11.755,0,0,0-13.82-5.9l.28-.1a6.808,6.808,0,0,1,1.46,1.98,3.333,3.333,0,0,1,.36,1.58A.967.967,0,0,1-12.08-1.6Zm2.36-6.36h2.96v-6.4H-9.72Zm3.98,0h3.06v-6.4H-5.74Zm-10.2-2.78q-.28.3-.74,0a3.936,3.936,0,0,0-.82-1.5,7.849,7.849,0,0,0-1.3-1.28l.22-.18a7.534,7.534,0,0,1,1.38.62,24.631,24.631,0,0,0,1.44-3.64l1.72.62q-.14.4-.72.34a18.219,18.219,0,0,1-2.08,2.92,2.624,2.624,0,0,1,1.02,1.24A.794.794,0,0,1-15.94-10.74ZM2.62,1.54V-8.84l1.14.56H6.84l.52-.66L8.78-7.88a1.515,1.515,0,0,1-.74.3V-.06A1.746,1.746,0,0,1,7.8,1a1.971,1.971,0,0,1-1.32.5,1.085,1.085,0,0,0-.3-.74A2.644,2.644,0,0,0,4.98.4V.06L6.64.18A.318.318,0,0,0,7-.18V-2.52H3.66V1.16q0,.12-.24.24a1.367,1.367,0,0,1-.62.14ZM8.76.9,8.6.32h5.58a18.528,18.528,0,0,0,.9-2.9l1.84.62a.615.615,0,0,1-.74.34A16.034,16.034,0,0,1,14.7.32h2.52l.78-1q.26.22.54.42.6.5.94.84Q19.4.9,18.96.9ZM12.88.06q-.38.4-.86-.06a4.285,4.285,0,0,0-.28-1.28,5.306,5.306,0,0,0-.54-1.14l.26-.12A3.194,3.194,0,0,1,13-1.02.911.911,0,0,1,12.88.06ZM10.12-2.22V-6.84l1.14.5h4.92l.64-.72L18.34-5.9a1.537,1.537,0,0,1-.9.42v2.64q-.02.1-.34.24a1.466,1.466,0,0,1-.58.14h-.14v-.7H11.16v.62q0,.08-.28.2a1.605,1.605,0,0,1-.6.12ZM3.66-3.1H7V-5.16H3.66Zm7.5-.64h5.22v-2H11.16ZM3.66-5.76H7V-7.7H3.66ZM9.2-7.52,9.04-8.1h8.12l.74-.96q.26.2.5.42.58.48.9.8-.08.32-.5.32ZM1.3-8.18a.448.448,0,0,1-.46-.16A.5.5,0,0,1,.78-8.8a1.023,1.023,0,0,1,.3-.46,1.772,1.772,0,0,0,.49-.8,2.846,2.846,0,0,0,.19-1.08l.36.02a.329.329,0,0,0,.02.1q.06.32.08.46H2.6v-5.72l1.22.58H6.78l.62-.78,1.52,1.14a1.288,1.288,0,0,1-.92.36v4.42h.34L9-11.24l.58.56v-4.66l1.12.52h1.38v-1.82l1.54.18q-.06.38-.6.48v1.16h1.54v-1.82l1.56.18q-.06.36-.64.48v1.16h1.26l.64-.7,1.5,1.12a1.562,1.562,0,0,1-.92.42v4.62q-.02.08-.3.2A1.289,1.289,0,0,1,17.1-9h-.16v-.7H10.6V-9q0,.1-.28.22a1.282,1.282,0,0,1-.58.14H9.58V-9.82H9.5A9.89,9.89,0,0,1,8.2-8.6l-.3-.12q.1-.26.4-1.08.04-.1.06-.16H2.26a2.252,2.252,0,0,1-.42,1.48A.874.874,0,0,1,1.3-8.18Zm9.3-2.12h1.48v-1.68H10.6Zm2.42,0h1.54v-1.68H13.02Zm2.46,0h1.46v-1.68H15.48ZM3.6-10.56H4.74V-14l1.16.54H7.02v-1.66H3.6Zm2.02,0h1.4v-2.32H5.62Zm4.98-2h1.48v-1.66H10.6Zm2.42,0h1.54v-1.66H13.02Zm2.46,0h1.46v-1.66H15.48Z" transform="translate(480 801)" fill="#fff"/>
    <path id="路径_6825" data-name="路径 6825" d="M-16.3,1.44v-9.8a19.721,19.721,0,0,1-2.52,5.3l-.34-.28a24.785,24.785,0,0,0,2.58-8.14h-2.3l-.16-.6h2.74v-4.56l1.6.18a.747.747,0,0,1-.7.56v3.82h.74l.74-1.02q.26.22.5.44a11.07,11.07,0,0,1,.88.86q-.08.32-.5.32H-15.4v2.12A5.932,5.932,0,0,1-13.72-8a2.565,2.565,0,0,1,.56,1.18.752.752,0,0,1-.22.7q-.26.2-.62-.08a6.99,6.99,0,0,0-1.4-2.7V1.04q0,.14-.23.27a.945.945,0,0,1-.47.13Zm2.62-.7-.16-.58H-3.28l.82-1L-.94.44q-.08.3-.52.3ZM-9.3-.56a.748.748,0,0,0-.28-.68,4.449,4.449,0,0,0-1.44-.36l.02-.38a2.709,2.709,0,0,1,.28.02q1.52.14,1.84.14a.9.9,0,0,0,.66-.22,6.058,6.058,0,0,0,.64-2.84q.2-2.24.28-6.84H-9.72l-.28.76a1.231,1.231,0,0,1-1-.02,17.957,17.957,0,0,0,1.3-3.64h-3.62l-.16-.6H-3.4l.82-1,1.52,1.28q-.06.32-.52.32h-7.2q-.28.98-.74,2.3h2.04l.52-.64,1.26,1.02a1.38,1.38,0,0,1-.78.3v.58h3.7l.64-.62,1.18,1.06a1.285,1.285,0,0,1-.76.26,17.02,17.02,0,0,1-1.76,5.7A8.177,8.177,0,0,0-.8-2.1l-.02.18a1,1,0,0,0-.92.64A8.593,8.593,0,0,1-4-3.82a9.484,9.484,0,0,1-2.8,2.7l-.22-.3a10,10,0,0,0,2.64-3.1,18.48,18.48,0,0,1-1.48-5.94H-6.5Q-6.64-2.5-7.58-1.3A2.122,2.122,0,0,1-9.3-.56Zm-3.56-2.32V-10.4l.98.48h1.58l.54-.6,1.28.98a1.271,1.271,0,0,1-.76.36V-3.8q-.02.1-.29.23a1.116,1.116,0,0,1-.47.13h-.12v-.92h-1.86V-3.2q0,.08-.24.2a1.065,1.065,0,0,1-.48.12Zm.88-2.06h1.86V-9.32h-1.86Zm8.06-.48a18.515,18.515,0,0,0,1.26-5.04H-5.4A14.942,14.942,0,0,0-3.92-5.42ZM4.42,1.46v-9q-.36.04-1.14.16-.84.14-1.3.2a.653.653,0,0,1-.48.4L1.04-8q.24-.02.94-.04.66-.04,1.04-.06a30.849,30.849,0,0,0,3.6-6.44l1.5.62q-.18.38-.76.32a28.177,28.177,0,0,1-3.7,5.44q1.68-.1,3.32-.24a13,13,0,0,0-.92-1.46l.24-.12A6.635,6.635,0,0,1,8-8.46a2.487,2.487,0,0,1,.54,1.28.732.732,0,0,1-.23.74.5.5,0,0,1-.65-.1A4.761,4.761,0,0,0,7.18-8q-.34.06-1.08.18-.52.1-.8.14v8.8q0,.1-.22.2a1.125,1.125,0,0,1-.54.14Zm4.86-.18V-15.44l1.12.5h6.96l.52-.66,1.32,1.04a1.267,1.267,0,0,1-.86.34V.76q0,.08-.24.22a1.172,1.172,0,0,1-.52.14h-.12V-.18h-7.3V.92q0,.1-.2.22a1.163,1.163,0,0,1-.56.14ZM1.24-.04.9-.22A19.716,19.716,0,0,0,2.38-5.78l1.56.44a.633.633,0,0,1-.68.4A16.322,16.322,0,0,1,1.24-.04Zm8.92-.74h3.16V-7.36H10.16Zm4.04,0h3.26V-7.36H14.2Zm-6.28-.8q-.3.22-.66-.14A11.553,11.553,0,0,0,6.18-5.9l.3-.1a7.471,7.471,0,0,1,1.4,2.02,3.646,3.646,0,0,1,.36,1.56A1.029,1.029,0,0,1,7.92-1.58Zm2.24-6.38h3.16v-6.38H10.16Zm4.04,0h3.26v-6.38H14.2ZM4.1-10.74q-.26.28-.68,0a3.917,3.917,0,0,0-.84-1.46,8.059,8.059,0,0,0-1.34-1.28l.22-.18a8.144,8.144,0,0,1,1.36.64,26.757,26.757,0,0,0,1.52-3.66l1.54.58q-.14.4-.72.34a19.54,19.54,0,0,1-1.98,2.98,2.6,2.6,0,0,1,.98,1.2A.8.8,0,0,1,4.1-10.74Z" transform="translate(536 801)" fill="#fff"/>
    <path id="路径_6826" data-name="路径 6826" d="M-10.7,1.52V-4.36h-4.48V.28q0,.1-.34.26a1.9,1.9,0,0,1-.74.16h-.2V-5.6l1.4.64h4.36V-7.04h-2.94v.58q0,.1-.34.26a1.9,1.9,0,0,1-.74.16h-.2v-5.3l1.38.62H-6.5l.68-.74,1.56,1.16a1.271,1.271,0,0,1-.76.36v3.26q-.02.1-.42.26a1.9,1.9,0,0,1-.68.16h-.2v-.78H-9.4v2.08h4.42l.66-.78,1.7,1.24a1.507,1.507,0,0,1-.88.38v2.96A1.756,1.756,0,0,1-3.84.06,2.729,2.729,0,0,1-5.6.68,1.268,1.268,0,0,0-6-.26a3.784,3.784,0,0,0-1.7-.5v-.3q1.24.06,2.46.14.46,0,.46-.38V-4.36H-9.4V1q0,.12-.3.3a1.5,1.5,0,0,1-.8.22ZM-13.64-7.6h7.32v-2.54h-7.32ZM-18.2-9.5a.66.66,0,0,1-.64-.34.678.678,0,0,1,0-.6,1.184,1.184,0,0,1,.48-.48,2.965,2.965,0,0,0,1.08-1.22,3.9,3.9,0,0,0,.44-1.88h.36a9.245,9.245,0,0,1,.18.96h5.62v-3.68l2.02.22q-.06.46-.7.54v2.92H-7.7a34.58,34.58,0,0,0,1.9-3.5l2,.82a.506.506,0,0,1-.28.24.8.8,0,0,1-.5.04,18,18,0,0,1-2.56,2.4h3.92l.84-.88,1.56,1.48a1.232,1.232,0,0,1-.76.2,10.7,10.7,0,0,1-2.2,2l-.28-.16a15.567,15.567,0,0,0,.86-2.06H-16.28a4.118,4.118,0,0,1-.34,1.7,2.675,2.675,0,0,1-.78.98A1.273,1.273,0,0,1-18.2-9.5Zm5.08-3.84a.718.718,0,0,1-.88-.1,3.967,3.967,0,0,0-.6-1.58,5.642,5.642,0,0,0-1.16-1.32l.22-.16a5.114,5.114,0,0,1,2.12,1.1,1.975,1.975,0,0,1,.66,1.24A.83.83,0,0,1-13.12-13.34ZM7.04,1.56l-.1-.3a7.926,7.926,0,0,0,3.42-2.52,7.678,7.678,0,0,0,1.2-3.78h-.72v.72q0,.1-.28.24a1.763,1.763,0,0,1-.76.16H9.6V-15.96l1.48.62H16.5l.68-.82,1.5,1.18a1.392,1.392,0,0,1-.8.34V-4.7q0,.08-.32.22a1.677,1.677,0,0,1-.76.18h-.2v-.74H15.52V-.2q0,.18.07.23a.737.737,0,0,0,.35.05h1.82a.324.324,0,0,0,.28-.24,19.086,19.086,0,0,0,.52-2.46h.26L18.88-.1a.6.6,0,0,1,.44.56.637.637,0,0,1-.48.62,6.671,6.671,0,0,1-1.98.2h-1.2a1.756,1.756,0,0,1-1.14-.26A1.314,1.314,0,0,1,14.28.1V-5.04h-1.4A7.5,7.5,0,0,1,11.26-.8,8.557,8.557,0,0,1,7.04,1.56ZM1.06,1.54.78,1.28A9.621,9.621,0,0,0,3.32-2.78a17.391,17.391,0,0,0,.76-4.98H1.02l-.14-.6H4.1v-3.9H1.4l-.16-.58H4.1V-16.7l1.96.22q-.06.46-.68.56v3.08h.88l.86-1.14.56.48q.64.56,1,.94-.06.3-.52.3H5.38v3.9h1.2l.9-1.16.56.48q.66.58,1.04.96-.08.32-.52.32H5.36a19.756,19.756,0,0,1-.22,2.34A7.157,7.157,0,0,1,7.62-3.9a2.953,2.953,0,0,1,.9,1.48.944.944,0,0,1-.24.96q-.36.3-.88-.06A5.1,5.1,0,0,0,6.52-3.3,10.093,10.093,0,0,0,5.04-4.96,9.856,9.856,0,0,1,1.06,1.54Zm9.78-7.16H16.6v-2.7H10.84Zm0-3.3H16.6v-2.64H10.84Zm0-3.24H16.6v-2.6H10.84Z" transform="translate(592 801)" fill="#fff"/>
    <path id="路径_6827" data-name="路径 6827" d="M-18.22,1.58-19.26-.24q.46-.2,1.72-.92.46-.26.68-.38V-6.16H-19.1l-.12-.58h2.06l.88-1.14,1.88,1.56a1.574,1.574,0,0,1-.98.38V-2.1a5.1,5.1,0,0,0,2.5,1.44,19.539,19.539,0,0,0,4.1.3q5.66,0,8.18-.08l-.02.28a1.357,1.357,0,0,0-1.14,1.3h-7A12.635,12.635,0,0,1-13.06.6,5.346,5.346,0,0,1-15.6-1.7,29.432,29.432,0,0,1-18,1.08.437.437,0,0,1-18.22,1.58ZM-4-1a1.18,1.18,0,0,0-.36-.84,2.923,2.923,0,0,0-1.42-.44v-.16q-.04,0-.13.01a1.4,1.4,0,0,1-.15.01h-.22v-.62H-9.04v.58q0,.08-.36.24a1.858,1.858,0,0,1-.72.16h-.18V-7l1.34.6h.68V-8.02h-2.88l-.16-.58h3.04v-1.68H-11.8v8.66q0,.14-.38.3a1.98,1.98,0,0,1-.86.2h-.24V-11.58l1.6.72H-10a1.115,1.115,0,0,1-.5-.28,5.323,5.323,0,0,0-.92-2.8l.18-.08h-2.74l-.16-.58h5.68v-2.3l2.22.2q-.06.42-.66.52v1.58h3.1l1.02-1.24q.34.26.68.5.76.6,1.2,1-.08.32-.54.32h-3.9l2.02.6q-.14.38-.74.36a14.33,14.33,0,0,1-1.98,2.2H-3.6l.76-.9,1.8,1.36a1.277,1.277,0,0,1-.86.4v7.26a1.656,1.656,0,0,1-.36,1.2A2.829,2.829,0,0,1-4-1Zm.2-1.48q.4,0,.4-.38v-7.42H-6.52a.621.621,0,0,1-.54.38v1.3H-5.7l.7-.92.48.4q.54.46.86.78-.08.32-.5.32h-2.9V-6.4h.82l.62-.7L-4.3-5.96a1.238,1.238,0,0,1-.74.34V-2.8a.908.908,0,0,1-.38.24Q-4.46-2.48-3.8-2.48ZM-9.04-3.62h2.76v-2.2H-9.04Zm-6.72-5.84a.811.811,0,0,1-.96.02,5.271,5.271,0,0,0-.98-1.46,7.708,7.708,0,0,0-1.36-1.22l.2-.14a5.555,5.555,0,0,1,2.44.74,1.922,1.922,0,0,1,.9,1.14A.87.87,0,0,1-15.76-9.46Zm6.14-1.4h3.06a15.629,15.629,0,0,0,.94-3.16h-5.52A4.125,4.125,0,0,1-9.3-12.78a1.5,1.5,0,0,1,.32,1.24A.88.88,0,0,1-9.62-10.86Zm-5.56-2.6a.811.811,0,0,1-.96.02,4.81,4.81,0,0,0-.88-1.52A6.986,6.986,0,0,0-18.3-16.2l.2-.18a5.362,5.362,0,0,1,2.38.84,1.9,1.9,0,0,1,.84,1.18A.877.877,0,0,1-15.18-13.46ZM9.12,1.62V-6.1H3.68v1.36q0,.14-.44.34a2.246,2.246,0,0,1-.94.22H2.04v-9.18l1.8.78H9.12v-4.26l2.4.26q-.1.48-.74.58v3.42h5.24l.88-.92,1.84,1.4a1.314,1.314,0,0,1-.84.42v6.76q-.02.12-.5.3a2.69,2.69,0,0,1-.9.18h-.28V-6.1H10.78V.98q0,.18-.44.4a1.938,1.938,0,0,1-.9.24ZM3.68-6.68H9.12V-12H3.68Zm7.1,0h5.44V-12H10.78Z" transform="translate(648 801)" fill="#fff"/>
    <path id="路径_6828" data-name="路径 6828" d="M-16.32,1.78v-6.5a16.847,16.847,0,0,1-3.14,3.4l-.24-.22a20.984,20.984,0,0,0,2.92-7.52h-2.46l-.16-.58h3.08V-17l2.94.3q-.06.48-.74.56v6.5h.46l1.08-1.42q.34.28.68.58.78.66,1.22,1.1-.08.32-.52.32h-2.92v.82a5.705,5.705,0,0,1,2.38,1.62,2.012,2.012,0,0,1,.52,1.58.99.99,0,0,1-.66.92,1.138,1.138,0,0,1-1.24-.34,8.23,8.23,0,0,0-1-3.08V1.12q0,.18-.56.42a3.21,3.21,0,0,1-1.2.24Zm3.72-.56-.16-.58h2.3v-15.3a.8.8,0,0,1-.66.22,17.886,17.886,0,0,1-2.5,3.7l-.32-.14a46.242,46.242,0,0,0,1.02-4.8l2.46.82v-1.22l2.36.92h3.28l.98-1.3,2.36,1.72a1.314,1.314,0,0,1-.9.4V.56l.8-1.42q.28.32.56.62.6.72.9,1.14-.06.32-.5.32ZM-8.28.64h3.66V-4.34H-8.28Zm0-5.56h3.66V-9.6H-8.28Zm0-5.24h3.66V-14.6H-8.28Zm-9.18-.6a.99.99,0,0,1-1.08-.42,11.765,11.765,0,0,0-.54-4.2l.26-.08a5.686,5.686,0,0,1,1.8,2.06,2.629,2.629,0,0,1,.26,1.72A1.114,1.114,0,0,1-17.46-10.76ZM2.46,1.84V-9.44l2.14.9H6.14L7.1-9.66l.78.6q.04-.18.13-.55t.13-.53H2.32a2.04,2.04,0,0,1-.48,2,.9.9,0,0,1-.76.18.774.774,0,0,1-.66-.46.9.9,0,0,1,.04-.74A1.313,1.313,0,0,1,1-9.7a1.672,1.672,0,0,0,.52-.74,1.917,1.917,0,0,0,.12-1h.32a5.247,5.247,0,0,1,.24.74h.08v-5.92l1.84.76H6.5l.82-1.06,2.02,1.44a1.381,1.381,0,0,1-.9.4v3.98l.54-.56.72.7V-15.7l1.92.8h.8v-2l1.7.2q-.06.32-.48.4v1.4h.94v-2l1.72.2q-.06.32-.5.4v1.4h.68l.92-.98,1.9,1.44a1.079,1.079,0,0,1-.76.38v4.52q-.02.12-.58.32.66.52,1.56,1.36-.08.32-.54.32H9.34L9.22-8a1.556,1.556,0,0,1-.76.36V-.66a2.825,2.825,0,0,1-.38,1.7,2.746,2.746,0,0,1-1.96.74A4.777,4.777,0,0,0,5.92.3a1.215,1.215,0,0,0-.9-.64V-.62q.5.02,1,.06a.283.283,0,0,0,.32-.32V-2.66H4.52v3.8q0,.18-.54.44a2.949,2.949,0,0,1-1.22.26ZM8.9,1.26,8.74.68h3.54a1.337,1.337,0,0,1-.5-.32,4.2,4.2,0,0,0-.56-2.42,3.136,3.136,0,0,1-.76.1h-.28V-7.18l2.16.86h3.44l1-1.08,2.16,1.6a1.435,1.435,0,0,1-.82.4v2.78q-.02.08-.64.26a3.981,3.981,0,0,1-1.12.2h-.34l1.7.6a.633.633,0,0,1-.76.34Q15.76-.02,14.9.68h1.84L17.8-.66q.36.28.7.54.8.64,1.28,1.06-.08.32-.54.32Zm4-.58h1.48q.36-1.2.74-3.16l.88.32v-.82H12.24v.44q0,.1-.46.3A3.329,3.329,0,0,1,13.3-1.12,1.293,1.293,0,0,1,13.52,0,.965.965,0,0,1,12.9.68ZM4.52-3.22H6.34v-2.1H4.52Zm7.72-.34H16V-5.74H12.24ZM4.52-5.9H6.34V-7.98H4.52ZM9.2-8.08l-.02-.04H16.5l.68-.92a.7.7,0,0,1-.2.02h-.3V-9.6H11.52v.34q0,.16-.5.36a2.6,2.6,0,0,1-1.06.24H9.7v-1a14.43,14.43,0,0,1-1.3.98Zm2.32-2.1h.9v-1.8h-.9Zm2.12,0h.94v-1.8h-.94Zm2.16,0h.88v-1.8H15.8ZM3.92-10.7H4.7v-3.48l1.44.62h.58v-1.72H3.92Zm1.96,0h.84v-2.28H5.88Zm5.64-1.82h.9v-1.82h-.9Zm2.12,0h.94v-1.82h-.94Zm2.16,0h.88v-1.82H15.8Z" transform="translate(760 801)" fill="#fff"/>
    <path id="路径_6829" data-name="路径 6829" d="M-27.02,1.92A3.288,3.288,0,0,0-27.68,0a4.4,4.4,0,0,0-2.26-.92v-.26q1.7.08,3.4.18.44,0,.44-.36V-6.5h-6.28l-.16-.56h6.44V-9.62l3.5.3q-.06.44-.7.52v1.7l1.1-1.78q.36.36.74.72.82.84,1.24,1.34-.08.32-.54.32H-23.3v5.28A2.987,2.987,0,0,1-23.94.94,5.09,5.09,0,0,1-27.02,1.92Zm-9.22-.02V-5.18q-.32.18-1.02.54-.34.16-.52.26a.954.954,0,0,1-.6.56L-39.6-7.06q.58-.08,2.62-.44.48-.1.74-.14v-3.78h-1a10.739,10.739,0,0,1-1.92,3.24l-.28-.14a30.32,30.32,0,0,0,.78-7.3l2.42.54v-2l3.36.32q-.06.48-.74.58v3.9L-32.58-14l.8.8q.88.9,1.34,1.46-.08.32-.54.32h-2.64v3.26q1.1-.2,3-.62l.04.2q-1.54,1.04-3.04,1.92V.98q0,.24-.68.56a3.281,3.281,0,0,1-1.44.36Zm7.54-4.26a1.675,1.675,0,0,1-1.68-.32A8.633,8.633,0,0,0-31.8-6.16l.16-.1A5.936,5.936,0,0,1-28.52-5.1a1.742,1.742,0,0,1,.7,1.62A1.333,1.333,0,0,1-28.7-2.36Zm-3.84-7.38-.16-.56h4.36v-3.16H-31.4l-.16-.56h3.22V-17.1l3.56.28q-.06.46-.74.58v2.22h.92l1.28-1.88.82.74q.92.86,1.44,1.38-.08.32-.56.32h-3.9v3.16h1.38l1.36-2.04.88.8q1,.92,1.54,1.48-.08.32-.56.32Zm-4.5-2.24h.8v-2.48h-.08A25.138,25.138,0,0,1-37.04-11.98ZM-16.58,1.88V-4.18A16.96,16.96,0,0,1-19.64-1.3l-.22-.2A21.594,21.594,0,0,0-17-9.06h-2.36l-.16-.56h2.94V-17.1l3.44.34q-.06.48-.74.56v6.58h.1l1.16-1.58.72.6q.82.68,1.3,1.14v-4.98a1.325,1.325,0,0,1-.28.02,17.393,17.393,0,0,1-2.66,3.64l-.3-.12q.42-1.88.82-4.9l2.42.82v-1.26l2.8,1.06h2.58l1.14-1.48,2.72,1.9a1.216,1.216,0,0,1-.9.42V.62L-1.5-.82q.28.34.56.66a13.742,13.742,0,0,1,.9,1.2q-.06.32-.5.32H-12.62L-12.78.8h2.18V-9.22a.623.623,0,0,1-.46.16h-2.82v.66A5.434,5.434,0,0,1-11.4-6.66a2.032,2.032,0,0,1,.44,1.72,1.256,1.256,0,0,1-.88.98,1.441,1.441,0,0,1-1.46-.46,9.858,9.858,0,0,0-.58-3.06V1.14q0,.18-.68.46a4.267,4.267,0,0,1-1.48.28ZM-7.96.8h2.94V-4.3H-7.96Zm0-5.66h2.94V-9.58H-7.96Zm0-5.28h2.94v-4.48H-7.96Zm-9.64-.6a1.176,1.176,0,0,1-1.24-.5,12.232,12.232,0,0,0-.36-4.28l.24-.08a5.565,5.565,0,0,1,1.98,2.12,2.442,2.442,0,0,1,.24,1.8A1.2,1.2,0,0,1-17.6-10.74Z" transform="translate(836 801)" fill="#fff"/>
    <g id="组_4853" data-name="组 4853" transform="translate(0 905)">
      <rect id="矩形_3599" data-name="矩形 3599" width="872" height="56" fill="#ff6baa"/>
      <path id="路径_6838" data-name="路径 6838" d="M-87.336,0l-.24-.24,6.864-15.48h-9.144V-17.5h10.488v1.1L-85.632,0ZM-67.3,1.848V-8.232A20.161,20.161,0,0,1-71.208-2.4l-.336-.312a25.117,25.117,0,0,0,3.912-9.6h-3.1l-.168-.672h3.6v-4.008a34.458,34.458,0,0,1-3.648.816l-.144-.384a27.081,27.081,0,0,0,3.72-1.56,21.522,21.522,0,0,0,3.024-1.752l1.992,1.536q-.312.36-1.176.072-.888.384-2.28.84v4.44h.84l1.008-1.344q.936.816,1.848,1.632-.1.384-.624.384h-3.072v2.448a7.713,7.713,0,0,1,2.424,1.536,2.461,2.461,0,0,1,.768,1.416.824.824,0,0,1-.336.876.747.747,0,0,1-.912-.156,10.022,10.022,0,0,0-1.944-3.192V1.344q0,.144-.36.312a2.059,2.059,0,0,1-.888.192Zm3.5-.936-.192-.7h6.936V-2.592H-62.28l-.192-.7h5.424V-5.76H-60.48v.6q0,.12-.384.288a1.952,1.952,0,0,1-.84.192h-.24v-8.856l1.584.72h3.312V-14.88h-5.928l-.192-.7h6.12v-1.992q-3.144.336-5.64.36l-.1-.432A58.334,58.334,0,0,0-56.808-18.7a40.087,40.087,0,0,0,4.944-1.392l1.824,1.728a1.2,1.2,0,0,1-1.224-.048q-1.968.384-4.3.672v2.16h3.6l1.08-1.344q.36.288.72.552a16.3,16.3,0,0,1,1.3,1.128q-.072.36-.624.36H-55.56v2.064h3.48l.816-.888,1.824,1.368a1.654,1.654,0,0,1-.936.456v6.456q-.024.12-.432.288a2.137,2.137,0,0,1-.816.192h-.24V-5.76h-3.7v2.472H-52.7l1.08-1.344q.984.816,1.944,1.656-.072.384-.6.384h-5.28V.216h3.744l1.1-1.392q1.032.864,2.04,1.728-.1.36-.6.36ZM-60.48-6.48h3.432V-9.024H-60.48Zm4.92,0h3.7V-9.024h-3.7ZM-60.48-9.7h3.432V-12.12H-60.48Zm4.92,0h3.7V-12.12h-3.7ZM-37.944,1.872a1.522,1.522,0,0,0-.624-1.08A5.787,5.787,0,0,0-40.944.168V-.216q1.776.1,3.528.216.6,0,.6-.528V-6.48H-46.68l-.192-.672h10.056v-2.9l1.536.168a18.265,18.265,0,0,0,2.88-2.568h-9.96l-.216-.7h10.488l1.08-1.08,1.92,1.7a1.644,1.644,0,0,1-.984.264A26.853,26.853,0,0,1-34.56-9.816l.168.024q-.072.48-.816.624v2.016h6.816l1.2-1.512q1.08.888,2.136,1.8-.1.384-.624.384h-9.528V-.408a2.124,2.124,0,0,1-.456,1.536A3.717,3.717,0,0,1-37.944,1.872Zm-7.824-14.4a.752.752,0,0,1-.768-.384.685.685,0,0,1-.024-.72,1.356,1.356,0,0,1,.552-.624,4,4,0,0,0,1.2-1.56,5.075,5.075,0,0,0,.456-2.3h.408a9.415,9.415,0,0,1,.288,1.464h6.84v-3.528l2.472.264q-.072.552-.864.672v2.592h7.32l1.008-1.008,1.872,1.776a1.92,1.92,0,0,1-.936.24A14.557,14.557,0,0,1-28.9-13.464l-.288-.168q.576-.96,1.248-2.3h-15.7a3.686,3.686,0,0,1-1.152,3A1.479,1.479,0,0,1-45.768-12.528ZM-22.824,1.08l-.168-.7h10.128V-2.328h-8.064l-.216-.72h8.28V-5.472H-18.24v.48q0,.144-.408.336a2.334,2.334,0,0,1-.912.192h-.24v-8.808l1.7.768h5.232V-14.76h-9.552l-.216-.7h9.768v-2.208q-4.08.36-8.04.408l-.072-.48q3.96-.288,8.424-.984a67.924,67.924,0,0,0,7.128-1.44l1.608,1.632q-.384.288-1.248-.1-2.9.48-6.216.816v2.352h6.744l1.128-1.416q.384.288.768.6.864.7,1.368,1.152-.1.36-.648.36h-9.36V-12.5H-6.1l.864-.96,1.968,1.488A1.778,1.778,0,0,1-4.3-11.5v6.384q-.024.1-.48.24a2.463,2.463,0,0,1-.84.192h-.24v-.792H-11.28v2.424h5.616l1.08-1.3q.36.288.72.552.84.648,1.3,1.08-.1.384-.6.384H-11.28V.384h6.96L-3.144-1.1q.384.312.792.624Q-1.488.24-.984.72q-.072.36-.624.36Zm4.584-7.272h5.376v-2.5H-18.24Zm6.96,0h5.424v-2.5H-11.28Zm-6.96-3.192h5.376v-2.4H-18.24Zm6.96,0h5.424v-2.4H-11.28Z" transform="translate(836 36)" fill="#fff"/>
    </g>
    <path id="路径_6830" data-name="路径 6830" d="M16.8.64A13.87,13.87,0,0,1,6.26-3.64,15.28,15.28,0,0,1,2.2-14.6,15.171,15.171,0,0,1,6.32-25.54a14.031,14.031,0,0,1,10.6-4.3,16.446,16.446,0,0,1,8.72,2.24l.16,6.28H23.56l-.88-5.28a10.291,10.291,0,0,0-5.4-1.44,10.051,10.051,0,0,0-8.04,3.56q-3.12,3.64-3.12,9.9T9.14-4.74A10.234,10.234,0,0,0,17.4-1.16a14.6,14.6,0,0,0,5.44-1.12V-3.96q0-4.04-.12-8.12l-4.68-.36v-1.44H29.08v1.44l-2.76.28Q26.2-8.2,26.2-3.92v1.96A19.66,19.66,0,0,1,16.8.64ZM41.36.56a8.993,8.993,0,0,1-6.92-2.8q-2.72-2.88-2.72-7.92a11.24,11.24,0,0,1,2.92-8,9.1,9.1,0,0,1,6.88-2.96,7.874,7.874,0,0,1,5.76,2.2,8.055,8.055,0,0,1,2.24,5.96,8.313,8.313,0,0,1-.28,2.48l-14.28-.04a9.86,9.86,0,0,0,2.12,6.64,6.718,6.718,0,0,0,5.28,2.2A7.911,7.911,0,0,0,48.64-4.8l.84.64A8.75,8.75,0,0,1,41.36.56ZM35-12.04h9.36a2.227,2.227,0,0,0,1.76-.6,2.433,2.433,0,0,0,.4-1.56,5.3,5.3,0,0,0-1.44-3.72,4.979,4.979,0,0,0-3.76-1.6,5.4,5.4,0,0,0-4.08,1.84A9.462,9.462,0,0,0,35-12.04ZM53.44,0V-1.28l3.36-.48q.12-3.36.12-7.36v-2.2q0-2.36-.16-5.68v-.4l-3.56-.28v-1.28l5.76-2.12.56.4L59.84-17a14.024,14.024,0,0,1,3.88-3.02,8.922,8.922,0,0,1,4.12-1.1,4.769,4.769,0,0,1,4.12,1.8q1.36,1.88,1.36,6.04v4.16q0,4,.12,7.32l3.16.52V0H66.8V-1.28l3.4-.48q.08-4.4.08-7.36v-4a7.639,7.639,0,0,0-.92-4.32,3.286,3.286,0,0,0-2.84-1.2q-3.08,0-6.56,3.2v6.32q0,2.92.08,7.32l3.16.52V0Zm27,10.92a4.58,4.58,0,0,1-2.56-.68A2.235,2.235,0,0,1,76.72,8.4a1.786,1.786,0,0,1,.92-1.2,3.1,3.1,0,0,1,1.6-.4,4.394,4.394,0,0,1,3,1.48l.32.32Q85.28,6.68,87,1.96l.36-.92-7.92-20-2.56-.36v-1.24H86.8v1.28l-3.84.44L88.84-2.92,94.52-18.8l-3.92-.52v-1.24h8.36v1.24l-2.44.48L89.16.64A27.308,27.308,0,0,1,85,8.52,6.008,6.008,0,0,1,80.44,10.92ZM110,.56a9.2,9.2,0,0,1-6.72-2.68,10.706,10.706,0,0,1-3.08-8.1,10.974,10.974,0,0,1,3.08-8.18,9.263,9.263,0,0,1,6.76-2.72,9.215,9.215,0,0,1,6.72,2.72,10.974,10.974,0,0,1,3.08,8.18,10.783,10.783,0,0,1-3.04,8.1A9.385,9.385,0,0,1,110,.56Zm-4.68-3.92a5.407,5.407,0,0,0,4.7,2.32,5.51,5.51,0,0,0,4.74-2.32,11.622,11.622,0,0,0,1.72-6.84,11.923,11.923,0,0,0-1.7-6.88,5.454,5.454,0,0,0-4.74-2.44,5.454,5.454,0,0,0-4.74,2.44,11.923,11.923,0,0,0-1.7,6.88A11.622,11.622,0,0,0,105.32-3.36Z" transform="translate(68 870)" fill="#fff"/>
    <path id="路径_6831" data-name="路径 6831" d="M-3.4.16l-8.9-12.34.02,11.2,2.32.26V0H-15.1V-.72l1.88-.24.02-12.48-.18-.26-1.64-.2v-.68h3.12L-3.62-3l-.02-10.6-2.34-.28v-.7H-.86v.7l-1.86.26L-2.74.16Z" transform="translate(600 879)" fill="#fff"/>
    <path id="路径_6832" data-name="路径 6832" d="M-11.52,0V-.64l2.14-.2q.02-1.96.02-5.84V-7.82q0-3.96-.02-5.88l-2.14-.2v-.62h5.8v.62l-2.12.2q-.04,1.94-.04,6.16V-6.3q0,3.58.04,5.5h5.5l.58-3.06h.9L-1.04,0Z" transform="translate(543 879)" fill="#fff"/>
    <path id="路径_6833" data-name="路径 6833" d="M-24.18,0V-.56l2.16-.2q.04-1.94.04-5.9V-7.8q0-3.98-.04-5.94l-2.16-.18v-.54h10.4l.18,3.5h-.78l-.46-2.84h-5.84q-.02,1.92-.02,6.14h3.76l.26-2.1h.62v4.82h-.62l-.24-2.1H-20.7q0,4.42.02,6.38h6.18l.48-2.86h.76L-13.44,0Zm12.92,0V-.56l2.16-.2q.04-1.94.04-5.86V-7.8q0-4-.04-5.94l-2.16-.18v-.54h5.68v.54l-2.18.18q-.02,1.96-.02,6.36v1.12q0,3.62.02,5.6h5.7l.52-3.08h.76L-.94,0Z" transform="translate(493 879)" fill="#fff"/>
    <path id="路径_6834" data-name="路径 6834" d="M-1.9.2A2.723,2.723,0,0,1-3.32-.09a1.554,1.554,0,0,1-.64-.97l-1-3.6a2.922,2.922,0,0,0-.98-1.72,3.8,3.8,0,0,0-2.02-.4H-9.3q0,3.96.06,5.84l2.08.22V0H-13.1V-.72l2.08-.22q.06-1.9.06-5.8v-1.1q0-3.9-.06-5.82l-2.08-.22v-.7h5.96a6.3,6.3,0,0,1,3.81,1,3.3,3.3,0,0,1,1.35,2.82A3.371,3.371,0,0,1-2.9-8.4,4.911,4.911,0,0,1-5.64-7.04a2.713,2.713,0,0,1,1.47.8,4.807,4.807,0,0,1,.93,1.8L-2.16-.9l1.8.18V0A5.732,5.732,0,0,1-1.9.2ZM-9.3-7.58h1.98A3.759,3.759,0,0,0-4.64-8.5a2.974,2.974,0,0,0,.92-2.28q0-2.98-3.46-2.98H-9.24Q-9.3-11.84-9.3-7.58Z" transform="translate(655 879)" fill="#fff"/>
    <path id="路径_6835" data-name="路径 6835" d="M-9.03,0V-.76l1.98-.28.02-12.62-2-.24v-.76h4L-.09-2.5,4.65-14.66H8.87v.76l-2.04.22q-.04,1.9-.04,5.82v1.08q0,3.86.04,5.8l2.02.22V0H2.89V-.76l1.9-.22q.04-1.9.04-5.74l.02-5.88L-.09,0h-.94L-6.15-12.56q.02,1.34.1,3.9.02.64.02.68v6.94l1.9.28V0Z" transform="translate(704 879)" fill="#fff"/>
    <path id="路径_6836" data-name="路径 6836" d="M-6.19,0V-.7l1.9-.18q.04-2.04.04-6.22v-.86q0-4-.04-5.98l-1.9-.18v-.72H.49a6.226,6.226,0,0,1,3.84,1,2.969,2.969,0,0,1,1.2,2.52q0,2.7-3.86,3.46,4.68.56,4.68,3.78A3.375,3.375,0,0,1,5.01-1.3,8.069,8.069,0,0,1-.01,0Zm4.74-.78H-.21a4.034,4.034,0,0,0,2.74-.84,3.068,3.068,0,0,0,.96-2.44,3.062,3.062,0,0,0-.95-2.48,4.52,4.52,0,0,0-2.95-.8h-1.1Q-1.51-2.86-1.45-.78ZM-1.51-8.1h.94q3.4,0,3.4-3.12,0-2.84-3.1-2.84H-1.45Q-1.51-12.12-1.51-8.1Z" transform="translate(760 879)" fill="#fff"/>
    <path id="路径_6837" data-name="路径 6837" d="M-16.58,0V-.68l1.78-.18q.02-2.02.02-6.16V-7.9q0-4.14-.02-6.18l-1.78-.18v-.68h6.92v.68l-1.66.16q-.06,2-.06,6.12H-6q0-4.1-.06-6.12l-1.68-.16v-.68H-.82v.68l-1.76.16q-.04,2.04-.04,6.2v.88q0,4.1.04,6.16l1.76.18V0H-7.74V-.68l1.68-.18Q-6-2.84-6-7.22h-5.38q0,4.34.06,6.38l1.66.16V0Z" transform="translate(825 879)" fill="#fff"/>
  </g>
</svg>
