<svg xmlns="http://www.w3.org/2000/svg" width="872" height="240" viewBox="0 0 872 240">
  <g id="genyo" transform="translate(0 -721)">
    <g id="组_4854" data-name="组 4854" transform="translate(0 721)">
      <rect id="矩形_3596" data-name="矩形 3596" width="872" height="240" fill="#313740"/>
      <rect id="矩形_3598" data-name="矩形 3598" width="8" height="124" transform="translate(36 36)" fill="#ff6baa"/>
    </g>
    <text id="源樣明體" transform="translate(68 798)" fill="#fff" font-size="40" font-family="GenYoMinTW-R, GenYoMin TW"><tspan x="0" y="0">源樣明體</tspan></text>
    <text id="標準" transform="translate(704 801)" fill="#fff" font-size="20" font-family="GenYoMinTW-R, GenYoMin TW"><tspan x="-20" y="0">標準</tspan></text>
    <text id="細體" transform="translate(480 801)" fill="#fff" font-size="20" font-family="GenYoMinTW-L, GenYoMin TW"><tspan x="-20" y="0">細體</tspan></text>
    <text id="極細" transform="translate(536 801)" fill="#fff" font-size="20" font-family="GenYoMinTW-EL, GenYoMin TW"><tspan x="-20" y="0">極細</tspan></text>
    <text id="常規" transform="translate(592 801)" fill="#fff" font-size="20" font-family="GenYoMinTW-R, GenYoMin TW"><tspan x="-20" y="0">常規</tspan></text>
    <text id="適中" transform="translate(648 801)" fill="#fff" font-size="20" font-family="GenYoMinTW-M, GenYoMin TW"><tspan x="-20" y="0">適中</tspan></text>
    <text id="粗體" transform="translate(760 801)" fill="#fff" font-size="20" font-family="GenYoMinTW-B, GenYoMin TW"><tspan x="-20" y="0">粗體</tspan></text>
    <text id="特粗" transform="translate(836 801)" fill="#fff" font-size="20" font-family="GenYoMinTW-H, GenYoMin TW"><tspan x="-40" y="0">特粗</tspan></text>
    <g id="组_4853" data-name="组 4853" transform="translate(0 905)">
      <rect id="矩形_3599" data-name="矩形 3599" width="872" height="56" fill="#ff6baa"/>
      <text id="_7_種字重" data-name="7 種字重" transform="translate(836 36)" fill="#fff" font-size="24" font-family="GenYoMinTW-R, GenYoMin TW"><tspan x="-91.128" y="0">7 種字重</tspan></text>
    </g>
    <text id="genyo-2" data-name="genyo" transform="translate(68 870)" fill="#fff" font-size="40" font-family="GenYoMinTW-R, GenYoMin TW"><tspan x="0" y="0">Genyo</tspan></text>
    <text id="N" transform="translate(600 879)" fill="#fff" font-size="20" font-family="GenYoMinTW-R, GenYoMin TW"><tspan x="-15.96" y="0">N</tspan></text>
    <text id="L" transform="translate(543 879)" fill="#fff" font-size="20" font-family="GenYoMinTW-L, GenYoMin TW"><tspan x="-12.6" y="0">L</tspan></text>
    <text id="EL" transform="translate(493 879)" fill="#fff" font-size="20" font-family="GenYoMinTW-EL, GenYoMin TW"><tspan x="-25.3" y="0">EL</tspan></text>
    <text id="R" transform="translate(655 879)" fill="#fff" font-size="20" font-family="GenYoMinTW-R, GenYoMin TW"><tspan x="-14.14" y="0">R</tspan></text>
    <text id="M" transform="translate(704 879)" fill="#fff" font-size="20" font-family="GenYoMinTW-M, GenYoMin TW"><tspan x="-9.87" y="0">M</tspan></text>
    <text id="B" transform="translate(760 879)" fill="#fff" font-size="20" font-family="GenYoMinTW-B, GenYoMin TW"><tspan x="-7.09" y="0">B</tspan></text>
    <text id="H" transform="translate(825 879)" fill="#fff" font-size="20" font-family="GenYoMinTW-H, GenYoMin TW"><tspan x="-17.4" y="0">H</tspan></text>
  </g>
</svg>
