<svg xmlns="http://www.w3.org/2000/svg" width="872" height="240" viewBox="0 0 872 240">
  <g id="SweiGothic" transform="translate(0 -721)">
    <g id="组_4854" data-name="组 4854" transform="translate(0 721)">
      <rect id="矩形_3596" data-name="矩形 3596" width="872" height="240" fill="#313740"/>
      <rect id="矩形_3598" data-name="矩形 3598" width="8" height="124" transform="translate(36 36)" fill="#48d7dd"/>
    </g>
    <path id="路径_6953" data-name="路径 6953" d="M9.88-32.2a1.072,1.072,0,0,1,1.72-.52,1.242,1.242,0,0,1,.56,1.84L9-26.16q2.12,5.12,2.12,13.88,0,11.12-1.76,13.56a2.768,2.768,0,0,1-2.04,1.2,7.3,7.3,0,0,1-2.28.16A1.613,1.613,0,0,1,3.36,1.28Q3-.08,4.32-.08H5.96A1.79,1.79,0,0,0,7.24-.6q1.2-1.6,1.2-11.72V-13.6A23.472,23.472,0,0,1,4.2-7.64q-.88.96-1.76-.2a1.42,1.42,0,0,1,.12-2.08,15.613,15.613,0,0,0,2.68-3.24,28.511,28.511,0,0,0,2.92-5.32,29.3,29.3,0,0,0-1.12-5.36,21.478,21.478,0,0,1-2.68,2.6,1.267,1.267,0,0,1-1.92,0A1.035,1.035,0,0,1,2.48-23a25.377,25.377,0,0,0,3.48-3.52A16.23,16.23,0,0,0,3.2-30.8a1.035,1.035,0,0,1,.16-1.72,1.278,1.278,0,0,1,1.88.24,18.075,18.075,0,0,1,2.44,3.52A18.04,18.04,0,0,0,9.88-32.2ZM19.84-9a.672.672,0,0,0-.76-.76H15.2v6.8a.672.672,0,0,0,.76.76h3.12a.672.672,0,0,0,.76-.76Zm-1.16-9.84a.672.672,0,0,0,.76-.76v-5.2a.672.672,0,0,0-.76-.76H15.96a.672.672,0,0,0-.76.76v5.96ZM15.2-16.28v3.92h5.44a1.485,1.485,0,0,1,1.68,1.68v9.36A1.485,1.485,0,0,1,20.64.36h-6.2a1.485,1.485,0,0,1-1.68-1.68V-26.8a1.167,1.167,0,0,1,1.32-1.32h.72L16-32.08A1.26,1.26,0,0,1,17.72-33q1.36.28.92,1.48l-1.32,3.4H20.2a1.485,1.485,0,0,1,1.68,1.68v8.48a1.485,1.485,0,0,1-1.68,1.68Zm22.96-13.8a1.149,1.149,0,0,1-1.32,1.28H31.88v4.84h3.84a1.485,1.485,0,0,1,1.68,1.68V-5.76a2.464,2.464,0,0,1-.92,2.28,3.273,3.273,0,0,1-1.84.56,1.7,1.7,0,0,1-1.72-1.24q-.4-1.2.92-1.2h.8q.4,0,.4-.44V-20.6a.672.672,0,0,0-.76-.76h-2.4V1.68Q31.88,3,30.64,3T29.4,1.68V-21.36H27.12a.672.672,0,0,0-.76.76V-4.12q0,1.32-1.16,1.32-1.12,0-1.12-1.32V-22.28a1.485,1.485,0,0,1,1.68-1.68H29.4V-28.8H24.76a1.149,1.149,0,0,1-1.32-1.28,1.167,1.167,0,0,1,1.32-1.32H36.84A1.167,1.167,0,0,1,38.16-30.08ZM72.32-28.2a.672.672,0,0,0-.76-.76H49.16a.672.672,0,0,0-.76.76v3.68H71.56a.672.672,0,0,0,.76-.76Zm2.96,4.6a1.485,1.485,0,0,1-1.68,1.68H48.4v2Q48.4-4.4,44.56,1.8q-.52,1.2-1.84.44a1.428,1.428,0,0,1-.8-1.96q3.56-5.64,3.56-20.16v-10a1.485,1.485,0,0,1,1.68-1.68H73.6a1.485,1.485,0,0,1,1.68,1.68ZM65-.28h7.64a1.732,1.732,0,0,0,1.72-.8,6.137,6.137,0,0,0,.6-2.24q0-1.32,1.32-.76A1.738,1.738,0,0,1,77.52-2.2a6.265,6.265,0,0,1-1.16,3.4q-.92,1.24-3.48,1.24H64.76q-3.12,0-4.24-.92Q59.44.6,59.44-2.04V-4.88l-8.88,1.4a1.177,1.177,0,0,1-1.52-1.04,1.087,1.087,0,0,1,1.04-1.44L59.44-7.4v-3.64l-7.6,1.16a1.177,1.177,0,0,1-1.52-1.04,1.122,1.122,0,0,1,1.08-1.44l8.04-1.24V-17q-4.6.8-6.96,1.12a1.544,1.544,0,0,1-1.76-.96q-.4-1.08.88-1.24,11.52-1.52,16.48-3.44a1.685,1.685,0,0,1,1.64.32q1.72,1.32-.4,1.84l-6.96,1.84V-14L72.4-15.56a1.16,1.16,0,0,1,1.48,1.04q.24,1.2-1.04,1.4l-10.48,1.6v3.68l12.8-2A1.177,1.177,0,0,1,76.68-8.8q.24,1.2-1.04,1.4L62.36-5.32v3.28q0,1.12.48,1.44A4.734,4.734,0,0,0,65-.28Zm39.88-21.96q.72,0,.72-.76v-.88q0-.76-.72-.76h-9.8a.672.672,0,0,0-.76.76V-23a.672.672,0,0,0,.76.76Zm1.76-4.16a1.485,1.485,0,0,1,1.68,1.68v2.56a1.485,1.485,0,0,1-1.68,1.68H93.36a1.485,1.485,0,0,1-1.68-1.68v-2.56a1.485,1.485,0,0,1,1.68-1.68ZM92.6-9.76v1.24a.672.672,0,0,0,.76.76h13.12a.672.672,0,0,0,.76-.76V-9.76Zm0-3.68v1.92h14.64v-1.92Zm.76-3.68a.672.672,0,0,0-.76.76v1.16h14.64v-1.16a.672.672,0,0,0-.76-.76ZM110.04-7.6a1.485,1.485,0,0,1-1.68,1.68H91.56A1.485,1.485,0,0,1,89.88-7.6v-9.64a1.485,1.485,0,0,1,1.68-1.68h16.8a1.485,1.485,0,0,1,1.68,1.68ZM85.48-.44a.672.672,0,0,0,.76.76h27.48a.672.672,0,0,0,.76-.76v-27.6a.672.672,0,0,0-.76-.76H86.24a.672.672,0,0,0-.76.76Zm-3-29.52a1.485,1.485,0,0,1,1.68-1.68h31.72a1.485,1.485,0,0,1,1.68,1.68V1.44a1.485,1.485,0,0,1-1.68,1.68H84.16a1.485,1.485,0,0,1-1.68-1.68ZM102.72-5.32a2.338,2.338,0,0,1,2.16-.16,23.545,23.545,0,0,1,6.08,2.68q1.12.68-.16,1.28a2.4,2.4,0,0,1-2.36-.12,20.763,20.763,0,0,0-5.4-2.64Q101.84-4.72,102.72-5.32Zm-8.48-.12a3.653,3.653,0,0,1,2.44-.12q1.28.36.2,1.08a20.421,20.421,0,0,1-5.92,3.04,2.034,2.034,0,0,1-2.2-.44q-.96-.88.24-1.36ZM154.48-25.4v-2.08a.672.672,0,0,0-.76-.76h-2.48v2.84Zm-.76,4.96a.672.672,0,0,0,.76-.76v-2.2h-3.24v2.96ZM141.16-23.4v2.2a.672.672,0,0,0,.76.76h2.32V-23.4Zm.76-4.84a.672.672,0,0,0-.76.76v2.08h3.08v-2.84Zm7.32,4.84h-3v2.96h3Zm-3-2h3v-2.84h-3Zm8.96-4.96a1.485,1.485,0,0,1,1.68,1.68V-20a1.485,1.485,0,0,1-1.68,1.68H140.52A1.485,1.485,0,0,1,138.84-20v-8.68a1.485,1.485,0,0,1,1.68-1.68h3.28v-1.72q0-1.32,1.2-1.32,1.24,0,1.24,1.32v1.72h2.88v-1.72q0-1.32,1.2-1.32,1.24,0,1.24,1.32v1.72Zm1.36,14.12q1.32,0,1.32,1.12T156.56-14H139.28q-1.32,0-1.32-1.12t1.32-1.12Zm-13.24,6.2a.672.672,0,0,0-.76.76v1.84a.672.672,0,0,0,.76.76h9.08a.672.672,0,0,0,.76-.76V-9.28a.672.672,0,0,0-.76-.76Zm12.6,3.68a1.485,1.485,0,0,1-1.68,1.68H141.6a1.485,1.485,0,0,1-1.68-1.68V-10.4a1.485,1.485,0,0,1,1.68-1.68h12.64a1.485,1.485,0,0,1,1.68,1.68ZM134.24-16.2a.672.672,0,0,0,.76-.76v-1.12a.672.672,0,0,0-.76-.76h-8.96a.672.672,0,0,0-.76.76v1.12a.672.672,0,0,0,.76.76Zm-7.16-13.56a.672.672,0,0,0-.76.76v8h2.48v-4.52a1.485,1.485,0,0,1,1.68-1.68h2.68V-29a.672.672,0,0,0-.76-.76ZM130.56-21h2.6v-4.32h-1.84a.672.672,0,0,0-.76.76Zm3.4-11.04a1.485,1.485,0,0,1,1.68,1.68l.4,9.36a1.167,1.167,0,0,1,1.32,1.32v3.08a1.167,1.167,0,0,1-1.32,1.32h-.52V.04A2.376,2.376,0,0,1,134.4,2.4a10.437,10.437,0,0,1-3.16.52,1.912,1.912,0,0,1-1.76-1.28q-.4-1.12.92-1.12h2.04A.458.458,0,0,0,133,0V-5.24l-4.24,2.56q-1.12.68-1.68-.36a1.074,1.074,0,0,1,.6-1.64L133-7.32v-6.76h-6.28v5.36q0,7.96-2.16,10.76a.953.953,0,0,1-1.64.36,1.412,1.412,0,0,1-.44-1.96q1.72-2.24,1.72-9.16v-6.56h-.64a1.167,1.167,0,0,1-1.32-1.32v-3.08q0-1.32,1.64-1.32v-9.36a1.485,1.485,0,0,1,1.68-1.68Zm-2.32,21.96q1.04.76.28,1.6-.72.8-1.72-.04l-2.24-1.84q-1-.84-.32-1.52t1.72.08ZM152.2-.04h4.72q1.32,0,1.32,1.16t-1.32,1.16H138.88q-1.32,0-1.32-1.16t1.32-1.16h4.4l-.96-2.52q-.44-1.24.72-1.56a1.166,1.166,0,0,1,1.6.84l1.28,3.24h3.84l1.28-3.32a1.286,1.286,0,0,1,1.8-.84q1.36.4.76,1.56Z" transform="translate(68 798)" fill="#fff"/>
    <path id="路径_6954" data-name="路径 6954" d="M-3.28-11.58q.12-.34-.26-.34h-7.1A16.411,16.411,0,0,1-12.4-8.24q-.32.5-.98.14-.64-.38-.32-.88a16.426,16.426,0,0,0,2.76-7.12q.12-.58.84-.46t.58.7l-.7,2.62,7.76-.08.34.2a.79.79,0,0,1,.44,1A18.671,18.671,0,0,1-3.32-8a.533.533,0,0,1-.82.26.583.583,0,0,1-.34-.82Zm-10.6-1.94q.6,0,.6.64t-.6.64h-4q-.6,0-.6-.64t.6-.64Zm.64,8.22q.6,0,.6.66t-.6.66h-5.08q-.6,0-.6-.66t.6-.66Zm4.38-5.16q0-.6.7-.6t.7.6v1.9q1.52,7,6.12,8.52.52.26.08.84t-.96.3Q-6.04-.36-7.88-5.72a10.52,10.52,0,0,1-5.74,6.98.751.751,0,0,1-1-.22q-.48-.52.04-.8a10.8,10.8,0,0,0,2.36-1.66,11.211,11.211,0,0,0,1.84-2.04,8.348,8.348,0,0,0,1-2.18,10.927,10.927,0,0,0,.44-2.04q.08-.84.08-1.9ZM1.52-3.24q.12-.58.66-.48.54.08.42.66L1.8.64q-.12.58-.64.38A.584.584,0,0,1,.76.26Zm2.32.12q-.06-.58.44-.68.52-.1.58.48L5.28-.2A.547.547,0,0,1,4.8.48Q4.28.6,4.22.02Zm2.32-.4q-.16-.56.3-.7.48-.16.66.4L8-1.06a.516.516,0,0,1-.32.74q-.5.16-.66-.4ZM6-8.28q-.22-.56.26-.72.5-.16.7.4L7.98-5.86a.524.524,0,0,1-.34.76q-.52.18-.66-.4L6.9-5.78q-5.18.76-5.1.92A.629.629,0,0,1,1-5.32a.716.716,0,0,1,.3-.92q-.04.22.96-1.04a23.121,23.121,0,0,0,1.78-2.5,8.737,8.737,0,0,0-2.38.4.629.629,0,0,1-.8-.46.956.956,0,0,1,.24-1.02q.24.26,1.96-2.86a18.776,18.776,0,0,0,1.2-2.42q.2-.56.8-.3t.34.8A23.222,23.222,0,0,1,2.7-11q-.22.3.16.28l1.92-.16L6-13.16q.28-.52.84-.2a.528.528,0,0,1,.26.82,33.43,33.43,0,0,1-4.08,6q-.24.28.12.24L6.6-6.78Zm8.4,7.14H17a.336.336,0,0,0,.38-.38V-7.04H14.4Zm-4.04-5.9v5.52a.336.336,0,0,0,.38.38h2.42v-5.9Zm2.8-7.26H10.74a.336.336,0,0,0-.38.38V-8.3h2.8Zm4.22,6v-5.62A.336.336,0,0,0,17-14.3H14.4v6ZM9.1-14.88a.672.672,0,0,1,.76-.76h8.06a.672.672,0,0,1,.76.76V-.66a.672.672,0,0,1-.76.76H9.86A.672.672,0,0,1,9.1-.66Z" transform="translate(470 801)" fill="#fff"/>
    <path id="路径_6955" data-name="路径 6955" d="M-18.36-3.32q.08-.52.52-.42.44.08.32.6L-18.4.68q-.12.52-.54.36-.4-.16-.24-.66A14.751,14.751,0,0,0-18.36-3.32Zm2.28.1q-.06-.52.34-.6t.46.44l.46,3.32q.06.52-.36.6T-15.66.1Zm2.34-.38q-.16-.5.22-.6.38-.12.54.38l.94,2.94q.16.5-.24.64-.4.12-.54-.38Zm-.18-4.78q-.2-.5.2-.62t.62.36A13.786,13.786,0,0,1-12-5.7q.12.52-.3.68-.42.14-.56-.38L-13-5.9q-5.38.8-5.3.96a.572.572,0,0,1-.72-.36.6.6,0,0,1,.28-.76q-.02.22.98-1.08a26.214,26.214,0,0,0,1.98-2.72,14.666,14.666,0,0,0-2.68.4.544.544,0,0,1-.7-.36.726.726,0,0,1,.22-.82q.24.26,2.12-3.02a18.98,18.98,0,0,0,1.26-2.5q.2-.5.64-.28.46.2.22.68a26.971,26.971,0,0,1-2.94,4.98q-.22.3.16.28l2.26-.24,1.3-2.34a.446.446,0,0,1,.68-.22q.44.22.18.68a40.357,40.357,0,0,1-4.26,6.28q-.22.28.14.24l3.94-.58Zm8.2,7.54H-2.7a.336.336,0,0,0,.38-.38V-7.2h-3.4ZM-9.88-7.2v5.98a.336.336,0,0,0,.38.38h2.86V-7.2Zm3.24-7.38H-9.5a.336.336,0,0,0-.38.38v6.06h3.24Zm4.32,6.44V-14.2a.336.336,0,0,0-.38-.38H-5.72v6.44Zm-8.5-6.78a.557.557,0,0,1,.64-.62H-2a.557.557,0,0,1,.64.62V-.58A.566.566,0,0,1-2,.06h-8.18a.566.566,0,0,1-.64-.64Zm28.24,2.38V-13.9a.336.336,0,0,0-.38-.38H15.48v1.74Zm-.38,2.56a.336.336,0,0,0,.38-.38v-1.42H15.48v1.8Zm-6.72-1.8v1.42a.336.336,0,0,0,.38.38h1.44v-1.8Zm.38-2.5a.336.336,0,0,0-.38.38v1.36h1.82v-1.74Zm4.02,2.5H12.9v1.8h1.82Zm-1.82-.76h1.82v-1.74H12.9Zm4.72-2.52a.566.566,0,0,1,.64.64v4.58a.566.566,0,0,1-.64.64H10.14a.566.566,0,0,1-.64-.64v-4.58a.566.566,0,0,1,.64-.64h1.92V-16.1q0-.54.42-.54t.42.54v1.04h1.8V-16.1q0-.54.42-.54t.42.54v1.04Zm.7,7.1q.54,0,.54.4t-.54.4H9.56q-.54,0-.54-.4t.54-.4Zm-6.98,2.7a.336.336,0,0,0-.38.38v1.32a.336.336,0,0,0,.38.38h5.14a.336.336,0,0,0,.38-.38V-4.88a.336.336,0,0,0-.38-.38Zm6.44,2.18a.566.566,0,0,1-.64.64H10.72a.566.566,0,0,1-.64-.64v-2.3a.566.566,0,0,1,.64-.64h6.42a.566.566,0,0,1,.64.64ZM6.96-8.04a.566.566,0,0,1,.64.64V.26a.888.888,0,0,1-.48.9,7.861,7.861,0,0,1-1.7.22.816.816,0,0,1-.7-.46Q4.56.54,5.1.56q.98.02,1.3,0,.34-.02.34-.32v-3.1L4.06-1.28q-.46.26-.7-.1Q3.14-1.76,3.6-2L6.74-3.64V-6.88a.336.336,0,0,0-.38-.38H3.46a.336.336,0,0,0-.38.38V-4.3q0,3.86-1.14,5.38-.26.46-.62.16A.525.525,0,0,1,1.24.5q1-1.34,1-4.8V-7.42a.557.557,0,0,1,.64-.62ZM5.92-4.86q.42.32.12.64-.28.3-.68-.04L3.88-5.48q-.4-.34-.16-.6.26-.28.68.04ZM3.32-15.08a.336.336,0,0,0-.38.38v4.26H4.46v-2.44a.566.566,0,0,1,.64-.64H6.8V-14.7a.336.336,0,0,0-.38-.38ZM6.8-10.44v-2.34H5.56a.336.336,0,0,0-.38.38v1.96Zm.22-5.44a.566.566,0,0,1,.64.64v4.8h.22a.566.566,0,0,1,.64.64v1.54q0,.54-.42.54-.4,0-.4-.54V-9.28a.336.336,0,0,0-.38-.38H2.42q-.36,0-.36.38v1.02q0,.54-.42.54-.4,0-.4-.54V-9.8a.566.566,0,0,1,.64-.64H2.1v-4.8a.566.566,0,0,1,.64-.64ZM15.78.2h2.74q.52,0,.52.4T18.5,1H9.3Q8.76,1,8.76.6T9.3.2h2.64L11.3-1.46q-.18-.5.22-.6.4-.12.58.38L12.84.2h2.12l.78-1.96q.18-.5.62-.36.46.14.24.62Z" transform="translate(380 801)" fill="#fff"/>
    <path id="路径_6956" data-name="路径 6956" d="M-3.32-14.9q.22-.32.5-.16.28.14.06.46l-2.06,2.86q-.22.32-.46.2-.22-.14,0-.46Zm-7.12,2.66a.5.5,0,0,1,.04.6q-.18.26-.4-.06l-2-2.82q-.22-.32-.04-.5.2-.2.42.12ZM-1.5-8.3q.32.24.12.48-.18.24-.48,0a43.07,43.07,0,0,0-5.96-3.9A5.238,5.238,0,0,1-9.66-8.98a8.9,8.9,0,0,1-3.4,1.44.51.51,0,0,1-.56-.16q-.18-.24.2-.32a8.077,8.077,0,0,0,3.86-1.8,6.177,6.177,0,0,0,1.52-3.82q.16-1.16.22-2.56,0-.4.28-.4.3,0,.3.4l-.44,3.94ZM-4.92-2.96q-.24.3-.48.18-.22-.14,0-.46l2.32-3.14q.22-.32.5-.16t.04.46Zm-5.58-.76a.454.454,0,0,1,.02.58q-.18.24-.4-.08l-2.1-2.92q-.22-.32-.04-.52.2-.2.42.12Zm-3.96-10.6q.3.26.12.52-.18.24-.46-.02a10.851,10.851,0,0,0-2.84-1.92q-.34-.18-.16-.38a.407.407,0,0,1,.54-.04A9.4,9.4,0,0,1-14.46-14.32ZM-15.6-9.04q.3.26.12.52t-.48,0A9.634,9.634,0,0,0-18.7-10.3q-.34-.18-.16-.4a.407.407,0,0,1,.54-.04A10.565,10.565,0,0,1-15.6-9.04Zm.34,3.46q.16-.36.4-.16a.432.432,0,0,1,.08.56A54.034,54.034,0,0,1-17.76.62q-.18.34-.44.12-.26-.2-.06-.54A48.013,48.013,0,0,0-15.26-5.58Zm7.32-2.44q0-.4.28-.4.3,0,.3.4l-.2,2.54A8.487,8.487,0,0,0-5.32-1.2,6.951,6.951,0,0,0-1.28.8q.38.08.18.34a.506.506,0,0,1-.58.16A7.318,7.318,0,0,1-7.76-4.3a6.621,6.621,0,0,1-2,3.8A9.577,9.577,0,0,1-14.1,1.4a.5.5,0,0,1-.56-.18q-.18-.24.2-.32A9.079,9.079,0,0,0-9.98-1.12,6.718,6.718,0,0,0-8.2-5.28Q-8.02-6.5-7.94-8.02Zm25.48-4.4V-14a.336.336,0,0,0-.38-.38H15.38v1.96Zm-.38,2.58a.336.336,0,0,0,.38-.38v-1.62H15.38v2Zm-7.04-2v1.62a.336.336,0,0,0,.38.38h1.66v-2Zm.38-2.54a.336.336,0,0,0-.38.38v1.58h2.04v-1.96Zm4.3,2.54H12.74v2H14.8Zm-2.06-.58H14.8v-1.96H12.74Zm4.92-2.54a.407.407,0,0,1,.46.46v4.78a.407.407,0,0,1-.46.46H10a.407.407,0,0,1-.46-.46V-14.5a.407.407,0,0,1,.46-.46h2.16V-16.2q0-.4.28-.4.3,0,.3.4v1.24H14.8V-16.2q0-.4.28-.4.3,0,.3.4v1.24Zm.72,7.1q.4,0,.4.3,0,.28-.4.28H9.42q-.4,0-.4-.28,0-.3.4-.3ZM11.12-5.4a.336.336,0,0,0-.38.38v1.56a.336.336,0,0,0,.38.38h5.56a.336.336,0,0,0,.38-.38V-5.02a.336.336,0,0,0-.38-.38Zm6.52,2.44a.407.407,0,0,1-.46.46H10.62a.407.407,0,0,1-.46-.46V-5.52a.407.407,0,0,1,.46-.46h6.56a.407.407,0,0,1,.46.46ZM7.02-7.98a.407.407,0,0,1,.46.46V.42q0,.56-.4.68a7.345,7.345,0,0,1-1.86.14A.556.556,0,0,1,4.68.98Q4.56.72,4.96.74q1.26.02,1.6,0T6.9.42v-3.4L3.78-1.18a.375.375,0,0,1-.54-.1q-.2-.28.14-.46L6.9-3.62V-7.4H3.28a.336.336,0,0,0-.38.38v2.76q0,3.72-1.26,5.42-.18.34-.4.1A.436.436,0,0,1,1.2.7Q2.32-.76,2.32-4.26V-7.52a.407.407,0,0,1,.46-.46ZM6.04-4.7q.32.24.08.5a.363.363,0,0,1-.54,0L3.74-5.7q-.3-.24-.1-.44.22-.22.52.02ZM3.16-15.22a.336.336,0,0,0-.38.38v4.44H4.52V-13a.407.407,0,0,1,.46-.46H6.96v-1.38a.336.336,0,0,0-.38-.38Zm3.8,4.82v-2.48H5.48a.336.336,0,0,0-.38.38v2.1Zm.12-5.4a.407.407,0,0,1,.46.46v4.94h.42a.407.407,0,0,1,.46.46v1.78q0,.4-.3.4-.28,0-.28-.4V-9.44a.336.336,0,0,0-.38-.38H2.28a.336.336,0,0,0-.38.38v1.28q0,.4-.3.4-.28,0-.28-.4V-9.94a.407.407,0,0,1,.46-.46H2.2v-4.94a.407.407,0,0,1,.46-.46ZM15.56.34h3.02q.4,0,.4.28,0,.3-.4.3H9.14q-.4,0-.4-.3,0-.28.4-.28h3L11.4-1.64q-.14-.36.12-.42.28-.08.42.28l.8,2.12H15l.88-2.2q.14-.36.44-.26.3.08.14.44Z" transform="translate(322 801)" fill="#fff"/>
    <path id="路径_6957" data-name="路径 6957" d="M-13.34-9.8a.336.336,0,0,0-.38.38v1.2a.336.336,0,0,0,.38.38h6.78a.336.336,0,0,0,.38-.38v-1.2a.336.336,0,0,0-.38-.38ZM-3.7-5.08a.742.742,0,0,1,.84.84V-.9a1.905,1.905,0,0,1-.18.92,1.2,1.2,0,0,1-.7.52,10.123,10.123,0,0,1-2.4.3A1.124,1.124,0,0,1-7.06.06q-.26-.68.4-.68a18.79,18.79,0,0,0,1.9.02q.4-.02.4-.32V-3.34a.336.336,0,0,0-.38-.38H-9V.88q0,.66-.76.66-.74,0-.74-.66v-4.6h-4.56a.336.336,0,0,0-.38.38V-.02q0,.66-.74.66t-.74-.66V-4.24a.734.734,0,0,1,.82-.84h5.6V-6.72h-3.8a.742.742,0,0,1-.84-.84v-2.52a.742.742,0,0,1,.84-.84h8.76a.742.742,0,0,1,.84.84v2.52a.742.742,0,0,1-.84.84H-9v1.64ZM-5.16-16.04a.85.85,0,0,1,1.12-.26q.78.26.36.76l-1.16,1.4a.823.823,0,0,1-1.02.26q-.6-.26-.24-.8Zm2.68,2.4a.742.742,0,0,1,.84.84v2.76q0,.66-.74.66-.72,0-.72-.66v-1.92a.336.336,0,0,0-.38-.38H-16.42a.336.336,0,0,0-.38.38v1.92q0,.66-.72.66-.7,0-.7-.66V-12.8a.742.742,0,0,1,.84-.84h6.76v-2.44q0-.66.74-.66.76,0,.76.66v2.44Zm-11.4-1.14a.544.544,0,0,1-.3.86.766.766,0,0,1-1.02-.24l-1-1.32q-.38-.52.28-.78a.892.892,0,0,1,1.1.2A4.863,4.863,0,0,1-13.88-14.78ZM8.44-3.04q.44.48-.08,1.04-.5.54-.88,0A32.346,32.346,0,0,0,5.24-4.8Q4.44-.84,2.28.84q-.46.46-.96-.08a.642.642,0,0,1-.04-1q2.58-1.82,2.9-7.24H1.6a.583.583,0,0,1-.66-.66.592.592,0,0,1,.66-.68H4.24V-12.1H2.02a.583.583,0,0,1-.66-.66.583.583,0,0,1,.66-.66H4.24v-2.44a.592.592,0,0,1,.68-.66q.7,0,.7.66v2.44H7.78a.583.583,0,0,1,.66.66.583.583,0,0,1-.66.66H5.62v3.28H8.14a.592.592,0,0,1,.66.68.583.583,0,0,1-.66.66H5.56l-.1,1.16Zm2.48-5.2v1.62a.336.336,0,0,0,.38.38h4.94a.336.336,0,0,0,.38-.38V-8.24Zm0-3.18v1.96h5.7v-1.96Zm.38-3.18a.336.336,0,0,0-.38.38v1.56h5.7v-1.56a.336.336,0,0,0-.38-.38ZM16.18-.14h1.26q.34,0,.44-.44a9.929,9.929,0,0,0,.14-1.54q0-.66.62-.38a.929.929,0,0,1,.6.94,5.264,5.264,0,0,1-.4,2.04,1.254,1.254,0,0,1-1.24.7H15.98A1.745,1.745,0,0,1,14.64.8a2.376,2.376,0,0,1-.32-1.46V-4.9H12.54A9.176,9.176,0,0,1,11.2-.88,5.384,5.384,0,0,1,8.36,1.26.8.8,0,0,1,7.34.94Q6.92.38,7.52.16A4.8,4.8,0,0,0,9.28-.9a4.669,4.669,0,0,0,1.3-1.72,9.5,9.5,0,0,0,.56-2.28h-.76a.742.742,0,0,1-.84-.84v-9.38a.742.742,0,0,1,.84-.84h6.84a.742.742,0,0,1,.84.84v9.38a.742.742,0,0,1-.84.84H15.68V-.66a.789.789,0,0,0,.08.44A.738.738,0,0,0,16.18-.14Z" transform="translate(573 801)" fill="#fff"/>
    <path id="路径_6958" data-name="路径 6958" d="M-9.02-12.02H-6.2l.78-1.76H-9.38l.34.84Q-8.7-12.1-9.02-12.02ZM-6.2-4.46a.336.336,0,0,0,.38-.38V-5.4a.336.336,0,0,0-.38-.38H-8.14a.336.336,0,0,0-.38.38v.56a.336.336,0,0,0,.38.38Zm-4.58-8.74q.3-.58-.36-.58h-1.72q-.66,0-.66-.72,0-.74.66-.74l4.44-.02a1.368,1.368,0,0,1,.16-1.46.722.722,0,0,1,.96.3l.78,1.18h4.54a.778.778,0,0,1,.88.88.513.513,0,0,1-.58.58H-3.82q.24.06.14.26l-.78,1.5h1.92a.778.778,0,0,1,.88.88v7.78q0,1.2-.66,1.5a4.873,4.873,0,0,1-1.94.3.948.948,0,0,1-.92-.76q-.26-.78.4-.78h1.12q.3.02.3-.3v-6.78a.336.336,0,0,0-.38-.38H-6.48v1.22H-4.4q.66,0,.66.6t-.66.6H-6.48v1.26h1.12A.778.778,0,0,1-4.48-6v1.76a.778.778,0,0,1-.88.88h-3.6a.778.778,0,0,1-.88-.88V-6a.778.778,0,0,1,.88-.88h1.08V-8.14H-9.9q-.66,0-.66-.6t.66-.6h2.02v-1.22H-10.6a.336.336,0,0,0-.38.38v8q0,.66-.84.66t-.84-.66v-8.96a.778.778,0,0,1,.88-.88h1.38Zm-4.02-1.06q.42.5-.3,1.02-.72.5-1.12,0l-1.74-2.16q-.4-.5.28-.92.7-.44,1.12.06Zm-.42,6.92a3.081,3.081,0,0,1,1.12.18q.46.16.36.8L-14.88-2.6A4.341,4.341,0,0,0-12.36-.78a21.291,21.291,0,0,0,5.1.44,59.515,59.515,0,0,0,6-.26Q-.6-.64-.9.22q-.3.88-.96.9-2.26.16-5.68.16a20.449,20.449,0,0,1-5.2-.5A5.209,5.209,0,0,1-15.6-1.18a7.08,7.08,0,0,1-2.08,2.4q-.52.4-1.14-.24-.6-.62-.08-1.02,2.4-1.4,3.28-5.44.1-.36-.28-.36h-2.18q-.6.3-.92-.48-.3-.8.24-1.16l.58-.4a23.6,23.6,0,0,0,1.9-2.5q.2-.3-.18-.3h-1.88q-.66,0-.66-.74,0-.76.66-.76l3.02-.1a2.815,2.815,0,0,1,1.24.28q.6.26.22.78L-16.54-7.6q-.22.3.16.3Zm26.14.72h4.82A.336.336,0,0,0,16.12-7v-4.08a.336.336,0,0,0-.38-.38H10.92ZM3.8-7a.336.336,0,0,0,.38.38h4.8v-4.84H4.18a.336.336,0,0,0-.38.38Zm7.12-6.28h6.26a.778.778,0,0,1,.88.88v6.72a.778.778,0,0,1-.88.88H10.92V.9q0,.66-.98.66-.96,0-.96-.66V-4.8H2.82a.778.778,0,0,1-.88-.88V-12.4a.778.778,0,0,1,.88-.88H8.98V-16.1q0-.66.96-.66.98,0,.98.66Z" transform="translate(664 801)" fill="#fff"/>
    <path id="路径_6959" data-name="路径 6959" d="M-13.2-14.92q.18-.68,1.16-.38t.72.96l-1.14,2.8a.674.674,0,0,1-.98.4.74.74,0,0,1-.54-.96Zm-3.58,2.8q.16.7-.72.92-.86.22-1-.48l-.58-2.88q-.14-.7.68-.88.82-.2.98.5Zm5.18,7.16q.4.58-.36,1.44t-1.06.22l-1.16-2.52V1.04q0,.72-1.1.72-1.08,0-1.08-.72V-5.84q-.84,3.76-1.78,4.74-.4.6-.9-.62a2.284,2.284,0,0,1-.14-1.86l.78-1.36a5.621,5.621,0,0,0,.52-1.46.784.784,0,0,1,1.14-.64l.38.14V-8.1H-18.5q-.72,0-.72-1.1,0-1.12.72-1.12h2.14v-5.9q0-.72,1.08-.72,1.1,0,1.1.72v5.9h2q.72,0,.72,1.12,0,1.1-.72,1.1h-2v1.46l.34-.24a1.088,1.088,0,0,1,1.02.22Zm3.18,1.08V-.84h3.84V-3.88Zm3.84-9.7a.336.336,0,0,0-.38-.38H-8.04a.336.336,0,0,0-.38.38v2.52h3.84Zm0,7.58V-8.94H-8.42V-6Zm2.4,5.16h.76Q-.7-.84-.7.26t-.72,1.1H-11.8q-.72,0-.72-1.1t.72-1.1h1.1v-14.4a.813.813,0,0,1,.92-.92H-3.1a.813.813,0,0,1,.92.92ZM16.98-13.02v-.54a.336.336,0,0,0-.38-.38h-.68v.92Zm-.38,2.38a.336.336,0,0,0,.38-.38v-.56H15.92v.94Zm-5.54-.94v.56a.336.336,0,0,0,.38.38h.64v-.94Zm.38-2.36a.336.336,0,0,0-.38.38v.54h1.02v-.92Zm3.04,2.36h-.96v.94h.96Zm-.96-1.44h.96v-.92h-.96ZM17.9-15.5a.8.8,0,0,1,.92.9V-10a.813.813,0,0,1-.92.92H10.22a.8.8,0,0,1-.92-.9v-4.6a.813.813,0,0,1,.92-.92h1.44v-.7q0-.72.92-.72t.92.72v.7h.88v-.7q0-.72.92-.72.94,0,.94.72v.7Zm.58,7.1q.72,0,.72.86,0,.84-.72.84H9.72Q9-6.7,9-7.54q0-.86.72-.86ZM3.74-5.02v.6q0,.86-.06,1.84L6.08-3.7v-.88l-.32.36A1.106,1.106,0,0,1,4.7-4.2Zm.08-9.62a.336.336,0,0,0-.38.38v3.64h.78V-12.9a.813.813,0,0,1,.92-.92H6.16v-.44a.336.336,0,0,0-.38-.38Zm1.6,4.02h.74v-1.86H5.8a.336.336,0,0,0-.38.38Zm1.34,2.4a.336.336,0,0,0,.38-.38v-.04a.336.336,0,0,0-.38-.38H2.94a.336.336,0,0,0-.38.38v.04a.336.336,0,0,0,.38.38ZM3.74-6.68l.04.34q.04.72.72.48l.62.14.96.68v-.92a1.093,1.093,0,0,0-.78-.72Zm5.2-1.56q0,.72-.9.72L7.88.72a1.244,1.244,0,0,1-.62.64,3.552,3.552,0,0,1-1.52.34,1.154,1.154,0,0,1-1-.94Q4.48-.1,5.2-.1h.62a.212.212,0,0,0,.26-.24V-2.16l-1.14.74a.731.731,0,0,1-1.2-.38l-.12-.24a7.259,7.259,0,0,1-.86,3.2q-.34.64-1.18.06Q.76.66,1.08.02q.74-.98.74-4.48V-7.52H1.56a.636.636,0,0,1-.72-.72V-9.9q0-.72.76-.72V-15.4a.813.813,0,0,1,.92-.92H7.18a.813.813,0,0,1,.92.92l.12,4.78a.636.636,0,0,1,.72.72Zm6.52,6.1H12.5L13.18-.3H14.8ZM12.22-4.6a.336.336,0,0,0-.38.38v.28a.336.336,0,0,0,.38.38H15.8a.336.336,0,0,0,.38-.38v-.28a.336.336,0,0,0-.38-.38ZM16.76-.3h1.88q.72,0,.72.86t-.72.86H9.52q-.72,0-.72-.86T9.52-.3h1.64l-.3-.78a.969.969,0,0,1,.44-.88l.58-.18H10.7a.813.813,0,0,1-.92-.92V-5.12a.813.813,0,0,1,.92-.92h6.76a.813.813,0,0,1,.92.92v2.06a.813.813,0,0,1-.92.92H16.1l.84.24a.748.748,0,0,1,.3.84Z" transform="translate(741 801)" fill="#fff"/>
    <path id="路径_6960" data-name="路径 6960" d="M-27.88-11.68v-1.24h-2.78q-.76,0-.76-1.3,0-1.32.76-1.32h2.78v-.82q0-.76,1.44-.76t1.44.76v.82h3.1q.76,0,.76,1.32,0,1.3-.76,1.3H-25v1.24h2.32q.76,0,.76,1.34T-22.68-9H-30q-.76,0-.76-1.34t.76-1.34ZM-31.8-6.06q.16,1.34-.58,1.52l-1.04.28v5.4q0,.76-1.38.76-1.36,0-1.36-.76V-3.58l-1.7.42q-.74.18-1.1-1.3-.34-1.48.4-1.6l2.4-.46v-4.04h-.86a9.06,9.06,0,0,1-.42,1.72q-.2.72-1.22.34-1-.4-.78-1.12a17.289,17.289,0,0,0,.84-5.12q.04-.76,1.1-.6,1.08.16,1.02.92l-.12,1.1h.44v-3.02q0-.76,1.36-.76,1.38,0,1.38.76v3.02h.8q.76,0,.76,1.38t-.76,1.38h-.8v3.48l.74-.16Q-31.94-7.4-31.8-6.06Zm10.34-1.46q.76,0,.76,1.34,0,1.32-.76,1.32h-.94v3.62A4.19,4.19,0,0,1-22.66.42a1.73,1.73,0,0,1-.9.92,5.882,5.882,0,0,1-2.68.48A1.033,1.033,0,0,1-27.36,1L-27.6.22q-.38-1.24.92-1.2h.4a3.256,3.256,0,0,0,.92-.06.318.318,0,0,0,.08-.26V-4.86h-3l1.62,2.06q.46.6-.68,1.36-1.14.74-1.58.12l-1.16-1.64a.823.823,0,0,1,.26-1.34l.88-.56h-1.72q-.76,0-.76-1.32,0-1.34.76-1.34h5.38V-7.9q0-.76,1.44-.76t1.44.76v.38Zm9.9,2.3q.48.58-.42,1.62-.9,1.02-1.22.34L-14-4.94V1.14q0,.76-1.34.76-1.32,0-1.32-.76v-5.4a8.379,8.379,0,0,1-1.42,3.4q-.44.6-1.02-.92a2.706,2.706,0,0,1-.18-2.16l.68-1.16a4.26,4.26,0,0,0,.42-1.12.824.824,0,0,1,1.22-.68l.3.1v-.96h-1.92q-.76,0-.76-1.34,0-1.36.76-1.36h1.92v-5.88q0-.76,1.32-.76,1.34,0,1.34.76v3.76l.58-2.42q.16-.74,1.32-.38,1.18.36.9,1.06l-1.02,2.5a.887.887,0,0,1-1.26.56l-.52-.2v1h1.84q.76,0,.76,1.36,0,1.34-.76,1.34H-14v1.18l.18-.14a1.308,1.308,0,0,1,1.14.18Zm3.46,1.6v2.5h3.26v-2.5Zm3.26-9.64a.336.336,0,0,0-.38-.38h-2.5a.336.336,0,0,0-.38.38v2.02h3.26Zm0,7.06V-8.66H-8.1V-6.2Zm2.92,5.08h.62q.76,0,.76,1.34T-1.3,1.56H-11.76q-.76,0-.76-1.34t.76-1.34h.88V-15.34a.866.866,0,0,1,.98-.98h7a.866.866,0,0,1,.98.98ZM-16.8-12.44q.14.74-.9,1.1-1.02.34-1.14-.4l-.5-2.84q-.12-.74.86-.98,1-.24,1.14.5Z" transform="translate(828 801)" fill="#fff"/>
    <g id="组_4853" data-name="组 4853" transform="translate(0 905)">
      <rect id="矩形_3599" data-name="矩形 3599" width="872" height="56" fill="#48d7dd"/>
      <text id="_7_種字重" data-name="7 種字重" transform="translate(836 36)" fill="#fff" font-size="24" font-family="SweiGothicCJKtc-Regular, 獅尾圓體"><tspan x="-90.696" y="0">7 種字重</tspan></text>
    </g>
    <path id="路径_6961" data-name="路径 6961" d="M12.16.52Q6.04.52,2.88-3q-1-.84.12-2.08,1.12-1.28,2.08-.4Q7.56-2.72,12.2-2.72A7.1,7.1,0,0,0,16.68-4a4.25,4.25,0,0,0,1.68-3.52,3.794,3.794,0,0,0-1.48-3.28,17.4,17.4,0,0,0-3.4-1.92L9.24-14.56q-5.96-2.56-5.96-7.52a7.014,7.014,0,0,1,2.6-5.6,10.021,10.021,0,0,1,6.64-2.2q5.12,0,7.64,2.8,1,.84,0,2.04-.96,1.16-1.96.36a7.692,7.692,0,0,0-5.68-1.96,6.269,6.269,0,0,0-4,1.2,3.758,3.758,0,0,0-1.48,3.12,4.046,4.046,0,0,0,2.16,3.6q.96.52,2.68,1.28l4.2,1.8a12.693,12.693,0,0,1,4.48,3.04,7.424,7.424,0,0,1,1.56,5.08,7.307,7.307,0,0,1-2.76,5.68A10.6,10.6,0,0,1,12.16.52ZM32.52,0A1.807,1.807,0,0,1,30.6-1.44L25.28-20.48q-.32-1.24,1.52-1.24,1.88,0,2.16,1.28L33.4-3.08l4.48-17.2a1.748,1.748,0,0,1,1.88-1.44h.72a1.526,1.526,0,0,1,1.64,1.24l4.6,17.4,4.4-17.36q.32-1.28,2.04-1.28t1.4,1.24L49.4-1.44A1.748,1.748,0,0,1,47.52,0H46.16a1.748,1.748,0,0,1-1.88-1.44L39.8-17.96,35.64-1.48A1.781,1.781,0,0,1,33.72,0ZM68.4.52a9.886,9.886,0,0,1-7.44-3.08A11.337,11.337,0,0,1,58-10.76a11.773,11.773,0,0,1,2.92-8.32,9.071,9.071,0,0,1,6.92-3.2,7.749,7.749,0,0,1,6.32,2.76,11.226,11.226,0,0,1,2.28,7.44l-.08.76A1.249,1.249,0,0,1,74.96-10H62.4q-.76,0-.68.76a7.113,7.113,0,0,0,2.04,4.8A6.668,6.668,0,0,0,68.72-2.4a7.215,7.215,0,0,0,4.4-1.08,1.168,1.168,0,0,1,1.8.56,1.181,1.181,0,0,1-.48,1.84A10.429,10.429,0,0,1,68.4.52ZM61.72-13.36q-.12.72.64.72H72.48a.672.672,0,0,0,.76-.76,6.324,6.324,0,0,0-1.44-4.2,4.682,4.682,0,0,0-3.88-1.76,5.656,5.656,0,0,0-4.24,1.84A6.613,6.613,0,0,0,61.72-13.36ZM83.6,0q-1.8,0-1.8-1.32V-20.4q0-1.32,1.8-1.32,1.84,0,1.84,1.32V-1.32Q85.44,0,83.6,0Zm1.8-26.84a2.464,2.464,0,0,1-1.76.64,2.464,2.464,0,0,1-1.76-.64,2.381,2.381,0,0,1-.68-1.76,2.249,2.249,0,0,1,.68-1.72A2.381,2.381,0,0,1,83.64-31a2.381,2.381,0,0,1,1.76.68,2.249,2.249,0,0,1,.68,1.72A2.381,2.381,0,0,1,85.4-26.84ZM113.72-2.88Q110.44.52,104.6.52a12.23,12.23,0,0,1-9.52-4.08q-3.64-4.08-3.64-11.08T95.2-25.76a12.511,12.511,0,0,1,9.68-4.12q5.04,0,7.48,2.8.96.84-.04,2.04t-2,.36q-1.64-1.96-5.36-1.96a8.707,8.707,0,0,0-7.08,3.2q-2.64,3.2-2.64,8.76,0,5.52,2.56,8.76a8.74,8.74,0,0,0,7.24,3.2,7.448,7.448,0,0,0,5.28-1.72v-6.92a.672.672,0,0,0-.76-.76h-4.12q-1.32,0-1.32-1.52,0-1.56,1.32-1.56h6.6a1.485,1.485,0,0,1,1.68,1.68Zm22.2.32A9.439,9.439,0,0,1,128.8.52a9.5,9.5,0,0,1-7.14-3.08,11.522,11.522,0,0,1-2.94-8.3,11.593,11.593,0,0,1,2.94-8.32,9.474,9.474,0,0,1,7.14-3.1,9.474,9.474,0,0,1,7.14,3.1,11.593,11.593,0,0,1,2.94,8.32A11.475,11.475,0,0,1,135.92-2.56ZM124.24-4.8a5.434,5.434,0,0,0,4.56,2.28,5.487,5.487,0,0,0,4.58-2.28,9.7,9.7,0,0,0,1.74-6.04,9.877,9.877,0,0,0-1.74-6.08,5.437,5.437,0,0,0-4.56-2.32,5.437,5.437,0,0,0-4.56,2.32,9.877,9.877,0,0,0-1.74,6.08A9.78,9.78,0,0,0,124.24-4.8Zm30.88,3.24q.32,1.28-1.68,1.68a9.67,9.67,0,0,1-3.28.2q-4.92.2-4.92-7.04V-18.76h-1.92A1.185,1.185,0,0,1,142-20.12q0-1.4,1.32-1.44l2.08-.16.36-4.8q.08-1.32,1.6-1.32t1.52,1.32v4.8h4.56q1.32,0,1.32,1.48t-1.32,1.48h-4.56V-6.64a5.359,5.359,0,0,0,.76,3.16,3.009,3.009,0,0,0,2.6,1.04l1.2-.12a1.075,1.075,0,0,1,1.6.84ZM161.48,0q-1.8,0-1.8-1.32v-29.2q0-1.32,1.8-1.32,1.84,0,1.84,1.32l-.12,11.88q3.64-3.64,7.2-3.64,6.64,0,6.64,8.52V-1.32Q177.04,0,175.2,0q-1.8,0-1.8-1.32V-13.28a7.546,7.546,0,0,0-1-4.4,3.22,3.22,0,0,0-2.84-1.4,6.094,6.094,0,0,0-3.16.76,16.915,16.915,0,0,0-3.08,2.56V-1.32Q163.32,0,161.48,0Zm24.28,0q-1.8,0-1.8-1.32V-20.4q0-1.32,1.8-1.32,1.84,0,1.84,1.32V-1.32Q187.6,0,185.76,0Zm1.8-26.84a2.464,2.464,0,0,1-1.76.64,2.464,2.464,0,0,1-1.76-.64,2.381,2.381,0,0,1-.68-1.76,2.249,2.249,0,0,1,.68-1.72A2.381,2.381,0,0,1,185.8-31a2.381,2.381,0,0,1,1.76.68,2.249,2.249,0,0,1,.68,1.72A2.381,2.381,0,0,1,187.56-26.84Zm22.2,23.4a1.27,1.27,0,0,1-.24,1.96q-2.04,2-6.24,2a9.371,9.371,0,0,1-7.08-3.04,11.548,11.548,0,0,1-2.88-8.28,11.381,11.381,0,0,1,3.04-8.36,10.072,10.072,0,0,1,7.44-3.12,7.385,7.385,0,0,1,5.32,1.8q1.04.76.08,1.96-.92,1.2-1.96.4a4.53,4.53,0,0,0-3.28-1.12,6.062,6.062,0,0,0-4.92,2.36,9.226,9.226,0,0,0-1.92,6.08,9.263,9.263,0,0,0,1.84,6,5.908,5.908,0,0,0,4.76,2.28,5.785,5.785,0,0,0,4.24-1.36Q208.96-4.68,209.76-3.44Z" transform="translate(68 870)" fill="#fff"/>
    <path id="路径_6962" data-name="路径 6962" d="M-100.24,0a.742.742,0,0,1-.84-.84v-13a.742.742,0,0,1,.84-.84h2.84a6.7,6.7,0,0,1,5.14,1.9,7.557,7.557,0,0,1,1.78,5.4,7.751,7.751,0,0,1-1.78,5.44A6.483,6.483,0,0,1-97.32,0Zm1.02-1.9a.336.336,0,0,0,.38.38h1.28A4.8,4.8,0,0,0-93.7-3.04a6.489,6.489,0,0,0,1.3-4.34,6.327,6.327,0,0,0-1.3-4.3,4.865,4.865,0,0,0-3.86-1.48h-1.28a.336.336,0,0,0-.38.38ZM-83.12.26a4.943,4.943,0,0,1-3.72-1.54,5.668,5.668,0,0,1-1.48-4.1,5.887,5.887,0,0,1,1.46-4.16,4.535,4.535,0,0,1,3.46-1.6,3.875,3.875,0,0,1,3.16,1.38A5.613,5.613,0,0,1-79.1-6.04l-.04.38a.624.624,0,0,1-.7.66h-6.28q-.38,0-.34.38a3.557,3.557,0,0,0,1.02,2.4A3.334,3.334,0,0,0-82.96-1.2a3.607,3.607,0,0,0,2.2-.54.584.584,0,0,1,.9.28.59.59,0,0,1-.24.92A5.214,5.214,0,0,1-83.12.26Zm-3.34-6.94q-.06.36.32.36h5.06a.336.336,0,0,0,.38-.38,3.162,3.162,0,0,0-.72-2.1,2.341,2.341,0,0,0-1.94-.88,2.828,2.828,0,0,0-2.12.92A3.307,3.307,0,0,0-86.46-6.68ZM-75.52,0q-.9,0-.9-.66V-10.2q0-.66.74-.66.76,0,.82.66l.1.92a4.871,4.871,0,0,1,3.44-1.86,2.889,2.889,0,0,1,3,2.08q1.9-2.08,3.58-2.08,3.3,0,3.3,4.26V-.66q0,.66-.92.66-.9,0-.9-.66V-6.64a3.773,3.773,0,0,0-.5-2.2,1.822,1.822,0,0,0-1.62-.7q-1.12,0-2.64,1.66V-.66q0,.66-.92.66-.9,0-.9-.66V-6.64a3.773,3.773,0,0,0-.5-2.2,1.712,1.712,0,0,0-1.52-.7A4,4,0,0,0-74.6-7.88V-.66Q-74.6,0-75.52,0ZM-57,0q-.9,0-.9-.66V-10.2q0-.66.9-.66.92,0,.92.66V-.66Q-56.08,0-57,0Zm.9-13.42a1.232,1.232,0,0,1-.88.32,1.232,1.232,0,0,1-.88-.32,1.191,1.191,0,0,1-.34-.88,1.125,1.125,0,0,1,.34-.86,1.191,1.191,0,0,1,.88-.34,1.191,1.191,0,0,1,.88.34,1.125,1.125,0,0,1,.34.86A1.191,1.191,0,0,1-56.1-13.42Zm3.44,8.52q-.66,0-.66-.7t.66-.7h3.8q.66,0,.66.7t-.66.7Zm8.2,4.9a.742.742,0,0,1-.84-.84V-14.02q0-.66.92-.66.94,0,.94.66V-1.96a.336.336,0,0,0,.38.38h5.36q.66,0,.66.8,0,.78-.66.78ZM-33.7,0q-.9,0-.9-.66V-10.2q0-.66.9-.66.92,0,.92.66V-.66Q-32.78,0-33.7,0Zm.9-13.42a1.232,1.232,0,0,1-.88.32,1.232,1.232,0,0,1-.88-.32,1.191,1.191,0,0,1-.34-.88,1.125,1.125,0,0,1,.34-.86,1.191,1.191,0,0,1,.88-.34,1.191,1.191,0,0,1,.88.34,1.125,1.125,0,0,1,.34.86A1.191,1.191,0,0,1-32.8-13.42ZM-19.94,1.24A3.216,3.216,0,0,1-21.46,3.9,6.278,6.278,0,0,1-25.24,5a6.425,6.425,0,0,1-3.46-.78,2.407,2.407,0,0,1-1.22-2.16,2.941,2.941,0,0,1,1.6-2.44,2.069,2.069,0,0,1-1-1.82A2.521,2.521,0,0,1-28.1-4.26a3.786,3.786,0,0,1-1.42-2.98,3.606,3.606,0,0,1,1.18-2.82,4.183,4.183,0,0,1,2.9-1.08,4.371,4.371,0,0,1,1.52.28h3.12q.66,0,.66.7t-.66.7h-1.56a3.161,3.161,0,0,1,.88,2.4,3.351,3.351,0,0,1-1.14,2.58,3.983,3.983,0,0,1-2.82,1.04,3.574,3.574,0,0,1-1.62-.38,1.715,1.715,0,0,0-.7,1.3q0,1.18,1.9,1.18h2.12Q-19.94-1.34-19.94,1.24ZM-27.1-5.38a2.2,2.2,0,0,0,1.64.7,2.226,2.226,0,0,0,1.66-.7,2.626,2.626,0,0,0,.68-1.88A2.486,2.486,0,0,0-23.8-9.1a2.185,2.185,0,0,0-1.66-.7,2.162,2.162,0,0,0-1.64.7,2.529,2.529,0,0,0-.66,1.84A2.673,2.673,0,0,0-27.1-5.38Zm-1.22,7.12a1.663,1.663,0,0,0,.84,1.5,4.4,4.4,0,0,0,2.32.52,4.215,4.215,0,0,0,2.46-.68,1.833,1.833,0,0,0,.98-1.48A1.18,1.18,0,0,0-22.28.48a3.54,3.54,0,0,0-1.66-.3h-1.88A5.763,5.763,0,0,1-27.22,0,2.173,2.173,0,0,0-28.32,1.74ZM-16.94,0q-.9,0-.9-.66v-14.6q0-.66.9-.66.92,0,.92.66l-.06,5.94a5.214,5.214,0,0,1,3.6-1.82q3.32,0,3.32,4.26V-.66q0,.66-.92.66-.9,0-.9-.66V-6.64a3.773,3.773,0,0,0-.5-2.2,1.61,1.61,0,0,0-1.42-.7,3.047,3.047,0,0,0-1.58.38,8.458,8.458,0,0,0-1.54,1.28V-.66Q-16.02,0-16.94,0ZM-.44-.78q.16.64-.84.84a4.835,4.835,0,0,1-1.64.1q-2.46.1-2.46-3.52V-9.38h-.96A.592.592,0,0,1-7-10.06q0-.7.66-.72l1.04-.08.18-2.4q.04-.66.8-.66t.76.66v2.4h2.28q.66,0,.66.74t-.66.74H-3.56v6.06a2.68,2.68,0,0,0,.38,1.58,1.5,1.5,0,0,0,1.3.52l.6-.06a.538.538,0,0,1,.8.42Z" transform="translate(521 868)" fill="#fff"/>
    <path id="路径_6963" data-name="路径 6963" d="M-42.5,0a.566.566,0,0,1-.64-.64v-13.4q0-.54.6-.54t.6.54V-1.42a.336.336,0,0,0,.38.38h5.72q.54,0,.54.52a.46.46,0,0,1-.52.52Zm10.84-.54q0,.54-.58.54t-.58-.54v-9.58q0-.54.58-.54t.58.54Zm.1-12.88a.92.92,0,0,1-.68.26.894.894,0,0,1-.66-.26.989.989,0,0,1-.26-.7.879.879,0,0,1,.26-.68.894.894,0,0,1,.66-.26.92.92,0,0,1,.68.26.879.879,0,0,1,.26.68A.989.989,0,0,1-31.56-13.42ZM-20.5,4a5.711,5.711,0,0,1-3.56,1.08,5.935,5.935,0,0,1-3.32-.8,2.462,2.462,0,0,1-1.2-2.18,3.275,3.275,0,0,1,1.6-2.58,1.823,1.823,0,0,1-.96-1.68,2.51,2.51,0,0,1,1.18-2.02,5.063,5.063,0,0,1-.96-1.3,3.629,3.629,0,0,1-.4-1.68,3.588,3.588,0,0,1,1.1-2.7,3.774,3.774,0,0,1,2.72-1.08,3.694,3.694,0,0,1,1.42.28h3.1q.54,0,.54.48t-.54.48h-1.86a3.251,3.251,0,0,1,1.1,2.58,3.6,3.6,0,0,1-1.08,2.68A3.675,3.675,0,0,1-24.3-3.38a3.37,3.37,0,0,1-1.72-.44,1.919,1.919,0,0,0-.84,1.48q0,1.34,2,1.34h2.24a4.744,4.744,0,0,1,2.68.6,2.2,2.2,0,0,1,.88,1.96A3.057,3.057,0,0,1-20.5,4Zm-5.68-9.06a2.508,2.508,0,0,0,1.86.8,2.531,2.531,0,0,0,1.88-.8,2.923,2.923,0,0,0,.78-2.1,2.826,2.826,0,0,0-.76-2.06A2.52,2.52,0,0,0-24.3-10a2.586,2.586,0,0,0-1.9.78,2.826,2.826,0,0,0-.76,2.06A2.923,2.923,0,0,0-26.18-5.06Zm-.4,8.66a4.661,4.661,0,0,0,2.56.6,4.527,4.527,0,0,0,2.72-.78A2.167,2.167,0,0,0-20.22,1.7a1.368,1.368,0,0,0-.6-1.28A3.62,3.62,0,0,0-22.64.06l-3.14-.18a.982.982,0,0,0-.66.24,2.149,2.149,0,0,0-1.04,1.9A1.824,1.824,0,0,0-26.58,3.6ZM-15.66-.54q0,.54-.58.54t-.58-.54V-15.36q0-.54.58-.54t.58.54l-.02,6.34a8.907,8.907,0,0,1,1.78-1.42,3.637,3.637,0,0,1,1.86-.5q3.24,0,3.24,4.12V-.54q0,.54-.58.54t-.58-.54V-6.66a4.27,4.27,0,0,0-.56-2.46A2.041,2.041,0,0,0-12.3-9.9a3.01,3.01,0,0,0-1.62.46,9.2,9.2,0,0,0-1.74,1.46Zm13.62.8A2.465,2.465,0,0,1-4.16-.58a4.164,4.164,0,0,1-.62-2.46V-9.68H-5.9q-.54,0-.54-.44t.54-.46l1.16-.08.12-2.54q.02-.54.5-.54.5,0,.5.54v2.54H-1.1q.54,0,.54.5,0,.48-.54.48H-3.62v6.72A2.967,2.967,0,0,0-3.24-1.3a1.605,1.605,0,0,0,1.4.56,1.475,1.475,0,0,0,.8-.14q.5-.18.64.28T-.8,0A3,3,0,0,1-2.04.26Z" transform="translate(402 868)" fill="#fff"/>
    <path id="路径_6964" data-name="路径 6964" d="M-33.74,0q-.38,0-.38-.4V-13.86H-38.4q-.4,0-.4-.32,0-.34.4-.34h9.34q.4,0,.4.34,0,.32-.4.32h-4.28V-.4A.354.354,0,0,1-33.74,0Zm8.56-.4q0,.4-.36.4t-.36-.4V-15.48q0-.4.36-.4t.36.4v6.66a9.506,9.506,0,0,1,1.8-1.46,3.566,3.566,0,0,1,1.88-.52,2.854,2.854,0,0,1,2.4,1,4.815,4.815,0,0,1,.78,3.02V-.4q0,.4-.36.4t-.36-.4V-6.68a4.509,4.509,0,0,0-.6-2.6,2.2,2.2,0,0,0-1.94-.86,3.187,3.187,0,0,0-1.72.5,10.118,10.118,0,0,0-1.88,1.58Zm11.5,0q0,.4-.36.4t-.36-.4v-9.74q0-.4.36-.4t.36.4Zm.18-13.02a.67.67,0,0,1-.52.22.67.67,0,0,1-.52-.22.829.829,0,0,1-.2-.58.757.757,0,0,1,.2-.56.648.648,0,0,1,.5-.22.67.67,0,0,1,.52.22.784.784,0,0,1,.22.58A.8.8,0,0,1-13.5-13.42ZM-8.78-.4q0,.4-.36.4T-9.5-.4v-9.74q0-.4.3-.4t.32.4l.1,1.28A5.417,5.417,0,0,1-5.16-10.8a2.926,2.926,0,0,1,2.46,1,4.815,4.815,0,0,1,.78,3.02V-.4q0,.4-.36.4t-.36-.4V-6.68a4.509,4.509,0,0,0-.6-2.6,2.2,2.2,0,0,0-1.94-.86,3.187,3.187,0,0,0-1.72.5A10.118,10.118,0,0,0-8.78-8.06Z" transform="translate(341 868)" fill="#fff"/>
    <path id="路径_6965" data-name="路径 6965" d="M-69.02,0q-.92,0-.92-.66V-13.84a.742.742,0,0,1,.84-.84h3.76q5.12,0,5.12,4.14a4.036,4.036,0,0,1-.88,2.7,4.473,4.473,0,0,1-2.44,1.42L-60.1-.56q.32.56-.74.56A1.437,1.437,0,0,1-62.2-.56l-3.24-5.66h-2.64V-.66Q-68.08,0-69.02,0Zm.94-7.72h2.46q3.56,0,3.56-2.82a2.244,2.244,0,0,0-.88-2,4.68,4.68,0,0,0-2.68-.62H-67.7a.336.336,0,0,0-.38.38ZM-53,.26a4.943,4.943,0,0,1-3.72-1.54,5.668,5.668,0,0,1-1.48-4.1,5.887,5.887,0,0,1,1.46-4.16,4.535,4.535,0,0,1,3.46-1.6,3.875,3.875,0,0,1,3.16,1.38,5.613,5.613,0,0,1,1.14,3.72l-.04.38a.624.624,0,0,1-.7.66H-56q-.38,0-.34.38a3.557,3.557,0,0,0,1.02,2.4A3.334,3.334,0,0,0-52.84-1.2a3.607,3.607,0,0,0,2.2-.54.584.584,0,0,1,.9.28.59.59,0,0,1-.24.92A5.214,5.214,0,0,1-53,.26Zm-3.34-6.94q-.06.36.32.36h5.06a.336.336,0,0,0,.38-.38,3.162,3.162,0,0,0-.72-2.1,2.341,2.341,0,0,0-1.94-.88,2.828,2.828,0,0,0-2.12.92A3.307,3.307,0,0,0-56.34-6.68Zm19.2,7.92A3.216,3.216,0,0,1-38.66,3.9,6.278,6.278,0,0,1-42.44,5a6.425,6.425,0,0,1-3.46-.78,2.407,2.407,0,0,1-1.22-2.16,2.941,2.941,0,0,1,1.6-2.44,2.069,2.069,0,0,1-1-1.82A2.521,2.521,0,0,1-45.3-4.26a3.786,3.786,0,0,1-1.42-2.98,3.606,3.606,0,0,1,1.18-2.82,4.183,4.183,0,0,1,2.9-1.08,4.371,4.371,0,0,1,1.52.28H-38q.66,0,.66.7t-.66.7h-1.56a3.161,3.161,0,0,1,.88,2.4,3.351,3.351,0,0,1-1.14,2.58,3.983,3.983,0,0,1-2.82,1.04,3.574,3.574,0,0,1-1.62-.38,1.715,1.715,0,0,0-.7,1.3q0,1.18,1.9,1.18h2.12Q-37.14-1.34-37.14,1.24ZM-44.3-5.38a2.2,2.2,0,0,0,1.64.7A2.226,2.226,0,0,0-41-5.38a2.626,2.626,0,0,0,.68-1.88A2.486,2.486,0,0,0-41-9.1a2.185,2.185,0,0,0-1.66-.7,2.162,2.162,0,0,0-1.64.7,2.529,2.529,0,0,0-.66,1.84A2.673,2.673,0,0,0-44.3-5.38Zm-1.22,7.12a1.663,1.663,0,0,0,.84,1.5,4.4,4.4,0,0,0,2.32.52,4.215,4.215,0,0,0,2.46-.68,1.833,1.833,0,0,0,.98-1.48A1.18,1.18,0,0,0-39.48.48a3.54,3.54,0,0,0-1.66-.3h-1.88A5.763,5.763,0,0,1-44.42,0,2.173,2.173,0,0,0-45.52,1.74ZM-31.88.26q-3.3,0-3.3-4.24V-10.2q0-.66.9-.66.92,0,.92.66v6A3.9,3.9,0,0,0-32.88-2a1.626,1.626,0,0,0,1.42.68,2.958,2.958,0,0,0,1.62-.42,6.459,6.459,0,0,0,1.46-1.42V-10.2q0-.66.9-.66.92,0,.92.66V-.66q0,.66-.76.66t-.8-.66l-.1-1.04A4.988,4.988,0,0,1-31.88.26ZM-20.46.18A3.929,3.929,0,0,1-21.64.16q-1.26.1-1.26-2.32v-13.1q0-.66.9-.66.92,0,.92.66V-2.04q0,.78.52.78a.4.4,0,0,1,.44.38l.08.34Q-19.92.1-20.46.18Zm5.76.08A3.283,3.283,0,0,1-17-.56a2.938,2.938,0,0,1-.88-2.26,2.974,2.974,0,0,1,1.58-2.7,13.3,13.3,0,0,1,5.1-1.36q0-2.74-2.24-2.74a4.482,4.482,0,0,0-2.7.84q-.56.32-.92-.3-.36-.64.2-.96a6.454,6.454,0,0,1,3.64-1.1A3.473,3.473,0,0,1-10.3-9.96a5.215,5.215,0,0,1,.92,3.28V-.66q0,.66-.76.66a.712.712,0,0,1-.82-.66l-.08-.64A5.978,5.978,0,0,1-14.7.26Zm.52-1.46A4.7,4.7,0,0,0-11.2-2.64V-5.68a10.4,10.4,0,0,0-3.78.98A1.921,1.921,0,0,0-16.1-3.04Q-16.1-1.2-14.18-1.2ZM-5.02,0q-.9,0-.9-.66V-10.2q0-.66.74-.66.76,0,.8.66l.12,1.32a5.754,5.754,0,0,1,1.44-1.66,2.66,2.66,0,0,1,1.6-.6l.62.12q.64.12.46.92-.16.8-.82.7l-.48-.08a2.292,2.292,0,0,0-1.42.6A4.441,4.441,0,0,0-4.1-6.98V-.66Q-4.1,0-5.02,0Z" transform="translate(609 868)" fill="#fff"/>
    <path id="路径_6966" data-name="路径 6966" d="M-73.46-.66q0,.66-1.04.66t-1.04-.66v-13.2a.778.778,0,0,1,.88-.88h1a.979.979,0,0,1,1.02.72l3.42,9.36q.12.34.24,0l3.26-9.36a.979.979,0,0,1,1.02-.72h1.02a.778.778,0,0,1,.88.88V-.66q0,.66-1.08.66t-1.08-.66l.3-11.18-3.56,9.7a1.012,1.012,0,0,1-1.04.72.857.857,0,0,1-.88-.62l-3.52-9.8Zm22.22-.96q.4.72-.16,1.04a5.657,5.657,0,0,1-3.32.84A5.022,5.022,0,0,1-58.4-1.28a5.706,5.706,0,0,1-1.52-4.16,5.92,5.92,0,0,1,1.5-4.22,4.715,4.715,0,0,1,3.58-1.62,4.009,4.009,0,0,1,3.26,1.42A5.677,5.677,0,0,1-50.4-6.08l-.06.52a.646.646,0,0,1-.72.66h-6.48a3.834,3.834,0,0,0,1.04,2.46,3.182,3.182,0,0,0,2.32.9,3.516,3.516,0,0,0,2.08-.5Q-51.64-2.36-51.24-1.62ZM-57.68-6.5h4.9a.336.336,0,0,0,.38-.38,2.783,2.783,0,0,0-.64-1.82,2.118,2.118,0,0,0-1.76-.78,2.642,2.642,0,0,0-1.94.8ZM-44.04.26a4.03,4.03,0,0,1-3.32-1.52,6.467,6.467,0,0,1-1.22-4.16,6.238,6.238,0,0,1,1.4-4.26,4.279,4.279,0,0,1,3.32-1.6,4.568,4.568,0,0,1,2.96,1.24l-.1-5.24q0-.66,1.14-.66,1.16,0,1.16.66V-.66q0,.66-.94.66t-1.02-.66l-.1-.58A4.659,4.659,0,0,1-44.04.26Zm-1.46-2.9a2.314,2.314,0,0,0,2.02,1A3.3,3.3,0,0,0-41-2.98V-8.36a3.457,3.457,0,0,0-2.36-1A2.453,2.453,0,0,0-45.4-8.3a4.549,4.549,0,0,0-.8,2.84A4.928,4.928,0,0,0-45.5-2.64ZM-34.1,0q-1.14,0-1.14-.66v-9.68q0-.66,1.14-.66,1.16,0,1.16.66V-.66Q-32.94,0-34.1,0Zm1.04-13.44a1.448,1.448,0,0,1-1.04.38,1.448,1.448,0,0,1-1.04-.38,1.352,1.352,0,0,1-.38-1,1.285,1.285,0,0,1,.38-.98,1.448,1.448,0,0,1,1.04-.38,1.448,1.448,0,0,1,1.04.38,1.252,1.252,0,0,1,.4.98A1.316,1.316,0,0,1-33.06-13.44Zm6.8,13.7q-3.38,0-3.38-4.34v-6.26q0-.66,1.14-.66,1.16,0,1.16.66v5.98a3.708,3.708,0,0,0,.42,2.02,1.492,1.492,0,0,0,1.3.62,2.612,2.612,0,0,0,1.46-.38,5.623,5.623,0,0,0,1.3-1.26v-6.98q0-.66,1.14-.66,1.16,0,1.16.66V-.66q0,.66-.94.66t-1-.66l-.12-1A4.918,4.918,0,0,1-26.26.26ZM-15.96,0Q-17.1,0-17.1-.66v-9.68q0-.66.94-.66t1,.66l.12.88a5.017,5.017,0,0,1,3.46-1.82A2.954,2.954,0,0,1-8.54-9.26a5.174,5.174,0,0,1,3.58-2.02q3.38,0,3.38,4.36V-.66q0,.66-1.16.66Q-3.88,0-3.88-.66V-6.64a3.446,3.446,0,0,0-.46-2.02A1.644,1.644,0,0,0-5.8-9.3,3.71,3.71,0,0,0-8.2-7.8V-.66Q-8.2,0-9.36,0-10.5,0-10.5-.66V-6.64a3.617,3.617,0,0,0-.44-2.04,1.689,1.689,0,0,0-1.48-.62A3.648,3.648,0,0,0-14.8-7.8V-.66Q-14.8,0-15.96,0Z" transform="translate(702 868)" fill="#fff"/>
    <path id="路径_6967" data-name="路径 6967" d="M-19.92,0a.813.813,0,0,1-.92-.92V-13.9a.813.813,0,0,1,.92-.92h3.98q5.36,0,5.36,3.66a3.741,3.741,0,0,1-.56,1.98A3.247,3.247,0,0,1-12.6-7.86a3.725,3.725,0,0,1,2.02,1.18,3.424,3.424,0,0,1,.76,2.32A3.746,3.746,0,0,1-11.4-1.1,7.141,7.141,0,0,1-15.56,0Zm2.04-8.78h1.72q2.7,0,2.7-1.94a1.511,1.511,0,0,0-.66-1.38,3.585,3.585,0,0,0-2-.44H-17.5a.336.336,0,0,0-.38.38Zm0,6.12a.336.336,0,0,0,.38.38h1.68q3.12,0,3.12-2.26,0-2.06-3.12-2.06h-2.06ZM1.02-1.32A5.149,5.149,0,0,1-2.78.28a5.149,5.149,0,0,1-3.8-1.6A5.825,5.825,0,0,1-8.16-5.6,5.825,5.825,0,0,1-6.58-9.88a5.149,5.149,0,0,1,3.8-1.6,5.149,5.149,0,0,1,3.8,1.6A5.825,5.825,0,0,1,2.6-5.6,5.825,5.825,0,0,1,1.02-1.32ZM-4.54-3.06a2.018,2.018,0,0,0,1.76.94,1.994,1.994,0,0,0,1.75-.94A4.5,4.5,0,0,0-.4-5.6a4.5,4.5,0,0,0-.63-2.54,1.994,1.994,0,0,0-1.75-.94,1.994,1.994,0,0,0-1.75.94A4.5,4.5,0,0,0-5.16-5.6,4.561,4.561,0,0,0-4.54-3.06ZM8.58.14A4.5,4.5,0,0,1,7.12.18Q5.06.28,5.06-3.14v-12.1q0-.72,1.46-.72,1.48,0,1.48.72V-3.02q0,.9.58.9a.42.42,0,0,1,.46.4L9.22-.68Q9.34.02,8.58.14ZM15.3.28a4.044,4.044,0,0,1-3.34-1.56,6.718,6.718,0,0,1-1.24-4.26,6.346,6.346,0,0,1,1.4-4.3,4.221,4.221,0,0,1,3.3-1.64,4.123,4.123,0,0,1,2.84,1.22l-.1-4.98q0-.72,1.46-.72t1.46.72V-.72q0,.72-1.2.72-1.18,0-1.3-.7l-.1-.46A4.7,4.7,0,0,1,15.3.28Zm.76-2.42a2.654,2.654,0,0,0,2.1-1.16V-8.22a2.935,2.935,0,0,0-2.02-.84,2.044,2.044,0,0,0-1.74.92,4.2,4.2,0,0,0-.66,2.52Q13.74-2.14,16.06-2.14Z" transform="translate(741 868)" fill="#fff"/>
    <path id="路径_6968" data-name="路径 6968" d="M-53.38,0a.866.866,0,0,1-.98-.98V-13.92a.866.866,0,0,1,.98-.98h4.22q5.54,0,5.54,3.7a3.881,3.881,0,0,1-.54,1.96,2.721,2.721,0,0,1-1.4,1.26A4.08,4.08,0,0,1-43.64-6.7a3.517,3.517,0,0,1,.72,2.3,3.754,3.754,0,0,1-1.62,3.3A7.334,7.334,0,0,1-48.74,0Zm2.6-8.98h1.48q2.2,0,2.2-1.68a1.271,1.271,0,0,0-.54-1.14,2.976,2.976,0,0,0-1.66-.36h-1.1a.336.336,0,0,0-.38.38Zm0,5.86a.336.336,0,0,0,.38.38H-49q2.6,0,2.6-1.9a1.416,1.416,0,0,0-.64-1.3A3.629,3.629,0,0,0-49-6.36h-1.78ZM-36.62.12a6.375,6.375,0,0,1-1.64.1A1.991,1.991,0,0,1-40-.76a5.016,5.016,0,0,1-.74-2.94V-15.22q0-.76,1.78-.76t1.78.76V-3.58q0,.98.62.98a.413.413,0,0,1,.46.38l.24,1.46Q-35.74-.02-36.62.12Zm8.66-1.26A4.8,4.8,0,0,1-31.16.28,3.289,3.289,0,0,1-33.68-.7a3.525,3.525,0,0,1-.92-2.48A3.2,3.2,0,0,1-33.1-6a11.162,11.162,0,0,1,4.82-1.36Q-28.4-8.82-30-8.82a4.406,4.406,0,0,0-2.3.66q-.68.34-1.3-.82-.62-1.18.04-1.52a7.781,7.781,0,0,1,4.24-1.16q4.6,0,4.6,5.2v5.7q0,.76-1.46.76-1.44,0-1.58-.74ZM-30-2.48a2.391,2.391,0,0,0,1.72-.9V-5.2q-2.94.38-2.94,1.74Q-31.22-2.48-30-2.48Zm16.1.26q.7,1.16.08,1.6a4.628,4.628,0,0,1-3.26.9,5.355,5.355,0,0,1-3.94-1.6,5.933,5.933,0,0,1-1.6-4.36,5.67,5.67,0,0,1,1.74-4.36,5.994,5.994,0,0,1,4.24-1.62,3.8,3.8,0,0,1,2.7.78q.62.44-.22,1.58-.82,1.12-1.46.7-.1-.18-.8-.18a2.321,2.321,0,0,0-1.88.84,3.4,3.4,0,0,0-.68,2.24,3.538,3.538,0,0,0,.68,2.26,2.1,2.1,0,0,0,1.7.84,1.776,1.776,0,0,0,1.38-.42Q-14.58-3.4-13.9-2.22ZM-9.5,0q-1.74,0-1.74-.76V-15.22q0-.76,1.74-.76,1.76,0,1.76.76l.1,8.12,2.86-3.64a1.593,1.593,0,0,1,1.32-.64h1.78q1.3,0,.48,1L-4.34-6.64-.8-1.08Q-.1,0-1.4,0H-3.12A1.324,1.324,0,0,1-4.36-.72l-2.06-3.6-1.32,1.5V-.76Q-7.74,0-9.5,0Z" transform="translate(836 868)" fill="#fff"/>
  </g>
</svg>
