<?xml version="1.0" standalone="no"?>
<!DOCTYPE svg PUBLIC "-//W3C//DTD SVG 20010904//EN"
 "http://www.w3.org/TR/2001/REC-SVG-20010904/DTD/svg10.dtd">
<svg version="1.0" xmlns="http://www.w3.org/2000/svg"
 width="700.000000pt" height="700.000000pt" viewBox="0 0 700.000000 700.000000"
 preserveAspectRatio="xMidYMid meet">
<metadata>
Created by potrace 1.11, written by Peter Selinger 2001-2013
</metadata>
<g transform="translate(0.000000,700.000000) scale(0.100000,-0.100000)"
fill="#000000" stroke="none">
<path d="M1727 6344 c-1 -1 -36 -4 -77 -8 -287 -22 -571 -187 -746 -433 -58
-80 -103 -172 -203 -413 -45 -107 -86 -204 -91 -215 -5 -11 -79 -189 -165
-395 -86 -206 -162 -388 -170 -405 -7 -16 -43 -102 -80 -190 -37 -88 -73 -173
-80 -190 -24 -55 -77 -190 -81 -207 -2 -10 -6 -28 -9 -40 -19 -76 -24 -146
-20 -243 6 -158 39 -269 120 -407 59 -101 129 -175 299 -315 125 -103 229
-190 291 -241 11 -10 229 -190 485 -402 531 -439 503 -417 544 -451 17 -15
101 -83 186 -153 85 -70 164 -135 175 -144 11 -10 61 -51 110 -92 50 -41 99
-82 110 -92 19 -16 288 -238 384 -317 25 -20 63 -52 86 -71 22 -19 63 -53 90
-75 27 -22 62 -51 79 -66 148 -122 353 -189 560 -183 55 1 110 5 121 7 194 46
285 90 440 218 268 221 343 283 365 303 14 12 61 51 105 86 44 36 91 74 105
86 30 25 208 173 645 534 176 146 376 311 445 368 143 119 120 100 310 257 80
66 201 167 270 224 69 57 145 120 169 140 248 203 309 265 377 381 88 150 123
289 119 470 -5 171 -13 197 -217 680 -22 52 -46 109 -54 125 -7 17 -58 138
-113 270 -55 132 -143 344 -197 470 -53 127 -119 284 -146 350 -104 251 -169
357 -293 479 -157 156 -386 267 -600 292 -47 6 -3642 13 -3648 8z"/>
</g>
</svg>
