<svg xmlns="http://www.w3.org/2000/svg" width="872" height="240" viewBox="0 0 872 240">
  <g id="genryu" transform="translate(0 -721)">
    <g id="组_4854" data-name="组 4854" transform="translate(0 721)">
      <rect id="矩形_3596" data-name="矩形 3596" width="872" height="240" fill="#313740"/>
      <rect id="矩形_3598" data-name="矩形 3598" width="8" height="124" transform="translate(36 36)" fill="#ff6baa"/>
    </g>
    <path id="路径_6839" data-name="路径 6839" d="M24.32,3.12a2.467,2.467,0,0,0-.76-1.84A6.243,6.243,0,0,0,20.52.36V-.28q2.16.12,4.28.28.84,0,.84-.72V-12.2H21v1.32q0,.24-.64.52a3.356,3.356,0,0,1-1.36.28.519.519,0,0,1-.42-.24.908.908,0,0,1-.18-.56q.16-1.76.24-4.48V-18a51.214,51.214,0,0,0-.52-8.12l3.08,1.4h3.36a37.367,37.367,0,0,0,.72-4.76H16.12v8.56a59.485,59.485,0,0,1-1,12A24.2,24.2,0,0,1,9.48,2.68l-.52-.4a31.776,31.776,0,0,0,3.96-11.2,71.553,71.553,0,0,0,.84-11.96v-5.6a38.51,38.51,0,0,0-.36-5.76l3.2,1.6H32.68l.8-1.16q.08-.12.28-.4.56-.8.8-.8.4,0,1.8,1.22t1.4,1.66q-.16.64-1,.64H25.6q4,.76,2.64,1.32l-.68.28q-.72,1.56-1.64,3.16h6.6l.64-.88q.08-.08.24-.28.44-.6.68-.6.4,0,1.62,1.08t1.22,1.52a2.79,2.79,0,0,1-1.6.8v3.92q.12,4.88.28,7.6a2.342,2.342,0,0,1-1,.7,3.326,3.326,0,0,1-1.32.34h-.36V-12.2h-4.8V-.68a4.1,4.1,0,0,1-.64,2.56A4.659,4.659,0,0,1,24.32,3.12ZM6.12,2.76q-.96,0-1.08-2.04a28.209,28.209,0,0,0,.2-5.24q-.16-2.16-.8-2.6A3.568,3.568,0,0,0,2.6-7.68v-.84H4.28a.879.879,0,0,0,.52-.12,1.57,1.57,0,0,0,.44-.72q.64-1.4,7.12-16.56l.72.2q-.76,2.32-2.92,8.56Q8.08-11.2,7.8-10.28a12.947,12.947,0,0,0-.56,3.36A12.027,12.027,0,0,0,7.6-4.6,17.567,17.567,0,0,1,8.16.04Q7.96,2.76,6.12,2.76ZM14.68.68,14.2.2a17.779,17.779,0,0,0,2.08-2.36,21.693,21.693,0,0,0,2.24-3.6,16.632,16.632,0,0,0,1.36-3.68L21.96-8.2a3.174,3.174,0,0,1,1.4.76q.2.32-.4.44l-.68.12a28.162,28.162,0,0,1-3.2,3.96A22.134,22.134,0,0,1,14.68.68ZM37.16-.2q-.72.6-1.76-.16a12.65,12.65,0,0,0-2-4.16,24.047,24.047,0,0,0-3-3.68l.48-.28a15.258,15.258,0,0,1,5,3.2A5.852,5.852,0,0,1,37.64-2.2,2.036,2.036,0,0,1,37.16-.2ZM21-13.4H32.92v-4.52H21ZM7.72-19.12a1.407,1.407,0,0,1-1.68-.08,6.9,6.9,0,0,0-1.52-2.6A12.68,12.68,0,0,0,2.2-23.96l.36-.36a9.36,9.36,0,0,1,4.2,1.52,3.443,3.443,0,0,1,1.48,2.12A1.429,1.429,0,0,1,7.72-19.12ZM21-19.04H32.92v-4.52H21ZM11.04-27.6a1.407,1.407,0,0,1-1.68-.08,9.137,9.137,0,0,0-1.72-2.8,13.7,13.7,0,0,0-2.48-2.36l.4-.36A10.877,10.877,0,0,1,10-31.44a3.9,3.9,0,0,1,1.56,2.24A1.475,1.475,0,0,1,11.04-27.6ZM49.92,3.24l-.44-.56a13.025,13.025,0,0,0,5.28-6.24,19.4,19.4,0,0,0,1.16-7.08v-2.6a20.345,20.345,0,0,0-.16-2.8A14.745,14.745,0,0,1,59-14.76q.48.36-.08.72l-.6.36v3.12a17.462,17.462,0,0,1-1.56,7.44A13.556,13.556,0,0,1,49.92,3.24Zm-3.4-.16q-1,0-1.2-2a27.554,27.554,0,0,0,.26-5.22q-.14-2.14-.78-2.54a3.548,3.548,0,0,0-1.88-.6v-.88h1.72a.868.868,0,0,0,.54-.12,2.642,2.642,0,0,0,.42-.68q.64-1.36,7.08-16.32l.68.2q-.76,2.28-2.88,8.48-1.96,5.8-2.24,6.76l-.04.08a14.26,14.26,0,0,0-.48,3.24,10.927,10.927,0,0,0,.4,2.28A16.786,16.786,0,0,1,48.68.32Q48.48,3.08,46.52,3.08Zm25.52-.72a2.632,2.632,0,0,1-2-.56,2.628,2.628,0,0,1-.48-1.84V-8.08a52.329,52.329,0,0,0-.52-8.2,16.659,16.659,0,0,1,3.52,1.32q.48.36,0,.72l-.56.36V-.68a.7.7,0,0,0,.14.5.85.85,0,0,0,.58.14h2.52q.32-.04.5-.52t.78-4.08q.2-1.2.28-1.76h.52L77.4-.36a1.213,1.213,0,0,1-.04,2.32,10.507,10.507,0,0,1-3.44.4ZM63,1.32a.689.689,0,0,1-.56-.24.848.848,0,0,1-.2-.56q.2-1.84.28-4.92V-7.88a52.329,52.329,0,0,0-.52-8.2,16.815,16.815,0,0,1,3.64,1.32q.52.36-.08.72l-.68.4v4.48q.08,4.96.32,9.4a2.176,2.176,0,0,1-.9.74A2.824,2.824,0,0,1,63,1.32ZM75.4-16.52q-.64.68-1.72,0a16.026,16.026,0,0,0-2.28-3.56Q65.04-18.96,55-17.52a1.442,1.442,0,0,1-1,.8L52.68-20.2q1.08,0,4.4-.12.96-.04,1.48-.04,1.32-3.2,2.64-6.92H58.28a31.561,31.561,0,0,0-5.36.56l-1.04-2.04q2.2.24,5.32.32h5.2a32.052,32.052,0,0,0-.32-5.12,15.531,15.531,0,0,1,3.56,1.32q.48.4-.12.76l-.68.44v2.6h7.72l.8-1.2q.08-.12.2-.32.64-.88.92-.88.4,0,1.78,1.24t1.38,1.68q-.16.64-1,.64h-12q-1.76,2.92-4.52,6.84,4.32-.16,10.56-.56a34.538,34.538,0,0,0-3.8-3.84l.4-.32a19.349,19.349,0,0,1,5.88,3.32,7.871,7.871,0,0,1,2.4,3.2A2.049,2.049,0,0,1,75.4-16.52ZM47.96-19.16a1.391,1.391,0,0,1-1.68,0,7.264,7.264,0,0,0-1.64-2.68,11.7,11.7,0,0,0-2.52-2.12l.32-.4a9.819,9.819,0,0,1,4.4,1.48,3.432,3.432,0,0,1,1.6,2.08A1.5,1.5,0,0,1,47.96-19.16Zm3.28-8.28a1.372,1.372,0,0,1-1.72,0,8.207,8.207,0,0,0-1.76-2.88,11.787,11.787,0,0,0-2.64-2.32l.4-.4a10.218,10.218,0,0,1,4.52,1.64,3.873,3.873,0,0,1,1.68,2.24A1.625,1.625,0,0,1,51.24-27.44ZM92.88,3.16l-.52-.48a19.775,19.775,0,0,0,6.72-9.36A36.289,36.289,0,0,0,100.6-18.2v-7.04a46.848,46.848,0,0,0-.44-7.24l3.32,1.52h9.12l.56-.84q.08-.12.24-.32.36-.52.6-.52a4.5,4.5,0,0,1,1.74,1.06q1.34,1.06,1.34,1.5a2.637,2.637,0,0,1-1.68.8V-.84a3.907,3.907,0,0,1-.72,2.64,5.872,5.872,0,0,1-3.6,1.32,2.486,2.486,0,0,0-1-1.92A10.1,10.1,0,0,0,106.2.12V-.52q2.88.16,5.72.36a1.245,1.245,0,0,0,.82-.2,1.014,1.014,0,0,0,.22-.76V-11.28h-10.4a20.785,20.785,0,0,1-2.8,7.88A18.96,18.96,0,0,1,92.88,3.16ZM84.24-3.72a.765.765,0,0,1-.54-.26.765.765,0,0,1-.26-.54q.36-5.16.44-10.4v-8.64a52.329,52.329,0,0,0-.52-8.2l3.4,1.44h6.36l.64-.92q.08-.08.24-.28.48-.64.72-.64.4,0,1.64,1.14t1.24,1.58a3.209,3.209,0,0,1-1.68.84v12.72q.08,4.96.32,9.4a2.64,2.64,0,0,1-1,.76,2.785,2.785,0,0,1-1.36.44q-.52,0-.52-.8.04-.28.08-.72.04-.4.08-.64V-8.52H86.28v1.28q.04.44.04,1.04l.12,1.32a1.782,1.782,0,0,1-.68.76A2.809,2.809,0,0,1,84.24-3.72Zm2.04-5.96h7.24V-19H86.28Zm16.44-2.72h10.24v-8.24h-9.92v2.4A47.529,47.529,0,0,1,102.72-12.4ZM86.28-20.2h7.24v-8.92H86.28Zm16.76-1.6h9.92v-8h-9.92Zm23.12,25a.664.664,0,0,1-.5-.24.8.8,0,0,1-.22-.56q.28-3.6.36-7.92V-9.88a52.328,52.328,0,0,0-.52-8.2l3.04,1.44h5.4l.48-.76a1.548,1.548,0,0,0,.2-.28q.32-.48.56-.48a4,4,0,0,1,1.62.94q1.22.94,1.22,1.38a2.5,2.5,0,0,1-1.4.72V-.32A3.7,3.7,0,0,1,135.84,2a3.93,3.93,0,0,1-2.72,1.12,3.013,3.013,0,0,0-.56-1.72,3.764,3.764,0,0,0-2.2-.84V-.12q1.48.08,2.96.2A.6.6,0,0,0,134-.6V-5.08h-5.88V-2.6q0,.56.04,1.48.08,2.12.16,3.24a1.542,1.542,0,0,1-.76.72A2.957,2.957,0,0,1,126.16,3.2Zm11.92-.72-1-2q2.2.24,5.32.32h5.72a25.434,25.434,0,0,0,1.32-6.24,16.325,16.325,0,0,1,3.52,1.52q.52.4-.16.6l-.72.24A31.955,31.955,0,0,1,149.12.8h4.6l.68-1.04a1.978,1.978,0,0,0,.28-.4q.48-.68.72-.68.4,0,1.64,1.1t1.24,1.54q-.16.6-.96.6H144.08A40.531,40.531,0,0,0,138.08,2.48ZM145.2.6a1.249,1.249,0,0,1-1.4-.44,10.921,10.921,0,0,0-1.48-4.96,3.286,3.286,0,0,1-1.72.48h-.32V-9.08A35.248,35.248,0,0,0,140-14l2.76,1.36h8.96l.6-.92q.08-.12.24-.32.44-.6.68-.6.4,0,1.7,1.14t1.3,1.58a3.386,3.386,0,0,1-1.76.8v1.8q0,.4.04,1.08.08,1.56.16,2.32a1.7,1.7,0,0,1-.9.62,3.537,3.537,0,0,1-1.3.3h-.4v-1.4H142.6v1.16a.115.115,0,0,1-.04.08l.16-.08a7.269,7.269,0,0,1,2.76,2.36,3.133,3.133,0,0,1,.6,2.12A1.433,1.433,0,0,1,145.2.6ZM128.12-6.24H134V-10.4h-5.88Zm14.48-1.2h9.48v-4.04H142.6ZM128.12-11.6H134v-3.88h-5.88Zm10.8-2.88-1-2.04q2.2.24,5.32.32h10.32l.64-1.04a.858.858,0,0,0,.16-.28q.52-.76.8-.76.4,0,1.58,1.08t1.18,1.52a.858.858,0,0,1-.96.64H144.6A35.9,35.9,0,0,0,138.92-14.48Zm-15.72-1.8a.949.949,0,0,1-.96-.44,1.287,1.287,0,0,1-.06-1.02,1.831,1.831,0,0,1,.66-.9,3.734,3.734,0,0,0,.96-1.6,5.2,5.2,0,0,0,.32-2.12h.72q.12.4.28,1.2h.6v-3.48a52.328,52.328,0,0,0-.52-8.2l3.04,1.36h5.52l.52-.8a1.809,1.809,0,0,1,.16-.24q.4-.6.64-.6a4.293,4.293,0,0,1,1.68.96q1.32,1,1.32,1.4a2.588,2.588,0,0,1-1.76.76v8.84h.36l1.4-1.44,1.16,1.16v-1.4a52.329,52.329,0,0,0-.52-8.2l2.88,1.4h2.52a28.41,28.41,0,0,0-.24-3.96,13.137,13.137,0,0,1,2.84,1.28q.4.36-.12.72l-.6.36v1.6h2.76a28.41,28.41,0,0,0-.24-3.96,11.873,11.873,0,0,1,2.8,1.28q.4.36-.12.72l-.56.36v1.6h2.24l.6-.88a1.547,1.547,0,0,0,.2-.28q.44-.64.68-.64.4,0,1.62,1.1t1.22,1.54a2.963,2.963,0,0,1-1.72.8v3.08q.08,3.72.24,5.92a2.188,2.188,0,0,1-.9.66,2.877,2.877,0,0,1-1.22.34h-.36v-1.36h-11.8v1.28q0,.2-.6.48a2.84,2.84,0,0,1-1.28.32q-.48,0-.48-.8.04-.16.08-.44a2.764,2.764,0,0,1,.08-.32v-.8h-.04a21.612,21.612,0,0,1-2.72,2.52l-.6-.24a24.986,24.986,0,0,0,.88-2.64h-11.6a4.126,4.126,0,0,1-.88,3.16A1.482,1.482,0,0,1,123.2-16.28Zm18.24-4.28h2.68v-3.36h-2.68Zm4.56,0h2.76v-3.36H146Zm4.64,0h2.6v-3.36h-2.6Zm-22.8-.6h2.04a45.37,45.37,0,0,0-.44-7.12l2.76,1.32h1.96v-3.32h-6.32Zm3.88,0h2.44v-4.6h-2.44Zm9.72-3.92h2.68v-3.4h-2.68Zm4.56,0h2.76v-3.4H146Zm4.64,0h2.6v-3.4h-2.6Z" transform="translate(68 798)" fill="#fff"/>
    <path id="路径_6840" data-name="路径 6840" d="M-15.3,1.5a.336.336,0,0,1-.24-.13.4.4,0,0,1-.12-.27q.18-2.58.22-5.2V-7.52l-2.26.42a.653.653,0,0,1-.48.4l-.46-1.34q.8-.04,1.94-.12a30.691,30.691,0,0,0,1.68-2.78,14.911,14.911,0,0,0,1.48-3.82,7.17,7.17,0,0,1,1.52.82q.22.2-.1.3l-.36.1a25.737,25.737,0,0,1-3.6,5.34q1.5-.1,3.14-.24a9.287,9.287,0,0,0-.88-1.48l.24-.14a6.048,6.048,0,0,1,1.7,1.54,2.678,2.678,0,0,1,.52,1.32.839.839,0,0,1-.28.77q-.3.21-.68-.13a5.116,5.116,0,0,0-.42-1.46l-1.7.32v4.02q.04,2.48.16,4.7A1.234,1.234,0,0,1-15.3,1.5Zm4.68-.18q-.08,0-.2-.13a.4.4,0,0,1-.12-.27q.18-2.58.22-5.2v-7.24a26.165,26.165,0,0,0-.26-4.1l1.48.68h6.44l.24-.38a.774.774,0,0,0,.1-.14q.16-.24.28-.24a1.766,1.766,0,0,1,.76.45q.56.45.56.67a1.371,1.371,0,0,1-.84.36V-4.04q.04,2.48.16,4.7a1.516,1.516,0,0,1-.42.32,1.233,1.233,0,0,1-.6.18q-.24,0-.24-.4.02-.1.04-.26Q-3,.38-2.98.3V-.14H-9.74V.22a2.924,2.924,0,0,1,.02.36,1.414,1.414,0,0,0,.04.24.7.7,0,0,1-.3.34A1.267,1.267,0,0,1-10.62,1.32ZM-18.44,0l-.34-.18q.34-.84.54-1.5a15.587,15.587,0,0,0,.46-2.16,10.927,10.927,0,0,0,.14-2.06l1.06.36q.58.08.67.21t-.19.27l-.34.14A15.035,15.035,0,0,1-18.44,0Zm8.7-.74h2.86V-7.38H-9.74Zm3.82,0h2.94V-7.38H-5.92ZM-12-1.6q-.32.22-.68-.16a12.289,12.289,0,0,0-.98-4.14l.26-.1A6.773,6.773,0,0,1-12-4.02a3.686,3.686,0,0,1,.36,1.58A1.04,1.04,0,0,1-12-1.6Zm2.26-6.36h2.86v-6.4H-9.74Zm3.82,0h2.94v-6.4H-5.92Zm-9.78-2.78q-.28.3-.72,0a4.163,4.163,0,0,0-.78-1.5,7.073,7.073,0,0,0-1.24-1.28l.2-.18a6.636,6.636,0,0,1,1.32.62,12.793,12.793,0,0,0,1.18-3.82,7.393,7.393,0,0,1,1.58.72q.24.2-.06.3l-.34.12a18.7,18.7,0,0,1-2,2.92,2.543,2.543,0,0,1,.96,1.24A.821.821,0,0,1-15.7-10.74ZM3.08,1.54a.307.307,0,0,1-.23-.13.414.414,0,0,1-.11-.27Q2.88-.6,2.92-2.7V-4.84a26.164,26.164,0,0,0-.26-4.1L4-8.28H6.96l.2-.32a.429.429,0,0,1,.08-.1q.16-.24.28-.24a1.753,1.753,0,0,1,.75.42q.55.42.55.64a1.375,1.375,0,0,1-.7.3V-.06A1.746,1.746,0,0,1,7.88,1a1.824,1.824,0,0,1-1.26.5A1.144,1.144,0,0,0,6.34.76,2.556,2.556,0,0,0,5.18.4V.06l1.6.12q.34,0,.34-.36V-2.52H3.92v1.24q0,.3.02.76.04,1.04.08,1.58a.7.7,0,0,1-.34.34A1.246,1.246,0,0,1,3.08,1.54ZM9,1.18,8.5.16q1.1.12,2.66.16h2.86a9.53,9.53,0,0,0,.68-3.04,7.732,7.732,0,0,1,1.66.7q.24.18-.08.28l-.34.12A17.7,17.7,0,0,1,14.52.32h2.42l.32-.5q.04-.06.1-.16.26-.34.38-.34.2,0,.78.52t.58.74q-.08.32-.5.32H12A20.266,20.266,0,0,0,9,1.18ZM12.76.06q-.36.4-.82-.06a4.864,4.864,0,0,0-.78-2.42l.24-.12a3.1,3.1,0,0,1,1.48,1.52A.954.954,0,0,1,12.76.06Zm-2.5-2.28q-.24,0-.24-.4.04-.28.08-.78.02-.22.02-.36v-.78a16.567,16.567,0,0,0-.14-2.4l1.22.6h4.74l.26-.42q.04-.06.12-.16.18-.26.3-.26.2,0,.79.53T18-5.9a1.478,1.478,0,0,1-.86.42v.88q.02.3.04.74.02.6.04.92a.865.865,0,0,1-.39.32,1.257,1.257,0,0,1-.57.16h-.14v-.7h-5v.62q0,.08-.28.2A1.458,1.458,0,0,1,10.26-2.22ZM3.92-3.1h3.2V-5.16H3.92Zm7.2-.64h5v-2h-5ZM3.92-5.76h3.2V-7.7H3.92ZM9.44-7.24,8.92-8.26q1.1.12,2.66.16h5.3l.3-.48q.04-.06.12-.16.22-.32.34-.32.2,0,.74.5t.54.72q-.06.32-.48.32H12.28A17.95,17.95,0,0,0,9.44-7.24ZM1.66-8.18a.448.448,0,0,1-.46-.16.571.571,0,0,1-.05-.46.95.95,0,0,1,.29-.46,1.656,1.656,0,0,0,.47-.8,3.081,3.081,0,0,0,.17-1.08l.36.02a.329.329,0,0,0,.02.1q.06.32.08.46H2.9v-1.72a26.164,26.164,0,0,0-.26-4.1l1.42.68H6.9l.26-.38a.978.978,0,0,1,.06-.1q.2-.3.34-.3a1.958,1.958,0,0,1,.8.46q.6.46.6.68a1.232,1.232,0,0,1-.88.36v4.42H8.4l.64-.68.56.56v-.66a26.165,26.165,0,0,0-.26-4.1l1.34.62H12a13.173,13.173,0,0,0-.12-1.92,4.934,4.934,0,0,1,1.36.64q.2.16-.06.34l-.28.18v.76h1.48a13.174,13.174,0,0,0-.12-1.92,4.957,4.957,0,0,1,1.38.64q.2.16-.08.34l-.3.18v.76h1.22l.26-.4q.04-.06.12-.16.18-.26.3-.26.2,0,.78.51t.58.73a1.5,1.5,0,0,1-.88.42v1.54q.04,1.9.12,2.98a1.542,1.542,0,0,1-.4.3,1.265,1.265,0,0,1-.54.16h-.16v-.7H10.58V-9q0,.1-.27.23a1.256,1.256,0,0,1-.55.13q-.24,0-.24-.4.02-.08.04-.22a1.384,1.384,0,0,1,.04-.16v-.4H9.52A8.293,8.293,0,0,1,8.28-8.6l-.3-.12q.22-.56.44-1.24H2.56a2.232,2.232,0,0,1-.4,1.48A.779.779,0,0,1,1.66-8.18Zm8.92-2.12H12v-1.68H10.58Zm2.32,0h1.48v-1.68H12.9Zm2.36,0h1.4v-1.68h-1.4Zm-11.4-.26h1.1a22.52,22.52,0,0,0-.22-3.54l1.32.64H7.14v-1.66H3.86Zm1.94,0H7.14v-2.32H5.8Zm4.78-2H12v-1.66H10.58Zm2.32,0h1.48v-1.66H12.9Zm2.36,0h1.4v-1.66h-1.4Z" transform="translate(648 801)" fill="#fff"/>
    <path id="路径_6841" data-name="路径 6841" d="M-15.86,1.44a.383.383,0,0,1-.27-.13.383.383,0,0,1-.13-.27q.18-2.58.22-5.2v-4.2a19.944,19.944,0,0,1-2.42,5.3l-.34-.28a24.964,24.964,0,0,0,2.48-8.14h-.76a3.61,3.61,0,0,0-1.24.28l-.52-1.04a17.359,17.359,0,0,0,1.92.16h.88v-.56a26.165,26.165,0,0,0-.26-4.1,5.578,5.578,0,0,1,1.52.64q.2.18-.08.38l-.32.22v3.42h.7l.32-.5.12-.18q.22-.34.34-.34.18,0,.72.54t.54.76a.429.429,0,0,1-.48.32h-2.26v2.12A5.8,5.8,0,0,1-13.56-8a2.458,2.458,0,0,1,.52,1.18.717.717,0,0,1-.2.7q-.26.2-.6-.08a6.949,6.949,0,0,0-1.34-2.7v5.14q.04,2.48.16,4.7a.933.933,0,0,1-.36.36A.945.945,0,0,1-15.86,1.44Zm2.52-.42L-13.84,0q1.1.12,2.66.16h7.64l.34-.5a1.217,1.217,0,0,0,.14-.18q.24-.32.36-.32.2,0,.8.53t.6.75q-.08.3-.5.3h-8.54A20.266,20.266,0,0,0-13.34,1.02ZM-9.32-.56a.763.763,0,0,0-.29-.69,4.163,4.163,0,0,0-1.37-.35l.02-.38q.1,0,.32.02,1.42.14,1.72.14a.8.8,0,0,0,.62-.22,6.345,6.345,0,0,0,.62-2.84q.2-2.24.28-6.84H-9.74l-.26.76a1.142,1.142,0,0,1-.96-.02,17.759,17.759,0,0,0,1.24-3.64H-10.9a9.716,9.716,0,0,0-2.08.28l-.52-1.04q1.1.12,2.66.16h7.18l.34-.5a1.217,1.217,0,0,0,.14-.18q.24-.32.36-.32.2,0,.8.53t.6.75q-.06.32-.5.32h-6.9q-.4,1.4-.72,2.3h1.96a4.307,4.307,0,0,0,.52-.74,4.713,4.713,0,0,1,.98,1q.12.24-.18.32l-.36.1v.58h3.56l.6-.62a5.656,5.656,0,0,1,.96.94q.1.24-.2.3l-.36.08a17.307,17.307,0,0,1-1.68,5.7A7.756,7.756,0,0,0-1.16-2.1l-.02.18a.987.987,0,0,0-.9.64A8.514,8.514,0,0,1-4.24-3.82a9.751,9.751,0,0,1-2.68,2.7l-.22-.3A9.585,9.585,0,0,0-4.6-4.52a18.233,18.233,0,0,1-1.42-5.94h-.62Q-6.78-2.48-7.68-1.3A2,2,0,0,1-9.32-.56ZM-12.6-2.88A.222.222,0,0,1-12.78-3a.493.493,0,0,1-.08-.28q.08-.84.12-2.1V-6.64a26.006,26.006,0,0,0-.24-3.86l1.18.58h1.52l.22-.34a.465.465,0,0,0,.08-.12q.18-.24.3-.24.2,0,.67.43t.47.65a1.181,1.181,0,0,1-.74.36v1.8q.04,2.2.12,3.48a.816.816,0,0,1-.36.31,1.06,1.06,0,0,1-.48.15h-.12v-.92H-11.9v.4a3.115,3.115,0,0,1,.02.38,2.255,2.255,0,0,0,.04.28.5.5,0,0,1-.28.29A1,1,0,0,1-12.6-2.88Zm.7-2.06h1.78V-9.32H-11.9Zm7.74-.48a19.427,19.427,0,0,0,1.2-5.04H-5.58A14.652,14.652,0,0,0-4.16-5.42ZM4.76,1.46a.326.326,0,0,1-.22-.13.4.4,0,0,1-.12-.27q.18-2.58.22-5.2v-3.4q-.34.04-1.06.16-.84.14-1.28.2a.7.7,0,0,1-.46.4L1.4-8q.24-.02.94-.04L3.3-8.1a33.02,33.02,0,0,0,1.76-2.88,15.836,15.836,0,0,0,1.5-3.76A5.744,5.744,0,0,1,7.94-14q.2.2-.12.3l-.36.1A27.4,27.4,0,0,1,3.92-8.16q1.54-.1,3.18-.24a12.107,12.107,0,0,0-.88-1.46l.22-.12A6.514,6.514,0,0,1,8.08-8.46,2.557,2.557,0,0,1,8.6-7.18a.758.758,0,0,1-.21.74q-.27.2-.63-.1A5.591,5.591,0,0,0,7.3-8q-.34.06-1.1.2-.46.08-.72.12v4q.04,2.48.16,4.7A1.1,1.1,0,0,1,4.76,1.46Zm4.66-.18a.326.326,0,0,1-.22-.13A.4.4,0,0,1,9.08.88q.18-2.58.22-5.2v-7.12a26.164,26.164,0,0,0-.26-4.1l1.34.6h6.68l.2-.32a.429.429,0,0,1,.08-.1q.16-.24.28-.24a1.57,1.57,0,0,1,.71.41q.51.41.51.63a1.238,1.238,0,0,1-.84.34V-4.04q.04,2.48.16,4.7a1.159,1.159,0,0,1-.88.46q-.2,0-.2-.4.02-.1.04-.26.02-.12.04-.2V-.18h-7V.2q.02.16.03.35a1.607,1.607,0,0,0,.03.27.672.672,0,0,1-.26.3A.952.952,0,0,1,9.42,1.28ZM1.6-.04,1.26-.22q.36-.9.54-1.48a14.452,14.452,0,0,0,.5-2.16A10.536,10.536,0,0,0,2.44-5.9l.98.34q.54.08.62.21t-.2.27l-.32.14A16.547,16.547,0,0,1,1.6-.04Zm8.56-.74h3.02V-7.36H10.16Zm3.88,0h3.12V-7.36H14.04ZM8-1.58q-.28.22-.64-.14A11.678,11.678,0,0,0,6.34-5.9L6.62-6A7.481,7.481,0,0,1,7.96-3.98a3.646,3.646,0,0,1,.36,1.56A1.029,1.029,0,0,1,8-1.58Zm2.16-6.38h3.02v-6.38H10.16Zm3.88,0h3.12v-6.38H14.04ZM4.32-10.74q-.24.28-.64,0a4.13,4.13,0,0,0-.8-1.46A7.267,7.267,0,0,0,1.6-13.48l.2-.18a7.876,7.876,0,0,1,1.3.64,13.374,13.374,0,0,0,1.26-3.84,5.767,5.767,0,0,1,1.42.7q.22.18-.08.28l-.34.12a21.824,21.824,0,0,1-1.9,2.98,2.519,2.519,0,0,1,.92,1.2A.857.857,0,0,1,4.32-10.74Z" transform="translate(592 801)" fill="#fff"/>
    <path id="路径_6842" data-name="路径 6842" d="M-10.48,1.52a.332.332,0,0,1-.25-.12.4.4,0,0,1-.11-.28q.12-1.74.16-3.52V-4.36h-4.3V-2.8q.04,1.9.12,2.98a.948.948,0,0,1-.44.34A1.561,1.561,0,0,1-16,.7q-.32,0-.32-.4.08-.68.12-1.7V-2.46a21.371,21.371,0,0,0-.2-3.24l1.54.74h4.18V-7.04H-13.5v.58q0,.1-.34.26a1.718,1.718,0,0,1-.7.16q-.28,0-.28-.4.04-.32.08-.92a4.078,4.078,0,0,1,.02-.44v-.9a18.513,18.513,0,0,0-.16-2.74l1.48.72h6.76l.3-.42a.9.9,0,0,1,.08-.12q.22-.32.36-.32.2,0,.81.53t.61.75a1.248,1.248,0,0,1-.74.36v1.1q0,.26.02.66.04.92.08,1.4a1.162,1.162,0,0,1-.49.34,1.655,1.655,0,0,1-.67.18h-.18v-.78H-9.42v2.08h4.24l.28-.38a.774.774,0,0,0,.1-.14q.2-.26.32-.26a2.329,2.329,0,0,1,.88.51q.68.51.68.73a1.452,1.452,0,0,1-.84.38v2.96A1.756,1.756,0,0,1-4.1.06,2.539,2.539,0,0,1-5.78.68a1.315,1.315,0,0,0-.38-.94A3.451,3.451,0,0,0-7.8-.76v-.3q1.18.06,2.36.14.46,0,.46-.38V-4.36H-9.42v1.8Q-9.38-.38-9.3.9a1.036,1.036,0,0,1-.38.38A1.411,1.411,0,0,1-10.48,1.52ZM-13.5-7.6h7.04v-2.54H-13.5Zm-4.38-1.9a.6.6,0,0,1-.6-.34.678.678,0,0,1,0-.6,1.213,1.213,0,0,1,.46-.48,3.093,3.093,0,0,0,1.04-1.22,4.037,4.037,0,0,0,.42-1.88h.34a9.244,9.244,0,0,1,.18.96h5.38a24.853,24.853,0,0,0-.24-3.78,8.475,8.475,0,0,1,1.86.66q.28.2-.02.38l-.32.22v2.52H-7.8a15.253,15.253,0,0,0,1.64-3.7,9.938,9.938,0,0,1,1.8.92q.28.22-.06.3l-.38.08a18.061,18.061,0,0,1-2.46,2.4H-3.5l.36-.44a1.169,1.169,0,0,0,.1-.12q.28-.32.42-.32.18,0,.81.63t.63.85a1.189,1.189,0,0,1-.74.2,10.409,10.409,0,0,1-2.1,2l-.28-.16a14.631,14.631,0,0,0,.82-2.06H-16.02a4.118,4.118,0,0,1-.34,1.7,2.358,2.358,0,0,1-.74.98A1.2,1.2,0,0,1-17.88-9.5ZM-13-13.34a.662.662,0,0,1-.84-.1,4.11,4.11,0,0,0-.58-1.58,5.176,5.176,0,0,0-1.1-1.32l.2-.16a4.929,4.929,0,0,1,2.04,1.1,1.911,1.911,0,0,1,.62,1.24A.843.843,0,0,1-13-13.34ZM7.16,1.56l-.1-.3a7.816,7.816,0,0,0,3.3-2.52A8.124,8.124,0,0,0,11.5-5.04h-.7v.72q0,.1-.26.24a1.634,1.634,0,0,1-.74.16.352.352,0,0,1-.26-.13.4.4,0,0,1-.12-.27q0-.12.02-.34.14-2.32.18-4.62v-2.68a26.164,26.164,0,0,0-.26-4.1l1.68.72h5.2l.3-.46a.9.9,0,0,1,.08-.12q.22-.36.36-.36.2,0,.78.54t.58.76a1.368,1.368,0,0,1-.78.34V-9.5q.04,2.48.16,4.7a1.516,1.516,0,0,1-1.2.5h-.18v-.74H15.3V-.2q0,.18.07.23a.674.674,0,0,0,.33.05h1.74a.324.324,0,0,0,.28-.24,18.629,18.629,0,0,0,.5-2.46h.24L18.52-.1a.592.592,0,0,1,.42.56.633.633,0,0,1-.46.62,6.171,6.171,0,0,1-1.9.2H15.44a1.673,1.673,0,0,1-1.1-.26A1.314,1.314,0,0,1,14.1.1V-5.04H12.76A7.675,7.675,0,0,1,11.22-.8,8.228,8.228,0,0,1,7.16,1.56ZM1.42,1.54l-.28-.26A9.57,9.57,0,0,0,3.58-2.78a18.087,18.087,0,0,0,.74-4.98H3.34a7.1,7.1,0,0,0-1.76.28l-.5-1.04q.9.12,2.2.16H4.34v-3.9H3.46a5.246,5.246,0,0,0-1.52.28L1.44-13a17.607,17.607,0,0,0,1.96.16h.94A27.1,27.1,0,0,0,4.1-16.8a7.434,7.434,0,0,1,1.82.68q.26.18-.04.38l-.32.22v2.68H6.4l.38-.56.12-.18q.28-.4.4-.4.18,0,.81.6t.63.82q-.06.3-.5.3H5.56v3.9H6.72l.38-.58q.06-.08.16-.22.26-.36.38-.36.18,0,.83.61t.65.83q-.08.32-.5.32H5.54q-.06,1.32-.2,2.34A6.784,6.784,0,0,1,7.72-3.9a2.859,2.859,0,0,1,.86,1.48.957.957,0,0,1-.23.96q-.35.3-.85-.06A7.159,7.159,0,0,0,5.24-4.96,9.943,9.943,0,0,1,1.42,1.54ZM10.8-5.62h5.54v-2.7H10.8Zm0-3.3h5.54v-2.64H10.8Zm0-3.24h5.54v-2.6H10.8Z" transform="translate(704 801)" fill="#fff"/>
    <path id="路径_6843" data-name="路径 6843" d="M-17.9,1.58l-.98-1.82q.46-.22,1.76-.98.36-.22.54-.32V-6.16h-.72a3.61,3.61,0,0,0-1.24.28l-.48-1.02a10.037,10.037,0,0,0,1.48.16h.66l.38-.56q.06-.08.16-.22.26-.36.38-.36.2,0,.97.67t.77.89a1.513,1.513,0,0,1-.94.38V-2.1a4.747,4.747,0,0,0,2.4,1.44,18.132,18.132,0,0,0,3.94.3q5.42,0,7.84-.08L-1-.16a1.293,1.293,0,0,0-1.08,1.3H-8.8A11.8,11.8,0,0,1-12.94.6a5.218,5.218,0,0,1-2.44-2.3,26.123,26.123,0,0,1-2.3,2.78A.437.437,0,0,1-17.9,1.58ZM-4.24-1a1.238,1.238,0,0,0-.34-.84,2.814,2.814,0,0,0-1.36-.44v-.16q-.04,0-.13.01a1.4,1.4,0,0,1-.15.01h-.2v-.62H-9.08v.58q0,.08-.34.24a1.818,1.818,0,0,1-.7.16q-.26,0-.26-.4.04-.3.08-.84a3.316,3.316,0,0,1,.02-.4v-.84a16.026,16.026,0,0,0-.16-2.56L-9-6.4h.66V-8.02h-.94a6.047,6.047,0,0,0-1.64.28l-.5-1.02a20.134,20.134,0,0,0,2.08.16h1v-1.68h-3.38v3.86q.04,2.48.16,4.7a1.212,1.212,0,0,1-.52.4,1.939,1.939,0,0,1-.84.2.384.384,0,0,1-.28-.12.384.384,0,0,1-.12-.28q.14-1.78.18-3.9V-7.58a26.165,26.165,0,0,0-.26-4.1l1.78.82H-10a1.309,1.309,0,0,1-.48-.28,5.555,5.555,0,0,0-.88-2.8l.16-.08h-.9a5.246,5.246,0,0,0-1.52.28l-.52-1.02q1.1.12,2.66.16h2.96A16.567,16.567,0,0,0-8.66-17a9.223,9.223,0,0,1,1.94.66q.28.16,0,.36l-.3.2v1.18h2.98l.44-.62a.989.989,0,0,0,.14-.2q.34-.42.46-.42a2.711,2.711,0,0,1,.97.64q.77.64.77.86-.08.32-.52.32H-5.52a6.664,6.664,0,0,1,1.66.56q.24.16-.08.28l-.36.12a14.057,14.057,0,0,1-1.9,2.2h2.34l.34-.5a.429.429,0,0,0,.08-.14q.26-.38.4-.38.2,0,.92.63t.72.85a1.233,1.233,0,0,1-.82.4v7.26a1.721,1.721,0,0,1-.34,1.2A2.72,2.72,0,0,1-4.24-1Zm.2-1.48a.336.336,0,0,0,.38-.38v-7.42h-3q-.08.3-.52.38v1.3h1.3l.3-.46a.774.774,0,0,0,.1-.14q.22-.32.34-.32.2,0,.71.48t.51.7a.429.429,0,0,1-.48.32H-7.18V-6.4h.78l.26-.4q.04-.06.12-.16.18-.26.3-.26.18,0,.69.52t.51.74a1.218,1.218,0,0,1-.72.34V-2.8a.89.89,0,0,1-.36.24Q-4.68-2.48-4.04-2.48ZM-9.08-3.62h2.66v-2.2H-9.08Zm-6.46-5.84a.751.751,0,0,1-.92.02,5.04,5.04,0,0,0-.94-1.46,7.906,7.906,0,0,0-1.3-1.22l.2-.14a5.156,5.156,0,0,1,2.34.74,1.847,1.847,0,0,1,.86,1.14A.924.924,0,0,1-15.54-9.46Zm5.9-1.4H-6.7a15.009,15.009,0,0,0,.9-3.16h-5.3a3.83,3.83,0,0,1,1.76,1.24,1.531,1.531,0,0,1,.3,1.24A.835.835,0,0,1-9.64-10.86Zm-5.32-2.6a.782.782,0,0,1-.94.02,4.614,4.614,0,0,0-.84-1.52,6.339,6.339,0,0,0-1.22-1.24l.18-.18a4.979,4.979,0,0,1,2.28.84,1.916,1.916,0,0,1,.82,1.18A.894.894,0,0,1-14.96-13.46ZM9.46,1.62A.534.534,0,0,1,9.1,1.5a.36.36,0,0,1-.14-.28q0-.14.02-.38.14-2.18.18-4.36V-6.1H3.94v.46a2.454,2.454,0,0,1,.02.34q.04.32.06.46-.06.22-.5.42a1.973,1.973,0,0,1-.92.24.344.344,0,0,1-.28-.12.424.424,0,0,1-.1-.28q.08-1.12.14-3.04V-9.36a26.164,26.164,0,0,0-.26-4.1l1.98.88H9.16v-.26a26.164,26.164,0,0,0-.26-4.1,12.861,12.861,0,0,1,2.2.7q.3.2,0,.4l-.36.24v3.02h5.04l.38-.46q.04-.04.12-.14.28-.32.4-.32a2.7,2.7,0,0,1,.96.59q.76.59.76.81a1.291,1.291,0,0,1-.82.42v2.26q.04,2.32.16,4.4a1.6,1.6,0,0,1-.62.38,2.42,2.42,0,0,1-.88.2q-.34,0-.34-.4.02-.14.04-.38.02-.18.04-.32V-6.1H10.74v2.36q.04,2.46.16,4.62a1.238,1.238,0,0,1-.56.5A1.9,1.9,0,0,1,9.46,1.62ZM3.94-6.68H9.16V-12H3.94Zm6.8,0h5.24V-12H10.74Z" transform="translate(760 801)" fill="#fff"/>
    <path id="路径_6844" data-name="路径 6844" d="M-15.52,1.7q-.54,0-.54-.4.14-1.9.18-4.22V-5.24A16.193,16.193,0,0,1-18.96-1.3l-.26-.22A22.824,22.824,0,0,0-16.3-9.04h-.86a4.9,4.9,0,0,0-1.44.28l-.5-1.02q.9.12,2.2.16h1.02v-3.26a26.165,26.165,0,0,0-.26-4.1,12.079,12.079,0,0,1,2.3.72q.34.2.04.4l-.34.22v6.02h.72l.42-.64q.04-.06.1-.16.32-.48.46-.48.2,0,.94.66t.74.88q-.08.32-.5.32h-2.88v.98a5.6,5.6,0,0,1,2.2,1.54,2.191,2.191,0,0,1,.6,1.46.886.886,0,0,1-.5.86.921.921,0,0,1-1.02-.24,9.548,9.548,0,0,0-1.28-3.04v3.82q.04,2.48.16,4.7a1.116,1.116,0,0,1-.58.44A2.381,2.381,0,0,1-15.52,1.7Zm3.2-.28L-12.82.4A13.554,13.554,0,0,0-11.1.56h.78V-11.92a26.164,26.164,0,0,0-.26-4.1l2.16.9h3.7l.36-.56.12-.18q.26-.38.38-.38a3.362,3.362,0,0,1,1.08.66q.9.68.9.88a1.353,1.353,0,0,1-.88.4V.56h.02l.34-.7.12-.24q.26-.48.38-.48.18,0,.74.73A2.463,2.463,0,0,1-.6.82q-.06.32-.48.32H-9.32A20.266,20.266,0,0,0-12.32,1.42Zm3.7-.86h4.1v-4.9h-4.1Zm0-5.48h4.1V-9.58h-4.1Zm0-5.22h4.1v-4.42h-4.1Zm-8.46-.62q-.46.18-.9-.34a12.9,12.9,0,0,0-.64-4.14l.24-.08a5.938,5.938,0,0,1,1.6,2.02,2.9,2.9,0,0,1,.28,1.64A1.088,1.088,0,0,1-17.08-10.76Zm3.52.08-.3-.14.06-.24q.1-.32.14-.48A18.285,18.285,0,0,0-13-15.72l1.34.54q1.42.36.74.62l-.36.14A19.836,19.836,0,0,1-13.56-10.68ZM3.06,1.76a.441.441,0,0,1-.31-.12.37.37,0,0,1-.13-.28q.14-1.9.18-4.24V-5.2a26.164,26.164,0,0,0-.26-4.1l1.98.86h2l.76-.96.68.54A.62.62,0,0,0,8-8.98q.2-.72.3-1.06H2.58a2.1,2.1,0,0,1-.44,1.8.75.75,0,0,1-.64.22.579.579,0,0,1-.56-.36.766.766,0,0,1,0-.64,1.051,1.051,0,0,1,.44-.5,1.632,1.632,0,0,0,.48-.78,1.976,1.976,0,0,0,.12-1.02l.32.02a.776.776,0,0,1,.04.1q.12.4.16.58h.16v-1.86a26.164,26.164,0,0,0-.26-4.1l1.86.8H6.74l.3-.48a.9.9,0,0,1,.08-.12q.22-.36.36-.36a2.763,2.763,0,0,1,.96.54q.78.58.78.78a1.184,1.184,0,0,1-.88.38v4.28l.68-.72.66.66v-.74a26.164,26.164,0,0,0-.26-4.1l1.8.8h.98a14.821,14.821,0,0,0-.12-2.02,6.86,6.86,0,0,1,1.46.62q.2.18-.02.34l-.26.16v.9h1.12a14.821,14.821,0,0,0-.12-2.02,6.866,6.866,0,0,1,1.48.62q.2.18-.02.34l-.26.16v.9h.84l.36-.48a1.217,1.217,0,0,0,.14-.18q.24-.32.36-.32.2,0,.91.61t.71.83a1.114,1.114,0,0,1-.78.38v4.56q0,.12-.44.26,1.02.9,1.5,1.36-.08.32-.52.32H12.5a20.265,20.265,0,0,0-3,.28L9-8.26q1.1.12,2.66.16h4.8l.7-.96a1.826,1.826,0,0,1-.44.06h-.24v-.62H11.14v.48q0,.12-.4.3a2.07,2.07,0,0,1-.86.2q-.28,0-.28-.4a1.275,1.275,0,0,0,.04-.18q.02-.08.04-.14v-.36q-.76.68-1.36,1.14l.78.62a1.181,1.181,0,0,1-.74.36V-.44a2.636,2.636,0,0,1-.32,1.5A2.3,2.3,0,0,1,6.4,1.7,3.471,3.471,0,0,0,6.16.5a1.454,1.454,0,0,0-.98-.56v-.3L6.4-.28q.3,0,.3-.34V-2.58H4.46v1.26q0,.3.02.76.04,1.08.08,1.64a.989.989,0,0,1-.52.44A2.169,2.169,0,0,1,3.06,1.76Zm6.02-.32L8.58.42q1.1.12,2.66.16h2.9a11.285,11.285,0,0,0,.58-3.2,11.905,11.905,0,0,1,2.08.86q.3.22-.02.32l-.36.1A23.7,23.7,0,0,1,14.64.58h1.98l.42-.6q.06-.08.18-.22.28-.4.4-.4.2,0,.93.63t.73.85q-.08.32-.5.32h-6.7A20.266,20.266,0,0,0,9.08,1.44Zm3.58-.9a.846.846,0,0,1-.88-.28,4.612,4.612,0,0,0-.62-2.4,2.53,2.53,0,0,1-.8.14h-.22V-4.52a16.756,16.756,0,0,0-.16-2.62l1.88.84h3.8l.38-.54q.04-.06.12-.16.28-.38.4-.38a2.915,2.915,0,0,1,1.01.68q.81.68.81.9a1.634,1.634,0,0,1-.82.4v.92q0,.2.02.54.04.78.08,1.16a1.2,1.2,0,0,1-.61.37,2.647,2.647,0,0,1-.91.19h-.26v-.8h-4.1v.5q0,.06-.24.2A3.31,3.31,0,0,1,13-1.18a1.351,1.351,0,0,1,.22,1.1A.81.81,0,0,1,12.66.54Zm-8.2-3.7H6.7V-5.24H4.46Zm7.32-.44h4.1V-5.72h-4.1ZM4.46-5.82H6.7V-7.86H4.46Zm6.68-4.36H12.2v-1.76H11.14Zm2.12,0h1.12v-1.76H13.26Zm2.2,0h1.02v-1.76H15.46ZM4.04-10.62h.88A22.852,22.852,0,0,0,4.7-14.2l1.5.7h.74v-1.72H4.04Zm1.9,0h1v-2.3h-1Zm5.2-1.9H12.2v-1.76H11.14Zm2.12,0h1.12v-1.76H13.26Zm2.2,0h1.02v-1.76H15.46Z" transform="translate(816 801)" fill="#fff"/>
    <rect id="矩形_3599" data-name="矩形 3599" width="872" height="56" transform="translate(0 905)" fill="#ff6baa"/>
    <path id="路径_6845" data-name="路径 6845" d="M-85.344.336q-3.96,0-4.8-3.456a1.1,1.1,0,0,1,1.128-.792.95.95,0,0,1,.768.312,3.3,3.3,0,0,1,.5,1.152l.48,1.56a6.625,6.625,0,0,0,1.8.264,3.917,3.917,0,0,0,3.1-1.248,4.864,4.864,0,0,0,1.08-3.336A4.5,4.5,0,0,0-82.44-8.5a4.119,4.119,0,0,0-3.048-1.128,7.808,7.808,0,0,0-2.616.408l-.672-.144.552-8.136H-79.8v1.776h-7.488l-.36,5.256a8.519,8.519,0,0,1,2.712-.432A5.66,5.66,0,0,1-80.9-9.48a5.336,5.336,0,0,1,1.536,4.056A5.543,5.543,0,0,1-81.012-1.26,5.955,5.955,0,0,1-85.344.336Zm18.576,1.512a.482.482,0,0,1-.348-.156.459.459,0,0,1-.156-.324q.216-3.1.264-6.24v-3.36A20.478,20.478,0,0,1-70.752-2.4l-.336-.312a25.586,25.586,0,0,0,3.768-9.6h-1.008a5.883,5.883,0,0,0-1.728.336l-.6-1.2a24.16,24.16,0,0,0,2.5.192h1.152v-4.008a30.545,30.545,0,0,1-3.5.816l-.144-.384a22.345,22.345,0,0,0,2.448-.984,12.945,12.945,0,0,0,3.936-2.64,13.363,13.363,0,0,1,1.7,1.632q.216.336-.264.312l-.552-.024q-.792.36-2.184.84v4.44h.792l.432-.672a.928.928,0,0,0,.12-.168q.336-.5.5-.5.24,0,.972.684t.732.948q-.1.384-.6.384h-2.952v2.448a7.219,7.219,0,0,1,2.3,1.536,2.5,2.5,0,0,1,.744,1.416.842.842,0,0,1-.312.876q-.384.252-.888-.156a9.885,9.885,0,0,0-1.848-3.192v4.968q.048,2.976.192,5.64A1.61,1.61,0,0,1-66.768,1.848Zm3.36-.6-.6-1.224q1.32.144,3.192.192h3.648V-2.592h-1.7a17.337,17.337,0,0,0-3.072.336l-.624-1.224q1.32.144,3.192.192h2.208V-5.76h-3.288v.6q0,.12-.36.288a1.9,1.9,0,0,1-.816.192q-.384,0-.384-.48.1-.984.144-2.472V-9.12a29.824,29.824,0,0,0-.288-4.536l1.824.84h3.168V-14.88h-1.9a23.322,23.322,0,0,0-3.552.336l-.624-1.224q1.32.144,3.192.192h2.88v-1.992q-3.024.336-5.424.36l-.072-.432a54.119,54.119,0,0,0,6.312-1.2A15.875,15.875,0,0,0-52.2-20.424a13.611,13.611,0,0,1,1.464,1.8q.168.36-.312.312l-.576-.1q-1.9.408-4.1.672v2.16h3.456l.456-.672q.048-.072.168-.216.336-.456.48-.456.24,0,1.044.708t.8.972q-.024.36-.6.36h-5.808v2.064h3.336l.336-.432q.048-.048.144-.168.216-.288.36-.288a2.349,2.349,0,0,1,.96.552q.72.552.72.816a1.574,1.574,0,0,1-.888.456v2.16q.048,2.64.144,4.176a1.315,1.315,0,0,1-.552.4,1.875,1.875,0,0,1-.792.2h-.24V-5.76h-3.528v2.472h2.736l.456-.672q.048-.072.168-.216.336-.456.48-.456.24,0,1.02.7t.78.96q-.072.384-.576.384h-5.064V.216h3.576l.48-.7q.048-.072.168-.216.36-.48.5-.48.24,0,1.056.732t.816,1q-.1.36-.576.36h-10.1A24.319,24.319,0,0,0-63.408,1.248Zm2.952-7.728h3.288V-9.024h-3.288Zm4.728,0H-52.2V-9.024h-3.528ZM-60.456-9.7h3.288V-12.12h-3.288Zm4.728,0H-52.2V-12.12h-3.528ZM-37.872,1.872a1.493,1.493,0,0,0-.6-1.08,5.4,5.4,0,0,0-2.28-.624V-.216q1.7.1,3.384.216a.65.65,0,0,0,.456-.12.565.565,0,0,0,.12-.408V-6.48h-5.616a24.319,24.319,0,0,0-3.6.336l-.624-1.2q1.32.144,3.192.192h6.648a18.841,18.841,0,0,0-.192-3.024l1.68.288a18.324,18.324,0,0,0,2.76-2.568h-5.712a24.319,24.319,0,0,0-3.6.336l-.648-1.224q1.32.144,3.192.192h7.056l.48-.624q.048-.072.168-.216.336-.408.48-.408.216,0,.984.8t.768,1.068a1.467,1.467,0,0,1-.936.264,24.678,24.678,0,0,1-4.3,2.448l.144.024q-.072.48-.768.624v2.016H-28.7l.528-.744q.072-.1.192-.264.36-.5.5-.5.24,0,1.116.768t.876,1.032q-.1.384-.6.384h-9.144V-.408a2.124,2.124,0,0,1-.456,1.536A3.4,3.4,0,0,1-37.872,1.872Zm-7.488-14.4a.73.73,0,0,1-.744-.384.685.685,0,0,1-.024-.72,1.39,1.39,0,0,1,.528-.624,3.755,3.755,0,0,0,1.128-1.56,5.075,5.075,0,0,0,.456-2.3h.384a9.415,9.415,0,0,1,.288,1.464h6.552a25.654,25.654,0,0,0-.216-3.648,8.427,8.427,0,0,1,2.208.816q.336.216-.024.456l-.408.264v2.112h7.008l.456-.576a1.4,1.4,0,0,0,.12-.144q.336-.432.5-.432.216,0,.96.828t.744,1.092a1.859,1.859,0,0,1-.912.24,13.674,13.674,0,0,1-2.832,2.184l-.264-.168q.456-.792,1.2-2.3H-43.32a3.77,3.77,0,0,1-1.1,3A1.362,1.362,0,0,1-45.36-12.528ZM-22.152,1.416l-.6-1.224q1.32.144,3.192.192h6.72V-2.328h-3.888a24.319,24.319,0,0,0-3.6.336l-.648-1.248q1.32.144,3.192.192h4.944V-5.472H-18v.48q0,.144-.384.336a2.112,2.112,0,0,1-.864.192q-.384,0-.384-.48.1-.984.144-2.448V-8.88a29.337,29.337,0,0,0-.288-4.512l1.92.888h5.016V-14.76h-5.328a24.319,24.319,0,0,0-3.6.336l-.624-1.224q1.32.144,3.192.192h6.36v-2.208q-3.888.36-7.7.408l-.072-.48a96.514,96.514,0,0,0,10.9-1.488,18.734,18.734,0,0,0,4.056-1.248,11.09,11.09,0,0,1,1.248,1.7q.144.336-.336.264l-.6-.12q-2.808.48-5.952.816v2.352h6.48l.48-.7q.048-.072.12-.192.384-.528.552-.528.24,0,1.1.744T-1.7-15.12q-.1.36-.624.36H-11.3V-12.5h4.968l.36-.48q.048-.048.144-.168.264-.312.408-.312a2.6,2.6,0,0,1,1.02.612q.78.612.78.876a1.532,1.532,0,0,1-.984.48V-9.36q.048,2.568.144,4.128a1.7,1.7,0,0,1-.576.36,2.314,2.314,0,0,1-.84.192H-6.1v-.792H-11.3v2.424h5.376l.48-.648a2.042,2.042,0,0,0,.192-.24q.312-.408.456-.408.24,0,1.044.684t.8.948a.515.515,0,0,1-.576.384H-11.3V.384h6.672l.5-.744q.072-.1.216-.264.336-.48.48-.48.24,0,1.128.78T-1.416.72q-.072.36-.6.36H-18.552A24.319,24.319,0,0,0-22.152,1.416ZM-18-6.192h5.16v-2.5H-18Zm6.7,0H-6.1v-2.5H-11.3ZM-18-9.384h5.16v-2.4H-18Zm6.7,0H-6.1v-2.4H-11.3Z" transform="translate(836 941)" fill="#fff"/>
    <path id="路径_6846" data-name="路径 6846" d="M16.8.64A13.87,13.87,0,0,1,6.26-3.64,15.28,15.28,0,0,1,2.2-14.6,15.171,15.171,0,0,1,6.32-25.54a14.031,14.031,0,0,1,10.6-4.3,16.446,16.446,0,0,1,8.72,2.24l.16,6.28H23.56l-.88-5.28a10.291,10.291,0,0,0-5.4-1.44,10.051,10.051,0,0,0-8.04,3.56q-3.12,3.64-3.12,9.9T9.14-4.74A10.234,10.234,0,0,0,17.4-1.16a14.6,14.6,0,0,0,5.44-1.12V-3.96q0-4.04-.12-8.12l-4.68-.36v-1.44H29.08v1.44l-2.76.28Q26.2-8.2,26.2-3.92v1.96A19.66,19.66,0,0,1,16.8.64ZM41.36.56a8.993,8.993,0,0,1-6.92-2.8q-2.72-2.88-2.72-7.92a11.24,11.24,0,0,1,2.92-8,9.1,9.1,0,0,1,6.88-2.96,7.874,7.874,0,0,1,5.76,2.2,8.055,8.055,0,0,1,2.24,5.96,8.313,8.313,0,0,1-.28,2.48l-14.28-.04a9.86,9.86,0,0,0,2.12,6.64,6.718,6.718,0,0,0,5.28,2.2A7.911,7.911,0,0,0,48.64-4.8l.84.64A8.75,8.75,0,0,1,41.36.56ZM35-12.04h9.36a2.227,2.227,0,0,0,1.76-.6,2.433,2.433,0,0,0,.4-1.56,5.3,5.3,0,0,0-1.44-3.72,4.979,4.979,0,0,0-3.76-1.6,5.4,5.4,0,0,0-4.08,1.84A9.462,9.462,0,0,0,35-12.04ZM53.44,0V-1.28l3.36-.48q.12-3.36.12-7.36v-2.2q0-2.36-.16-5.68v-.4l-3.56-.28v-1.28l5.76-2.12.56.4L59.84-17a14.024,14.024,0,0,1,3.88-3.02,8.922,8.922,0,0,1,4.12-1.1,4.769,4.769,0,0,1,4.12,1.8q1.36,1.88,1.36,6.04v4.16q0,4,.12,7.32l3.16.52V0H66.8V-1.28l3.4-.48q.08-4.4.08-7.36v-4a7.639,7.639,0,0,0-.92-4.32,3.286,3.286,0,0,0-2.84-1.2q-3.08,0-6.56,3.2v6.32q0,2.92.08,7.32l3.16.52V0Zm26.4,0V-1.28l3.28-.48q.12-3.36.12-7.36v-2.2q0-2.36-.16-5.64v-.44l-3.56-.28v-1.28l5.76-2.12.56.4.4,5.24a10.752,10.752,0,0,1,2.84-4.16,5.575,5.575,0,0,1,3.68-1.52,4.356,4.356,0,0,1,1.86.4,2.357,2.357,0,0,1,1.18,1.04q0,2.72-2.24,2.72A4.065,4.065,0,0,1,91-18.12l-.56-.48a11.282,11.282,0,0,0-4.16,5.84v3.64q0,2.84.08,7.32l3.68.52V0Zm20.24,10.92a4.58,4.58,0,0,1-2.56-.68A2.235,2.235,0,0,1,96.36,8.4a1.786,1.786,0,0,1,.92-1.2,3.1,3.1,0,0,1,1.6-.4,4.394,4.394,0,0,1,3,1.48l.32.32q2.72-1.92,4.44-6.64l.36-.92-7.92-20-2.56-.36v-1.24h9.92v1.28l-3.84.44,5.88,15.92,5.68-15.88-3.92-.52v-1.24h8.36v1.24l-2.44.48L108.8.64a27.308,27.308,0,0,1-4.16,7.88A6.008,6.008,0,0,1,100.08,10.92ZM128.64.56a4.974,4.974,0,0,1-4.2-1.76q-1.52-1.92-1.48-6.16l.12-11.12-3.32-.56v-1.28l6-.52.4.44-.2,6.08V-7.6a7.587,7.587,0,0,0,.96,4.36A3.4,3.4,0,0,0,129.84-2q3.44,0,6.52-3.2l.08-13.28-3.28-.56v-1.28l5.92-.52.44.44-.16,6.08V-1.76l3.08.48V0l-5.68.36-.32-4Q133.04.56,128.64.56Z" transform="translate(68 870)" fill="#fff"/>
    <path id="路径_6847" data-name="路径 6847" d="M-11.52,0V-.64l2.14-.2q.02-1.96.02-5.84V-7.82q0-3.96-.02-5.88l-2.14-.2v-.62h5.8v.62l-2.12.2q-.04,1.94-.04,6.16V-6.3q0,3.58.04,5.5h5.5l.58-3.06h.9L-1.04,0Z" transform="translate(655 879)" fill="#fff"/>
    <path id="路径_6848" data-name="路径 6848" d="M-24.18,0V-.56l2.16-.2q.04-1.94.04-5.9V-7.8q0-3.98-.04-5.94l-2.16-.18v-.54h10.4l.18,3.5h-.78l-.46-2.84h-5.84q-.02,1.92-.02,6.14h3.76l.26-2.1h.62v4.82h-.62l-.24-2.1H-20.7q0,4.42.02,6.38h6.18l.48-2.86h.76L-13.44,0Zm12.92,0V-.56l2.16-.2q.04-1.94.04-5.86V-7.8q0-4-.04-5.94l-2.16-.18v-.54h5.68v.54l-2.18.18q-.02,1.96-.02,6.36v1.12q0,3.62.02,5.6h5.7l.52-3.08h.76L-.94,0Z" transform="translate(605 879)" fill="#fff"/>
    <path id="路径_6849" data-name="路径 6849" d="M-1.9.2A2.723,2.723,0,0,1-3.32-.09a1.554,1.554,0,0,1-.64-.97l-1-3.6a2.922,2.922,0,0,0-.98-1.72,3.8,3.8,0,0,0-2.02-.4H-9.3q0,3.96.06,5.84l2.08.22V0H-13.1V-.72l2.08-.22q.06-1.9.06-5.8v-1.1q0-3.9-.06-5.82l-2.08-.22v-.7h5.96a6.3,6.3,0,0,1,3.81,1,3.3,3.3,0,0,1,1.35,2.82A3.371,3.371,0,0,1-2.9-8.4,4.911,4.911,0,0,1-5.64-7.04a2.713,2.713,0,0,1,1.47.8,4.807,4.807,0,0,1,.93,1.8L-2.16-.9l1.8.18V0A5.732,5.732,0,0,1-1.9.2ZM-9.3-7.58h1.98A3.759,3.759,0,0,0-4.64-8.5a2.974,2.974,0,0,0,.92-2.28q0-2.98-3.46-2.98H-9.24Q-9.3-11.84-9.3-7.58Z" transform="translate(711 879)" fill="#fff"/>
    <path id="路径_6850" data-name="路径 6850" d="M-9.03,0V-.76l1.98-.28.02-12.62-2-.24v-.76h4L-.09-2.5,4.65-14.66H8.87v.76l-2.04.22q-.04,1.9-.04,5.82v1.08q0,3.86.04,5.8l2.02.22V0H2.89V-.76l1.9-.22q.04-1.9.04-5.74l.02-5.88L-.09,0h-.94L-6.15-12.56q.02,1.34.1,3.9.02.64.02.68v6.94l1.9.28V0Z" transform="translate(760 879)" fill="#fff"/>
    <path id="路径_6851" data-name="路径 6851" d="M-7.34.36A8.768,8.768,0,0,1-9.74.02a7.815,7.815,0,0,1-1.94-.84L-11.56-4h1.1l.68,2.92a4.906,4.906,0,0,0,2.26.5,4.034,4.034,0,0,0,2.5-.7,2.4,2.4,0,0,0,.92-2,2.357,2.357,0,0,0-.6-1.68A5.81,5.81,0,0,0-6.74-6.14l-.86-.38a8.038,8.038,0,0,1-2.82-1.8,3.869,3.869,0,0,1-1.02-2.7A3.626,3.626,0,0,1-10-14.04,5.661,5.661,0,0,1-6.42-15.1a6.164,6.164,0,0,1,3.68,1.16l-.12,2.96H-3.98l-.68-2.8a3.475,3.475,0,0,0-1.68-.38,3.4,3.4,0,0,0-2.18.64,2.251,2.251,0,0,0-.84,1.88,2.428,2.428,0,0,0,.62,1.7A4.757,4.757,0,0,0-6.96-8.82l.9.4A8.514,8.514,0,0,1-2.92-6.49,3.771,3.771,0,0,1-2-3.88,3.74,3.74,0,0,1-3.45-.79,6.087,6.087,0,0,1-7.34.36ZM-.3,0V-.72L1.68-.94q.04-1.98.04-6.02v-.98q0-3.92-.04-5.86L-.3-14.02v-.72H6.12a5.871,5.871,0,0,1,3.68,1A3.057,3.057,0,0,1,11-11.2a3,3,0,0,1-.82,2.12A5.158,5.158,0,0,1,7.34-7.74a6.269,6.269,0,0,1,3.42,1.28A3.114,3.114,0,0,1,11.8-4.04a3.355,3.355,0,0,1-1.34,2.76A7.346,7.346,0,0,1,5.76,0ZM4.04-.84h1.4a4.63,4.63,0,0,0,2.95-.81A2.858,2.858,0,0,0,9.4-4.02a2.912,2.912,0,0,0-1-2.42,5.139,5.139,0,0,0-3.18-.8H4.02Q4.02-2.86,4.04-.84ZM4.02-8.06H5.1q3.66,0,3.66-3.06a2.614,2.614,0,0,0-.81-2.12,3.853,3.853,0,0,0-2.51-.68H4.04Q4.02-12,4.02-8.06Z" transform="translate(816 879)" fill="#fff"/>
  </g>
</svg>
