<svg xmlns="http://www.w3.org/2000/svg" width="872" height="240" viewBox="0 0 872 240">
  <g id="genyogothictw" transform="translate(0 -384)">
    <rect id="矩形_3593" data-name="矩形 3593" width="872" height="240" transform="translate(0 384)" fill="#313740"/>
    <rect id="矩形_3595" data-name="矩形 3595" width="872" height="56" transform="translate(0 568)" fill="#48d7dd"/>
    <path id="路径_6905" data-name="路径 6905" d="M10.273,3.906q-1.484,0-1.484-1.836V-11.68a32.272,32.272,0,0,1-2.656,5.82Q4.57-3.32,3.516-3.32,2.07-3.32,2.07-4.883a2.571,2.571,0,0,1,.7-1.68A27.778,27.778,0,0,0,8.438-17.344H3.945q-1.758,0-1.758-1.562,0-1.523,1.758-1.523H8.789v-9.648q0-1.836,1.523-1.836t1.523,1.836v9.648h2.93a1.8,1.8,0,0,1,1.25.391,1.453,1.453,0,0,1,.43,1.133q0,1.562-1.68,1.563h-2.93v4.3A1.169,1.169,0,0,1,12.7-13.4q.9,0,2.656,2.383,1.875,2.539,1.875,3.2a1.3,1.3,0,0,1-1.445,1.484q-.7,0-1.914-1.953l-1.953-3.008-.078-.156V2.07Q11.836,3.906,10.273,3.906ZM36.211-13.32q-1.523,0-3.867-3.789A23.2,23.2,0,0,1,29.3-26.133a2.216,2.216,0,0,0-.469-1.172,1.369,1.369,0,0,0-.977-.43H25.625q-1.406,0-1.406-1.523t1.406-1.523h3.438A2.8,2.8,0,0,1,31.25-30a4.218,4.218,0,0,1,.859,2.461,16.924,16.924,0,0,0,5.234,11.328,1.505,1.505,0,0,1,.43,1.172Q37.773-13.32,36.211-13.32ZM14.648-21.836a1.5,1.5,0,0,1-.957-.293,1.007,1.007,0,0,1-.371-.84,8.176,8.176,0,0,1,.352-1.8l.547-2.344q.312-1.562,1.523-1.562a1.518,1.518,0,0,1,1.055.352,1.3,1.3,0,0,1,.391,1.016A15.989,15.989,0,0,1,16.25-23.4Q15.7-21.836,14.648-21.836Zm-9.18-.078a1.078,1.078,0,0,1-.9-.469,5.026,5.026,0,0,1-.664-1.484l-.273-.859a13.7,13.7,0,0,1-.664-2.656,1.106,1.106,0,0,1,.352-.84,1.366,1.366,0,0,1,.977-.332,1.334,1.334,0,0,1,1,.488,3.554,3.554,0,0,1,.723,1.387L6.6-24.8A5.753,5.753,0,0,1,6.953-23.4,1.312,1.312,0,0,1,5.469-21.914Zm12.656,7.422q-1.172,1.719-1.992,1.719a1.5,1.5,0,0,1-1.074-.352,1.231,1.231,0,0,1-.371-.937,1.568,1.568,0,0,1,.43-1.094,17.754,17.754,0,0,0,2.7-4.277,45.71,45.71,0,0,0,2.109-5.41,4.68,4.68,0,0,1,.684-1.445,1.129,1.129,0,0,1,.918-.469q1.523,0,1.523,1.328A14.212,14.212,0,0,1,21.6-20.977,37.84,37.84,0,0,1,18.125-14.492Zm13.438-.547q3.32,0,3.32,2.852L34.531-5.9q-.273,5.352-1.641,7.383Q31.6,3.359,27.07,3.359q-1.8,0-1.8-1.68,0-1.641,2.539-1.758Q30.469-.2,30.9-1.523q.781-2.578.781-9.18a1.243,1.243,0,0,0-1.406-1.406H25.2A23.982,23.982,0,0,1,23.711-4.1a12.373,12.373,0,0,1-4.18,5.391A14.561,14.561,0,0,1,17.07,2.852,4.559,4.559,0,0,1,15.2,3.4a1.364,1.364,0,0,1-1.523-1.562A1.205,1.205,0,0,1,14.219.9,9.625,9.625,0,0,1,16.055-.117q6.055-2.891,6.172-11.992H19.336A1.3,1.3,0,0,1,18.32-12.5a1.518,1.518,0,0,1-.352-1.055q0-1.484,1.563-1.484Zm16.25,18.32a4.288,4.288,0,0,1-3.164-1,4.48,4.48,0,0,1-.977-3.223v-25.2a4.544,4.544,0,0,1,.977-3.262,4.288,4.288,0,0,1,3.164-1H72.266a4.288,4.288,0,0,1,3.164,1,4.544,4.544,0,0,1,.977,3.262v25.2a4.48,4.48,0,0,1-.977,3.223,4.288,4.288,0,0,1-3.164,1ZM71.25.469a1.761,1.761,0,0,0,1.992-1.992v-24.1a1.744,1.744,0,0,0-1.992-1.953H48.828a1.744,1.744,0,0,0-1.992,1.953V-1.484A1.744,1.744,0,0,0,48.828.469ZM53.594-19.492q-2.656,0-2.656-2.266v-1.6a2.063,2.063,0,0,1,.7-1.68,3.1,3.1,0,0,1,2.031-.586H66.719q2.539,0,2.656,2.266v1.6q0,2.266-2.656,2.266ZM65.664-21.6a1,1,0,0,0,.684-.2,1.057,1.057,0,0,0,.215-.781,1,1,0,0,0-.234-.762.948.948,0,0,0-.664-.215H54.648q-.9,0-.9.859a1.282,1.282,0,0,0,.215.879.935.935,0,0,0,.684.215ZM52.734-5.117q-2.812,0-2.812-2.852V-15a2.486,2.486,0,0,1,2.813-2.812H67.578A2.486,2.486,0,0,1,70.391-15v7.031q0,2.852-2.734,2.852Zm14.922-9.648a.937.937,0,0,0-.273-.723,1.2,1.2,0,0,0-.742-.293H53.672a1,1,0,0,0-.742.273,1,1,0,0,0-.273.742v.586h15Zm0,3.984V-12.3h-15v1.523ZM66.641-7.148a1.078,1.078,0,0,0,.781-.234,1.015,1.015,0,0,0,.234-.742v-.742h-15v.742q0,.9,1.016.977ZM50.2-.7A1.484,1.484,0,0,1,49.16-.957a.965.965,0,0,1-.371-.8.9.9,0,0,1,.41-.879,4.171,4.171,0,0,1,1.133-.352q.723-.137,1.035-.215,2.031-.352,4.141-.937.234-.078.723-.215a3.022,3.022,0,0,1,.684-.137q1.211.039,1.211,1.094,0,.781-1.719,1.289A34.818,34.818,0,0,1,50.2-.7Zm19.766.039a10.526,10.526,0,0,1-2.051-.371q-1.5-.371-3.848-1-1.953-.508-1.953-1.25a1.147,1.147,0,0,1,.371-.957,1.121,1.121,0,0,1,.957-.176q2.93.586,6.836,1.328,1.172.234,1.172,1.055Q71.445-.664,69.961-.664Zm31.8-15.273a3.466,3.466,0,0,1-2.48-.742,2.906,2.906,0,0,1-.645-2.383v-6.328a3.542,3.542,0,0,1,.742-2.5,2.863,2.863,0,0,1,2.383-.664h2.031v-1.953a1.315,1.315,0,0,1,.293-.957,1.194,1.194,0,0,1,.879-.293,1.088,1.088,0,0,1,1.211,1.25v1.953h2.617v-1.953A1.088,1.088,0,0,1,110-31.758q1.172,0,1.172,1.25v1.953h2.266a3.466,3.466,0,0,1,2.48.742,3.063,3.063,0,0,1,.684,2.422v6.328a3.418,3.418,0,0,1-.762,2.461,2.923,2.923,0,0,1-2.4.664ZM83.75-12.852q-1.289,0-1.289-1.523v-3.4a2.8,2.8,0,0,1,.488-1.758,1.915,1.915,0,0,1,1.426-.7v-7.422q0-2.891,2.93-2.891H93.4q2.93,0,2.93,2.891v7.422a2.011,2.011,0,0,1,1.426.7,2.8,2.8,0,0,1,.566,1.758v2.734q0,1.563-1.289,1.563t-1.289-1.562v-1.523a.863.863,0,0,0-.977-.977H86.055a.9.9,0,0,0-1.016.977v2.188Q85.039-12.852,83.75-12.852Zm5.2-10.234a2.089,2.089,0,0,1,2.344-2.383h2.578v-1.289a.919.919,0,0,0-1.016-1.016H87.93q-.977,0-1.055,1.055v6.445h2.07Zm14.883-2.969h-1.6q-.82,0-.9.9V-23.4h2.5Zm5,2.656v-2.656h-2.7V-23.4Zm5.039-1.758a.794.794,0,0,0-.9-.9h-1.836V-23.4h2.734Zm-20,2.148H92.383q-.937,0-.937.9v1.836h2.422Zm9.961,1.836h-2.5V-19.3a.816.816,0,0,0,.9.9h1.6Zm5,2.773v-2.773h-2.7V-18.4Zm4.141,0a.794.794,0,0,0,.9-.9v-1.875h-2.734V-18.4ZM86.641,3.789A1.359,1.359,0,0,1,85.605,3.4a1.644,1.644,0,0,1-.371-1.172V-12.7q0-2.773,2.852-2.773h4.922q2.813,0,2.813,2.773V.313a3.583,3.583,0,0,1-.781,2.52,3.16,3.16,0,0,1-2.422.84H91.289a1.485,1.485,0,0,1-1.055-.332A1.364,1.364,0,0,1,89.883,2.3,1.226,1.226,0,0,1,91.25.9h.664a1.161,1.161,0,0,0,.859-.312,1.216,1.216,0,0,0,.313-.9V-2.93H88.047V2.227Q88.047,3.789,86.641,3.789ZM99.453-11.6a1.424,1.424,0,0,1-1.016-.332,1.2,1.2,0,0,1-.352-.918q0-1.289,1.367-1.289H116.6a1.122,1.122,0,0,1,1.25,1.289,1.1,1.1,0,0,1-1.25,1.25Zm-6.367-.273a.9.9,0,0,0-1.016-1.016H89.063a.9.9,0,0,0-1.016,1.016v1.523h5.039Zm4.883,15A1.139,1.139,0,0,1,96.68,1.836,1.139,1.139,0,0,1,97.969.547h4.609l-.7-3.008a3.257,3.257,0,0,1-2.109-.605,2.16,2.16,0,0,1-.742-1.777v-2.5A2.428,2.428,0,0,1,99.707-9.2a2.829,2.829,0,0,1,2.012-.645h11.445q2.734,0,2.734,2.422v2.461q0,2.5-2.852,2.5L112.383.547h4.18a1.139,1.139,0,0,1,1.289,1.289,1.139,1.139,0,0,1-1.289,1.289ZM93.086-5.43V-7.852H88.047V-5.43Zm19.063.664q.781,0,.859-.9v-.977a.8.8,0,0,0-.859-.9h-9.375q-.859,0-.859.9v.977a.823.823,0,0,0,.859.9ZM109.727.547l.547-2.891v-.117h-5.7L105.2.273l.039.273Z" transform="translate(68 461)" fill="#fff"/>
    <path id="路径_6906" data-name="路径 6906" d="M-89.6.023a.973.973,0,0,1-.715-.293.973.973,0,0,1-.293-.715,1.012,1.012,0,0,1,.293-.727.954.954,0,0,1,.715-.3h2.766V-13.477a.257.257,0,0,0-.082-.223q-.082-.059-.246.035l-2.039.984a1.315,1.315,0,0,1-.539.141,1,1,0,0,1-.738-.293,1,1,0,0,1-.293-.738,1.023,1.023,0,0,1,.633-.984l3.188-1.664a1.2,1.2,0,0,1,.656-.164h.492a1.1,1.1,0,0,1,.809.34,1.1,1.1,0,0,1,.34.809V-2.016h2.3a.992.992,0,0,1,.727.3.992.992,0,0,1,.3.727.954.954,0,0,1-.3.715,1.012,1.012,0,0,1-.727.293Zm26.18,1.523q-.961,0-.961-.844a.758.758,0,0,1,.246-.609,1.07,1.07,0,0,1,.715-.211h6.141V-1.758h-4.594q-.867,0-.867-.8,0-.773.867-.773h4.594V-4.781h-3.211q-1.852,0-1.852-1.734v-3.7q0-1.781,1.852-1.781h3.211v-1.406h-4.992q-.961,0-.961-.844,0-.82.961-.82h4.992v-1.477l-4.242.281q-.867.07-.867-.867,0-.891,1.43-.844l.633-.023a64.387,64.387,0,0,0,8.156-.82l.773-.117a.651.651,0,0,1,.645.188,1.04,1.04,0,0,1,.223.7q0,.82-1.523,1.008l-3.562.352v1.617h5.227q.961,0,.961.844a.758.758,0,0,1-.246.609,1.07,1.07,0,0,1-.715.211h-5.227V-12H-52.2q1.875,0,1.875,1.734v3.7a1.6,1.6,0,0,1-1.828,1.781h-3.469v1.453h4.781q.891,0,.891.8,0,.773-.891.773h-4.781V-.117H-50.2q.914,0,.914.82,0,.844-.914.844Zm-3,.75q-.867,0-.867-.961V-7.852q-1.617,4.922-2.7,4.922-.727,0-.727-.937a1.947,1.947,0,0,1,.469-1.078,18.979,18.979,0,0,0,2.766-6.422l.023-.07h-2.039q-1.055,0-1.055-.844,0-.867,1.055-.867h2.2v-3.3l-2.461.258a.665.665,0,0,1-.609-.187.984.984,0,0,1-.211-.68q0-.773,1.547-.937l.539-.07q1.8-.211,2.2-.281,1.055-.187,2.25-.469l.4-.07q1.008,0,1.008.938,0,.563-.82.82a16.613,16.613,0,0,1-2.109.422v3.563h1.641q1.055,0,1.055.867,0,.844-1.055.844h-1.641v2.93a.729.729,0,0,1,.586-.352q.281,0,.75.539a7.5,7.5,0,0,1,1.57,2.367q0,.82-.773.82-.328,0-.727-.633-.3-.516-.914-1.336l-.492-.75V1.336Q-65.555,2.3-66.422,2.3Zm9.141-12.844h-2.742a.559.559,0,0,0-.633.633v.867h3.375Zm5.2.633a.559.559,0,0,0-.633-.633h-2.906v1.5h3.539Zm-5.2,2.273h-3.375v.75q0,.656.633.656h2.742Zm4.57,1.406q.633,0,.633-.656v-.75h-3.539v1.406Zm7.477-4.523a.913.913,0,0,1-.727-.27,1.287,1.287,0,0,1-.234-.855v-2.25a2.261,2.261,0,0,1,.469-1.828,2.223,2.223,0,0,1,1.8-.469h6.867v-1.43q0-1.2,1.055-1.2a.97.97,0,0,1,.785.293,1.383,1.383,0,0,1,.246.9v1.43H-28.1a2.223,2.223,0,0,1,1.8.469,2.261,2.261,0,0,1,.469,1.828v2.25a1.287,1.287,0,0,1-.234.855.913.913,0,0,1-.727.27.876.876,0,0,1-.715-.27,1.335,1.335,0,0,1-.223-.855V-13.5a1.133,1.133,0,0,0-.3-.855,1.2,1.2,0,0,0-.867-.293H-43.125A1.015,1.015,0,0,0-44.273-13.5v1.617a1.287,1.287,0,0,1-.234.855A.913.913,0,0,1-45.234-10.758Zm6.141,12.914a1.2,1.2,0,0,1-.832-.246.951.951,0,0,1-.27-.738q0-1.008,1.1-1.008h1.43a.9.9,0,0,0,.68-.246A.929.929,0,0,0-36.75-.75V-4.57h-8.531q-1.125,0-1.125-.867a.81.81,0,0,1,.27-.68,1.391,1.391,0,0,1,.855-.211h8.531V-7.336a1.936,1.936,0,0,1,.492-1.43A.987.987,0,0,1-36-8.941a2.4,2.4,0,0,0,.234-.129l3.117-1.383q.07-.023.211-.082a.625.625,0,0,0,.188-.105.135.135,0,0,0,.047-.094q0-.117-.164-.117H-42.375a1.015,1.015,0,0,1-.715-.211.832.832,0,0,1-.223-.633.832.832,0,0,1,.223-.633,1.015,1.015,0,0,1,.715-.211H-30.4a2.57,2.57,0,0,1,1.266.246.765.765,0,0,1,.422.691,1.09,1.09,0,0,1-.152.621,1.64,1.64,0,0,1-.645.457l-1.383.7a31,31,0,0,1-3.281,1.57,1.052,1.052,0,0,0-.539.363,1.034,1.034,0,0,0-.117.527v1.031h8.109a1.391,1.391,0,0,1,.855.211.81.81,0,0,1,.27.68q0,.867-1.125.867h-8.109V-.492a2.852,2.852,0,0,1-.6,2.039,2.771,2.771,0,0,1-2.027.609Zm17.32-.422q-.937,0-.937-.82,0-.8.938-.8h8.742v-1.57h-7.43q-.844,0-.844-.773,0-.75.844-.75h7.43V-4.453h-5.508a2.089,2.089,0,0,1-1.5-.457,1.811,1.811,0,0,1-.422-1.441v-3.727a2.018,2.018,0,0,1,.469-1.477A1.913,1.913,0,0,1-18.539-12h5.508v-1.312H-21.68q-.891,0-.891-.8t.891-.8h8.648v-1.547l-7.359.234a1.043,1.043,0,0,1-.773-.211.872.872,0,0,1-.258-.68q0-.867,1.125-.867l1.617.023q1.992.023,6.633-.234a57.861,57.861,0,0,0,6.141-.586l1.148-.117a1.119,1.119,0,0,1,.867.223,1.023,1.023,0,0,1,.3.809q0,.609-1.312.8-3.023.4-5.719.492l-.562.047v1.617h8.813q.914,0,.914.8t-.914.8H-11.18V-12h5.719a2.055,2.055,0,0,1,1.5.469,1.849,1.849,0,0,1,.422,1.453v3.727a2.018,2.018,0,0,1-.469,1.477,1.849,1.849,0,0,1-1.453.422H-11.18v1.477h7.617q.867,0,.867.773,0,.75-.867.75H-11.18V.117h8.953q.938,0,.938.8,0,.82-.937.82Zm8.742-12.258h-4.852q-.68,0-.727.75V-9h5.578Zm7.641.75a.679.679,0,0,0-.727-.75H-11.18V-9h5.789Zm-7.641,2.25h-5.578v.867q0,.68.727.727h4.852ZM-6.117-5.93a.655.655,0,0,0,.727-.727v-.867H-11.18V-5.93Z" transform="translate(836 604)" fill="#fff"/>
    <path id="路径_6907" data-name="路径 6907" d="M15.859.43a13.946,13.946,0,0,1-7.148-1.8,12.4,12.4,0,0,1-4.883-4.98,15.009,15.009,0,0,1-1.719-7.246,14.752,14.752,0,0,1,1.8-7.344,12.835,12.835,0,0,1,4.922-4.98A13.739,13.739,0,0,1,15.742-27.7a17.586,17.586,0,0,1,5.176.7,19.535,19.535,0,0,1,4.551,2.109,1.287,1.287,0,0,1,.586.566,1.743,1.743,0,0,1,.234.879,1.609,1.609,0,0,1-.469,1.152,1.6,1.6,0,0,1-1.211.488,2.184,2.184,0,0,1-.82-.2,17.037,17.037,0,0,0-3.711-1.641,13.759,13.759,0,0,0-3.945-.547,11.8,11.8,0,0,0-5.352,1.25,8.915,8.915,0,0,0-3.73,3.711,11.652,11.652,0,0,0-1.309,5.625,11.373,11.373,0,0,0,1.289,5.43,9.1,9.1,0,0,0,3.711,3.809,11.3,11.3,0,0,0,5.586,1.348,14.167,14.167,0,0,0,6.8-1.719V-11.25a.414.414,0,0,0-.469-.469H16.719a1.576,1.576,0,0,1-1.152-.488,1.576,1.576,0,0,1-.488-1.152,1.576,1.576,0,0,1,.488-1.152A1.576,1.576,0,0,1,16.719-15h7.7a1.841,1.841,0,0,1,1.348.566,1.841,1.841,0,0,1,.566,1.348v8.867a2.77,2.77,0,0,1-.391,1.465,2.571,2.571,0,0,1-1.133,1A20.122,20.122,0,0,1,15.859.43Zm25.7,0A9.987,9.987,0,0,1,34.082-2.3q-2.676-2.734-2.676-7.656a13.288,13.288,0,0,1,1.016-5.117,8.51,8.51,0,0,1,3.2-3.867,9.205,9.205,0,0,1,5.156-1.406,9.388,9.388,0,0,1,5.039,1.328,9.052,9.052,0,0,1,3.164,3.574,10.9,10.9,0,0,1,1.133,4.98,1.765,1.765,0,0,1-.508,1.27,1.76,1.76,0,0,1-1.328.527h-13.2a6.334,6.334,0,0,0,2.09,4.238,7.071,7.071,0,0,0,4.707,1.465,12.1,12.1,0,0,0,2.793-.293,11.513,11.513,0,0,0,2.48-.918,1.406,1.406,0,0,1,.7-.156,1.6,1.6,0,0,1,1.113.449,1.452,1.452,0,0,1,.488,1.113A1.71,1.71,0,0,1,48.4-1.289,14.728,14.728,0,0,1,45.273.02,14.186,14.186,0,0,1,41.563.43Zm4.453-12.07a.413.413,0,0,0,.469-.508,5.171,5.171,0,0,0-.937-2.617,5.528,5.528,0,0,0-2.129-1.875,5.9,5.9,0,0,0-2.637-.625,6.64,6.64,0,0,0-2.617.586A5.114,5.114,0,0,0,36-14.707a6.626,6.626,0,0,0-.918,3.066ZM56.523.234a1.731,1.731,0,0,1-1.27-.527,1.731,1.731,0,0,1-.527-1.27V-18.32a1.8,1.8,0,0,1,.527-1.289,1.7,1.7,0,0,1,1.27-.547,1.763,1.763,0,0,1,1.289.547,1.763,1.763,0,0,1,.547,1.289v1.484a12.528,12.528,0,0,1,3.32-2.617,8.306,8.306,0,0,1,3.906-.9,7.05,7.05,0,0,1,3.789,1.016,6.65,6.65,0,0,1,2.4,2.773,8.945,8.945,0,0,1,.84,3.906V-1.562a1.7,1.7,0,0,1-.547,1.27,1.8,1.8,0,0,1-1.289.527,1.731,1.731,0,0,1-1.27-.527,1.731,1.731,0,0,1-.527-1.27v-10.7q0-4.727-4.258-4.727a6.256,6.256,0,0,0-3.379.938,12.389,12.389,0,0,0-2.988,2.773V-1.562a1.7,1.7,0,0,1-.547,1.27A1.8,1.8,0,0,1,56.523.234ZM83.008,9.219A1.623,1.623,0,0,1,81.8,8.691a1.718,1.718,0,0,1-.508-1.23,1.769,1.769,0,0,1,.117-.625L83.945.313,76.6-17.578a2,2,0,0,1-.156-.742,1.8,1.8,0,0,1,.527-1.289,1.7,1.7,0,0,1,1.27-.547,1.8,1.8,0,0,1,1.016.313,1.7,1.7,0,0,1,.664.82L85.9-4.219l6.094-14.727a1.78,1.78,0,0,1,1.68-1.211,1.7,1.7,0,0,1,1.27.547,1.8,1.8,0,0,1,.527,1.289,1.876,1.876,0,0,1-.117.664L84.688,7.969A1.784,1.784,0,0,1,83.008,9.219ZM108.32.43a10.48,10.48,0,0,1-5.273-1.289A9.115,9.115,0,0,1,99.531-4.57a11.428,11.428,0,0,1-1.25-5.391,11.513,11.513,0,0,1,1.25-5.43,8.823,8.823,0,0,1,3.535-3.672,10.508,10.508,0,0,1,5.254-1.289,10.4,10.4,0,0,1,5.234,1.289,9.071,9.071,0,0,1,3.555,3.691,11.4,11.4,0,0,1,1.25,5.41,11.281,11.281,0,0,1-1.25,5.391,9.016,9.016,0,0,1-3.574,3.711A10.429,10.429,0,0,1,108.32.43Zm0-3.32a6.818,6.818,0,0,0,3.086-.742,5.741,5.741,0,0,0,2.422-2.4,8.077,8.077,0,0,0,.9-3.965,7.52,7.52,0,0,0-.937-3.984A5.876,5.876,0,0,0,111.5-16.25a6.515,6.515,0,0,0-3.184-.781,7.127,7.127,0,0,0-3.086.7,5.767,5.767,0,0,0-2.422,2.383,7.964,7.964,0,0,0-.9,3.945,7.6,7.6,0,0,0,.938,4.023,5.809,5.809,0,0,0,2.285,2.3A6.515,6.515,0,0,0,108.32-2.891Zm24.258,12.3a18.429,18.429,0,0,1-4.512-.586,15.682,15.682,0,0,1-3.848-1.445,1.553,1.553,0,0,1-.742-1.406,1.631,1.631,0,0,1,.469-1.133,1.486,1.486,0,0,1,1.133-.508,1.919,1.919,0,0,1,.7.156,14.53,14.53,0,0,0,6.445,1.484q5.937,0,5.938-6.328v-2.5A8.721,8.721,0,0,1,131.523.039a9.036,9.036,0,0,1-4.453-1.172A9.126,9.126,0,0,1,123.4-4.668a10.629,10.629,0,0,1-1.367-5.488,10.735,10.735,0,0,1,1.406-5.625,9.3,9.3,0,0,1,3.535-3.4,9.439,9.439,0,0,1,4.551-1.172,8.721,8.721,0,0,1,6.641,2.891v-.859a1.8,1.8,0,0,1,.527-1.289,1.7,1.7,0,0,1,1.27-.547,1.763,1.763,0,0,1,1.289.547,1.763,1.763,0,0,1,.547,1.289V-.859q0,4.922-2.383,7.6A8.674,8.674,0,0,1,132.578,9.414Zm-.312-12.7A6.618,6.618,0,0,0,135.371-4a11.618,11.618,0,0,0,2.793-2.129V-14.18a11.618,11.618,0,0,0-2.793-2.129,6.618,6.618,0,0,0-3.105-.723,6.493,6.493,0,0,0-4.8,1.8,6.867,6.867,0,0,0-1.8,5.078,6.867,6.867,0,0,0,1.8,5.078A6.493,6.493,0,0,0,132.266-3.281ZM156.719.43a10.48,10.48,0,0,1-5.273-1.289A9.115,9.115,0,0,1,147.93-4.57a11.428,11.428,0,0,1-1.25-5.391,11.513,11.513,0,0,1,1.25-5.43,8.823,8.823,0,0,1,3.535-3.672,10.508,10.508,0,0,1,5.254-1.289,10.4,10.4,0,0,1,5.234,1.289,9.071,9.071,0,0,1,3.555,3.691,11.4,11.4,0,0,1,1.25,5.41,11.281,11.281,0,0,1-1.25,5.391,9.016,9.016,0,0,1-3.574,3.711A10.429,10.429,0,0,1,156.719.43Zm0-3.32a6.818,6.818,0,0,0,3.086-.742,5.741,5.741,0,0,0,2.422-2.4,8.077,8.077,0,0,0,.9-3.965,7.52,7.52,0,0,0-.937-3.984A5.876,5.876,0,0,0,159.9-16.25a6.514,6.514,0,0,0-3.184-.781,7.127,7.127,0,0,0-3.086.7,5.767,5.767,0,0,0-2.422,2.383,7.964,7.964,0,0,0-.9,3.945,7.6,7.6,0,0,0,.938,4.023,5.809,5.809,0,0,0,2.285,2.3A6.514,6.514,0,0,0,156.719-2.891Zm24.414-.234a1.389,1.389,0,0,1,1.016.43,1.389,1.389,0,0,1,.43,1.016,1.553,1.553,0,0,1-.937,1.406,7.644,7.644,0,0,1-3.242.7q-5.742,0-5.742-5.2V-16.641H170.7a1.558,1.558,0,0,1-1.152-.41,1.558,1.558,0,0,1-.41-1.152,1.558,1.558,0,0,1,.41-1.152,1.558,1.558,0,0,1,1.152-.41h1.953v-2.773a1.808,1.808,0,0,1,.488-1.367,1.865,1.865,0,0,1,1.348-.469,1.755,1.755,0,0,1,1.328.488,1.865,1.865,0,0,1,.469,1.348v2.773h4.375a1.512,1.512,0,0,1,1.113.449,1.512,1.512,0,0,1,.449,1.113,1.531,1.531,0,0,1-.449,1.094,1.48,1.48,0,0,1-1.113.469h-4.375V-5.078a2.191,2.191,0,0,0,.625,1.836,3.108,3.108,0,0,0,1.875.469,5.158,5.158,0,0,0,1.563-.234.159.159,0,0,0,.117-.039A3.476,3.476,0,0,1,181.133-3.125ZM188.2.234a1.731,1.731,0,0,1-1.27-.527,1.731,1.731,0,0,1-.527-1.27V-26.914a1.8,1.8,0,0,1,.527-1.289,1.7,1.7,0,0,1,1.27-.547,1.763,1.763,0,0,1,1.289.547,1.763,1.763,0,0,1,.547,1.289v10.078a12.528,12.528,0,0,1,3.32-2.617,8.306,8.306,0,0,1,3.906-.9,7.05,7.05,0,0,1,3.789,1.016,6.65,6.65,0,0,1,2.4,2.773,8.945,8.945,0,0,1,.84,3.906V-1.562a1.7,1.7,0,0,1-.547,1.27,1.8,1.8,0,0,1-1.289.527,1.731,1.731,0,0,1-1.27-.527,1.731,1.731,0,0,1-.527-1.27v-10.7q0-4.727-4.258-4.727a6.256,6.256,0,0,0-3.379.938,12.389,12.389,0,0,0-2.988,2.773V-1.562a1.7,1.7,0,0,1-.547,1.27A1.8,1.8,0,0,1,188.2.234Zm23.711-24.18a1.951,1.951,0,0,1-1.426-.605,1.951,1.951,0,0,1-.605-1.426v-.156a1.951,1.951,0,0,1,.605-1.426,1.951,1.951,0,0,1,1.426-.605h.234a1.951,1.951,0,0,1,1.426.605,1.951,1.951,0,0,1,.605,1.426v.156a1.951,1.951,0,0,1-.605,1.426,1.951,1.951,0,0,1-1.426.605Zm.078,24.18a1.731,1.731,0,0,1-1.27-.527,1.731,1.731,0,0,1-.527-1.27V-18.32a1.8,1.8,0,0,1,.527-1.289,1.7,1.7,0,0,1,1.27-.547,1.777,1.777,0,0,1,1.309.527,1.777,1.777,0,0,1,.527,1.309V-1.562a1.7,1.7,0,0,1-.547,1.27A1.8,1.8,0,0,1,211.992.234Zm17.188.2a11.165,11.165,0,0,1-5.2-1.25,9.548,9.548,0,0,1-3.867-3.672,10.556,10.556,0,0,1-1.406-5.469,10.484,10.484,0,0,1,1.445-5.547,9.747,9.747,0,0,1,3.77-3.574,10.923,10.923,0,0,1,5.254-1.27,11.005,11.005,0,0,1,3.438.488,14.482,14.482,0,0,1,2.969,1.387,1.653,1.653,0,0,1,.781,1.406,1.588,1.588,0,0,1-.469,1.094,1.408,1.408,0,0,1-1.055.508,1.945,1.945,0,0,1-.859-.234,14.369,14.369,0,0,0-2.266-.977,7.753,7.753,0,0,0-2.227-.273,7.129,7.129,0,0,0-5.215,1.895,6.811,6.811,0,0,0-1.934,5.1,6.811,6.811,0,0,0,1.934,5.1,7.129,7.129,0,0,0,5.215,1.895,7.753,7.753,0,0,0,2.227-.273,14.37,14.37,0,0,0,2.266-.977,1.945,1.945,0,0,1,.859-.234,1.408,1.408,0,0,1,1.055.508,1.588,1.588,0,0,1,.469,1.094,1.653,1.653,0,0,1-.781,1.406,14.482,14.482,0,0,1-2.969,1.387A11.005,11.005,0,0,1,229.18.43Zm21.211-3.555a1.389,1.389,0,0,1,1.016.43,1.389,1.389,0,0,1,.43,1.016A1.553,1.553,0,0,1,250.9-.273a7.644,7.644,0,0,1-3.242.7q-5.742,0-5.742-5.2V-16.641h-1.953a1.558,1.558,0,0,1-1.152-.41,1.558,1.558,0,0,1-.41-1.152,1.558,1.558,0,0,1,.41-1.152,1.558,1.558,0,0,1,1.152-.41h1.953v-2.773a1.808,1.808,0,0,1,.488-1.367,1.865,1.865,0,0,1,1.348-.469,1.755,1.755,0,0,1,1.328.488,1.865,1.865,0,0,1,.469,1.348v2.773h4.375a1.512,1.512,0,0,1,1.113.449,1.512,1.512,0,0,1,.449,1.113,1.531,1.531,0,0,1-.449,1.094,1.48,1.48,0,0,1-1.113.469h-4.375V-5.078a2.191,2.191,0,0,0,.625,1.836,3.108,3.108,0,0,0,1.875.469,5.158,5.158,0,0,0,1.563-.234.159.159,0,0,0,.117-.039A3.476,3.476,0,0,1,250.391-3.125ZM261.641.234a2.369,2.369,0,0,1-1.426-.469,2.334,2.334,0,0,1-.879-1.211L253.789-17.7a2.1,2.1,0,0,1-.117-.664,1.731,1.731,0,0,1,.527-1.27,1.731,1.731,0,0,1,1.27-.527,1.852,1.852,0,0,1,1.035.293,1.433,1.433,0,0,1,.605.8l4.258,13.984q.117.313.273.313t.273-.312l4.219-13.633a1.925,1.925,0,0,1,.742-1.055,2.036,2.036,0,0,1,1.211-.391,2.036,2.036,0,0,1,1.211.391,1.925,1.925,0,0,1,.742,1.055l4.219,13.633q.117.313.273.313t.273-.312l4.258-13.984a1.433,1.433,0,0,1,.605-.8,1.852,1.852,0,0,1,1.035-.293,1.731,1.731,0,0,1,1.27.527,1.731,1.731,0,0,1,.527,1.27,2.1,2.1,0,0,1-.117.664l-5.547,16.25a2.334,2.334,0,0,1-.879,1.211,2.369,2.369,0,0,1-1.426.469,2.369,2.369,0,0,1-1.426-.469,2.544,2.544,0,0,1-.918-1.25L268.359-13.4q-.117-.312-.273-.312t-.273.313L263.984-1.484a2.544,2.544,0,0,1-.918,1.25A2.369,2.369,0,0,1,261.641.234Z" transform="translate(68 533)" fill="#fff"/>
    <path id="路径_6908" data-name="路径 6908" d="M0,0H8V124H0Z" transform="translate(36 420)" fill="#48d7dd"/>
  </g>
</svg>
