<svg xmlns="http://www.w3.org/2000/svg" width="872" height="240" viewBox="0 0 872 240">
  <g id="taiwanPearl" transform="translate(0 -721)">
    <rect id="矩形_3596" data-name="矩形 3596" width="872" height="240" transform="translate(0 721)" fill="#313740"/>
    <text id="台灣圓體" transform="translate(68 798)" fill="#fff" font-size="40" font-family="TaiwanPearl-Regular, 台灣粉圓"><tspan x="0" y="0">台灣圓體</tspan></text>
    <path id="路径_6804" data-name="路径 6804" d="M8.711-13.32q0,.586.547.586H12.91V-9.98H10.1a.557.557,0,0,0-.41.137.618.618,0,0,0-.137.449.618.618,0,0,0,.137.449.557.557,0,0,0,.41.137h7.246a.557.557,0,0,0,.41-.137.618.618,0,0,0,.137-.449.618.618,0,0,0-.137-.449.557.557,0,0,0-.41-.137h-3.2v-2.754H17.93a.529.529,0,0,0,.391-.137.6.6,0,0,0,.137-.439.6.6,0,0,0-.127-.43.547.547,0,0,0-.4-.127H14.141v-1.621A.557.557,0,0,0,14-15.9a.667.667,0,0,0-.479-.137.667.667,0,0,0-.479.137.557.557,0,0,0-.137.41v1.621H9.219a.517.517,0,0,0-.381.127A.578.578,0,0,0,8.711-13.32Zm-1.5,2.578a.529.529,0,0,0,.391-.137.65.65,0,0,0,.137-.469.645.645,0,0,0-.127-.459.547.547,0,0,0-.4-.127H5.723v-3.535a.557.557,0,0,0-.137-.41.65.65,0,0,0-.469-.137.65.65,0,0,0-.469.137.557.557,0,0,0-.137.41v3.535H2.852l.254-1.914v-.137A.468.468,0,0,0,3-14.326a.506.506,0,0,0-.322-.127.574.574,0,0,0-.137-.02.312.312,0,0,0-.244.1A.732.732,0,0,0,2.168-14a15.342,15.342,0,0,1-1.23,5.43L.918-8.5a.822.822,0,0,0-.02.2v.039a.442.442,0,0,0,.1.293.755.755,0,0,0,.527.2.32.32,0,0,0,.234-.1.7.7,0,0,0,.156-.254,12.253,12.253,0,0,0,.664-2.617H4.512v5.273L1.66-4.844a.521.521,0,0,0-.293.146.391.391,0,0,0-.1.273,1.324,1.324,0,0,0,.039.322.774.774,0,0,0,.186.381.437.437,0,0,0,.322.127h.1q.02,0,2.6-.684V1.445a.557.557,0,0,0,.137.41.65.65,0,0,0,.469.137.65.65,0,0,0,.469-.137.557.557,0,0,0,.137-.41V-4.57l1.621-.469A.51.51,0,0,0,7.656-5.2a.622.622,0,0,0,.156-.459.622.622,0,0,0-.156-.459.265.265,0,0,0-.2-.078.875.875,0,0,0-.234.039l-1.5.371v-4.961Zm3.027,6.895a1.216,1.216,0,0,0-.176.127.246.246,0,0,0-.078.2.5.5,0,0,0,.156.3,10.971,10.971,0,0,1,1.641,2.148,1.7,1.7,0,0,0,.137.176.467.467,0,0,0,.332.156.844.844,0,0,0,.41-.137q.312-.2.313-.391a.578.578,0,0,0-.156-.332,10.288,10.288,0,0,0-1.68-2.168.684.684,0,0,0-.449-.215A.894.894,0,0,0,10.234-3.848Zm8.652-1.738a.492.492,0,0,0-.547-.566H16.582V-7.5a.529.529,0,0,0-.137-.391.684.684,0,0,0-.488-.137.68.68,0,0,0-.479.127.547.547,0,0,0-.127.4v1.348H9.023a.492.492,0,0,0-.547.566.611.611,0,0,0,.127.439.578.578,0,0,0,.42.127h6.328V.254a.46.46,0,0,1-.1.332l-.039.039q-.371.059-2.129.1h-.039a.377.377,0,0,0-.264.068.251.251,0,0,0-.068.186.964.964,0,0,0,.059.293.814.814,0,0,0,.8.664A16.1,16.1,0,0,0,15.2,1.846a1.476,1.476,0,0,0,.664-.186,1.065,1.065,0,0,0,.391-.215,1.162,1.162,0,0,0,.176-.215,2.236,2.236,0,0,0,.156-.957V-5.02h1.8a.517.517,0,0,0,.381-.127A.611.611,0,0,0,18.887-5.586Zm2.031-4.121v.156a1.03,1.03,0,0,0,.059.264.782.782,0,0,0,.2.322.529.529,0,0,0,.391.137.159.159,0,0,0,.117-.039,8.314,8.314,0,0,1,2.148-.371l.43-.039q-1.309,1.895-1.914,2.6l-1.035.957a.827.827,0,0,0-.254.605,1.051,1.051,0,0,0,.059.332.752.752,0,0,0,.186.342.489.489,0,0,0,.361.127H21.8a4.19,4.19,0,0,1,1.26-.352q1.1-.215,3.877-.625l.1.313a.572.572,0,0,0,.127.3.261.261,0,0,0,.186.088.687.687,0,0,0,.244-.059.86.86,0,0,0,.264-.166.443.443,0,0,0,.117-.342,1.315,1.315,0,0,0-.02-.215,11.361,11.361,0,0,0-1-2.6,1.043,1.043,0,0,0-.2-.273.4.4,0,0,0-.293-.117.838.838,0,0,0-.215.039Q26-8.242,26-8.047a1.051,1.051,0,0,0,.059.332l.625,1.582-4,.527.332-.371a37.1,37.1,0,0,0,4.082-5.977.559.559,0,0,0,.1-.293q0-.234-.352-.43a.726.726,0,0,0-.371-.137h-.039q-.2,0-.332.293l-1.23,2.227-2.5.234.273-.352a27.111,27.111,0,0,0,2.715-4.609.475.475,0,0,0-.059-.547A.87.87,0,0,0,25-15.742a1.6,1.6,0,0,0-.352-.059q-.234,0-.371.332a14.893,14.893,0,0,1-1.113,2.383,13.1,13.1,0,0,1-1.641,2.48.969.969,0,0,1-.391.273A2.068,2.068,0,0,0,20.918-9.707Zm1.66,7.188a.468.468,0,0,0-.107-.342.506.506,0,0,0-.322-.127.642.642,0,0,0-.156-.02.383.383,0,0,0-.283.107.618.618,0,0,0-.146.342L20.84.781A1.315,1.315,0,0,0,20.82,1a.526.526,0,0,0,.352.508.5.5,0,0,0,.508-.059.87.87,0,0,0,.176-.293A16.222,16.222,0,0,0,22.578-2.4ZM23.906-2.6,24.3.547a.7.7,0,0,0,.117.342A.241.241,0,0,0,24.6.977,1.044,1.044,0,0,0,24.8.957a.562.562,0,0,0,.283-.146A.468.468,0,0,0,25.2.469V.391l-.41-3.047a.491.491,0,0,0-.127-.332.353.353,0,0,0-.244-.1A.555.555,0,0,0,24-2.93.46.46,0,0,0,23.906-2.6ZM27.148-3.2q-.2-.371-.41-.371a.545.545,0,0,0-.43.176.217.217,0,0,0-.078.186,1.427,1.427,0,0,0,.039.3,12.892,12.892,0,0,1,.781,2.7.687.687,0,0,0,.146.3.271.271,0,0,0,.2.088.9.9,0,0,0,.244-.039.559.559,0,0,0,.244-.146.468.468,0,0,0,.107-.342,1.315,1.315,0,0,0-.02-.215A15.084,15.084,0,0,0,27.148-3.2ZM34.336-.586v-5.9h3.027V-1a.968.968,0,0,1-.176.254.7.7,0,0,1-.254.156ZM30.352-1V-6.484H33.2v5.9H30.762a.586.586,0,0,1-.391-.391Zm.41-12.715H33.2v6.035H30.352V-13.3a.586.586,0,0,1,.391-.391Zm6.6.41v5.625H34.336v-6.035h2.6a.59.59,0,0,1,.41.391ZM37.813.586a1.17,1.17,0,0,0,.742-.742V-14.219a1.17,1.17,0,0,0-.742-.742H29.922a1.17,1.17,0,0,0-.742.742V-.156a1.17,1.17,0,0,0,.742.742Z" transform="translate(419.369 800.035)" fill="#fff"/>
    <path id="路径_6805" data-name="路径 6805" d="M.84-9.707v.156a1.1,1.1,0,0,0,.068.283.914.914,0,0,0,.225.361.581.581,0,0,0,.43.156.217.217,0,0,0,.1-.02l.039-.02A10.236,10.236,0,0,1,4.1-9.2Q2.891-7.422,2.3-6.719,1.289-5.8,1.27-5.781a.916.916,0,0,0-.293.664,1.237,1.237,0,0,0,.059.352.955.955,0,0,0,.225.381.541.541,0,0,0,.4.146.592.592,0,0,0,.176-.02,4.581,4.581,0,0,1,1.24-.332q1.1-.215,3.818-.625l.059.254a.728.728,0,0,0,.166.342.318.318,0,0,0,.225.107.629.629,0,0,0,.273-.078.571.571,0,0,0,.43-.566,1.7,1.7,0,0,0-.02-.234A11.292,11.292,0,0,0,7.012-8.008q-.215-.43-.547-.43a.717.717,0,0,0-.234.049.6.6,0,0,0-.225.137.317.317,0,0,0-.088.234A.942.942,0,0,0,6-7.676l.586,1.484-3.73.508.215-.254a37.1,37.1,0,0,0,4.082-5.977.605.605,0,0,0,.117-.332q0-.273-.391-.488a.774.774,0,0,0-.41-.156H6.426q-.234,0-.391.332L4.824-10.352l-2.3.215.176-.234A26.847,26.847,0,0,0,5.41-15a1.406,1.406,0,0,0,.078-.293q-.02-.332-.449-.508-.254-.059-.352-.078a.39.39,0,0,0-.3.117.833.833,0,0,0-.166.273,14.228,14.228,0,0,1-1.113,2.363Q1.621-10.469,1.094-10.41A2.761,2.761,0,0,0,.84-9.707ZM.742,1a.568.568,0,0,0,.41.566q.215.039.293.059.313,0,.469-.43a15.68,15.68,0,0,0,.742-3.574V-2.52A.529.529,0,0,0,2.52-2.91a.887.887,0,0,0-.352-.156.905.905,0,0,0-.176-.02.429.429,0,0,0-.332.127.831.831,0,0,0-.176.381L.762.762A1.694,1.694,0,0,0,.742,1ZM3.828-2.6,4.219.547a.705.705,0,0,0,.146.4.318.318,0,0,0,.225.107,1.423,1.423,0,0,0,.234-.02A.752.752,0,0,0,5.146.85.517.517,0,0,0,5.273.469V.391l-.41-3.047A.642.642,0,0,0,4.7-3.047a.408.408,0,0,0-.283-.117.577.577,0,0,0-.449.2A.463.463,0,0,0,3.828-2.6Zm3.379-.625q-.215-.43-.449-.43a.687.687,0,0,0-.508.2.331.331,0,0,0-.1.244,1.027,1.027,0,0,0,.059.322A13.531,13.531,0,0,1,6.973-.2q.117.449.449.449A.684.684,0,0,0,7.637.215a.571.571,0,0,0,.43-.566,1.7,1.7,0,0,0-.02-.234A14.285,14.285,0,0,0,7.207-3.223ZM16.914-.664h-2.5V-6.406h2.871V-1A.586.586,0,0,1,16.914-.664ZM10.43-1.016V-6.406h2.7V-.664H10.781A.528.528,0,0,1,10.43-1.016Zm.352-12.617h2.344v5.879h-2.7v-5.527A.528.528,0,0,1,10.781-13.633Zm6.5.352v5.527H14.414v-5.879h2.5a.534.534,0,0,1,.371.332ZM17.832.664a1.287,1.287,0,0,0,.8-.8v-14.1a1.287,1.287,0,0,0-.8-.8H9.9a1.287,1.287,0,0,0-.8.8v14.1a1.287,1.287,0,0,0,.8.8ZM37.285-13.223v1.152h-1.7v-1.5h1.328a.534.534,0,0,1,.371.332ZM36.914-9.59H35.586v-1.562h1.7v1.191A.584.584,0,0,1,36.914-9.59Zm-6.367-.371v-1.191h1.621V-9.59H30.879A.586.586,0,0,1,30.547-9.961Zm.352-3.613h1.27v1.5H30.547v-1.152A.528.528,0,0,1,30.9-13.574Zm3.77,3.984H33.086v-1.562h1.582Zm-1.582-3.984h1.582v1.5H33.086ZM38.4-13.75a1.287,1.287,0,0,0-.8-.8H35.742v-.9q0-.625-.576-.625t-.576.625v.9h-1.5v-.9q0-.625-.576-.625t-.576.625v.9h-1.68a1.287,1.287,0,0,0-.8.8v4.336a1.287,1.287,0,0,0,.8.8H37.6a1.287,1.287,0,0,0,.8-.8ZM38.281-7.5H29.648a.658.658,0,0,0-.479.146.515.515,0,0,0-.146.381.515.515,0,0,0,.146.381.658.658,0,0,0,.479.146h8.633a.658.658,0,0,0,.479-.146.515.515,0,0,0,.146-.381.515.515,0,0,0-.146-.381A.658.658,0,0,0,38.281-7.5Zm-1.66,3.379v1.055a.528.528,0,0,1-.352.352H31.582a.527.527,0,0,1-.332-.352V-4.121a.479.479,0,0,1,.313-.352H36.27A.528.528,0,0,1,36.621-4.121ZM30.8-5.41a1.287,1.287,0,0,0-.8.8V-2.6a1.287,1.287,0,0,0,.8.8h6.328a1.287,1.287,0,0,0,.8-.8V-4.609a1.287,1.287,0,0,0-.8-.8ZM22.227-7.832v-.684a.528.528,0,0,1,.352-.352h4.609a.528.528,0,0,1,.352.352v.684a.528.528,0,0,1-.352.352H22.578A.528.528,0,0,1,22.227-7.832Zm2.832-5.137a.938.938,0,0,0-.625.605v2.48H23.125v-4.082a.534.534,0,0,1,.332-.371h2.832a.586.586,0,0,1,.332.371v1Zm.547.859h1.016v2.227H25.234v-1.895A.586.586,0,0,1,25.605-12.109ZM21.152-7.715a.939.939,0,0,0,.625.625h.371v3.32a8.6,8.6,0,0,1-1,4.59.544.544,0,0,0-.039.234.811.811,0,0,0,.391.684.578.578,0,0,0,.332.156h.02q.176,0,.273-.352a8.161,8.161,0,0,0,1.191-4.9V-6.484h3.223v3.457L23.867-1.719a.879.879,0,0,0-.205.127l-.068.068a.355.355,0,0,0-.117.254A.547.547,0,0,0,23.555-1a1.059,1.059,0,0,0,.166.225.33.33,0,0,0,.244.088.826.826,0,0,0,.391-.137l2.188-1.289v2.7a.267.267,0,0,1-.088.225.276.276,0,0,1-.166.068H25.2q-.273,0-.352.1a.289.289,0,0,0-.1.205.547.547,0,0,0,.039.205.821.821,0,0,0,.84.566,8.906,8.906,0,0,0,1.113-.078.936.936,0,0,0,.43-.137,1.1,1.1,0,0,0,.234-.176,1.263,1.263,0,0,0,.313-.957v-7.7h.313a1,1,0,0,0,.605-.625V-9.258a1,1,0,0,0-.605-.625h-.254V-14.59a1.287,1.287,0,0,0-.8-.8h-4.2a1.287,1.287,0,0,0-.8.8v4.707h-.2a.994.994,0,0,0-.625.625ZM25.547-3.5a.523.523,0,0,0,.371-.176A.493.493,0,0,0,26.094-4a.585.585,0,0,0-.293-.449,5.267,5.267,0,0,0-1.094-.859,1.013,1.013,0,0,0-.488-.176.486.486,0,0,0-.352.156.437.437,0,0,0-.156.293q0,.176.293.41l1.113.918A.733.733,0,0,0,25.547-3.5ZM36.133-1.523a.469.469,0,0,0-.361.137,1.13,1.13,0,0,0-.205.313L34.9.605H32.949l-.664-1.641a1.1,1.1,0,0,0-.2-.3.361.361,0,0,0-.273-.127.8.8,0,0,0-.586.2.331.331,0,0,0-.1.244.86.86,0,0,0,.059.3L31.7.605H29.434a.627.627,0,0,0-.459.146.541.541,0,0,0-.146.4.529.529,0,0,0,.137.391.65.65,0,0,0,.469.137H38.5a.618.618,0,0,0,.449-.137.529.529,0,0,0,.137-.391.541.541,0,0,0-.146-.4.658.658,0,0,0-.479-.146H36.016l.742-1.367a.65.65,0,0,0,.1-.3.327.327,0,0,0-.107-.234.707.707,0,0,0-.293-.166A1.094,1.094,0,0,0,36.133-1.523Z" transform="translate(506.231 800.074)" fill="#fff"/>
    <path id="路径_6807" data-name="路径 6807" d="M11.172-12.09v.039a1.269,1.269,0,0,1-.215.645h2.7l.8-1.68H10.762A2.61,2.61,0,0,1,11.172-12.09Zm.41,6.992a.3.3,0,0,0-.176.156v.8a.293.293,0,0,0,.176.176H14a.239.239,0,0,0,.156-.176v-.8A.235.235,0,0,0,14-5.1ZM9.063-9.844a.3.3,0,0,0-.176.156v8.223a.831.831,0,0,1-.225.615.872.872,0,0,1-.645.225A.872.872,0,0,1,7.373-.85a.831.831,0,0,1-.225-.615V-10.41a1.523,1.523,0,0,1,1-1H9.551a2.858,2.858,0,0,0-.449-.977.226.226,0,0,1-.039-.156.963.963,0,0,1,.156-.547H6.973a.847.847,0,0,1-.625-.215.779.779,0,0,1-.215-.576.779.779,0,0,1,.215-.576.847.847,0,0,1,.625-.215h4.473l-.293-.508A.827.827,0,0,1,11-15.635a.5.5,0,0,1,.146-.371.987.987,0,0,1,.352-.225,1.121,1.121,0,0,1,.4-.078.873.873,0,0,1,.762.469l.762,1.172h4.824a.858.858,0,0,1,.635.225.78.78,0,0,1,.225.576.766.766,0,0,1-.215.566.819.819,0,0,1-.605.215H16.094a.832.832,0,0,1,.039.293.9.9,0,0,1-.078.371l-.566,1.016H17.4a1.523,1.523,0,0,1,1,1L18.262-1.6v.059a1.176,1.176,0,0,1-.225.3,1.88,1.88,0,0,1-.439.3A4.172,4.172,0,0,1,15.684-.7a1.054,1.054,0,0,1-1.074-.781,1.353,1.353,0,0,1-.059-.391.486.486,0,0,1,.156-.352.71.71,0,0,1,.488-.156l1.328.039a.113.113,0,0,0,.078-.02.2.2,0,0,0,.02-.117V-9.668a.3.3,0,0,0-.156-.176h-2.93v.977h2.129a.9.9,0,0,1,.654.205.69.69,0,0,1,.205.508.675.675,0,0,1-.2.5.856.856,0,0,1-.625.2H13.535v1.035h1.133a1.523,1.523,0,0,1,1,1v1.8a1.523,1.523,0,0,1-1,1h-3.75a1.523,1.523,0,0,1-1-1v-1.8a1.523,1.523,0,0,1,1-1h1.094V-7.461H9.863a.967.967,0,0,1-.7-.215A.757.757,0,0,1,9-8.164a.678.678,0,0,1,.205-.5.9.9,0,0,1,.654-.205h2.148v-.977Zm-3.711-3.32a.808.808,0,0,1-.43.645.965.965,0,0,1-.566.215A.77.77,0,0,1,3.73-12.7a17.276,17.276,0,0,0-1.66-2.148.827.827,0,0,1-.273-.527.669.669,0,0,1,.41-.566,2.233,2.233,0,0,1,.527-.176h.02a.894.894,0,0,1,.684.371l1.7,2.031A.944.944,0,0,1,5.352-13.164ZM4.414-5.1A.3.3,0,0,0,4.3-5.2H1.621a.42.42,0,0,1-.234.078.4.4,0,0,1-.264-.146,1.8,1.8,0,0,1-.3-.459,1.475,1.475,0,0,1-.078-.469.829.829,0,0,1,.488-.781l.391-.234a23.054,23.054,0,0,0,2.207-2.91H1.68a.858.858,0,0,1-.635-.225.793.793,0,0,1-.225-.586.813.813,0,0,1,.215-.586.852.852,0,0,1,.645-.225l3.086-.1A2.637,2.637,0,0,1,6-11.562a.554.554,0,0,1,.391.508.926.926,0,0,1-.215.527L3.32-6.8l2.051.176.02.02A1.42,1.42,0,0,1,6.25-5.566v.078L5.1-1.895A4.006,4.006,0,0,0,7.578-.156a19.51,19.51,0,0,0,4.99.488q3.252,0,6.1-.234h.059A.637.637,0,0,1,19.2.254.476.476,0,0,1,19.355.6a1.176,1.176,0,0,1-.078.4,1.132,1.132,0,0,1-1.094.879q-2.656.137-5.9.137a19.671,19.671,0,0,1-5.117-.527A5.505,5.505,0,0,1,4.316-.371,6.991,6.991,0,0,1,2.285,1.953a.942.942,0,0,1-.547.176A1.093,1.093,0,0,1,1,1.777.874.874,0,0,1,.7,1.23.681.681,0,0,1,1.094.645Q3.613-1.016,4.414-5.1ZM36.27-10.781a.239.239,0,0,0-.176-.156H30.918v4.9h5.176a.312.312,0,0,0,.176-.137ZM23.652-6.172a.237.237,0,0,0,.156.137h5.176v-4.9H23.828a.3.3,0,0,0-.176.156Zm5.332-9.316a.834.834,0,0,1,.244-.615.98.98,0,0,1,.723-.244.98.98,0,0,1,.723.244.834.834,0,0,1,.244.615v2.7h6.27a1.523,1.523,0,0,1,1,1v6.621a1.523,1.523,0,0,1-1,1h-6.27V1.445a.834.834,0,0,1-.244.615,1.192,1.192,0,0,1-1.445,0,.834.834,0,0,1-.244-.615V-4.18H22.793a1.523,1.523,0,0,1-1-1V-11.8a1.523,1.523,0,0,1,1-1h6.191Z" transform="translate(672.098 800.348)" fill="#fff"/>
    <path id="路径_6808" data-name="路径 6808" d="M15.371-7.109a.709.709,0,0,1-.234-.508,1.289,1.289,0,0,1,.117-.547,14.929,14.929,0,0,0,1.074-2.812H9.668A14.227,14.227,0,0,1,7.949-7.461a.835.835,0,0,1-.742.449,1.445,1.445,0,0,1-.742-.254.99.99,0,0,1-.605-.82.774.774,0,0,1,.234-.527,15.83,15.83,0,0,0,2.617-6.934,1.036,1.036,0,0,1,.273-.537.852.852,0,0,1,.645-.225,1.81,1.81,0,0,1,.352.039,1.188,1.188,0,0,1,.674.313.789.789,0,0,1,.225.566,1.931,1.931,0,0,1-.02.273l-.547,2.09,7.148-.078h.1l.41.234h.059l.059.059a1.954,1.954,0,0,1,.586,1.328v.059a18.3,18.3,0,0,1-1.641,4.16.863.863,0,0,1-.8.547.956.956,0,0,1-.488-.137A1.419,1.419,0,0,1,15.371-7.109ZM6.074-13.3a.95.95,0,0,1,.7.254,1.035,1.035,0,0,1,.254.762,1.024,1.024,0,0,1-.244.752.911.911,0,0,1-.674.244H2.168a.95.95,0,0,1-.7-.254,1.02,1.02,0,0,1-.254-.752,1.02,1.02,0,0,1,.254-.752.95.95,0,0,1,.7-.254ZM6.68-5.1a.95.95,0,0,1,.7.254,1.035,1.035,0,0,1,.254.762,1.035,1.035,0,0,1-.254.762.95.95,0,0,1-.7.254H1.719a.95.95,0,0,1-.7-.254,1.035,1.035,0,0,1-.254-.762,1.035,1.035,0,0,1,.254-.762A.9.9,0,0,1,1.68-5.1Zm4.375-5.352a1.114,1.114,0,0,1,.82-.273,1.1,1.1,0,0,1,.811.264.937.937,0,0,1,.264.693v1.758q1.172,6.641,5.7,8.223a.981.981,0,0,1,.391.234.567.567,0,0,1,.156.42,1.107,1.107,0,0,1-.293.635,1.221,1.221,0,0,1-1,.605,1.167,1.167,0,0,1-.449-.1,10.051,10.051,0,0,1-5.215-5.9A10.631,10.631,0,0,1,6.758,2.148a1.245,1.245,0,0,1-.527.117A1.321,1.321,0,0,1,5.273,1.8a1.131,1.131,0,0,1-.352-.723A.714.714,0,0,1,5.371.43,11.458,11.458,0,0,0,8.184-1.66,9.9,9.9,0,0,0,9.355-3.047a8.77,8.77,0,0,0,.938-2.08,10.149,10.149,0,0,0,.43-1.953q.078-.811.078-1.826v-.859A.924.924,0,0,1,11.055-10.449Zm15.957-3.789a1.112,1.112,0,0,1,.264-.508.576.576,0,0,1,.43-.2,1.175,1.175,0,0,1,.439.078,1.062,1.062,0,0,1,.488.273.687.687,0,0,1,.2.508,1.154,1.154,0,0,1-.078.391,25.569,25.569,0,0,1-1.211,3.008.861.861,0,0,1-.781.625,1.051,1.051,0,0,1-.332-.059.854.854,0,0,1-.332-.215.581.581,0,0,1-.156-.43,1.379,1.379,0,0,1,.117-.547A13.113,13.113,0,0,0,27.012-14.238ZM21.895-15a.726.726,0,0,1,.537.205,1.086,1.086,0,0,1,.283.5,13.211,13.211,0,0,1,.82,3.262.779.779,0,0,1-.205.576.88.88,0,0,1-.42.254,1.616,1.616,0,0,1-.332.049.726.726,0,0,1-.537-.205,1.094,1.094,0,0,1-.283-.537l-.723-2.949A1.81,1.81,0,0,1,21-14.2a.674.674,0,0,1,.2-.527A.912.912,0,0,1,21.895-15Zm1.152,7.93a.911.911,0,0,1,.674.244.859.859,0,0,1,.244.635,2.864,2.864,0,0,1-.02.313,29.379,29.379,0,0,1-.84,2.959A7.941,7.941,0,0,1,21.992-.645a1.467,1.467,0,0,0-.137.156,1.364,1.364,0,0,1-.41.2h-.02q-.391,0-.7-.586V-.9a2,2,0,0,1-.176-.791,1.234,1.234,0,0,1,.254-.732A13.007,13.007,0,0,0,21.7-4.2a10.546,10.546,0,0,0,.684-2.129,1.137,1.137,0,0,1,.254-.557A.548.548,0,0,1,23.047-7.07Zm5.391-2.441a1.006,1.006,0,0,1,.254.742,1.006,1.006,0,0,1-.254.742.95.95,0,0,1-.7.254H25.8V1.465a.95.95,0,0,1-.254.7,1.183,1.183,0,0,1-1.465,0,.95.95,0,0,1-.254-.7V-7.773H21.6a.95.95,0,0,1-.7-.254,1.006,1.006,0,0,1-.254-.742,1.006,1.006,0,0,1,.254-.742.95.95,0,0,1,.7-.254h2.227v-5.7a.95.95,0,0,1,.254-.7.992.992,0,0,1,.732-.254.992.992,0,0,1,.732.254.95.95,0,0,1,.254.7v5.7h1.934A.95.95,0,0,1,28.438-9.512Zm.293,6.055a1.438,1.438,0,0,1-.43.918v.02a.942.942,0,0,1-.645.332q-.391,0-.605-.488L25.762-5.625a1.567,1.567,0,0,1-.117-.586.727.727,0,0,1,.371-.645.725.725,0,0,1,.469-.176.724.724,0,0,1,.605.391q.176.273.82,1.416t.732,1.357A1.083,1.083,0,0,1,28.73-3.457Zm6.914.078h-4.3v3.32h4.3Zm-4.2-10.273a.188.188,0,0,0-.1.078v3.086h4.3v-3.086a.117.117,0,0,0-.078-.078Zm-.1,5.117v3.2h4.3v-3.2ZM39.141.2a.992.992,0,0,1,.254.732.992.992,0,0,1-.254.732.95.95,0,0,1-.7.254H28.145a.95.95,0,0,1-.7-.254,1.006,1.006,0,0,1-.254-.742,1,1,0,0,1,.244-.732.911.911,0,0,1,.674-.244h1.25V-14.551a1.584,1.584,0,0,1,1.035-1.055l.039-.02h6.191a1.584,1.584,0,0,1,1.055,1.035l.02.039V-.059h.742A.95.95,0,0,1,39.141.2Z" transform="translate(771 800.426)" fill="#fff"/>
    <g id="组_4853" data-name="组 4853" transform="translate(0 905)">
      <rect id="矩形_3599" data-name="矩形 3599" width="872" height="56" fill="#48d7dd"/>
      <text id="_5_種字重" data-name="5 種字重" transform="translate(836 36)" fill="#fff" font-size="24" font-family="TaiwanPearl-Regular, 台灣粉圓"><tspan x="-93.75" y="0">5 種字重</tspan></text>
    </g>
    <text id="TaiwanPearl-2" data-name="TaiwanPearl" transform="translate(68 870)" fill="#fff" font-size="40" font-family="TaiwanPearl-Regular, 台灣粉圓"><tspan x="0" y="0">TaiwanPearl</tspan></text>
    <rect id="矩形_3598" data-name="矩形 3598" width="8" height="124" transform="translate(36 757)" fill="#48d7dd"/>
    <text id="ExtraLight" transform="translate(392 871)" fill="#fff" font-size="20" font-family="TaiwanPearl-ExtraLight, 台灣粉圓" font-weight="200"><tspan x="0" y="0">ExtraLight</tspan></text>
    <text id="Light" transform="translate(502 871)" fill="#fff" font-size="20" font-family="TaiwanPearl-Light, 台灣粉圓" font-weight="300"><tspan x="0" y="0">Light</tspan></text>
    <text id="Regular" transform="translate(566 871)" fill="#fff" font-size="20" font-family="TaiwanPearl-Regular, 台灣粉圓"><tspan x="0" y="0">Regular</tspan></text>
    <text id="Medium" transform="translate(654 872)" fill="#fff" font-size="20" font-family="TaiwanPearl-Medium, 台灣圓體" font-weight="500"><tspan x="0" y="0">Medium</tspan></text>
    <text id="SemiBold" transform="translate(746 872)" fill="#fff" font-size="20" font-family="TaiwanPearl-SemiBold, 台灣圓體" font-weight="600"><tspan x="0" y="0">SemiBold</tspan></text>
    <text id="常規" transform="translate(582 800)" fill="#fff" font-size="20" font-family="TaiwanPearl-Regular, 台灣粉圓"><tspan x="0" y="0">常規</tspan></text>
  </g>
</svg>
