<svg xmlns="http://www.w3.org/2000/svg" width="872" height="240" viewBox="0 0 872 240">
  <g id="yuPearl" transform="translate(0 -721)">
    <path id="路径_6969" data-name="路径 6969" d="M0,0H872V240H0Z" transform="translate(0 721)" fill="#313740"/>
    <path id="路径_6970" data-name="路径 6970" d="M7.754,3.828q.059,0-.312-.449A2.152,2.152,0,0,1,7.07,1.992v-18.32q-2.461,4.844-3.555,4.844-1.367,0-1.367-1.758a2.781,2.781,0,0,1,.508-1.367A62.222,62.222,0,0,0,9.531-29.883a3.918,3.918,0,0,1,.742-1.484,1.375,1.375,0,0,1,1.055-.469q1.758,0,1.758,1.523,0,.977-2.969,7.656V1.992q0,1.836-.312,1.836ZM12.461-14.8q0-1.172,1.328-1.445,3.711-.82,4.531-3.711a11.924,11.924,0,0,0,.352-2.656l-4.414.273a1.544,1.544,0,0,1-1.191-.352,1.546,1.546,0,0,1-.41-1.172q0-1.445,1.836-1.445l2.93.039.938-.039a38.983,38.983,0,0,0,1.953-4.961A1.976,1.976,0,0,1,22.3-31.836q1.6,0,1.6,1.445,0,.938-2.578,5h.391q4.141,0,9.219-.469h.156L29.3-27.3q-.977-.781-.977-1.289,0-1.25,1.484-1.25.742,0,4.18,2.734,3.4,2.734,3.4,3.633,0,1.484-1.641,1.484a2.537,2.537,0,0,1-1.562-.977l-.742-.742-4.8.469v4.219q0,.977.7,1.094l2.617.156a5.024,5.024,0,0,0,2.227-.234.708.708,0,0,0,.43-.469,3.233,3.233,0,0,0,.2-.977q.039-1.289,1.406-1.289,1.641,0,1.641,1.484,0,2.617-1.25,3.555-.937.7-4.531.7-3.984,0-5.117-.586a2.177,2.177,0,0,1-1.211-1.992v-5.43l-2.578.117-.781.078-.859.039v.391a9.528,9.528,0,0,1-1.211,4.961,7.257,7.257,0,0,1-2.773,2.7A8.284,8.284,0,0,1,13.867-13.4,1.243,1.243,0,0,1,12.461-14.8Zm-.547,16.8A1.2,1.2,0,0,1,12.441.957,3.876,3.876,0,0,1,14.1.43a23.873,23.873,0,0,0,8.789-2.7,18.033,18.033,0,0,1-3.555-5.977q-4.063,4.18-5.586,4.18-1.406,0-1.406-1.523a1.539,1.539,0,0,1,.781-1.25,20.12,20.12,0,0,0,7.148-7.891q.664-1.25,1.523-1.25,1.562,0,1.563,1.367a2.545,2.545,0,0,1-.352.9l-.547,1.055-.352.586h8.945q3.164,0,3.164,1.914,0,1.172-2.187,3.75a28.51,28.51,0,0,1-4.1,4.18A21.372,21.372,0,0,0,35.781-.2a2.489,2.489,0,0,1,1.543.566,1.65,1.65,0,0,1,.527,1.27q0,1.758-1.641,1.758A16.319,16.319,0,0,1,30.781,2.3,27.786,27.786,0,0,1,25.273-.312Q18.789,3.594,13.555,3.594A1.433,1.433,0,0,1,11.914,1.992ZM28.633-6.836q1.523-1.641,1.523-2.187,0-.312-.508-.312H21.68a11.22,11.22,0,0,0,3.672,5.469A24.151,24.151,0,0,0,28.633-6.836ZM48.711,1.992q0-1.6,1.68-1.6h2.461A1.915,1.915,0,0,0,54.2-.059a1.69,1.69,0,0,0,.488-1.309V-24.375a2.451,2.451,0,0,0-.566-1.738,2.218,2.218,0,0,0-1.7-.605H44.453a1.832,1.832,0,0,0-1.289.625v-1.914q0-1.68,1.289-1.68h9.453a4.666,4.666,0,0,1,3.125.938,4.858,4.858,0,0,1,.938,3.125V-.7a4.554,4.554,0,0,1-1.016,3.34,4.559,4.559,0,0,1-3.281,1H50.391a4.263,4.263,0,0,0-1.68.273Zm17.266.039a1.416,1.416,0,0,1,1.6-1.6h3.008a1.8,1.8,0,0,0,1.328-.469,1.8,1.8,0,0,0,.469-1.328V-24.375a2.451,2.451,0,0,0-.566-1.738,2.218,2.218,0,0,0-1.7-.605H61.289A1.832,1.832,0,0,0,60-26.094v-1.914q0-1.68,1.289-1.68H71.68a4.666,4.666,0,0,1,3.125.938,5.169,5.169,0,0,1,.938,3.125V-.664a4.6,4.6,0,0,1-.977,3.32,4.534,4.534,0,0,1-3.281.977H67.578a3.58,3.58,0,0,0-1.6.313ZM48.125-16.055q-.937-1.016-2.93-3.008-1.328-1.328-1.367-1.8a1.61,1.61,0,0,1,.293-1.23,1.314,1.314,0,0,1,1.074-.449q.938,0,3.32,1.953a15.76,15.76,0,0,1,2.246,2.148,3.743,3.743,0,0,1,.879,1.484,1.659,1.659,0,0,1-.41,1.387,1.821,1.821,0,0,1-1.348.488A2.589,2.589,0,0,1,48.125-16.055Zm17.3,0q-.937-1.016-2.93-3.008-1.328-1.328-1.367-1.8a1.61,1.61,0,0,1,.293-1.23,1.314,1.314,0,0,1,1.074-.449q.938,0,3.32,1.953a19.218,19.218,0,0,1,2.3,2.227,2.83,2.83,0,0,1,.82,1.484,1.785,1.785,0,0,1-.508,1.25,1.6,1.6,0,0,1-1.211.547A2.61,2.61,0,0,1,65.43-16.055Zm-5.9,9.492a1.7,1.7,0,0,1,.508-1.25,10.87,10.87,0,0,1,2.109-1.016,46.939,46.939,0,0,0,4.531-2.187q1.6-.859,2.188-1.133a1.592,1.592,0,0,1,.547-.117,1.393,1.393,0,0,1,1.172.664,1.658,1.658,0,0,1,.352,1.016,1.237,1.237,0,0,1-.43,1.016,12.165,12.165,0,0,1-1.914,1.25q-3.516,1.914-4.766,2.5A9.967,9.967,0,0,1,61.172-4.8Q59.531-4.8,59.531-6.562Zm-17.5.391a1.832,1.832,0,0,1,.625-1.289,4.45,4.45,0,0,1,1.113-.586q.918-.391,1.074-.469,2.109-.9,4.141-1.875L51.523-11.6a1.465,1.465,0,0,1,.664-.156,1.514,1.514,0,0,1,1.289.742,1.528,1.528,0,0,1,.273.9A1.306,1.306,0,0,1,53.2-8.984a14.8,14.8,0,0,1-1.8,1.133Q49.3-6.68,47.461-5.781a9,9,0,0,1-.82.43A8.2,8.2,0,0,1,43.867-4.3,1.64,1.64,0,0,1,42.031-6.172ZM87.813,3.281a4.288,4.288,0,0,1-3.164-1,4.48,4.48,0,0,1-.977-3.223v-25.2a4.544,4.544,0,0,1,.977-3.262,4.288,4.288,0,0,1,3.164-1h24.453a4.288,4.288,0,0,1,3.164,1,4.544,4.544,0,0,1,.977,3.262v25.2a4.48,4.48,0,0,1-.977,3.223,4.288,4.288,0,0,1-3.164,1ZM111.25.469a1.761,1.761,0,0,0,1.992-1.992v-24.1a1.744,1.744,0,0,0-1.992-1.953H88.828a1.744,1.744,0,0,0-1.992,1.953V-1.484A1.744,1.744,0,0,0,88.828.469ZM93.594-19.492q-2.656,0-2.656-2.266v-1.6a2.063,2.063,0,0,1,.7-1.68,3.1,3.1,0,0,1,2.031-.586h13.047q2.539,0,2.656,2.266v1.6q0,2.266-2.656,2.266Zm12.07-2.109a1,1,0,0,0,.684-.2,1.057,1.057,0,0,0,.215-.781,1,1,0,0,0-.234-.762.948.948,0,0,0-.664-.215H94.648q-.9,0-.9.859a1.282,1.282,0,0,0,.215.879.935.935,0,0,0,.684.215ZM92.734-5.117q-2.812,0-2.812-2.852V-15a2.486,2.486,0,0,1,2.813-2.812h14.844A2.486,2.486,0,0,1,110.391-15v7.031q0,2.852-2.734,2.852Zm14.922-9.648a.937.937,0,0,0-.273-.723,1.2,1.2,0,0,0-.742-.293H93.672a1,1,0,0,0-.742.273,1,1,0,0,0-.273.742v.586h15Zm0,3.984V-12.3h-15v1.523Zm-1.016,3.633a1.078,1.078,0,0,0,.781-.234,1.015,1.015,0,0,0,.234-.742v-.742h-15v.742q0,.9,1.016.977ZM90.2-.7A1.484,1.484,0,0,1,89.16-.957a.965.965,0,0,1-.371-.8.9.9,0,0,1,.41-.879,4.171,4.171,0,0,1,1.133-.352q.723-.137,1.035-.215,2.031-.352,4.141-.937.234-.078.723-.215a3.022,3.022,0,0,1,.684-.137q1.211.039,1.211,1.094,0,.781-1.719,1.289A34.818,34.818,0,0,1,90.2-.7Zm19.766.039a10.526,10.526,0,0,1-2.051-.371q-1.5-.371-3.848-1-1.953-.508-1.953-1.25a1.147,1.147,0,0,1,.371-.957,1.121,1.121,0,0,1,.957-.176q2.93.586,6.836,1.328,1.172.234,1.172,1.055Q111.445-.664,109.961-.664Zm31.8-15.273a3.466,3.466,0,0,1-2.48-.742,2.906,2.906,0,0,1-.645-2.383v-6.328a3.542,3.542,0,0,1,.742-2.5,2.863,2.863,0,0,1,2.383-.664h2.031v-1.953q0-1.289.313-1.289h1.758q.312,0,.313,1.289v1.953h2.617v-1.953q0-1.25.313-1.25h1.758q.312,0,.313,1.25v1.953h2.266a3.466,3.466,0,0,1,2.48.742,3.063,3.063,0,0,1,.684,2.422v6.328a3.418,3.418,0,0,1-.762,2.461,2.923,2.923,0,0,1-2.4.664Zm-19.3,1.563v-3.4a2.8,2.8,0,0,1,.488-1.758,1.915,1.915,0,0,1,1.426-.7v-7.422q0-2.891,2.93-2.891H133.4q2.93,0,2.93,2.891v7.422a2.011,2.011,0,0,1,1.426.7,2.8,2.8,0,0,1,.566,1.758v2.734q0,1.563-.312,1.563h-1.953q-.312,0-.312-1.562v-1.523a.863.863,0,0,0-.977-.977h-8.711a.9.9,0,0,0-1.016.977v2.188q0,1.523-.312,1.523h-1.953Q122.461-12.852,122.461-14.375Zm6.484-8.711a2.089,2.089,0,0,1,2.344-2.383h2.578v-1.289a.919.919,0,0,0-1.016-1.016H127.93q-.977,0-1.055,1.055v6.445h2.07Zm14.883-2.969h-1.6q-.82,0-.9.9V-23.4h2.5Zm5,2.656v-2.656h-2.7V-23.4Zm5.039-1.758a.794.794,0,0,0-.9-.9h-1.836V-23.4h2.734Zm-20,2.148h-1.484q-.937,0-.937.9v1.836h2.422Zm9.961,1.836h-2.5V-19.3a.816.816,0,0,0,.9.9h1.6Zm5,2.773v-2.773h-2.7V-18.4Zm5.039-.9v-1.875h-2.734V-18.4h1.836A.794.794,0,0,0,153.867-19.3ZM125.918,3.789q.059,0-.312-.391a1.644,1.644,0,0,1-.371-1.172V-12.7q0-2.773,2.852-2.773h4.922q2.813,0,2.813,2.773V.313a3.583,3.583,0,0,1-.781,2.52,3.16,3.16,0,0,1-2.422.84h-1.328A1.832,1.832,0,0,0,130,4.3V2.383Q130,.9,131.289.9h.625a1.161,1.161,0,0,0,.859-.312,1.216,1.216,0,0,0,.313-.9V-2.93h-5.039V2.227q0,1.563-.312,1.563Zm12.246-16.68a1.122,1.122,0,0,1,1.289-1.25H156.6a1.8,1.8,0,0,0,1.25-.625v1.914a1.1,1.1,0,0,1-1.25,1.25H139.453a1.832,1.832,0,0,0-1.289.625Zm-5.078,1.016a.9.9,0,0,0-1.016-1.016h-3.008a.9.9,0,0,0-1.016,1.016v1.523h5.039ZM136.68,1.836A1.139,1.139,0,0,1,137.969.547h4.609l-.7-3.008a3.257,3.257,0,0,1-2.109-.605,2.16,2.16,0,0,1-.742-1.777v-2.5a2.428,2.428,0,0,1,.684-1.855,2.829,2.829,0,0,1,2.012-.645h11.445q2.734,0,2.734,2.422v2.461q0,2.5-2.852,2.5L152.383.547h4.18a1.832,1.832,0,0,0,1.289-.625V1.836a1.139,1.139,0,0,1-1.289,1.289H137.969a1.832,1.832,0,0,0-1.289.625ZM133.086-5.43V-7.852h-5.039V-5.43Zm19.922-.234v-.977a.8.8,0,0,0-.859-.9h-9.375q-.859,0-.859.9v.977a.823.823,0,0,0,.859.9h9.375Q152.93-4.766,153.008-5.664ZM149.727.547l.547-2.891v-.117h-5.7L145.2.273l.039.273Z" transform="translate(68 798)" fill="#fff"/>
    <path id="路径_6971" data-name="路径 6971" d="M10.605-1.406q.312.5.654.5a.631.631,0,0,0,.454-.132.552.552,0,0,0,.132-.405.912.912,0,0,0-.127-.371,5.66,5.66,0,0,0-.6-.889,3.083,3.083,0,0,0-.83-.811.413.413,0,0,0-.2-.068.6.6,0,0,0-.537.2.489.489,0,0,0-.059.254,4.5,4.5,0,0,0,.508.869Zm1.758-14.209a4.056,4.056,0,0,0-.049.771v1.553H9.023a.413.413,0,0,0-.3.1.667.667,0,0,0-.137.479v.547a.972.972,0,0,1,.439-.107h3.291v2.734H8.477a.836.836,0,0,0-.6.166.477.477,0,0,0-.117.352v.605a2.081,2.081,0,0,1,.713-.107H14.99v2.617H9.023q-.488,0-.615.244a.567.567,0,0,0-.059.273v.615a2.073,2.073,0,0,1,.674-.1H14.99V-.615a1.01,1.01,0,0,1-.269.747A1.109,1.109,0,0,1,13.906.4h-.625a.9.9,0,0,0-.664.2.548.548,0,0,0-.146.42v.674a3.44,3.44,0,0,1,.811-.078h1.084a1.752,1.752,0,0,0,1.279-.4l.039-.039a2.176,2.176,0,0,0,.459-1.5V-4.873h1.494a.779.779,0,0,0,.557-.156.492.492,0,0,0,.117-.361v-.615a2.073,2.073,0,0,1-.674.1H16.143V-8.525h1.846a.413.413,0,0,0,.3-.1.667.667,0,0,0,.137-.479v-.547a.972.972,0,0,1-.439.107H13.467v-2.734h3.545a.413.413,0,0,0,.3-.1.667.667,0,0,0,.137-.479V-13.4a1.908,1.908,0,0,1-.43.107H13.467v-1.553a4.056,4.056,0,0,0-.049-.771Zm-7.656-.1a3.085,3.085,0,0,0-.049.674v3.584H2.939L3.1-13.174a.507.507,0,0,0-.117-.371.523.523,0,0,0-.381-.117.37.37,0,0,0-.273.107,1.364,1.364,0,0,0-.264.908A23.89,23.89,0,0,1,1.406-7.49l-.068.4a.413.413,0,0,0,.1.3.611.611,0,0,0,.42.117.318.318,0,0,0,.225-.107q.566-.566.8-3.418l.02-.186H4.658v4.893l-2.52.723a1.415,1.415,0,0,0-.7.332.487.487,0,0,0-.156.371.553.553,0,0,0,.186.488.723.723,0,0,0,.391.088,12.841,12.841,0,0,0,2.529-.771l.273-.1V1.016a3.3,3.3,0,0,0,.049.693H5.723a3.3,3.3,0,0,0,.049-.693V-4.727l1.475-.6a.568.568,0,0,0,.186-.117.529.529,0,0,0,.117-.371.488.488,0,0,0-.112-.356.5.5,0,0,0-.366-.112,1.553,1.553,0,0,0-.283.073q-.234.073-1.016.376v-4.551H7.09q.371,0,.479-.215a.641.641,0,0,0,.059-.3v-.635a1.755,1.755,0,0,1-.537.078H5.771v-3.584a3.085,3.085,0,0,0-.049-.674ZM27.617-.576a.587.587,0,0,0,.43-.137.324.324,0,0,0,.1-.254.453.453,0,0,0-.01-.088,26.929,26.929,0,0,0-.449-2.861,5.021,5.021,0,0,0-.254-.986.271.271,0,0,0-.078-.107.356.356,0,0,0-.264-.1.59.59,0,0,0-.4.107.225.225,0,0,0-.059.166l.146.977q.146.977.225,1.719.078.518.1.781A.974.974,0,0,0,27.3-.7.425.425,0,0,0,27.617-.576Zm-6.23-.576a1.4,1.4,0,0,0-.127.459.507.507,0,0,0,.117.371.555.555,0,0,0,.4.117.415.415,0,0,0,.283-.127,2.145,2.145,0,0,0,.42-.908A13.629,13.629,0,0,0,23-4.609a.572.572,0,0,0-.117-.41.468.468,0,0,0-.342-.107.354.354,0,0,0-.332.166.938.938,0,0,0-.107.41,13.024,13.024,0,0,1-.713,3.389Zm15.4.137a.972.972,0,0,1-.249.718.972.972,0,0,1-.718.249H34.053v-6.23h2.734Zm-3.77-5.264v6.23h-1.67a.938.938,0,0,1-.693-.244.978.978,0,0,1-.254-.723V-6.279Zm3.77-6.025v5.01H34.053v-5.957H35.82a.99.99,0,0,1,.728.239A.96.96,0,0,1,36.787-12.3Zm-3.77-.947v5.957H30.4V-12.3a.952.952,0,0,1,.244-.7.952.952,0,0,1,.7-.244ZM30.781.967h5.605a1.714,1.714,0,0,0,1.1-.322l.059-.059A1.522,1.522,0,0,0,37.9-.527V-12.773a1.736,1.736,0,0,0-.352-1.1,1.369,1.369,0,0,0-1.162-.41H30.781a1.572,1.572,0,0,0-1.162.41,1.554,1.554,0,0,0-.332,1.123V-.527a1.714,1.714,0,0,0,.322,1.1A.769.769,0,0,0,29.9.8,2.015,2.015,0,0,0,30.781.967Zm-5.449.781a2.828,2.828,0,0,0,.049-.635V-6.621l1.846-.244.059.156q.225.674.547.732a.437.437,0,0,0,.1.01,1.151,1.151,0,0,0,.142-.01.448.448,0,0,0,.186-.088.4.4,0,0,0,.088-.293q-.059-.244-.537-1.523A3.433,3.433,0,0,0,27.2-9a.4.4,0,0,0-.264-.146q-.3,0-.371.156a.481.481,0,0,0-.029.186l.029.117q.049.146.146.391L27-7.627q-1.035.078-3.076.176l.293-.352a30.877,30.877,0,0,0,3.271-4.57.978.978,0,0,0,.117-.342.6.6,0,0,0-.137-.439.634.634,0,0,0-.459-.137.4.4,0,0,0-.215.107,3.987,3.987,0,0,0-.781,1.025L24.961-10.41l-.176-.127a10.057,10.057,0,0,1-.791-.635l-.557-.449a21.678,21.678,0,0,0,2.012-3.242.742.742,0,0,0,.068-.234.634.634,0,0,0-.137-.459.6.6,0,0,0-.439-.137.6.6,0,0,0-.439.176,1.327,1.327,0,0,0-.254.4,21.035,21.035,0,0,1-1.4,2.842l-.117.186q-.313-.225-.435-.293t-.2-.107a.675.675,0,0,0-.234-.059.57.57,0,0,0-.156.02.407.407,0,0,0-.332.459.584.584,0,0,0,.205.4,3.871,3.871,0,0,0,.664.518,22.855,22.855,0,0,1,1.982,1.523l.146.117L22.92-7.441l-.664.049a1.833,1.833,0,0,0-.8.2l-.088.068a.4.4,0,0,0-.107.293.642.642,0,0,0,.146.469.337.337,0,0,0,.264.1.453.453,0,0,0,.088-.01l2.549-.254V1.113a2.828,2.828,0,0,0,.049.635Z" transform="translate(416 801)" fill="#fff"/>
    <path id="路径_6972" data-name="路径 6972" d="M7.617-.508A.651.651,0,0,0,8.1-.664a.39.39,0,0,0,.117-.3.614.614,0,0,0-.01-.1Q8.076-2.295,7.822-3.6,7.7-4.238,7.559-4.746A.651.651,0,0,0,7.4-5.063a.416.416,0,0,0-.308-.112.628.628,0,0,0-.449.127.29.29,0,0,0-.078.215V-4.8q.264,1.631.371,2.676.088.566.1.771A1.118,1.118,0,0,0,7.217-.7a.5.5,0,0,0,.313.186A.363.363,0,0,0,7.617-.508ZM1.191-.684a.557.557,0,0,0,.137.41.618.618,0,0,0,.449.137q.479,0,.762-1.094a13.42,13.42,0,0,0,.527-3.379.634.634,0,0,0-.137-.459A.532.532,0,0,0,2.539-5.2a.435.435,0,0,0-.322.117.811.811,0,0,0-.186.518,12.9,12.9,0,0,1-.713,3.379A1.649,1.649,0,0,0,1.191-.684Zm15.527-.332a.878.878,0,0,1-.234.664.9.9,0,0,1-.664.234h-1.7V-6.211h2.6Zm-3.77-5.2V-.117h-1.6A.872.872,0,0,1,10.7-.342a.912.912,0,0,1-.234-.674v-5.2Zm3.77-6.094v4.941h-2.6v-5.82h1.7a.925.925,0,0,1,.679.22A.9.9,0,0,1,16.719-12.3Zm-3.77-.879v5.82h-2.48V-12.3a.886.886,0,0,1,.225-.654.886.886,0,0,1,.654-.225ZM10.781,1.035h5.605A1.734,1.734,0,0,0,17.529.693a1.516,1.516,0,0,0,.439-1.221V-12.773a1.816,1.816,0,0,0-.361-1.143,1.447,1.447,0,0,0-1.221-.439H10.781a1.637,1.637,0,0,0-1.211.43,1.617,1.617,0,0,0-.352,1.172V-.527A1.758,1.758,0,0,0,9.561.615,1.484,1.484,0,0,0,10.781,1.035Zm-5.4.781a2.257,2.257,0,0,0,.068-.7V-6.562l1.738-.225a3.346,3.346,0,0,0,.19.479,1.025,1.025,0,0,0,.171.244A.5.5,0,0,0,7.91-5.9a.577.577,0,0,0,.4-.117.5.5,0,0,0,.107-.352Q8.389-6.533,7.881-7.9a3.543,3.543,0,0,0-.645-1.152.434.434,0,0,0-.3-.166q-.332,0-.42.186a.426.426,0,0,0-.049.225,1.98,1.98,0,0,0,.186.527L6.9-7.7q-.937.078-2.822.176l.186-.244a33.007,33.007,0,0,0,3.291-4.58,1.034,1.034,0,0,0,.117-.371.954.954,0,0,0-.02-.205A.608.608,0,0,0,7.52-13.2a.7.7,0,0,0-.508-.156.335.335,0,0,0-.19.073,1.735,1.735,0,0,0-.215.186,3.082,3.082,0,0,0-.283.347q-.171.234-.366.557L4.941-10.508,4.824-10.6q-.283-.2-.791-.625l-.508-.41A16.729,16.729,0,0,0,5.566-15a.414.414,0,0,0,.02-.1.7.7,0,0,0-.156-.508.666.666,0,0,0-.488-.156.662.662,0,0,0-.488.2,1.332,1.332,0,0,0-.264.42,22.936,22.936,0,0,1-1.4,2.832l-.078.127L2.6-12.275a1.534,1.534,0,0,0-.723-.342.563.563,0,0,0-.43.146.564.564,0,0,0-.137.4.647.647,0,0,0,.225.449,4.688,4.688,0,0,0,.674.527q.723.479,2.08,1.592l-1.4,2-.635.039a1.493,1.493,0,0,0-.928.283.444.444,0,0,0-.137.342.706.706,0,0,0,.166.518A.4.4,0,0,0,1.67-6.2a.5.5,0,0,0,.1-.01l2.471-.244V1.113a2.616,2.616,0,0,0,.059.7ZM32.5.41,32.461.166l-.352-1.533h3.164v.205L34.98.41Zm3.574-2.656h-4.7a.61.61,0,0,1-.41-.171.572.572,0,0,1-.146-.415V-3.32a.588.588,0,0,1,.151-.435.561.561,0,0,1,.415-.151h4.7a.514.514,0,0,1,.537.391.9.9,0,0,1,.02.2v.488a.6.6,0,0,1-.176.439A.528.528,0,0,1,36.074-2.246ZM26.68-2.578H23.887V-4.062H26.68Zm1.8,4.16a.929.929,0,0,1,.508-.156h9.3a.527.527,0,0,0,.386-.122.527.527,0,0,0,.122-.386V.254a.929.929,0,0,1-.508.156H36.025l.391-1.777h.107a1.4,1.4,0,0,0,1.016-.312,1.085,1.085,0,0,0,.273-.8v-1.23a.943.943,0,0,0-.5-.937,1.69,1.69,0,0,0-.732-.137H30.859a1.068,1.068,0,0,0-1.143.645,1.425,1.425,0,0,0-.068.469v1.25a.958.958,0,0,0,.327.786,1.486,1.486,0,0,0,.962.269h.107L31.465.41h-2.48A.527.527,0,0,0,28.6.532a.527.527,0,0,0-.122.386Zm-1.8-7.52v.9H23.887v-.9a.648.648,0,0,1,.166-.479.648.648,0,0,1,.479-.166h1.5a.606.606,0,0,1,.557.264A.766.766,0,0,1,26.68-5.937Zm2.539.156a.929.929,0,0,1,.508-.156H38.3a.507.507,0,0,0,.371-.117.507.507,0,0,0,.117-.371V-7.09a.9.9,0,0,1-.488.156H29.727a.539.539,0,0,0-.391.117.507.507,0,0,0-.117.371ZM25.137,1.855a.929.929,0,0,1,.508-.156h.664a1.449,1.449,0,0,0,1.113-.381A1.665,1.665,0,0,0,27.773.156v-6.5a1.278,1.278,0,0,0-.3-.937A1.318,1.318,0,0,0,26.5-7.6H24.043a1.172,1.172,0,0,0-1.152.547,1.572,1.572,0,0,0-.137.7V1.113A.7.7,0,0,0,22.9,1.6q.1.107.137.156h.791a2.232,2.232,0,0,0,.059-.645V-1.6H26.68V-.156a.739.739,0,0,1-.2.547.713.713,0,0,1-.527.2h-.312A.492.492,0,0,0,25.283.7a.674.674,0,0,0-.146.488ZM37.07-9.648a.524.524,0,0,1-.273.518.69.69,0,0,1-.312.068H35.43v-1.66H37.07Zm-2.52.586H32.93v-1.66h1.621Zm-2.5-1.66v1.66H31.1a.578.578,0,0,1-.42-.166.548.548,0,0,1-.156-.42v-1.074Zm-4.98-.918V-10H25.586v-1.055a.581.581,0,0,1,.156-.43.608.608,0,0,1,.449-.156Zm10-.937v1.016H35.43v-1.6h1.055a.588.588,0,0,1,.435.151A.588.588,0,0,1,37.07-12.578Zm-2.52,1.016H32.93v-1.6h1.621Zm-2.5-1.6v1.6H30.527v-1.025a.555.555,0,0,1,.352-.537.681.681,0,0,1,.234-.039Zm-7.441,1.621V-10H23.3v-3.369a.689.689,0,0,1,.2-.479.614.614,0,0,1,.469-.176h2.471a.666.666,0,0,1,.469.176.634.634,0,0,1,.166.469v.781H25.645a1.064,1.064,0,0,0-.781.254A1.094,1.094,0,0,0,24.609-11.543Zm4.355,4.668a2.232,2.232,0,0,0,.059-.645V-8.887a1.056,1.056,0,0,0-.5-.986.919.919,0,0,0-.371-.107l-.127-.01v-3.838a1.343,1.343,0,0,0-.322-.986,1.373,1.373,0,0,0-1.006-.322H23.652a1.373,1.373,0,0,0-1.006.322,1.343,1.343,0,0,0-.322.986V-9.99l-.127.01q-.83.068-.83,1.094v1.7a2.13,2.13,0,0,0,.059.625h.9a2.07,2.07,0,0,0,.059-.625v-1.1a.594.594,0,0,1,.3-.547.8.8,0,0,1,.342-.068h4.355a.628.628,0,0,1,.464.161.628.628,0,0,1,.161.464v.762a2.232,2.232,0,0,0,.059.645Zm3.984-8.379a1.69,1.69,0,0,0-.049-.508h-.82l-.02.088a2.282,2.282,0,0,0-.029.42v1.113H30.869q-.1-.01-.2-.01a1.165,1.165,0,0,0-.889.3,1.647,1.647,0,0,0-.332,1.152v3.174q-.01.1-.01.2a1.188,1.188,0,0,0,.293.889,1.608,1.608,0,0,0,1.143.332h5.85q.1.01.2.01a1.2,1.2,0,0,0,.9-.3,1.582,1.582,0,0,0,.342-1.133v-3.32a1.288,1.288,0,0,0-.3-.957,1.608,1.608,0,0,0-1.143-.332h-1.27v-1.113a1.594,1.594,0,0,0-.049-.488h-.82a1.537,1.537,0,0,0-.049.488v1.113H32.949Z" transform="translate(506 801)" fill="#fff"/>
    <path id="路径_6973" data-name="路径 6973" d="M1.563-9.355V-11.23a1.716,1.716,0,0,1,.4-1.27,1.7,1.7,0,0,1,1.3-.352H9.2v-2.324q0-.8.156-.8H10.7q.156,0,.156.8v2.324h6.133a1.915,1.915,0,0,1,1.328.381,1.48,1.48,0,0,1,.352,1.24v1.875q0,.938-.156.938H17.207q-.156,0-.156-.937v-1.426q0-.684-.742-.723H3.906a.669.669,0,0,0-.742.723v1.426q0,.938-.156.938H1.719Q1.563-8.418,1.563-9.355Zm11.973-4.453a3.433,3.433,0,0,1,.508-1q.527-.859,1.035-.859.84,0,.84.664a1.139,1.139,0,0,1-.234.586L15.43-14q-.547.879-1.055.879Q13.535-13.125,13.535-13.809Zm-7.891.645a.738.738,0,0,1-.479-.166,2.984,2.984,0,0,1-.479-.537,3.475,3.475,0,0,1-.605-1.074q0-.684.879-.684.508,0,1.035.762a2.65,2.65,0,0,1,.547,1.035Q6.543-13.164,5.645-13.164ZM9.219.957V-3.125h-4q-.7,0-.742.762V.313q0,.957-.156.957H3.047q-.156,0-.156-.957V-2.656a2.008,2.008,0,0,1,.43-1.426,1.775,1.775,0,0,1,1.406-.41H9.219V-5.859H6.328A1.566,1.566,0,0,1,5.166-6.23,1.518,1.518,0,0,1,4.844-7.4V-8.809a1.7,1.7,0,0,1,.361-1.2,1.333,1.333,0,0,1,1.123-.322h7.48a1.593,1.593,0,0,1,1.162.361,1.485,1.485,0,0,1,.322,1.162V-7.4a1.725,1.725,0,0,1-.352,1.211,1.4,1.4,0,0,1-1.133.332H10.8v1.367h4.8a2.047,2.047,0,0,1,1.455.439,1.661,1.661,0,0,1,.381,1.4V-.8q.156,2.168-2.051,2.012H14.1a1.811,1.811,0,0,0-.879.176V.43q0-.8.879-.8h1.035q.664,0,.7-.723v-1.27a.687.687,0,0,0-.742-.762H10.8V.957q0,.957-.156.957H9.375Q9.219,1.914,9.219.957ZM13.77-7.7v-.82q0-.508-.566-.547H6.934a.5.5,0,0,0-.566.547v.82q0,.527.566.566H13.2Q13.73-7.129,13.77-7.7ZM21.914,1a.734.734,0,0,1-.84-.82A.654.654,0,0,1,21.211-.2a3.94,3.94,0,0,1,.43-.488A8.282,8.282,0,0,0,23.75-3.965a5.09,5.09,0,0,0,.225-1.064q.088-.693.166-1.826H21.973a1.7,1.7,0,0,0-.9.2v-.957q0-.742.9-.742H24.2l.02-2.227.02-.293H22.4a1.75,1.75,0,0,0-.918.2v-.957q0-.762.918-.762h1.836l-.02-2.48q0-.937.781-.937.762,0,.762.9l-.02,2.52h1.582a1.7,1.7,0,0,0,.9-.2v.957q0,.762-.9.762h-1.6l-.039,2.266-.02.254h1.973a1.621,1.621,0,0,0,.918-.215v.957q0,.762-.918.762H25.625q-.1,1.25-.254,2.207a.691.691,0,0,1,.488-.234,1.493,1.493,0,0,1,.9.547q1.758,1.7,1.758,2.246,0,.7-.781.7-.332,0-.762-.566l-.762-.918-.293-.352q-.254-.312-.459-.537a2.462,2.462,0,0,1-.225-.264A9.927,9.927,0,0,1,23.652-.469Q22.6,1,21.914,1Zm4.258-.02q0-.566.879-.84A5.891,5.891,0,0,0,29.9-1.5a4.357,4.357,0,0,0,.9-2.773q-1.855,0-1.777-1.816v-7.187a1.97,1.97,0,0,1,.43-1.416,1.689,1.689,0,0,1,1.367-.381H35.9a1.97,1.97,0,0,1,1.416.43,1.719,1.719,0,0,1,.381,1.387v7.148a2.04,2.04,0,0,1-.43,1.445,1.667,1.667,0,0,1-1.367.391h-.664V-.8q0,.684.977.684.957,0,1.094-.273a3.425,3.425,0,0,0,.156-1.016,1.073,1.073,0,0,1,.205-.664.671.671,0,0,1,.537-.215q.723,0,.723.879A4.326,4.326,0,0,1,38.535.7q-.43.723-2.266.723a4.309,4.309,0,0,1-2.07-.293A1.286,1.286,0,0,1,33.73.1V-4.277H32.285a7.247,7.247,0,0,1-1.055,3.5,5.967,5.967,0,0,1-2.949,2.148,4.719,4.719,0,0,1-1.348.391A.682.682,0,0,1,26.172.977Zm10-14.082a.587.587,0,0,0-.166-.449.716.716,0,0,0-.459-.176H31.133q-.566,0-.605.605v1.152h5.645Zm0,4.219v-1.8H30.527v1.8Zm0,2.656V-7.6H30.527v1.387a.592.592,0,0,0,.146.449.725.725,0,0,0,.459.156h4.414Q36.133-5.605,36.172-6.23Z" transform="translate(583 801)" fill="#fff"/>
    <path id="路径_6974" data-name="路径 6974" d="M11.27-5.049A.373.373,0,0,0,11-4.961a.373.373,0,0,0-.088.273v.82A.373.373,0,0,0,11-3.594a.373.373,0,0,0,.273.088h2.188a.349.349,0,0,0,.254-.078.388.388,0,0,0,.088-.283v-.82a.384.384,0,0,0-.083-.278.353.353,0,0,0-.259-.083ZM18.145-.3a.861.861,0,0,1,.635.215.819.819,0,0,1,.215.605.8.8,0,0,1-.41.752,1.737,1.737,0,0,1-.83.166l-6.035-.02a21.789,21.789,0,0,1-4.971-.391A5.477,5.477,0,0,1,4.365-.293,15.267,15.267,0,0,1,2.715.977a1.816,1.816,0,0,1-.84.342.831.831,0,0,1-.615-.225A1.064,1.064,0,0,1,1.006.313q0-.693.947-1.074a12.125,12.125,0,0,0,1.475-.762V-5.078a.512.512,0,0,0-.122-.376.512.512,0,0,0-.376-.122H1.875a.816.816,0,0,0-.566.283l-.186.186V-6.328a.945.945,0,0,1,.225-.693.713.713,0,0,1,.527-.2H3.4a1.8,1.8,0,0,1,1.328.42,1.429,1.429,0,0,1,.361,1.055v4.053l.508.479a7.029,7.029,0,0,0,3.613.918q.908.068,2,.068ZM1.3-11.035a.881.881,0,0,1,.22-.649.881.881,0,0,1,.649-.22,6.549,6.549,0,0,1,1.66.557q1.338.566,1.338,1.23a.906.906,0,0,1-.234.684.838.838,0,0,1-.635.225.755.755,0,0,1-.273-.049,3.043,3.043,0,0,1-.439-.215l-1.621-.7A.945.945,0,0,1,1.3-11.035Zm12.48-.068.332-1.758H10.43l.381,1.758ZM2.217-14.766a.881.881,0,0,1,.22-.649.852.852,0,0,1,.63-.22,6.8,6.8,0,0,1,1.592.576,2.3,2.3,0,0,1,1.2.947.781.781,0,0,1,.088.371,1.2,1.2,0,0,1-.059.381.735.735,0,0,1-.176.293.858.858,0,0,1-.635.225,1.2,1.2,0,0,1-.454-.151l-.386-.19-1.279-.664Q2.217-14.229,2.217-14.766Zm3.926,1.113a.785.785,0,0,1,.21-.581.9.9,0,0,1,.659-.21h4.4v-.693a3.523,3.523,0,0,1,.034-.566.506.506,0,0,1,.1-.259.187.187,0,0,1,.132-.063h1.309a.16.16,0,0,1,.117.049.332.332,0,0,1,.073.107,1.06,1.06,0,0,1,.049.21,3.781,3.781,0,0,1,.024.522v.693h4.814a1.025,1.025,0,0,0,.693-.244l.176-.156v1.191a.785.785,0,0,1-.21.581.9.9,0,0,1-.659.21H15.84L15.371-11.1h1.172a1.685,1.685,0,0,1,1.279.435,1.821,1.821,0,0,1,.41,1.294v6.719a2.017,2.017,0,0,1-.454,1.47,1.986,1.986,0,0,1-1.45.454H15.41a1.245,1.245,0,0,0-.723.2l-.166.117V-1.582a.847.847,0,0,1,.215-.625.807.807,0,0,1,.6-.205h.625a.552.552,0,0,0,.405-.132.552.552,0,0,0,.132-.405V-9.062a.512.512,0,0,0-.122-.376A.512.512,0,0,0,16-9.561H13.115v.879h2.158a.818.818,0,0,0,.605-.312l.186-.215v1.24a.726.726,0,0,1-.2.537.811.811,0,0,1-.6.2H13.115v.84H14a1.421,1.421,0,0,1,1.05.366,1.507,1.507,0,0,1,.366,1.108v1.328a1.5,1.5,0,0,1-.371,1.1,1.469,1.469,0,0,1-1.084.371H10.781a1.5,1.5,0,0,1-1.1-.371,1.5,1.5,0,0,1-.371-1.1V-4.922a1.275,1.275,0,0,1,.986-1.426,2.213,2.213,0,0,1,.488-.049h.713v-.84H9.453a.844.844,0,0,0-.625.3l-.186.2v-1.23a.686.686,0,0,1,.186-.508.85.85,0,0,1,.625-.205h2.041v-.879H8.77a.512.512,0,0,0-.376.122.512.512,0,0,0-.122.376v7.246a5.2,5.2,0,0,1-.024.615A1.408,1.408,0,0,1,8.2-.957a.311.311,0,0,1-.073.117.16.16,0,0,1-.117.049H6.777a.172.172,0,0,1-.146-.088,2.137,2.137,0,0,1-.117-.937V-9.375q0-1.318.957-1.631a2.464,2.464,0,0,1,.732-.1H9.18l-.42-1.758H7.012a1.025,1.025,0,0,0-.693.244l-.176.156ZM36.3-9.707a1.227,1.227,0,0,0-.2-.83,1.188,1.188,0,0,0-.811-.2H30.967v5.293h4.326a2.087,2.087,0,0,0,.518-.054.645.645,0,0,0,.293-.142,1.188,1.188,0,0,0,.2-.811Zm-7.266-1.025h-4.15a2.087,2.087,0,0,0-.518.054.646.646,0,0,0-.293.142,1.227,1.227,0,0,0-.2.83v3.262a2.087,2.087,0,0,0,.054.518.645.645,0,0,0,.142.293,1.188,1.188,0,0,0,.811.2h4.15ZM36-12.51q.127-.01.259-.01t.327.02a2.76,2.76,0,0,1,.42.078,1.594,1.594,0,0,1,.723.41,2.08,2.08,0,0,1,.518,1.533q0,.117-.01.225V-5.9a2.434,2.434,0,0,1-.557,1.777,1.91,1.91,0,0,1-1.406.469q-.137,0-.273-.01H30.967V.957a4.764,4.764,0,0,1-.029.649q-.029.181-.049.249a.243.243,0,0,1-.059.107.177.177,0,0,1-.127.059H29.3a.16.16,0,0,1-.117-.049A1.918,1.918,0,0,1,29.033.957V-3.662H24.2q-.127.01-.244.01a2.026,2.026,0,0,1-1.494-.508,2.069,2.069,0,0,1-.508-1.523q0-.107.01-.215v-4.355a2.444,2.444,0,0,1,.557-1.8,1.875,1.875,0,0,1,1.4-.469q.137,0,.283.01h4.834v-2.451a5.523,5.523,0,0,1,.034-.718A.584.584,0,0,1,29.18-16a.16.16,0,0,1,.117-.049H30.7a.136.136,0,0,1,.107.044.619.619,0,0,1,.068.093,3.067,3.067,0,0,1,.088.947v2.451Z" transform="translate(674 801)" fill="#fff"/>
    <path id="路径_6975" data-name="路径 6975" d="M1.133-1.387a1.214,1.214,0,0,1,.137-.488,4.217,4.217,0,0,1,.469-.752A26.283,26.283,0,0,0,4.316-6.6a1.259,1.259,0,0,1,.8-.762.808.808,0,0,1,.176-.02.932.932,0,0,1,.732.273.953.953,0,0,1,.3.645.652.652,0,0,1-.039.225,10.7,10.7,0,0,1-.859,1.7Q4.443-2.881,3.662-1.7a6.134,6.134,0,0,1-.771.977,1.1,1.1,0,0,1-.723.41,1.03,1.03,0,0,1-.762-.273A1.085,1.085,0,0,1,1.133-1.387ZM3.926.1a2.316,2.316,0,0,1,.22-.1q.171-.073.288-.117t.273-.093q.156-.049.371-.127A7.926,7.926,0,0,0,7.939-2.148a9.951,9.951,0,0,0,2.568-6.689,10.78,10.78,0,0,1,.146-1.475.372.372,0,0,1,.059-.166.971.971,0,0,1,.791-.342.93.93,0,0,1,.688.249,1.015,1.015,0,0,1,.249.747v.01l-.2,2.07a10.589,10.589,0,0,0,5.8,7.314,2.771,2.771,0,0,1,.7.488.989.989,0,0,1,.332.7.951.951,0,0,1-.083.41,1.512,1.512,0,0,1-.278.381,1.049,1.049,0,0,1-.732.342A2.026,2.026,0,0,1,17.1,1.6,11.448,11.448,0,0,1,15.439.488,11.5,11.5,0,0,1,11.66-4.727a9.194,9.194,0,0,1-5.078,6,5.97,5.97,0,0,1-1.953.684,1.052,1.052,0,0,1-.8-.288A1.074,1.074,0,0,1,3.555.894,1,1,0,0,1,3.926.1ZM2.08-13.223a1.312,1.312,0,0,1-.4-.874.93.93,0,0,1,.254-.688,1.114,1.114,0,0,1,.82-.273A.745.745,0,0,1,3.042-15a2.641,2.641,0,0,1,.356.19,8.039,8.039,0,0,1,1.045.889,4.056,4.056,0,0,1,1.172,1.592.712.712,0,0,1,.01.117.991.991,0,0,1-.518.986,1.279,1.279,0,0,1-.6.127.835.835,0,0,1-.488-.186,5.335,5.335,0,0,1-.6-.527ZM14.922-7.5a1.486,1.486,0,0,1,.264-.742,18.6,18.6,0,0,0,1.055-2.275.668.668,0,0,0,.068-.283.113.113,0,0,0-.02-.078.266.266,0,0,0-.176-.039h-7.4A9.871,9.871,0,0,1,7.1-8.135a1.02,1.02,0,0,1-.693.361,1.017,1.017,0,0,1-.752-.264,1.045,1.045,0,0,1-.264-.771,1.771,1.771,0,0,1,.342-.859,15.8,15.8,0,0,0,2.354-5.42,1.243,1.243,0,0,1,.371-.723.967.967,0,0,1,.684-.264,1.22,1.22,0,0,1,.889.273.739.739,0,0,1,.205.547v.02l-.361,1.289-.42,1.133h7.559a1.815,1.815,0,0,1,1.318.4,1.1,1.1,0,0,1,.3.811A10.109,10.109,0,0,1,17.52-8.633l-.566,1.172q-.439.9-1.055.9a.986.986,0,0,1-.728-.249A.93.93,0,0,1,14.922-7.5ZM35.684-3.809H31.641v3.4h4.043Zm-4.043-1.8h4.043V-8.574H31.641Zm4.043-7.09a.49.49,0,0,0-.117-.366.554.554,0,0,0-.371-.122H32.109a.455.455,0,0,0-.342.112.586.586,0,0,0-.127.366v2.334h4.043Zm-14.238-.918a.7.7,0,0,1,.2-.518.93.93,0,0,1,.684-.225q.625,0,1.064,1.113a5.255,5.255,0,0,1,.4,1.582.819.819,0,0,1-.215.605.955.955,0,0,1-.7.234.821.821,0,0,1-.7-.459,2.63,2.63,0,0,1-.264-.684q-.225-.8-.342-1.152A1.864,1.864,0,0,1,21.445-13.613Zm6.875-.781a.866.866,0,0,1,.64.22.839.839,0,0,1,.22.62,1.271,1.271,0,0,1-.034.264q-.034.156-.073.322-.088.4-.332,1.26a1.533,1.533,0,0,1-.371.708.8.8,0,0,1-.576.239.875.875,0,0,1-.645-.215.792.792,0,0,1-.215-.586v-.02q.469-1.953.488-2.017t.044-.127q.024-.063.054-.122t.059-.107A.81.81,0,0,1,28.32-14.395ZM39.1.508a.961.961,0,0,1-.234.693.893.893,0,0,1-.645.225H27.969a1.155,1.155,0,0,0-.664.186l-.273.186V.508a.918.918,0,0,1,.239-.679.946.946,0,0,1,.7-.239h1.777V-13.086a2.089,2.089,0,0,1,.488-1.543,1.546,1.546,0,0,1,1.143-.4q.137,0,.273.01h4.033a2,2,0,0,1,1.484.479A1.867,1.867,0,0,1,37.6-13.2V-.41h.625A1.055,1.055,0,0,0,38.828-.6L39.1-.781ZM26.309-6.9a.73.73,0,0,1,.313-.068,1.628,1.628,0,0,1,.967.6,14.7,14.7,0,0,1,1.074,1.27A3.5,3.5,0,0,1,29.326-4a.321.321,0,0,1,.01.078.808.808,0,0,1-.41.8,1.038,1.038,0,0,1-.469.1.992.992,0,0,1-.635-.361,5.756,5.756,0,0,1-.605-.752L26.309-5.42V.938a2.713,2.713,0,0,1-.034.483.492.492,0,0,1-.112.259.253.253,0,0,1-.186.078H24.8a.253.253,0,0,1-.186-.078.492.492,0,0,1-.112-.259,2.713,2.713,0,0,1-.034-.483v-5.7q-.479.869-1.162,1.914a4.845,4.845,0,0,1-1.289,1.523.6.6,0,0,1-.283.078.792.792,0,0,1-.586-.215,1.174,1.174,0,0,1-.273-.859A1.7,1.7,0,0,1,21.4-3.437a14.1,14.1,0,0,0,2.8-5.1H21.953a1.386,1.386,0,0,0-.781.186l-.273.186V-9.453a.825.825,0,0,1,.234-.625,1.094,1.094,0,0,1,.82-.273h2.48V-15.1a2.458,2.458,0,0,1,.039-.488.4.4,0,0,1,.2-.312.261.261,0,0,1,.1-.02h1.211a.231.231,0,0,1,.171.063.373.373,0,0,1,.088.127,1.191,1.191,0,0,1,.049.2,2.688,2.688,0,0,1,.024.435v4.746h2.051a1.428,1.428,0,0,0,.8-.186l.273-.186v1.289a.845.845,0,0,1-.234.625,1.144,1.144,0,0,1-.84.273H26.309Z" transform="translate(772 801)" fill="#fff"/>
    <g id="组_4853" data-name="组 4853" transform="translate(0 905)">
      <rect id="矩形_3599" data-name="矩形 3599" width="872" height="56" fill="#48d7dd"/>
      <text id="_5_種字重" data-name="5 種字重" transform="translate(836 36)" fill="#fff" font-size="24" font-family="YuPearl-Regular, YuPearl"><tspan x="-93.75" y="0">5 種字重</tspan></text>
    </g>
    <path id="路径_6976" data-name="路径 6976" d="M12.5.234a1.8,1.8,0,0,1-1.289-.527,1.7,1.7,0,0,1-.547-1.27v-9.961L1.328-24.57a2.518,2.518,0,0,1-.312-1.094,1.832,1.832,0,0,1,.508-1.289,1.639,1.639,0,0,1,1.25-.547,1.82,1.82,0,0,1,1.6.9L12.5-14.766,20.625-26.6a1.82,1.82,0,0,1,1.6-.9,1.686,1.686,0,0,1,1.23.527,1.686,1.686,0,0,1,.527,1.23,3.027,3.027,0,0,1-.312,1.172L14.3-11.523v9.961a1.731,1.731,0,0,1-.527,1.27A1.731,1.731,0,0,1,12.5.234Zm19.688.2a6.977,6.977,0,0,1-3.75-1.016,6.786,6.786,0,0,1-2.422-2.773,8.774,8.774,0,0,1-.859-3.906V-18.359q0-1.289.313-1.289h3.008q.313,0,.313,1.289v10.7q0,4.727,4.258,4.727a6.256,6.256,0,0,0,3.379-.937,12.389,12.389,0,0,0,2.988-2.773V-18.359q0-1.289.313-1.289h3.008q.312,0,.313,1.289V-1.6q0,1.289-.312,1.289H39.727q-.312,0-.312-1.289V-3.086a12.528,12.528,0,0,1-3.32,2.617A8.306,8.306,0,0,1,32.188.43ZM51.25.234a1.731,1.731,0,0,1-1.27-.527,1.731,1.731,0,0,1-.527-1.27V-25.469a1.8,1.8,0,0,1,.527-1.289,1.7,1.7,0,0,1,1.27-.547h8.906a12.973,12.973,0,0,1,6.055,1.25,8.2,8.2,0,0,1,3.3,3.066,8.512,8.512,0,0,1,1.113,4.395,8.859,8.859,0,0,1-1.016,4.219,7.506,7.506,0,0,1-3.457,3.281,13.254,13.254,0,0,1-6,1.211h-7.07v8.32a1.7,1.7,0,0,1-.547,1.27A1.8,1.8,0,0,1,51.25.234ZM59.8-13.32a8.951,8.951,0,0,0,5.371-1.348,4.585,4.585,0,0,0,1.816-3.926,4.585,4.585,0,0,0-1.816-3.926A8.951,8.951,0,0,0,59.8-23.867h-6.25a.414.414,0,0,0-.469.469V-13.32ZM83.4.43A9.987,9.987,0,0,1,75.918-2.3q-2.676-2.734-2.676-7.656a13.288,13.288,0,0,1,1.016-5.117,8.51,8.51,0,0,1,3.2-3.867,9.205,9.205,0,0,1,5.156-1.406,9.388,9.388,0,0,1,5.039,1.328,9.052,9.052,0,0,1,3.164,3.574,10.9,10.9,0,0,1,1.133,4.98,1.765,1.765,0,0,1-.508,1.27,1.76,1.76,0,0,1-1.328.527h-13.2A6.334,6.334,0,0,0,79-4.434a7.071,7.071,0,0,0,4.707,1.465A12.1,12.1,0,0,0,86.5-3.262a11.513,11.513,0,0,0,2.48-.918,1.406,1.406,0,0,1,.7-.156,1.6,1.6,0,0,1,1.113.449,1.452,1.452,0,0,1,.488,1.113,1.71,1.71,0,0,1-1.055,1.484A14.728,14.728,0,0,1,87.109.02,14.186,14.186,0,0,1,83.4.43Zm4.453-12.07a.413.413,0,0,0,.469-.508,5.171,5.171,0,0,0-.937-2.617,5.528,5.528,0,0,0-2.129-1.875,5.9,5.9,0,0,0-2.637-.625A6.64,6.64,0,0,0,80-16.68a5.114,5.114,0,0,0-2.168,1.973,6.626,6.626,0,0,0-.918,3.066ZM101.68.43a7.3,7.3,0,0,1-3.164-.7,5.435,5.435,0,0,1-2.383-2.07,5.748,5.748,0,0,1-.859-3.125,5.413,5.413,0,0,1,2.363-4.707,11.468,11.468,0,0,1,6.66-1.66h4.688v-.273a4.8,4.8,0,0,0-1.23-3.652,5.679,5.679,0,0,0-3.965-1.152,13.686,13.686,0,0,0-2.539.215,20.912,20.912,0,0,0-2.656.723l-.508.078a1.422,1.422,0,0,1-1.035-.449,1.466,1.466,0,0,1-.449-1.074,1.534,1.534,0,0,1,1.055-1.523,16.994,16.994,0,0,1,6.758-1.406,9.147,9.147,0,0,1,4.609,1.094,6.857,6.857,0,0,1,2.7,2.793,8.254,8.254,0,0,1,.9,3.848V-1.562q0,1.289-.312,1.289H109.3q-.313,0-.312-1.289V-2.5A9.671,9.671,0,0,1,101.68.43Zm1.328-3.2a7.14,7.14,0,0,0,3.262-.8,8.962,8.962,0,0,0,2.715-2.09V-8.906h-4.219q-5.859,0-5.859,3.047Q98.906-2.773,103.008-2.773Zm17.3,3.008a1.731,1.731,0,0,1-1.27-.527,1.731,1.731,0,0,1-.527-1.27V-18.32q0-1.289.313-1.289h3.008q.313,0,.313,1.289v1.563q2.7-3.594,6.094-3.594h.2a1.832,1.832,0,0,0,1.289-.625v1.914q0,2.227-1.289,2.227h-.273a6.709,6.709,0,0,0-3.379.879,7.825,7.825,0,0,0-2.637,2.52V-1.562a1.7,1.7,0,0,1-.547,1.27A1.8,1.8,0,0,1,120.313.234Zm14.961,0A1.731,1.731,0,0,1,134-.293a1.731,1.731,0,0,1-.527-1.27V-26.914q0-1.289.313-1.289H136.8q.312,0,.313,1.289V-1.562a1.7,1.7,0,0,1-.547,1.27A1.8,1.8,0,0,1,135.273.234Z" transform="translate(68 870)" fill="#fff"/>
    <path id="路径_6977" data-name="路径 6977" d="M0,0H8V124H0Z" transform="translate(36 757)" fill="#48d7dd"/>
    <path id="路径_6978" data-name="路径 6978" d="M10.342-7.578a.972.972,0,0,1-.439.107H3.486v-4.248a.435.435,0,0,1,.117-.322.435.435,0,0,1,.322-.117h6.68a.365.365,0,0,0,.254-.088,1.136,1.136,0,0,0,.186-.762v-.547a1.908,1.908,0,0,1-.43.107H2.773a.652.652,0,0,0-.488.215.678.678,0,0,0-.205.5V-.879a.667.667,0,0,0,.205.488.667.667,0,0,0,.488.205h7.832a.365.365,0,0,0,.254-.088,1.136,1.136,0,0,0,.186-.762v-.547a.972.972,0,0,1-.439.107H3.926A.435.435,0,0,1,3.6-1.592a.435.435,0,0,1-.117-.322V-6.182H9.9a.365.365,0,0,0,.254-.088.8.8,0,0,0,.156-.4,2.083,2.083,0,0,0,.029-.361Zm10.8,7.49A.662.662,0,0,0,21.65-.3a.689.689,0,0,0,.2-.483.7.7,0,0,0-.166-.469L18.525-5.039l3.184-3.74a.8.8,0,0,0,.156-.439.612.612,0,0,0-.2-.469.724.724,0,0,0-.513-.186.685.685,0,0,0-.547.254L17.754-6.064q-2.9-3.594-2.91-3.6a.675.675,0,0,0-.527-.205.67.67,0,0,0-.493.2.67.67,0,0,0-.2.493.737.737,0,0,0,.166.459l3.135,3.8L13.8-1.24a.8.8,0,0,0-.156.439.8.8,0,0,0,.2.557.658.658,0,0,0,.469.156A.724.724,0,0,0,14.912-.4l2.764-3.457L20.625-.322A.658.658,0,0,0,21.143-.088Zm4.238-11.621a1.692,1.692,0,0,0-.039.439v1.592H24.16a.35.35,0,0,0-.273.1.849.849,0,0,0-.166.615v.547a.972.972,0,0,1,.439-.107h1.182v6.143a2.358,2.358,0,0,0,.586,1.738,2.846,2.846,0,0,0,2.08.654,3.629,3.629,0,0,0,1.533-.332A.638.638,0,0,0,29.873-.7a.508.508,0,0,0,.02-.156.476.476,0,0,0-.156-.342.5.5,0,0,0-.361-.156,1.32,1.32,0,0,0-.254.029.557.557,0,0,1-.1.029,2.84,2.84,0,0,1-.82.117,1.773,1.773,0,0,1-1.064-.273,1.281,1.281,0,0,1-.391-1.084V-8.525h2.393a.35.35,0,0,0,.273-.1.849.849,0,0,0,.166-.615v-.547a.972.972,0,0,1-.439.107H26.748V-11.27a1.909,1.909,0,0,0-.039-.439ZM32.256-9.6a1.692,1.692,0,0,0-.039.439V-.781a.667.667,0,0,0,.205.488.667.667,0,0,0,.488.205.686.686,0,0,0,.5-.21.664.664,0,0,0,.21-.483v-6a5.319,5.319,0,0,1,.6-.752A3.665,3.665,0,0,1,36.2-8.574a4.106,4.106,0,0,1,.635-.049h.137a.347.347,0,0,0,.161-.029.365.365,0,0,0,.083-.059,1.231,1.231,0,0,0,.2-.82v-.547a1.908,1.908,0,0,1-.43.107h-.107a3.627,3.627,0,0,0-2.881,1.719l-.371.488v-1.4a1.909,1.909,0,0,0-.039-.439ZM42.715-1.182q-1.592,0-2.061-.9a1.761,1.761,0,0,1-.2-.85,1.364,1.364,0,0,1,.4-1.006,3.891,3.891,0,0,1,2.734-.723h2.314v1.9q-.146.166-.254.273a4.75,4.75,0,0,1-1.221.879A3.763,3.763,0,0,1,42.715-1.182Zm4.561.84a1.692,1.692,0,0,0,.039-.439V-6.309a3.875,3.875,0,0,0-.43-1.826,3.208,3.208,0,0,0-1.27-1.318,4.371,4.371,0,0,0-2.2-.518,8.329,8.329,0,0,0-3.3.684.79.79,0,0,0-.244.156.567.567,0,0,0-.156.42.526.526,0,0,0,.161.386.543.543,0,0,0,.366.171l.215-.029a9.227,9.227,0,0,1,1.748-.43,7.793,7.793,0,0,1,.9-.049,2.972,2.972,0,0,1,2.168.674,2.63,2.63,0,0,1,.635,1.934v.342H43.359a5.564,5.564,0,0,0-3.213.791,2.519,2.519,0,0,0-1.094,2.188,2.669,2.669,0,0,0,.4,1.455,2.525,2.525,0,0,0,1.1.957,3.488,3.488,0,0,0,1.5.332A4.637,4.637,0,0,0,45.557-1.4l.352-.361v.977a1.909,1.909,0,0,0,.039.439Zm3.516-12.93a1.692,1.692,0,0,0-.039.439v11.6a1,1,0,0,0,.313.732,1,1,0,0,0,.732.313H58.73a.317.317,0,0,0,.234-.088.7.7,0,0,0,.146-.312,2.292,2.292,0,0,0,.059-.566V-1.7a.972.972,0,0,1-.439.107H52.6a.435.435,0,0,1-.322-.117.435.435,0,0,1-.117-.322v-10.8a1.909,1.909,0,0,0-.039-.439ZM61.689-9.6a1.692,1.692,0,0,0-.039.439V-.781a.667.667,0,0,0,.205.488.667.667,0,0,0,.488.205.686.686,0,0,0,.5-.21.664.664,0,0,0,.21-.483V-9.16a1.909,1.909,0,0,0-.039-.439Zm.615-2.578h.117a.777.777,0,0,0,.566-.244.777.777,0,0,0,.244-.566v-.078a.777.777,0,0,0-.244-.566.777.777,0,0,0-.566-.244H62.3a.777.777,0,0,0-.566.244.777.777,0,0,0-.244.566v.078a.777.777,0,0,0,.244.566A.777.777,0,0,0,62.3-12.178ZM70.82-1.436a3.445,3.445,0,0,1-2.549-.957,3.631,3.631,0,0,1-.957-2.686,3.631,3.631,0,0,1,.957-2.686,3.445,3.445,0,0,1,2.549-.957,3.561,3.561,0,0,1,1.65.381,6.1,6.1,0,0,1,1.445,1.1l.059.059v4.2a6.327,6.327,0,0,1-1.514,1.162A3.5,3.5,0,0,1,70.82-1.436ZM74.014-9.6a1.692,1.692,0,0,0-.039.439v.947q-.42-.439-.479-.508a4.146,4.146,0,0,0-3.047-1.25,4.534,4.534,0,0,0-2.178.557,4.5,4.5,0,0,0-1.689,1.631,5.1,5.1,0,0,0-.674,2.676,5.171,5.171,0,0,0,.654,2.666,4.469,4.469,0,0,0,.737.957,4.352,4.352,0,0,0,1.021.742,4.332,4.332,0,0,0,2.129.557,4.177,4.177,0,0,0,3.174-1.377l.352-.381V-.176a3.491,3.491,0,0,1-.85,2.568,3.148,3.148,0,0,1-2.324.8,7.437,7.437,0,0,1-3.3-.762.754.754,0,0,0-.244-.059.823.823,0,0,0-.142.01.531.531,0,0,0-.1.029.7.7,0,0,0-.205.146.629.629,0,0,0-.176.43.585.585,0,0,0,.273.527,7.757,7.757,0,0,0,1.87.7,8.96,8.96,0,0,0,2.2.288,4.125,4.125,0,0,0,3.262-1.27A5.32,5.32,0,0,0,75.381-.43V-9.16a1.91,1.91,0,0,0-.039-.439Zm4.863-4.3a1.692,1.692,0,0,0-.039.439V-.781a.667.667,0,0,0,.205.488.667.667,0,0,0,.488.205.686.686,0,0,0,.5-.21.664.664,0,0,0,.21-.483V-6.709a6.665,6.665,0,0,1,1.6-1.5A3.308,3.308,0,0,1,83.633-8.7a2.285,2.285,0,0,1,1.689.6,2.685,2.685,0,0,1,.645,1.973V-.781a1.91,1.91,0,0,0,.039.439h1.328a1.692,1.692,0,0,0,.039-.439V-6.328a4.118,4.118,0,0,0-.537-2.119,3.034,3.034,0,0,0-.986-1.045,3.32,3.32,0,0,0-1.787-.479,3.9,3.9,0,0,0-1.855.43A6.082,6.082,0,0,0,80.6-8.281l-.352.381v-5.557a1.91,1.91,0,0,0-.039-.439Zm12.246,2.188a1.692,1.692,0,0,0-.039.439v1.592H89.9a.35.35,0,0,0-.273.1.849.849,0,0,0-.166.615v.547a.972.972,0,0,1,.439-.107h1.182v6.143A2.358,2.358,0,0,0,91.67-.645,2.846,2.846,0,0,0,93.75.01a3.629,3.629,0,0,0,1.533-.332A.638.638,0,0,0,95.615-.7a.508.508,0,0,0,.02-.156.476.476,0,0,0-.156-.342.5.5,0,0,0-.361-.156,1.32,1.32,0,0,0-.254.029.557.557,0,0,1-.1.029,2.84,2.84,0,0,1-.82.117,1.773,1.773,0,0,1-1.064-.273,1.281,1.281,0,0,1-.391-1.084V-8.525h2.393a.35.35,0,0,0,.273-.1.849.849,0,0,0,.166-.615v-.547a.972.972,0,0,1-.439.107H92.49V-11.27a1.91,1.91,0,0,0-.039-.439Z" transform="translate(390 871)" fill="#fff"/>
    <path id="路径_6979" data-name="路径 6979" d="M2.061-13.34a1.69,1.69,0,0,0-.049.508v11.6a1.069,1.069,0,0,0,.332.781,1.069,1.069,0,0,0,.781.332h6.934a.383.383,0,0,0,.283-.107,1.358,1.358,0,0,0,.225-.928v-.664a.929.929,0,0,1-.508.156H3.926a.37.37,0,0,1-.273-.1.37.37,0,0,1-.1-.273v-10.8a1.69,1.69,0,0,0-.049-.508Zm10.9,3.672a1.69,1.69,0,0,0-.049.508V-.781a.733.733,0,0,0,.225.537.754.754,0,0,0,.537.225.752.752,0,0,0,.552-.229.73.73,0,0,0,.229-.532V-9.16a1.69,1.69,0,0,0-.049-.508Zm.674-2.441h.117a.843.843,0,0,0,.615-.264.843.843,0,0,0,.264-.615v-.078a.843.843,0,0,0-.264-.615.843.843,0,0,0-.615-.264h-.117a.843.843,0,0,0-.615.264.843.843,0,0,0-.264.615v.078a.843.843,0,0,0,.264.615A.843.843,0,0,0,13.633-12.109ZM22.148-1.5a3.379,3.379,0,0,1-2.5-.937,3.565,3.565,0,0,1-.937-2.637,3.565,3.565,0,0,1,.938-2.637,3.379,3.379,0,0,1,2.5-.937,3.4,3.4,0,0,1,1.611.381A6.074,6.074,0,0,1,25.2-7.187l.039.039v4.141l-.039.039a6.146,6.146,0,0,1-1.44,1.089A3.409,3.409,0,0,1,22.148-1.5Zm3.135-8.164a1.69,1.69,0,0,0-.049.508v.781q-.3-.322-.361-.391a4.212,4.212,0,0,0-3.1-1.27,4.6,4.6,0,0,0-2.207.566,4.473,4.473,0,0,0-.991.732,4.775,4.775,0,0,0-.728.918,5.19,5.19,0,0,0-.684,2.715A5.257,5.257,0,0,0,17.832-2.4a4.984,4.984,0,0,0,.747.967,4.08,4.08,0,0,0,1.04.752,4.4,4.4,0,0,0,2.158.566A4.229,4.229,0,0,0,25-1.523l.234-.254v1.6a3.072,3.072,0,0,1-1.27,2.861,3.485,3.485,0,0,1-1.836.439,7.434,7.434,0,0,1-3.281-.752.785.785,0,0,0-.293-.068.618.618,0,0,0-.469.21.678.678,0,0,0-.2.474.651.651,0,0,0,.3.586,7.533,7.533,0,0,0,1.885.7A9.026,9.026,0,0,0,22.3,4.57a4.213,4.213,0,0,0,3.32-1.294A5.394,5.394,0,0,0,26.777-.43V-9.16a1.69,1.69,0,0,0-.049-.508Zm4.863-4.3a1.69,1.69,0,0,0-.049.508V-.781a.733.733,0,0,0,.225.537.754.754,0,0,0,.537.225.752.752,0,0,0,.552-.229.73.73,0,0,0,.229-.532V-6.689q.322-.391.605-.684a5.851,5.851,0,0,1,.957-.771,3.248,3.248,0,0,1,1.758-.488,2.029,2.029,0,0,1,1.914.938,3.052,3.052,0,0,1,.352,1.563V-.781a1.69,1.69,0,0,0,.049.508h1.445a1.69,1.69,0,0,0,.049-.508V-6.328a4.3,4.3,0,0,0-.41-1.895,3.2,3.2,0,0,0-1.143-1.328,3.433,3.433,0,0,0-1.841-.488,4.029,4.029,0,0,0-1.88.43A6.236,6.236,0,0,0,31.875-8.32l-.234.254v-5.391a1.69,1.69,0,0,0-.049-.508Zm12.246,2.188a1.69,1.69,0,0,0-.049.508v1.523H41.23a.435.435,0,0,0-.322.117.931.931,0,0,0-.186.664V-8.3a.929.929,0,0,1,.508-.156h1.113v6.074A2.424,2.424,0,0,0,42.949-.6a2.91,2.91,0,0,0,2.129.674,3.65,3.65,0,0,0,1.563-.342.646.646,0,0,0,.391-.576.562.562,0,0,0-.176-.41.562.562,0,0,0-.41-.176,1.509,1.509,0,0,0-.273.029.349.349,0,0,1-.088.029,2.659,2.659,0,0,1-.767.117,2.464,2.464,0,0,1-.63-.068.993.993,0,0,1-.508-.264,1.3,1.3,0,0,1-.293-.957V-8.457h2.324a.435.435,0,0,0,.322-.117.931.931,0,0,0,.186-.664V-9.9a.929.929,0,0,1-.508.156H43.887V-11.27a1.69,1.69,0,0,0-.049-.508Z" transform="translate(502 871)" fill="#fff"/>
    <path id="路径_6980" data-name="路径 6980" d="M10.137-6.133A2.806,2.806,0,0,1,11.973-4.5a6.808,6.808,0,0,1,.566,2.822v.9q0,.645-.156.645h-1.5q-.156,0-.156-.645v-.586a8.865,8.865,0,0,0-.176-1.816A2.673,2.673,0,0,0,9.658-4.7a2.891,2.891,0,0,0-1.943-.6H3.691V-.781q0,.645-.156.645h-1.5q-.156,0-.156-.645V-12.734a.9.9,0,0,1,.264-.645.85.85,0,0,1,.635-.273H7.324a6.274,6.274,0,0,1,3.955,1.084,3.5,3.5,0,0,1,1.377,2.9A3.719,3.719,0,0,1,12-7.52,3.668,3.668,0,0,1,10.137-6.133Zm-2.93-.879a4.6,4.6,0,0,0,2.666-.674,2.132,2.132,0,0,0,.967-1.846,2.042,2.042,0,0,0-.869-1.807,5.219,5.219,0,0,0-2.861-.6H3.926a.207.207,0,0,0-.234.234v4.688ZM19.9.215a4.994,4.994,0,0,1-3.74-1.367A5.242,5.242,0,0,1,14.824-4.98a6.644,6.644,0,0,1,.508-2.559,4.255,4.255,0,0,1,1.6-1.934,4.6,4.6,0,0,1,2.578-.7,4.694,4.694,0,0,1,2.52.664,4.526,4.526,0,0,1,1.582,1.787,5.451,5.451,0,0,1,.566,2.49.882.882,0,0,1-.254.635.88.88,0,0,1-.664.264h-6.6a3.167,3.167,0,0,0,1.045,2.119,3.536,3.536,0,0,0,2.354.732,6.051,6.051,0,0,0,1.4-.146A5.757,5.757,0,0,0,22.7-2.09a.7.7,0,0,1,.352-.078.8.8,0,0,1,.557.225.726.726,0,0,1,.244.557.855.855,0,0,1-.527.742A7.364,7.364,0,0,1,21.758.01,7.093,7.093,0,0,1,19.9.215ZM22.129-5.82a.207.207,0,0,0,.234-.254,2.585,2.585,0,0,0-.469-1.309A2.764,2.764,0,0,0,20.83-8.32a2.95,2.95,0,0,0-1.318-.312A3.32,3.32,0,0,0,18.2-8.34a2.557,2.557,0,0,0-1.084.986A3.313,3.313,0,0,0,16.66-5.82ZM31.152,4.707A9.214,9.214,0,0,1,28.9,4.414a7.841,7.841,0,0,1-1.924-.723.777.777,0,0,1-.371-.7.815.815,0,0,1,.234-.566.743.743,0,0,1,.566-.254.96.96,0,0,1,.352.078,7.265,7.265,0,0,0,3.223.742q2.969,0,2.969-3.164v-1.25A4.361,4.361,0,0,1,30.625.02,4.518,4.518,0,0,1,28.4-.566a4.563,4.563,0,0,1-1.836-1.768,5.315,5.315,0,0,1-.684-2.744,5.368,5.368,0,0,1,.7-2.812,4.652,4.652,0,0,1,1.768-1.7,4.719,4.719,0,0,1,2.275-.586,4.361,4.361,0,0,1,3.32,1.445v-.43q0-.645.156-.645h1.5q.156,0,.156.645V-.43a5.524,5.524,0,0,1-1.191,3.8A4.337,4.337,0,0,1,31.152,4.707ZM31-1.641A3.309,3.309,0,0,0,32.549-2a5.809,5.809,0,0,0,1.4-1.064V-7.09a5.809,5.809,0,0,0-1.4-1.064A3.309,3.309,0,0,0,31-8.516a3.247,3.247,0,0,0-2.4.9,3.434,3.434,0,0,0-.9,2.539,3.434,3.434,0,0,0,.9,2.539A3.247,3.247,0,0,0,31-1.641ZM42.227.215a3.489,3.489,0,0,1-1.875-.508A3.393,3.393,0,0,1,39.141-1.68a4.387,4.387,0,0,1-.43-1.953V-9.18q0-.645.156-.645h1.5q.156,0,.156.645v5.352q0,2.363,2.129,2.363a3.128,3.128,0,0,0,1.689-.469A6.2,6.2,0,0,0,45.84-3.32V-9.18q0-.645.156-.645h1.5q.156,0,.156.645V-.8q0,.645-.156.645H46q-.156,0-.156-.645v-.742A6.264,6.264,0,0,1,44.18-.234,4.153,4.153,0,0,1,42.227.215ZM51.6.117a.865.865,0,0,1-.635-.264A.865.865,0,0,1,50.7-.781V-13.457q0-.645.156-.645h1.5q.156,0,.156.645V-.781a.85.85,0,0,1-.273.635A.9.9,0,0,1,51.6.117Zm6.523.1a3.649,3.649,0,0,1-1.582-.352,2.717,2.717,0,0,1-1.191-1.035,2.874,2.874,0,0,1-.43-1.562A2.707,2.707,0,0,1,56.1-5.088a5.734,5.734,0,0,1,3.33-.83h2.344v-.137a2.4,2.4,0,0,0-.615-1.826,2.84,2.84,0,0,0-1.982-.576,6.843,6.843,0,0,0-1.27.107,10.456,10.456,0,0,0-1.328.361l-.254.039a.711.711,0,0,1-.518-.225.733.733,0,0,1-.225-.537.767.767,0,0,1,.527-.762,8.5,8.5,0,0,1,3.379-.7,4.573,4.573,0,0,1,2.3.547,3.428,3.428,0,0,1,1.348,1.4,4.127,4.127,0,0,1,.449,1.924V-.781q0,.645-.156.645h-1.5q-.156,0-.156-.645V-1.25A4.836,4.836,0,0,1,58.125.215Zm.664-1.6a3.57,3.57,0,0,0,1.631-.4,4.481,4.481,0,0,0,1.357-1.045V-4.453H59.668q-2.93,0-2.93,1.523Q56.738-1.387,58.789-1.387Zm8.652,1.5a.865.865,0,0,1-.635-.264.865.865,0,0,1-.264-.635V-9.16q0-.645.156-.645h1.5q.156,0,.156.645v.781a3.816,3.816,0,0,1,3.047-1.8h.1a.916.916,0,0,0,.645-.312v.957q0,1.113-.645,1.113h-.137a3.354,3.354,0,0,0-1.689.439,3.913,3.913,0,0,0-1.318,1.26V-.781a.85.85,0,0,1-.273.635A.9.9,0,0,1,67.441.117Z" transform="translate(566 871)" fill="#fff"/>
    <path id="路径_6981" data-name="路径 6981" d="M1.768-.781v-11.66a1.364,1.364,0,0,1,.415-1,1.342,1.342,0,0,1,.981-.415h.645a1.339,1.339,0,0,1,.762.244,1.526,1.526,0,0,1,.547.664L9.375-2.324q.029.068.059.068t.059-.068L13.75-12.959a1.537,1.537,0,0,1,.547-.654,1.339,1.339,0,0,1,.762-.244H15.7a1.322,1.322,0,0,1,.986.425,1.382,1.382,0,0,1,.41.991V-.781a1.861,1.861,0,0,1-.068.605.3.3,0,0,1-.068.1.172.172,0,0,1-.127.049h-1.5A.181.181,0,0,1,15.2-.093a.408.408,0,0,1-.088-.181,2.775,2.775,0,0,1-.039-.508V-11.094a.216.216,0,0,0-.01-.068.111.111,0,0,0-.039.059L10.8-.684a1.437,1.437,0,0,1-.547.654,1.451,1.451,0,0,1-.82.254,1.451,1.451,0,0,1-.82-.254,1.437,1.437,0,0,1-.547-.654L3.848-11.1l-.029-.049-.01-.01-.01.068V-.781a.947.947,0,0,1-.308.713,1.014,1.014,0,0,1-.723.293.965.965,0,0,1-.708-.293A.97.97,0,0,1,1.768-.781ZM26.816-5.928a.151.151,0,0,0,.1-.024.086.086,0,0,0,.024-.063v-.049a2.538,2.538,0,0,0-.449-1.26,2.658,2.658,0,0,0-1.025-.9,2.794,2.794,0,0,0-1.245-.3,3.218,3.218,0,0,0-1.284.283,2.528,2.528,0,0,0-1.045.947,3.077,3.077,0,0,0-.43,1.367ZM19.4-4.98a6.726,6.726,0,0,1,.518-2.6A4.37,4.37,0,0,1,20.869-9a4.5,4.5,0,0,1,3.33-1.279,4.8,4.8,0,0,1,2.578.684,4.387,4.387,0,0,1,.732.6,4.879,4.879,0,0,1,.889,1.23,5.558,5.558,0,0,1,.576,2.539.974.974,0,0,1-.288.718,1,1,0,0,1-.737.288H21.475a2.986,2.986,0,0,0,.986,1.934,3.449,3.449,0,0,0,2.285.7,6.007,6.007,0,0,0,1.372-.142,5.45,5.45,0,0,0,1.216-.454.735.735,0,0,1,.366-.088.908.908,0,0,1,.366.068.826.826,0,0,1,.322.215.8.8,0,0,1,.254.6.974.974,0,0,1-.586.85,7.924,7.924,0,0,1-1.582.664A7.3,7.3,0,0,1,24.59.322a5.089,5.089,0,0,1-3.818-1.4A5.35,5.35,0,0,1,19.4-4.98ZM35.566-8.369a2.918,2.918,0,0,0-2.256.889,3.571,3.571,0,0,0-.82,2.5A3.467,3.467,0,0,0,33.4-2.4a2.91,2.91,0,0,0,2.168.811,3.576,3.576,0,0,0,1.6-.381,4.9,4.9,0,0,0,1.357-1V-6.992a4.932,4.932,0,0,0-1.367-1A3.553,3.553,0,0,0,35.566-8.369ZM31.133-2.178A5.78,5.78,0,0,1,30.459-5a5.541,5.541,0,0,1,.693-2.8,4.85,4.85,0,0,1,1.782-1.841,4.645,4.645,0,0,1,2.378-.64,4.5,4.5,0,0,1,3.213,1.318v-4.492a1.861,1.861,0,0,1,.068-.605.3.3,0,0,1,.068-.1.172.172,0,0,1,.127-.049h1.5a.181.181,0,0,1,.137.063.408.408,0,0,1,.088.181,2.775,2.775,0,0,1,.039.508V-.781q0,.566-.137.693a.157.157,0,0,1-.127.059h-1.5a.187.187,0,0,1-.137-.059,1.145,1.145,0,0,1-.127-.693V-1A4.5,4.5,0,0,1,35.313.322a4.645,4.645,0,0,1-2.334-.635A4.711,4.711,0,0,1,31.133-2.178Zm12.256,1.4V-9.16q0-.566.137-.693a.157.157,0,0,1,.127-.059h1.5a.187.187,0,0,1,.137.059,1.145,1.145,0,0,1,.127.693V-.781a.947.947,0,0,1-.308.713,1.014,1.014,0,0,1-.723.293.965.965,0,0,1-.708-.293A.97.97,0,0,1,43.389-.781Zm-.156-12.207v-.078a1.08,1.08,0,0,1,.332-.791,1.08,1.08,0,0,1,.791-.332h.117a1.08,1.08,0,0,1,.791.332,1.08,1.08,0,0,1,.332.791v.078a1.08,1.08,0,0,1-.332.791,1.08,1.08,0,0,1-.791.332h-.117a1.08,1.08,0,0,1-.791-.332A1.08,1.08,0,0,1,43.232-12.988Zm4.922,9.355V-9.18q0-.566.137-.693a.157.157,0,0,1,.127-.059h1.5a.172.172,0,0,1,.127.049.283.283,0,0,1,.068.1,1.354,1.354,0,0,1,.039.132,2.865,2.865,0,0,1,.029.469v5.352a2.4,2.4,0,0,0,.557,1.758,1.986,1.986,0,0,0,1.465.5,3,3,0,0,0,1.631-.454,6.2,6.2,0,0,0,1.445-1.333V-9.18a1.42,1.42,0,0,1,.1-.654.184.184,0,0,1,.166-.1h1.5a.181.181,0,0,1,.137.063.408.408,0,0,1,.088.181,2.775,2.775,0,0,1,.039.508V-.8q0,.566-.137.693a.157.157,0,0,1-.127.059h-1.5a.187.187,0,0,1-.137-.059A1.145,1.145,0,0,1,55.283-.8v-.479a6.134,6.134,0,0,1-1.5,1.143A4.218,4.218,0,0,1,51.8.322a3.627,3.627,0,0,1-1.953-.527,3.239,3.239,0,0,1-.557-.449,3.636,3.636,0,0,1-.693-.977A4.5,4.5,0,0,1,48.154-3.633ZM68.379-8.408a4.027,4.027,0,0,1,3.574-1.875,3.11,3.11,0,0,1,1.924.566,3.411,3.411,0,0,1,1.094,1.431,4.806,4.806,0,0,1,.371,1.88V-.781a1.861,1.861,0,0,1-.068.605.3.3,0,0,1-.068.1.172.172,0,0,1-.127.049h-1.5a.181.181,0,0,1-.137-.063.408.408,0,0,1-.088-.181,2.775,2.775,0,0,1-.039-.508V-6.055a2.671,2.671,0,0,0-.518-1.895,1.835,1.835,0,0,0-1.348-.439,2.46,2.46,0,0,0-1.514.459A4.813,4.813,0,0,0,68.76-6.611v5.83q0,.566-.137.693a.157.157,0,0,1-.127.059h-1.5a.187.187,0,0,1-.137-.059,1.145,1.145,0,0,1-.127-.693V-6.055a2.671,2.671,0,0,0-.518-1.895,1.835,1.835,0,0,0-1.348-.439,2.46,2.46,0,0,0-1.514.459,4.813,4.813,0,0,0-1.172,1.318v5.83a1.861,1.861,0,0,1-.068.605.3.3,0,0,1-.068.1.172.172,0,0,1-.127.049h-1.5a.187.187,0,0,1-.137-.059,1.145,1.145,0,0,1-.127-.693V-9.16q0-.566.137-.693a.157.157,0,0,1,.127-.059h1.5a.187.187,0,0,1,.137.059,1.145,1.145,0,0,1,.127.693v.41A4.522,4.522,0,0,1,63.4-9.8a3.817,3.817,0,0,1,1.973-.479,3.237,3.237,0,0,1,2.148.762A3.127,3.127,0,0,1,68.379-8.408Z" transform="translate(655 873)" fill="#fff"/>
    <path id="路径_6982" data-name="路径 6982" d="M.8-1.543a1,1,0,0,1,.3-.732A.943.943,0,0,1,1.8-2.559a.992.992,0,0,1,.449.1,9.253,9.253,0,0,0,3.765.781A3.861,3.861,0,0,0,8.76-2.441,1.742,1.742,0,0,0,9.238-3.73a1.049,1.049,0,0,0-.371-.83,2.811,2.811,0,0,0-.933-.552q-.562-.21-1.9-.562a21.223,21.223,0,0,1-2.588-.8A4.052,4.052,0,0,1,1.582-7.793,3.29,3.29,0,0,1,.938-9.824a3.983,3.983,0,0,1,.615-2.148A4.013,4.013,0,0,1,3.408-13.5a6.957,6.957,0,0,1,2.783-.527,11.3,11.3,0,0,1,3.945.654.971.971,0,0,1,.615.576.952.952,0,0,1,.068.347,1.208,1.208,0,0,1-.029.288,1.114,1.114,0,0,1-.293.5.893.893,0,0,1-.654.273.973.973,0,0,1-.381-.088,9.277,9.277,0,0,0-3.076-.518,4.6,4.6,0,0,0-2.422.557,1.66,1.66,0,0,0-.859,1.475,1.247,1.247,0,0,0,.41.986,3.028,3.028,0,0,0,1.025.625,12.78,12.78,0,0,0,1.9.537q.762.186,1.426.381t1.1.371a3.924,3.924,0,0,1,1.743,1.274,3.444,3.444,0,0,1,.669,2.173,3.538,3.538,0,0,1-.654,2.07,3.218,3.218,0,0,1-.42.488A4.377,4.377,0,0,1,8.867-.1,6.905,6.905,0,0,1,6.191.391,11.786,11.786,0,0,1,1.475-.557,1.081,1.081,0,0,1,1-.957.989.989,0,0,1,.8-1.543ZM20.313-6.006v-.049a2.386,2.386,0,0,0-.439-1.23,2.572,2.572,0,0,0-1-.879,2.717,2.717,0,0,0-1.211-.293,3.283,3.283,0,0,0-1.27.273,2.4,2.4,0,0,0-1.006.918A3.044,3.044,0,0,0,14.98-6h5.273A.136.136,0,0,0,20.313-6.006Zm-7.52,1.572q-.02-.264-.02-.405V-4.98A7.008,7.008,0,0,1,12.9-6.318a4.874,4.874,0,0,1,2.061-3.3,4.789,4.789,0,0,1,2.676-.732,4.88,4.88,0,0,1,2.617.693A4.718,4.718,0,0,1,21.895-7.8a5.623,5.623,0,0,1,.586,2.568,1.037,1.037,0,0,1-.312.762,1.06,1.06,0,0,1-.781.313h-6.4a2.867,2.867,0,0,0,.957,1.807,3.355,3.355,0,0,0,2.236.693,6.026,6.026,0,0,0,1.411-.156,4.623,4.623,0,0,0,1.147-.43.874.874,0,0,1,.43-.1.944.944,0,0,1,.7.3.861.861,0,0,1,.273.645,1.022,1.022,0,0,1-.615.908,7.514,7.514,0,0,1-1.606.669,7.308,7.308,0,0,1-1.9.21A5.165,5.165,0,0,1,14.16-1.025,5.162,5.162,0,0,1,12.793-4.434ZM32.744-8.545a4.076,4.076,0,0,1,3.564-1.807,3.154,3.154,0,0,1,1.963.586,3.444,3.444,0,0,1,1.118,1.45,4.872,4.872,0,0,1,.376,1.909V-.781a1.528,1.528,0,0,1-.1.664.279.279,0,0,1-.137.137.261.261,0,0,1-.1.02h-1.5a.253.253,0,0,1-.186-.078A.492.492,0,0,1,37.632-.3,2.714,2.714,0,0,1,37.6-.781V-6.055A2.589,2.589,0,0,0,37.1-7.9a1.75,1.75,0,0,0-1.3-.42,2.416,2.416,0,0,0-1.475.439,4.8,4.8,0,0,0-1.143,1.289V-.781a2.307,2.307,0,0,1-.039.479.524.524,0,0,1-.117.264.223.223,0,0,1-.176.078h-1.5a.253.253,0,0,1-.186-.078A.492.492,0,0,1,31.05-.3a2.713,2.713,0,0,1-.034-.483V-6.055a2.589,2.589,0,0,0-.5-1.846,1.742,1.742,0,0,0-1.294-.42,2.424,2.424,0,0,0-1.479.439A4.8,4.8,0,0,0,26.6-6.592V-.781a2.458,2.458,0,0,1-.039.488q-.049.283-.244.322a.109.109,0,0,1-.049.01h-1.5a.253.253,0,0,1-.186-.078A.492.492,0,0,1,24.468-.3a2.713,2.713,0,0,1-.034-.483V-9.16a2.713,2.713,0,0,1,.034-.483A.492.492,0,0,1,24.58-9.9a.253.253,0,0,1,.186-.078h1.5a.253.253,0,0,1,.186.078.492.492,0,0,1,.112.259,2.713,2.713,0,0,1,.034.483v.225a4.605,4.605,0,0,1,1.123-.937,3.912,3.912,0,0,1,2-.479,3.277,3.277,0,0,1,2.412.977A3.273,3.273,0,0,1,32.744-8.545ZM42.363-.781V-9.16a2.714,2.714,0,0,1,.034-.483A.492.492,0,0,1,42.51-9.9.253.253,0,0,1,42.7-9.98h1.5a.253.253,0,0,1,.186.078.492.492,0,0,1,.112.259,2.714,2.714,0,0,1,.034.483V-.781a1.035,1.035,0,0,1-.4.83,1.074,1.074,0,0,1-.693.244,1.033,1.033,0,0,1-.757-.317A1.033,1.033,0,0,1,42.363-.781Zm-.156-12.207v-.078a1.143,1.143,0,0,1,.356-.835,1.143,1.143,0,0,1,.835-.356h.117a1.143,1.143,0,0,1,.835.356,1.143,1.143,0,0,1,.356.835v.078a1.143,1.143,0,0,1-.356.835,1.143,1.143,0,0,1-.835.356H43.4a1.143,1.143,0,0,1-.835-.356A1.143,1.143,0,0,1,42.207-12.988ZM55.752-2.383a1.7,1.7,0,0,0,.732-1.5,1.709,1.709,0,0,0-.479-1.279,3.887,3.887,0,0,0-2.783-.771H49.746v4.023a.077.077,0,0,0,.01.049.077.077,0,0,0,.049.01h3.4A4.665,4.665,0,0,0,55.752-2.383Zm-.01-7.578a1.52,1.52,0,0,0-.674-1.309,3.294,3.294,0,0,0-1.943-.508H49.8a.077.077,0,0,0-.049.01.077.077,0,0,0-.01.049V-7.93h3.047a3.859,3.859,0,0,0,2.295-.518A1.8,1.8,0,0,0,55.742-9.961ZM47.578-.879V-12.734a1.053,1.053,0,0,1,.322-.771,1.031,1.031,0,0,1,.752-.322h4.609a4.918,4.918,0,0,1,3.613,1.23,3.4,3.4,0,0,1,.957,2.5,3.379,3.379,0,0,1-.967,2.48,3.541,3.541,0,0,1-.654.5,4.174,4.174,0,0,1,1.631,1.133,3.205,3.205,0,0,1,.752,2.158,3.5,3.5,0,0,1-1.66,3.223,6.749,6.749,0,0,1-3.555.8H48.652A1.033,1.033,0,0,1,47.9-.122,1.033,1.033,0,0,1,47.578-.879ZM62.227-4.99a5.4,5.4,0,0,0,.049.742,2.934,2.934,0,0,0,.4,1.172A2.683,2.683,0,0,0,63.75-1.987a3.1,3.1,0,0,0,1.5.366,3.236,3.236,0,0,0,1.465-.352,2.714,2.714,0,0,0,1.133-1.133A3.845,3.845,0,0,0,68.281-5a3.633,3.633,0,0,0-.439-1.9,3.364,3.364,0,0,0-.469-.605,2.8,2.8,0,0,0-1.328-.742,3.425,3.425,0,0,0-.791-.088,3.391,3.391,0,0,0-1.465.332,2.727,2.727,0,0,0-1.133,1.123A3.811,3.811,0,0,0,62.227-4.99ZM60.7-7.773a4.617,4.617,0,0,1,1.836-1.909,5.415,5.415,0,0,1,2.715-.669,5.392,5.392,0,0,1,2.705.664A4.775,4.775,0,0,1,69.8-7.764a5.881,5.881,0,0,1,.645,2.788A5.765,5.765,0,0,1,69.8-2.207,4.714,4.714,0,0,1,67.949-.278a5.415,5.415,0,0,1-2.715.669,5.392,5.392,0,0,1-2.705-.664A4.717,4.717,0,0,1,60.7-2.207a5.907,5.907,0,0,1-.645-2.783A5.907,5.907,0,0,1,60.7-7.773ZM72.539-.781V-13.457a2.689,2.689,0,0,1,.024-.435,1.191,1.191,0,0,1,.049-.2.373.373,0,0,1,.088-.127.231.231,0,0,1,.171-.063h1.5a.26.26,0,0,1,.225.137,1.392,1.392,0,0,1,.107.684V-.781a1.035,1.035,0,0,1-.4.83,1.074,1.074,0,0,1-.693.244,1.033,1.033,0,0,1-.757-.317A1.033,1.033,0,0,1,72.539-.781ZM81.973-8.3a2.844,2.844,0,0,0-2.207.874,3.488,3.488,0,0,0-.8,2.446,3.435,3.435,0,0,0,.889,2.539,2.863,2.863,0,0,0,2.119.781,3.782,3.782,0,0,0,2.236-.771A5.907,5.907,0,0,0,84.863-3V-6.963a4.781,4.781,0,0,0-1.328-.972A3.487,3.487,0,0,0,81.973-8.3Zm-.254-2.051a4.56,4.56,0,0,1,3.145,1.221v-4.326a1.528,1.528,0,0,1,.1-.664.25.25,0,0,1,.234-.156h1.5a.253.253,0,0,1,.186.078A.492.492,0,0,1,87-13.94a2.713,2.713,0,0,1,.034.483V-.781a2.689,2.689,0,0,1-.024.435,1.191,1.191,0,0,1-.049.2.373.373,0,0,1-.088.127A.231.231,0,0,1,86.7.039H85.2A.26.26,0,0,1,84.971-.1a1.392,1.392,0,0,1-.107-.684V-.83A4.56,4.56,0,0,1,81.719.391a4.731,4.731,0,0,1-2.373-.645A4.792,4.792,0,0,1,77.48-2.148,5.769,5.769,0,0,1,76.8-4.98a5.667,5.667,0,0,1,.7-2.861A4.94,4.94,0,0,1,79.307-9.7,4.7,4.7,0,0,1,81.719-10.352Z" transform="translate(748 873)" fill="#fff"/>
  </g>
</svg>
