<svg xmlns="http://www.w3.org/2000/svg" xmlns:xlink="http://www.w3.org/1999/xlink" width="868" height="132" viewBox="0 0 868 132">
  <defs>
    <filter id="路径_6820" x="46.08" y="49.094" width="98.416" height="35.498" filterUnits="userSpaceOnUse">
      <feOffset dx="1" dy="1" input="SourceAlpha"/>
      <feGaussianBlur stdDeviation="1" result="blur"/>
      <feFlood flood-color="#fff" flood-opacity="0.361"/>
      <feComposite operator="in" in2="blur"/>
      <feComposite in="SourceGraphic"/>
    </filter>
    <filter id="路径_6821" x="257.688" y="48.992" width="129.936" height="35.568" filterUnits="userSpaceOnUse">
      <feOffset dx="1" dy="1" input="SourceAlpha"/>
      <feGaussianBlur stdDeviation="1" result="blur-2"/>
      <feFlood flood-color="#fff" flood-opacity="0.361"/>
      <feComposite operator="in" in2="blur-2"/>
      <feComposite in="SourceGraphic"/>
    </filter>
    <filter id="路径_6822" x="500.938" y="49.594" width="97.344" height="34.438" filterUnits="userSpaceOnUse">
      <feOffset dx="1" dy="1" input="SourceAlpha"/>
      <feGaussianBlur stdDeviation="1" result="blur-3"/>
      <feFlood flood-color="#fff" flood-opacity="0.361"/>
      <feComposite operator="in" in2="blur-3"/>
      <feComposite in="SourceGraphic"/>
    </filter>
    <filter id="路径_6823" x="729.222" y="51.16" width="95.747" height="34.588" filterUnits="userSpaceOnUse">
      <feOffset dx="1" dy="1" input="SourceAlpha"/>
      <feGaussianBlur stdDeviation="1" result="blur-4"/>
      <feFlood flood-color="#fff" flood-opacity="0.361"/>
      <feComposite operator="in" in2="blur-4"/>
      <feComposite in="SourceGraphic"/>
    </filter>
  </defs>
  <g id="fontstyle" transform="translate(-174 -2031)">
    <path id="路径_6809" data-name="路径 6809" d="M0,0H187V20H0Z" transform="translate(174 2143)" fill="#51b5db"/>
    <path id="路径_6810" data-name="路径 6810" d="M0,0H187V92H0Z" transform="translate(174 2051)" fill="#313740"/>
    <path id="路径_6811" data-name="路径 6811" d="M0,0H187V20H0Z" transform="translate(628 2143)" fill="#48d7dd"/>
    <path id="路径_6812" data-name="路径 6812" d="M0,0H187V20H0Z" transform="translate(628 2031)" fill="#48d7dd"/>
    <path id="路径_6813" data-name="路径 6813" d="M0,0H187V92H0Z" transform="translate(628 2051)" fill="#313740"/>
    <path id="路径_6814" data-name="路径 6814" d="M0,0H187V20H0Z" transform="translate(855 2143)" fill="#febd17"/>
    <path id="路径_6815" data-name="路径 6815" d="M0,0H187V20H0Z" transform="translate(855 2031)" fill="#febd17"/>
    <path id="路径_6816" data-name="路径 6816" d="M0,0H187V92H0Z" transform="translate(855 2051)" fill="#313740"/>
    <path id="路径_6817" data-name="路径 6817" d="M0,0H187V20H0Z" transform="translate(401 2143)" fill="#ff6baa"/>
    <path id="路径_6818" data-name="路径 6818" d="M0,0H187V20H0Z" transform="translate(401 2031)" fill="#ff6baa"/>
    <path id="路径_6819" data-name="路径 6819" d="M0,0H187V92H0Z" transform="translate(401 2051)" fill="#313740"/>
    <g transform="matrix(1, 0, 0, 1, 174, 2031)" filter="url(#路径_6820)">
      <path id="路径_6820-2" data-name="路径 6820" d="M-43.648,2.592l-2.144-1.056A13.323,13.323,0,0,0-42.3-3.776a7.886,7.886,0,0,1,1.664.64q.864.448.768.624a.629.629,0,0,1-.32.272.959.959,0,0,0-.576.576,1.4,1.4,0,0,1-.128.256q-.448.9-.7,1.312A11.522,11.522,0,0,1-43.648,2.592Zm23.424-.1A21.335,21.335,0,0,0-21.952-.192,29.511,29.511,0,0,0-24.224-3.04l2.112-.736a29.532,29.532,0,0,1,2.32,2.72A25.277,25.277,0,0,1-17.984,1.6Zm-16.192-.224q0-.928-.16-2.464-.192-1.7-.416-2.784l2.176-.16a20.479,20.479,0,0,1,.672,5.088Zm7.52,0q-.16-.768-.672-2.464A2.512,2.512,0,0,0-29.7-.544q-.544-1.632-.864-2.368l2.176-.448A27.259,27.259,0,0,1-26.592,1.7ZM-45.824-4.8a4.674,4.674,0,0,1-.1-1.312,4.674,4.674,0,0,1,.1-1.312q2.5.256,6.3.256h6.336v-2.88H-38.24q-2.112,0-5.024.224a3.826,3.826,0,0,1-.1-1.2,3.826,3.826,0,0,1,.1-1.2A49.658,49.658,0,0,0-38.24-12h5.056v-2.624h-4.768a46.851,46.851,0,0,0-4.768.192q-.128,0-.128-.192a8.562,8.562,0,0,0,.128-2.144V-20.1q0-3.136-.224-5.472,0-.256.224-.256,3.84.256,9.6.256h5.888a54.8,54.8,0,0,0,5.856-.256q.128,0,.128.256-.128,1.344-.128,2.72V-20.1q0,3.1.224,5.472,0,.192-.224.192a46.274,46.274,0,0,0-4.768-.192h-4.768V-12h5.088q2.144,0,5.056-.224a3.826,3.826,0,0,1,.1,1.2,3.826,3.826,0,0,1-.1,1.2,50.031,50.031,0,0,0-5.056-.224h-5.088v2.88h6.4q2.976,0,6.368-.256a4.674,4.674,0,0,1,.1,1.312,4.674,4.674,0,0,1-.1,1.312q-2.752-.256-6.912-.256H-38.912Q-42.144-5.056-45.824-4.8Zm5.312-11.84h7.328v-6.912h-7.328Zm9.6,0h7.232v-6.912h-7.232ZM-28-17.088l-1.5-.64a28.843,28.843,0,0,0,2.432-5.056,8.062,8.062,0,0,1,1.344.7q.672.448.576.64a.511.511,0,0,1-.288.224.868.868,0,0,0-.512.448q-.448.9-.7,1.344A25.249,25.249,0,0,1-28-17.088Zm-8.8-.352a12.235,12.235,0,0,0-.736-2.3,17.666,17.666,0,0,0-1.216-2.464l1.536-.544a14.868,14.868,0,0,1,2.048,4.672ZM21.12,2.592q-.992,0-1.12-.16a35.24,35.24,0,0,0,.16-3.648V-12.224H18.368V-16.8H20.16v-4.448a39.748,39.748,0,0,0-.192-4.416.17.17,0,0,1,.192-.192,39,39,0,0,0,4.352.192H26.72a19.236,19.236,0,0,0,2.176-.1q.192,0,.192.1a39.748,39.748,0,0,0-.192,4.416V-16.8h1.856v2.3a20.907,20.907,0,0,0,.1,2.272q-.064.128-1.024.128-.928,0-.992-.128.064-.7.064-1.44V-15.1H20.16v2.144h4.352a39,39,0,0,0,4.352-.192q.256,0,.256.192-.256,2.624-.256,6.592V.224q0,1.44-.832,1.856a9.912,9.912,0,0,1-3.36.352,4.823,4.823,0,0,0-.64-1.856,21.359,21.359,0,0,0,2.432,0q.352,0,.352-.384v-3.36h-4.7V-.352q0,1.44.128,2.784Q22.144,2.592,21.12,2.592ZM46.4,2.048a32.889,32.889,0,0,0-4.032-.192H34.3q-1.824,0-4,.16a2.911,2.911,0,0,1-.1-1.056q0-.928.1-.992a22.649,22.649,0,0,0,2.368.1h2.4a13.348,13.348,0,0,0-1.184-3.232l1.7-.576A13.725,13.725,0,0,1,36.96-.1l-.448.16h3.424l-.288-.1A20.147,20.147,0,0,0,41.12-3.776a5.674,5.674,0,0,1,1.488.688q.72.464.592.688a.659.659,0,0,1-.32.256,1.326,1.326,0,0,0-.64.64Q41.7-.416,41.44.064h2.5q.864,0,2.464-.128a2.67,2.67,0,0,1,.1,1.04A2.987,2.987,0,0,1,46.4,2.048Zm-1.888-5.6a58.8,58.8,0,0,0-6.048-.256H32.416V-6.752q0-1.472-.128-2.944a.113.113,0,0,1,.128-.128q1.472.128,3.008.128h9.088v2.944q0,1.472.128,2.944Q44.64-3.552,44.512-3.552ZM22.112-4.9h4.7V-7.3h-4.7Zm12.224-.48H42.5V-8.128h-8.16ZM22.112-8.96h4.7v-2.272h-4.7Zm8.768-2.016a3.6,3.6,0,0,1-.1-1.12,2.911,2.911,0,0,1,.1-1.056,37.752,37.752,0,0,0,3.808.16h7.68q1.728,0,3.808-.16a2.837,2.837,0,0,1,.1,1.04,2.837,2.837,0,0,1-.1,1.04,37.752,37.752,0,0,0-3.808-.16h-3.84Q34.912-11.232,30.88-10.976Zm.928-3.424q-.1,0-.1-.16a12.077,12.077,0,0,0,.1-1.92V-19.2a44.1,44.1,0,0,0-.192-4.64q0-.1.192-.1a13.872,13.872,0,0,0,1.856.1H35.52v-1.472q0-.608-.064-1.568a6.321,6.321,0,0,1,1.408.032q.928.128.928.416a2.049,2.049,0,0,0-.512,1.28v1.312h2.208v-1.472q0-.608-.064-1.568a6.321,6.321,0,0,1,1.408.032q.928.128.928.416a2.049,2.049,0,0,0-.512,1.28v1.312h1.92a14.966,14.966,0,0,0,1.92-.1.085.085,0,0,1,.1.1,21.851,21.851,0,0,0-.1,2.3V-19.2a44.1,44.1,0,0,0,.192,4.64q0,.16-.192.16a29.416,29.416,0,0,0-3.328-.16H35.1A28.55,28.55,0,0,0,31.808-14.4ZM33.6-16.224h2.208v-2.208H33.6Zm3.68,0h2.208v-2.208H37.28Zm3.648,0h2.336v-2.208H40.928ZM21.92-16.8h1.632v-4.96H27.04v-2.08H21.92v7.04Zm3.1,0H27.04v-3.456H25.024V-16.8ZM33.6-20h2.208v-2.176H33.6Zm3.68,0h2.208v-2.176H37.28Zm3.648,0h2.336v-2.176H40.928Z" transform="translate(94 78)" fill="#fff"/>
    </g>
    <g transform="matrix(1, 0, 0, 1, 174, 2031)" filter="url(#路径_6821)">
      <path id="路径_6821-2" data-name="路径 6821" d="M-53.7,2.528l-.416-.384a15.82,15.82,0,0,0,5.376-7.488A29.031,29.031,0,0,0-47.52-14.56v-5.632a37.477,37.477,0,0,0-.352-5.792l2.656,1.216h7.3l.448-.672q.064-.1.192-.256.288-.416.48-.416a3.6,3.6,0,0,1,1.392.848q1.072.848,1.072,1.2a2.109,2.109,0,0,1-1.344.64V-.672a3.126,3.126,0,0,1-.576,2.112A4.7,4.7,0,0,1-39.136,2.5a1.988,1.988,0,0,0-.8-1.536A8.08,8.08,0,0,0-43.04.1V-.416q2.3.128,4.576.288a1,1,0,0,0,.656-.16A.811.811,0,0,0-37.632-.9V-9.024h-8.32a16.628,16.628,0,0,1-2.24,6.3A15.168,15.168,0,0,1-53.7,2.528Zm-6.912-5.5a.612.612,0,0,1-.432-.208.612.612,0,0,1-.208-.432q.288-4.128.352-8.32v-6.912a41.863,41.863,0,0,0-.416-6.56l2.72,1.152H-53.5l.512-.736q.064-.064.192-.224.384-.512.576-.512.32,0,1.312.912t.992,1.264a2.568,2.568,0,0,1-1.344.672V-12.7q.064,3.968.256,7.52a2.112,2.112,0,0,1-.8.608,2.228,2.228,0,0,1-1.088.352q-.416,0-.416-.64.032-.224.064-.576.032-.32.064-.512v-.864h-5.792v1.024q.032.352.032.832l.1,1.056a1.425,1.425,0,0,1-.544.608A2.247,2.247,0,0,1-60.608-2.976Zm1.632-4.768h5.792V-15.2h-5.792ZM-45.824-9.92h8.192v-6.592h-7.936v1.92A38.023,38.023,0,0,1-45.824-9.92Zm-13.152-6.24h5.792V-23.3h-5.792Zm13.408-1.28h7.936v-6.4h-7.936Zm31.2,9.408q-.736,0-1.376-1.44a16.746,16.746,0,0,0-4.9-5.7l.384-.544q4.448,1.7,6.24,4.288a3.7,3.7,0,0,1,.7,2.3,1.264,1.264,0,0,1-.3.784A.957.957,0,0,1-14.368-8.032ZM15.36,2.464a.807.807,0,0,1-.544-.192.576.576,0,0,1-.224-.448q.288-4.128.352-8.32v-4.928A26.565,26.565,0,0,1,2.3.992l-.32-.48A28.057,28.057,0,0,0,8.7-5.408a28.843,28.843,0,0,0,4.416-7.36H7.84a32.425,32.425,0,0,0-4.8.448l-.832-1.632q1.76.192,4.256.256h8.48a42.412,42.412,0,0,0-.384-6.272,14.184,14.184,0,0,1,2.976,1.088q.448.32-.032.608l-.512.352V-13.7H25.5l.672-.96q.064-.1.16-.256.512-.7.736-.7.32,0,1.44.992t1.12,1.344q-.1.512-.832.512H17.856a24.967,24.967,0,0,0,5.28,6.784,22.794,22.794,0,0,0,6.848,4.512l-.064.32A2.137,2.137,0,0,0,28.1.544,23.9,23.9,0,0,1,21.76-4.864a28.356,28.356,0,0,1-4.608-7.9h-.16v6.784q.064,3.968.256,7.52a1.7,1.7,0,0,1-.768.64A2.5,2.5,0,0,1,15.36,2.464ZM4.736-16.96a2.036,2.036,0,0,1-1.28.48,1.044,1.044,0,0,1-.992-.576,1.085,1.085,0,0,1,0-.96,1.9,1.9,0,0,1,.768-.768A4.547,4.547,0,0,0,4.9-20.8a6.19,6.19,0,0,0,.544-3.1h.544a10.559,10.559,0,0,1,.384,1.76h8.576a34.206,34.206,0,0,0-.288-4.864A12.613,12.613,0,0,1,17.6-25.952q.448.32-.032.608l-.544.352v2.848h9.408l.576-.672a1.871,1.871,0,0,0,.16-.192q.448-.512.672-.512.288,0,1.3,1.008t1.008,1.36a1.831,1.831,0,0,1-1.184.352,21.34,21.34,0,0,1-3.776,3.936l-.352-.288a24.573,24.573,0,0,0,1.632-4.032H6.4A6.363,6.363,0,0,1,5.92-18.5,3.8,3.8,0,0,1,4.736-16.96ZM36.928,2.56a.531.531,0,0,1-.4-.192.642.642,0,0,1-.176-.448q.224-2.88.288-6.336V-7.9a41.863,41.863,0,0,0-.416-6.56l2.432,1.152h4.32l.384-.608a1.238,1.238,0,0,0,.16-.224q.256-.384.448-.384a3.2,3.2,0,0,1,1.3.752q.976.752.976,1.1a2,2,0,0,1-1.12.576V-.256A2.958,2.958,0,0,1,44.672,1.6a3.144,3.144,0,0,1-2.176.9,2.411,2.411,0,0,0-.448-1.376,3.011,3.011,0,0,0-1.76-.672V-.1q1.184.064,2.368.16A.481.481,0,0,0,43.2-.48V-4.064H38.5V-2.08q0,.448.032,1.184.064,1.7.128,2.592a1.233,1.233,0,0,1-.608.576A2.366,2.366,0,0,1,36.928,2.56Zm9.536-.576-.8-1.6q1.76.192,4.256.256H54.5a20.347,20.347,0,0,0,1.056-4.992,13.06,13.06,0,0,1,2.816,1.216q.416.32-.128.48l-.576.192A25.564,25.564,0,0,1,55.3.64h3.68l.544-.832a1.583,1.583,0,0,0,.224-.32q.384-.544.576-.544.32,0,1.312.88t.992,1.232q-.128.48-.768.48H51.264A32.425,32.425,0,0,0,46.464,1.984Zm5.7-1.5A1,1,0,0,1,51.04.128,8.737,8.737,0,0,0,49.856-3.84a2.628,2.628,0,0,1-1.376.384h-.256V-7.264A28.2,28.2,0,0,0,48-11.2l2.208,1.088h7.168l.48-.736q.064-.1.192-.256.352-.48.544-.48.32,0,1.36.912t1.04,1.264a2.709,2.709,0,0,1-1.408.64v1.44q0,.32.032.864.064,1.248.128,1.856a1.358,1.358,0,0,1-.72.5,2.829,2.829,0,0,1-1.04.24h-.32v-1.12H50.08v.928A.092.092,0,0,1,50.048-4l.128-.064a5.815,5.815,0,0,1,2.208,1.888,2.507,2.507,0,0,1,.48,1.7A1.147,1.147,0,0,1,52.16.48ZM38.5-4.992h4.7V-8.32H38.5Zm11.584-.96h7.584V-9.184H50.08ZM38.5-9.28h4.7v-3.1H38.5Zm8.64-2.3-.8-1.632q1.76.192,4.256.256h8.256l.512-.832a.687.687,0,0,0,.128-.224q.416-.608.64-.608.32,0,1.264.864t.944,1.216a.686.686,0,0,1-.768.512H51.68A28.72,28.72,0,0,0,47.136-11.584ZM34.56-13.024a.759.759,0,0,1-.768-.352,1.03,1.03,0,0,1-.048-.816,1.465,1.465,0,0,1,.528-.72,2.987,2.987,0,0,0,.768-1.28,4.163,4.163,0,0,0,.256-1.7h.576q.1.32.224.96h.48v-2.784a41.863,41.863,0,0,0-.416-6.56l2.432,1.088h4.416l.416-.64a1.447,1.447,0,0,1,.128-.192q.32-.48.512-.48a3.434,3.434,0,0,1,1.344.768q1.056.8,1.056,1.12A2.07,2.07,0,0,1,45.056-24v7.072h.288l1.12-1.152.928.928v-1.12a41.863,41.863,0,0,0-.416-6.56l2.3,1.12H51.3A22.727,22.727,0,0,0,51.1-26.88a10.51,10.51,0,0,1,2.272,1.024q.32.288-.1.576l-.48.288v1.28h2.208a22.727,22.727,0,0,0-.192-3.168,9.5,9.5,0,0,1,2.24,1.024q.32.288-.1.576l-.448.288v1.28H58.3l.48-.7a1.238,1.238,0,0,0,.16-.224q.352-.512.544-.512.32,0,1.3.88t.976,1.232a2.37,2.37,0,0,1-1.376.64v2.464q.064,2.976.192,4.736a1.751,1.751,0,0,1-.72.528,2.3,2.3,0,0,1-.976.272h-.288v-1.088h-9.44v1.024q0,.16-.48.384a2.272,2.272,0,0,1-1.024.256q-.384,0-.384-.64.032-.128.064-.352a2.215,2.215,0,0,1,.064-.256v-.64H47.36A17.29,17.29,0,0,1,45.184-13.7l-.48-.192a19.992,19.992,0,0,0,.7-2.112h-9.28a3.3,3.3,0,0,1-.7,2.528A1.186,1.186,0,0,1,34.56-13.024Zm14.592-3.424H51.3v-2.688H49.152Zm3.648,0h2.208v-2.688H52.8Zm3.712,0h2.08v-2.688h-2.08Zm-18.24-.48H39.9a36.3,36.3,0,0,0-.352-5.7l2.208,1.056h1.568v-2.656H38.272Zm3.1,0h1.952v-3.68H41.376Zm7.776-3.136H51.3v-2.72H49.152Zm3.648,0h2.208v-2.72H52.8Zm3.712,0h2.08v-2.72h-2.08Z" transform="translate(321 78)" fill="#fff"/>
    </g>
    <g transform="matrix(1, 0, 0, 1, 174, 2031)" filter="url(#路径_6822)">
      <path id="路径_6822-2" data-name="路径 6822" d="M-41.75,2.625a3.43,3.43,0,0,1-2.531-.8A3.584,3.584,0,0,1-45.062-.75V-20.906a3.635,3.635,0,0,1,.781-2.609,3.43,3.43,0,0,1,2.531-.8h19.563a3.43,3.43,0,0,1,2.531.8,3.635,3.635,0,0,1,.781,2.609V-.75a3.584,3.584,0,0,1-.781,2.578,3.43,3.43,0,0,1-2.531.8ZM-23,.375a1.409,1.409,0,0,0,1.594-1.594V-20.5A1.4,1.4,0,0,0-23-22.062H-40.937A1.4,1.4,0,0,0-42.531-20.5V-1.187A1.4,1.4,0,0,0-40.937.375ZM-37.125-15.594q-2.125,0-2.125-1.812v-1.281a1.651,1.651,0,0,1,.563-1.344,2.477,2.477,0,0,1,1.625-.469h10.438q2.031,0,2.125,1.813v1.281q0,1.813-2.125,1.813Zm9.656-1.687a.8.8,0,0,0,.547-.156.846.846,0,0,0,.172-.625.8.8,0,0,0-.187-.609.758.758,0,0,0-.531-.172h-8.812q-.719,0-.719.688a1.026,1.026,0,0,0,.172.7.748.748,0,0,0,.547.172ZM-37.812-4.094a2,2,0,0,1-2.25-2.281V-12a1.989,1.989,0,0,1,2.25-2.25h11.875A1.989,1.989,0,0,1-23.687-12v5.625q0,2.281-2.187,2.281Zm11.938-7.719a.75.75,0,0,0-.219-.578.961.961,0,0,0-.594-.234H-37.062a.8.8,0,0,0-.594.219.8.8,0,0,0-.219.594v.469h12Zm0,3.188V-9.844h-12v1.219Zm-.812,2.906a.862.862,0,0,0,.625-.187.812.812,0,0,0,.188-.594v-.594h-12V-6.5q0,.719.813.781ZM-39.844-.562a1.188,1.188,0,0,1-.828-.2.772.772,0,0,1-.3-.641.718.718,0,0,1,.328-.7,3.337,3.337,0,0,1,.906-.281q.578-.109.828-.172,1.625-.281,3.313-.75.188-.063.578-.172a2.417,2.417,0,0,1,.547-.109q.969.031.969.875,0,.625-1.375,1.031A27.855,27.855,0,0,1-39.844-.562Zm15.813.031a8.421,8.421,0,0,1-1.641-.3q-1.2-.3-3.078-.8-1.562-.406-1.562-1a.917.917,0,0,1,.3-.766.9.9,0,0,1,.766-.141q2.344.469,5.469,1.063.938.188.938.844Q-22.844-.531-24.031-.531ZM33.406-12.75a2.773,2.773,0,0,1-1.984-.594,2.325,2.325,0,0,1-.516-1.906v-5.062a2.834,2.834,0,0,1,.594-2,2.29,2.29,0,0,1,1.906-.531h1.625v-1.562a1.052,1.052,0,0,1,.234-.766.955.955,0,0,1,.7-.234.87.87,0,0,1,.969,1v1.563h2.094v-1.562a.87.87,0,0,1,.969-1q.938,0,.938,1v1.563H42.75a2.773,2.773,0,0,1,1.984.594,2.45,2.45,0,0,1,.547,1.938v5.063a2.734,2.734,0,0,1-.609,1.969,2.338,2.338,0,0,1-1.922.531ZM19-10.281q-1.031,0-1.031-1.219v-2.719a2.236,2.236,0,0,1,.391-1.406,1.532,1.532,0,0,1,1.141-.562v-5.937a2.058,2.058,0,0,1,2.344-2.312h4.875a2.058,2.058,0,0,1,2.344,2.313v5.938a1.609,1.609,0,0,1,1.141.563,2.244,2.244,0,0,1,.453,1.406v2.188q0,1.25-1.031,1.25t-1.031-1.25V-13.25a.691.691,0,0,0-.781-.781H20.844a.722.722,0,0,0-.812.781v1.75Q20.031-10.281,19-10.281Zm4.156-8.187a1.671,1.671,0,0,1,1.875-1.906h2.063v-1.031a.735.735,0,0,0-.812-.812H22.344q-.781,0-.844.844v5.156h1.656Zm11.906-2.375H33.781q-.656,0-.719.719v1.406h2Zm4,2.125v-2.125H36.906v2.125Zm4.031-1.406a.635.635,0,0,0-.719-.719H40.906v2.125h2.188Zm-16,1.719H25.906q-.75,0-.75.719v1.469h1.938Zm7.969,1.469h-2v1.5a.653.653,0,0,0,.719.719h1.281Zm4,2.219v-2.219H36.906v2.219Zm3.313,0a.635.635,0,0,0,.719-.719v-1.5H40.906v2.219ZM21.313,3.031a1.088,1.088,0,0,1-.828-.312,1.315,1.315,0,0,1-.3-.937V-10.156a1.989,1.989,0,0,1,2.281-2.219h3.938a1.975,1.975,0,0,1,2.25,2.219V.25a2.867,2.867,0,0,1-.625,2.016,2.528,2.528,0,0,1-1.937.672H25.031a1.188,1.188,0,0,1-.844-.266,1.091,1.091,0,0,1-.281-.828A.981.981,0,0,1,25,.719h.531a.929.929,0,0,0,.688-.25.973.973,0,0,0,.25-.719V-2.344H22.438V1.781Q22.438,3.031,21.313,3.031ZM31.563-9.281a1.139,1.139,0,0,1-.812-.266.961.961,0,0,1-.281-.734q0-1.031,1.094-1.031H45.281a.9.9,0,0,1,1,1.031.884.884,0,0,1-1,1ZM26.469-9.5a.718.718,0,0,0-.812-.812H23.25a.718.718,0,0,0-.812.813v1.219h4.031Zm3.906,12a.912.912,0,0,1-1.031-1.031A.912.912,0,0,1,30.375.438h3.688L33.5-1.969a2.606,2.606,0,0,1-1.687-.484,1.728,1.728,0,0,1-.594-1.422v-2a1.942,1.942,0,0,1,.547-1.484,2.264,2.264,0,0,1,1.609-.516h9.156q2.187,0,2.188,1.938v1.969q0,2-2.281,2L41.906.438H45.25a.912.912,0,0,1,1.031,1.031A.912.912,0,0,1,45.25,2.5ZM26.469-4.344V-6.281H22.438v1.938Zm15.25.531q.625,0,.688-.719v-.781a.639.639,0,0,0-.687-.719h-7.5q-.687,0-.687.719v.781a.658.658,0,0,0,.688.719ZM39.781.438l.438-2.312v-.094H35.656l.5,2.188.031.219Z" transform="translate(548 77)" fill="#fff"/>
    </g>
    <g transform="matrix(1, 0, 0, 1, 174, 2031)" filter="url(#路径_6823)">
      <path id="路径_6823-2" data-name="路径 6823" d="M-38.528-23.744a.945.945,0,0,1,.832,0l.192.064-.064.7a4.808,4.808,0,0,1-.1.9l-.032.256h1.536q1.7,0,5.088-.064l3.52-.064.1-.64a1.6,1.6,0,0,1,.336-.928.783.783,0,0,1,.752-.1.7.7,0,0,1,.384.336,2.454,2.454,0,0,1,.192.816,3.723,3.723,0,0,0,.1.608,7.5,7.5,0,0,0,1.76.288q1.7.224,2.08.288a1.062,1.062,0,0,1,.9.7.79.79,0,0,1-.1.64,1.026,1.026,0,0,1-.768.592,6.8,6.8,0,0,1-1.888-.048,13.392,13.392,0,0,0-1.664-.128,3.077,3.077,0,0,0-.592.032.29.29,0,0,0-.176.192,6.5,6.5,0,0,0-.256,1.248q-.352,2.432-.976,8.736t-.528,6.4a15.864,15.864,0,0,0,2.208.128h.192q3.9.128,4.576.224t.832.48a.639.639,0,0,1-.064.608.913.913,0,0,1-.576.5A10.314,10.314,0,0,1-22.4-.768Q-23.776-.7-33.312-.7-40.7-.672-42.1-.72t-1.584-.3a.916.916,0,0,1-.1-.544.728.728,0,0,1,.432-.8,9.769,9.769,0,0,1,2.384-.288l1.664-.1V-9.28q0-9.6-.224-10.176Q-39.648-19.84-40.9-20a7,7,0,0,1-1.152-.16,1.157,1.157,0,0,1-.688-.512.545.545,0,0,1-.016-.672,5.7,5.7,0,0,1,2.368-.384l1.024-.032.16-.544A3.717,3.717,0,0,1-38.528-23.744Zm9.216,4.032q-1.312-.064-4.928-.064h-3.584v3.84h1.6a26.3,26.3,0,0,1,2.784.128q1.184.128,1.7.128a4.972,4.972,0,0,1,1.52.24q.752.24.848.5a.982.982,0,0,1-.064.688.9.9,0,0,1-.448.5,14.314,14.314,0,0,1-2.464.08q-2.24-.016-3.3-.112A1.519,1.519,0,0,0-36-13.824q-1.28-.16-1.5.032t-.224,1.472v.352q0,2.112.352,2.24a19.755,19.755,0,0,0,2.3.128q2.208.1,3.584.16,1.216.1,1.408.1.1,0,.256.208A1.289,1.289,0,0,1-29.6-8.7a.772.772,0,0,1-.032.576.7.7,0,0,1-.352.384,32.276,32.276,0,0,1-4.32.352q-2.816.128-3.072.192l-.256.032-.064.8q-.032.672-.064,2.144V-2.88l.32.064q.288.032,4,0,2.656-.064,3.216-.08t.656-.144a5.864,5.864,0,0,0,.32-1.568q.352-2.656.848-8t.5-6.432v-.608Zm.576,21.28a.684.684,0,0,1,.256-.56A.759.759,0,0,1-28.032.8a6.876,6.876,0,0,1,1.632.512q1.312.512,2.5,1.088a2.864,2.864,0,0,1,1.024.736,1.494,1.494,0,0,1,.288.544.709.709,0,0,1-.16.48q-.448.672-.832.576a15.044,15.044,0,0,1-2.784-1.088,11.022,11.022,0,0,1-1.92-1.12A1.213,1.213,0,0,1-28.736,1.568Zm-13.44-.288a3.385,3.385,0,0,1,1.152,0,11.779,11.779,0,0,1,2.224.608,7.49,7.49,0,0,1,1.808.8,1.427,1.427,0,0,1,.352.512.862.862,0,0,1,.1.576q-.512,1.216-3.936-.256-2.24-.992-2.24-1.632A.6.6,0,0,1-42.176,1.28ZM35.68-22.848a.79.79,0,0,1,.576-.1,2.892,2.892,0,0,1,.7.16.408.408,0,0,1,.192.192,2.314,2.314,0,0,1,0,.576q-.032.832-.1,1.28a15.633,15.633,0,0,0-.128,1.664,11.118,11.118,0,0,0,0,1.248q.064.384.336.4a7.277,7.277,0,0,0,1.52-.336,17.594,17.594,0,0,1,3.68-.736,3.679,3.679,0,0,1,2.944.992,1.723,1.723,0,0,1,.352,1.312,4.5,4.5,0,0,1-.256,1.024q-.192.512-.864,1.92a25.485,25.485,0,0,0-1.632,3.872A2.615,2.615,0,0,1,42.56-8.32a.783.783,0,0,1-.736.224.854.854,0,0,1-.832-.768.733.733,0,0,1,.192-.576,5.381,5.381,0,0,0,.832-1.664,15.346,15.346,0,0,1,.64-1.536,8.31,8.31,0,0,0,.864-2.848,1.362,1.362,0,0,0-.064-.688q-.1-.144-.512-.208a15.43,15.43,0,0,0-4.448.992,5.351,5.351,0,0,0-1.408.624,1.288,1.288,0,0,0-.448.848q-.064.32-.224,3.424-.192,3.776-.32,4.672a1.71,1.71,0,0,1-.48,1.152q-.9.608-.992-.864a15.349,15.349,0,0,1,.064-1.856q.576-6.688.032-6.624a19.493,19.493,0,0,0-2.368.88,24.275,24.275,0,0,0-2.272.976.494.494,0,0,0-.112.32q-.016.224.048,1.216.064,1.152.16,4a29.18,29.18,0,0,0,.368,4.72,3.875,3.875,0,0,0,1.168,2q1.856,1.792,5.7,1.632a13.9,13.9,0,0,0,5.536-1.5,5.762,5.762,0,0,1,2.432-.8.618.618,0,0,1,.464.128.81.81,0,0,1,.128.48.887.887,0,0,1-.208.624,3.828,3.828,0,0,1-.8.656,15.2,15.2,0,0,1-4.832,2.08,13.273,13.273,0,0,1-3.536.528,9.993,9.993,0,0,1-3.12-.56A8.353,8.353,0,0,1,30.56,1.744a5.226,5.226,0,0,1-1.6-2.352A10.5,10.5,0,0,1,28.592-2.9q-.112-1.488-.24-5.744-.064-1.824-.144-2.352t-.336-.528a5.083,5.083,0,0,0-1.216.512,6.568,6.568,0,0,1-1.36.56.79.79,0,0,1-.656-.112.551.551,0,0,1-.224-.48,1.08,1.08,0,0,1,.128-.544q.352-.7,2.944-2.112a1.435,1.435,0,0,0,.64-.576,16.962,16.962,0,0,0,.416-3.168,19.151,19.151,0,0,1,.432-3.264q.24-.8.752-.8a.551.551,0,0,1,.448.192,2.349,2.349,0,0,1,.128,1.568q-.256,1.664-.336,3.1a5.283,5.283,0,0,0,.048,1.7q.1.192.512.112a11.73,11.73,0,0,0,1.632-.56,17.788,17.788,0,0,0,2.688-1.184l.256-.192.064-1.92a17.665,17.665,0,0,1,.288-3.776A3.578,3.578,0,0,1,35.68-22.848ZM24.352-21.824a1.145,1.145,0,0,1,.368-.16,1.018,1.018,0,0,1,.272.064.675.675,0,0,1,.384.336,1,1,0,0,1,.16.5.851.851,0,0,1-.192.512q-.192.256-.9.992l-.832.832-.224,1.728a35.506,35.506,0,0,0-.4,3.712q-.048,1.344-.048,7.872v1.216q-.032,5.44-.08,6.368t-.336,1.024L22.5,3.2a.882.882,0,0,1-.96-.128,1.689,1.689,0,0,1-.256-.832q-.16-1.376.064-15.36l.032-2.848-.512.576a5.827,5.827,0,0,0-1.056,1.632.968.968,0,0,1-.416.368.9.9,0,0,1-.544.176q-.192-.032-.352-.32a1.234,1.234,0,0,1-.16-.608,1.288,1.288,0,0,1,.112-.576,2.95,2.95,0,0,1,.528-.64,14.525,14.525,0,0,0,1.216-1.456q.736-.976,1.216-1.744a13.437,13.437,0,0,1,1.52-2.032A5.3,5.3,0,0,1,24.352-21.824Z" transform="translate(775 77)" fill="#fff"/>
    </g>
    <path id="路径_6824" data-name="路径 6824" d="M0,0H187V20H0Z" transform="translate(174 2031)" fill="#51b5db"/>
  </g>
</svg>
