<svg xmlns="http://www.w3.org/2000/svg" width="1148" height="240" viewBox="0 0 1148 240">
  <g id="genseki" transform="translate(0 -721)">
    <g id="组_4854" data-name="组 4854" transform="translate(0 721)">
      <rect id="矩形_3596" data-name="矩形 3596" width="872" height="240" fill="#313740"/>
      <rect id="矩形_3598" data-name="矩形 3598" width="8" height="124" transform="translate(36 36)" fill="#51b5db"/>
    </g>
    <path id="路径_7006" data-name="路径 7006" d="M0,0H120V240H0Z" transform="translate(1028 721)" fill="#313740"/>
    <path id="路径_7007" data-name="路径 7007" d="M0,0H120V240H0Z" transform="translate(908 721)" fill="#313740"/>
    <path id="路径_7008" data-name="路径 7008" d="M0,0H120V240H0Z" transform="translate(788 721)" fill="#313740"/>
    <path id="路径_7009" data-name="路径 7009" d="M0,0H120V240H0Z" transform="translate(668 721)" fill="#313740"/>
    <path id="路径_7010" data-name="路径 7010" d="M0,0H120V240H0Z" transform="translate(548 721)" fill="#313740"/>
    <path id="路径_7011" data-name="路径 7011" d="M0,0H120V240H0Z" transform="translate(428 721)" fill="#313740"/>
    <path id="路径_7012" data-name="路径 7012" d="M27.24,2.6q-1.08.48-5.32.4A8.757,8.757,0,0,0,21.08.48q1.56.08,3.72.04h.32q.68-.04.68-.6V-10.76H22.32q-1.8,0-3.48.16a.141.141,0,0,1-.16-.16,10.959,10.959,0,0,0,.16-2.72v-4.16q0-3.92-.28-6.84,0-.16.28-.16a29.4,29.4,0,0,0,3.08.16h3.12q.52-2.2.84-4.32H16.56v8.16q0,15.88-5.28,23.52a7.632,7.632,0,0,0-2.4-1.56A27.228,27.228,0,0,0,12.92-9.6a67.5,67.5,0,0,0,.76-11.04v-5.44a48.747,48.747,0,0,0-.24-5.44.212.212,0,0,1,.24-.24,58.563,58.563,0,0,0,5.96.24H31.56q3.04,0,5.96-.24a4.97,4.97,0,0,1,.12,1.58,4.97,4.97,0,0,1-.12,1.58,39.878,39.878,0,0,0-4.32-.2H28.88l.2.04q-.56,2.12-1.2,4.28h4.08a35.263,35.263,0,0,0,4.08-.2q.16,0,.16.2-.16,1.68-.16,3.44v3.44q0,3.88.28,6.84,0,.16-.28.16-1.84-.16-3.72-.16H28.6V-.04a4.623,4.623,0,0,1-.24,1.72A1.871,1.871,0,0,1,27.24,2.6ZM5.44,2.48,2.84.8Q4.28-1.76,5.8-5.08,7.32-8.24,8.8-12a18.448,18.448,0,0,1,1.8,1.48q.88.88.76,1.2a.729.729,0,0,1-.4.4,1.476,1.476,0,0,0-.8.92Q7.76-2.16,5.44,2.48ZM17.72.76a5,5,0,0,1-.4-.32Q15.96-.52,15.44-.8A23.28,23.28,0,0,0,20.2-8.52a7.139,7.139,0,0,1,2,.8q1,.56.84.88a.962.962,0,0,1-.4.4,1.792,1.792,0,0,0-.84.92q-.56,1.08-1.28,2.36A27.677,27.677,0,0,1,17.72.76ZM35.68.28A30.986,30.986,0,0,0,33.8-3.64,31.563,31.563,0,0,0,31.2-7.8l2.48-1.08a30.381,30.381,0,0,1,4.6,7.92ZM21.4-13.04H33.32v-3.52H21.4Zm-12.8-3a18.128,18.128,0,0,0-2.88-2.2A34.024,34.024,0,0,0,2-20.28l1.64-2.16a24.479,24.479,0,0,1,6.64,4Zm12.8-2.68H33.32V-22.2H21.4Zm-11-7.72a14.824,14.824,0,0,0-2.88-2.32,26.4,26.4,0,0,0-3.6-2.2l1.64-2.12a21.6,21.6,0,0,1,6.56,4.32ZM51.48,3.28a4.057,4.057,0,0,1-1.76-.2q.32-3.12.32-7.92v-7.92A34.118,34.118,0,0,1,43.52-6a9.435,9.435,0,0,0-2.04-2.28,33.183,33.183,0,0,0,7.84-8.68,47.026,47.026,0,0,0,4.96-10.52h-5.6q-2.8,0-5.56.24A6.049,6.049,0,0,1,43-28.96a6.585,6.585,0,0,1,.12-1.76q3.32.32,8.44.32H68.52q3.96,0,8.44-.32a6.713,6.713,0,0,1,.12,1.78,6.713,6.713,0,0,1-.12,1.78q-3.84-.32-9.68-.32H57.56a57.814,57.814,0,0,1-4.68,10.4H63.76q6.56,0,10.84-.32.24,0,.24.32a41.112,41.112,0,0,0-.24,5.04V-7q0,6.08.32,10.04a4.212,4.212,0,0,1-1.8.2q-1.56,0-1.64-.2a10.976,10.976,0,0,0,.08-1.36V.28H52.96v1.4a11.33,11.33,0,0,0,.08,1.4Q53,3.28,51.48,3.28ZM52.96-2.6h18.6V-14.24H52.96ZM85.44,3.24,82.76,1.92a16.654,16.654,0,0,0,4.36-6.64,9.857,9.857,0,0,1,2.08.8q1.08.56.96.78a.787.787,0,0,1-.4.34,1.2,1.2,0,0,0-.72.72,1.753,1.753,0,0,1-.16.32Q88.32-.64,88-.12A14.4,14.4,0,0,1,85.44,3.24Zm29.28-.12a26.669,26.669,0,0,0-2.16-3.36,36.888,36.888,0,0,0-2.84-3.56l2.64-.92a36.916,36.916,0,0,1,2.9,3.4A31.6,31.6,0,0,1,117.52,2ZM94.48,2.84q0-1.16-.2-3.08-.24-2.12-.52-3.48l2.72-.2a25.6,25.6,0,0,1,.84,6.36Zm9.4,0q-.2-.96-.84-3.08a3.14,3.14,0,0,0-.16-.44q-.68-2.04-1.08-2.96l2.72-.56a34.074,34.074,0,0,1,2.24,6.32ZM82.72-6a5.843,5.843,0,0,1-.12-1.64,5.843,5.843,0,0,1,.12-1.64q3.12.32,7.88.32h7.92v-3.6H92.2q-2.64,0-6.28.28a4.782,4.782,0,0,1-.12-1.5,4.782,4.782,0,0,1,.12-1.5A62.073,62.073,0,0,0,92.2-15h6.32v-3.28H92.56a58.564,58.564,0,0,0-5.96.24q-.16,0-.16-.24a10.7,10.7,0,0,0,.16-2.68v-4.16q0-3.92-.28-6.84,0-.32.28-.32,4.8.32,12,.32h7.36a68.493,68.493,0,0,0,7.32-.32q.16,0,.16.32-.16,1.68-.16,3.4v3.44q0,3.88.28,6.84,0,.24-.28.24a57.843,57.843,0,0,0-5.96-.24h-5.96V-15h6.36q2.68,0,6.32-.28a4.782,4.782,0,0,1,.12,1.5,4.782,4.782,0,0,1-.12,1.5,62.538,62.538,0,0,0-6.32-.28h-6.36v3.6h8q3.72,0,7.96-.32a5.843,5.843,0,0,1,.12,1.64A5.843,5.843,0,0,1,117.32-6q-3.44-.32-8.64-.32H91.36Q87.32-6.32,82.72-6Zm6.64-14.8h9.16v-8.64H89.36Zm12,0h9.04v-8.64h-9.04Zm3.64-.56-1.88-.8a36.054,36.054,0,0,0,3.04-6.32,10.078,10.078,0,0,1,1.68.88q.84.56.72.8a.638.638,0,0,1-.36.28,1.085,1.085,0,0,0-.64.56q-.56,1.12-.88,1.68A31.564,31.564,0,0,1,105-21.36ZM94-21.8a15.293,15.293,0,0,0-.92-2.88,22.082,22.082,0,0,0-1.52-3.08l1.92-.68a18.585,18.585,0,0,1,2.56,5.84ZM126.4,3.24q-1.24,0-1.4-.2a44.051,44.051,0,0,0,.2-4.56V-15.28h-2.24V-21h2.24v-5.56a49.686,49.686,0,0,0-.24-5.52.212.212,0,0,1,.24-.24,48.747,48.747,0,0,0,5.44.24h2.76a24.045,24.045,0,0,0,2.72-.12q.24,0,.24.12a49.684,49.684,0,0,0-.24,5.52V-21h2.32v2.88a26.134,26.134,0,0,0,.12,2.84q-.08.16-1.28.16-1.16,0-1.24-.16.08-.88.08-1.8v-1.8H125.2v2.68h5.44a48.747,48.747,0,0,0,5.44-.24q.32,0,.32.24-.32,3.28-.32,8.24V.28q0,1.8-1.04,2.32a12.39,12.39,0,0,1-4.2.44,6.029,6.029,0,0,0-.8-2.32,26.7,26.7,0,0,0,3.04,0q.44,0,.44-.48v-4.2h-5.88V-.44q0,1.8.16,3.48Q127.68,3.24,126.4,3.24ZM158,2.56a41.111,41.111,0,0,0-5.04-.24H142.88q-2.28,0-5,.2a3.639,3.639,0,0,1-.12-1.32q0-1.16.12-1.24a28.312,28.312,0,0,0,2.96.12h3a16.685,16.685,0,0,0-1.48-4.04l2.12-.72A17.156,17.156,0,0,1,146.2-.12l-.56.2h4.28l-.36-.12a25.182,25.182,0,0,0,1.84-4.68,7.093,7.093,0,0,1,1.86.86q.9.58.74.86a.824.824,0,0,1-.4.32,1.657,1.657,0,0,0-.8.8q-.68,1.36-1,1.96h3.12Q156,.08,158-.08a3.337,3.337,0,0,1,.12,1.3A3.734,3.734,0,0,1,158,2.56Zm-2.36-7a73.5,73.5,0,0,0-7.56-.32h-7.56V-8.44q0-1.84-.16-3.68a.141.141,0,0,1,.16-.16q1.84.16,3.76.16h11.36v3.68q0,1.84.16,3.68Q155.8-4.44,155.64-4.44Zm-28-1.68h5.88v-3h-5.88Zm15.28-.6h10.2v-3.44h-10.2ZM127.64-11.2h5.88v-2.84h-5.88Zm10.96-2.52a4.5,4.5,0,0,1-.12-1.4,3.639,3.639,0,0,1,.12-1.32,47.19,47.19,0,0,0,4.76.2h9.6q2.16,0,4.76-.2a3.546,3.546,0,0,1,.12,1.3,3.546,3.546,0,0,1-.12,1.3,47.19,47.19,0,0,0-4.76-.2h-4.8Q143.64-14.04,138.6-13.72ZM139.76-18q-.12,0-.12-.2a15.1,15.1,0,0,0,.12-2.4V-24a55.126,55.126,0,0,0-.24-5.8q0-.12.24-.12a17.34,17.34,0,0,0,2.32.12h2.32v-1.84q0-.76-.08-1.96a7.9,7.9,0,0,1,1.76.04q1.16.16,1.16.52a2.562,2.562,0,0,0-.64,1.6v1.64h2.76v-1.84q0-.76-.08-1.96a7.9,7.9,0,0,1,1.76.04q1.16.16,1.16.52a2.562,2.562,0,0,0-.64,1.6v1.64h2.4a18.708,18.708,0,0,0,2.4-.12.106.106,0,0,1,.12.12,27.313,27.313,0,0,0-.12,2.88V-24a55.121,55.121,0,0,0,.24,5.8q0,.2-.24.2a36.77,36.77,0,0,0-4.16-.2h-8.32A35.688,35.688,0,0,0,139.76-18ZM142-20.28h2.76v-2.76H142Zm4.6,0h2.76v-2.76H146.6Zm4.56,0h2.92v-2.76h-2.92ZM127.4-21h2.04v-6.2h4.36v-2.6h-6.4V-21Zm3.88,0h2.52v-4.32h-2.52V-21ZM142-25h2.76v-2.72H142Zm4.6,0h2.76v-2.72H146.6Zm4.56,0h2.92v-2.72h-2.92Z" transform="translate(68 798)" fill="#fff"/>
    <path id="路径_7013" data-name="路径 7013" d="M-15.02,1.52a.887.887,0,0,1-.54-.1q.12-1.6.12-4.28v-4.3q-.88.06-2.48.2-.7.06-1.02.08l-.16-.92,1.5-.08q.88-1.14,1.36-1.84a14.139,14.139,0,0,0-2.66-2.94l.52-.62.64.58a26.963,26.963,0,0,0,2.02-3.98,3,3,0,0,1,.66.4q.34.26.29.37a.278.278,0,0,1-.19.15.622.622,0,0,0-.32.32,29.91,29.91,0,0,1-1.92,3.28,11.172,11.172,0,0,1,1.48,1.72,35.949,35.949,0,0,0,2.42-4,4.072,4.072,0,0,1,.64.42q.32.28.26.38a.2.2,0,0,1-.16.1.618.618,0,0,0-.34.28,59.925,59.925,0,0,1-3.7,5.3q1.52-.1,3.78-.24A15.761,15.761,0,0,0-13.9-9.98l.76-.34a17.59,17.59,0,0,1,2.16,4.06l-.78.4q-.26-.7-.68-1.58l-2.14.2v6.5a19.939,19.939,0,0,0,.1,2.16Q-14.56,1.52-15.02,1.52Zm4.72-.18a.937.937,0,0,1-.56-.1q.12-1.5.12-4.06v-8.14q0-2.56-.12-4.06a.106.106,0,0,1,.12-.12q1.68.12,4.52.12h2.26a21.79,21.79,0,0,0,2.26-.1q.12,0,.12.1-.12,1.88-.12,5.04v5.04q0,3.74.12,6-.08.1-.56.1t-.5-.1V.9q.02-.2.02-.3V.14H-9.86V.7a3.3,3.3,0,0,0,.04.54Q-9.84,1.34-10.3,1.34Zm-7.96-1.6a1.866,1.866,0,0,0-.8-.38,14.878,14.878,0,0,0,1.38-4.82,2.667,2.667,0,0,1,.7.22q.36.16.34.28a.3.3,0,0,1-.14.2.544.544,0,0,0-.22.4q-.18.92-.42,1.8A11.045,11.045,0,0,1-18.26-.26Zm8.4-.5h3.1V-7.14h-3.1Zm3.96,0h3.28V-7.14H-5.9V-.76Zm-6.3-.62a11.606,11.606,0,0,0-.5-1.9,20.418,20.418,0,0,0-.78-2.02l.74-.24a15.716,15.716,0,0,1,1.34,3.9Zm2.34-6.68h3.1V-14.1h-3.1Zm3.96,0h3.28V-14.1H-5.9v6.04Zm9,9.62q-.44,0-.52-.1A23.35,23.35,0,0,0,2.68-.9V-5.66a23.6,23.6,0,0,0-.1-2.38q0-.12.1-.12a21.6,21.6,0,0,0,2.56.12h1.3A10.8,10.8,0,0,0,7.82-8.1q.12,0,.12.06-.12,1.56-.12,4.2V.38q0,.74-.46.92a8.751,8.751,0,0,1-2.1.14A3.143,3.143,0,0,0,4.94.66a16.4,16.4,0,0,0,1.72,0q.3,0,.3-.28V-2.14H3.54v1.8q0,.92.08,1.8Q3.56,1.56,3.1,1.56Zm5.66-.44A1.183,1.183,0,0,1,8.7.61,1.028,1.028,0,0,1,8.76.12q.8.08,1.62.08h1.64a7.493,7.493,0,0,0-.74-2.22l.74-.24a6.84,6.84,0,0,1,.8,2.3L12.38.2H15.2L14.8.04a16.452,16.452,0,0,0,.9-2.32,3.669,3.669,0,0,1,.64.34q.32.24.27.35a.351.351,0,0,1-.17.17.619.619,0,0,0-.32.34l-.18.36q-.3.64-.44.92h1.72q.58,0,1.7-.08a1.028,1.028,0,0,1,.06.49,1.183,1.183,0,0,1-.06.51A20.771,20.771,0,0,0,16.38,1H11.3Q10.02,1,8.76,1.12Zm1.46-3.4q-.04,0-.04-.12a4.082,4.082,0,0,0,.04-.72V-4.2q0-.92-.08-1.8a.071.071,0,0,1,.08-.08q.92.08,1.84.08h3.68q.92,0,1.84-.08.04,0,.04.08-.04.44-.04.9v.9q0,.92.08,1.8a.071.071,0,0,1-.08.08q-.92-.08-1.84-.08H13.9Q11.6-2.4,10.22-2.28ZM3.54-2.92H6.96v-1.8H3.54Zm7.52-.22h5.66V-5.26H11.06ZM3.54-5.52H6.96V-7.26H3.54ZM9.08-7.04a1.312,1.312,0,0,1-.06-.52,1.146,1.146,0,0,1,.06-.5q1,.1,2.42.1h4.88q1.1,0,2.44-.1a1.146,1.146,0,0,1,.06.5,1.146,1.146,0,0,1-.06.5q-1-.1-2.44-.1H13.94Q11.52-7.16,9.08-7.04Zm-7.1-.6q-.4,0-.44-.08A12.354,12.354,0,0,0,1.6-9.08v-1.36H2.7v-2.74a24.374,24.374,0,0,0-.12-2.72.106.106,0,0,1,.12-.12,21.6,21.6,0,0,0,2.56.12H6.54a10.8,10.8,0,0,0,1.28-.06q.12,0,.12.06a24.374,24.374,0,0,0-.12,2.72v2.74H8.94v1.36A12.354,12.354,0,0,0,9-7.72q-.04.08-.46.08-.4,0-.44-.08.04-.48.04-.96v-.98H2.38v.98q0,.48.04.96Q2.4-7.64,1.98-7.64Zm7.8-1.4q-.06,0-.06-.1a6.945,6.945,0,0,0,.06-1.16v-1.64a25.079,25.079,0,0,0-.12-2.78q0-.06.12-.06a9.646,9.646,0,0,0,1.2.06H12.2v-.98q0-.4-.04-1.04a2.374,2.374,0,0,1,.68.02q.46.08.46.26a1.351,1.351,0,0,0-.32.86v.88H14.7v-.98q0-.4-.04-1.04a2.374,2.374,0,0,1,.68.02q.46.08.46.26a1.351,1.351,0,0,0-.32.86v.88h1.28a9.982,9.982,0,0,0,1.26-.06.053.053,0,0,1,.06.06,12.493,12.493,0,0,0-.06,1.4v1.4a25.079,25.079,0,0,0,.12,2.78q0,.1-.12.1a17.844,17.844,0,0,0-2.06-.1H11.84A17.844,17.844,0,0,0,9.78-9.04Zm.78-.86h1.72v-1.66H10.56Zm2.42,0H14.7v-1.66H12.98Zm2.42,0h1.8v-1.66H15.4ZM3.5-10.44H4.74v-1.54a14.7,14.7,0,0,0-.08-1.54q0-.06.08-.06a8.281,8.281,0,0,0,1.12.06H7V-15.1H3.5v4.66Zm1.98,0H7v-2.34H5.48v2.34Zm5.08-1.9h1.72v-1.62H10.56Zm2.42,0H14.7v-1.62H12.98Zm2.42,0h1.8v-1.62H15.4Z" transform="translate(608 801)" fill="#fff"/>
    <path id="路径_7014" data-name="路径 7014" d="M-9.74,1.64a1.868,1.868,0,0,1-.86-.1,22.266,22.266,0,0,0,.12-2.62V-3.72h-4.86v2.18a20.164,20.164,0,0,0,.1,2.18q-.08.1-.82.1a1.8,1.8,0,0,1-.84-.1,26.72,26.72,0,0,0,.12-2.86V-3.66a12.733,12.733,0,0,0-.06-1.42q0-.14.06-.14a31.036,31.036,0,0,0,3.14.14h3.16V-6.72h-4.56v-2.1a18.6,18.6,0,0,0-.1-2.1q0-.12.1-.12a21.6,21.6,0,0,0,2.56.12H-4.8v2.1a18.6,18.6,0,0,0,.1,2.1.088.088,0,0,1-.1.1,18.6,18.6,0,0,0-2.1-.1H-9.02v1.64H-6A29.176,29.176,0,0,0-3-5.2q.1,0,.1.12A18.385,18.385,0,0,0-3-3V-.9a2.11,2.11,0,0,1-.16.92A1.014,1.014,0,0,1-3.75.5,4.7,4.7,0,0,1-4.98.72q-.5.02-1.88.02A5.65,5.65,0,0,0-7.38-.62q1.86.06,2.52.02.38-.02.38-.32v-2.8H-9.02v2.64A22.266,22.266,0,0,0-8.9,1.54Q-8.98,1.64-9.74,1.64Zm-3.9-9.48h7.38V-9.8h-7.38Zm-3.72-1.44a1.935,1.935,0,0,1-.8-.08,19.039,19.039,0,0,0,.1-2.14v-2.14h3.14A12.116,12.116,0,0,0-16.44-16l1.28-.54a10.251,10.251,0,0,1,1.68,2.34l-1.22.56h4.1V-15.2q0-.7-.08-1.62a7.044,7.044,0,0,1,1.18.02q.76.08.76.26a2.4,2.4,0,0,0-.4,1.28v1.62H-1.8v2.14a19.039,19.039,0,0,0,.1,2.14,2.02,2.02,0,0,1-.82.08q-.74,0-.78-.08a14.156,14.156,0,0,0,.06-1.48v-1.5H-16.66v1.5a14.156,14.156,0,0,0,.06,1.48Q-16.64-9.28-17.36-9.28Zm12-4.36-1.18-.5A13.015,13.015,0,0,0-4.9-16.58a7.137,7.137,0,0,1,1.09.52q.51.3.44.38a.311.311,0,0,1-.19.1.483.483,0,0,0-.34.2q-.18.26-.5.64Q-5-14-5.36-13.64ZM7.8,1.5A2.979,2.979,0,0,0,6.98.38,5.766,5.766,0,0,0,10.04-1.7a7.061,7.061,0,0,0,1.08-3.2H9.54v-5.54q0-3.32-.16-5.52a.141.141,0,0,1,.16-.16q1.66.16,4.18.16h2.1a18.385,18.385,0,0,0,2.08-.1q.12,0,.12.1a24.842,24.842,0,0,0-.12,2.76v5.54a24.842,24.842,0,0,0,.12,2.76q0,.06-.12.06a8.67,8.67,0,0,0-1.16-.06H15.56V-.66a.667.667,0,0,0,.09.43.623.623,0,0,0,.41.09H17.3q.32,0,.42-.45a15.508,15.508,0,0,0,.14-2.19,3.158,3.158,0,0,0,1.22.56A7.787,7.787,0,0,1,18.66.49a1.24,1.24,0,0,1-1.22.69H15.86a1.656,1.656,0,0,1-1.32-.4,2.4,2.4,0,0,1-.3-1.44V-4.9H12.48a8.821,8.821,0,0,1-1.22,3.88A6.6,6.6,0,0,1,7.8,1.5ZM1.98,1.3A3.507,3.507,0,0,0,1,.22q2.98-2.26,3.3-7.7H2.7q-.54,0-1.58.08a2.15,2.15,0,0,1-.06-.75q0-.69.06-.71.4.04.8.04H4.36V-12.1H2.94q-.7,0-1.4.06a1.888,1.888,0,0,1-.06-.72,1.888,1.888,0,0,1,.06-.72,12.826,12.826,0,0,0,1.4.06H4.36v-1.56q0-.7-.08-1.62a6.127,6.127,0,0,1,1.1.02q.72.08.72.26a2.4,2.4,0,0,0-.4,1.28v1.62H7.1q.7,0,1.38-.06a1.888,1.888,0,0,1,.06.72,1.888,1.888,0,0,1-.06.72A12.256,12.256,0,0,0,7.1-12.1H5.7v3.28H7.26q.52,0,1.56-.08a2.15,2.15,0,0,1,.06.75,2.15,2.15,0,0,1-.06.75,15.1,15.1,0,0,0-1.58-.08l-1.6.02v.04q-.04.74-.08,1.1Q7.06-4.78,8.9-2.56l-1,1.1A37.581,37.581,0,0,0,5.34-4.8,10.3,10.3,0,0,1,1.98,1.3ZM10.9-6.24h5.58v-2H10.9Zm0-3.22h5.58v-1.96H10.9Zm0-3.2h5.58V-14.6H10.9Z" transform="translate(728 801)" fill="#fff"/>
    <path id="路径_7015" data-name="路径 7015" d="M-18.22,1.44l-.9-1.82q1.52-1.1,2.64-2.04V-5.94H-17.7q-.6,0-1.2.06a2.973,2.973,0,0,1-.06-.92,3.514,3.514,0,0,1,.06-.96,18.385,18.385,0,0,0,2.08.1h2.08v5.08q1.28,1.98,4.66,2.1,1.74.08,4.48.04Q-2.72-.48-.94-.62a5.6,5.6,0,0,0-.58,1.8q-4.54.2-8.54.06a9.631,9.631,0,0,1-3.2-.6,5.522,5.522,0,0,1-2.24-1.7Q-16.42-.14-18.22,1.44Zm5.88-2.88a2.779,2.779,0,0,1-.96-.08,22.266,22.266,0,0,0,.12-2.62v-7.88h2.4a6.764,6.764,0,0,0-.68-1.62l.58-.14h-2.9v-.38l-1.28,1.2a8.162,8.162,0,0,0-1.32-1.26,17.469,17.469,0,0,0-1.7-1.22l1.18-1.12a12.433,12.433,0,0,1,3.12,2.36v-1.04h5.22V-16q0-.32-.04-.84a8.54,8.54,0,0,1,1.3.02q.82.08.82.26a.938.938,0,0,0-.32.66v.66h2.74q1.4,0,2.74-.12a2.769,2.769,0,0,1,.06.84,2.292,2.292,0,0,1-.06.8,11.021,11.021,0,0,0-1.3-.06H-3.94l.24.06q-.44.92-.9,1.7h2.7v8.68a2.582,2.582,0,0,1-.14.98,1.047,1.047,0,0,1-.56.56,6.824,6.824,0,0,1-2.5.3,7.651,7.651,0,0,0-.5-1.56,15.45,15.45,0,0,0,1.72.02.265.265,0,0,0,.3-.3v-7.22H-6.92v1.22H-5.6q.66,0,1.32-.06a1.612,1.612,0,0,1,.06.66,1.612,1.612,0,0,1-.06.66A11.245,11.245,0,0,0-5.6-8.14H-6.92v1.26h1.98v1.86q0,.92.08,1.84a.071.071,0,0,1-.08.08q-.96-.08-1.98-.08H-8.9v.34a1.654,1.654,0,0,0,.02.22v.12q-.02.08-.68.08a1.692,1.692,0,0,1-.74-.08,20.164,20.164,0,0,0,.1-2.18v-2.2h1.9V-8.14H-9.62q-.66,0-1.3.06a1.612,1.612,0,0,1-.06-.66,1.612,1.612,0,0,1,.06-.66,11.021,11.021,0,0,0,1.3.06H-8.3v-1.22h-3.22v4.52a43.221,43.221,0,0,0,.2,4.52A3.34,3.34,0,0,1-12.34-1.44ZM-8.9-4.3h2.64V-5.78H-8.9ZM-15.6-9A9.342,9.342,0,0,0-17-10.26a13.381,13.381,0,0,0-1.82-1.14l1.2-1.16a12.9,12.9,0,0,1,1.8,1.06,9.326,9.326,0,0,1,1.46,1.22Zm6.42-3.02h2.92a10.38,10.38,0,0,0,.72-1.76H-9.78a7.347,7.347,0,0,1,.68,1.74ZM9.96,1.66a2.857,2.857,0,0,1-1.1-.1A31.5,31.5,0,0,0,9-1.62V-4.8H3.92v.6a4.1,4.1,0,0,0,.04.58q-.02.08-.96.08a2.867,2.867,0,0,1-1-.08q.1-1,.1-2.4v-4.84q0-1.42-.1-2.42,0-.14.1-.14,1.5.14,3.44.14H9v-1.74q0-.82-.08-1.82a11.4,11.4,0,0,1,1.5.02q.96.08.96.26a3.087,3.087,0,0,0-.48,1.6v1.68h3.5q2,0,3.5-.14.1,0,.1.14a23.6,23.6,0,0,0-.1,2.38v2.4q0,2.82.2,4.78a3.917,3.917,0,0,1-1.12.08,2.738,2.738,0,0,1-1.02-.08A3.3,3.3,0,0,0,16-4.26V-4.8H10.9v3.18a31.5,31.5,0,0,0,.14,3.18A2.766,2.766,0,0,1,9.96,1.66ZM3.92-6.62H9v-4.84H3.92Zm6.98,0H16v-4.84H10.9Z" transform="translate(848 801)" fill="#fff"/>
    <path id="路径_7016" data-name="路径 7016" d="M-14.94,1.8a3.432,3.432,0,0,1-1.22-.1q.14-1.44.14-3.28v-3.3A17.9,17.9,0,0,1-18.08-.46a13.746,13.746,0,0,0-1.08-2.46A17.688,17.688,0,0,0-16.54-8.1H-17.7a11.075,11.075,0,0,0-1.14.06,4.679,4.679,0,0,1-.06-1.17,4.679,4.679,0,0,1,.06-1.17,12.826,12.826,0,0,0,1.4.06h1.42v-3.3q0-1.8-.14-3.38a14.874,14.874,0,0,1,1.72.02q1.06.08,1.06.26a4.26,4.26,0,0,0-.48,1.92v4.48h1.32q.66,0,1.32-.06a4.679,4.679,0,0,1,.06,1.17,4.679,4.679,0,0,1-.06,1.17,11.245,11.245,0,0,0-1.32-.06h-1.32v.32q.52.5,1.52,1.62.96,1.08,1.26,1.48l-1.4,1.88a25.365,25.365,0,0,0-1.38-2.38V-.02q0,.88.08,1.72A2.924,2.924,0,0,1-14.94,1.8Zm2.84-.2A7.345,7.345,0,0,1-12.16.28,4.431,4.431,0,0,1-12.1-.88q.44.04.9.04h.9v-9.32a59.075,59.075,0,0,0-.24-6q0-.16.24-.16,1.6.16,4,.16h2q1,0,2-.08.16,0,.16.08a37.241,37.241,0,0,0-.16,3.82V-.84h.74q.24,0,.72-.04A4.357,4.357,0,0,1-.78.27,5.355,5.355,0,0,1-.84,1.48a25.893,25.893,0,0,0-2.82-.12H-6.48Q-9.3,1.36-12.1,1.6ZM-8.06-.84h3.42V-3.88H-8.06Zm0-5.16h3.42V-8.94H-8.06Zm-9.9-4.78a14.482,14.482,0,0,0-.3-2.24,16.73,16.73,0,0,0-.6-2.38l1.62-.42a15.433,15.433,0,0,1,.68,2.36,14.6,14.6,0,0,1,.34,2.22Zm5.6-.04-1.48-.42a28.05,28.05,0,0,0,1.1-4.7,8.531,8.531,0,0,1,1.46.46q.72.28.66.46a.364.364,0,0,1-.18.22.876.876,0,0,0-.34.52q-.06.2-.2.63t-.22.65Q-11.96-11.76-12.36-10.82Zm4.3-.24h3.42v-2.9H-8.06ZM3.32,1.84a3.474,3.474,0,0,1-1.16-.1,45.126,45.126,0,0,0,.2-4.62V-7.52H1.2v-3.12H2.32v-2.84a26.135,26.135,0,0,0-.12-2.84q0-.14.12-.14a29.976,29.976,0,0,0,3.08.14H8.48v5.68H9.64v2.26h4.68q2.1,0,4.66-.2a4.052,4.052,0,0,1,.06.97,3.192,3.192,0,0,1-.06.91,23.107,23.107,0,0,0-2.34-.1H9.62v-.72H8.4V-.26A3.461,3.461,0,0,1,8.28.78a1.225,1.225,0,0,1-.54.62,2.205,2.205,0,0,1-.88.3q-.38.04-1.22.04a6.678,6.678,0,0,0-.52-1.8q.46.02,1.08.02a.215.215,0,0,0,.22-.24V-1.66H4.32V.04q0,.86.08,1.7Q4.34,1.84,3.32,1.84Zm5.9-.24A3.383,3.383,0,0,1,9.16.66a2.853,2.853,0,0,1,.06-.9,10.064,10.064,0,0,0,1.24.06h1.26A7.453,7.453,0,0,0,11-1.82l1.2-.44H10.32V-4.22q0-.98-.08-1.94,0-.16.08-.16,1.6.16,4,.16h2.02q1,0,2-.08a.071.071,0,0,1,.08.08q-.08.96-.08,1.94v1.96H16.48l1.18.28q-.4.76-1.02,1.8h1.28q.66,0,1.28-.06a2.853,2.853,0,0,1,.06.9,3.383,3.383,0,0,1-.06.94q-1.04-.1-2.5-.1h-5Q10.58,1.5,9.22,1.6ZM13.56-.18H14.9a14.21,14.21,0,0,0,.78-2.08h-3A6.474,6.474,0,0,1,13.56-.18ZM4.32-3.26h2.1v-.92H4.32Zm7.88-.4h4.18v-1.1H12.2ZM4.32-5.74h2.1v-.88H4.32ZM2.86-8.22H7.9v-.8H2.86Zm7.18-.74q-.14,0-.14-.1a11.788,11.788,0,0,0,.14-2.5v-3.7h2.18v-.84q0-.34-.04-.9a7.261,7.261,0,0,1,1.2.02q.78.08.78.26a1.091,1.091,0,0,0-.32.72v.74h.84v-.84q0-.34-.04-.9a7.526,7.526,0,0,1,1.22.02q.8.08.8.26a1.091,1.091,0,0,0-.32.72v.74H18.6v3.1a30.2,30.2,0,0,0,.14,3.1q0,.1-.14.1a19.039,19.039,0,0,0-2.14-.1H12.18A19.039,19.039,0,0,0,10.04-8.96Zm1.7-1.62h.84v-.88h-.84Zm2.1,0h.84v-.88h-.84Zm2.1,0h.86v-.88h-.86v.88ZM3.98-10.64h.68v-3.18H6.72v-.82H3.98v4Zm1.92,0h.82v-1.84H5.9v1.84Zm5.84-2.26h.84v-.86h-.84Zm2.1,0h.84v-.86h-.84v.86Zm2.1,0h.86v-.86h-.86Z" transform="translate(968 801)" fill="#fff"/>
    <g id="组_4853" data-name="组 4853" transform="translate(0 905)">
      <rect id="矩形_3599" data-name="矩形 3599" width="1148" height="56" fill="#51b5db"/>
      <path id="路径_7088" data-name="路径 7088" d="M-84.96.336a8.149,8.149,0,0,1-6-2.424l1.632-2.256a5.568,5.568,0,0,0,3.912,1.8,3.049,3.049,0,0,0,2.256-.84,3.275,3.275,0,0,0,.888-2.424,3.269,3.269,0,0,0-.816-2.376,2.9,2.9,0,0,0-2.184-.84,3.82,3.82,0,0,0-1.344.216,7.622,7.622,0,0,0-1.32.72l-1.608-1.056.48-8.616h7.128q.792,0,2.376-.1a7.2,7.2,0,0,1,.072,1.572,8.12,8.12,0,0,1-.072,1.62,27.913,27.913,0,0,0-3.216-.144h-3.24l-.336,3.768a4.915,4.915,0,0,1,2.136-.5,5.485,5.485,0,0,1,3.864,1.368A5.579,5.579,0,0,1-78.744-5.9,6.017,6.017,0,0,1-80.616-1.3,6.131,6.131,0,0,1-84.96.336ZM-66,2.184a4.761,4.761,0,0,1-1.56-.12,39.153,39.153,0,0,0,.192-4.3v-4.32A20.1,20.1,0,0,1-69.936-1.8a12.043,12.043,0,0,0-1.272-2.712,22.857,22.857,0,0,0,3.48-6.432H-69.24q-.768,0-1.488.072a5.614,5.614,0,0,1-.072-1.4,5.614,5.614,0,0,1,.072-1.4,15.392,15.392,0,0,0,1.68.072h1.68v-2.784q-1.632.312-2.856.48a8.013,8.013,0,0,0-.792-2.184,31.655,31.655,0,0,0,7.3-1.992,11.313,11.313,0,0,1,1.212,1.716q.516.9.324.972a.5.5,0,0,1-.336-.024.816.816,0,0,0-.672,0q-.456.144-1.464.432v3.384h1.272a10.473,10.473,0,0,0,1.248-.072,5.614,5.614,0,0,1,.072,1.4,5.614,5.614,0,0,1-.072,1.4,8.426,8.426,0,0,0-1.248-.072h-1.272v.7q.456.384,1.512,1.5t1.44,1.6V-12.96h4.536v-.984h-2.664q-1.2,0-2.64.12a4.7,4.7,0,0,1-.072-1.224,4.7,4.7,0,0,1,.072-1.224,24.468,24.468,0,0,0,2.64.12h2.664V-17.16q-2.28.1-4.464.144a6.277,6.277,0,0,0-.6-2.136A74.068,74.068,0,0,0-51.1-20.136L-49.488-18a41.155,41.155,0,0,1-5.016.648v1.2h2.544q1.128,0,2.52-.12a4.7,4.7,0,0,1,.072,1.224,4.7,4.7,0,0,1-.072,1.224,22.321,22.321,0,0,0-2.52-.12H-54.5v.984h4.68v4.032q0,2.28.168,4.008,0,.1-.168.1-1.152-.1-2.328-.1H-54.5v1.1h2.352q.792,0,2.328-.1a4.194,4.194,0,0,1,.072,1.176,4.194,4.194,0,0,1-.072,1.176q-1.152-.1-2.328-.1H-54.5v1.08h2.784q1.272,0,2.784-.12a4.958,4.958,0,0,1,.072,1.26,4.958,4.958,0,0,1-.072,1.26,34.4,34.4,0,0,0-3.552-.144h-7.128q-1.776,0-3.552.144A4.958,4.958,0,0,1-63.24.564,4.958,4.958,0,0,1-63.168-.7q1.248.12,3,.12h3v-1.08H-59.52q-.792,0-2.328.1a4.194,4.194,0,0,1-.072-1.176,4.194,4.194,0,0,1,.072-1.176q1.152.1,2.328.1h2.352v-1.1H-61.7V-7.032l-1.536,2.16A22.134,22.134,0,0,0-64.656-7.3v4.68a46.765,46.765,0,0,0,.192,4.68A4.632,4.632,0,0,1-66,2.184Zm6.72-9.072h2.112V-8.112H-59.28Zm4.776,0h2.16V-8.112H-54.5Zm-4.776-2.9h2.112v-1.176H-59.28Zm4.776,0h2.16v-1.176H-54.5ZM-40.56,2.04A9.461,9.461,0,0,0-41.784-.888q2.784.1,3.672.048a.833.833,0,0,0,.468-.1.389.389,0,0,0,.132-.336V-4.8h-4.344q-2.04,0-4.344.192a7.717,7.717,0,0,1-.072-1.548A7.717,7.717,0,0,1-46.2-7.7a40.532,40.532,0,0,0,4.344.192h4.344V-9.024H-36.5a17.306,17.306,0,0,0,2.16-1.8H-38.28q-1.656,0-3.936.168a6.653,6.653,0,0,1-.072-1.452,6.232,6.232,0,0,1,.072-1.428,22.847,22.847,0,0,0,2.568.12h7.776l.648-.144,1.776,1.392A20.844,20.844,0,0,1-34.536-7.7v.192h4.416q2.04,0,4.392-.192a7.717,7.717,0,0,1,.072,1.548,7.717,7.717,0,0,1-.072,1.548A41.1,41.1,0,0,0-30.12-4.8h-4.416v3.6A4.036,4.036,0,0,1-34.848.6a2.185,2.185,0,0,1-1.176.96A14.284,14.284,0,0,1-40.56,2.04Zm-4.176-13.776a5.406,5.406,0,0,1-1.512-.1,26.186,26.186,0,0,0,.144-3.1v-3.1h8.568v-1.152q0-.48-.048-1.248A18.305,18.305,0,0,1-35.5-20.4q1.32.1,1.32.312a1.621,1.621,0,0,0-.384,1.032v1.032h8.64v3.1a26.186,26.186,0,0,0,.144,3.1,5.7,5.7,0,0,1-1.584.1,4.888,4.888,0,0,1-1.512-.1,16.686,16.686,0,0,0,.072-1.752V-15.36H-43.368v1.776a16.686,16.686,0,0,0,.072,1.752A4.457,4.457,0,0,1-44.736-11.736Zm22.1,13.368A6.221,6.221,0,0,1-22.7.288a5.814,5.814,0,0,1,.072-1.32,44.394,44.394,0,0,0,4.56.192h4.56V-2.112h-3.7q-1.56,0-3.7.168a4.983,4.983,0,0,1-.072-1.236A4.983,4.983,0,0,1-20.9-4.416a35.972,35.972,0,0,0,3.7.168h3.7v-1.08h-6.624V-9.144a37.522,37.522,0,0,0-.168-3.792q0-.144.168-.144a29.811,29.811,0,0,0,3.312.144h3.312v-.912H-18q-2.112,0-4.488.192a5.722,5.722,0,0,1-.072-1.308,5.722,5.722,0,0,1,.072-1.308A43.087,43.087,0,0,0-18-16.08h4.488v-1.056q-3.72.168-6.672.192a6.241,6.241,0,0,0-.576-2.184,114.452,114.452,0,0,0,15.84-1.2l1.3,2.208q-2.952.48-7.056.792v1.248h4.608q2.16,0,4.608-.192a5.722,5.722,0,0,1,.072,1.308,5.722,5.722,0,0,1-.072,1.308,45.866,45.866,0,0,0-4.608-.192H-10.68v.912H-3.7V-9.12a37.523,37.523,0,0,0,.168,3.792q0,.144-.168.144a33.073,33.073,0,0,0-3.48-.144h-3.5v1.08h3.936q1.656,0,3.912-.168A4.983,4.983,0,0,1-2.76-3.18a4.983,4.983,0,0,1-.072,1.236q-1.68-.168-3.912-.168H-10.68V-.84h4.7q2.184,0,4.68-.192A5.814,5.814,0,0,1-1.224.288,6.221,6.221,0,0,1-1.3,1.632a51.387,51.387,0,0,0-5.328-.216H-17.3Q-19.968,1.416-22.632,1.632ZM-17.4-7.2h3.888V-8.28H-17.4Zm6.72,0h4.1V-8.28h-4.1ZM-17.4-9.984h3.888v-1.08H-17.4Zm6.72,0h4.1v-1.08h-4.1Z" transform="translate(1112 37)" fill="#fff"/>
    </g>
    <path id="路径_7017" data-name="路径 7017" d="M15.52.52a12.143,12.143,0,0,1-9.48-4Q2.32-7.6,2.32-14.62T6.12-25.8a12.444,12.444,0,0,1,9.64-4.08,11.081,11.081,0,0,1,8.44,3.64l-2,2.4a8.428,8.428,0,0,0-6.36-2.8,8.707,8.707,0,0,0-7.08,3.2q-2.64,3.2-2.64,8.68,0,5.6,2.52,8.8a8.764,8.764,0,0,0,7.24,3.24A7.51,7.51,0,0,0,21.2-4.44v-7.68H18.08q-1.08,0-3.08.16a5.389,5.389,0,0,1-.12-1.7A5.893,5.893,0,0,1,15-15.4q2,.2,4.8.2h2.4a18.708,18.708,0,0,0,2.4-.12q.16,0,.16.12a29.4,29.4,0,0,0-.16,3.08v9.24A10.8,10.8,0,0,1,20.84-.44,14.4,14.4,0,0,1,15.52.52ZM40,.52a9.758,9.758,0,0,1-7.36-3,11.552,11.552,0,0,1-3.04-8.36,11.908,11.908,0,0,1,3-8.36,8.933,8.933,0,0,1,6.8-3.08,7.911,7.911,0,0,1,6.4,2.76,11.362,11.362,0,0,1,2.24,7.44A13.66,13.66,0,0,1,47.88-10H33.24a8.235,8.235,0,0,0,2.14,5.54A6.713,6.713,0,0,0,40.44-2.4a9.587,9.587,0,0,0,5.44-1.72l1.32,2.4A13.129,13.129,0,0,1,40,.52ZM33.2-12.6H44.84a7.765,7.765,0,0,0-1.42-5.02,4.85,4.85,0,0,0-3.98-1.74,5.558,5.558,0,0,0-4.12,1.76A8.2,8.2,0,0,0,33.2-12.6ZM53.4,0V-21.72h3l.32,3.12h.12a16.046,16.046,0,0,1,3.32-2.6,7.978,7.978,0,0,1,3.96-1.08q6.64,0,6.64,8.52V0H67.12V-13.28a7.771,7.771,0,0,0-.98-4.42A3.584,3.584,0,0,0,63-19.08a5.732,5.732,0,0,0-3,.84,16.312,16.312,0,0,0-2.96,2.48V0ZM83.52.52a12.362,12.362,0,0,1-4.44-.84A13.367,13.367,0,0,1,75.4-2.48l1.8-2.4a10.179,10.179,0,0,0,6.44,2.56,4.807,4.807,0,0,0,3.24-1,3.053,3.053,0,0,0,1.04-2.4,3.094,3.094,0,0,0-1.56-2.56,18.6,18.6,0,0,0-3.4-1.56,16.662,16.662,0,0,1-4.36-2.2,4.976,4.976,0,0,1-2.12-4.08,5.473,5.473,0,0,1,1.96-4.36,8.139,8.139,0,0,1,5.52-1.8,10.862,10.862,0,0,1,6.76,2.44l-1.76,2.36a8.5,8.5,0,0,0-5-1.92,4.484,4.484,0,0,0-3,.92A2.761,2.761,0,0,0,80-16.3a2.6,2.6,0,0,0,1.32,2.22,16.94,16.94,0,0,0,3.08,1.4,3.14,3.14,0,0,0,.44.16l.04.04a18.153,18.153,0,0,1,4.48,2.2,5.274,5.274,0,0,1,2.08,4.36A5.7,5.7,0,0,1,89.4-1.4,8.441,8.441,0,0,1,83.52.52Zm21.8,0a9.758,9.758,0,0,1-7.36-3,11.552,11.552,0,0,1-3.04-8.36,11.908,11.908,0,0,1,3-8.36,8.933,8.933,0,0,1,6.8-3.08,7.911,7.911,0,0,1,6.4,2.76,11.362,11.362,0,0,1,2.24,7.44A13.66,13.66,0,0,1,113.2-10H98.56a8.235,8.235,0,0,0,2.14,5.54,6.713,6.713,0,0,0,5.06,2.06,9.587,9.587,0,0,0,5.44-1.72l1.32,2.4A13.129,13.129,0,0,1,105.32.52ZM98.52-12.6h11.64a7.765,7.765,0,0,0-1.42-5.02,4.85,4.85,0,0,0-3.98-1.74,5.558,5.558,0,0,0-4.12,1.76A8.2,8.2,0,0,0,98.52-12.6ZM118.72,0V-31.84h3.6v21.6h.08l9.32-11.48h4.04L128.48-13l8.24,13h-3.96L126.4-10.48l-4.08,4.76V0ZM140.8,0V-21.72h3.64V0Zm1.84-26.2a2.519,2.519,0,0,1-1.8-.68,2.219,2.219,0,0,1-.72-1.68,2.217,2.217,0,0,1,.7-1.72,2.592,2.592,0,0,1,1.82-.64,2.592,2.592,0,0,1,1.82.64,2.217,2.217,0,0,1,.7,1.72,2.14,2.14,0,0,1-.72,1.68A2.433,2.433,0,0,1,142.64-26.2Z" transform="translate(68 870)" fill="#fff"/>
    <path id="路径_7018" data-name="路径 7018" d="M-.48.12Q-1.94,0-4.4,0H-6.36q-1,0-1.96.08-.12,0-.12-.08a19.577,19.577,0,0,0,.12-3.02v-7.92q0-2.3-.12-3.64a1.392,1.392,0,0,1,.72-.1q.64,0,.72.1-.12,2.24-.12,6v7.54H-3.8q1.68,0,3.32-.12a1.727,1.727,0,0,1,.06.64A1.727,1.727,0,0,1-.48.12Z" transform="translate(613 878)" fill="#fff"/>
    <path id="路径_7019" data-name="路径 7019" d="M-10.7,0V-11a34.247,34.247,0,0,0-.16-3.66q0-.1.16-.1a22.262,22.262,0,0,0,2.3.1h2.3q5.12,0,5.12,4.12a4.135,4.135,0,0,1-.9,2.74A4.481,4.481,0,0,1-4.3-6.42L-.54,0h-2.1L-6.2-6.22H-8.84V0Zm1.86-7.72h2.46q3.56,0,3.56-2.82a2.31,2.31,0,0,0-.92-2.04,4.723,4.723,0,0,0-2.64-.58H-8.84v5.44Z" transform="translate(735 878)" fill="#fff"/>
    <path id="路径_7020" data-name="路径 7020" d="M-5.32.1A3.89,3.89,0,0,1-6.56,0q.2-2.5.2-6v-8.72H-3.7L-1-7.28q.18.52.52,1.6.3.92.46,1.38h.1q.16-.48.46-1.42.32-1.04.5-1.56L3.7-14.72H6.38V-3.68A35.188,35.188,0,0,0,6.54,0,3.65,3.65,0,0,1,5.3.1,3.65,3.65,0,0,1,4.06,0a34.011,34.011,0,0,0,.16-3.64V-7.28q0-1.22.28-4.28a2.709,2.709,0,0,0,.02-.28H4.44L3.26-8.44.7-1.42H-.74L-3.32-8.44l-1.16-3.4h-.08q.02.28.08.9.2,2.62.2,3.66v3.64A34.011,34.011,0,0,0-4.12,0,3.446,3.446,0,0,1-5.32.1Z" transform="translate(848 878)" fill="#fff"/>
    <path id="路径_7021" data-name="路径 7021" d="M-4.99.12q-.16,0-.16-.12a15.435,15.435,0,0,0,.16-3.02V-11.1a35.426,35.426,0,0,0-.16-3.7q0-.1.16-.1,1,.1,2.44.1H-.09q5.36,0,5.36,3.64a3.638,3.638,0,0,1-.54,1.94A2.763,2.763,0,0,1,3.25-7.96v.1a3.732,3.732,0,0,1,2,1.14,3.523,3.523,0,0,1,.78,2.36,3.8,3.8,0,0,1-1.64,3.3A7.05,7.05,0,0,1,.29,0H-2.35A23.128,23.128,0,0,0-4.99.12Zm2.96-2.4H.03q3.12,0,3.12-2.26,0-2.04-3.12-2.04H-2.03v4.3Zm0-6.5H-.31q2.7,0,2.7-1.94a1.561,1.561,0,0,0-.66-1.4,3.723,3.723,0,0,0-2-.42H-2.03v3.76Z" transform="translate(968 878)" fill="#fff"/>
    <path id="路径_7022" data-name="路径 7022" d="M-34.64,2a4.626,4.626,0,0,1-1.44-.1q.14-1.4.14-3.24V-4.6q-1.54.48-2.76.82l-.66-2.78q1.02-.22,3.42-.84v-3.32h-1.02a16.044,16.044,0,0,1-.66,2.32A14.172,14.172,0,0,0-39.6-9.72a24.623,24.623,0,0,0,1-6.36,16.325,16.325,0,0,1,1.74.38q.88.26.86.4a.277.277,0,0,1-.14.22.632.632,0,0,0-.22.48,8.432,8.432,0,0,1-.12,1.12h.54V-15.3q0-.84-.08-1.88a18.946,18.946,0,0,1,1.94.02q1.22.08,1.22.26a3.393,3.393,0,0,0-.48,1.7v1.72h1.42v1.8h4.12v-1.24h-1.66q-.56,0-1.64.08a6.712,6.712,0,0,1-.06-1.39,6.712,6.712,0,0,1,.06-1.39q.8.08,1.64.08h1.66v-.8q0-.34-.04-.86a19.3,19.3,0,0,1,1.96.02q1.22.08,1.22.26a.956.956,0,0,0-.32.68v.7h1.72q.58,0,1.7-.08a6.712,6.712,0,0,1,.06,1.39,6.712,6.712,0,0,1-.06,1.39q-.84-.08-1.7-.08h-1.72v1.24h2.14q.98,0,2.14-.1a7.3,7.3,0,0,1,.06,1.43,6.5,6.5,0,0,1-.06,1.39q-.48-.04-1-.04h-1.02v1.48h.9q.32,0,.88-.04a6.035,6.035,0,0,1,.06,1.36,6.414,6.414,0,0,1-.06,1.38q-.44-.04-.88-.04h-.9v3.62A4.881,4.881,0,0,1-22.94.42a1.817,1.817,0,0,1-.9.94,8.65,8.65,0,0,1-3.52.5,9.372,9.372,0,0,0-.84-2.88q.84.04,2.24.04a.581.581,0,0,0,.32-.06.318.318,0,0,0,.08-.26V-4.86h-3.3A16.856,16.856,0,0,1-26.92-2.3L-29.16-.8A14.289,14.289,0,0,0-31.3-3.88l1.54-.98H-31.8v-1l-1.54.48V.08q0,.94.08,1.82A4.03,4.03,0,0,1-34.64,2Zm3.02-9.52h6.06V-9h-6.72v-1.72h-1.06v2.6l1.56-.42Zm16.64,9.46a4.626,4.626,0,0,1-1.44-.1,27.314,27.314,0,0,0,.12-2.88V-3.92A16.936,16.936,0,0,1-18.06-.1,19.139,19.139,0,0,0-19.3-3.14a15.911,15.911,0,0,0,2.32-4.62h-1q-.36,0-1,.04a6.593,6.593,0,0,1-.06-1.4,6.593,6.593,0,0,1,.06-1.4,11.472,11.472,0,0,0,1.34.06h1.34v-.82l-2,.52a16.263,16.263,0,0,0-.24-2.3,18.063,18.063,0,0,0-.56-2.48l1.96-.5a17.66,17.66,0,0,1,.84,3.68v-2.36q0-1.32-.1-2.42.98-.04,2.02.02,1.28.08,1.28.26a5.12,5.12,0,0,0-.38.84,3.918,3.918,0,0,0-.18,1.24v2.34q.44-1.92.68-3.74a7.609,7.609,0,0,1,1.76.6q.88.42.8.72a.7.7,0,0,1-.28.38,1.7,1.7,0,0,0-.54.9q-.58,1.88-.94,2.72l-1.48-.4v.8h1.24q.62,0,1.22-.06a6.684,6.684,0,0,1,.06,1.41A6.684,6.684,0,0,1-11.2-7.7a9.56,9.56,0,0,0-1.22-.06h-1.24v.22q1.18,1.08,2.72,2.78L-12.62-2.5q-.3-.62-1.04-1.86V.3a14.7,14.7,0,0,0,.08,1.54A4.139,4.139,0,0,1-14.98,1.94ZM-12,1.8A9.818,9.818,0,0,1-12.06.24,6.386,6.386,0,0,1-12-1.16q.4.04.8.04h.82v-9.2a59.076,59.076,0,0,0-.24-6q0-.18.24-.18a38.24,38.24,0,0,0,4.18.18h4.18v15.2h.68q.22,0,.66-.04A6.3,6.3,0,0,1-.62.23,7.491,7.491,0,0,1-.68,1.68,25.893,25.893,0,0,0-3.5,1.56H-6.34Q-9.18,1.56-12,1.8Zm4.36-2.92h2.76v-2.5H-7.64Zm0-5.08h2.76V-8.66H-7.64Zm0-5.04h2.76v-2.4H-7.64Z" transform="translate(1108 801)" fill="#fff"/>
    <path id="路径_7023" data-name="路径 7023" d="M-13.76,0V-14.88h3.58v5.66h4.9v-5.66h3.54V0H-5.28V-6.12h-4.9V0Z" transform="translate(1096 878)" fill="#fff"/>
  </g>
</svg>
