<svg xmlns="http://www.w3.org/2000/svg" width="1148" height="240" viewBox="0 0 1148 240">
  <g id="genwan" transform="translate(0 -721)">
    <path id="路径_7066" data-name="路径 7066" d="M0,0H1148V240H0Z" transform="translate(0 721)" fill="#313740"/>
    <path id="路径_7067" data-name="路径 7067" d="M0,0H8V124H0Z" transform="translate(36 757)" fill="#ff6baa"/>
    <path id="路径_7068" data-name="路径 7068" d="M0,0H120V240H0Z" transform="translate(1028 721)" fill="#313740"/>
    <path id="路径_7069" data-name="路径 7069" d="M0,0H120V240H0Z" transform="translate(908 721)" fill="#313740"/>
    <path id="路径_7070" data-name="路径 7070" d="M0,0H120V240H0Z" transform="translate(788 721)" fill="#313740"/>
    <path id="路径_7071" data-name="路径 7071" d="M0,0H120V240H0Z" transform="translate(668 721)" fill="#313740"/>
    <path id="路径_7072" data-name="路径 7072" d="M0,0H120V240H0Z" transform="translate(548 721)" fill="#313740"/>
    <path id="路径_7073" data-name="路径 7073" d="M5.76,2.64q1.44.68,2.06-1.26a10.287,10.287,0,0,0-.06-5.14q-.04-.28-.2-.92-.12-.68-.16-.84A6.789,6.789,0,0,1,7.2-7.6a21.722,21.722,0,0,1,.88-3.52q.6-1.88,2.6-7.72,1.32-3.8,1.64-4.8a11.908,11.908,0,0,0,.52-1.84.288.288,0,0,0-.18-.34q-.22-.1-.66.84T9.16-18.36l-.04.08q-.28.68-.8,1.88Q6.44-12,5.92-10.84A8.565,8.565,0,0,1,4.76-8.8a1.3,1.3,0,0,1-.96.32H3.48a3.838,3.838,0,0,0-.7.08q-.1.04-.14.28,0,.28.1.36a2.543,2.543,0,0,0,.74.2A1.946,1.946,0,0,1,5-5.86,32.016,32.016,0,0,1,5.2.24Q5.16,2.32,5.76,2.64ZM24.4,3q.12.16,1.1-.1a4.336,4.336,0,0,0,1.46-.62,2.028,2.028,0,0,0,.76-.76,5.882,5.882,0,0,0,.28-2q.04-1.08.08-4.96V-7.16q0-2.84.08-3.6.08-1.08.48-1.32a2.186,2.186,0,0,1,1.24-.16h.64a5.667,5.667,0,0,1,1.96.2q.4.2.46.98t1.5.22l.04-.04q.8-.32.92-.68a9.506,9.506,0,0,0,.04-2.2v-.28q-.24-5.64-.1-7.32t.9-2.08q.64-.32.5-.72A3.973,3.973,0,0,0,35.6-25.4a5.427,5.427,0,0,0-1.34-.94q-.34-.1-.7.3a2.339,2.339,0,0,0-.2.24,3.043,3.043,0,0,1-1.1.94,10.212,10.212,0,0,1-2.26.14h-.48q-2.08,0-2.48-.04a.684.684,0,0,1-.56-.36q-.2-.44.46-1.62a3.357,3.357,0,0,1,1.18-1.42q.68-.32.12-.56-.2-.08-.22-.14a.5.5,0,0,1,.06-.26q.16-.28.78-.32t4.06-.08q2.64-.04,3.36-.04a4.391,4.391,0,0,0,1.24-.16q.16-.08.16-.4,0-.28-.64-.96a10.811,10.811,0,0,0-1.52-1.32q-.76-.56-1.02-.5t-.9.94a3.791,3.791,0,0,1-1.08,1.2q-.88.44-8.66.16t-8.82-.8q-.16-.08-.44-.24-.84-.4-.98-.34t-.06.82a2.514,2.514,0,0,1,.04.4q.12,1.32.12,7.96t-.12,8.16q-.68,9.76-3.96,15.8a6.562,6.562,0,0,0-.48.98q-.08.26.1.34a.343.343,0,0,0,.34-.02,3.12,3.12,0,0,0,.56-.62q4.6-5.48,5.6-15.12.28-2.8.32-9.24v-2.32q0-2.64.08-3.36.16-1,.84-1.2a6.481,6.481,0,0,1,2.16-.16q.96.04,1.52.04h.48q2.32,0,2.96.08.84.08,1,.48a3.33,3.33,0,0,1-.04,1.36.658.658,0,0,0-.04.2,6.346,6.346,0,0,1-.58,2.32q-.3.36-1.78.36a9.728,9.728,0,0,1-1.54-.08,8.256,8.256,0,0,1-1.54-.6l-.48-.24q-.72-.32-.82-.16a4.388,4.388,0,0,0,.06,1.48q.04.56.08.88.12,1.16.16,5.84,0,4.6-.08,5.84a3.227,3.227,0,0,0,.06,1.34q.14.26.8.22a2.568,2.568,0,0,0,1.12-.3q.46-.26.46-.58a.934.934,0,0,1,.46-.94,5.229,5.229,0,0,1,1.9-.22h.6a2.5,2.5,0,0,1,1.2.12q.4.24.48,1.2.04.64.04,3.2v3.08q0,2.68-.08,3.4-.12.96-.68,1.16a4.9,4.9,0,0,1-1.8.04q-.52-.04-.8-.08Q21.04-.2,20.8-.18t-.24.22q0,.28.88.44a4.432,4.432,0,0,1,2.06.84,1.823,1.823,0,0,1,.82,1.44A.326.326,0,0,0,24.4,3ZM14.52.48q.28.36,2.56-1.6a27.315,27.315,0,0,0,3.8-3.92Q22.32-6.88,22.8-7q1.2-.2-.36-.96Q21.6-8.4,20.9-8.8a5.575,5.575,0,0,0-.86-.44q-.16,0-.28.4a18.634,18.634,0,0,1-1.9,4.26A24.2,24.2,0,0,1,14.84-.4a1.929,1.929,0,0,0-.44.54A.4.4,0,0,0,14.52.48ZM35.84-.16q1.2.6,1.64-.2A2.744,2.744,0,0,0,37.4-2.6a6.433,6.433,0,0,0-1.72-2.76,13.647,13.647,0,0,0-2.6-2A5.95,5.95,0,0,0,31-8.32q-.76-.12.16.88a19.187,19.187,0,0,1,4,6.24l.08.16a3.244,3.244,0,0,0,.24.6A1.107,1.107,0,0,0,35.84-.16Zm-8.88-13.2a51.42,51.42,0,0,1-5.36-.12q-.56-.24-.68-1.98t.4-2.22q.24-.24,5.64-.24t5.64.24q.52.48.4,2.22t-.68,1.98A52.248,52.248,0,0,1,26.96-13.36ZM6.36-19.08a1.146,1.146,0,0,0,1.08.02,1.256,1.256,0,0,0,.72-.82,2.332,2.332,0,0,0-.92-2.42,7.937,7.937,0,0,0-3.52-1.74q-1.16-.28-1.3-.1t.62.82A10.252,10.252,0,0,1,5.8-19.84,1.749,1.749,0,0,0,6.36-19.08Zm20.84.04a54.145,54.145,0,0,1-5.6-.04q-.72-.28-.7-2.14t.7-2.22a30.966,30.966,0,0,1,5.36-.2,30.966,30.966,0,0,1,5.36.2q.56.28.68,1.98t-.4,2.18A37.358,37.358,0,0,1,27.2-19.04ZM9.64-27.6a1.132,1.132,0,0,0,1.3-.02,1.378,1.378,0,0,0,.58-1.3,3.2,3.2,0,0,0-1.46-2.38A9.787,9.787,0,0,0,6.4-32.96q-1.8-.48-.36.8a13.8,13.8,0,0,1,3,3.72A2,2,0,0,0,9.64-27.6ZM73.28,2.84q1.28.6,1.56-.28A3.144,3.144,0,0,0,74.32.32a7.937,7.937,0,0,0-2.24-2.56,20.427,20.427,0,0,0-4.56-2.38q-2.88-1.14-3.12-.66a.2.2,0,0,0,.06.22,7.792,7.792,0,0,0,.78.54q3,1.88,3,2.6A.314.314,0,0,1,68-1.6a7.275,7.275,0,0,1-1.68.16q-1,.08-4.6.2-.52,0-1.48.04-3.96.16-4.96.12-1.4-.04-1.44-.4,0-.24.84-1.2.2-.24.32-.36,1-1.12,1.72-2.08a5.6,5.6,0,0,0,.36-.52,3.062,3.062,0,0,1,.84-.84,5.882,5.882,0,0,1,2-.28q1.04-.04,4.88-.04h2.8q6.68,0,7.88-.04a4.227,4.227,0,0,0,1.44-.12.536.536,0,0,0,.14-.84,7.432,7.432,0,0,0-1.62-1.48,2.748,2.748,0,0,0-1.22-.66q-.3.02-.98.86a2.433,2.433,0,0,0-.28.36,1.228,1.228,0,0,1-.72.56,13.643,13.643,0,0,1-2.56.2q-1.44.04-6.68,0H58.32q-13.44,0-14.52-.12-.88-.08-.98.02t.3.82a1.552,1.552,0,0,1,.08.2q.32.64.5.72a2.307,2.307,0,0,0,.94-.04.355.355,0,0,1,.16-.04,44.519,44.519,0,0,1,5.84-.36,28.93,28.93,0,0,1,3,.04q.8.12.76.68a9.975,9.975,0,0,1-.84,1.84q-.12.2-.32.56a9.209,9.209,0,0,1-1.24,2,2.84,2.84,0,0,1-1.64.72,32.133,32.133,0,0,1-3.6.12H45.64q-.68,0-.7.16a4.168,4.168,0,0,0,.5,1.16l.2.4a7.492,7.492,0,0,0,.84,1.38q.2.18.58-.16a2.035,2.035,0,0,1,.98-.46q.6-.12,3.12-.36Q59.88.52,67.84-.44a4.669,4.669,0,0,1,2.64.18,8.676,8.676,0,0,1,2.16,2.42Q73.12,2.8,73.28,2.84ZM47.6-11.08a5.248,5.248,0,0,0,1.16-.12,24.057,24.057,0,0,1,3.4-.32q1.72-.04,10.16-.04,8.32-.04,9.72-.08T73.6-12q.28-.52-1.76-2.08-.84-.64-1.12-.6t-.92.84q-.08.12-.24.32a1.509,1.509,0,0,1-.64.56,8.038,8.038,0,0,1-1.92.2q-1.04.04-4.84.04H59.68q-9.96,0-12.4-.2-.56-.04-.56.1a3.7,3.7,0,0,0,.4.9A6.693,6.693,0,0,0,47.6-11.08Zm11.32-3.24a3.037,3.037,0,0,0,1.36-.2q.84-.28,1-.6a6.389,6.389,0,0,0,0-1.92q-.2-4.52-.14-6.24t.46-1.96q.32-.24,5.68-.24a33.474,33.474,0,0,1,5.6.24q.64.56-.44,3-.72,1.64.18,1.16a11.054,11.054,0,0,0,2.62-2.6Q76.32-25,76.9-25.1t.64-.32q.06-.22-.34-.82a6.9,6.9,0,0,0-1.72-1.9q-.92-.66-.92-.02a2.993,2.993,0,0,1-.58.66,5.724,5.724,0,0,1-.78.7,37.421,37.421,0,0,1-5.84.2,35.873,35.873,0,0,1-5.76-.24q-.44-.28-.5-1.48a2.023,2.023,0,0,1,.38-1.6,1.674,1.674,0,0,1,.94-.18q.78-.02,5.38-.06,4.72-.04,5.54-.08t1.02-.36q.36-.52-1.8-2.16a3.3,3.3,0,0,0-1.24-.72q-.32,0-.88.76a4.017,4.017,0,0,1-1.36,1.32q-.48.2-11.02.12T46.4-31.56q-.36-.08-.36.1a2.824,2.824,0,0,0,.36.86.465.465,0,0,1,.08.12q.32.64.56.72a4.18,4.18,0,0,0,1.32-.08,1.094,1.094,0,0,1,.24-.04,46.884,46.884,0,0,1,5.76-.28q3.64-.04,3.92.24a2.023,2.023,0,0,1,.38,1.6q-.06,1.2-.5,1.48a1.657,1.657,0,0,1-.88.18q-.68.02-4.52.02h-.72q-2.8,0-3.52-.04a3.734,3.734,0,0,1-1.36-.2.721.721,0,0,1-.32-.56l-.04-.08q-.2-.8-.5-.72t-.3.92a5.382,5.382,0,0,1-.62,2.46,5.665,5.665,0,0,1-1.66,2,2.707,2.707,0,0,0-1.18,1.56.978.978,0,0,0,.7,1.14,2.035,2.035,0,0,0,2.36-.62,5.471,5.471,0,0,0,1.48-3.14,1.721,1.721,0,0,1,.04-.32,1.355,1.355,0,0,1,.28-.84,1.786,1.786,0,0,1,1.2-.32q.68-.04,3.16-.04h1.96q3.48,0,4.08.08a.755.755,0,0,1,.72.56l.04.08a25.525,25.525,0,0,1,.08,2.88q-.04,2.64-.2,4.68-.12,1.48-.12,2.08a.752.752,0,0,0,.2.48A.739.739,0,0,0,58.92-14.32Zm-11.24-1.8a.392.392,0,0,0,.36.08,1.989,1.989,0,0,0,.34-.06,1.909,1.909,0,0,1,.38-.06,40.68,40.68,0,0,1,5.32-.36,21.285,21.285,0,0,0,2.82-.2q.5-.12.3-.64a2.411,2.411,0,0,0-1.44-1.4,1.318,1.318,0,0,0-1.6.24,3.1,3.1,0,0,1-2.06.84,29.692,29.692,0,0,1-4.7-.2q-.52-.04-.52.06a4.35,4.35,0,0,0,.34.82A6.965,6.965,0,0,0,47.68-16.12ZM63.56-16q.24-.04.44-.08a37.3,37.3,0,0,1,5.8-.44h.12q2.08-.08,2.48-.12.44-.04.52-.32.16-.56-1.08-1.52a3.358,3.358,0,0,0-1.22-.74q-.3-.02-.9.62a2.994,2.994,0,0,1-2.08.94,24.7,24.7,0,0,1-4.6-.22q-.48-.04-.48.1a3.7,3.7,0,0,0,.4.9,6.692,6.692,0,0,0,.48.84A.163.163,0,0,1,63.56-16Zm-.12-4.44a.364.364,0,0,0,.28-.04.355.355,0,0,0,.16-.04,3.766,3.766,0,0,1,1.28-.3q.76-.06,2.96-.06a22.872,22.872,0,0,0,3.1-.12q.62-.12.62-.6,0-.32-.96-1.08a3.479,3.479,0,0,0-1.36-.8.416.416,0,0,0-.32.04,2.842,2.842,0,0,0-.44.48,2.45,2.45,0,0,1-1.5.9,18.683,18.683,0,0,1-3.62-.1q-1.04-.16-1.04-.04-.08.04.34.86A7.211,7.211,0,0,0,63.44-20.44Zm-14.8-.04a2.034,2.034,0,0,0,.72-.16,3.1,3.1,0,0,1,.94-.18q.5-.02,2.94-.06,2.64-.04,3.12-.1a.656.656,0,0,0,.6-.38q.28-.64-1.52-1.84a1.286,1.286,0,0,0-.72-.28,2.285,2.285,0,0,0-.76.64,2.656,2.656,0,0,1-1.52.8,19.934,19.934,0,0,1-3.56-.12q-1.08-.16-1.08-.04-.08.08.32.88A2.555,2.555,0,0,0,48.64-20.48ZM92.68,2.92a.431.431,0,0,0,.4.04,8.923,8.923,0,0,0,1-.6,19.28,19.28,0,0,0,8.16-12.12q.04-.12.08-.28a1.772,1.772,0,0,1,.32-.88,1.98,1.98,0,0,1,1.12-.32q.64-.04,2.92-.04h2.8a13.7,13.7,0,0,1,2.48.08,1.1,1.1,0,0,1,.92.92,14.784,14.784,0,0,1,.08,2.56v3.28q0,2.48-.08,3.12-.2.92-.84,1.08a7.735,7.735,0,0,1-2.32,0q-.68-.04-1.08-.08-1.76-.12-2.08-.12-.32.04-.32.24a.287.287,0,0,0,.16.28,8.331,8.331,0,0,0,1.16.24,7.614,7.614,0,0,1,2.32.78,2.34,2.34,0,0,1,1.04,1.3,1.9,1.9,0,0,0,.24.52.729.729,0,0,0,.44.08,5.525,5.525,0,0,0,2.08-.58A2.712,2.712,0,0,0,115,1.24a6.34,6.34,0,0,0,.32-2.4q.04-1.92.04-13V-17.6q0-6.44.04-8.16a17.669,17.669,0,0,1,.16-3.08.878.878,0,0,1,.48-.64,1.552,1.552,0,0,0,.2-.08q.68-.36.72-.58t-.6-.82a6.569,6.569,0,0,0-1.96-1.46q-.6-.18-1.16.54a1.192,1.192,0,0,0-.12.16,1.492,1.492,0,0,1-.92.66,28.319,28.319,0,0,1-3.28.1H106.8q-2.56,0-3.16-.08a6.731,6.731,0,0,1-1.68-.56l-.4-.2a4.294,4.294,0,0,0-1.16-.46q-.16.02-.08.7.28,2.2.28,9.8,0,4.92-.04,6.56-.08,1.48-.28,3.32A21.091,21.091,0,0,1,93.48,1.8a5.492,5.492,0,0,0-.82.82Q92.52,2.84,92.68,2.92Zm-8.8-6.84a1.459,1.459,0,0,0,1.62-.12,1.447,1.447,0,0,0,.86-1.4v-.08a10.676,10.676,0,0,1-.08-2.12,1.075,1.075,0,0,1,.92-.8,15.721,15.721,0,0,1,2.56-.12h.6q1.72,0,2.2.04a1.047,1.047,0,0,1,.8.44,3.036,3.036,0,0,1,.08,1.16v.16q0,1.16.32,1.38t1.36-.3l.04-.04q.76-.36.88-.7a8.062,8.062,0,0,0,.04-2.02v-.24Q96-10.4,95.96-19.04q-.08-8.56,0-8.92A1.519,1.519,0,0,1,96.92-29q.6-.32.58-.56a2.369,2.369,0,0,0-.66-.92,6.816,6.816,0,0,0-1.68-1.4.724.724,0,0,0-.96.16,2.337,2.337,0,0,0-.2.24,2.753,2.753,0,0,1-1.16,1.02,13.112,13.112,0,0,1-2.56.14h-.96a21.711,21.711,0,0,1-2.46-.08,9.064,9.064,0,0,1-1.62-.52,3.084,3.084,0,0,0-.36-.16,1.24,1.24,0,0,0-.24-.08q-.92-.4-1.06-.32t-.06.88a.658.658,0,0,1,.04.2q.28,2.6.32,9.12.04,9.2-.24,14.36-.12,2-.08,2.42A.691.691,0,0,0,83.88-3.92ZM93.04-9.8a11.693,11.693,0,0,1-3.18.16,11.684,11.684,0,0,1-3.14-.24.95.95,0,0,1-.4-.84q-.08-.6-.08-3.8v-1.24a13.021,13.021,0,0,1,.12-2.32,1.042,1.042,0,0,1,.68-.88,8.223,8.223,0,0,1,1.92-.08h1.96a7.653,7.653,0,0,1,1.84.08,1.066,1.066,0,0,1,.68.92,12.665,12.665,0,0,1,.08,2.4v1.32q0,3.16-.06,3.74A.93.93,0,0,1,93.04-9.8Zm19.44-2.72a28.559,28.559,0,0,1-4.6.16,29.532,29.532,0,0,1-4.64-.2.78.78,0,0,1-.38-.54,5.765,5.765,0,0,1,.02-1.26q.04-.44.08-2.48.04-.56.04-.8v-.84a4.714,4.714,0,0,1,.16-1.56q.16-.44.92-.56a19.7,19.7,0,0,1,2.48-.04h2.96a13.7,13.7,0,0,1,2.48.08.979.979,0,0,1,.88.72,9.371,9.371,0,0,1,.08,2.04v1.28q0,2.76-.06,3.28A.875.875,0,0,1,112.48-12.52ZM89.92-20.16a13.34,13.34,0,0,1-3.04-.12.882.882,0,0,1-.52-.72q-.08-.52-.12-3.48v-1.28a12.963,12.963,0,0,1,.08-2.4,1.042,1.042,0,0,1,.68-.88,7.936,7.936,0,0,1,1.88-.08h2a7.936,7.936,0,0,1,1.88.08.954.954,0,0,1,.68.84,11.954,11.954,0,0,1,.08,2.32v1.2q0,3.08-.06,3.62a.852.852,0,0,1-.5.74A13.761,13.761,0,0,1,89.92-20.16ZM108-21.76a26.808,26.808,0,0,1-4.4-.16.781.781,0,0,1-.48-.66q-.08-.5-.08-3.22V-27a9.37,9.37,0,0,1,.08-2.04,1.062,1.062,0,0,1,.92-.72,14.081,14.081,0,0,1,2.52-.08h2.88a14.081,14.081,0,0,1,2.52.08,1.062,1.062,0,0,1,.92.72,9.371,9.371,0,0,1,.08,2.04v1.2q0,2.72-.08,3.22a.781.781,0,0,1-.48.66A26.808,26.808,0,0,1,108-21.76Zm25.08,24.4q.12.68,1.36.24a2.639,2.639,0,0,0,1.64-1.32,6.232,6.232,0,0,0,.28-1.76q.04-1.44.04-6.92V-8.8q0-3.48.04-4.4a6.232,6.232,0,0,1,.2-1.72,1.149,1.149,0,0,1,.52-.56,1.552,1.552,0,0,0,.2-.08q.48-.32.04-.88a1.094,1.094,0,0,1-.3-1,2.325,2.325,0,0,1,.94-1q.56-.44.8-.36t.28.72a1.079,1.079,0,0,0,.16.6.7.7,0,0,0,.48.12,2.169,2.169,0,0,0,1.16-.32.907.907,0,0,0,.52-.76q0-.52.2-.64a3.143,3.143,0,0,1,1.4-.24q.76-.04,3.76-.04h.68q3.24.04,4.08.08a4.669,4.669,0,0,1,1.52.2.828.828,0,0,1,.2.66q0,.5.44.38.6-.16.44.6a1.475,1.475,0,0,1-.8,1.08,36.463,36.463,0,0,1-5.2.2q-4.8.04-6.72-.08-.32-.04-.84-.08a13.155,13.155,0,0,0-2.28-.04q-.28.08.04.68l.12.24a1.539,1.539,0,0,0,.72.8,4.085,4.085,0,0,0,1.6-.12q2.44-.48,12.56-.2,3.8.08,4.26-.44t-1.74-2.48q-.64-.56-.32-1.04a5.13,5.13,0,0,0,.04-1.68,52.621,52.621,0,0,1-.1-6.08,1.99,1.99,0,0,1,.98-1.68q.64-.36.56-.66a3.838,3.838,0,0,0-.96-1.14,4.42,4.42,0,0,0-1.58-1.14q-.42-.06-1.06.82a1.737,1.737,0,0,1-2.12.8.9.9,0,0,1-.6-.88,1.3,1.3,0,0,1,.48-1.12q.36-.28.16-.52a3.945,3.945,0,0,0-1.12-.68,4.386,4.386,0,0,0-1.42-.52q-.22.04-.18.68a4.665,4.665,0,0,1-.26,2.72q-.46.72-1.7.32a.925.925,0,0,1-.6-.92,1.052,1.052,0,0,1,.48-1.04q.92-.52-1.8-1.6-.92-.36-.8.04a7.722,7.722,0,0,1,.1,1.54,6.513,6.513,0,0,1-.06,1.5q-.76,1.32-3.88-.16a1.552,1.552,0,0,0-.2-.08q-.88-.44-1-.36t0,.92v.12a33.15,33.15,0,0,1,.3,6.14q-.18,1.98-.94,1.26-.16-.16-.2-.12-.08,0-.36.24-.8.8-1.2.36a1.145,1.145,0,0,1-.12-.68q-.04-.52-.04-3.24v-.52q0-2.64.08-3.12a.953.953,0,0,1,.6-.72.434.434,0,0,0,.16-.08q.84-.44.64-.9a4.777,4.777,0,0,0-1.64-1.38,2.658,2.658,0,0,0-1.08-.56q-.24.04-.68.6-.8,1.04-3.28,1.12a10.2,10.2,0,0,1-4.6-.88,7.909,7.909,0,0,0-1.08-.44q-.24,0-.16.32a51.237,51.237,0,0,1,.38,5.26,30.235,30.235,0,0,1-.02,4.58.917.917,0,0,1-.34.68q-.26.16-.46-.2-.2-.44-.44-.34t-.28.62a5.737,5.737,0,0,1-1.36,3.16,1.894,1.894,0,0,0-.62,1.5q.1.7.94.7a1.809,1.809,0,0,0,1.32-.62,2.232,2.232,0,0,0,.64-1.5v-.24a1.527,1.527,0,0,1,.24-.92,2.348,2.348,0,0,1,1.28-.32q.72-.04,3.44-.04h4.68a5.817,5.817,0,0,1,1.44.16q.2.08.28.44a1.113,1.113,0,0,1-.26,1.02,1.007,1.007,0,0,1-.94.34.628.628,0,0,0-.48.02,2.318,2.318,0,0,0-.48.54l-.04.08a1.608,1.608,0,0,1-.8.64,17.4,17.4,0,0,1-2.16.12h-.68a17.316,17.316,0,0,1-2.18-.08,7.044,7.044,0,0,1-1.54-.6,1.722,1.722,0,0,1-.26-.12.784.784,0,0,0-.18-.08q-.84-.36-.96-.28t0,.96v.12q.32,2.84.36,8.12.04,5.36-.24,9.08a13.963,13.963,0,0,0-.06,2.1.58.58,0,0,0,.48.52,1.886,1.886,0,0,0,1.02-.1,2.792,2.792,0,0,0,1-.56.665.665,0,0,0,.18-.44q.02-.28-.02-1.72,0-.36-.04-1a28.025,28.025,0,0,1,0-3.12q.08-.92.6-1.12a5.683,5.683,0,0,1,1.76-.16h.84a5.087,5.087,0,0,1,2.3.28q.34.28.34,2v.28a4.925,4.925,0,0,1-.3,2.32q-.3.36-1.9.24-.64-.04-1.28-.04a.335.335,0,0,0-.12.3q0,.22.12.26l.16.04a3.071,3.071,0,0,0,.56.16A2.289,2.289,0,0,1,133.08,2.64Zm5.16-.28a5.812,5.812,0,0,0,1.24-.12,1.683,1.683,0,0,0,.4-.04q2.32-.28,10.2-.28,5.8,0,6.8-.04t1.24-.36q.36-.56-1.44-2-.96-.76-1.24-.72-.32,0-.92.84A3.174,3.174,0,0,1,152.76.72a4.455,4.455,0,0,1-2.08.2q-.96-.2-.8-.88a7.362,7.362,0,0,1,1.26-1.82,6.332,6.332,0,0,1,1.54-1.54q.6-.2.24-.56a3.513,3.513,0,0,1-.52-.44.875.875,0,0,0-.52-.32,8.8,8.8,0,0,1-1.24-.32L150.6-5a2.279,2.279,0,0,0-.96-.22q-.16.06-.28.74a.658.658,0,0,0-.04.2,22.588,22.588,0,0,1-.4,2.24,8.565,8.565,0,0,1-.7,2.36,1.4,1.4,0,0,1-1.16.48Q146.2.84,146,.62t-.04-.98a2.935,2.935,0,0,0-.4-2.16,5.957,5.957,0,0,0-2-2,2.689,2.689,0,0,1-.8-.66.737.737,0,0,1,.04-.62.976.976,0,0,1,.78-.38q.58-.06,3.9-.06,2.44.04,3.2.08a2.364,2.364,0,0,1,1.2.24q.2.12.2.58t.6.46a3.226,3.226,0,0,0,1.44-.48q.4-.2.46-.4a4.442,4.442,0,0,0-.02-1.12,17.067,17.067,0,0,1-.02-3.24,1.35,1.35,0,0,1,.82-1.12q.8-.36.7-.76a4.106,4.106,0,0,0-1.24-1.38,4.126,4.126,0,0,0-1.48-1q-.34-.02-.98.82a1.193,1.193,0,0,0-.12.16,1.505,1.505,0,0,1-.98.66,33.951,33.951,0,0,1-3.58.1h-1.24q-2.8,0-3.42-.08a5.34,5.34,0,0,1-1.54-.52,1.552,1.552,0,0,1-.2-.08,1.552,1.552,0,0,0-.2-.08,2.382,2.382,0,0,0-.88-.32q-.12.04-.04.76v.12q.12,1.44.12,4.6v.88a19.766,19.766,0,0,0,.14,2.72q.1.36.58.24a.658.658,0,0,1,.2-.04,2.886,2.886,0,0,1,1.1-.08q.26.08.5.64a13.057,13.057,0,0,1,.88,2.82q.28,1.46-.04,1.7-.52.4-5.76-.04-.56-.04-.58.08a3.269,3.269,0,0,0,.38.92,2.2,2.2,0,0,0,.12.28Q138.04,2.32,138.24,2.36Zm-4.72-8.72a7.634,7.634,0,0,1-2.5.16,7.665,7.665,0,0,1-2.46-.24q-.52-.32-.52-1.88t.52-1.88a7.665,7.665,0,0,1,2.46-.24,7.634,7.634,0,0,1,2.5.16q.56.32.56,1.96T133.52-6.36Zm18.08-1.2a20.268,20.268,0,0,1-4.3.16,20.2,20.2,0,0,1-4.26-.24q-.6-.4-.54-1.92t.7-1.8a19.415,19.415,0,0,1,4.16-.2,19.415,19.415,0,0,1,4.16.2q.56.28.6,1.86T151.6-7.56Zm-18.08-4.16a7.634,7.634,0,0,1-2.5.16,7.665,7.665,0,0,1-2.46-.24q-.6-.4-.54-1.82t.7-1.74a7.152,7.152,0,0,1,2.36-.2,7.152,7.152,0,0,1,2.36.2q.56.28.6,1.78T133.52-11.72Zm.08-9.56q-1.88.92-1.92-2a3.569,3.569,0,0,1,.48-2.32q.52-.6,1.52-.04.56.36.54,2.22T133.6-21.28Zm10.08.52a1.586,1.586,0,0,1-1.18.22,1.1,1.1,0,0,1-.94-.54,3.545,3.545,0,0,1-.12-1.16,3.545,3.545,0,0,1,.12-1.16q.28-.64,1.28-.58t1.2.72a3.381,3.381,0,0,1,.08,1.48Q144-20.96,143.68-20.76Zm3.72.2a1.815,1.815,0,0,1-.92-.16q-.52-.32-.52-1.56t.52-1.52a1.734,1.734,0,0,1,.92-.12,2.245,2.245,0,0,1,.92.2q.52.32.52,1.48t-.52,1.48A1.622,1.622,0,0,1,147.4-20.56Zm4.56,0a1.6,1.6,0,0,1-.84-.16q-.52-.32-.52-1.56t.52-1.52a1.514,1.514,0,0,1,.84-.12,2.035,2.035,0,0,1,.84.2q.52.32.52,1.48t-.52,1.48A1.446,1.446,0,0,1,151.96-20.56Zm-22.72-.68a.889.889,0,0,1-1.2-.32,21.448,21.448,0,0,1-.2-4,24.081,24.081,0,0,1,.12-4.16.725.725,0,0,1,.54-.48,20.162,20.162,0,0,1,2.34-.12q1.8,0,2.28.04a1.245,1.245,0,0,1,.88.44,3.511,3.511,0,0,1,.16,1.12q.04,1.52-.7,1.76a4.414,4.414,0,0,1-2.66-.64,7.848,7.848,0,0,0-1.12-.48q-.2,0-.12.36Q130.4-21.68,129.24-21.24Zm14.32-3.92a1.323,1.323,0,0,1-1.86-.5,2.137,2.137,0,0,1-.14-2.3,1.1,1.1,0,0,1,.94-.54,1.586,1.586,0,0,1,1.18.22q.56.36.5,1.6T143.56-25.16Zm9.12,0a1.272,1.272,0,0,1-1.78-.52,2.212,2.212,0,0,1-.14-2.28,1.059,1.059,0,0,1,.9-.54,1.51,1.51,0,0,1,1.14.22q.56.36.5,1.6T152.68-25.16Zm-4.48,0a1.894,1.894,0,0,1-1.2.1,1.041,1.041,0,0,1-.84-.54,2.916,2.916,0,0,1-.18-1.18,2.664,2.664,0,0,1,.14-1.18,1.134,1.134,0,0,1,.98-.54,1.665,1.665,0,0,1,1.22.22q.56.36.5,1.6T148.2-25.16Z" transform="translate(68 798)" fill="#fff"/>
    <path id="路径_7074" data-name="路径 7074" d="M-15.5,1.34a.526.526,0,0,0,.49.1,1.322,1.322,0,0,0,.63-.32q.06-.04.06-.29T-14.38-.8q-.02-.4-.02-.62-.06-1.42-.04-3.66a15.182,15.182,0,0,1,.08-2.4q.08-.2.59-.36a1.718,1.718,0,0,1,.81-.1q.2.04.38.38a2.326,2.326,0,0,1,.24.78.4.4,0,0,0,.4.39.475.475,0,0,0,.48-.35,1.5,1.5,0,0,0-.09-1.12,3.826,3.826,0,0,0-.91-1.28,4.02,4.02,0,0,0-1.09-.85q-.35-.13.03.49.66,1.04.04,1.12a4.863,4.863,0,0,1-1.97.07q-.41-.17.11-.81a27.981,27.981,0,0,0,2.32-3.46,7.429,7.429,0,0,1,.49-.8.8.8,0,0,1,.33-.24q.3-.14.18-.29a3.074,3.074,0,0,0-.8-.49,3.278,3.278,0,0,0-.6-.26q-.12-.02-.16.14a13.731,13.731,0,0,1-1.24,3.18q-.92,1.74-1.22,2.24a2.294,2.294,0,0,1-.78.84,2.7,2.7,0,0,1-1,.18h-.14a1.271,1.271,0,0,0-.55.11q-.07.07.05.43a.776.776,0,0,0,.04.1,2.282,2.282,0,0,0,.27.65q.09.09.27-.09a2.462,2.462,0,0,1,1.07-.41,2.491,2.491,0,0,1,1.13-.09l.02.02q.18.06.2.44t0,2.56v.06q-.02,2.9-.16,5.1a2.6,2.6,0,0,0-.01.37A.326.326,0,0,0-15.5,1.34Zm4.7-.14q.22.22.7-.02A.7.7,0,0,0-9.78.95,1.022,1.022,0,0,0-9.72.52V.4A.583.583,0,0,1-9.6,0a1.523,1.523,0,0,1,.74-.14q.4-.02,1.96-.02h1.26q1.46,0,1.86.02A1.278,1.278,0,0,1-3.1,0a.738.738,0,0,1,.08.42V.56q0,.46.16.55t.62-.13l.02-.02q.3-.16.34-.31a4.993,4.993,0,0,0,0-.95V-.46q-.06-1.2-.06-7.26V-9.8q-.02-2.44,0-3.08a5.209,5.209,0,0,1,.08-1.18.356.356,0,0,1,.22-.24.62.62,0,0,0,.12-.04q.36-.18.34-.33t-.44-.49a2.039,2.039,0,0,0-.71-.48q-.21-.04-.43.24a.979.979,0,0,1-.06.1.784.784,0,0,1-.55.33q-.35.05-2.29.05H-6.84q-1.98,0-2.39-.03a2.441,2.441,0,0,1-.87-.25q-.12-.06-.19-.09t-.19-.09q-.36-.16-.4-.08a2.909,2.909,0,0,0,.02.76q.02.22.04.36.08.66.08,5.78.02,6.16-.12,8.52-.04.76-.03.94A.59.59,0,0,0-10.8,1.2ZM-18.66-.14q.18.16.4-.14A14.526,14.526,0,0,0-16.74-3.9q.34-1.14.56-1.14a.274.274,0,0,0,.16-.1q.28-.22-.34-.34-.06-.02-.4-.12-.2-.06-.3-.08a.327.327,0,0,1-.08-.02q-.38-.14-.44-.1t-.06.38v.04a12.35,12.35,0,0,1-.22,2.1,13.478,13.478,0,0,1-.54,2.14q-.26.7-.29.83T-18.66-.14ZM-8.3-.72A4.242,4.242,0,0,1-9.46-.78L-9.48-.8q-.2-.08-.23-.42T-9.74-3.5V-4.98q0-1.36.02-1.72.06-.52.28-.64A1.924,1.924,0,0,1-8.7-7.4h.8a1.767,1.767,0,0,1,.72.06q.22.12.28.64.02.36.02,1.7v1.52q0,1.92-.03,2.25t-.21.41l-.04.02A4.18,4.18,0,0,1-8.3-.72Zm5.02-.06a4.5,4.5,0,0,1-1.2.06A4.581,4.581,0,0,1-5.66-.8l-.02-.02q-.18-.08-.21-.41t-.03-2.25v-1.5q0-1.36.02-1.72.06-.52.28-.64a2.011,2.011,0,0,1,.76-.06h.84a1.924,1.924,0,0,1,.74.06q.22.12.28.62.04.34.02,1.66V-3.5q0,1.94-.03,2.28t-.23.42Zm-9.22-.86q.4.26.63-.08a1.533,1.533,0,0,0,.17-1,3.544,3.544,0,0,0-.38-1.4,7.885,7.885,0,0,0-.8-1.34q-.38-.48-.55-.41t.07.75a13.106,13.106,0,0,1,.66,2.84,1.813,1.813,0,0,0,.06.47A.465.465,0,0,0-12.5-1.64Zm5.38-6.38a3.607,3.607,0,0,1-1.21.08,3.625,3.625,0,0,1-1.19-.12q-.18-.1-.21-.49t-.03-2.61v-.88q0-1.3.02-1.66.06-.48.28-.6a1.924,1.924,0,0,1,.74-.06h.84a1.84,1.84,0,0,1,.72.06q.2.1.26.58.04.32.02,1.58v.98q0,2.24-.03,2.63A.643.643,0,0,1-7.12-8.02Zm2.68.08a4,4,0,0,1-1.26-.1q-.16-.1-.19-.49t-.03-2.63v-.96q-.02-1.26.02-1.6.06-.48.28-.58a1.849,1.849,0,0,1,.74-.06h.86a2.01,2.01,0,0,1,.76.06q.22.12.26.62.04.34.04,1.66v.86q0,2.22-.03,2.61t-.21.49A3.885,3.885,0,0,1-4.44-7.94Zm-11.72-2.7q.54.12.6-.45A1.635,1.635,0,0,0-16-12.28q-.38-.46-.37-.64a1.924,1.924,0,0,1,.43-.72q.32-.42.8-1.18.62-.98.82-1.04.7-.16-.72-.74a5.089,5.089,0,0,0-.58-.22q-.1-.02-.12.06,0,.06-.12.58a13.819,13.819,0,0,1-.8,2.56.481.481,0,0,1-.35.34,1.18,1.18,0,0,1-.65-.16q-1.2-.56-.28.38a5.348,5.348,0,0,1,1.46,2.08A.44.44,0,0,0-16.16-10.64ZM2.94,1.46a.578.578,0,0,0,.68-.05q.4-.25.36-.57V.56q-.04-.8-.04-1.32v-.4a2.391,2.391,0,0,1,.11-1.19q.15-.17,1.09-.17h.64a2.616,2.616,0,0,1,1.17.14q.17.14.17.96v.22q0,1.06-.19,1.24T5.72.12q-.5-.04-.57.09t.39.23q.94.2,1.08.88.04.2.52.08A1.286,1.286,0,0,0,7.86.98L7.88.96A1.385,1.385,0,0,0,8.07.21q.03-.55.05-3.65.02-3.88.06-3.98a1.1,1.1,0,0,1,.42-.34q.26-.12.02-.41a.517.517,0,0,1-.15-.52,1.6,1.6,0,0,1,.55-.57q.54-.42.54.24,0,.34.32.34a.861.861,0,0,0,.48-.13.4.4,0,0,0,.2-.35.511.511,0,0,1,.12-.4,2.084,2.084,0,0,1,.78-.14q.46-.02,2.16-.02t2.14.02a2.021,2.021,0,0,1,.8.12q.12.08.12.36,0,.2.27.18t.32.08q.05.1-.09.36a.953.953,0,0,1-.46.46A25.6,25.6,0,0,1,14-8.08q-2.54,0-3.32-.04-.16-.02-.44-.04a8,8,0,0,0-1.12-.03q-.14.03.02.33a1.175,1.175,0,0,0,.06.11.392.392,0,0,1,.04.09q.16.32.26.36a1.511,1.511,0,0,0,.56-.04.329.329,0,0,1,.1-.02q.86-.1,1.6-.14.8-.02,3.34-.02,2.1,0,2.66-.02a3.506,3.506,0,0,0,.98-.08.192.192,0,0,0,.14-.21q0-.17-.4-.58a3.081,3.081,0,0,0-.7-.57q-.34-.18-.12-.42a5.172,5.172,0,0,0,.02-1.22,25.5,25.5,0,0,1-.01-2.81q.07-.69.39-.69.42,0,.36-.31a1.482,1.482,0,0,0-.56-.73,1.661,1.661,0,0,0-.64-.42q-.18-.02-.42.3a1.251,1.251,0,0,1-.56.44.866.866,0,0,1-.62.01.456.456,0,0,1-.33-.4.618.618,0,0,1,.23-.53q.22-.2.05-.37a2.885,2.885,0,0,0-.89-.43q-.28-.12-.34-.08t-.02.34a2.127,2.127,0,0,1-.09,1.28q-.21.32-.89.2a.472.472,0,0,1-.39-.42.477.477,0,0,1,.21-.54q.46-.24-.68-.7a.217.217,0,0,0-.08-.04q-.36-.16-.42-.11t-.02.53v.14q.08.98-.38,1.16a2.511,2.511,0,0,1-1.64-.34l-.04-.02a2.129,2.129,0,0,0-.44-.18q-.08,0-.04.2v.04q0,.18.08.98a13.323,13.323,0,0,1,.04,2.49q-.1.87-.38.53-.1-.14-.36.12-.34.34-.48.32t-.2-.54q-.04-.44-.04-1.68v-.24q.02-1.3.06-1.54a.476.476,0,0,1,.3-.36.217.217,0,0,0,.08-.04q.36-.18.38-.3t-.3-.4a2.761,2.761,0,0,0-.83-.62.43.43,0,0,0-.51.18,1.151,1.151,0,0,1-.53.46,7.614,7.614,0,0,1-1.29.06,11.456,11.456,0,0,1-1.26-.04A3.313,3.313,0,0,1,3.4-16l-.04-.02a3.175,3.175,0,0,0-.6-.25q-.1-.01-.06.15a25.817,25.817,0,0,1,.19,2.65,15.362,15.362,0,0,1-.01,2.31.442.442,0,0,1-.18.34q-.14.08-.24-.12-.1-.22-.24-.18t-.14.3a2.218,2.218,0,0,1-.18.78,2.907,2.907,0,0,1-.44.78,1.043,1.043,0,0,0-.3.75q.04.33.44.31.66-.1.88-1.06A.843.843,0,0,1,2.5-9.4a.71.71,0,0,1,.16-.4,1.01,1.01,0,0,1,.6-.14q.32-.02,1.56-.02h.96q1.38,0,1.74.02a1.6,1.6,0,0,1,.64.1q.1.06.08.28v.06a.694.694,0,0,1-.2.5.5.5,0,0,1-.46.1q-.12-.02-.34.24l-.02.02a.974.974,0,0,1-.44.31,7.508,7.508,0,0,1-1.18.05H5.2a10,10,0,0,1-1.18-.04,2.893,2.893,0,0,1-.74-.3.233.233,0,0,1-.06-.04.52.52,0,0,1-.14-.08q-.3-.14-.33-.05a4.191,4.191,0,0,0,.03.81q.02.22.04.34.1,1,.1,3.9Q2.9-.88,2.8.6a3.606,3.606,0,0,0-.02.62A.306.306,0,0,0,2.94,1.46ZM9,1.08a.128.128,0,0,0,.14.06A15.466,15.466,0,0,1,11.16.92q.68-.04,4.1-.04,2.78,0,3.25-.03t.53-.19Q19.1.5,18.8.16a3.937,3.937,0,0,0-.74-.64.583.583,0,0,0-.33-.15q-.11.01-.27.23a.226.226,0,0,1-.08.08,2.2,2.2,0,0,1-.55.56,2.633,2.633,0,0,1-.85.08H15.9q-.98,0-1.04-.17t.56-1.03a7.15,7.15,0,0,1,.51-.65,1.018,1.018,0,0,1,.31-.21q.56-.22-.84-.72-.48-.16-.58-.18-.1,0-.12.14A7.7,7.7,0,0,1,14.08.08a.746.746,0,0,1-.66.24.784.784,0,0,1-.5-.11Q12.8.1,12.9-.18a1.437,1.437,0,0,0-.18-1.09,3.094,3.094,0,0,0-.98-1.05q-.68-.42-.34.32a6.609,6.609,0,0,1,.48,1.42q.14.68-.02.82a2.35,2.35,0,0,1-.98.08Q10,.32,8.9.22,8.6.2,8.6.25a2.175,2.175,0,0,0,.17.41A2.153,2.153,0,0,0,9,1.08Zm1.14-3.4q.16.18.54.04a.667.667,0,0,0,.46-.42.178.178,0,0,1,.02-.08.362.362,0,0,1,.3-.32q.24-.04,1.58-.06h.52q2.18,0,2.22.02a.355.355,0,0,1,.24.16.457.457,0,0,1,.1.26q0,.4.66.1a.768.768,0,0,0,.36-.26,1.266,1.266,0,0,0,.04-.52,8.426,8.426,0,0,1,0-1.71.826.826,0,0,1,.48-.57q.32-.14.28-.3a1.83,1.83,0,0,0-.48-.58,2.23,2.23,0,0,0-.74-.56q-.2-.04-.46.3a.979.979,0,0,1-.06.1.821.821,0,0,1-.48.33,15.335,15.335,0,0,1-1.64.07H13.2q-1.48,0-1.8-.04a2.714,2.714,0,0,1-.76-.24l-.04-.02a.978.978,0,0,1-.1-.06q-.36-.16-.42-.13t-.02.39v.12q.04.44.04,1.68,0,1.28-.02,1.78Q10.06-2.4,10.14-2.32ZM5.52-3.08A5.375,5.375,0,0,1,4.2-3.16q-.28-.14-.3-.95t.26-.99a5.5,5.5,0,0,1,1.36-.08,5.5,5.5,0,0,1,1.36.08q.28.18.26.99t-.3.95A5.375,5.375,0,0,1,5.52-3.08Zm8.1-.64a13.872,13.872,0,0,1-2.23-.08.389.389,0,0,1-.22-.25,3,3,0,0,1-.05-.69v-.18a1.427,1.427,0,0,1,.08-.6q.1-.16.54-.22.3-.02,1.46-.02h.82q1.16,0,1.48.02a.707.707,0,0,1,.54.22,1.21,1.21,0,0,1,.08.56v.18a3.116,3.116,0,0,1-.05.72.423.423,0,0,1-.22.25A12.347,12.347,0,0,1,13.62-3.72ZM6.88-5.82a5.5,5.5,0,0,1-1.36.08,5.484,5.484,0,0,1-1.36-.1Q3.88-6,3.9-6.75t.3-.89a4.33,4.33,0,0,1,1.32-.1,4.33,4.33,0,0,1,1.32.1q.28.14.3.89T6.88-5.82Zm4.84-4.54a.749.749,0,0,1-.82.03.932.932,0,0,1-.32-.81,1.167,1.167,0,0,1,.14-.69A.742.742,0,0,1,11.3-12a.71.71,0,0,1,.56.17,1.167,1.167,0,0,1,.14.69,1.7,1.7,0,0,1-.06.54A.431.431,0,0,1,11.72-10.36Zm2.02.08a1.45,1.45,0,0,1-.46-.02.459.459,0,0,1-.32-.23,1.971,1.971,0,0,1-.06-.61.907.907,0,0,1,.34-.81.784.784,0,0,1,.84.03q.28.14.32.75t-.24.79A1.085,1.085,0,0,1,13.74-10.28Zm2.24,0a.827.827,0,0,1-.34-.02.555.555,0,0,1-.31-.25,1.623,1.623,0,0,1-.07-.59.907.907,0,0,1,.32-.79.7.7,0,0,1,.78.01q.34.16.34.8t-.34.78A1.73,1.73,0,0,1,15.98-10.28ZM4.72-10.62q-.54.32-.71-.1a7.63,7.63,0,0,1-.17-2.12v-.56a10.881,10.881,0,0,1,.04-1.22.538.538,0,0,1,.32-.46,3.31,3.31,0,0,1,.86-.04H5.5a10.655,10.655,0,0,1,1.18.04q.34.04.42.24a1.871,1.871,0,0,1,.04.64q-.02.66-.43.76a2.276,2.276,0,0,1-1.31-.32q-.04-.02-.14-.06a1.461,1.461,0,0,0-.41-.17q-.05.01-.03.25v.04q.1,1.08.12,1.88a5.2,5.2,0,0,1-.02.88A.45.45,0,0,1,4.72-10.62Zm2.2-.04a.793.793,0,0,1-.59.11.548.548,0,0,1-.47-.27,3.572,3.572,0,0,1-.06-.9,3.572,3.572,0,0,1,.06-.9.548.548,0,0,1,.47-.27.793.793,0,0,1,.59.11q.26.16.26,1.06T6.92-10.66Zm4.84-1.96a.837.837,0,0,1-.66.06.652.652,0,0,1-.5-.36,1.07,1.07,0,0,1,.17-1.12.714.714,0,0,1,.95-.12q.28.14.3.76T11.76-12.62Zm1.88.06q-.48,0-.62-.18a1.3,1.3,0,0,1-.12-.76.77.77,0,0,1,.38-.7.789.789,0,0,1,.8.04q.3.16.33.74t-.25.76A.955.955,0,0,1,13.64-12.56Zm2.32,0q-.46,0-.59-.19a1.376,1.376,0,0,1-.11-.75.774.774,0,0,1,.34-.69.76.76,0,0,1,.76.03q.3.16.33.74t-.25.76A.857.857,0,0,1,15.96-12.56Z" transform="translate(728 801)" fill="#fff"/>
    <path id="路径_7075" data-name="路径 7075" d="M-16.06,1.36a.7.7,0,0,0,.68-.1.615.615,0,0,0,.3-.31,4.055,4.055,0,0,0,0-.85q-.1-1.98-.12-5.04a22.113,22.113,0,0,1,.08-3.24q.16-.32.54.2a4.854,4.854,0,0,1,.66,1.44.7.7,0,0,0,.31.45.3.3,0,0,0,.39-.09,2,2,0,0,1,.18-.2q.46-.48.24,2.48a1.9,1.9,0,0,0,.08.92q.12.18.52-.02a.7.7,0,0,0,.27-.21,1.032,1.032,0,0,0,.05-.41q0-.5.14-.62A1.368,1.368,0,0,1-11-4.36a1.492,1.492,0,0,1,.71.11q.17.11.17.47,0,.26.12.3a.776.776,0,0,0,.46-.12.233.233,0,0,1,.06-.04.382.382,0,0,0,.25-.27,8.613,8.613,0,0,0,.01-1.05,2.122,2.122,0,0,1-.02-.24Q-9.3-7.14-9.3-7.8a3.565,3.565,0,0,1,.12-1.14.9.9,0,0,1,.4-.44q.2-.12.19-.24T-8.86-10a2.01,2.01,0,0,0-.66-.55q-.22-.07-.46.21a1.383,1.383,0,0,1-1.06.46,2.915,2.915,0,0,1-1.42-.36,1.515,1.515,0,0,0-.41-.15q-.05.01-.03.29a17.916,17.916,0,0,1,.12,2.62q-.06.66-.36.18a7.74,7.74,0,0,0-.69-.97,4.741,4.741,0,0,0-.79-.69,1.563,1.563,0,0,1-.48-.48,2.758,2.758,0,0,1-.1-.82v-.1q-.02-.82.15-.96a2.774,2.774,0,0,1,1.19-.16h.06q1.16-.02,1.31-.2t-.49-.82q-.5-.52-.67-.54t-.45.38q-.54.82-.92.44a.671.671,0,0,1-.15-.41q-.03-.29-.03-1.33.02-1.08.06-1.33a.768.768,0,0,1,.26-.45q.24-.2.04-.37a3.841,3.841,0,0,0-1-.45.177.177,0,0,0-.08-.02q-.26-.1-.29-.05a1.512,1.512,0,0,0,.01.47,1.257,1.257,0,0,1,.02.2q.34,3.4-.02,3.72-.1.12-.79.15a6.711,6.711,0,0,1-1.33-.07q-.36-.04-.39.01t.15.45a1.527,1.527,0,0,0,.25.41q.07.05.23-.01a3,3,0,0,1,.9-.18.92.92,0,0,1,.62.12q.34.3-.33,2.91a24.059,24.059,0,0,1-1.57,4.47q-.1.2-.24.5l-.02.06q-.04.06.07.18t.19.1a4.427,4.427,0,0,0,.7-1.11,17.317,17.317,0,0,0,.88-1.83,5.559,5.559,0,0,1,.55-1.08q.17-.2.25.19a24.757,24.757,0,0,1,.04,2.92q-.04,2.53-.14,4.11a8.147,8.147,0,0,0-.04,1A.4.4,0,0,0-16.06,1.36Zm2.7-.44a.245.245,0,0,0,.22.06A14.073,14.073,0,0,1-11.26.77q.84-.03,4.78-.03Q-2.72.72-2.08.7t.72-.18Q-1.28.38-1.61,0a3.5,3.5,0,0,0-.77-.66q-.26-.16-.39-.11a1.635,1.635,0,0,0-.45.47.465.465,0,0,0-.08.12.7.7,0,0,1-.3.24,5.79,5.79,0,0,1-1,.08q-.54.02-2.54,0h-1.1q-4.46,0-4.98-.06a.588.588,0,0,1-.14-.02h-.36a1.448,1.448,0,0,0,.14.41A2.023,2.023,0,0,0-13.36.92ZM-9.3-.66q.08.16.61-.01a2.027,2.027,0,0,0,.83-.47,4.125,4.125,0,0,0,.77-2.17A42.318,42.318,0,0,0-6.72-8.3a13.92,13.92,0,0,1,.11-1.73q.07-.33.29-.33a.267.267,0,0,1,.27.16,3.508,3.508,0,0,1,.15.72A19.39,19.39,0,0,0-4.88-5.2a1.6,1.6,0,0,1,.15.79,3.127,3.127,0,0,1-.47.91A12.121,12.121,0,0,1-6.6-1.86q-.72.66-.28.66a3.125,3.125,0,0,0,.89-.67A10.606,10.606,0,0,0-4.82-3.06q.4-.48.6-.44t.66.68a5.814,5.814,0,0,0,.99,1.13q.47.39.61.19a.983.983,0,0,1,.62-.42q.16-.06.13-.13a1.146,1.146,0,0,0-.31-.27A7.619,7.619,0,0,1-3.28-3.98a1.459,1.459,0,0,1-.33-.67,2.2,2.2,0,0,1,.25-.81,17.626,17.626,0,0,0,1.1-3.8q.22-1.18.48-1.18.62,0-.16-.74a2.151,2.151,0,0,0-.45-.39q-.09-.03-.31.17a1.063,1.063,0,0,1-.52.3q-.24.04-1.38.06-1.18,0-1.44-.02a.605.605,0,0,1-.38-.12.292.292,0,0,1-.08-.32.45.45,0,0,1,.27-.27q.21-.09.14-.26a2.288,2.288,0,0,0-.49-.57,2.138,2.138,0,0,0-.41-.33q-.11-.05-.19.09a.908.908,0,0,1-.42.42,2.436,2.436,0,0,1-.84.1q-.78,0-.89-.17t.15-1.01q.04-.12.1-.34a1.2,1.2,0,0,1,.26-.56,1.208,1.208,0,0,1,.74-.22q.4-.02,1.86-.02H-5.1q2.46,0,2.92-.02a1.38,1.38,0,0,0,.56-.06q.46-.26-.58-1.1a1.374,1.374,0,0,0-.6-.36q-.14,0-.42.36-.04.06-.12.16a.939.939,0,0,1-.36.34,3.1,3.1,0,0,1-.94.12H-6.98q-.7-.02-1.1-.02-4.4,0-5.16-.12-.16-.04-.15.07a1.6,1.6,0,0,0,.17.43.233.233,0,0,1,.04.06q.14.32.23.36a1.06,1.06,0,0,0,.45-.02.327.327,0,0,1,.08-.02q2.28-.44,2.54.08a2.2,2.2,0,0,1-.17,1.01q-.25.85-.63,1.79a1.714,1.714,0,0,0-.18.56q.02.08.34.12a.979.979,0,0,0,.37-.02q.11-.04.21-.26a.931.931,0,0,1,.38-.47,4.1,4.1,0,0,1,1.02-.07h.26a1.348,1.348,0,0,1,.66.1,1.144,1.144,0,0,1,.22.74q.02.42-.04,2-.02.54-.04.86Q-7.6-4.76-7.76-3.7a2.273,2.273,0,0,1-.76,1.66,3.212,3.212,0,0,1-1.72.14,5.439,5.439,0,0,0-.61-.03q-.11.01-.11.15a.142.142,0,0,0,.09.14,4.329,4.329,0,0,0,.47.14,2.059,2.059,0,0,1,.77.28q.31.2.31.42a.421.421,0,0,0,.01.07A.421.421,0,0,1-9.3-.66Zm-1.72-4.26a2.081,2.081,0,0,1-.62-.06.426.426,0,0,1-.23-.36q-.03-.26-.05-1.7v-.28q0-1.12.02-1.4.04-.42.22-.52a1.21,1.21,0,0,1,.56-.08h.22a1.576,1.576,0,0,1,.56.06q.16.1.2.48.02.26.02,1.26v.38q0,1.5-.03,1.77A.426.426,0,0,1-10.4-5,1.5,1.5,0,0,1-11.02-4.92Zm6.84-.96a.172.172,0,0,1-.18-.06A5,5,0,0,1-4.94-7.3a14.466,14.466,0,0,1-.5-2.1q-.08-.52-.1-.6-.04-.24.52-.4a3.083,3.083,0,0,1,1.12-.12q.64.04.8.26a5.11,5.11,0,0,1-.22,2.09A6.882,6.882,0,0,1-3.98-6,.316.316,0,0,1-4.18-5.88ZM4.66,1.4a.49.49,0,0,0,.4-.01,1.559,1.559,0,0,0,.48-.27q.06-.04.06-.29T5.54-.8q-.02-.4-.02-.62-.06-1.42-.04-3.66a15.182,15.182,0,0,1,.08-2.4.47.47,0,0,1,.25-.23,3.483,3.483,0,0,1,.63-.15q.66-.12.86.06a2.852,2.852,0,0,1,.46,1.1.4.4,0,0,0,.27.29A.338.338,0,0,0,8.4-6.5a1.058,1.058,0,0,0,.09-1.11,3.759,3.759,0,0,0-.95-1.45A3.448,3.448,0,0,0,6.5-9.89q-.36-.13,0,.43.48.76.36.94t-1.22.26q-1.22.08-1.34-.06t.46-.94a26.139,26.139,0,0,0,2.2-3.44q.34-.58.49-.78a.488.488,0,0,1,.29-.22q.64-.12-.56-.72l-.02-.02a1.736,1.736,0,0,0-.52-.21q-.08.01-.18.29v.04A21.05,21.05,0,0,1,4.08-9.28a4.291,4.291,0,0,1-.77,1.04,2.3,2.3,0,0,1-1.03.2,2.122,2.122,0,0,0-.24.02,1.207,1.207,0,0,0-.52.08q-.06.06.08.44.04.1.06.16a1.694,1.694,0,0,0,.23.48q.07.06.25-.12A2.243,2.243,0,0,1,3.45-7.4q.99-.1,1.11.16a17.155,17.155,0,0,1,.08,2.81Q4.62-1.82,4.5.1a6.474,6.474,0,0,0-.03,1.01A.4.4,0,0,0,4.66,1.4Zm4.56-.26a.517.517,0,0,0,.34.1.636.636,0,0,0,.4-.14.489.489,0,0,0,.18-.2,1.38,1.38,0,0,0,.04-.42V.36a.579.579,0,0,1,.1-.4,1.582,1.582,0,0,1,.76-.14Q11.48-.2,13.1-.2h1.1q1.64,0,2.08.02a1.584,1.584,0,0,1,.76.16q.1.08.1.4V.52q-.02.46.1.55t.48-.11q.32-.14.36-.32a6.719,6.719,0,0,0,0-1.1q-.04-1.06-.06-7.18t.02-6.28a.943.943,0,0,1,.48-.46q.32-.14.21-.37a2.032,2.032,0,0,0-.69-.61.771.771,0,0,0-.4-.19q-.12.01-.36.27l-.06.06a.886.886,0,0,1-.59.26q-.39.04-2.49.04H13.1q-2.04,0-2.46-.03a2.286,2.286,0,0,1-.86-.25.776.776,0,0,1-.1-.04q-.44-.18-.52-.2-.08,0-.06.16a63.527,63.527,0,0,1,.22,6.64q.04,5.38-.14,8.18Q9.12.56,9.13.8A.6.6,0,0,0,9.22,1.14ZM1.38-.18q.26.2.77-.85A21.037,21.037,0,0,0,3.24-4a4.921,4.921,0,0,1,.29-.78.794.794,0,0,1,.27-.3q.48-.3-.16-.42Q3.56-5.52,3-5.68a.776.776,0,0,0-.1-.04q-.34-.12-.4-.06a1.133,1.133,0,0,0-.08.5v.14a11.819,11.819,0,0,1-.28,2.2,17.9,17.9,0,0,1-.72,2.4q-.08.22-.09.27T1.38-.18ZM11.72-.76a5.173,5.173,0,0,1-1.3-.06L10.4-.84a.506.506,0,0,1-.21-.43q-.03-.33-.03-2.23V-5.04q-.02-1.32.02-1.66.06-.48.28-.6a2.011,2.011,0,0,1,.76-.06h.9a2.178,2.178,0,0,1,.78.06q.22.12.28.62.04.36.02,1.72v.98q-.02,2.24-.04,2.63t-.2.49A4.666,4.666,0,0,1,11.72-.76Zm3.88,0a5.4,5.4,0,0,1-1.3-.08l-.02-.02q-.18-.08-.21-.41T14.04-3.5V-5.1q-.02-1.28.02-1.62.06-.48.28-.58a2.1,2.1,0,0,1,.78-.06h.96a2.1,2.1,0,0,1,.78.06q.22.1.28.58.04.34.02,1.62v1.6q0,1.9-.03,2.23t-.21.41l-.04.02A5.1,5.1,0,0,1,15.6-.76ZM7.56-1.58q.52.26.68-.45a3.1,3.1,0,0,0-.2-1.71,7.389,7.389,0,0,0-.75-1.38q-.55-.84-.71-.84-.24,0-.14.24a20.36,20.36,0,0,1,.63,2.07A7.786,7.786,0,0,1,7.36-2,.449.449,0,0,0,7.56-1.58Zm4.12-6.36a4.218,4.218,0,0,1-1.3-.1q-.16-.1-.19-.49t-.03-2.61v-.96q-.02-1.26.02-1.6.06-.48.28-.58a1.888,1.888,0,0,1,.72-.08h.42q.16,0,.44-.02a2.364,2.364,0,0,1,.82.06q.24.12.3.6.04.32.04,1.6v.88q0,2.26-.03,2.66a.656.656,0,0,1-.21.52A4.1,4.1,0,0,1,11.68-7.94Zm5.24-.08a5.214,5.214,0,0,1-1.32.08,4.435,4.435,0,0,1-1.34-.12q-.16-.08-.19-.47t-.03-2.61v-.98q-.02-1.26.02-1.6a.7.7,0,0,1,.3-.58,2.364,2.364,0,0,1,.82-.06h.92a1.653,1.653,0,0,1,.76.08q.22.1.28.58.04.34.02,1.62v.94q0,2.22-.03,2.61A.643.643,0,0,1,16.92-8.02ZM3.8-10.7q.42.2.58-.2.22-.56-.6-1.62a.546.546,0,0,1-.15-.36.971.971,0,0,1,.21-.44q.46-.66,1.02-1.58.52-.9.74-.96.54-.12-.26-.56a4.03,4.03,0,0,0-.83-.35q-.19-.03-.19.17a8.748,8.748,0,0,1-.52,1.9,9.419,9.419,0,0,1-.44,1.14q-.18.34-.38.36a1.828,1.828,0,0,1-.62-.2,3.209,3.209,0,0,0-.46-.19.14.14,0,0,0-.17.05q-.05.08.35.48A9.343,9.343,0,0,1,3.16-11.8a2.344,2.344,0,0,1,.52.98Q3.68-10.76,3.8-10.7Z" transform="translate(608 801)" fill="#fff"/>
    <path id="路径_7076" data-name="路径 7076" d="M-10.6,1.44a.675.675,0,0,0,.44.02,1.347,1.347,0,0,0,.54-.26A.559.559,0,0,0-9.35.89,5.573,5.573,0,0,0-9.36,0q-.06-1.26-.07-2.55A12.777,12.777,0,0,1-9.4-4.02a.39.39,0,0,1,.32-.3q.24-.04,1.58-.04h.88a10,10,0,0,1,1.18.04A.521.521,0,0,1-5-3.98a3.826,3.826,0,0,1,.04.92v.64a6.331,6.331,0,0,1-.08,1.1.492.492,0,0,1-.44.38A6.98,6.98,0,0,1-6.64-.96a.843.843,0,0,0-.14-.02q-.12,0-.34-.02a1.5,1.5,0,0,0-.64.02q-.16.16.46.3a2.62,2.62,0,0,1,1.1.45.876.876,0,0,1,.4.69q0,.26.63.13A1.994,1.994,0,0,0-4.18.12a1.173,1.173,0,0,0,.35-.7,15.118,15.118,0,0,0,.07-1.86A9.481,9.481,0,0,1-3.7-3.9q.06-.24.43-.39t.23-.4a2.977,2.977,0,0,0-.88-.73,1.515,1.515,0,0,0-.54-.28q-.1,0-.36.28a.6.6,0,0,0-.06.08,1,1,0,0,1-.5.33,10.845,10.845,0,0,1-1.42.05h-.78A12.709,12.709,0,0,1-8.9-5q-.38-.04-.48-.22a1.755,1.755,0,0,1-.06-.6v-.2q0-.76.17-.89a3.042,3.042,0,0,1,1.23-.13h.08a5.44,5.44,0,0,1,1.26.08q.22.08.26.46.04.46,1-.04l.02-.02a.385.385,0,0,0,.23-.29A9.916,9.916,0,0,0-5.2-8.04v-.04a9.782,9.782,0,0,1,.02-1.55.652.652,0,0,1,.38-.47.62.62,0,0,0,.26-.17q.04-.07-.04-.19a2.793,2.793,0,0,0-.6-.63,2.025,2.025,0,0,0-.68-.45.161.161,0,0,0-.15.04q-.07.06-.39.42a.6.6,0,0,0-.06.08.855.855,0,0,1-.57.24q-.39.04-2.55.04h-1.36q-1.88,0-2.27-.04a2.612,2.612,0,0,1-.85-.26l-.2-.1a1.449,1.449,0,0,0-.51-.2q-.07.02-.03.38a19.053,19.053,0,0,1,.07,1.92q.01,1.5-.03,2.06a2.524,2.524,0,0,0,.01.74q.05.12.37.12a1.179,1.179,0,0,0,.6-.15q.26-.15.26-.33a.34.34,0,0,1,.23-.36,5.1,5.1,0,0,1,1.15-.1h.16a2.842,2.842,0,0,1,1.14.12q.16.12.16.84v.28a1.866,1.866,0,0,1-.06.6q-.08.16-.46.22-.26.02-1.24.02h-.74q-1.28,0-1.57-.04a2.959,2.959,0,0,1-.77-.26l-.12-.06a3.545,3.545,0,0,0-.64-.27q-.1-.01-.06.19.08.72.11,2.42t-.03,2.82q-.02.66.13.8t.69-.08a.877.877,0,0,0,.48-.33,2.224,2.224,0,0,0,.04-.83q-.1-1.96-.07-2.75t.23-.91a8.286,8.286,0,0,1,1.91-.12,8.309,8.309,0,0,1,1.93.08q.22.14.24,1.44.04,1.34-.12,3.52a1.6,1.6,0,0,0,.01.56A.333.333,0,0,0-10.6,1.44Zm.74-9.04q-3.16.04-3.34-.02a.471.471,0,0,1-.27-.35A4.435,4.435,0,0,1-13.52-9v-.3a1.228,1.228,0,0,1,.1-.62q.12-.18.68-.22.38-.02,1.84-.02h1.84q1.46,0,1.84.02.56.04.68.22a1.228,1.228,0,0,1,.1.62V-9q0,.68-.02.92a.568.568,0,0,1-.16.36A26.483,26.483,0,0,1-9.86-7.6Zm-8.34-2a1.028,1.028,0,0,0,1.28-.37,3.709,3.709,0,0,0,.86-1.91.52.52,0,0,0,.02-.16.307.307,0,0,1,.2-.3,5.973,5.973,0,0,1,1.2-.12q.68-.02,3.26-.02h3.3q2.68,0,3.36.04.96.06,1.08.32.1.18-.24.86-.14.28-.22.46a1.748,1.748,0,0,0-.13.33.1.1,0,0,0,.07.11q.14.08.44-.15t1.06-.97a7.781,7.781,0,0,1,.7-.65.97.97,0,0,1,.38-.17q.4-.08.29-.34a3.693,3.693,0,0,0-.81-.9q-.38-.36-.5-.36a1.418,1.418,0,0,0-.52.4l-.06.06a1.314,1.314,0,0,1-.54.35,8.64,8.64,0,0,1-1.26.05h-.34a10.782,10.782,0,0,1-1.26-.04q-.32-.08-.14-.36a11.253,11.253,0,0,1,.9-.96l.12-.12a5.371,5.371,0,0,1,1.18-1.02q.34-.08.19-.24a3.9,3.9,0,0,0-.89-.52l-.12-.06a2.888,2.888,0,0,0-.72-.3q-.12.02-.24.36a.116.116,0,0,1-.02.08,14.077,14.077,0,0,1-.86,2.06q-.48.92-.76,1.04a1.443,1.443,0,0,1-.58.08,1.243,1.243,0,0,1-.58-.06q-.32-.14-.32-1.25a2.156,2.156,0,0,1,.32-1.43q.24-.22.01-.4a4.07,4.07,0,0,0-1.13-.44,1.384,1.384,0,0,0-.16-.04q-.38-.12-.43-.06a1.314,1.314,0,0,0,.01.56,1.654,1.654,0,0,1,.02.22,20.06,20.06,0,0,1,.12,2.02q0,.6-.26.76a2.17,2.17,0,0,1-.92.12,2.942,2.942,0,0,1-.98-.1q-.22-.1-.02-.38a1.129,1.129,0,0,0-.04-1.31,3.326,3.326,0,0,0-1.44-1.25,2.607,2.607,0,0,0-1-.36q-.24.02.14.42a6.664,6.664,0,0,1,.9,1.3,2.907,2.907,0,0,1,.44,1.14.194.194,0,0,0,.04.1l.02.04q.38.4-1.08.4a3.035,3.035,0,0,1-1-.1.64.64,0,0,1-.3-.5q-.08-.36-.22-.36a.124.124,0,0,0-.13.08,2.2,2.2,0,0,0-.07.36,3.405,3.405,0,0,1-.43,1.44,3.777,3.777,0,0,1-.97,1.18,1.369,1.369,0,0,0-.54.77A.515.515,0,0,0-18.2-9.6ZM1.28,1.38Q1.5,1.6,2.5.58A8.864,8.864,0,0,0,3.97-1.37,15.428,15.428,0,0,0,5.06-4.14q.16-.52.4-.47t.78.73a6.717,6.717,0,0,1,1.2,2.1q.2.58.67.42a.714.714,0,0,0,.45-.8q0-1.58-2.52-2.92a1.488,1.488,0,0,1-.58-.45,2.575,2.575,0,0,1-.02-.93,2.709,2.709,0,0,1,.02-.28q.04-.76.23-.88a3.692,3.692,0,0,1,1.27-.14h.36q1.24-.02,1.47-.05a.28.28,0,0,0,.27-.23q.04-.14-.28-.52A5.219,5.219,0,0,0,8-9.3q-.28-.2-.4-.17t-.38.39a2.362,2.362,0,0,1-.5.6.937.937,0,0,1-.52.12.842.842,0,0,1-.46-.08.8.8,0,0,1-.16-.5q-.02-.28-.02-1.36v-.44a8.937,8.937,0,0,1,.04-1.1.466.466,0,0,1,.32-.4,6.039,6.039,0,0,1,.9-.04H7.2a3.378,3.378,0,0,0,1.49-.16q.15-.16-.55-.86a2.306,2.306,0,0,0-.77-.61q-.19-.03-.52.42a2.21,2.21,0,0,1-.55.58.49.49,0,0,1-.48.01q-.32-.14-.31-1.35t.33-1.47q.26-.2.06-.37a3.556,3.556,0,0,0-.98-.43,4.53,4.53,0,0,0-.63-.18q-.15-.02-.15.08a12.781,12.781,0,0,1,.1,3.56q-.08.18-.76.22a8.141,8.141,0,0,1-1.56-.08q-.32-.04-.35.01t.15.45a.776.776,0,0,1,.04.1q.14.26.22.29a1.035,1.035,0,0,0,.42-.05.329.329,0,0,1,.1-.02q1.42-.34,1.76.12a6.866,6.866,0,0,1,.1,1.57A9.3,9.3,0,0,1,4.3-8.72q-.16.6-2.7.28-.38-.04-.41.01t.17.45a1.353,1.353,0,0,0,.23.41q.07.05.29-.01h.04a4.462,4.462,0,0,1,1.84-.19A.668.668,0,0,1,4.28-7a13.6,13.6,0,0,1-.77,4.47A9.793,9.793,0,0,1,1.46.96a1.561,1.561,0,0,0-.24.27Q1.2,1.28,1.28,1.38Zm5.88.1q.06.06.34-.04.1-.04.16-.06A7.814,7.814,0,0,0,11.08-.68a6.859,6.859,0,0,0,1.54-3.46,1.719,1.719,0,0,1,.24-.77.759.759,0,0,1,.58-.13h.1a.583.583,0,0,1,.4.12,1.311,1.311,0,0,1,.16.66q.02.38.02,1.78v1.06a17.5,17.5,0,0,0,.06,1.9.79.79,0,0,0,.44.7,5.047,5.047,0,0,0,1.18.08h.4a8.862,8.862,0,0,0,2.16-.17q.56-.17.56-.63a1.111,1.111,0,0,0-.26-.54,3.437,3.437,0,0,1-.2-1.5,4.1,4.1,0,0,0-.06-1,.087.087,0,0,0-.12.02.323.323,0,0,0-.08.18q-.02.14-.08.4a13.556,13.556,0,0,1-.3,1.46.786.786,0,0,1-.38.52,2.357,2.357,0,0,1-.78.08h-.42a2.161,2.161,0,0,1-.66-.06q-.2-.1-.26-.5a13.33,13.33,0,0,1-.04-1.36v-.52q0-1.44.02-1.82a1.736,1.736,0,0,1,.12-.72.541.541,0,0,1,.34-.14.5.5,0,0,1,.6.52q.02.22.41.18a1.54,1.54,0,0,0,.75-.3.351.351,0,0,0,.16-.21,4.286,4.286,0,0,0-.02-.67q-.02-.24-.04-1.02-.02-.5-.02-.7-.04-1.06-.04-4.05t.04-3.09a.8.8,0,0,1,.44-.42q.22-.12.24-.2t-.12-.26a2.743,2.743,0,0,0-.42-.46,2.893,2.893,0,0,0-.5-.4q-.22-.14-.32-.09a2.15,2.15,0,0,0-.42.47l-.02.02a.75.75,0,0,1-.52.35q-.32.05-2.06.05h-.68q-1.64,0-2-.04a3.2,3.2,0,0,1-.9-.28q-.1-.04-.16-.06a3.864,3.864,0,0,0-.67-.25q-.11-.01-.07.15a33.267,33.267,0,0,1,.22,4.37Q9.66-8.3,9.5-5.38a5.466,5.466,0,0,0,0,1.26q.22.3.76.13t.54-.55a.372.372,0,0,1,.24-.39.239.239,0,0,1,.34.17,2.591,2.591,0,0,1-.08,1.14,6.187,6.187,0,0,1-1.2,2.7A7.481,7.481,0,0,1,7.62,1a2.036,2.036,0,0,0-.46.29A.133.133,0,0,0,7.16,1.48Zm8.9-7.14a16.672,16.672,0,0,1-2.5.06,16.72,16.72,0,0,1-2.48-.08q-.3-.14-.32-1.27t.28-1.31a13.916,13.916,0,0,1,2.55-.08,13.859,13.859,0,0,1,2.53.12q.3.2.27,1.3T16.06-5.66ZM13.58-8.9A13.781,13.781,0,0,1,11.04-9q-.26-.16-.26-1.25t.26-1.25a13.916,13.916,0,0,1,2.55-.08,13.859,13.859,0,0,1,2.53.12q.26.16.26,1.22t-.26,1.22A13.961,13.961,0,0,1,13.58-8.9Zm0-3.24a13.781,13.781,0,0,1-2.54-.1q-.26-.16-.26-1.23t.26-1.23a13.916,13.916,0,0,1,2.55-.08,13.859,13.859,0,0,1,2.53.12q.26.16.26,1.2t-.26,1.2A13.961,13.961,0,0,1,13.58-12.14Z" transform="translate(848 801)" fill="#fff"/>
    <path id="路径_7077" data-name="路径 7077" d="M-17.92,1.48q.06.04.13-.04a.4.4,0,0,0,.09-.2A5.342,5.342,0,0,1-16.9.18q.26-.28.68-.8.58-.74.78-.79t.56.43A4.879,4.879,0,0,0-11.36.98a48.113,48.113,0,0,0,5.31.16q3.93-.02,3.99-.22a1.556,1.556,0,0,1,.78-1,.415.415,0,0,0,.26-.26Q-.98-.5-1.2-.42q-.1.04-4.6.06-4.52,0-5.06-.04A6.564,6.564,0,0,1-14.6-1.56l-.06-.06a.969.969,0,0,1-.42-.52,11.662,11.662,0,0,1-.08-1.56v-.56a10.572,10.572,0,0,1,.05-1.41q.05-.23.39-.37a.217.217,0,0,0,.08-.04q.4-.2.24-.5a4.047,4.047,0,0,0-1-.94q-.44-.34-.58-.31t-.46.47a1.5,1.5,0,0,1-.73.6,5.82,5.82,0,0,1-1.53-.06q-.22-.02-.22.04a1.507,1.507,0,0,0,.2.47q.2.37.26.37l.12-.04q.14-.04.24-.06,1.32-.34,1.48.24a13.542,13.542,0,0,1,.06,2.14,9.55,9.55,0,0,1-.12,2.04A5.647,5.647,0,0,1-18.46-.44q-.34.16-.34.26a6.8,6.8,0,0,0,.42.85A6.876,6.876,0,0,0-17.92,1.48ZM-4.2-1.06q.04.1.8-.08a1.4,1.4,0,0,0,1.06-.82,36.618,36.618,0,0,0,.1-3.74v-.22q.02-2.9.04-3.4a1.141,1.141,0,0,1,.16-.66,1.163,1.163,0,0,1,.3-.2q.32-.16.25-.36a2.226,2.226,0,0,0-.61-.66,3.357,3.357,0,0,0-.86-.61q-.2-.05-.46.33a1.646,1.646,0,0,1-.52.55,2.649,2.649,0,0,1-.88.09q-.84,0-.96-.15t.34-.67q.08-.1.36-.42.2-.24.28-.34.58-.72.8-.76.2-.04.19-.14t-.23-.22q-.34-.18-.24-.34.04-.08.31-.11t1.19-.05q.98-.02,1.19-.05a.313.313,0,0,0,.27-.17q.12-.32-1.1-1.2-.44-.34-.58-.32-.14,0-.4.34a.465.465,0,0,0-.08.12,2.263,2.263,0,0,1-.66.63,4.01,4.01,0,0,1-1.12.09h-.28a10.249,10.249,0,0,1-1.2-.06q-.18-.04-.26-.3V-15a1.272,1.272,0,0,1,.01-.57.577.577,0,0,1,.21-.39q.62-.34-1.4-.9a.9.9,0,0,0-.39-.05q-.07.03-.03.31.22,1.62-.12,1.9a8.372,8.372,0,0,1-1.94.1q-1.82,0-3.08-.1-.26-.04-.28.03a1.249,1.249,0,0,0,.18.47l.04.08q.14.26.22.29a1.138,1.138,0,0,0,.44-.05.329.329,0,0,1,.1-.02,2.333,2.333,0,0,1,1.51-.03,2.338,2.338,0,0,1,.77,1.28,3.3,3.3,0,0,1,.28,1.42q-.08.37-.68.37a2.041,2.041,0,0,1-.53-.05q-.17-.05-.79-.31-.12-.06-.22-.1l-.02-.02a1.486,1.486,0,0,0-.57-.21q-.07.03-.01.47v.06a43.945,43.945,0,0,1,.16,4.44q0,2.66-.06,3.36-.08,1.22-.06,1.58.04.48.26.52a1.394,1.394,0,0,0,.72-.14q.52-.2.6-.4a4.4,4.4,0,0,0,.04-1.2q-.06-1.4-.06-4.2-.02-2.82.04-2.96a.358.358,0,0,1,.31-.23q.23-.03,1.37-.03h.12q.86.02,1.08.04.32.04.4.22a1.392,1.392,0,0,1,.06.54v.06a.729.729,0,0,1-.54.79A8.006,8.006,0,0,1-11.1-8.7q-.2-.02-.21.04a1.536,1.536,0,0,0,.17.44,1.323,1.323,0,0,0,.23.39q.07.05.29-.01a4.393,4.393,0,0,1,1.79-.17q.49.13.49.79,0,.68-.27.78t-1.13-.3a2.76,2.76,0,0,0-.58-.24q-.1-.02-.06.18a18.336,18.336,0,0,1,.1,1.92q.02,1.32-.04,2a1.435,1.435,0,0,0,.05.7q.09.14.45.06.74-.16.74-.52,0-.3.68-.4a3.752,3.752,0,0,1,1.28.02q.7.12.72.42a.292.292,0,0,0,.04.12.414.414,0,0,0,.16.04,2.516,2.516,0,0,1,.28.08.692.692,0,0,0,.34.12q1.16.22,1.32,1A.62.62,0,0,0-4.2-1.06Zm.22-1.5a2.155,2.155,0,0,1-1.04.06q-.16-.02-.19-.23t-.03-1.33a12.145,12.145,0,0,1,.06-1.3.531.531,0,0,1,.26-.34q.34-.2.32-.37a1.57,1.57,0,0,0-.44-.61,1.763,1.763,0,0,0-.61-.48q-.15-.02-.41.3-.48.56-.82.43t-.3-.87a1.367,1.367,0,0,1,.08-.5q.08-.16.44-.2.24-.02,1.16-.04a3.4,3.4,0,0,0,1.54-.2q.18-.18-.52-.82-.46-.4-.64-.4-.16,0-.46.42a.948.948,0,0,1-.8.46A.808.808,0,0,1-7.1-8.9a.741.741,0,0,1,0-.84.8.8,0,0,1,.49-.45,6.45,6.45,0,0,1,1.39-.09q1.24,0,1.49.29t.01,1.39a1.332,1.332,0,0,0,0,.46q.06.3.06,2.74v.44q0,1.7-.03,2a.4.4,0,0,1-.25.38ZM-6.7-3.66a3.308,3.308,0,0,1-1.04.06A3.7,3.7,0,0,1-8.8-3.68q-.22-.1-.29-.83A2.066,2.066,0,0,1-9-5.56q.16-.3,1.22-.32t1.28.3a1.651,1.651,0,0,1,.1,1.03Q-6.48-3.76-6.7-3.66Zm-9.56-5.72a.647.647,0,0,0,.75-.17.843.843,0,0,0,.17-.85q-.38-1.42-2.82-1.8-.36-.06-.43.02t.19.26a7.621,7.621,0,0,1,1.1,1.14,4.731,4.731,0,0,1,.76,1.12A.481.481,0,0,0-16.26-9.38Zm8.4-1.46a6.521,6.521,0,0,1-1.06-.02q-.32-.14-.18-.54a1.286,1.286,0,0,0-.03-.93,2.271,2.271,0,0,0-.65-.89,2.437,2.437,0,0,1-.56-.56q-.06-.18.4-.22.34-.02,1.7-.04,1.54,0,1.83.02a.623.623,0,0,1,.39.12q.22.22-.13,1.49t-.69,1.47A4.445,4.445,0,0,1-7.86-10.84Zm-7.84-2.54a.673.673,0,0,0,.74-.11.884.884,0,0,0,.24-.75,1.513,1.513,0,0,0-.4-.94,4.3,4.3,0,0,0-1.61-.94q-1.15-.44-1.15-.12a2.289,2.289,0,0,0,.44.5,6.487,6.487,0,0,1,1.32,1.78,2.22,2.22,0,0,1,.14.3l.12.22.04.02A.62.62,0,0,1-15.7-13.38ZM9.2,1.54a.952.952,0,0,0,.59.02,1.955,1.955,0,0,0,.73-.34.674.674,0,0,0,.32-.34,4,4,0,0,0,0-.84q-.12-2.52-.12-4.9v-.28a1.9,1.9,0,0,1,.08-.7q.1-.2.52-.24.3-.04,1.42-.04h1.08q1.2,0,1.52.02.46.04.56.2a1.266,1.266,0,0,1,.04.52v.16q-.02.58.12.7t.7-.02a1.446,1.446,0,0,0,.82-.37,1.718,1.718,0,0,0,.1-.91q-.12-2.48-.12-4.7a4.325,4.325,0,0,1,.09-.98.755.755,0,0,1,.4-.37q.33-.17.2-.42a2.84,2.84,0,0,0-.81-.73l-.02-.02a1.852,1.852,0,0,0-.7-.4q-.16,0-.54.38l-.1.1a1.044,1.044,0,0,1-.57.35,15.725,15.725,0,0,1-1.71.05H12.58a12.047,12.047,0,0,1-1.3-.04q-.4-.04-.48-.28a2.364,2.364,0,0,1-.06-.82v-.44a9.7,9.7,0,0,1,.05-1.28.55.55,0,0,1,.25-.4q.34-.2-.05-.43a7.518,7.518,0,0,0-1.65-.55q-.32-.1-.36-.05a1,1,0,0,0,0,.43q.12.96.16,2.19a4.69,4.69,0,0,1-.06,1.41.477.477,0,0,1-.42.23q-.32.03-2.16.03H5.96q-1.4,0-1.74-.04a3.365,3.365,0,0,1-.94-.32A1.542,1.542,0,0,0,3.1-13a8.017,8.017,0,0,0-.88-.36q-.06,0-.06.1t.06.66q.14,1.34.15,3.63T2.26-4.86q-.08,1.08,1.24.44a.874.874,0,0,0,.41-.3,1.534,1.534,0,0,0,.07-.58v-.16a1.085,1.085,0,0,1,.06-.46A.874.874,0,0,1,4.6-6.1q.3-.02,1.46-.02h.5q1.78,0,2.1.03a.464.464,0,0,1,.42.25,11.117,11.117,0,0,1,.08,2.22q-.02,2-.14,4a4.362,4.362,0,0,0,0,.88A.326.326,0,0,0,9.2,1.54ZM8.92-6.74a12.331,12.331,0,0,1-2.39.08,12.283,12.283,0,0,1-2.37-.12.506.506,0,0,1-.21-.43q-.03-.33-.03-2.13v-.84a7.426,7.426,0,0,1,.04-1.3.627.627,0,0,1,.46-.48A7.391,7.391,0,0,1,5.7-12H7.42a6.852,6.852,0,0,1,1.24.04.552.552,0,0,1,.46.46,7.391,7.391,0,0,1,.04,1.28v.88q0,1.84-.03,2.16A.557.557,0,0,1,8.92-6.74Zm4.44.08a10.549,10.549,0,0,1-2.4-.12.506.506,0,0,1-.21-.43q-.03-.33-.03-2.13v-.84a7.588,7.588,0,0,1,.04-1.3.627.627,0,0,1,.46-.48A7.391,7.391,0,0,1,12.5-12h1.72a7.391,7.391,0,0,1,1.28.04.627.627,0,0,1,.46.48,7.587,7.587,0,0,1,.04,1.3v.84q0,1.8-.03,2.13a.506.506,0,0,1-.21.43A10.364,10.364,0,0,1,13.36-6.66Z" transform="translate(968 801)" fill="#fff"/>
    <path id="路径_7078" data-name="路径 7078" d="M-15.82,1.6a1.154,1.154,0,0,0,.88-.02,1.654,1.654,0,0,0,.86-.46A2.409,2.409,0,0,0-14.04.2q-.14-2.7-.12-4.8a5.773,5.773,0,0,1,.19-2.18q.17-.06.63.84a3.407,3.407,0,0,1,.46,1.32q0,.32.47.42a.8.8,0,0,0,.75-.16q.62-.58.08-1.59A4.508,4.508,0,0,0-13.46-7.7a1.669,1.669,0,0,1-.5-.35.832.832,0,0,1-.16-.39q-.02-.44.19-.52a6.313,6.313,0,0,1,1.39-.08,3.732,3.732,0,0,0,1.73-.2q.19-.2-.67-.94a3.074,3.074,0,0,0-.89-.65q-.19-.03-.55.49-.48.68-.85.71t-.35-.59v-1.02q-.04-3.22,0-3.82.04-.66.28-.8.28-.16.05-.33a4.327,4.327,0,0,0-1.07-.43l-.24-.06a3.654,3.654,0,0,0-.88-.22q-.12.02-.08.36v.08a34.955,34.955,0,0,1,.16,3.94v.58q.02,1.58-.01,1.86a.477.477,0,0,1-.19.38,4.993,4.993,0,0,1-1.3.07,7.026,7.026,0,0,1-1.5-.11q-.2-.06.08.5a1.323,1.323,0,0,0,.23.39q.07.05.27-.01a3.691,3.691,0,0,1,1.04-.18,1.147,1.147,0,0,1,.72.12q.34.28-.51,2.78A21.259,21.259,0,0,1-18.9-2.02a.52.52,0,0,1-.08.14,1.782,1.782,0,0,0-.17.34q-.01.06.07.12.14.12.85-.64a18.653,18.653,0,0,0,1.51-1.88,2.375,2.375,0,0,1,.55-.61q.17-.09.25.19a14.464,14.464,0,0,1,.04,1.94Q-15.92-.66-16,.66a3.493,3.493,0,0,0-.01.7A.383.383,0,0,0-15.82,1.6Zm3.5-.28a.128.128,0,0,0,.14.06,11.024,11.024,0,0,1,2.08-.2q1.46-.06,4.92-.06,3.34,0,3.9-.02T-.66.94Q-.54.6-1.44-.44q-.28-.34-.42-.37t-.28.23q-.36.58-.52.32-.08-.12-.1-6.86t.06-6.94a.545.545,0,0,1,.38-.36q.5-.16.29-.48a4.838,4.838,0,0,0-1.23-.98q-.5-.34-.64-.3t-.5.56a.217.217,0,0,0-.04.08.736.736,0,0,1-.44.35,12.887,12.887,0,0,1-1.5.07H-7a11.212,11.212,0,0,1-1.39-.05,5.443,5.443,0,0,1-.97-.33q-.16-.06-.24-.1-.44-.18-.88-.34a2.032,2.032,0,0,0-.01.64,5.658,5.658,0,0,0,.09.88q.06.4.08,7.48Q-10.3.16-10.38.3q-.2.44-2.16.16-.18-.02-.18.03a2.175,2.175,0,0,0,.17.41A2.153,2.153,0,0,0-12.32,1.32Zm5.8-.76A17.036,17.036,0,0,1-8.32.54Q-8.56.46-8.6.08q-.04-.34-.04-2.1v-.66a6.874,6.874,0,0,1,.06-1.2.492.492,0,0,1,.38-.44,4.842,4.842,0,0,1,1.04-.04h1.2a4.558,4.558,0,0,1,1.02.04.572.572,0,0,1,.38.46A7.041,7.041,0,0,1-4.52-2.6v.72q0,1.7-.03,2A.42.42,0,0,1-4.76.5,16.54,16.54,0,0,1-6.52.56Zm1.76-5.54a7.54,7.54,0,0,1-1.83.08A7.522,7.522,0,0,1-8.4-5.02a.475.475,0,0,1-.2-.42q-.04-.3-.04-1.9v-.64a6.511,6.511,0,0,1,.06-1.16.483.483,0,0,1,.38-.42A4.842,4.842,0,0,1-7.16-9.6h1.18a4.842,4.842,0,0,1,1.04.04.526.526,0,0,1,.38.44,6.481,6.481,0,0,1,.04,1.2v.68q0,1.58-.03,1.87A.465.465,0,0,1-4.76-4.98ZM-6.58-10.1a9.331,9.331,0,0,1-1.78-.08.426.426,0,0,1-.23-.36q-.03-.26-.05-1.68v-.64a9.3,9.3,0,0,1,.02-1.2.526.526,0,0,1,.38-.44,5.451,5.451,0,0,1,1.06-.06h1.2a4.842,4.842,0,0,1,1.04.04.474.474,0,0,1,.38.4,5.326,5.326,0,0,1,.04,1.1v.66q0,1.52-.03,1.79a.426.426,0,0,1-.25.37A9.121,9.121,0,0,1-6.58-10.1Zm-11.06-.74q.66.32.96-.22a2.1,2.1,0,0,0,.08-1.44,4.264,4.264,0,0,0-.82-1.8q-1.36-1.78-.98-.18a14.233,14.233,0,0,1,.44,3.04.9.9,0,0,0,.06.38A.552.552,0,0,0-17.64-10.84Zm3.92.06a.231.231,0,0,0,.14.05q.04-.01.14-.15a13.448,13.448,0,0,0,1.68-2.64,2.306,2.306,0,0,1,.78-1.04q.26-.12.19-.23a1.226,1.226,0,0,0-.53-.27q-.48-.16-.98-.36a2.552,2.552,0,0,0-.58-.2q-.12,0-.12.18a12.042,12.042,0,0,1-.22,1.8q-.22,1.24-.46,2.16Q-13.86-10.84-13.72-10.78ZM2.92,1.7a1.238,1.238,0,0,0,.77-.06,1.653,1.653,0,0,0,.73-.4A.422.422,0,0,0,4.51.96q.01-.2-.03-1.3V-.46q-.04-1.2-.02-1.5.04-.46.26-.56A2.249,2.249,0,0,1,5.5-2.6h.08a1.757,1.757,0,0,1,.97.15,1.815,1.815,0,0,1,.15.99,2.132,2.132,0,0,1-.13,1q-.13.16-.79.16-1.16,0-.2.34a1.353,1.353,0,0,1,.78,1.22v.02q.06.32.15.36a1.479,1.479,0,0,0,.57-.06,1.712,1.712,0,0,0,.9-.4A2.8,2.8,0,0,0,8.3-.22q.06-.8.06-3.56,0-2.8.03-3.29t.21-.59l.04-.02a.6.6,0,0,0,.26-.16.211.211,0,0,1,.23-.02,1.134,1.134,0,0,1,.25.34.587.587,0,0,0,.41.26,1.167,1.167,0,0,0,.63-.06,4.04,4.04,0,0,1,.9-.16q.52-.02,2.38-.02h.28q1.4,0,1.76.02.5.02.56.12.04.08-.12.34l-.06.08-.02.02a1.184,1.184,0,0,1-.58.56,9.1,9.1,0,0,1-1.64.08h-.4a13.115,13.115,0,0,1-1.52-.05,4.025,4.025,0,0,1-.88-.31A.217.217,0,0,1,11-6.68a.877.877,0,0,1-.16-.08,2.38,2.38,0,0,0-.72-.26q-.1.02-.06.4a.843.843,0,0,1,.02.14q.06.9.06,2.46v.58a8.722,8.722,0,0,0,.07,1.26q.05.18.31.16h.12a.835.835,0,0,1,.6.13,1.985,1.985,0,0,1,.34.79q.4,1.34.12,1.58a3.432,3.432,0,0,1-1.22.1A10.765,10.765,0,0,1,8.82.46Q8.56.4,8.88,1a1.1,1.1,0,0,0,.06.14q.12.22.22.24a2.906,2.906,0,0,0,.62-.06.841.841,0,0,0,.2-.02q1.16-.14,5.1-.14h.34q2.36,0,2.96-.02.84-.04.92-.2.06-.1-.32-.5L18.94.4a4.37,4.37,0,0,0-1.07-.9q-.33-.14-.61.24a4.247,4.247,0,0,1-.7.75,1.561,1.561,0,0,1-.72.11q-.78,0-.8-.2t.7-.98q.7-.8.92-.84t.23-.16q.01-.12-.19-.2-.26-.14-.18-.32a.615.615,0,0,1,.42-.28,1.316,1.316,0,0,0,.6-.3,1.192,1.192,0,0,0,.06-.66,7.279,7.279,0,0,1-.02-1.62.821.821,0,0,1,.4-.6q.38-.2.3-.39a3.76,3.76,0,0,0-.82-.81q-.56-.48-.47-.6t.97-.16h.06a2.3,2.3,0,0,0,.84-.1q.16-.12.1-.23a4.238,4.238,0,0,0-.54-.57,3.423,3.423,0,0,1-.58-.65.214.214,0,0,1,.08-.31A13.771,13.771,0,0,0,18-11.42v-.18q.02-1.34.02-1.7a1.915,1.915,0,0,1,.1-.66.519.519,0,0,1,.26-.18q.4-.16.25-.47a3.157,3.157,0,0,0-.89-.87q-.44-.32-.58-.3-.14,0-.42.36-.56.7-1.04.5-.22-.1-.22-.48a.594.594,0,0,1,.2-.52q.42-.3-.98-.78-.32-.1-.36-.07t-.02.33q.24,1.92-.74,1.54a.516.516,0,0,1-.3-.48.528.528,0,0,1,.2-.54q.2-.14.01-.31a3.259,3.259,0,0,0-.85-.43,1.348,1.348,0,0,0-.46-.14q-.06.02-.04.26.14,1.4-.19,1.63t-1.65-.35q-.1-.04-.24-.1-.46-.2-.53-.16t-.01.5a1.654,1.654,0,0,1,.02.22,15.68,15.68,0,0,1,.11,3.05q-.11.91-.53.41-.12-.12-.24.04a.352.352,0,0,1-.26.1.239.239,0,0,1-.21-.1,8.028,8.028,0,0,1-.09-1.59,12.921,12.921,0,0,1,.04-1.77.674.674,0,0,1,.44-.5q.44-.14.31-.4a2.7,2.7,0,0,0-.87-.74,2.091,2.091,0,0,0-.74-.4q-.14,0-.44.42a1.047,1.047,0,0,1-.46.44,6.225,6.225,0,0,1-1.12.08H5.32a6.581,6.581,0,0,1-1.03-.05,6.581,6.581,0,0,1-.97-.35l-.04-.02a4.873,4.873,0,0,0-.73-.28q-.13-.02-.09.14a25.325,25.325,0,0,1,.19,2.6,14.407,14.407,0,0,1-.01,2.24.578.578,0,0,1-.15.34q-.11.1-.17-.04-.1-.2-.2-.11a.557.557,0,0,0-.12.37A2.487,2.487,0,0,1,1.26-9.4a1.031,1.031,0,0,0-.34.86.523.523,0,0,0,.4.5.95.95,0,0,0,.84-.26q.4-.3.52.24a30.575,30.575,0,0,1,.12,3.7q0,3.08-.12,5.1a3.211,3.211,0,0,0,0,.75A.313.313,0,0,0,2.92,1.7ZM13.94.52a.687.687,0,0,1-.65.03Q13.04.4,13.16.04,13.5-1,12.22-1.92a.9.9,0,0,1-.46-.58.429.429,0,0,1,.3-.46,9.519,9.519,0,0,1,1.8-.08,8.935,8.935,0,0,1,1.76.08q.44.26.19.46a.8.8,0,0,1-.77.02.5.5,0,0,0-.26-.06q-.06.02-.06.18a11.175,11.175,0,0,1-.36,2.22A.969.969,0,0,1,13.94.52ZM5.58-3.16A1.932,1.932,0,0,1,4.6-3.3q-.16-.14-.16-.9t.16-.9a1.932,1.932,0,0,1,.98-.14,1.932,1.932,0,0,1,.98.14q.16.14.16.9a3.026,3.026,0,0,1-.05.67.414.414,0,0,1-.19.27.321.321,0,0,1-.21.09Q6.14-3.16,5.58-3.16Zm10.06-.5a7.54,7.54,0,0,1-1.83.08A7.522,7.522,0,0,1,12-3.7q-.26-.16-.26-.96T12-5.62a7.522,7.522,0,0,1,1.81-.12,7.54,7.54,0,0,1,1.83.08q.28.16.28,1T15.64-3.66ZM5.58-5.8a3.185,3.185,0,0,1-.84-.06q-.2-.1-.28-.79a1.7,1.7,0,0,1,.08-.97Q4.7-7.9,5.56-7.9t1.06.28a1.446,1.446,0,0,1,.1.95q-.08.71-.3.81A3.185,3.185,0,0,1,5.58-5.8Zm3.5-2.32q-.02.16-.29-.1t-.21-.47q.06-.21.5-.51a.452.452,0,0,1,.4-.1q.16.06.16.31T10-8.7a1.324,1.324,0,0,0,.7-.12q.38-.16.43-.42a.415.415,0,0,1,.29-.34,19.571,19.571,0,0,1,2.36-.06q2.22,0,2.36.04a.507.507,0,0,1,.24.15.322.322,0,0,1,.1.21q0,.24.2.24.26,0,.1.37a.848.848,0,0,1-.48.49,28.1,28.1,0,0,1-2.86.04q-2.72,0-3.16-.06Q9.12-8.3,9.08-8.12ZM5.44-8.44a4.389,4.389,0,0,1-1.08-.08,4.638,4.638,0,0,1-1.49-.7q-.43-.36-.15-.66a.738.738,0,0,1,.47-.14q.35-.02,2.23-.02H7.28a2.608,2.608,0,0,1,.7.08.254.254,0,0,1,.16.2.466.466,0,0,1-.15.54.375.375,0,0,1-.51,0,.28.28,0,0,0-.19-.09q-.07.01-.19.17a2.268,2.268,0,0,1-.64.62A3.6,3.6,0,0,1,5.44-8.44Zm8.66-1.78q-.84.4-.84-.84a1.126,1.126,0,0,1,.22-.8q.22-.22.6-.02.34.16.34.84T14.1-10.22Zm2.16-.04a.588.588,0,0,1-.42.08.459.459,0,0,1-.32-.23,2.171,2.171,0,0,1-.06-.65,1.092,1.092,0,0,1,.23-.8.422.422,0,0,1,.57,0q.24.14.24.79T16.26-10.26Zm-4.52.1a.377.377,0,0,1-.22-.02.459.459,0,0,1-.32-.23,2.171,2.171,0,0,1-.06-.65,1.1,1.1,0,0,1,.24-.81q.24-.23.62.01.22.14.21.79t-.23.81A.682.682,0,0,1,11.74-10.16Zm-5-.54a.5.5,0,0,1-.42.08A.5.5,0,0,1,6-10.88a3.384,3.384,0,0,1-.08-.8q-.04-1.72.8-1.14.26.16.26,1.06T6.74-10.7Zm-2.26.06q-.24,0-.3-.1a1.182,1.182,0,0,1-.12-.6q-.02-.38-.02-1.58v-.58a11.167,11.167,0,0,1,.04-1.24q.04-.36.28-.44a2.1,2.1,0,0,1,.78-.06h.34a3.573,3.573,0,0,1,1.26.12q.2.12.2.76,0,.76-.32.84a2.922,2.922,0,0,1-1.4-.42.233.233,0,0,0-.06-.04q-.32-.14-.36-.1a.936.936,0,0,0,0,.42v.08a20.007,20.007,0,0,1,.12,2.13q-.02.61-.2.75A.4.4,0,0,1,4.48-10.64Zm7.48-1.94a.459.459,0,0,1-.71-.22,1.413,1.413,0,0,1-.07-1.14.452.452,0,0,1,.31-.31.551.551,0,0,1,.47.03q.26.16.26.82T11.96-12.58Zm2.2-.04a.494.494,0,0,1-.65.03,1.021,1.021,0,0,1-.27-.81,1.021,1.021,0,0,1,.27-.81.494.494,0,0,1,.65.03q.26.16.26.78T14.16-12.62Zm2.06.04a.473.473,0,0,1-.57-.05,1.086,1.086,0,0,1-.21-.77,1.086,1.086,0,0,1,.21-.77.473.473,0,0,1,.57-.05q.28.14.28.82T16.22-12.58Z" transform="translate(1088 801)" fill="#fff"/>
    <g id="组_4853" data-name="组 4853" transform="translate(0 905)">
      <rect id="矩形_3599" data-name="矩形 3599" width="1148" height="56" fill="#ff6baa"/>
      <path id="路径_7086" data-name="路径 7086" d="M-86.664.264a6.978,6.978,0,0,0,4.632-.756,5.163,5.163,0,0,0,2.64-3.276,5.961,5.961,0,0,0-.264-4.008,5.029,5.029,0,0,0-2.592-2.544,7.2,7.2,0,0,0-4.3-.456,1.011,1.011,0,0,0-.168.024,2.765,2.765,0,0,1-.864.072q-.264-.072-.288-.528-.024-.312.048-1.56a1.984,1.984,0,0,0,.024-.264q.024-.312.024-.792a3.735,3.735,0,0,1,.168-1.152q.144-.336.744-.432.432-.048,1.992-.048h1.392q2.064-.024,2.616-.048a1.591,1.591,0,0,0,.96-.288,1.322,1.322,0,0,0,.144-.768,1.168,1.168,0,0,0-.168-.768,2.056,2.056,0,0,0-1.128-.288q-.648-.024-3.072-.048-4.368,0-4.416.048t-.3,3.84q-.252,3.792-.228,4.08a.4.4,0,0,0,.24.384.92.92,0,0,0,.6.048,12.13,12.13,0,0,1,1.7-.288A3.992,3.992,0,0,1-82.788-8.22a5.108,5.108,0,0,1,.828,4.26,3.947,3.947,0,0,1-1.5,2.616,3.977,3.977,0,0,1-2.94.72,1.4,1.4,0,0,1-.912-.348,5.591,5.591,0,0,1-.5-1.5,3.972,3.972,0,0,0-.576-1.44A1.106,1.106,0,0,0-89.3-4.3a1.394,1.394,0,0,0-.972.372.788.788,0,0,0-.228.8A4.274,4.274,0,0,0-86.664.264Zm19.416,1.7a1.506,1.506,0,0,0,1.08-.084,1.623,1.623,0,0,0,.936-.564,8.125,8.125,0,0,0,0-1.7q-.072-1.7-.072-4.9a32.023,32.023,0,0,1,.072-3.336q.192-.336.576.276a6.754,6.754,0,0,1,.7,1.716,1.01,1.01,0,0,0,.564.708.886.886,0,0,0,.852-.156q.312-.216.42-.036a1.822,1.822,0,0,1,.084.828A2.085,2.085,0,0,0-62-4.62a.4.4,0,0,0,.228.252,1.566,1.566,0,0,0,1.044-.1q.708-.24.756-.528a.7.7,0,0,1,.324-.516,2.952,2.952,0,0,1,1.02-.108,1.907,1.907,0,0,1,1.092.18,2.04,2.04,0,0,1,.18,1.14v.168a2.594,2.594,0,0,1-.072.792.532.532,0,0,1-.48.288q-.288.024-1.344,0h-.24q-1.272,0-2.28-.072a1.358,1.358,0,0,0-.612.012q-.06.06.18.492a.279.279,0,0,1,.048.072,1.588,1.588,0,0,0,.276.468q.084.06.42-.012a17.949,17.949,0,0,1,2.22-.24A4.74,4.74,0,0,1-57.7-2.28q.384.192.384,1.344T-57.7.408A15.487,15.487,0,0,1-60.288.48a31.871,31.871,0,0,1-3.24-.168q-.216-.024-.108.36a1.888,1.888,0,0,0,.4.72A2.315,2.315,0,0,0-62.5,1.38a8.921,8.921,0,0,0,1.128-.156q.072-.024,6.1-.072h1.248q2.784-.024,3.5-.024a11.871,11.871,0,0,0,1.32-.072q.192-.024.216-.168V.84q.048-.168-.348-.624A7.823,7.823,0,0,0-50.4-.768q-.528-.408-.684-.372t-.564.636l-.048.072-.024.024a2.453,2.453,0,0,1-.732.78A4.53,4.53,0,0,1-53.76.48h-.072A2.7,2.7,0,0,1-55.14.312q-.18-.168-.18-1.176v-.36a2.594,2.594,0,0,1,.072-.792q.12-.24.6-.288a16,16,0,0,1,1.632-.048h.5a18.88,18.88,0,0,0,2.16-.072q.576-.072.456-.36a4.8,4.8,0,0,0-.864-.936q-.672-.624-.684-.8t.54-.444a.279.279,0,0,1,.072-.048q.384-.168.432-.312a2.951,2.951,0,0,0,0-.792q-.048-.7-.084-2.916t.012-2.412a.841.841,0,0,1,.5-.576q.288-.168.228-.36a1.822,1.822,0,0,0-.54-.6,4.309,4.309,0,0,0-1.188-.816q-.3-.072-.756.384l-.024.024a2.118,2.118,0,0,1-.648.5,4.5,4.5,0,0,1-1.056.072,2.669,2.669,0,0,1-1.164-.144q-.2-.144-.228-.84v-.192a1.076,1.076,0,0,1,.1-.576q.12-.168.648-.216.36-.048,1.776-.048h.576q1.656-.024,2.112-.024a2.876,2.876,0,0,0,.792-.1q.12-.048.144-.264.024-.192-.684-.864a5.408,5.408,0,0,0-1.188-.912A.294.294,0,0,0-51.384-17a4.072,4.072,0,0,0-.528.612.715.715,0,0,0-.072.1,2.331,2.331,0,0,1-.684.72,3.943,3.943,0,0,1-1.188.072h-.12a2.774,2.774,0,0,1-1.176-.168q-.192-.144-.192-.876t.24-.888a5.357,5.357,0,0,1,1.536-.324q.792-.1,1.416-.192a1.765,1.765,0,0,1,1.008,0,1.161,1.161,0,0,0,.564.06q.324-.036.324-.156a12.952,12.952,0,0,0-1.02-1.08,12.787,12.787,0,0,0-1.068-1.032,3.726,3.726,0,0,0-.7.24,43.1,43.1,0,0,1-5.568,1.644q-3.168.732-3.312.4-.072-.072-1.2-1.044t-1.2-1a2.84,2.84,0,0,0-.5.312,25.428,25.428,0,0,1-2.6,1.62q-1.62.9-2.844,1.428-.384.168-.468.216t-.036.168q.048.12.24.1a9.447,9.447,0,0,0,1.08-.144q.1-.024.264-.048a10.374,10.374,0,0,1,1.344-.192.479.479,0,0,1,.48.36,5.564,5.564,0,0,1,.072,1.176v.24a4.014,4.014,0,0,1-.144,1.368,1,1,0,0,1-.888.456,16.9,16.9,0,0,1-2.16-.168q-.24-.024-.252.048a2.035,2.035,0,0,0,.2.552l.024.024q.168.384.276.42a1.305,1.305,0,0,0,.54-.084q1.632-.384,1.848.12.288.552-.78,3.78A27.381,27.381,0,0,1-70.776-3.1q-.48.84-.12.84.168,0,1-.984a24.681,24.681,0,0,0,1.5-1.968,4.961,4.961,0,0,1,.708-.9q.18-.132.3.132a11.1,11.1,0,0,1,.072,2.16q-.024,1.872-.144,4.2a11.09,11.09,0,0,0-.048,1.26A.421.421,0,0,0-67.248,1.968ZM-53.232-3.12a2.15,2.15,0,0,1-.936.1,1.928,1.928,0,0,1-.888-.12q-.24-.144-.3-1.02a1.968,1.968,0,0,1,.132-1.14,1.247,1.247,0,0,1,.936-.36,2.872,2.872,0,0,1,1.176.144q.6.216.6.552a.422.422,0,0,0,.12.312q.192.168-.132.756A1.8,1.8,0,0,1-53.232-3.12Zm.432-3.24a2.862,2.862,0,0,1-1.14.1,2.905,2.905,0,0,1-1.116-.144q-.312-.192-.312-1.2t.312-1.2a2.905,2.905,0,0,1,1.116-.144,2.862,2.862,0,0,1,1.14.1q.336.192.336,1.248T-52.8-6.36Zm-4.848,0a2.848,2.848,0,0,1-1.008.072,2.254,2.254,0,0,1-1.008-.12q-.312-.192-.312-1.2t.312-1.2a2.354,2.354,0,0,1,1.008-.144,3.034,3.034,0,0,1,1.008.1q.336.192.336,1.248T-57.648-6.36Zm-4.32-1.584q-.1.264-.312.192a1.286,1.286,0,0,1-.312-.36A5.586,5.586,0,0,0-64.584-9.7a1.5,1.5,0,0,1-.66-.516,2.757,2.757,0,0,1-.084-1.02q.024-.744.252-.876a4.647,4.647,0,0,1,1.524-.132,9.42,9.42,0,0,1,1.272.048.441.441,0,0,1,.336.264,9.285,9.285,0,0,1,.072,1.98A13.867,13.867,0,0,1-61.968-7.944ZM-58.656-9.6a2.423,2.423,0,0,1-.936-.072q-.384-.192-.384-1.188t.408-1.188a2.194,2.194,0,0,1,.936-.12,2.094,2.094,0,0,1,.936.12.546.546,0,0,1,.276.312,3.739,3.739,0,0,1,.06.864,3.739,3.739,0,0,1-.06.864A.546.546,0,0,1-57.7-9.7,2.808,2.808,0,0,1-58.656-9.6Zm4.728,0a2.389,2.389,0,0,1-1.212-.168q-.18-.168-.18-1.1t.192-1.1a2.471,2.471,0,0,1,1.224-.168,2.394,2.394,0,0,1,1.2.168q.192.168.192,1.1a3.739,3.739,0,0,1-.06.864.546.546,0,0,1-.276.312A3.389,3.389,0,0,1-53.928-9.6Zm-4.8-3.216a5.634,5.634,0,0,1-1.044-.06,6.08,6.08,0,0,1-.924-.372,1.052,1.052,0,0,0-.192-.1,6.378,6.378,0,0,0-.852-.36q-.132-.024-.132.168,0,.432-.276.348A3.343,3.343,0,0,1-63.1-13.9l-.12-.12q-.384-.336-.48-.336t-.36.384a.928.928,0,0,1-.12.168,2.461,2.461,0,0,1-.612.684.285.285,0,0,1-.4-.06,6.741,6.741,0,0,1-.132-1.884,6.933,6.933,0,0,1,.108-1.908,2.284,2.284,0,0,1,1.5-.636q1.164-.18,1.164.228,0,.216.72.24t2.856-.12a4.028,4.028,0,0,1,1.344.036q.24.108.264.732a2.305,2.305,0,0,1-.06.624.471.471,0,0,1-.252.288,12.159,12.159,0,0,1-2.04.048q-1.9,0-2.736-.072-.576-.072-.624,0a1.586,1.586,0,0,0,.18.468,3.351,3.351,0,0,0,.3.564,2.6,2.6,0,0,0,.816-.072,24.244,24.244,0,0,1,2.58-.2,4.885,4.885,0,0,1,1.548.084q.312.192.312.936t-.312.936A3.928,3.928,0,0,1-58.728-12.816ZM-38.184,1.968q.072.12.792-.012a4.815,4.815,0,0,0,1.176-.348,2.42,2.42,0,0,0,.864-.552,2.5,2.5,0,0,0,.336-1.224q.048-.672.072-2.784V-4.176a7.718,7.718,0,0,1,.072-1.632.913.913,0,0,1,.816-.576A14.526,14.526,0,0,1-31.8-6.456q1.056.024,1.7.024,3.384,0,3.972-.024t.684-.24q.072-.192-.5-.792a8.635,8.635,0,0,0-1.344-1.128q-.336-.216-.468-.168a2.016,2.016,0,0,0-.516.576.279.279,0,0,1-.048.072q-.072.1-.192.264a1.752,1.752,0,0,1-.756.672,9.831,9.831,0,0,1-1.86.1h-1.224q-1.44,0-1.824-.024-.552-.048-.672-.216a1.3,1.3,0,0,1-.1-.624v-.12q0-.936.456-1.152a.692.692,0,0,0,.264-.264.867.867,0,0,1,.3-.36,7.611,7.611,0,0,1,.828-.456q1.272-.648,2.28-1.3a3.785,3.785,0,0,1,1.176-.552q.336-.048.408-.168t-.12-.384a1.085,1.085,0,0,0-.1-.144,1.655,1.655,0,0,1-.168-.288,1.12,1.12,0,0,0-.336-.336,6.266,6.266,0,0,1-.624-.456.715.715,0,0,0-.1-.072q-.48-.36-.636-.348t-.636.516l-.048.048-.192.192a1.211,1.211,0,0,1-.78.468q-.444.06-2.724.06H-36.72a51.05,51.05,0,0,1-5.616-.144q-.168-.024-.156.06a2.13,2.13,0,0,0,.18.42l.072.144a1.082,1.082,0,0,0,.312.444,1.432,1.432,0,0,0,.624-.012,1.032,1.032,0,0,1,.192-.024,42.937,42.937,0,0,1,4.776-.192H-36q1.824,0,2.256.048.624.072.528.336a3.5,3.5,0,0,1-.744.96.272.272,0,0,0-.1.1,3.786,3.786,0,0,1-1.092.972,3.567,3.567,0,0,1-1.428-.012,2.24,2.24,0,0,0-.672-.06q-.1.036-.048.324a10.08,10.08,0,0,1,.084,1.332,2.542,2.542,0,0,1-.084,1q-.072.216-.456.252t-2.592.036h-.7q-3.816,0-5.208-.12-.312-.048-.336.036a1.5,1.5,0,0,0,.216.564l.048.1a.968.968,0,0,0,.264.384,1.212,1.212,0,0,0,.528-.024q.96-.144,1.752-.192.624-.024,2.928-.048h.144q.456,0,1.176-.024a10.328,10.328,0,0,1,1.68.048.723.723,0,0,1,.624.5,7.56,7.56,0,0,1,.048,1.416v1.68a8.1,8.1,0,0,1-.072,1.68.671.671,0,0,1-.552.576,10.216,10.216,0,0,1-1.536-.024q-.432-.024-.672-.048-.816-.048-1.056-.048-.216.024-.216.12,0,.168.36.216Q-38.64,0-38.3,1.632-38.208,1.92-38.184,1.968ZM-45.408-12.36a1.426,1.426,0,0,0,1.4-.588,4.27,4.27,0,0,0,.828-2.1q.1-.648.36-.768.168-.1,6.9-.072t6.828.12a.5.5,0,0,1,.072.516,13.469,13.469,0,0,1-.528,1.356q-.24.6.5.276a13.974,13.974,0,0,0,2.3-1.476,3.268,3.268,0,0,1,1.008-.48q.384-.1.24-.4a5.239,5.239,0,0,0-.936-1.068l-.1-.1a2.827,2.827,0,0,0-.84-.66q-.192-.036-.672.444l-.1.1a.819.819,0,0,0-.168.168,1.511,1.511,0,0,1-.744.468,17.755,17.755,0,0,1-1.992.06h-1.392q-1.392,0-1.776-.024a.848.848,0,0,1-.648-.264,2,2,0,0,1-.072-.7v-.264a3.739,3.739,0,0,1,.06-.864,1.241,1.241,0,0,1,.324-.456q.192-.168.192-.252t-.216-.18a6.938,6.938,0,0,0-1.692-.552q-1.236-.288-1.116-.1a5.043,5.043,0,0,1,.108,1.032q.06.984.06,1.464v.216a1.342,1.342,0,0,1-.072.672q-.12.192-.648.24-.36.024-1.776.024h-1.08q-1.32,0-1.68-.024a1.131,1.131,0,0,1-.672-.216,1.08,1.08,0,0,1-.216-.552q-.024-.1-.048-.168-.192-.7-.348-.792t-.2.432a4.743,4.743,0,0,1-1.8,3.312,1.332,1.332,0,0,0-.552,1.3A1.043,1.043,0,0,0-45.408-12.36ZM-22.224,1.464a.911.911,0,0,0,.432,0,.184.184,0,0,1,.072-.024.4.4,0,0,0,.12-.024,16.735,16.735,0,0,1,2.256-.168Q-18,1.224-10.92,1.2H-9q4.224-.024,5.352-.024Q-2.064,1.152-1.68,1.1q.288-.024.312-.168V.888q.12-.408-1.7-1.776L-3.1-.912q-.576-.408-.744-.372t-.648.66a.715.715,0,0,1-.072.1q-.072.1-.192.264a1.688,1.688,0,0,1-.78.7,10.722,10.722,0,0,1-1.932.1H-8.64A16.376,16.376,0,0,1-10.3.48q-.5-.048-.624-.288A2.594,2.594,0,0,1-10.992-.6v-.648a1.421,1.421,0,0,1,.072-.7,1.172,1.172,0,0,1,.816-.264q.456-.048,2.184-.048h1.08q2.232-.024,2.832-.024a4.786,4.786,0,0,0,1.032-.1.222.222,0,0,0,.144-.24q0-.168-.528-.66a10.532,10.532,0,0,0-1.272-1q-.312-.24-.3-.384t.4-.408a.487.487,0,0,0,.252-.24A2.851,2.851,0,0,0-4.3-6q-.12-3.36-.048-4.32.072-1.008.5-1.248.384-.24.3-.456a3.042,3.042,0,0,0-.828-.792,3.642,3.642,0,0,0-1.212-.768q-.276-.024-.828.648l-.024.024a1.166,1.166,0,0,1-.6.42,13.945,13.945,0,0,1-1.776.06h-.264q-1.08,0-1.344-.024-.408-.072-.5-.264a1.891,1.891,0,0,1-.072-.672v-.432a1,1,0,0,1,.1-.624,1.752,1.752,0,0,1,.912-.216q.528-.024,2.472-.024h1.224q3.336,0,3.9-.036t.648-.228q.084-.192-.42-.708a8.642,8.642,0,0,0-1.416-1.116q-.384-.264-.528-.2a2.685,2.685,0,0,0-.6.636q-.072.1-.192.264a1.582,1.582,0,0,1-.72.636,10.957,10.957,0,0,1-1.848.084H-8.616q-1.32,0-1.68-.024-.5-.048-.624-.24a1.891,1.891,0,0,1-.072-.672v-.24a2.354,2.354,0,0,1,.072-.744.616.616,0,0,1,.456-.336,11.939,11.939,0,0,1,1.272-.192h.1l2.064-.24a1.685,1.685,0,0,1,.288-.048q.888-.12,1.176-.144a3.054,3.054,0,0,1,.672.1,1.572,1.572,0,0,0,.576.072q.24-.024.24-.144a11.048,11.048,0,0,0-.888-1.008,11.536,11.536,0,0,0-.984-1.008q-.1-.048-.48.1-2.256.672-6.024,1.38t-7.1,1.068a2.546,2.546,0,0,0-.288.024q-.744.1-.864.12a.148.148,0,0,0-.12.168q0,.384,4.944.1a1.444,1.444,0,0,0,.216-.024q1.344-.048,1.7-.048a.935.935,0,0,1,.648.192,1.549,1.549,0,0,1,.1.576v.072q.024.864-.264,1.032a19.394,19.394,0,0,1-3.624.144q-3.408-.024-4.9-.144-.312-.048-.336.036a1.5,1.5,0,0,0,.216.564l.048.1a.968.968,0,0,0,.264.384,1.212,1.212,0,0,0,.528-.024q.984-.144,1.74-.18t2.94-.06h.672q1.488-.024,1.9,0a1.14,1.14,0,0,1,.72.216,1.176,1.176,0,0,1,.12.576v.264a2.486,2.486,0,0,1-.048.816.6.6,0,0,1-.5.312q-.288.024-1.416.048h-.816a9.952,9.952,0,0,1-1.4-.06,6.764,6.764,0,0,1-1.164-.42q-.168-.072-.264-.12a6.381,6.381,0,0,0-1.008-.408q-.168-.024-.12.216a32.414,32.414,0,0,1,.2,3.372q.06,2.388-.036,3.948-.048,1.056-.036,1.272a.467.467,0,0,0,.108.312q.264.264,1.116,0A1.648,1.648,0,0,0-17.532-5q.2-.42,2.052-.468t2.16.36a1.837,1.837,0,0,1,.132,1.092q-.06.828-.3,1a19.974,19.974,0,0,1-3.024.1q-2.856,0-3.84-.1-.552-.048-.6.012t.192.564l.024.048a1.162,1.162,0,0,0,.324.432,1.165,1.165,0,0,0,.516-.024,28.457,28.457,0,0,1,3.984-.24h.384q1.3-.024,1.632,0,.48.072.6.312a2.718,2.718,0,0,1,.072.816v.24A6.224,6.224,0,0,1-13.272.144a.462.462,0,0,1-.288.324A29.381,29.381,0,0,1-17.436.54Q-21.072.5-22.32.384h-.048q-.384-.048-.408.024a1.4,1.4,0,0,0,.216.528l.024.048a.261.261,0,0,1,.048.1A1.518,1.518,0,0,0-22.224,1.464ZM-9-2.928q-1.1,0-1.416-.024-.408-.072-.5-.288a2.106,2.106,0,0,1-.072-.72V-4.3a2.594,2.594,0,0,1,.072-.792q.1-.24.5-.288a11.671,11.671,0,0,1,1.392-.048h.24a10.076,10.076,0,0,1,1.86.1.446.446,0,0,1,.348.48q0,.192.084.24a.99.99,0,0,0,.4.048q.624,0,.624.192a1.607,1.607,0,0,1-.372.7,2.115,2.115,0,0,1-.612.624.825.825,0,0,1-.42.108q-.276.012-1.74.012Zm-6.36-3.144a6.774,6.774,0,0,1-1.872-.12q-.336-.192-.312-1.188t.36-1.164a6.489,6.489,0,0,1,1.8-.12,6.489,6.489,0,0,1,1.8.12q.384.168.42,1.128t-.324,1.2A6.932,6.932,0,0,1-15.36-6.072Zm8.5-.1a8.814,8.814,0,0,1-1.92.1,8.787,8.787,0,0,1-1.92-.12q-.336-.192-.312-1.188t.36-1.164a6.953,6.953,0,0,1,1.872-.12,6.953,6.953,0,0,1,1.872.12q.36.168.372,1.164T-6.864-6.168Zm-8.5-3.12a6.774,6.774,0,0,1-1.872-.12q-.312-.168-.312-1.14t.312-1.14a8.981,8.981,0,0,1,1.944-.072,6.535,6.535,0,0,1,1.872.144q.264.24.228,1.128t-.3,1.056A6.932,6.932,0,0,1-15.36-9.288Zm8.5-.1a8.814,8.814,0,0,1-1.92.1,8.787,8.787,0,0,1-1.92-.12q-.312-.192-.312-1.14t.312-1.14a8.814,8.814,0,0,1,1.92-.1,8.814,8.814,0,0,1,1.92.1q.336.192.336,1.152T-6.864-9.384Z" transform="translate(1112 37)" fill="#fff"/>
    </g>
    <path id="路径_7079" data-name="路径 7079" d="M15.52.56A18.2,18.2,0,0,0,25.56-1.68a.9.9,0,0,0,.5-.8q.06-.6.1-3.96v-.64q.04-2.84.12-3.64a2.068,2.068,0,0,1,.44-1.36,2.545,2.545,0,0,1,1.2-.28h.2a2.125,2.125,0,0,0,.8-.18q.12-.1.12-.66,0-.44-2.84-.64a43.6,43.6,0,0,0-5.28,0q-2.84.2-2.84.64v.12q0,.44.22.54a7.564,7.564,0,0,0,1.5.22h.24a1.175,1.175,0,0,1,.28.04,4.068,4.068,0,0,1,2.12.46A4.4,4.4,0,0,1,22.8-9.6v.8q.12,3.68.08,4.68a3.489,3.489,0,0,1-.44,1.84,2.945,2.945,0,0,1-1.36.6L21-1.64Q15.4-.12,11.3-2.86T6.32-11.52a18.078,18.078,0,0,1,.8-9.2,11.57,11.57,0,0,1,4.68-5.92,10.061,10.061,0,0,1,7.44-1.24,5.426,5.426,0,0,1,2.92,1.08,7.453,7.453,0,0,1,1.04,3.2q.04.16.08.44a6.361,6.361,0,0,0,.34,1.58q.14.22.78.22H25q.6.04.68-.24a11.737,11.737,0,0,0,.04-2q-.04-.56-.04-.92v-.68a13.656,13.656,0,0,0-.14-2.16,1.011,1.011,0,0,0-.58-.6l-.24-.12a15.287,15.287,0,0,0-5.3-1.6,17.682,17.682,0,0,0-5.7.2,13.55,13.55,0,0,0-8.96,5.92,15.884,15.884,0,0,0-2.52,9.9,15.533,15.533,0,0,0,3.68,9.5A13.259,13.259,0,0,0,15.52.56ZM40.36.48a9.642,9.642,0,0,0,4.9-.76,8.949,8.949,0,0,0,3.7-3.12,2.284,2.284,0,0,0,.38-.68q.02-.16-.28-.36t-.44-.14a3.633,3.633,0,0,0-.66.58,7.42,7.42,0,0,1-5.52,2.32,7.179,7.179,0,0,1-5.16-2.08,7.335,7.335,0,0,1-2.24-5.52v-.24q-.04-.56.2-.72a3.894,3.894,0,0,1,1.56-.24q.92-.04,4.32-.04H42.4q6.64,0,6.8-.08a3.874,3.874,0,0,0,.24-1.72,12.277,12.277,0,0,0-.12-2.4,7.568,7.568,0,0,0-2.62-4.64,8.04,8.04,0,0,0-5.14-1.72,8.969,8.969,0,0,0-7.12,3.2,11.914,11.914,0,0,0-2.68,7.18,11.439,11.439,0,0,0,1.88,7.34A8.7,8.7,0,0,0,40.36.48Zm.12-12.52a40.239,40.239,0,0,1-4.76-.08.792.792,0,0,1-.54-.48,2.235,2.235,0,0,1,.06-1.04,7.415,7.415,0,0,1,3.44-5.14A4.9,4.9,0,0,1,44-18.8a5.134,5.134,0,0,1,2,2.24,4.922,4.922,0,0,1,.48,2.68,1.907,1.907,0,0,1-1.24,1.72A41.974,41.974,0,0,1,40.48-12.04ZM58.32,0a44.312,44.312,0,0,0,4.74-.1,1.041,1.041,0,0,0,.1-.6q0-.5-.08-.54a1.986,1.986,0,0,0-.52-.12l-.72-.12q-.16-.04-.44-.08a1.723,1.723,0,0,1-1-.36,2.723,2.723,0,0,1-.36-1.44q-.08-.84-.08-3.84v-3q0-4,.1-4.74a1.827,1.827,0,0,1,.7-1.22.627.627,0,0,1,.16-.12,8.876,8.876,0,0,1,5.46-2.36,3.238,3.238,0,0,1,3.46,2.24,5.687,5.687,0,0,1,.36,1.8q.04.96.04,5.88V-7q0,2.96-.04,3.76a2.347,2.347,0,0,1-.4,1.4,2.068,2.068,0,0,1-1.16.32q-.28.04-.48.08A.654.654,0,0,0,68-1.4a6.745,6.745,0,0,0-1.02.18q-.14.06-.14.42v.28q0,.28.12.36A3.055,3.055,0,0,0,68.04,0H75.4a3.338,3.338,0,0,0,1.08-.16q.12-.08.12-.36V-.64q0-.4-.18-.52a3.745,3.745,0,0,0-1.02-.28,4.386,4.386,0,0,0-.48-.08,2.061,2.061,0,0,1-1.08-.36,2.43,2.43,0,0,1-.4-1.44q-.08-.8-.12-3.84V-8.88q-.08-5.6-.2-6.98a7.675,7.675,0,0,0-.76-2.7,4.468,4.468,0,0,0-4.48-2.52,10.645,10.645,0,0,0-6.52,2.68q-1,.8-1.3.6t-.46-1.72a.658.658,0,0,0-.04-.2,3.225,3.225,0,0,0-.2-1.04q-.2-.24-.84-.08-.44.12-2.12.72-.2.08-.32.12-.32.12-.8.32a18.709,18.709,0,0,0-1.8.7.53.53,0,0,0-.24.5v.12q0,.48.16.58a4.086,4.086,0,0,0,1.16.18,5.418,5.418,0,0,1,.56.04,2.114,2.114,0,0,1,1.24.28,2.571,2.571,0,0,1,.48,1.56q.04.92.04,4.24V-7.6q0,3.28-.04,4.16a3.7,3.7,0,0,1-.32,1.56,1.443,1.443,0,0,1-.92.32,1.683,1.683,0,0,0-.4.04q-.52.08-1.32.24-.28.04-.4.48a.721.721,0,0,0,.08.68A36.913,36.913,0,0,0,58.32,0ZM99.6.16a1.487,1.487,0,0,0,.64.08,1.174,1.174,0,0,0,.64-.16l2-5.88q.64-1.96,1-3,.32-.92.84-2.52,1.36-4.16,1.8-5.28a5.467,5.467,0,0,1,1-1.96,1.577,1.577,0,0,1,1.04-.4q.28-.04.44-.08a.976.976,0,0,0,.72-.58.715.715,0,0,0-.12-.82,25.16,25.16,0,0,0-3.84-.16,25.354,25.354,0,0,0-3.88.12.635.635,0,0,0-.08.92,2.109,2.109,0,0,0,1.32.6,2.132,2.132,0,0,0,.48.04,2.045,2.045,0,0,1,1.16.36q.24.32,0,1.48-.2.84-1.16,3.92-.28.96-.44,1.48-1.12,3.64-1.44,4.6a8.309,8.309,0,0,1-.64,1.64.338.338,0,0,1-.44.08q-.24-.08-2.48-5.92a58.619,58.619,0,0,1-2.32-6.6.666.666,0,0,1,.28-.74A4.614,4.614,0,0,1,97.64-19a3.163,3.163,0,0,0,1.04-.24q.16-.12.16-.6V-20q0-.32-.12-.4a2.467,2.467,0,0,0-1-.12q-.6-.04-2.76-.04H93q-2.48,0-2.9.06a.405.405,0,0,0-.38.5v.2q0,.48.14.56a4.173,4.173,0,0,0,.94.2.355.355,0,0,0,.16.04,3.032,3.032,0,0,1,1.54.46q.3.3.06,1.1-.8,2.68-2.62,7.36T87.86-5.32a.359.359,0,0,1-.42-.12,11.5,11.5,0,0,1-.68-1.68q-.36-1-1.56-4.6-.16-.44-.44-1.28-1.08-3.2-1.32-4.08-.32-1.2-.04-1.52.16-.24,1.12-.36a3.307,3.307,0,0,1,.44-.04,5.122,5.122,0,0,0,1.22-.22q.18-.1.18-.62V-20a.411.411,0,0,0-.4-.5q-.44-.06-3.04-.06H78.04a3.055,3.055,0,0,0-1.08.16q-.12.08-.12.4v.16a.85.85,0,0,0,.14.58,1.586,1.586,0,0,0,.78.22,2.132,2.132,0,0,0,.48.04,1.551,1.551,0,0,1,.92.36,6.507,6.507,0,0,1,1,1.92q.44,1.08,1.92,5.12.64,1.76,1,2.76,3.28,9,3.4,9a1.487,1.487,0,0,0,.64.08,1.19,1.19,0,0,0,.6-.08q.04-.04,1.4-3.84.72-1.96,1.12-3.04.08-.28.28-.8,1.88-5.16,2.24-6.12a3.705,3.705,0,0,1,.6-1.16.36.36,0,0,1,.62.08,15.662,15.662,0,0,1,.94,2.28q1.12,3.28,2.84,7.92A49.932,49.932,0,0,0,99.6.16Zm17.6.4a5.5,5.5,0,0,0,2.5-.5,9.028,9.028,0,0,0,2.54-1.62q1-.88,1.36-.88.4,0,.8.88a3.441,3.441,0,0,0,2.9,2A3.841,3.841,0,0,0,130.64-1a.763.763,0,0,0,.16-.92q-.24-.48-.68-.12a2.252,2.252,0,0,1-1.36.58A1.647,1.647,0,0,1,127.52-2l-.04-.04A2.086,2.086,0,0,1,127-3.36q-.08-.92-.12-5.96v-.04q-.08-5.44-.2-6.6a6.525,6.525,0,0,0-.76-2.48,5.154,5.154,0,0,0-4.12-2.6,9.965,9.965,0,0,0-5.6.76,6.7,6.7,0,0,0-3.84,3.68,1.62,1.62,0,0,0,.12,1.6,1.553,1.553,0,0,0,1.28.68,1.775,1.775,0,0,0,1.48-.72,10.377,10.377,0,0,0,.96-2.48,2.9,2.9,0,0,1,.98-1.64,4.9,4.9,0,0,1,2.3-.36,4.228,4.228,0,0,1,3.26,1.08,5.73,5.73,0,0,1,1.06,3.68,3.41,3.41,0,0,1-.18,1.76,2.116,2.116,0,0,1-1.3.64q-9.68,2.28-10.64,6.44a4.9,4.9,0,0,0,.84,4.26A5.456,5.456,0,0,0,116.48.48Q117.12.56,117.2.56Zm2.44-2.52a3.876,3.876,0,0,1-3.8-.72,3.233,3.233,0,0,1-1-3.12,4.578,4.578,0,0,1,2.44-3.28,19.2,19.2,0,0,1,3.62-1.56q2.18-.72,2.56-.46t.42,3.18q.04,2.92-.32,3.44a6.18,6.18,0,0,1-1.74,1.46A7.7,7.7,0,0,1,119.64-1.96ZM138.04,0a44.312,44.312,0,0,0,4.74-.1,1.041,1.041,0,0,0,.1-.6q0-.5-.08-.54a1.986,1.986,0,0,0-.52-.12l-.72-.12q-.16-.04-.44-.08a1.723,1.723,0,0,1-1-.36,2.723,2.723,0,0,1-.36-1.44q-.08-.84-.08-3.84v-3q0-4,.1-4.74a1.827,1.827,0,0,1,.7-1.22.627.627,0,0,1,.16-.12,8.876,8.876,0,0,1,5.46-2.36,3.238,3.238,0,0,1,3.46,2.24,5.687,5.687,0,0,1,.36,1.8q.04.96.04,5.88V-7q0,2.96-.04,3.76a2.347,2.347,0,0,1-.4,1.4,2.068,2.068,0,0,1-1.16.32q-.28.04-.48.08a.655.655,0,0,0-.16.04,6.745,6.745,0,0,0-1.02.18q-.14.06-.14.42v.28q0,.28.12.36a3.055,3.055,0,0,0,1.08.16h7.36a3.338,3.338,0,0,0,1.08-.16q.12-.08.12-.36V-.64q0-.4-.18-.52a3.745,3.745,0,0,0-1.02-.28,4.387,4.387,0,0,0-.48-.08,2.061,2.061,0,0,1-1.08-.36,2.43,2.43,0,0,1-.4-1.44q-.08-.8-.12-3.84V-8.88q-.08-5.6-.2-6.98a7.675,7.675,0,0,0-.76-2.7,4.468,4.468,0,0,0-4.48-2.52,10.645,10.645,0,0,0-6.52,2.68q-1,.8-1.3.6t-.46-1.72a.658.658,0,0,0-.04-.2,3.225,3.225,0,0,0-.2-1.04q-.2-.24-.84-.08-.44.12-2.12.72-.2.08-.32.12-.32.12-.8.32a18.71,18.71,0,0,0-1.8.7.53.53,0,0,0-.24.5v.12q0,.48.16.58a4.086,4.086,0,0,0,1.16.18,5.418,5.418,0,0,1,.56.04,2.114,2.114,0,0,1,1.24.28,2.571,2.571,0,0,1,.48,1.56q.04.92.04,4.24V-7.6q0,3.28-.04,4.16a3.7,3.7,0,0,1-.32,1.56,1.443,1.443,0,0,1-.92.32,1.683,1.683,0,0,0-.4.04q-.52.08-1.32.24-.28.04-.4.48a.721.721,0,0,0,.08.68A36.912,36.912,0,0,0,138.04,0Z" transform="translate(68 870)" fill="#fff"/>
    <path id="路径_7080" data-name="路径 7080" d="M-6.3.02q5.1,0,5.17-.05A10.559,10.559,0,0,0-.96-1.9,16.8,16.8,0,0,0-.9-3.8q-.02-.04-.42-.04a.86.86,0,0,0-.44.06l-.16.82q-.04.22-.06.34a13.79,13.79,0,0,1-.31,1.45.509.509,0,0,1-.33.33,21.758,21.758,0,0,1-2.5.04A21.165,21.165,0,0,1-7.58-.86a.154.154,0,0,1-.06-.02q-.12-.04-.16-.24-.04-.28-.06-1.36V-9.42q-.02-2.44.02-3.08a2.333,2.333,0,0,1,.22-1.14A.9.9,0,0,1-7-13.82a3.528,3.528,0,0,0,.42-.02,5.014,5.014,0,0,0,.75-.1q.11-.04.11-.26v-.06q0-.14-.08-.18a2.03,2.03,0,0,0-.62-.08h-4.4a2.03,2.03,0,0,0-.62.08q-.08.04-.08.18v.08q0,.2.11.24a4.849,4.849,0,0,0,.73.1,5.074,5.074,0,0,1,1.02.16.441.441,0,0,1,.26.34q.04.18.04,6.09T-9.4-1.18a.481.481,0,0,1-.3.32,5.487,5.487,0,0,1-1.02.16,3.049,3.049,0,0,0-.74.12.461.461,0,0,0-.06.27.367.367,0,0,0,.06.25Q-11.4,0-6.3.02Z" transform="translate(735 873)" fill="#fff"/>
    <path id="路径_7081" data-name="路径 7081" d="M-18.8.02q5.24,0,5.3-.08a11.379,11.379,0,0,0,.14-1.74,9.1,9.1,0,0,0,.02-1.69.877.877,0,0,0-.3-.03.864.864,0,0,0-.32.06,8.6,8.6,0,0,0-.26,1.22q-.02.18-.08.48a2.424,2.424,0,0,1-.18.78.81.81,0,0,1-.6.3q-.32.04-1.5.04h-.92q-.42,0-1.12.02A7.406,7.406,0,0,1-20.1-.68a.667.667,0,0,1-.54-.54,7.729,7.729,0,0,1-.06-1.5V-4.88a10.523,10.523,0,0,1,.04-1.54q.06-.46.34-.56a2.86,2.86,0,0,1,.92-.06h.96A8.384,8.384,0,0,1-17.36-7a.5.5,0,0,1,.42.24,2.155,2.155,0,0,1,.14.66,1.653,1.653,0,0,1,.02.22,6.627,6.627,0,0,0,.12.8q.04.12.28.12h.06q.2,0,.23-.24t.03-1.74V-9.18a1.446,1.446,0,0,0-.08-.52q-.04-.06-.18-.06h-.06q-.22,0-.27.12a4.42,4.42,0,0,0-.13.74,1.066,1.066,0,0,0-.02.24,3.725,3.725,0,0,1-.14.7.543.543,0,0,1-.44.28,8.136,8.136,0,0,1-1.06.04h-.92a3.17,3.17,0,0,1-.96-.06q-.28-.1-.34-.54a10.523,10.523,0,0,1-.04-1.54v-1.98a9.431,9.431,0,0,1,.04-1.46.656.656,0,0,1,.5-.54,6.589,6.589,0,0,1,1.38-.06q.64.02,1.04.02h.88a13.8,13.8,0,0,1,1.46.02.741.741,0,0,1,.58.3,2.79,2.79,0,0,1,.18.82q.06.3.08.48A6.25,6.25,0,0,0-14.32-11a.911.911,0,0,0,.34.04q.28,0,.32-.05a13.519,13.519,0,0,0-.04-1.69,15.412,15.412,0,0,0-.12-1.69q-.04-.05-5.16-.05-5.1,0-5.15.05a.271.271,0,0,0-.05.19.5.5,0,0,0,.04.22,4.433,4.433,0,0,0,.86.12,6.124,6.124,0,0,1,.91.12.454.454,0,0,1,.3.25q.09.19.09,6.26t-.1,6.24a.5.5,0,0,1-.3.23,5.655,5.655,0,0,1-.88.12,2.907,2.907,0,0,0-.86.14.378.378,0,0,0-.06.23.3.3,0,0,0,.07.22Q-24.04.02-18.8.02Zm12.68,0q5.02,0,5.09-.05A9.52,9.52,0,0,0-.88-1.81,16.3,16.3,0,0,0-.84-3.66q-.02-.04-.34-.06t-.34.04l-.04.18q-.12.64-.2,1.14-.04.2-.08.52a3.124,3.124,0,0,1-.2.84.679.679,0,0,1-.54.32q-.3.04-1.38.04h-.86q-2.04,0-2.4-.03A.574.574,0,0,1-7.7-.9q-.04-.1-.07-6.02t.01-6.36a.464.464,0,0,1,.25-.41,4.8,4.8,0,0,1,1.07-.17,5.014,5.014,0,0,0,.75-.1q.11-.04.11-.26v-.02q0-.16-.28-.18t-1.96-.02h-1.2q-1.68,0-1.96.02t-.28.18v.04q0,.2.12.24a5.6,5.6,0,0,0,.78.1,6.124,6.124,0,0,1,.91.12.454.454,0,0,1,.3.25q.09.19.09,6.26t-.1,6.24a.5.5,0,0,1-.3.23,5.655,5.655,0,0,1-.88.12,2.907,2.907,0,0,0-.86.14.378.378,0,0,0-.06.23.293.293,0,0,0,.06.21Q-11.14,0-6.12.02Z" transform="translate(621 873)" fill="#fff"/>
    <path id="路径_7082" data-name="路径 7082" d="M-2.4.16A6.565,6.565,0,0,0-1.32.15,2.463,2.463,0,0,0-.46,0q.08-.04.09-.36T-.46-.7l-.3-.04Q-1-.76-1.12-.78A1.654,1.654,0,0,1-1.34-.8a1.735,1.735,0,0,1-.6-.12.894.894,0,0,1-.36-.46q-.1-.26-.4-1.22-.08-.3-.14-.46a21.813,21.813,0,0,0-.84-2.41,2.771,2.771,0,0,0-.78-.99q-.38-.32-.45-.39A.21.21,0,0,1-4.98-7q0-.18.52-.4A3.822,3.822,0,0,0-2.22-9.54a3.234,3.234,0,0,0-.08-2.72,3.748,3.748,0,0,0-2.36-1.96,5.61,5.61,0,0,0-1.35-.28q-.61-.04-3.53-.06h-2.82a2.227,2.227,0,0,0-.66.08q-.1.02-.08.16v.08q0,.26.11.31a4.192,4.192,0,0,0,.75.13,2.032,2.032,0,0,0,.32.02q.56.04.7.24a2.739,2.739,0,0,1,.24,1.3q.04.72.04,3.44v3.38q.02,2.52-.04,3.2a1.842,1.842,0,0,1-.34,1.2,1.666,1.666,0,0,1-.92.24q-.36.02-.56.05a.431.431,0,0,0-.25.09.552.552,0,0,0-.05.3v.08q-.02.14.06.18a1.755,1.755,0,0,0,.56.08H-7.8a1.755,1.755,0,0,0,.56-.08q.08-.04.06-.2V-.46q0-.18-.08-.22a2.94,2.94,0,0,0-.58-.1A1.654,1.654,0,0,0-8.06-.8a1.654,1.654,0,0,1-.22-.02A1.565,1.565,0,0,1-9-1a.992.992,0,0,1-.26-.74q-.04-.4-.04-1.94v-1q0-1.16.02-1.48.04-.44.2-.54a1.255,1.255,0,0,1,.54-.1h.2a5.874,5.874,0,0,1,1.94.16A1.954,1.954,0,0,1-5.34-5.56a16.992,16.992,0,0,1,.88,2.68q.42,1.52.62,2a1.707,1.707,0,0,0,.54.82A2.615,2.615,0,0,0-2.4.16ZM-7.72-7.58a7.561,7.561,0,0,1-1.24-.03.369.369,0,0,1-.26-.17,3.6,3.6,0,0,1-.08-.8q-.02-.44,0-2.1v-.8q0-1.28.04-1.62.06-.48.3-.6a2.188,2.188,0,0,1,.8-.06h.42a6.129,6.129,0,0,1,2.76.47,2.357,2.357,0,0,1,1.16,1.63,3.175,3.175,0,0,1-.36,2.58A3.259,3.259,0,0,1-6.4-7.66,9.016,9.016,0,0,1-7.72-7.58Z" transform="translate(855 873)" fill="#fff"/>
    <path id="路径_7083" data-name="路径 7083" d="M-6.59.02a19.475,19.475,0,0,0,2.4-.06A.807.807,0,0,0-4.15-.4q0-.32-.04-.34l-.22-.04q-.3-.06-.48-.08-.12-.02-.34-.04a.99.99,0,0,1-.56-.16,1.7,1.7,0,0,1-.22-.86q-.02-.46-.04-2.22V-5.46q0-1.22-.02-2.94-.02-2.26-.01-2.64a1.221,1.221,0,0,1,.07-.48l.02-.02q.1-.14.2.02a11.682,11.682,0,0,1,.64,1.4q.36.82,1.64,3.98.14.36.22.56.26.62.68,1.66Q-1.05-.08-.98-.04A1.256,1.256,0,0,0-.55,0,1.282,1.282,0,0,0-.13-.06Q-.09-.08,2.05-5.5l.12-.3q1.38-3.52,1.76-4.42a7.171,7.171,0,0,1,.68-1.42q.12-.12.2.34.04.26.02,5.04T4.77-1.32a.512.512,0,0,1-.3.33,4.153,4.153,0,0,1-.9.17,2.454,2.454,0,0,0-.59.11q-.09.05-.09.33v.1q-.02.16.06.2A1.844,1.844,0,0,0,3.53,0H8.21a1.844,1.844,0,0,0,.58-.08q.08-.04.06-.2V-.4q0-.26-.11-.31a4.063,4.063,0,0,0-.73-.13.547.547,0,0,1-.12-.02q-.78-.08-.92-.25a2.643,2.643,0,0,1-.18-1.13v-.12q-.04-1.8-.01-6.35t.09-4.69a.481.481,0,0,1,.28-.28,5.655,5.655,0,0,1,.84-.14.329.329,0,0,0,.1-.02,2.9,2.9,0,0,0,.67-.11q.09-.05.09-.31v-.04q-.02-.18-.1-.22a1.1,1.1,0,0,0-.52-.1q-.32,0-1.46-.02a15.357,15.357,0,0,0-2.12.06l-.42,1.04Q3.21-10.9,2.49-9.08q-.14.36-.4,1.02Q.97-5.18.67-4.42a9.551,9.551,0,0,1-.58,1.3q-.1.18-.22.14L-.17-3q-.12-.04-.48-.88-.38-.88-2.08-5.08-2.26-5.58-2.3-5.63a15.447,15.447,0,0,0-1.98-.05,19.731,19.731,0,0,0-1.98.04.628.628,0,0,0-.04.31,1.021,1.021,0,0,0,.03.33,2.4,2.4,0,0,0,.79.14,7.94,7.94,0,0,1,.84.16.427.427,0,0,1,.28.23q.08.17.06,6.1t-.1,6.08a.478.478,0,0,1-.28.22,5.857,5.857,0,0,1-.8.17,2.2,2.2,0,0,0-.76.16.607.607,0,0,0-.06.33.5.5,0,0,0,.06.31A18.991,18.991,0,0,0-6.59.02Z" transform="translate(968 873)" fill="#fff"/>
    <path id="路径_7084" data-name="路径 7084" d="M-7.94.32a9.3,9.3,0,0,0,1.22,0A5.674,5.674,0,0,0-3.19-1.05,3.805,3.805,0,0,0-2.04-4.12a3.572,3.572,0,0,0-.93-2.4A10.005,10.005,0,0,0-6.14-8.44,16,16,0,0,1-8.26-9.52a2.418,2.418,0,0,1-.84-.96,2.476,2.476,0,0,1-.14-1.96,2.447,2.447,0,0,1,1.26-1.38,3.774,3.774,0,0,1,2.24-.3,1.5,1.5,0,0,1,.95.36,4.934,4.934,0,0,1,.51,1.48q.04.14.08.36a3.764,3.764,0,0,0,.24.82q.08.12.36.1h.28q.34,0,.4-.11a2.85,2.85,0,0,0,.08-.79,2.709,2.709,0,0,0,.02-.28v-.08a14.127,14.127,0,0,0,.03-1.49A.473.473,0,0,0-3-14.1l-.06-.04a6.258,6.258,0,0,0-3.2-.96,5.851,5.851,0,0,0-3.06.68,3.65,3.65,0,0,0-1.88,2.08,3.577,3.577,0,0,0,.31,3.38A8.885,8.885,0,0,0-7.02-6.28,9.587,9.587,0,0,1-4.87-5.11a2.171,2.171,0,0,1,.71,1.27A2.4,2.4,0,0,1-4.5-1.9,2.9,2.9,0,0,1-6.14-.74a4.706,4.706,0,0,1-2.48.06A1.823,1.823,0,0,1-9.66-1.1a5.486,5.486,0,0,1-.5-1.56q-.02-.12-.08-.34a4.338,4.338,0,0,0-.26-.88Q-10.58-4-10.88-4h-.26q-.3,0-.36.15a5.18,5.18,0,0,0-.08,1.07q-.02.26-.02.4t-.02.38a6.336,6.336,0,0,0,0,1.07q.04.17.32.31a.888.888,0,0,1,.16.08A8.258,8.258,0,0,0-7.94.32Zm7.7-.38q.06.06,3.46.04,3.4,0,3.9-.06a6.579,6.579,0,0,0,3.36-1.24,3.389,3.389,0,0,0,1.28-2.52Q11.9-6.4,8.92-7.4q-.7-.24-.7-.38t.7-.46a3.241,3.241,0,0,0,2.06-2.98q0-2.72-3.46-3.42-.32-.06-4-.08t-3.76.04a.307.307,0,0,0-.07.42.485.485,0,0,0,.43.28,7.488,7.488,0,0,1,1.15.16.552.552,0,0,1,.37.3q.06.14.09,4.74T1.72-2.34v.2a2.432,2.432,0,0,1-.18,1.07,1.6,1.6,0,0,1-.9.25A.547.547,0,0,1,.52-.8q-.74.08-.76.16A.452.452,0,0,0-.3-.35.452.452,0,0,0-.24-.06ZM6.32-.88A10.855,10.855,0,0,1,5.2-.84,5.535,5.535,0,0,1,4.3-.9L4.28-.92Q4.1-.98,4.07-1.3T4.04-3.5V-4.98q0-1.26.02-1.6a.826.826,0,0,1,.2-.58,1.012,1.012,0,0,1,.52-.08h.28a5.735,5.735,0,0,1,3.11.65A2.734,2.734,0,0,1,9.38-4.44a3.033,3.033,0,0,1-.64,2.41A3.716,3.716,0,0,1,6.32-.88Zm-.54-7.2a5.613,5.613,0,0,1-1.24.02q-.38-.06-.46-.28a24.244,24.244,0,0,1-.06-2.62,25,25,0,0,1,.06-2.64.365.365,0,0,1,.24-.26,5.643,5.643,0,0,1,.84-.06,4.662,4.662,0,0,1,2.61.54,2.432,2.432,0,0,1,.97,1.88,3.009,3.009,0,0,1-.61,2.39A3.357,3.357,0,0,1,5.78-8.08Z" transform="translate(1088 873)" fill="#fff"/>
  </g>
</svg>
