<svg xmlns="http://www.w3.org/2000/svg" width="1148" height="240" viewBox="0 0 1148 240">
  <g id="genyog" transform="translate(0 -721)">
    <g id="组_4854" data-name="组 4854" transform="translate(0 721)">
      <rect id="矩形_3596" data-name="矩形 3596" width="872" height="240" fill="#313740"/>
      <rect id="矩形_3598" data-name="矩形 3598" width="8" height="124" transform="translate(36 36)" fill="#51b5db"/>
    </g>
    <path id="路径_6983" data-name="路径 6983" d="M0,0H120V240H0Z" transform="translate(1028 721)" fill="#313740"/>
    <path id="路径_6984" data-name="路径 6984" d="M0,0H120V240H0Z" transform="translate(908 721)" fill="#313740"/>
    <path id="路径_6985" data-name="路径 6985" d="M0,0H120V240H0Z" transform="translate(788 721)" fill="#313740"/>
    <path id="路径_6986" data-name="路径 6986" d="M0,0H120V240H0Z" transform="translate(668 721)" fill="#313740"/>
    <path id="路径_6987" data-name="路径 6987" d="M0,0H120V240H0Z" transform="translate(548 721)" fill="#313740"/>
    <path id="路径_6988" data-name="路径 6988" d="M0,0H120V240H0Z" transform="translate(428 721)" fill="#313740"/>
    <path id="路径_6989" data-name="路径 6989" d="M0,0H120V240H0Z" transform="translate(308 721)" fill="#313740"/>
    <path id="路径_6990" data-name="路径 6990" d="M27.4,2.6q-1.12.48-5.44.4A8.757,8.757,0,0,0,21.12.48q1.6.08,3.76.04h.36q.68-.04.68-.6V-10.76H18.8V-24.48h6.36q.52-2.2.84-4.32H16.48v8.16q0,15.92-5.36,23.52A8.35,8.35,0,0,0,8.64,1.32,26.88,26.88,0,0,0,12.8-9.6a67.047,67.047,0,0,0,.76-11.04V-31.52H37.88v2.72h-8.8l.2.04q-.08.24-.2.72-.72,2.44-1.04,3.56h8.32v13.72h-7.6V-.04a4.623,4.623,0,0,1-.24,1.72A1.871,1.871,0,0,1,27.4,2.6ZM5.16,2.48,2.48.8A102.5,102.5,0,0,0,8.56-12l2.36,1.64Q8.16-3.44,5.16,2.48ZM17.68.76a2,2,0,0,1-.28-.2A21.463,21.463,0,0,0,15.36-.8,23.109,23.109,0,0,0,20.2-8.52l2.68.64A27.56,27.56,0,0,1,17.68.76ZM36,.28a30.063,30.063,0,0,0-1.88-3.9A37.626,37.626,0,0,0,31.44-7.8l2.52-1.08A29.516,29.516,0,0,1,38.64-.96ZM21.44-13.04H33.6v-3.52H21.44Zm-13.08-3a19.275,19.275,0,0,0-2.96-2.2,37.2,37.2,0,0,0-3.76-2.04l1.68-2.16a25.947,25.947,0,0,1,6.76,4Zm13.08-2.68H33.6V-22.2H21.44ZM10.2-26.44a17.9,17.9,0,0,0-2.92-2.32,29.77,29.77,0,0,0-3.68-2.2l1.68-2.12a22.839,22.839,0,0,1,6.68,4.32ZM61.52,3.08a9,9,0,0,0-.8-2.44H64.6q.6,0,.6-.56V-10.64H57.92V-12.8H68v2.36a18.614,18.614,0,0,0,2.08,3.56,44.684,44.684,0,0,0,5.2-4.76l2.24,1.68Q73.8-6.88,71.4-5.28A18.033,18.033,0,0,0,78.76-.32a8.849,8.849,0,0,0-1.8,2.24A20.185,20.185,0,0,1,68-6.04V.08a3.78,3.78,0,0,1-.28,1.64,1.711,1.711,0,0,1-1.04.92A17.617,17.617,0,0,1,61.52,3.08ZM47.84,3V-15.68Q45.6-8.24,42.96-4.52a16.487,16.487,0,0,0-1.52-2.56,28.727,28.727,0,0,0,3.52-6.72,48.48,48.48,0,0,0,2.56-8.28H42.24v-2.76h5.6v-8.64h2.72v8.64h4.56v2.76H50.56v2.52q2.04,2.68,4.8,7.08l-1.64,2.2a56.56,56.56,0,0,0-3.16-5.76V3Zm7.28-.84A6.634,6.634,0,0,0,53.52.2a13.277,13.277,0,0,0,4.04-2.56A12.885,12.885,0,0,0,60.48-6.2H54.76V-8.36h6.88l.48-.12,1.64.68a15.629,15.629,0,0,1-3.44,6.12A16.09,16.09,0,0,1,55.12,2.16Zm15.8-14.12a43.063,43.063,0,0,0-4.08-1.96A44.8,44.8,0,0,0,62-15.64L63.16-17H55v-2.36H65.16v-2.6H57.6v-2.2h7.56v-2.52H56v-2.2h5.16a26.672,26.672,0,0,0-2.2-3.68l2.2-.92a22.49,22.49,0,0,1,2.6,4.12l-1.08.48h7.2l-.64-.24a31.683,31.683,0,0,0,2.4-4.36l2.64.84q-1.76,2.72-2.56,3.76h5.84v2.2H68.04v2.52h8.28v2.2H68.04v2.6h10V-17H64.76a37.483,37.483,0,0,1,7.76,3.12ZM85.16,3.24,82.4,1.92a13.559,13.559,0,0,0,2.52-2.96,20.149,20.149,0,0,0,1.92-3.68l2.84.68A19.712,19.712,0,0,1,85.16,3.24ZM115,3.12a34.361,34.361,0,0,0-5.08-6.92l2.68-.92a36.747,36.747,0,0,1,2.94,3.36A31.119,31.119,0,0,1,117.88,2ZM94.36,2.84a32.853,32.853,0,0,0-.72-6.56l2.76-.2a25.789,25.789,0,0,1,.88,6.36Zm9.6,0a39.878,39.878,0,0,0-2.12-6.48l2.76-.56a31.463,31.463,0,0,1,2.28,6.32ZM82.36-6.32V-8.96H98.48v-3.6H85.64V-15H98.48v-3.28H86.32V-31.96h27.24v13.68H101.4V-15h12.92v2.44H101.4v3.6h16.28v2.64Zm6.8-14.48h9.32v-8.64H89.16Zm12.24,0h9.2v-8.64h-9.2Zm3.72-.56-1.92-.8a38.04,38.04,0,0,0,3.08-6.32l2.32.88Q106.32-23.2,105.12-21.36ZM93.88-21.8a20.6,20.6,0,0,0-2.48-5.96l1.96-.68a18.005,18.005,0,0,1,2.6,5.84Zm31,24.84V-15.28H122.6V-21h2.28V-32.08h11.16V-21h2.36v5.72h-2.36v-3.6H124.88v2.68H136V.28q0,1.8-1.08,2.32a12.753,12.753,0,0,1-4.28.44,6.029,6.029,0,0,0-.8-2.32,27.357,27.357,0,0,0,3.08,0,.424.424,0,0,0,.48-.48v-4.2h-6v7Zm12.96-.72V.08h6.08a16.239,16.239,0,0,0-1.52-4.04l2.16-.72a15.34,15.34,0,0,1,1.76,4.56l-.56.2h4.36l-.36-.12a25.579,25.579,0,0,0,1.88-4.68l2.48.72q-.28.52-.8,1.6-.88,1.76-1.28,2.48h6.32V2.32Zm2.68-7.08v-7.36h15.44v7.36ZM127.4-6.12h6v-3h-6Zm15.56-.6H153.4v-3.44H142.96ZM127.4-11.2h6v-2.84h-6Zm11.16-2.84v-2.2h19.52v2.2Zm1.2-4.16V-29.8h4.72v-3.64h2.24v3.64h2.84v-3.64h2.24v3.64h4.88v11.6Zm2.28-2.08h2.8v-2.76h-2.8Zm4.68,0h2.84v-2.76h-2.84Zm4.68,0h2.96v-2.76H151.4ZM127.16-21h2.08v-6.2h4.44v-2.6h-6.52Zm3.96,0h2.56v-4.32h-2.56Zm10.92-4h2.8v-2.72h-2.8Zm4.68,0h2.84v-2.72h-2.84Zm4.68,0h2.96v-2.72H151.4Z" transform="translate(68 798)" fill="#fff"/>
    <path id="路径_6991" data-name="路径 6991" d="M-9.3,1.52A4.058,4.058,0,0,0-9.7.4q1.62.04,2.04,0,.32,0,.32-.26V-3.54h-5.14V-4.62H-.88v1.08H-6.1V.16A1.817,1.817,0,0,1-6.22.9a.885.885,0,0,1-.5.42A9.938,9.938,0,0,1-9.3,1.52Zm-6.72-.06V-8.2a21.266,21.266,0,0,1-2.56,5.88,6.6,6.6,0,0,0-.7-1.14,15.668,15.668,0,0,0,1.8-3.42,27.109,27.109,0,0,0,1.3-4.24h-2.7v-1.24h2.86v-4.36h1.22v4.36h2.3v1.24h-2.3v1.46q.4.52,1.28,1.8.84,1.24,1.1,1.68l-.74,1A25.093,25.093,0,0,0-14.8-8.12V1.46Zm3.64-.68a3.031,3.031,0,0,0-.84-.8,11.192,11.192,0,0,0,1.75-1.41,9.343,9.343,0,0,0,1.35-1.61l1.02.58A12.242,12.242,0,0,1-12.38.78Zm10.66,0a22.715,22.715,0,0,0-2.8-3.12l.92-.64A20.359,20.359,0,0,1-.76.06ZM-11.24-6.2V-7.24h9.36V-6.2Zm-.5-2.3v-4.74h2.98V-14.7h-3.62v-1.12H-.88v1.12h-3.7v1.46h3.2V-8.5Zm1.14-1.06h1.94v-2.62H-10.6Zm2.94,0h2v-2.62h-2Zm2.98,0h2.1v-2.62h-2.1Zm-2.98-3.68h2V-14.7h-2ZM9.26,1.52V-2.5H1.14V-3.68H9.26V-5.4H10.6v1.72h8.34V-2.5H10.6V1.52ZM2.4-4.86,1.48-5.88a48.867,48.867,0,0,0,3.9-4.1l.7.88Q4.2-6.74,2.4-4.86Zm5.08-.68v-6.68a18.328,18.328,0,0,1-1.44,1.44,7.778,7.778,0,0,0-1.06-.9,12.853,12.853,0,0,0,2.28-2.3A13.01,13.01,0,0,0,9.02-16.8l1.28.38A19.551,19.551,0,0,1,9.22-14.5h2.92a21.164,21.164,0,0,0,1.06-2.2l1.42.28q-.72,1.28-1.14,1.92h4.54v1.1h-4.6v1.54h4.04v1.02H13.42V-9.3h4.1v1.02h-4.1v1.62h5.16v1.12ZM8.74-6.66h3.42V-8.28H8.74Zm0-2.64h3.42v-1.54H8.74ZM4.18-10.9A14.789,14.789,0,0,0,.9-12.34l.64-.94a14.1,14.1,0,0,1,3.28,1.32Zm4.56-.96h3.42V-13.4H8.74ZM5.6-14.02a15.583,15.583,0,0,0-3.2-1.64l.66-.92a13.6,13.6,0,0,1,3.24,1.5Z" transform="translate(608 801)" fill="#fff"/>
    <path id="路径_6992" data-name="路径 6992" d="M-15.56,1.42V-7.16q-.84.06-2.42.18-.78.08-1.14.1l-.16-.92,1.52-.08q.76-.92,1.4-1.84a14.29,14.29,0,0,0-2.72-2.94l.52-.62q.22.18.66.58a24.706,24.706,0,0,0,2.06-3.98l.88.4a37.948,37.948,0,0,1-2.38,4.12,10.337,10.337,0,0,1,1.5,1.72,36.568,36.568,0,0,0,2.48-4l.88.42a56.815,56.815,0,0,1-4.26,6.06q1.38-.1,3.86-.24a19.6,19.6,0,0,0-1.1-1.78l.78-.34A17.4,17.4,0,0,1-11-6.26l-.8.4q-.26-.7-.68-1.58l-2.2.2V1.42Zm4.8-.18V-15.02h9.22V1.06h-.92V.14h-7.4v1.1Zm-7.66-1.5a2.217,2.217,0,0,0-.82-.38,14.9,14.9,0,0,0,1.4-4.82l.88.14A17.9,17.9,0,0,1-18.42-.26Zm8.56-.5H-6.7V-7.14H-9.86Zm4.04,0h3.36V-7.14H-5.82Zm-6.42-.62A16.122,16.122,0,0,0-13.56-5.3l.76-.24a15.367,15.367,0,0,1,1.38,3.9Zm2.38-6.68H-6.7V-14.1H-9.86Zm4.04,0h3.36V-14.1H-5.82ZM2.54,1.46v-9.5H7.78V.38q0,.74-.48.92a9.025,9.025,0,0,1-2.14.14A3.143,3.143,0,0,0,4.84.66,17.27,17.27,0,0,0,6.6.66q.3,0,.3-.28V-2.14H3.4v3.6ZM8.74,1V.2h3.32a6.761,6.761,0,0,0-.76-2.22l.76-.24a6.443,6.443,0,0,1,.82,2.3L12.42.2H15.3L14.9.04a16.093,16.093,0,0,0,.92-2.32l.84.3Q15.96-.48,15.62.2H19.1V1Zm1.48-3.4V-6h7.52v3.6ZM3.4-2.92H6.9v-1.8H3.4Zm7.68-.22h5.78V-5.26H11.08ZM3.4-5.52H6.9V-7.26H3.4ZM9.06-7.16v-.8H19v.8ZM1.42-7.72v-2.72H2.56V-15.9H7.78v5.46H8.92v2.72H8.1V-9.66H2.22v1.94ZM9.78-9.14v-5.58h2.46v-1.94h.8v1.94H14.8v-1.94h.8v1.94h2.58v5.58Zm.8-.76h1.74v-1.66H10.58Zm2.46,0H14.8v-1.66H13.04Zm2.48,0h1.82v-1.66H15.52ZM3.36-10.44H4.64v-3.08h2.3V-15.1H3.36Zm2.02,0H6.94v-2.34H5.38Zm5.2-1.9h1.74v-1.62H10.58Zm2.46,0H14.8v-1.62H13.04Zm2.48,0h1.82v-1.62H15.52Z" transform="translate(488 801)" fill="#fff"/>
    <path id="路径_6993" data-name="路径 6993" d="M-15.9,1.36V-9.7a34.413,34.413,0,0,1-1.28,3.96A17.665,17.665,0,0,1-18.72-2.6a2.286,2.286,0,0,0-.46-.48,17.31,17.31,0,0,0,1.8-3.72,31.074,31.074,0,0,0,1.34-4.68h-2.78v-.6h2.92v-4.54h.58v4.54h2.52v.6h-2.52V-9.5q.94,1.26,2.36,3.52l-.42.52Q-14-6.64-15.32-8.68V1.36Zm2.42-.68V.1H-.94V.68ZM-8.24-.78A13.123,13.123,0,0,1-10-.82a1.182,1.182,0,0,0-.18-.6q.82.06,1.84.06a.615.615,0,0,0,.58-.24,7.151,7.151,0,0,0,.42-2.56q.14-2.16.24-7.5H-9.52l-.16.54-.6-.1a37.29,37.29,0,0,0,1.14-3.84h-4.1v-.58H-1.22v.58H-8.56q-.44,1.64-.78,2.8h2.82v.44q-.1,5.9-.24,7.92a6.361,6.361,0,0,1-.5,2.66A1.112,1.112,0,0,1-8.24-.78Zm7.1-.74A8.059,8.059,0,0,1-3.68-4.3,9.479,9.479,0,0,1-6.16-1.66a1.365,1.365,0,0,0-.42-.46A8.444,8.444,0,0,0-4-4.9,18.053,18.053,0,0,1-5.64-10l.5-.12A17.69,17.69,0,0,0-3.68-5.48a16.032,16.032,0,0,0,1.66-5.24H-5.8v-.6h3.96l.12-.04.32.12A17.685,17.685,0,0,1-3.36-4.86,7.687,7.687,0,0,0-.7-1.98,2.986,2.986,0,0,0-1.14-1.52Zm-11.5-1.36v-7.34h3.6V-4.1h-3.02v1.22Zm.58-1.8h2.44V-9.62h-2.44ZM4.6,1.38V-7.34L.86-7.06.74-7.68l1.48-.08q.7-.8,1.58-2.02a15.729,15.729,0,0,0-2.82-3l.38-.34q.44.36.68.6a31.944,31.944,0,0,0,2.24-4.1l.56.3a37.637,37.637,0,0,1-2.42,4.16,14.273,14.273,0,0,1,1.72,1.92q1.48-2.12,2.64-4.18l.6.28A56.469,56.469,0,0,1,2.94-7.82l3.32-.2Q7-8.08,7.36-8.1a15.441,15.441,0,0,0-1.24-1.94l.52-.22A20.387,20.387,0,0,1,7.99-8.18a13.409,13.409,0,0,1,.95,1.96l-.54.28a14.032,14.032,0,0,0-.74-1.62l-2.48.18V1.38ZM9.32,1.2V-14.92H18.4V1.04h-.58V.1H9.9V1.2ZM1.4-.36A1.787,1.787,0,0,0,.84-.64,14.7,14.7,0,0,0,2.32-5.5l.6.1A17.2,17.2,0,0,1,1.4-.36ZM9.9-.5h3.54V-7.32H9.9Zm4.14,0h3.78V-7.32H14.04Zm-6.12-1A13.772,13.772,0,0,0,6.56-5.42l.5-.14A14.205,14.205,0,0,1,8.5-1.66ZM9.9-7.9h3.54v-6.44H9.9Zm4.14,0h3.78v-6.44H14.04Z" transform="translate(368 801)" fill="#fff"/>
    <path id="路径_6994" data-name="路径 6994" d="M-10.42,1.52V-3.8h-5.12V.62h-1.34V-5.02h6.46V-6.74h-4.7v-4.14H-4.68v4.14h-4.4v1.72H-2.9v4.2a1.95,1.95,0,0,1-.14.84,1.038,1.038,0,0,1-.58.46,11.593,11.593,0,0,1-2.82.2H-6.8a6.122,6.122,0,0,0-.46-1.2q1.94.06,2.62.02.4-.02.4-.32V-3.8H-9.08V1.52Zm-3.44-9.3h7.84V-9.86h-7.84Zm-4.32-1.58v-4.2h7.64v-3.16h1.36v3.16h7.52v4.2H-2.98v-3.02H-16.9v3.02Zm3.3-4.2a11.794,11.794,0,0,0-1.64-2.46l1.18-.5a12.832,12.832,0,0,1,1.72,2.38Zm9.54-.06-1.06-.44a15.828,15.828,0,0,0,1.72-2.48l1.36.5A17.883,17.883,0,0,1-5.34-13.62ZM7.7,1.46A3.277,3.277,0,0,0,6.94.48a6.056,6.056,0,0,0,3.18-2.12,7.294,7.294,0,0,0,1.12-3.28H9.56v-11h8.48v11H15.62V-.56a.716.716,0,0,0,.09.44.615.615,0,0,0,.43.1H17.5q.36,0,.47-.46A13.675,13.675,0,0,0,18.1-2.7a3.7,3.7,0,0,0,1.14.5,8.059,8.059,0,0,1-.4,2.69,1.2,1.2,0,0,1-1.2.67H15.96A1.7,1.7,0,0,1,14.7.81a2.105,2.105,0,0,1-.32-1.37V-4.92h-1.9A8.523,8.523,0,0,1,11.2-1.04,6.758,6.758,0,0,1,7.7,1.46ZM1.76,1.28A3.626,3.626,0,0,0,.86.32q3.12-2.36,3.4-7.84H.96V-8.76H4.32v-3.4H1.38v-1.2H4.32V-16.5H5.58v3.14H8.42v1.2H5.58v3.4H8.82v1.24H5.52q-.02.38-.08,1.18a.329.329,0,0,0-.02.1q.58.6,1.84,1.98,1.18,1.32,1.58,1.8l-.9.98A36.376,36.376,0,0,0,5.2-4.9,10.115,10.115,0,0,1,1.76,1.28Zm9.04-7.4h5.96V-8.28H10.8Zm0-3.26h5.96v-2.1H10.8Zm0-3.22h5.96v-2.1H10.8Z" transform="translate(728 801)" fill="#fff"/>
    <path id="路径_6995" data-name="路径 6995" d="M-18.38,1.44-19.3-.38q1.38-.98,2.68-2.04V-5.94h-2.46V-7.66h4.24v5.08q1.32,1.98,4.76,2.1Q-8.3-.4-5.5-.44-2.56-.48-.76-.62a5.6,5.6,0,0,0-.58,1.8q-4.66.2-8.72.06a9.946,9.946,0,0,1-3.26-.6,5.621,5.621,0,0,1-2.3-1.7Q-16.52-.16-18.38,1.44ZM-5-1.5a5.642,5.642,0,0,0-.52-1.56,16.175,16.175,0,0,0,1.76.02q.32,0,.32-.3v-7.22H-6.86v1.22h2.7v1.2h-2.7v1.26h2.02v3.7H-8.88v.68H-10.2V-6.88h1.94V-8.14h-2.68v-1.2h2.68v-1.22h-3.3v9.04h-1.68v-10.5h2.44a6.764,6.764,0,0,0-.68-1.62l.58-.14h-2.96v-.38l-1.3,1.2a9.076,9.076,0,0,0-1.34-1.26,14.228,14.228,0,0,0-1.74-1.22l1.2-1.12a12.094,12.094,0,0,1,3.18,2.36v-1.04h5.32v-1.52h1.8v1.52h5.6v1.46H-3.82l.24.06q-.44.92-.9,1.7h2.74v8.68a2.582,2.582,0,0,1-.14.98,1.047,1.047,0,0,1-.56.56A7.167,7.167,0,0,1-5-1.5ZM-8.88-4.3h2.7V-5.78h-2.7ZM-15.72-9a7.843,7.843,0,0,0-1.42-1.26A16.646,16.646,0,0,0-19-11.4l1.22-1.16a13.217,13.217,0,0,1,1.84,1.06,8.713,8.713,0,0,1,1.5,1.22Zm6.56-3.02h2.98a14.3,14.3,0,0,0,.74-1.76H-9.78a7.25,7.25,0,0,1,.7,1.74ZM8.98,1.56V-4.8H3.8v1.18H1.94v-9.66H8.98v-3.48h1.94v3.48h7.14v9.56H16.12V-4.8h-5.2V1.56ZM3.8-6.62H8.98v-4.84H3.8Zm7.12,0h5.2v-4.84h-5.2Z" transform="translate(848 801)" fill="#fff"/>
    <path id="路径_6996" data-name="路径 6996" d="M-16.14,1.7V-4.88a18.318,18.318,0,0,1-2.1,4.42,13.367,13.367,0,0,0-1.1-2.46,12.818,12.818,0,0,0,1.46-2.36,25.22,25.22,0,0,0,1.2-2.82h-2.34v-2.22h2.88v-6.6h2.2v6.6h2.7V-8.1h-2.7v.32q.54.5,1.56,1.62.98,1.08,1.28,1.48L-12.54-2.8a21.958,21.958,0,0,0-1.4-2.38V1.7Zm4-.34V-.84h1.84V-16.16h8.16V-.84H-.66v2.2Zm4.12-2.2h3.48V-3.88H-8.02Zm0-5.16h3.48V-8.94H-8.02Zm-10.1-4.78a14.911,14.911,0,0,0-.3-2.24,19.858,19.858,0,0,0-.62-2.38l1.66-.42a16.6,16.6,0,0,1,1.04,4.58Zm5.72-.04-1.52-.42a27.4,27.4,0,0,0,1.12-4.7l2.02.42Q-11.84-12.1-12.4-10.82Zm4.38-.24h3.48v-2.9H-8.02ZM2.2,1.74V-7.52H1.02v-3.12H2.16v-5.68H8.44v5.68h1.2v2.26h9.52V-6.8H9.62v-.72H8.36V-.26A3.461,3.461,0,0,1,8.24.78a1.225,1.225,0,0,1-.54.62,2.411,2.411,0,0,1-.92.3q-.38.04-1.22.04a6.7,6.7,0,0,0-.54-1.8q.46.02,1.1.02a.215.215,0,0,0,.22-.24V-1.66H4.2v3.4Zm7-.24V-.18h2.56a7.259,7.259,0,0,0-.74-1.64l1.22-.44H10.32v-3.9H18.5v3.9H16.62l1.2.28q-.5.88-1.04,1.8h2.6V1.5ZM13.64-.18H15a17.419,17.419,0,0,0,.8-2.08H12.74A6.981,6.981,0,0,1,13.64-.18ZM4.2-3.26H6.34v-.92H4.2Zm8.04-.4H16.5v-1.1H12.24ZM4.2-5.74H6.34v-.88H4.2ZM2.72-8.22H7.86v-.8H2.72Zm7.32-.84v-6.2h2.22v-1.66h1.66v1.66h.86v-1.66h1.68v1.66h2.32v6.2Zm1.74-1.52h.86v-.88h-.86Zm2.14,0h.86v-.88h-.86Zm2.14,0h.88v-.88h-.88Zm-12.2-.06h.7v-3.18h2.1v-.82H3.86Zm1.96,0h.84v-1.84H5.82Zm5.96-2.26h.86v-.86h-.86Zm2.14,0h.86v-.86h-.86Zm2.14,0h.88v-.86h-.88Z" transform="translate(968 801)" fill="#fff"/>
    <g id="组_4853" data-name="组 4853" transform="translate(0 905)">
      <rect id="矩形_3599" data-name="矩形 3599" width="1148" height="56" fill="#51b5db"/>
      <path id="路径_7089" data-name="路径 7089" d="M-87.12,0A32.544,32.544,0,0,1-85.9-7.944a23.273,23.273,0,0,1,3.5-6.864h-7.992V-17.76h11.808v2.136a19.993,19.993,0,0,0-3.912,7.08A39.137,39.137,0,0,0-83.544,0Zm19.608,2.064V-6.552A20.711,20.711,0,0,1-70.128-1.8a11.984,11.984,0,0,0-1.32-2.712A21.7,21.7,0,0,0-67.9-10.944h-3.048v-2.664h3.432v-2.784q-1.68.312-2.928.48a8.013,8.013,0,0,0-.792-2.184,31.608,31.608,0,0,0,7.44-1.992l1.9,2.184a25.9,25.9,0,0,1-2.856.912v3.384h2.568v2.664h-2.568v.7q.456.384,1.56,1.512,1.032,1.08,1.464,1.584V-12.96h4.608v-.984h-5.4v-2.208h5.4V-17.16q-2.328.1-4.536.144a6.4,6.4,0,0,0-.624-2.136A77.531,77.531,0,0,0-50.9-20.136L-49.272-18a49.62,49.62,0,0,1-5.112.648v1.2h5.16v2.208h-5.16v.984h4.776v8.04h-4.776v1.1h4.776v2.16h-4.776v1.08h5.664V1.68H-63.24V-.576h6.12v-1.08H-61.9v-2.16h4.776v-1.1h-4.608V-7.032l-1.584,2.16A17.413,17.413,0,0,0-64.752-7.3v9.36Zm8.256-8.952h2.136V-8.112h-2.136Zm4.872,0h2.208V-8.112h-2.208Zm-4.872-2.9h2.136v-1.176h-2.136Zm4.872,0h2.208v-1.176h-2.208ZM-40.656,2.04A10.174,10.174,0,0,0-41.9-.888q2.832.1,3.744.048a.892.892,0,0,0,.492-.1.389.389,0,0,0,.132-.336V-4.8h-8.88V-7.512h8.88V-9.024H-36.5a17.247,17.247,0,0,0,2.184-1.8h-8.016v-2.592H-31.8l.672-.144,1.824,1.392A22.159,22.159,0,0,1-34.512-7.7v.192h9V-4.8h-9v3.6A4.036,4.036,0,0,1-34.824.6a2.187,2.187,0,0,1-1.2.96A14.868,14.868,0,0,1-40.656,2.04ZM-46.32-11.832v-6.192h8.76v-2.3h3.024v2.3H-25.7v6.192h-2.952V-15.36H-43.512v3.528ZM-22.848,1.416V-.84h9.312V-2.112H-21.1V-4.248h7.56v-1.08H-20.3v-7.608h6.768v-.912H-22.7V-16.08h9.168v-1.056q-3.816.168-6.816.192a6.241,6.241,0,0,0-.576-2.184,119.059,119.059,0,0,0,16.152-1.2l1.32,2.208q-3,.48-7.2.792v1.248h9.408v2.232h-9.408v.912h7.128v7.608h-7.128v1.08H-2.64v2.136h-8.016V-.84H-1.08V1.416ZM-17.52-7.2h3.984V-8.28H-17.52Zm6.864,0h4.2V-8.28h-4.2ZM-17.52-9.984h3.984v-1.08H-17.52Zm6.864,0h4.2v-1.08h-4.2Z" transform="translate(1112 37)" fill="#fff"/>
    </g>
    <path id="路径_6997" data-name="路径 6997" d="M15.4.52A11.919,11.919,0,0,1,6-3.52Q2.36-7.64,2.36-14.64q0-6.96,3.76-11.12a12.209,12.209,0,0,1,9.52-4.04A11.273,11.273,0,0,1,24-26.24l-1.84,2.16a8.515,8.515,0,0,0-6.44-2.8,8.94,8.94,0,0,0-7.26,3.26q-2.7,3.26-2.7,8.9,0,5.72,2.6,9A8.875,8.875,0,0,0,15.72-2.4a10.372,10.372,0,0,0,3.18-.48,5.8,5.8,0,0,0,2.38-1.36v-8H14.92V-15h9.44V-2.84a10.425,10.425,0,0,1-3.72,2.4A13.983,13.983,0,0,1,15.4.52Zm24.32,0a9.534,9.534,0,0,1-7.24-3,11.444,11.444,0,0,1-3-8.28,12,12,0,0,1,2.96-8.36,8.778,8.778,0,0,1,6.68-3.04,7.708,7.708,0,0,1,6.28,2.7,11.28,11.28,0,0,1,2.24,7.42,9.105,9.105,0,0,1-.16,1.96H32.72a8.908,8.908,0,0,0,2.16,5.8,6.747,6.747,0,0,0,5.24,2.2A9.619,9.619,0,0,0,45.6-3.84l1.2,2.16A12.98,12.98,0,0,1,39.72.52ZM32.68-12.44H44.76A8.239,8.239,0,0,0,43.3-17.7a5,5,0,0,0-4.14-1.82,5.784,5.784,0,0,0-4.28,1.84A8.505,8.505,0,0,0,32.68-12.44ZM53.12,0V-21.6h2.64l.32,3.16h.12a17.407,17.407,0,0,1,3.32-2.64,7.978,7.978,0,0,1,3.96-1.08q6.6,0,6.6,8.44V0H66.8V-13.32a8.009,8.009,0,0,0-1.02-4.56,3.717,3.717,0,0,0-3.26-1.44,5.806,5.806,0,0,0-3.08.88,15.83,15.83,0,0,0-3.08,2.64V0ZM77.36,9.44A6.532,6.532,0,0,1,74.88,9l.68-2.64a4.914,4.914,0,0,0,1.68.32q3.36,0,5.04-4.88L82.76.12,74.04-21.6h3.4l4.6,12.36q.32.84.96,2.64.8,2.36,1.2,3.44h.2q.24-.76.72-2.4.76-2.52,1.12-3.68L90.28-21.6h3.2L85.24,2Q82.64,9.44,77.36,9.44ZM105.88.52a9.145,9.145,0,0,1-6.92-2.96,11.586,11.586,0,0,1-3-8.32,11.7,11.7,0,0,1,3-8.4,9.008,9.008,0,0,1,6.92-3,9.133,9.133,0,0,1,6.96,3,11.7,11.7,0,0,1,3,8.4,11.586,11.586,0,0,1-3,8.32A9.191,9.191,0,0,1,105.88.52Zm-4.76-5.08a5.765,5.765,0,0,0,4.76,2.36,5.765,5.765,0,0,0,4.76-2.36,9.8,9.8,0,0,0,1.84-6.2A9.973,9.973,0,0,0,110.64-17a5.732,5.732,0,0,0-4.76-2.4,5.7,5.7,0,0,0-4.74,2.38,10,10,0,0,0-1.82,6.24A9.988,9.988,0,0,0,101.12-4.56Zm27.8,14.6a11.926,11.926,0,0,1-6.44-1.52A4.856,4.856,0,0,1,120,4.2q0-2.84,3.2-4.96V-.92a3.912,3.912,0,0,1-1.96-3.56,4.976,4.976,0,0,1,2.4-4v-.16A7.324,7.324,0,0,1,121.72-11a7.177,7.177,0,0,1-.88-3.44,7.242,7.242,0,0,1,2.36-5.6,7.969,7.969,0,0,1,5.64-2.12,8.637,8.637,0,0,1,3,.56h7.48v2.52h-4.56a6.187,6.187,0,0,1,1.88,4.68,7.19,7.19,0,0,1-2.28,5.52,7.8,7.8,0,0,1-5.52,2.04,7.019,7.019,0,0,1-3.32-.8,3.575,3.575,0,0,0-1.44,2.72q0,2.44,3.84,2.44h4.32a10.13,10.13,0,0,1,5.6,1.24,4.347,4.347,0,0,1,1.84,3.88,6.229,6.229,0,0,1-2.92,5.16A12.992,12.992,0,0,1,128.92,10.04Zm.44-2.28a8.922,8.922,0,0,0,5.2-1.44,3.9,3.9,0,0,0,1.92-3.2,2.3,2.3,0,0,0-1.16-2.2,6.666,6.666,0,0,0-3.36-.64H128a12.076,12.076,0,0,1-2.76-.36,4.766,4.766,0,0,0-2.36,3.88,3.275,3.275,0,0,0,1.72,2.88A8.924,8.924,0,0,0,129.36,7.76Zm-3.92-18.32a4.506,4.506,0,0,0,3.4,1.48,4.506,4.506,0,0,0,3.4-1.48,5.441,5.441,0,0,0,1.44-3.9,5.3,5.3,0,0,0-1.44-3.86,4.545,4.545,0,0,0-3.4-1.4,4.593,4.593,0,0,0-3.44,1.4,5.328,5.328,0,0,0-1.4,3.88A5.414,5.414,0,0,0,125.44-10.56Z" transform="translate(68 870)" fill="#fff"/>
    <path id="路径_6998" data-name="路径 6998" d="M-12.32,0V-14.64h1.7l5.54,9.48,1.58,3h.1q0-.12-.02-.36-.2-2.82-.2-4.2v-7.92h1.58V0H-3.76l-5.5-9.48-1.6-3h-.1q.02.36.06,1.06.14,2.24.14,3.4V0Z" transform="translate(615 878)" fill="#fff"/>
    <path id="路径_6999" data-name="路径 6999" d="M-8.32,0V-14.58h1.2V-1.04H-.48V0Z" transform="translate(493 878)" fill="#fff"/>
    <path id="路径_7000" data-name="路径 7000" d="M-19.2,0V-14.52h7.8v.66h-7.06v5.78h5.92v.66h-5.92V-.66h7.28V0ZM-7.96,0V-14.52h.74V-.66h6.8V0Z" transform="translate(378.004 878)" fill="#fff"/>
    <path id="路径_7001" data-name="路径 7001" d="M-10.7,0V-14.66h4.6q5.12,0,5.12,4.12a4.135,4.135,0,0,1-.9,2.74A4.481,4.481,0,0,1-4.3-6.42L-.54,0h-2.1L-6.2-6.22H-8.84V0Zm1.86-7.72h2.46q3.56,0,3.56-2.82a2.31,2.31,0,0,0-.92-2.04,4.723,4.723,0,0,0-2.64-.58H-8.84Z" transform="translate(735 878)" fill="#fff"/>
    <path id="路径_7002" data-name="路径 7002" d="M-6.36,0V-14.72H-3.7L-1-7.28q.18.52.52,1.6.3.92.46,1.38h.1q.16-.48.46-1.42.32-1.04.5-1.56L3.7-14.72H6.38V0H4.22V-7.28q0-1.22.28-4.28a2.709,2.709,0,0,0,.02-.28H4.44L3.26-8.44.7-1.42H-.74L-3.32-8.44l-1.16-3.4h-.08q.02.28.08.9.2,2.62.2,3.66V0Z" transform="translate(848 878)" fill="#fff"/>
    <path id="路径_7003" data-name="路径 7003" d="M-4.99,0V-14.8h4.9q5.36,0,5.36,3.64a3.638,3.638,0,0,1-.54,1.94A2.763,2.763,0,0,1,3.25-7.96v.1a3.732,3.732,0,0,1,2,1.14,3.523,3.523,0,0,1,.78,2.36,3.8,3.8,0,0,1-1.64,3.3A7.05,7.05,0,0,1,.29,0Zm2.96-2.28H.03q3.12,0,3.12-2.26,0-2.04-3.12-2.04H-2.03Zm0-6.5H-.31q2.7,0,2.7-1.94a1.561,1.561,0,0,0-.66-1.4,3.723,3.723,0,0,0-2-.42H-2.03Z" transform="translate(968 878)" fill="#fff"/>
    <path id="路径_7004" data-name="路径 7004" d="M-36.06,1.9V-4.6q-1.58.48-2.82.82l-.68-2.78q1.14-.24,3.5-.84v-3.32H-37.1a16.73,16.73,0,0,1-.68,2.32A13.254,13.254,0,0,0-39.8-9.72a23.694,23.694,0,0,0,1.02-6.36l2.4.4q-.1,1.1-.24,2.2h.56V-17.1h2.66v3.62h1.44v1.8h4.2v-1.24h-3.36v-2.62h3.36v-1.58h2.88v1.58h3.5v2.62h-3.5v1.24h4.36V-9h-2.06v1.48h1.82v2.66h-1.82v3.62A4.505,4.505,0,0,1-22.82.42a1.72,1.72,0,0,1-.9.94,8.947,8.947,0,0,1-3.58.5,8.982,8.982,0,0,0-.86-2.88q.86.04,2.28.04a.639.639,0,0,0,.33-.06q.09-.06.09-.26V-4.86h-3.38A14.509,14.509,0,0,1-26.86-2.3L-29.14-.8a15.506,15.506,0,0,0-2.18-3.08l1.56-.98h-2.08v-1l-1.56.48V1.9Zm4.4-9.42h6.2V-9h-6.86v-1.72H-33.4v2.6l1.58-.42Zm15.24,9.36V-3.92A17.417,17.417,0,0,1-18.22-.1,16.846,16.846,0,0,0-19.5-3.14a15.823,15.823,0,0,0,2.38-4.62h-2.04v-2.7h2.74v-.82l-2.04.52a16.076,16.076,0,0,0-.25-2.31,20.208,20.208,0,0,0-.57-2.47l2-.5a19.111,19.111,0,0,1,.86,3.68v-4.7h2.68v4.62a30.878,30.878,0,0,0,.7-3.74l2.42.48q-.02.08-.08.26-1.04,3.42-1.52,4.58l-1.52-.4v.8h2.52v2.7h-2.52v.22a39.008,39.008,0,0,1,2.78,2.78L-12.68-2.5q-.38-.76-1.06-1.86v6.2Zm4.38-.28V-1.12h1.66v-15.2h8.52v15.2H-.5V1.56ZM-7.6-1.12h2.82v-2.5H-7.6Zm0-5.08h2.82V-8.66H-7.6Zm0-5.04h2.82v-2.4H-7.6Z" transform="translate(1108 801)" fill="#fff"/>
    <path id="路径_7005" data-name="路径 7005" d="M-13.76,0V-14.88h3.58v5.66h4.9v-5.66h3.54V0H-5.28V-6.12h-4.9V0Z" transform="translate(1096 878)" fill="#fff"/>
  </g>
</svg>
