<svg xmlns="http://www.w3.org/2000/svg" width="1148" height="240" viewBox="0 0 1148 240">
  <g id="jasonhandwriting" transform="translate(0 -721)">
    <path id="路径_6951" data-name="路径 6951" d="M0,0H946V240H0Z" transform="translate(0 721)" fill="#313740"/>
    <path id="路径_6952" data-name="路径 6952" d="M0,0H120V240H0Z" transform="translate(1028 721)" fill="#313740"/>
    <path id="路径_6953" data-name="路径 6953" d="M0,0H120V240H0Z" transform="translate(908 721)" fill="#313740"/>
    <path id="路径_6954" data-name="路径 6954" d="M0,0H120V240H0Z" transform="translate(789 721)" fill="#313740"/>
    <path id="路径_6955" data-name="路径 6955" d="M7.44-24.68a4.1,4.1,0,0,1,2.28.24A15.234,15.234,0,0,1,12.92-23a2.864,2.864,0,0,1,.88.68,1.3,1.3,0,0,1,.24.8,1.176,1.176,0,0,1-.32.8,1.152,1.152,0,0,1-1.44.12,8.631,8.631,0,0,0-1.44-.6q-3.92-1.52-3.76-3.04A.448.448,0,0,1,7.44-24.68ZM4.56-14.08a14.7,14.7,0,0,1,3.12-.06,25.288,25.288,0,0,1,3.72.34,1.349,1.349,0,0,1,.68.3,1.1,1.1,0,0,1,.16.7q0,.6-.16.68a14.3,14.3,0,0,1-3.4.6l-1.6.16L5.96-11.6a6.814,6.814,0,0,1-1.28-.32.962.962,0,0,1-.4-.4,1.9,1.9,0,0,1-.24-1.14A.694.694,0,0,1,4.56-14.08Zm8.72,7.56a3.151,3.151,0,0,1,.54-.26q.1-.02.22.14.2.24-.18.94a20.159,20.159,0,0,1-1.54,2.22A48.985,48.985,0,0,1,8.7.9,3.228,3.228,0,0,1,6.8,2.08a1.436,1.436,0,0,1-.92-.36A1,1,0,0,1,5.44.96q0-.6,1.52-1.92,1.6-1.4,2.08-1.88A46.046,46.046,0,0,1,13.28-6.52ZM24.44-31.16a1.031,1.031,0,0,1,1,.04,1.641,1.641,0,0,1,.54.58,1.458,1.458,0,0,1,.26.74.653.653,0,0,0,.52.7,31.648,31.648,0,0,0,3.6.34q2.24.16,2.98.28a2.16,2.16,0,0,1,1.02.36.941.941,0,0,1,.3.98.948.948,0,0,1-.7.74,33.8,33.8,0,0,1-4,.2q-2.76.04-3.42.12t-.82.32a2.9,2.9,0,0,0-.08.96v.88h1.88a31.728,31.728,0,0,1,5.8.32.952.952,0,0,1,.64,1.04,1.474,1.474,0,0,1-.16.62q-.16.34-.32.38a39.782,39.782,0,0,1-4.48.4q-2.56.16-3.02.22t-.5.3a5.014,5.014,0,0,0-.02,1.3,3.389,3.389,0,0,0,.16,1.16,37.654,37.654,0,0,0,4.26.26q4.12.2,4.9.28a2.083,2.083,0,0,1,1.02.28,1,1,0,0,1,.28.8,1.149,1.149,0,0,1-.92,1.24q-1.2.32-8.28.12-7-.16-9.18-.38t-2.3-.74a1.014,1.014,0,0,1,.2-1A4.3,4.3,0,0,1,18.12-18a30.628,30.628,0,0,1,4.88.08l.72.04v-1.4a4.4,4.4,0,0,0-.12-1.52,7.138,7.138,0,0,0-2.16-.28,13.95,13.95,0,0,1-3.68-.48.87.87,0,0,1-.26-.46,1.1,1.1,0,0,1-.02-.62q.08-.36.78-.54a22.873,22.873,0,0,1,2.9-.38,10.153,10.153,0,0,0,2.02-.24.671.671,0,0,0,.36-.42,6.082,6.082,0,0,0,.18-1.14l.04-.96h-.28q-.24,0-2.28-.12a24.886,24.886,0,0,1-3.08-.34q-.8-.18-.96-.5a.837.837,0,0,1-.12-.58.647.647,0,0,1,.2-.46Q17.96-29,22-29h1.52l.12-.6Q23.92-30.92,24.44-31.16Zm-5.2,18.44a12.242,12.242,0,0,1,3-.4q2.24-.12,5.26.02a22.939,22.939,0,0,1,4.22.46,2.885,2.885,0,0,1,2.04,1.92q.64,1.64.76,9.96l.04,4.6-.4,1.12a6.27,6.27,0,0,1-1.12,2.06.859.859,0,0,1-1.12.26,1.189,1.189,0,0,1-.38-.48,1.448,1.448,0,0,1-.22-.64,3.387,3.387,0,0,1,.36-.96,6.439,6.439,0,0,0,.58-1.6,16.836,16.836,0,0,0,.06-2.48,62.538,62.538,0,0,0-.84-9.32q-.28-1.52-.92-1.68a62.825,62.825,0,0,0-7.24-.52,20.488,20.488,0,0,0-2.38-.02,1.1,1.1,0,0,0-.82.34,4.426,4.426,0,0,0-.44,1.84l-.04.68,4.16.04q3.6,0,4.86.08A3.964,3.964,0,0,1,30.48-7a1.817,1.817,0,0,1,.68.52l.2.28-.28.48-.04.04a1.327,1.327,0,0,1-1.06.6q-.74.08-4.9.08a2.132,2.132,0,0,1-.48-.04H19.24V-2.4h5.48q4.4,0,5.22.08a2.8,2.8,0,0,1,1.38.48,1.222,1.222,0,0,1,.46.56,1.952,1.952,0,0,1-.14.88L31.4.32,25.24.24,19.08.2,19,.52q-.04.28-.06,2.32a15.881,15.881,0,0,1-.1,2.28.293.293,0,0,1-.3.26.686.686,0,0,1-.5-.18,1.521,1.521,0,0,1-.46-1.04,33.191,33.191,0,0,1-.1-3.32q0-4.36.32-8.08A18.017,18.017,0,0,1,18.6-12,1.432,1.432,0,0,1,19.24-12.72ZM48.12-29.56a1.409,1.409,0,0,1,.8-.12,1.367,1.367,0,0,1,.72.2,1.226,1.226,0,0,1,.18.52q.06.36.22,2.04.16,2.32.2,2.64h1.12l1.12.04a8.293,8.293,0,0,1,2.72.4,1.407,1.407,0,0,1,.7,1.22,1.464,1.464,0,0,1-.46,1.3,4.072,4.072,0,0,1-1.54.14q-1.26-.02-3.26-.06l-.24-.04v2.32q.08,2.24-.04,4.68-.28,6.16.12,6.32A7.683,7.683,0,0,0,52-9.4a12.5,12.5,0,0,1,1.64-1.56,2.3,2.3,0,0,1,1.2-.4,1.686,1.686,0,0,1,.7.04.283.283,0,0,1,.18.28,3.706,3.706,0,0,1-.78,1.46q-.78,1.1-3.22,4.06Q50.6-4.04,50.48-3.84A9.952,9.952,0,0,0,50.16-1q-.24,6.32-.72,6.76a.6.6,0,0,1-.5.16,1.1,1.1,0,0,1-.62-.16l-.24-.12V3.52Q48,1.4,48.08-.16q.08-2.28-.24-2.24a1.649,1.649,0,0,0-.64.32,3.413,3.413,0,0,1-2.08.64,2.468,2.468,0,0,1-1.68-.7,2.27,2.27,0,0,1-.72-1.58,15.889,15.889,0,0,1,1.32-5.4q.28-.88.8-2.12.24-.8,1.2-3.48.8-2.32,1.24-3.36.32-.76.42-1.08a2.842,2.842,0,0,0,.06-.96q.04-.88-.12-1.04a6.609,6.609,0,0,0-1.36-.12,9.7,9.7,0,0,1-2.96-.44,8.367,8.367,0,0,0-.84-.4q-.6-.28-.6-.72t.64-.8a7.39,7.39,0,0,1,1.64-.48q1.88-.04,3.36-.04-.04-.92-.08-2.08Q47.52-29.24,48.12-29.56Zm-.08,18.2q.08-1.6.04-2.24L48-14.2l-.16.36a26.122,26.122,0,0,0-1.32,3.22Q45.56-8,45.2-6.76a5.828,5.828,0,0,0-.3,1.72q-.02.88.26,1.08.16.16.56.04a3.207,3.207,0,0,0,.92-.58,3.547,3.547,0,0,0,.8-.86,2.459,2.459,0,0,0,.36-.94,17.282,17.282,0,0,0,.12-1.86Q47.96-9.4,48.04-11.36ZM68.36-28.08a1.624,1.624,0,0,1,1.28.04,6.5,6.5,0,0,1,1.6,1.48,22.22,22.22,0,0,1,3.24,4.24q.48.88,1.48,2.52l.92,1.44.68,1.24.04.84-.28.64a1.258,1.258,0,0,1-1.64.2,4.919,4.919,0,0,1-.72-1.08,43.479,43.479,0,0,0-4.32-6.32,23.818,23.818,0,0,1-2.68-3.68l-.28-.6.16-.4A.985.985,0,0,1,68.36-28.08Zm-9.52,3.76a1.55,1.55,0,0,1,.6-.16.929.929,0,0,1,.58.34.929.929,0,0,1,.34.58,9.521,9.521,0,0,1-.4,1.56,34.087,34.087,0,0,0-1.72,6.72q0,.68-.4.8a2.253,2.253,0,0,1-.88.08,1.174,1.174,0,0,1-.64-.16q-.28-.28-.08-2.62a24.155,24.155,0,0,1,.68-4.14,6.407,6.407,0,0,1,.8-1.84A3.6,3.6,0,0,1,58.84-24.32Zm4.4,8.4q.36-.52.5-.68a.377.377,0,0,1,.26-.16,5.132,5.132,0,0,0,.8.12,2.169,2.169,0,0,1,.84.2q.16.12.08.56a19.458,19.458,0,0,1-1.32,3.92,74.188,74.188,0,0,0-3.36,9.64A21.379,21.379,0,0,0,60.6.72q-.12,1.6.12,1.84a3.459,3.459,0,0,0,2.52.56l1.08-.2.72-.4A30.812,30.812,0,0,0,68.3.18a6,6,0,0,0,1.62-1.7,1.422,1.422,0,0,0,.04-.88,12.858,12.858,0,0,0-.68-1.64,5.268,5.268,0,0,1-.56-1.44A.994.994,0,0,1,69-6.06a1.258,1.258,0,0,1,.52-.42q.64-.16,2.58,1.98A49.349,49.349,0,0,1,76.24.88q.92,1.4,1.04,1.52.2.12.3.7a3.171,3.171,0,0,1,.02,1.06,1.2,1.2,0,0,1-.4.84.926.926,0,0,1-.72.28,1.107,1.107,0,0,1-.66-.4A22.153,22.153,0,0,1,74.64,3a16.6,16.6,0,0,0-2.16-3l-.24-.32-.8.8a35.379,35.379,0,0,1-3.12,2.7A16.946,16.946,0,0,1,65.52,5l-.84.36-1.28.28a5.882,5.882,0,0,1-4.44-1.4,3.785,3.785,0,0,1-.88-3.16q.12-1.12,1.38-6.02T61.44-12A18.153,18.153,0,0,1,63.24-15.92Zm42.8-13.2a18.1,18.1,0,0,1,3.26-.2,1.775,1.775,0,0,1,1.34.52q.48.68.08,1.14a3.554,3.554,0,0,1-1.8.78q-1.04.2-6.64.96l-2,.28.04.48a7.157,7.157,0,0,0,.8,2.76,1.4,1.4,0,0,0,.76.78,12.6,12.6,0,0,0,2.32.22q4.4.2,5.24.32t1,.48a1.509,1.509,0,0,1-.16,1.32q-.16.32-.9.44t-3.9.28a28.4,28.4,0,0,0-3.08.24q-.2.04-.12.64a24.771,24.771,0,0,0,.46,2.6q.42,2,.58,2.48.16.52.48.6a21.833,21.833,0,0,0,3.04.24q4.88.28,6.02.4a2.88,2.88,0,0,1,1.5.44.8.8,0,0,1,.16,1.24,1.4,1.4,0,0,1-1.04.52q-.72.08-4.52.12l-4.6.08v.64q0,.84.08,1.72a40.025,40.025,0,0,1,.24,5.44,12.461,12.461,0,0,1-.74,2.68,9.2,9.2,0,0,1-1.1,2.2,6.992,6.992,0,0,1-2.2,1.52l-.52.28L98.6,5.4a13.227,13.227,0,0,1-2.4-.3,4.732,4.732,0,0,1-1.4-.78q-1.28-.96-3.02-2.56A11.219,11.219,0,0,1,89.92-.16a.607.607,0,0,1,.14-.56,1.452,1.452,0,0,1,.62-.44.937.937,0,0,1,.76,0A16.65,16.65,0,0,1,94.12.88a17.431,17.431,0,0,0,2.52,1.9,6.075,6.075,0,0,0,2.2.26l1.4-.04.72-.6a8.572,8.572,0,0,0,1.08-3.44,26.45,26.45,0,0,0,0-4.2,18.517,18.517,0,0,0-.4-3.64.444.444,0,0,0-.4-.24q-.32-.08-6.56-.16-7.76-.16-8.28-.44a1.579,1.579,0,0,1-.64-.58,1.01,1.01,0,0,1-.2-.66q.12-.4.86-.56a27.93,27.93,0,0,1,3.18-.32,93.377,93.377,0,0,1,9.4-.32l1.76.08v-.32q0-.52-.64-4.08-.32-1.84-.52-1.92-.24-.08-4.12-.24-5.8-.24-6.44-.56a1.1,1.1,0,0,1-.6-.6.848.848,0,0,1,0-.8q.16-.32,1.24-.46t4.44-.3q3.36-.16,3.76-.24a1.15,1.15,0,0,0,.44-.1.559.559,0,0,0,.12-.34,5.867,5.867,0,0,0-.28-1.28,6.74,6.74,0,0,0-.56-1.44l-.2-.4-1.28.04q-1.12.08-4.44.08H88.44l-.24-.24a.791.791,0,0,1-.2-.86,1.468,1.468,0,0,1,.72-.82,10.881,10.881,0,0,1,3.32-.6q2.12-.16,3.96-.4Q101.6-28.64,106.04-29.12Zm30-.88a.589.589,0,0,1,.44-.06,3.329,3.329,0,0,1,.72.42,6.956,6.956,0,0,1,2.16,2.16l.36.64,1.16-.04q9.04-.44,11.2,0a4.545,4.545,0,0,1,2.08.8,1.912,1.912,0,0,1,.52,1.18,2.412,2.412,0,0,1-.2,1.46,3.452,3.452,0,0,1-.92,1.12,4.9,4.9,0,0,1-1.78,1.22q-.86.3-1.14-.14-.32-.48.36-1.4a3.245,3.245,0,0,0,.76-1.14q.04-.3-.44-.5-1-.4-15.64.12-6.96.24-7.96.44a.9.9,0,0,0-.6.34,8.052,8.052,0,0,0-.36,1.5q-.36,1.92-.72,1.96-.16.04-.4-.2-.48-.52-.24-2.36a12.141,12.141,0,0,1,.54-2.52,2.608,2.608,0,0,1,.78-1.36,17.71,17.71,0,0,1,3.64-.16q3.48,0,4.92-.08l1.52-.08-.84-.8q-.84-.8-.88-1.08Q134.92-29.4,136.04-30Zm-4.2,7.96a2.7,2.7,0,0,1,.32-.06q.16-.02.26-.04a.843.843,0,0,1,.14-.02q.2,0,1.06.12a5.044,5.044,0,0,1,1.02.2,1.661,1.661,0,0,1,.52.36.655.655,0,0,1,.24.4.9.9,0,0,1-.56.84,9.988,9.988,0,0,1-1.8.4,8.557,8.557,0,0,0-1.62.32.853.853,0,0,0-.54.48,5.445,5.445,0,0,0-.38,1.02,1.964,1.964,0,0,0-.16.82,7.928,7.928,0,0,0,1.74.12,14.837,14.837,0,0,1,1.86.18,1.043,1.043,0,0,1,.66.38.487.487,0,0,1,.04.56,6.819,6.819,0,0,1-2.72,1.28l-1.12.36.04,1.12a8.3,8.3,0,0,0,.1,1.2.431.431,0,0,0,.26.32,28.489,28.489,0,0,0,4.62.1q4.3-.06,7.38-.26a18.255,18.255,0,0,0,3.12-.32q.36-.12,1.12-2.18a10.057,10.057,0,0,0,.76-2.9,2.12,2.12,0,0,0-.24-.8,1.809,1.809,0,0,0-1.02-.9,23.975,23.975,0,0,0-3.06-.82,9.025,9.025,0,0,1-3-.84q-.36-.4.4-1.08l.32-.32h2.44a12.936,12.936,0,0,1,4.32.44,4.244,4.244,0,0,1,1.88,1.76l.48.72-.04,1a5.688,5.688,0,0,1-.22,1.5,21.742,21.742,0,0,1-1.06,2.26,18.155,18.155,0,0,1-2.36,4,5.082,5.082,0,0,1-2.4.96q-1.32.2-6.2.4-3.84.12-5.02.26a3.773,3.773,0,0,0-1.78.58,4.731,4.731,0,0,0-.76.78q-.44.54-.36.62t9.6.16q9.48.08,10.36.24a9.141,9.141,0,0,1,2.1.66,5.3,5.3,0,0,1,1.58,1.02,2.7,2.7,0,0,1,.6,2.76,15.666,15.666,0,0,1-1.84,3.64,19.425,19.425,0,0,1-2.72,3.6,3.214,3.214,0,0,1-1.24.82,1.356,1.356,0,0,1-1.12-.26q-.84-.56-.68-1a4.026,4.026,0,0,1,.92-.88,8.649,8.649,0,0,0,1.32-1.2,10.407,10.407,0,0,0,1.8-3,4.164,4.164,0,0,0,.52-2.48q-.24-.48-2.04-.88-.8-.16-9.24-.2-8.56-.04-10.6.04l-2.24.08-.64,1.08a4.438,4.438,0,0,1-.8,1.14.5.5,0,0,1-.64-.02q-.56-.32.06-1.56a34.193,34.193,0,0,1,2.74-4.12,11.726,11.726,0,0,0,1.46-2.18,5.57,5.57,0,0,0-.22-1.86,59.051,59.051,0,0,1-1.08-6.12,8.818,8.818,0,0,1,.2-3.12,1.77,1.77,0,0,1,1.04-1.08A6.627,6.627,0,0,1,131.84-22.04Zm9.12,4.16a2.943,2.943,0,0,1,1.44.04,13.631,13.631,0,0,0,2.16.24,4.763,4.763,0,0,1,1.88.36.84.84,0,0,1,.4,1.12,1.151,1.151,0,0,1-.56.68,5.921,5.921,0,0,1-1.56.12q-3.36,0-4.6-.92a.885.885,0,0,1-.48-1Q139.72-17.6,140.96-17.88Zm.56,16.44q.96-.68,2.88,1.28A7.132,7.132,0,0,1,145.36,1a.848.848,0,0,1,0,.72.912.912,0,0,1-.82.56,2.206,2.206,0,0,1-1.26-.36A7.261,7.261,0,0,1,142.1.94a4.419,4.419,0,0,1-.82-1.02,1.075,1.075,0,0,1-.08-.8A.831.831,0,0,1,141.52-1.44Zm-4.88.36a1.247,1.247,0,0,1,.4-.2q.32,0,1.3.9a10.06,10.06,0,0,1,1.5,1.66,1.791,1.791,0,0,1,.4,1,1.1,1.1,0,0,1-.34.84.972.972,0,0,1-.86.24,2.514,2.514,0,0,1-1.08-.8,5.838,5.838,0,0,1-1.48-2.2Q136.12-.8,136.64-1.08Zm-4.92.72a1.367,1.367,0,0,1,1.16.04,9,9,0,0,1,2.1,1.82Q136.4,3,136.4,3.44q0,.16-.32.48-1,1-3.08-1.04Q130.28.28,131.72-.36Zm-5.68.48a1.314,1.314,0,0,1,.58-.4.933.933,0,0,1,.58.16,13.152,13.152,0,0,1,1.92,1.8,15.84,15.84,0,0,1,1.84,2.2.858.858,0,0,1-.24,1.2,1.1,1.1,0,0,1-.9.32,3.13,3.13,0,0,1-1.22-.8q-.56-.56-1.48-1.52a13.672,13.672,0,0,1-1.28-1.48,1.191,1.191,0,0,1-.28-.74A1.738,1.738,0,0,1,126.04.12Zm64.6-30.48a.8.8,0,0,1,.88-.12,1.029,1.029,0,0,1,.56.48,2.689,2.689,0,0,1,.12.96q0,.76.14.88a3.955,3.955,0,0,0,1.14.32q3.4.56,4.12,1.76a7.9,7.9,0,0,1,.88,2.2,10.792,10.792,0,0,1,.18,2.12,6.121,6.121,0,0,1-.14,1.84,18.912,18.912,0,0,1-1.6,2.56,10.154,10.154,0,0,1-1.8,2.32,20.6,20.6,0,0,1-4.48.44q-5.04.2-7.2.52a6.45,6.45,0,0,1-1.5.1q-.3-.06-.42-.5-.52-1.8-.52-9.8v-2l.36-.32a8.35,8.35,0,0,1,1.52-.84,7.935,7.935,0,0,0,1.48-.84,2.726,2.726,0,0,0,.6-.84,1.6,1.6,0,0,1,.44-.74,1.115,1.115,0,0,1,.68-.18,1.1,1.1,0,0,1,.72.4,1.277,1.277,0,0,1,.32.88v.36h.72a9.7,9.7,0,0,0,1.2-.08l.52-.08.4-.8A2.937,2.937,0,0,1,190.64-30.36Zm-1.28,6.08.08-1.32h-.84q-1.44,0-1.68.52a5.453,5.453,0,0,0-.28,1.16,2.62,2.62,0,0,0-.08,1.04q.08.12,1.36.04,1.32-.08,1.34-.1T189.36-24.28Zm-4.84-.92a.568.568,0,0,0-.72-.24,1.8,1.8,0,0,0-.92.62,3.375,3.375,0,0,0-.24,1.38l-.08.96.88-.04q.8-.08,1.12-.12.24-.08.28-.16a1.17,1.17,0,0,0,.04-.4A3.824,3.824,0,0,0,184.52-25.2Zm8.72.04a3.575,3.575,0,0,0-1.4-.04q-.56.24-.68,1.36a3.692,3.692,0,0,0-.04.88q.04.04,2.52.16t2.52.08q.08-.08-.3-.76a4.62,4.62,0,0,0-.58-.88A3.8,3.8,0,0,0,193.24-25.16Zm2.96,4.72q0-.16-.08-.16l-.1.02-.28.06q-.18.04-.34.08a23.472,23.472,0,0,1-2.48.28,12.088,12.088,0,0,0-2.12.28q-.48.24-.48,1.44-.04.6.12.72a3.77,3.77,0,0,0,1.22.22,15.248,15.248,0,0,0,1.8.08,2.154,2.154,0,0,0,1.08-.24,3.393,3.393,0,0,0,.82-.94A4.463,4.463,0,0,0,196.2-20.44Zm-8.08.36q-1.24-.24-1.64.12a.758.758,0,0,0-.18.38,7.007,7.007,0,0,0,.02.86,5.179,5.179,0,0,0,.2,1.28.643.643,0,0,0,.6.34,1.379,1.379,0,0,0,.88-.3,2.338,2.338,0,0,0,.7-1.2q.3-.92.1-1.24A1.119,1.119,0,0,0,188.12-20.08ZM184.4-20q-.24-.16-.96.08a.9.9,0,0,0-.64.48,7.275,7.275,0,0,0-.16,1.68l-.08,1.4.44-.08a1.87,1.87,0,0,0,1.36-.72,3.376,3.376,0,0,0,.22-1.5Q184.6-19.88,184.4-20Zm-12.88-9.08q4.48-.36,6.44,1.6A3.1,3.1,0,0,1,179-25.4a21.848,21.848,0,0,1-1.08,4.44,11.326,11.326,0,0,0-.52,1.8q0,.4,1.28,1.08a3.32,3.32,0,0,1,1.4,1.1,3.785,3.785,0,0,1,.48,1.78l.08.76-.36.28a6.579,6.579,0,0,1-.96.56,2.7,2.7,0,0,1-.82.32,1.031,1.031,0,0,1-.54-.32,1.467,1.467,0,0,1-.44-.56q-.12-.32-.24-.72a.791.791,0,0,0-.42-.6,5.43,5.43,0,0,0-1.5-.12,46.418,46.418,0,0,0-5.68.36,40.819,40.819,0,0,0-5.12.84q-.76.24-1.68,2.16a4.412,4.412,0,0,1-.72,1.24q-.24.2-.64-.04a.4.4,0,0,1-.22-.26,4.475,4.475,0,0,1,.06-.78,7.3,7.3,0,0,1,.16-1.36,7.736,7.736,0,0,1,1-2.06q.76-1.18,1.16-1.3a2.25,2.25,0,0,1,.68-.08h.44l.04-.76q.08-.84.12-3.48a38.121,38.121,0,0,1,.4-5.76,1.855,1.855,0,0,1,.38-.92,2.38,2.38,0,0,1,.9-.52q.56-.16,2.16-.42T171.52-29.08Zm3.32,2.92a20.927,20.927,0,0,0-3.4-.2q-2.12-.04-2.78.02a2.5,2.5,0,0,0-1.06.3q-.56.32-.72,2-.08,1.08-.04,3.62A16.175,16.175,0,0,0,167-17.6a.357.357,0,0,0,.36.32q.8,0,1.08-1.02a15.381,15.381,0,0,0,.24-3.7,6.871,6.871,0,0,1,.12-2.24q.4-.48,2.72-.68t2.84.2a.894.894,0,0,1,.4.52,1.2,1.2,0,0,1,.04.68.712.712,0,0,1-.42.48,4.84,4.84,0,0,1-1.26.28,3.074,3.074,0,0,0-1.84.64,5.267,5.267,0,0,0-.46,1.36,12.993,12.993,0,0,0-.38,2.04l-.08.64,1.36-.08a11.6,11.6,0,0,0,3.04-.4,1.132,1.132,0,0,0,.56-.56,7.7,7.7,0,0,0,.74-2.28,11.191,11.191,0,0,0,.22-2.84,2.58,2.58,0,0,0-.3-1.32A2.077,2.077,0,0,0,174.84-26.16Zm18.2,12.4a1.536,1.536,0,0,1,.84.12,3.22,3.22,0,0,1,.96.48,1.041,1.041,0,0,1,.32,1.06.965.965,0,0,1-.68.86q-1.64.56-9.2.6a20.912,20.912,0,0,1-3.8-.14.958.958,0,0,1-.12-.58.852.852,0,0,1,.16-.6,2.649,2.649,0,0,1,1.36-.68,60.935,60.935,0,0,1,7.96-.92Q192.96-13.72,193.04-13.76Zm-22.84.52a8.333,8.333,0,0,1,4.76.4,4.6,4.6,0,0,1,1.04.72,3.238,3.238,0,0,1,.76.84q.36.64.36,7.84-.04,8.16-.28,8.76-.08.24-.54.42a2.665,2.665,0,0,1-.98.18q-.76.04-.94-.36a3.77,3.77,0,0,1,.02-1.72,55.2,55.2,0,0,0,.26-7.48q-.06-5.28-.42-6.12a1.452,1.452,0,0,0-.94-.84,5.854,5.854,0,0,0-2.1-.16q-3.08.12-3.8,1.32a3.8,3.8,0,0,0-.6,1.84v.4h.52q.48,0,2.36-.16a13.647,13.647,0,0,1,2.4-.08,1.818,1.818,0,0,1,1.32.68.709.709,0,0,1-.12,1.04,12.139,12.139,0,0,1-3.6.84,23.4,23.4,0,0,0-2.42.48,1.108,1.108,0,0,0-.66.44,5.544,5.544,0,0,0-.24,1.34,3.45,3.45,0,0,0-.04,1.18q.08.04,2.48-.24,3.56-.48,4.08-.2a.894.894,0,0,1,.4.52.933.933,0,0,1-.6,1.28,12.639,12.639,0,0,1-2.64.58,23.155,23.155,0,0,1-3.32.3H166v.64a27.289,27.289,0,0,0,.24,3.32,1.1,1.1,0,0,1,.04.48.7.7,0,0,1-.24.28,1.038,1.038,0,0,1-1.04.32q-.24-.08-.32-.8T164.6,1.6a87.511,87.511,0,0,1,.6-11.16,8.408,8.408,0,0,1,.44-1.98,1.649,1.649,0,0,1,.8-.82A16.883,16.883,0,0,1,170.2-13.24ZM182.84-9.6a.855.855,0,0,1,.48-.18,3.225,3.225,0,0,1,.72.3,2.422,2.422,0,0,0,.68.28,6.78,6.78,0,0,0,.92.04,28.59,28.59,0,0,0,2.96-.24,27.611,27.611,0,0,1,3.48-.24,13.911,13.911,0,0,1,1.42.04,1.943,1.943,0,0,1,.62.24,2.722,2.722,0,0,1,1.2,1.68,2.956,2.956,0,0,1,.12,1.4,4.551,4.551,0,0,1-.76,1.48,5.092,5.092,0,0,1-1.92,1.88,17.318,17.318,0,0,1-3.52.52,21.937,21.937,0,0,0-5.32.88,2.034,2.034,0,0,1-.84.2q-.32-.04-.56-.7a17.3,17.3,0,0,1-.56-2.46,11.851,11.851,0,0,1-.36-3.36,3.517,3.517,0,0,1,.54-.98A3.573,3.573,0,0,1,182.84-9.6Zm10.12,2.8a7,7,0,0,0-1.16-.06q-1.12-.02-1.76.02-1.2.08-2.8.2-3.52.24-3.64.48a1.146,1.146,0,0,0-.08.54,1.09,1.09,0,0,0,.28.74l.32.32,1.36-.08q2.32-.12,4.56-.36a13.383,13.383,0,0,0,2.56-.4,1.514,1.514,0,0,0,.28-.68Q193.04-6.68,192.96-6.8Zm.88,4.88q.4-.48.56-.48a.986.986,0,0,1,.54.28,1.733,1.733,0,0,1,.46.52,1.03,1.03,0,0,1-.02.6q-.1.32-.66,1.6a8.029,8.029,0,0,0-.8,2.12l-.04.28,1.12.08q2.52.2,2.94.24a1.038,1.038,0,0,1,.66.28q.28.2.28.88a1.514,1.514,0,0,1-.12.84.808.808,0,0,1-.6.36,41.3,41.3,0,0,1-4.72.4q-4.2.24-7.36.32-4.08.04-5.28-.08t-1.44-.6A.684.684,0,0,1,179.6,5a3.139,3.139,0,0,1,1.28-.64q.72-.24.8-.44a5.025,5.025,0,0,0-.16-1.52A6.822,6.822,0,0,1,181.4.64a1.141,1.141,0,0,1,.66-.88,1.142,1.142,0,0,1,1.06-.16,1.078,1.078,0,0,1,.5.68,11.027,11.027,0,0,1,.26,1.76l.08,1.52,3.64-.12,3.6-.12.48-1.2A26,26,0,0,1,192.8-.3,7.373,7.373,0,0,1,193.84-1.92Z" transform="translate(68 798)" fill="#fff"/>
    <path id="路径_6956" data-name="路径 6956" d="M14.04-14.88a.332.332,0,0,1,.32-.08q.52.04.66.32a.424.424,0,0,1,0,.36,5.193,5.193,0,0,1-.76,1.04,1.944,1.944,0,0,0-.32.38,4.626,4.626,0,0,0,1.38.16,5.759,5.759,0,0,1,1.08.1.557.557,0,0,1,.22.24.684.684,0,0,1,.12.32q0,.3-.68.44a20.953,20.953,0,0,1-2.6.24,7.391,7.391,0,0,0-1.18.08.734.734,0,0,0-.06.32q-.04.34.16.42a6.224,6.224,0,0,0,1.26.14,15.419,15.419,0,0,1,2.5.22.417.417,0,0,1,.24.3.477.477,0,0,1-.12.4l-.02.02a.88.88,0,0,1-.5.19q-.36.05-2.36.15a.86.86,0,0,1-.16.02,6.07,6.07,0,0,0-.9.08q-.22.08-.26.68L12.02-8l.9.04A25.627,25.627,0,0,1,16-7.74q.74.14.76.52a.3.3,0,0,1-.16.26,2.128,2.128,0,0,1-.96.33q-.58.07-2.2.07a9.847,9.847,0,0,0-2.04.1q0,.04.32.26a1.339,1.339,0,0,1,.66,1.02.7.7,0,0,0,.18.42,1.177,1.177,0,0,1,.29.68,9.842,9.842,0,0,1-.05,1.62q-.06.9-.14,2.48-.08,1.74-.15,2.33a1.393,1.393,0,0,1-.23.75.49.49,0,0,1-.42.08.878.878,0,0,1-.48-.2.433.433,0,0,1-.17-.29.961.961,0,0,1,.15-.45l.18-.38.04-1.1q.02-.88-.03-2.45a13.363,13.363,0,0,0-.11-1.75l-.04-.14-.64.02q-1.14.02-1.3-.22a.589.589,0,0,1-.08-.33.949.949,0,0,1,.08-.39.4.4,0,0,1,.23-.19q.15-.05.81-.17.84-.14.84-.22,0-.04-.14-.16a3.166,3.166,0,0,1-.37-.46,1.718,1.718,0,0,1-.23-.42q-.02-.18-.08-.22a3.293,3.293,0,0,0-1.18-.2,2.749,2.749,0,0,1-1.06-.22q-.1-.12.04-.38a.783.783,0,0,1,.36-.36,4.554,4.554,0,0,1,1.6-.26q.76-.06.88-.24a1.517,1.517,0,0,0,.12-.58l.02-.46h-.38q-.34,0-1.08-.06a3.4,3.4,0,0,1-.83-.13.554.554,0,0,1-.33-.25.346.346,0,0,1,.16-.47,5.412,5.412,0,0,1,1.22-.41,5.49,5.49,0,0,0,1.04-.32q.22-.12.14-.3a.306.306,0,0,0-.2-.22,2.9,2.9,0,0,0-.62-.04q-.78,0-.96.02A1.017,1.017,0,0,1,9-11.27a2.208,2.208,0,0,1-.42-.27q-.56-.5-.22-.72.12-.06.54-.22.8-.24.86-.4a1.27,1.27,0,0,0-.2-.52,1.338,1.338,0,0,1-.19-.46.261.261,0,0,1,.15-.24.777.777,0,0,1,.34-.06,1.471,1.471,0,0,1,1.12.9,1.18,1.18,0,0,0,.3.4.682.682,0,0,0,.4.1,2.584,2.584,0,0,0,.58-.06.751.751,0,0,0,.3-.07,2.341,2.341,0,0,0,.26-.21,8.686,8.686,0,0,0,.68-.91,2.339,2.339,0,0,0,.38-.69Q13.88-14.78,14.04-14.88ZM3.9-13.84q.08-.08.45.01t.43.23a5.581,5.581,0,0,1,.1,1.2l.04,1.1.52-.02q.58,0,1.02.02a1.233,1.233,0,0,1,.7.16q.18.1.2.2a.452.452,0,0,1-.06.46,1.115,1.115,0,0,1-.44.38,3.051,3.051,0,0,1-.96.12q-.76.02-.82.12A5.4,5.4,0,0,0,4.8-7.62q0,1.04.03,2.3A4.709,4.709,0,0,0,4.94-4q.04.04.38-.36a1.718,1.718,0,0,1,.46-.48.177.177,0,0,1,.23.01q.11.09.11.51A1.9,1.9,0,0,1,6-3.63a5.887,5.887,0,0,1-.52.93q-.34.56-.4.7a10.688,10.688,0,0,0-.2,1.86q-.12,1.96-.2,2.48t-.34.64a.4.4,0,0,1-.48-.04,1.159,1.159,0,0,1-.04-1.26,1.017,1.017,0,0,0,.11-.41q.01-.21-.01-1.05A5.067,5.067,0,0,0,3.86-1a2.183,2.183,0,0,0-.56.22,2.492,2.492,0,0,1-1.16.34.741.741,0,0,1-.45-.31A1.661,1.661,0,0,1,1.5-1.5a2.4,2.4,0,0,1,.05-.9A16.268,16.268,0,0,1,2.1-3.98,25.841,25.841,0,0,0,3.62-9.2q.04-.38-.12-.47a4.434,4.434,0,0,0-1.04-.21,3.852,3.852,0,0,1-1.02-.24.518.518,0,0,1-.22-.5q-.02-.2.08-.26a8.436,8.436,0,0,1,2.1-.38l.3-.04.04-.26q.02-.2.06-1.24A4.108,4.108,0,0,1,3.9-13.84ZM3.88-4q-.1-1.22-.14-1.42l-.02-.2-.58,1.2a13.318,13.318,0,0,0-.75,1.87q-.15.57.07.75l.12.1.2-.1a4.27,4.27,0,0,0,.7-.54l.46-.44Zm12.2-.5a.746.746,0,0,1,.56-.02q.24.12.24.56,0,.28-.62.64a9.358,9.358,0,0,0-1.04.88,5.246,5.246,0,0,0-.82.84q-.04.22.6.86A16.138,16.138,0,0,0,16.57.62a13.6,13.6,0,0,0,1.55,1.06,3.155,3.155,0,0,1,.77.5.412.412,0,0,1,.11.44q-.1.26-.64.3-1.04.12-2.88-1.44-.26-.2-1.08-.88a2.221,2.221,0,0,1-.6-.58,2.549,2.549,0,0,1-.23-.86,2.278,2.278,0,0,1,.03-.9A5.74,5.74,0,0,1,15.08-3.6,7.817,7.817,0,0,1,16.08-4.5ZM7.36-2.42a1.508,1.508,0,0,1,.29-.01,6.08,6.08,0,0,1,.67.17,5.155,5.155,0,0,1,1.44.52.856.856,0,0,1,.28.54,2.036,2.036,0,0,1-.18.8,11.928,11.928,0,0,1-.98,1.92,10.313,10.313,0,0,1-.7,1.07.419.419,0,0,1-.44.07.535.535,0,0,1-.28-.14.44.44,0,0,1-.06-.26,2.866,2.866,0,0,1,.44-.94,10,10,0,0,0,1-1.88q0-.22-.74-.5-.5-.18-.76-.3A.965.965,0,0,1,7-1.63a.568.568,0,0,1-.16-.27q0-.1.2-.28A1.625,1.625,0,0,1,7.36-2.42Zm26.28-12.8a.672.672,0,0,1,.65.01,2.446,2.446,0,0,1,.85.61,4.545,4.545,0,0,1,.82,1.07,1.125,1.125,0,0,1,.18.83.519.519,0,0,1-.36.31.566.566,0,0,1-.5-.05,5.19,5.19,0,0,1-.78-.76,9.56,9.56,0,0,1-.84-1.04Q33.22-14.9,33.64-15.22Zm-3.6.48a.732.732,0,0,1,.44-.03.607.607,0,0,1,.36.17,11.5,11.5,0,0,1,.36,1.86,8.362,8.362,0,0,0,.17,1q.07.24.15.24a19.571,19.571,0,0,0,3.52.22,6.5,6.5,0,0,1,1.23.09.628.628,0,0,1,.37.37.293.293,0,0,1,.07.18,1.292,1.292,0,0,1-.11.26.154.154,0,0,1-.02.06.5.5,0,0,1-.35.33,10.8,10.8,0,0,1-1.49.03,1.735,1.735,0,0,0-.24-.02,18.033,18.033,0,0,0-2.58.04.182.182,0,0,0-.1.13,3.832,3.832,0,0,0,0,.59,16.639,16.639,0,0,0,.36,2.5,23.519,23.519,0,0,0,.96,3.2q.64,1.58.91,2.14a5.626,5.626,0,0,0,.73,1.12q.46.56.94,1.04l.68.54.7.42a5.981,5.981,0,0,1,.86.48.811.811,0,0,1,.02.68q-.1.18-.47.19a1.927,1.927,0,0,1-.77-.15,6,6,0,0,1-1.41-.88A8.958,8.958,0,0,1,33.96.74a8.069,8.069,0,0,1-.82-1.42Q32-3.2,31.68-4.16a25.07,25.07,0,0,1-1.04-5.32l-.06-.54-.28-.02q-.2-.02-2.54.08t-3.62.2l-1,.06-.2-.14a3.93,3.93,0,0,0-.42-.2l-.22-.08v-.26a.683.683,0,0,1,.08-.43.562.562,0,0,1,.36-.21,14.8,14.8,0,0,1,2.12-.19q1.94-.11,3.66-.17a9.456,9.456,0,0,0,1.4-.1l.18-.04-.04-.58a8.68,8.68,0,0,0-.16-1.02Q29.64-14.52,30.04-14.74ZM23.48-6.9q.36-.06,3.74.06a9.623,9.623,0,0,1,1.24.07.82.82,0,0,1,.42.23.5.5,0,0,1,.08.62.507.507,0,0,1-.39.28,9.228,9.228,0,0,1-1.29.08,7.865,7.865,0,0,0-1.22.08,17.8,17.8,0,0,0-.14,2.96L25.88-.9h.36a3.587,3.587,0,0,0,.86-.12,8.307,8.307,0,0,1,.94-.18,1.171,1.171,0,0,1,.62.02.623.623,0,0,1,.3.44q.04.14-.14.32a2.889,2.889,0,0,1-1.1.56q-.76.24-2.56.61a8.236,8.236,0,0,1-2.14.29.476.476,0,0,1-.34-.52.655.655,0,0,1,.31-.57,3.186,3.186,0,0,1,1.05-.37,3.275,3.275,0,0,0,.66-.17.492.492,0,0,0,.22-.23,13.023,13.023,0,0,0,.06-2.41,11.443,11.443,0,0,0-.14-2.29,4.721,4.721,0,0,0-.94-.06L23-5.62l-.06-.3a1.312,1.312,0,0,1-.02-.5.509.509,0,0,1,.19-.31A.65.65,0,0,1,23.48-6.9Zm18.04-3.24a.415.415,0,0,1-.12-.52,1.7,1.7,0,0,1,.46-.66l.66-.82.58-.74q.3-.28.68.12a.766.766,0,0,1,.18.45,3.018,3.018,0,0,1-.12.67l-.06.62q0,.82-.08,2.18-.12,1.96-.12,2.34-.08,1.18-.08,2.14-.14,2.74-.22,3.92A4.8,4.8,0,0,1,43.16.58q-.08.24-.24.26a.6.6,0,0,1-.64-.36q-.04-.26.14-2.58.04-.56.06-1.15t.05-1.63q.03-1.04.07-2.04.1-2.56.2-3.9a2.152,2.152,0,0,1-.84.76A.389.389,0,0,1,41.52-10.14Z" transform="translate(827 801)" fill="#fff"/>
    <path id="路径_6957" data-name="路径 6957" d="M10.84-6.22a1.876,1.876,0,0,1-.73-.31.336.336,0,0,1-.03-.41.42.42,0,0,1,.27-.26,3.109,3.109,0,0,1,.77-.12l.6-.06L11.68-8q-.04-.74-.06-.92L11.6-9.2l-.4-.04a1.584,1.584,0,0,1-.96-.3.242.242,0,0,1,0-.36,1.83,1.83,0,0,1,.72-.32,1.053,1.053,0,0,0,.56-.35,1.3,1.3,0,0,0,.16-.65.3.3,0,0,0-.2-.3,9.8,9.8,0,0,0-1.28-.26q-.66-.12-.68-.42a.236.236,0,0,1,.09-.22,1.7,1.7,0,0,1,.47-.24q.42-.16.42-.26a2.758,2.758,0,0,0-.26-.64,4.843,4.843,0,0,1-.26-.71.456.456,0,0,1,.04-.33.327.327,0,0,1,.48-.14,3.357,3.357,0,0,1,.8,1.06q.5.82.64.82.18,0,1-.98a6.314,6.314,0,0,1,.98-1,.889.889,0,0,1,.28-.12q.12-.02.32.17a.784.784,0,0,1,.24.35q.04.1-.6.76-.66.66-.66.68a4.284,4.284,0,0,0,1.14.18,6.629,6.629,0,0,1,.88.14.746.746,0,0,1,.32.18.47.47,0,0,1,.11.32.481.481,0,0,1-.09.34,4.68,4.68,0,0,1-1.88.24,7.973,7.973,0,0,0-1.07.07.389.389,0,0,0-.31.19,1.261,1.261,0,0,0-.02.68.42.42,0,0,0,.29.28,5.724,5.724,0,0,0,1.03.22,6.376,6.376,0,0,1,.9.18.491.491,0,0,1,.3.2.461.461,0,0,1-.1.48l-.14.18H12.72v.78l-.02.78.16.02q.22.04.96.1a5.053,5.053,0,0,1,1.17.2.527.527,0,0,1,.25.46,1.03,1.03,0,0,1,0,.3.193.193,0,0,1-.08.1,10.867,10.867,0,0,1-1.64.12q-1.54.08-1.98.1A3.8,3.8,0,0,1,10.84-6.22Zm-5.2-7.54a.366.366,0,0,1,.5-.04q.18.12.04.86a12.326,12.326,0,0,0-.22,1.68,2,2,0,0,0,.46.02q.84-.06,1.04-.08l.58-.02.16.12a.513.513,0,0,1,.14.6q-.24.48-1.74.58-.5.02-.56.13T5.96-6.64a22.891,22.891,0,0,0,.08,3.12q.02,0,.68-.3l.39-.15a1.906,1.906,0,0,1,.21-.07.6.6,0,0,1,.1-.02q.02,0,.02.04,0,.12-.41.57a8.421,8.421,0,0,1-.79.77l-.32.28L5.88-.14q-.02,1.82-.06,2.26a.793.793,0,0,1-.2.56q-.24.16-.52-.26a1.016,1.016,0,0,1-.18-.39.632.632,0,0,1,.1-.37.8.8,0,0,0,.11-.32q.01-.14.01-.7a10.147,10.147,0,0,0-.1-2.2q-.04-.04-.6.22A4.649,4.649,0,0,1,2.9-.9q-.54.04-.67-.09t.01-.55q.1-.26.96-2Q4.08-5.3,4.3-5.8q.28-.62.5-1.04a2.686,2.686,0,0,0,.28-.64,8.994,8.994,0,0,0-.02-.97,8.609,8.609,0,0,0-.1-1.13l-.02-.18L4.2-9.8a3.274,3.274,0,0,1-1.04-.19.461.461,0,0,1-.26-.45.4.4,0,0,1,.2-.4A3.249,3.249,0,0,1,4.04-11a3.715,3.715,0,0,0,.71-.1A.373.373,0,0,0,5-11.3a5.264,5.264,0,0,0,.1-.74A2.763,2.763,0,0,1,5.64-13.76ZM5.06-3.64a7.085,7.085,0,0,0,0-1.14q-.04-.1-.1-.02-.02.04-.07.13t-.45.83q-.18.36-.62,1.1a2.663,2.663,0,0,0-.34.7q-.04.1-.02.12t.1-.02a5.385,5.385,0,0,0,.8-.36l.66-.34ZM15.42.14q.44.28,1.06.64A3.418,3.418,0,0,1,17.72,1.8a.332.332,0,0,1,.05.18.612.612,0,0,1-.11.2q-.14.2-.2.22a1.618,1.618,0,0,1-.48-.24,16.385,16.385,0,0,0-1.48-.78q-.34-.2-.54-.34a4.761,4.761,0,0,1-.5-.34L14.44.68Q14.18.5,13.9.28a6.284,6.284,0,0,0-.7-.54q-.06,0-.09.2T13,1.08q-.1,1.16-.12,1.36a1.1,1.1,0,0,1-.25.46.544.544,0,0,1-.41.18h-.14V-.18A29.766,29.766,0,0,0,12-3.6a.445.445,0,0,0-.28-.15,3.354,3.354,0,0,0-.68.01,2.933,2.933,0,0,1-1.38-.12.354.354,0,0,1-.18-.52.421.421,0,0,1,.24-.26,3.122,3.122,0,0,1,.66-.16,1.823,1.823,0,0,0,.6-.14q.06-.06-.1-.38l-.14-.24.1-.24a.557.557,0,0,1,.44-.24.651.651,0,0,1,.38.14,2.547,2.547,0,0,0,.45.42,3.455,3.455,0,0,0,.53.34q.2.08.56.24a.49.49,0,0,1,.28.26.4.4,0,0,1,.06.28q-.02.16-.24,1.16-.26,1.24-.08,1.18.08-.04,1.02-.7a13.99,13.99,0,0,1,1.63-.99q.43-.19.61-.03.2.18.07.36a2.86,2.86,0,0,1-.73.54,5.109,5.109,0,0,0-.84.56q-.36.28-.72.6a3.281,3.281,0,0,0-.36.34q0,.2.92,1A4.728,4.728,0,0,0,15.42.14ZM8.82-2.02a.531.531,0,0,1,.42-.14,2.873,2.873,0,0,1,1.18.24,2.277,2.277,0,0,1,.41.27.83.83,0,0,1,.27.33q.16.36-.32,1.25A6.622,6.622,0,0,1,9.56,1.54q-.5.52-.92.36a.462.462,0,0,1-.34-.5q0-.36.46-.56a1.716,1.716,0,0,0,.6-.53A2.417,2.417,0,0,0,9.78-.5a.415.415,0,0,0,0-.36,1.584,1.584,0,0,0-.44-.34,2.211,2.211,0,0,1-.6-.48Q8.64-1.84,8.82-2.02ZM32.3-14.14a.457.457,0,0,1,.26-.1,2.108,2.108,0,0,1,.69.16,2.65,2.65,0,0,1,.69.36q.22.14.96.54a6.372,6.372,0,0,1,.92.56.4.4,0,0,1,.05.47.448.448,0,0,1-.43.25,4.766,4.766,0,0,1-1.6-.43,4.915,4.915,0,0,1-1.46-.81l-.28-.26.04-.3A.614.614,0,0,1,32.3-14.14Zm-3.68,1.22q.14-.16.36.08a6.236,6.236,0,0,1,.84,1.98l.22.64,1.7-.02a16.335,16.335,0,0,1,3.5.14.481.481,0,0,1,.34.5q0,.24-.06.28a18.906,18.906,0,0,1-2.24.2q-2,.12-2.34.16t-.36.16a7.622,7.622,0,0,0,.57,2.07A28.649,28.649,0,0,0,32.4-3.72a10.619,10.619,0,0,0,1.04,1.77A14.891,14.891,0,0,0,34.98-.28,8.193,8.193,0,0,0,36.9,1.28a.788.788,0,0,0,.66.06.147.147,0,0,1,.2.04.822.822,0,0,1,0,.72q-.04.18-.13.2a1.211,1.211,0,0,1-.43-.08A6.9,6.9,0,0,1,34.95.87,13.675,13.675,0,0,1,32.66-1.4a10.544,10.544,0,0,1-1.29-2.12q-.51-1.12-1.77-4.52l-.32-.88h-.16q-.14,0-.92.08a19.179,19.179,0,0,1-3.08.1,3.03,3.03,0,0,1-1.08-.22,2.292,2.292,0,0,1-.48-.33q-.24-.21-.24-.29a.486.486,0,0,1,.12-.24q.08-.14.14-.16a1.587,1.587,0,0,1,.34-.02q.36,0,2.08.06,1.54.04,2.18-.01t.72-.23a1.9,1.9,0,0,0-.08-.52q-.08-.32-.24-1.12a3.371,3.371,0,0,1-.11-.74A.579.579,0,0,1,28.62-12.92ZM25.94-5.6a4.418,4.418,0,0,1,1.14.02,1.329,1.329,0,0,1,.28.07.325.325,0,0,1,.12.15.573.573,0,0,1-.02.72,2.881,2.881,0,0,1-1.16.4.85.85,0,0,0-.26.08.3.3,0,0,0-.1.16,7.087,7.087,0,0,0-.05,1.55,7.552,7.552,0,0,0,.09,1.43,3.306,3.306,0,0,0,.86-.12q.94-.2,1.12-.22a.369.369,0,0,1,.26.04q.2.2-.44.64A9.3,9.3,0,0,1,25.58.36q-1.94.66-2.4.42a.729.729,0,0,1-.35-.36.591.591,0,0,1-.01-.44.471.471,0,0,1,.21-.2,7.387,7.387,0,0,1,.81-.3,4.99,4.99,0,0,0,.88-.4.3.3,0,0,0,.09-.19q.01-.11-.01-.69a9.349,9.349,0,0,0-.26-2q-.08-.36-.18-.36a4.47,4.47,0,0,0-.48-.08,1.183,1.183,0,0,1-.86-.44.393.393,0,0,1-.08-.17.511.511,0,0,1,.08-.19.63.63,0,0,1,.41-.3,8.7,8.7,0,0,1,1.25-.16q.24-.02.71-.05A5.273,5.273,0,0,0,25.94-5.6Zm19.62-7.6a3.038,3.038,0,0,1,.5-.04,2.254,2.254,0,0,1,1.18.22,3.158,3.158,0,0,1,1.32,1.08q.72.88.66,1.22a1.354,1.354,0,0,1-.6.74,15.952,15.952,0,0,0-1.76,1.6,19.245,19.245,0,0,0-2.19,2.36A24.9,24.9,0,0,0,42.9-3.06q-.06.14-.23.45a3.235,3.235,0,0,0-.21.43,2.068,2.068,0,0,0-.32,1q0,.22.82.31t3.9.21q1.96.04,2.35.09t.41.37q.12.6-.66.74a23.309,23.309,0,0,1-2.34.02Q44.86.52,43.54.44A8.732,8.732,0,0,1,41.66.02a.9.9,0,0,1-.58-.54,6.007,6.007,0,0,1,.71-2.11,23.555,23.555,0,0,1,1.63-3.05,29.038,29.038,0,0,1,2.32-2.94l2.02-2.48q0-.18-.7-.68l-.38-.2H46.1a5.656,5.656,0,0,0-1.1.04,5.286,5.286,0,0,0-1.72.64q-.38.22-.38.4a.257.257,0,0,1-.1.19.281.281,0,0,1-.16.09.322.322,0,0,1-.21-.1.521.521,0,0,1-.15-.22q-.1-.2.36-.94a2.8,2.8,0,0,1,.9-.84A7.07,7.07,0,0,1,45.56-13.2Z" transform="translate(943 801)" fill="#fff"/>
    <path id="路径_6958" data-name="路径 6958" d="M12.7-12.539a.429.429,0,0,1,.508-.02q.234.156.176.605a.955.955,0,0,1-.127.332.248.248,0,0,1-.205.137.2.2,0,0,0-.107.029.172.172,0,0,0-.068.068.05.05,0,0,0,.02.068,3.457,3.457,0,0,0,.566.127,2.568,2.568,0,0,1,.625.107.66.66,0,0,1,.293.225.505.505,0,0,1,.039.645.7.7,0,0,1-.4.156,8.862,8.862,0,0,1-1.025.039,3.8,3.8,0,0,0-.693.039q-.166.039-.166.137,0,.156.488.156a6.29,6.29,0,0,1,.859.068,3.715,3.715,0,0,1,.645.127q.43.2.234.566a.538.538,0,0,1-.293.293,3.567,3.567,0,0,1-.937.1,2.351,2.351,0,0,0-.957.117q-.2.176.02.371a2.509,2.509,0,0,0,1.035.176,6.118,6.118,0,0,1,1.816.293.35.35,0,0,1,.166.215.679.679,0,0,1,.049.332q-.02.1-.205.2a6.812,6.812,0,0,1-1.631.117l-1.465.02.039.215a.957.957,0,0,0,.107.342.547.547,0,0,0,.283.186.819.819,0,0,1,.352.146,1.721,1.721,0,0,1,.215.244,5.98,5.98,0,0,1,.1,1.25q.02,1.016.039,1.074.02.078.43-.273A6.009,6.009,0,0,1,15.059-4.57q.625-.234.8,0a.312.312,0,0,1-.01.371,2.457,2.457,0,0,1-.635.488,4.074,4.074,0,0,0-.664.41q-.176.176-.156.293a1.48,1.48,0,0,0,.4.605,2.886,2.886,0,0,0,.635.547,1.358,1.358,0,0,1,.439.381.757.757,0,0,1,.186.439.35.35,0,0,1-.107.234.525.525,0,0,1-.244.156A.642.642,0,0,1,15.2-.762a6.766,6.766,0,0,1-.9-.8,7.984,7.984,0,0,1-.9-1q-.2-.293-.234-.273A9.42,9.42,0,0,0,13.086-1.5q-.02,1.152-.059,1.563a.814.814,0,0,1-.156.508.469.469,0,0,1-.312.146,1.693,1.693,0,0,1-.566-.127,1.766,1.766,0,0,1-.625-.244.54.54,0,0,1-.2-.322.819.819,0,0,1,.039-.508A.326.326,0,0,1,11.523-.7a.32.32,0,0,0,.2-.117,1.225,1.225,0,0,0,.186-.527,10.825,10.825,0,0,0,.049-1.289A6.112,6.112,0,0,0,11.8-4.687a2.829,2.829,0,0,0-.586-.117q-.527-.1-.723-.156a.833.833,0,0,1-.371-.186.406.406,0,0,1-.176-.3q0-.234.527-.488a1.306,1.306,0,0,0,.371-.234,1.088,1.088,0,0,0,.215-.352.181.181,0,0,0-.02-.215,2.454,2.454,0,0,0-.781-.2q-.918-.137-1.016-.332A1.206,1.206,0,0,0,9.1-7.48Q9-7.559,9-7.588a.514.514,0,0,1,.059-.146q.117-.234,1.211-.352.82-.059.82-.234t-.8-.312a2.05,2.05,0,0,1-.664-.186.436.436,0,0,1-.117-.361.465.465,0,0,1,.146-.41,2.178,2.178,0,0,1,.674-.2,3.506,3.506,0,0,0,.645-.137l-.391-.059a2.191,2.191,0,0,1-.635-.1,1.085,1.085,0,0,1-.381-.254.61.61,0,0,1-.137-.352q-.059-.391.43-.547.371-.117.156-.332a.438.438,0,0,1-.137-.352q0-.469.352-.527a.37.37,0,0,1,.283.039,3.53,3.53,0,0,1,.479.352q.527.449.664.43a2.213,2.213,0,0,0,.488-.41A6,6,0,0,1,12.7-12.539Zm-6.777.9a.924.924,0,0,1,.41-.059l.313-.02.039.8A6.83,6.83,0,0,0,6.758-10a.318.318,0,0,0,.1.117,1.621,1.621,0,0,0,.332.039,1.825,1.825,0,0,1,.918.234.42.42,0,0,1,.205.42.542.542,0,0,1-.322.42,3.374,3.374,0,0,1-.664.176q-.7.039-.781.2a.128.128,0,0,0,.039.156q.1.1.078.645a4.441,4.441,0,0,1-.059.7.266.266,0,0,0,.078.254,6.267,6.267,0,0,0,.586.352,2.049,2.049,0,0,1,.674.449.431.431,0,0,1,.049.41q-.1.215-.742.293-.43.02-.469.1a6.269,6.269,0,0,0-.156,1.8,6.132,6.132,0,0,0,.088,1.357,1.017,1.017,0,0,1,.029.537,1.53,1.53,0,0,1-.156.479.633.633,0,0,1-.234.283.352.352,0,0,1-.312-.039.455.455,0,0,1-.332-.43q0-.488.059-1.6.1-1.445.088-2.129a2.008,2.008,0,0,0-.166-.937q-.1-.273-.176-.283T5.176-5.8a4.125,4.125,0,0,1-.84.664.376.376,0,0,1-.469-.117.314.314,0,0,1-.078-.43q.1-.156.762-1.006T5.43-7.773A1.277,1.277,0,0,0,5.781-8.4a.2.2,0,0,0-.117-.2,1.9,1.9,0,0,0-.449-.117,3.536,3.536,0,0,1-.664-.2.412.412,0,0,1-.322-.342.4.4,0,0,1,.225-.4,1.984,1.984,0,0,1,1-.215q.215,0,.234-.137a3.227,3.227,0,0,0,.059-.664,3.708,3.708,0,0,1,.02-.732A.326.326,0,0,1,5.918-11.641Zm3.3,7.969a5.57,5.57,0,0,1,1.055-.02,2.4,2.4,0,0,1,.615.107.449.449,0,0,1,.244.244,1.874,1.874,0,0,1-.215,1.211q-.215.566-.352,1.035a3.079,3.079,0,0,1-.264.547.664.664,0,0,1-.283.234.559.559,0,0,1-.41.039q-.2-.059-.293-.1-.117-.059.01-.42a4.406,4.406,0,0,1,.4-.811,2.185,2.185,0,0,0,.332-.781.152.152,0,0,0-.1-.156A6.492,6.492,0,0,0,9.316-2.7,1.57,1.57,0,0,1,8.8-2.842a.619.619,0,0,1-.225-.225.292.292,0,0,1,0-.293A.782.782,0,0,1,9.219-3.672Zm24.023-7.969a.725.725,0,0,1,.566.078q.234.137.234,1v.625l-.156.117a.64.64,0,0,1-.645.156q-.293-.137-.41-.937a1.785,1.785,0,0,1,.029-.771A.479.479,0,0,1,33.242-11.641Zm-3.437.605a.871.871,0,0,1,.381-.039.981.981,0,0,1,.342.078q.2.137.2,1.094v.684l.254.039q.273.02,1.172.02a11.083,11.083,0,0,1,2.656.176.562.562,0,0,1,.293.459.615.615,0,0,1-.176.537l-.156.156-1.758.059q-1.758.039-1.895.078-.254.1-.254.859a3.034,3.034,0,0,0,.2,1.016,11.178,11.178,0,0,0,.918,2.188.811.811,0,0,1,.176.254,2.258,2.258,0,0,0,.557.664q.537.527.869.8.918.664,1.152.234a1.038,1.038,0,0,1,.156-.264A.585.585,0,0,0,35-2.207a.319.319,0,0,1,.156-.234.941.941,0,0,1,.615.01.827.827,0,0,1,.518.3.632.632,0,0,1-.029.352,1.236,1.236,0,0,1-.225.43,2.626,2.626,0,0,0-.234.469,1.981,1.981,0,0,1-.449.605A.815.815,0,0,1,34.863,0a1.786,1.786,0,0,1-.557-.146,1.577,1.577,0,0,1-.537-.3q-.215-.176-.7-.508a6.716,6.716,0,0,1-1.8-1.836,4.54,4.54,0,0,1-.742-1.387,2.542,2.542,0,0,0-.215-.488,2.077,2.077,0,0,1-.2-.527A1.208,1.208,0,0,0,30-5.566a7.483,7.483,0,0,1-.215-1.758q-.02-.527-.059-.508-.02,0-.43-.059a20.527,20.527,0,0,0-2.324,0q-1.7.039-2.217,0a1.53,1.53,0,0,1-.713-.176,1.092,1.092,0,0,1-.371-.488q-.1-.273.078-.391a2.679,2.679,0,0,1,1.045-.234q.811-.078,2.8-.1l2.031-.039-.02-.137q-.039-.176-.1-.7a2.014,2.014,0,0,1,.039-.654A.42.42,0,0,1,29.8-11.035ZM27.539-5.879A.932.932,0,0,1,27.8-5.9a.93.93,0,0,1,.361.059.535.535,0,0,1,.391.527,1.011,1.011,0,0,1-.02.254.575.575,0,0,1-.137.176,2,2,0,0,1-1,.352q-.8.1-.859.371a3.446,3.446,0,0,0-.029.693,3.594,3.594,0,0,0,.049.674.31.31,0,0,0,.244.215,4.179,4.179,0,0,0,.83.078,6.591,6.591,0,0,1,.869.078.212.212,0,0,1,.166.2,1.569,1.569,0,0,1,.01.469.63.63,0,0,1-.107.352.52.52,0,0,1-.332.088q-.254.01-1.66-.01a20.751,20.751,0,0,1-2.266-.1.874.874,0,0,1-.645-.332.512.512,0,0,1,.117-.586l.117-.137h1.66l-.02-.605q-.078-1.367-.2-1.406a2.052,2.052,0,0,0-.449-.117,2.973,2.973,0,0,1-.84-.215.631.631,0,0,1-.293-.43.33.33,0,0,1,.254-.449,15.345,15.345,0,0,1,1.836-.1A14.158,14.158,0,0,0,27.539-5.879Zm15.02-4.668a3.686,3.686,0,0,1,1.133.02,1.928,1.928,0,0,1,.83.273.477.477,0,0,1,.186.469,4.274,4.274,0,0,1-.9,1.406,7.917,7.917,0,0,0-.83,1.123.667.667,0,0,0-.029.615q.176.488,1.27,1.074A2.779,2.779,0,0,1,45.2-4.8a1.4,1.4,0,0,1,.215.918,2.007,2.007,0,0,1-.322.9,1.762,1.762,0,0,1-.654.645,4.658,4.658,0,0,1-1.582.322q-1.113.088-1.27-.107a.88.88,0,0,1-.117-.322.578.578,0,0,1,0-.3.4.4,0,0,1,.225-.186,1.8,1.8,0,0,1,.557-.029A5.619,5.619,0,0,0,44-3.047a.981.981,0,0,0,.313-.293.8.8,0,0,0,.078-.391.876.876,0,0,0-.176-.557,4.12,4.12,0,0,0-.859-.674A4.078,4.078,0,0,1,42.6-5.6a2.774,2.774,0,0,1-.527-.674,1.312,1.312,0,0,1,.059-1.055,5.442,5.442,0,0,1,.879-1.367q.7-.8.371-.879a7.123,7.123,0,0,0-1.758.117,4.754,4.754,0,0,1-.781.1q-.059-.02-.068-.2a.661.661,0,0,1,.029-.273,1.771,1.771,0,0,1,.693-.41A4.051,4.051,0,0,1,42.559-10.547Z" transform="translate(1065 801)" fill="#fff"/>
    <g id="组_4853" data-name="组 4853" transform="translate(0 905)">
      <rect id="矩形_3599" data-name="矩形 3599" width="1148" height="56" fill="#febd17"/>
      <path id="路径_7091" data-name="路径 7091" d="M-89.789-15.82a1.322,1.322,0,0,1,.293-.023q.2,0,.527.023a4.818,4.818,0,0,1,.984.141,3.292,3.292,0,0,1,2.016,1.172,3.381,3.381,0,0,1,.422.914v.047q0,1.008-2.32,3.82-.4.422-.656.727a2.919,2.919,0,0,0-.3.4v.023a.44.44,0,0,0-.047.2.51.51,0,0,0,.117.27A24.49,24.49,0,0,0-86.531-6a6.084,6.084,0,0,1,1.688,2.086,3.85,3.85,0,0,1,.3,1.453A3.859,3.859,0,0,1-86.719.773a3.07,3.07,0,0,1-.9.363,6.619,6.619,0,0,1-1.207.082,12.657,12.657,0,0,1-1.711-.07,6.19,6.19,0,0,1-1.1-.422A8.892,8.892,0,0,1-94.066-.867a3.939,3.939,0,0,1-1.043-1.945,3.608,3.608,0,0,1-.07-.82v-.258a2.208,2.208,0,0,1,.188-1.078,1.528,1.528,0,0,1,.281-.469.557.557,0,0,1,.246-.164.839.839,0,0,1,.176-.023.553.553,0,0,1,.234.07.473.473,0,0,1,.164.328.493.493,0,0,1-.012.117,1.707,1.707,0,0,0-.023.223q-.012.176-.012.223a.385.385,0,0,1-.012.094.385.385,0,0,0-.012.094v.3l-.023.352a2.7,2.7,0,0,0,.07.609,2.818,2.818,0,0,0,.891,1.148A8.842,8.842,0,0,0-90.68-.609a4.9,4.9,0,0,0,1.617.3,3,3,0,0,0,2.414-1.219,1.8,1.8,0,0,0,.586-1.148,1,1,0,0,0-.117-.445A29.816,29.816,0,0,0-88.945-5.93a3.687,3.687,0,0,1-1.43-2.555,2.138,2.138,0,0,1,.4-1.219,7.436,7.436,0,0,1,1.219-1.312,6.146,6.146,0,0,0,1.2-1.664,1.8,1.8,0,0,0,.141-.562.4.4,0,0,0-.211-.375,2,2,0,0,0-.762-.223,11.3,11.3,0,0,0-1.3-.059,2.762,2.762,0,0,0-1.922.82,1.418,1.418,0,0,0-.492.984.912.912,0,0,0,.07.258.9.9,0,0,1,.141.469.573.573,0,0,1-.141.422.326.326,0,0,1-.328.047,1.287,1.287,0,0,1-.375-.3,2.579,2.579,0,0,1-.457-.656,2.712,2.712,0,0,1-.105-.914,1.844,1.844,0,0,1,.211-.984A2.887,2.887,0,0,1-91.852-15a5,5,0,0,1,1.664-.656A1.419,1.419,0,0,1-89.789-15.82Zm22.125,5.063q-.258-.023-.586-.023a12.337,12.337,0,0,1-2.6-.258.574.574,0,0,1-.328-.211.747.747,0,0,1-.094-.281,3.855,3.855,0,0,1-.047-.445,1.074,1.074,0,0,1,.023-.281.322.322,0,0,1,.281-.211.068.068,0,0,0,.047-.023q.375-.07,1.277-.152l1.16-.105.656-.094.211-.094q.047-.187.164-.937.047-.516.047-.727-.141-.023-.516-.047a7.08,7.08,0,0,1-1.922-.234.467.467,0,0,1-.328-.445.67.67,0,0,1,.281-.516,2.634,2.634,0,0,1,.914-.422,19.045,19.045,0,0,1,2.906-.609,8.341,8.341,0,0,1,1.078-.094,6.9,6.9,0,0,1,1.219.07,1.135,1.135,0,0,1,.516.258.833.833,0,0,1,.258.609,1.142,1.142,0,0,1-.422.82,2.848,2.848,0,0,1-1.453.328,2.478,2.478,0,0,0-.539.07,3.077,3.077,0,0,0-.2.6,4.508,4.508,0,0,0-.152.785v.164q.117.023,1.465.094t1.582.07a.591.591,0,0,1,.445.2.772.772,0,0,1,.188.551.84.84,0,0,1-.516.867,12.392,12.392,0,0,1-2.18.4l-1.031.117q-.047.773-.047,1.758l.023.469.211.188a11.883,11.883,0,0,0,1.758.961,3.942,3.942,0,0,1,.891.539.73.73,0,0,1,.211.539.911.911,0,0,1-.211.633.618.618,0,0,1-.457.164,10.9,10.9,0,0,1-1.746-.4q-.4-.094-.609-.141-.047.586-.047,2.25v2.766A28.927,28.927,0,0,1-66,2.133q-.117.914-.562,1.055a.852.852,0,0,1-.27.047,1.08,1.08,0,0,1-.293-.047,1.538,1.538,0,0,1-.539-.375,1.3,1.3,0,0,1-.422-.937,1.647,1.647,0,0,1,.3-.891,1.787,1.787,0,0,0,.234-.4q.047-.352.047-2.93T-67.594-6q-.023-.445-.047-.75A28.584,28.584,0,0,0-69.234-3.8,10.567,10.567,0,0,1-70.1-2.25a.955.955,0,0,1-.727.469q-.516,0-.539-.937a2.588,2.588,0,0,1,.328-1.1l1.477-2.953q.914-1.828,1.523-3.164Q-67.828-10.406-67.664-10.758ZM-57.516,1.2A.7.7,0,0,0-57.4.715a1.823,1.823,0,0,0-.094-.621,2.18,2.18,0,0,0-.34.047q-.246.047-.949.094t-1.008.047a3.073,3.073,0,0,1-1.992-.422.824.824,0,0,1-.234-.609V-.891a.758.758,0,0,1,.07-.375l.141-.141a.61.61,0,0,1,.164-.094,6.11,6.11,0,0,1,1.547-.375,14.313,14.313,0,0,1,2.156-.164h.609a1.13,1.13,0,0,0-.094-.352,6.166,6.166,0,0,0-.937-.07l-.914-.023-.3.3a.5.5,0,0,1-.328.117,2.171,2.171,0,0,1-1.477-.609l-.3-.258-.07-1.008q-.047-.844-.129-1.922t-.082-1.781a6.218,6.218,0,0,1,.328-2.344,1.66,1.66,0,0,0,.117-.68,1.392,1.392,0,0,1,.047-.445.343.343,0,0,1,.117-.164l.141-.141a2.319,2.319,0,0,1,1.078-.516,3.443,3.443,0,0,1,.82-.117q.352,0,.7.035t.539.035A2.439,2.439,0,0,0-57.609-12a.743.743,0,0,0,.07-.4v-.211h-1.312q-1.453,0-2.25-.047a3.164,3.164,0,0,1-1.43-.3.569.569,0,0,1-.281-.492.825.825,0,0,1,.117-.4,1.823,1.823,0,0,1,.234-.34.881.881,0,0,1,.258-.2,1.527,1.527,0,0,1,.563-.234,16.323,16.323,0,0,1,2.7-.141h1.313v-.3a4.036,4.036,0,0,0-.023-.445q-.4-.047-1.172-.094a7.7,7.7,0,0,1-1.359-.094.874.874,0,0,1-.375-.211.985.985,0,0,1-.328-.7.822.822,0,0,1,.258-.621A1.22,1.22,0,0,1-60-17.555a19.54,19.54,0,0,1,2.3-.07q1.969-.023,3-.094t1.758-.07a9.931,9.931,0,0,1,1.02.035,1.4,1.4,0,0,1,.387.082,1.064,1.064,0,0,1,.563.727,1.086,1.086,0,0,1,.023.211,1.091,1.091,0,0,1-.445.844l-.281.188q-2.953.07-3.211.094a1.317,1.317,0,0,0-.3.047q-.211.047-.281.469v.211a.638.638,0,0,0,.3.117q.3.047,2.391.141,2.367.07,3.047.164a1.385,1.385,0,0,1,1.031.469.887.887,0,0,1,.094.328,1.788,1.788,0,0,1-.211.8l-.187.4-3.445-.047-3.117-.023v.164a1.245,1.245,0,0,0,.012.176.431.431,0,0,0,.035.129.342.342,0,0,0,.047.141,8,8,0,0,0,1.8.3,11.27,11.27,0,0,1,2.344.445,2.05,2.05,0,0,1,1.125.867,3.788,3.788,0,0,1,.563,1.641v.234a9.244,9.244,0,0,1-.187,1.594A7.173,7.173,0,0,1-50.32-5.2a5.182,5.182,0,0,0-.281.68,4.059,4.059,0,0,1-.773,1.5,1.043,1.043,0,0,1-.492.281,9.828,9.828,0,0,1-1.512.094q-1.23.023-1.512.047a4.64,4.64,0,0,0-.6.07.312.312,0,0,0-.105.07.367.367,0,0,0-.07.094.783.783,0,0,0-.07.352v.023q2.508.023,3.047.047t.75.047a1.481,1.481,0,0,1,.773.328.973.973,0,0,1,.469.82A.9.9,0,0,1-51.3.141a2.572,2.572,0,0,1-.633.047q-.445,0-1.172-.023-.867-.047-1.359-.047t-.7.023a3.258,3.258,0,0,0-.539.07,2.316,2.316,0,0,0-.023.4.8.8,0,0,0,.07.445q.141.023.563.047h.023q.633.047,2.648.094a19.334,19.334,0,0,1,2.25.141.922.922,0,0,1,.75.891,1.192,1.192,0,0,1,.023.234.824.824,0,0,1-.234.609l-.094.07a3.271,3.271,0,0,1-1.3.223q-1.066.059-4.324.129-1.734.023-2.742.023t-1.875-.023a16.612,16.612,0,0,1-1.945-.164,2.824,2.824,0,0,1-.539-.141,1.868,1.868,0,0,1-.375-.211.689.689,0,0,1-.187-.469,1.2,1.2,0,0,1,.07-.375,1.413,1.413,0,0,1,.727-.68,1.516,1.516,0,0,1,.609-.2q.328-.035,1.266-.035l2.3.023a4.445,4.445,0,0,0,.445-.012A.179.179,0,0,0-57.516,1.2Zm-.047-10.922a1.392,1.392,0,0,0-.445-.047,9.886,9.886,0,0,0-1.781.117.294.294,0,0,0-.117.07l-.164.234a1.318,1.318,0,0,0-.164.633q0,.07.023.07l.047.023a7.183,7.183,0,0,0,1.336.094h1.148a2.869,2.869,0,0,0,.117-.8Zm5.719,1.9a.668.668,0,0,1,.164.492,1.737,1.737,0,0,1-.094.469.814.814,0,0,1-.469.586,1.473,1.473,0,0,1-.316.023q-.223,0-.832-.07a17,17,0,0,0-1.781-.094h-.445a2.662,2.662,0,0,0-.141,1.055,1.146,1.146,0,0,0,.094.539,1.861,1.861,0,0,0,.727.094l2.531-.047.07-.07a4.967,4.967,0,0,0,.281-.891,6.581,6.581,0,0,1,.293-.949,2.883,2.883,0,0,0,.105-1,3.343,3.343,0,0,0-.187-1.242,1.06,1.06,0,0,0-.094-.141,2.719,2.719,0,0,0-.645-.211,17.179,17.179,0,0,0-1.816-.3q-.844-.07-1.031-.07h-.3a2.057,2.057,0,0,0-.07.7v.328a13.925,13.925,0,0,1,2.484.258A3.236,3.236,0,0,1-51.844-7.828Zm-5.648,1.57a8.375,8.375,0,0,0-1.969-.164,2.62,2.62,0,0,0-.7.07.261.261,0,0,0-.117.023l-.047.141a.882.882,0,0,0-.023.246q0,.176.035.586a2.86,2.86,0,0,0,.105.621l.023.047q1.664-.047,2.719-.094v-.656Q-57.469-6.047-57.492-6.258Zm26.6-11.953a.442.442,0,0,1,.141.023,1.316,1.316,0,0,1,.844.3l.141.211a.745.745,0,0,1,0,.633,6.073,6.073,0,0,1-.961,1.313,1.53,1.53,0,0,0-.141.164q.492.047,1.184.082t1,.059a1.388,1.388,0,0,1,.422.07.588.588,0,0,1,.234.141.892.892,0,0,1,.164.234,1.064,1.064,0,0,1,.188.539q0,.539-1.008.75a26.945,26.945,0,0,1-3.164.281q-.82.023-1.219.07a2.006,2.006,0,0,1-.023.211l.023.234q.023.047.445.094t1.008.094q2.25.117,2.836.211a.784.784,0,0,1,.27.082.788.788,0,0,1,.176.129.717.717,0,0,1,.234.516,1.036,1.036,0,0,1-.211.586l-.07.023a1.251,1.251,0,0,1-.691.27q-.457.059-2.848.176a5.36,5.36,0,0,1-.562.047,2.166,2.166,0,0,0-.656.07q-.117.094-.164.609l-.023.141q2.484.117,2.859.141a10.435,10.435,0,0,1,1.734.188q1.055.211,1.078.82v.023a.608.608,0,0,1-.187.445l-.094.07a2.568,2.568,0,0,1-1.23.434q-.738.082-2.707.082-1.2,0-1.875.047a1.789,1.789,0,0,1,.844,1.359.647.647,0,0,0,.141.352,1.537,1.537,0,0,1,.4.961,5.529,5.529,0,0,1,.023.609q0,.422-.07,1.383-.07,1.078-.164,3.07t-.176,2.754a1.618,1.618,0,0,1-.34,1,.668.668,0,0,1-.492.164,1.3,1.3,0,0,1-.961-.352.7.7,0,0,1-.234-.492,1.361,1.361,0,0,1,.211-.633l.188-.4q.047-1.453.047-2.156t-.023-1.652q-.023-.949-.047-1.441-.047-.891-.07-.984l-.609.023h-.187q-1.312,0-1.57-.375a.909.909,0,0,1-.141-.516,1.509,1.509,0,0,1,.117-.586.761.761,0,0,1,.375-.328,6.486,6.486,0,0,1,.75-.187,8.688,8.688,0,0,0,.938-.164,6.588,6.588,0,0,1-.422-.539,1.992,1.992,0,0,1-.281-.586l-.023-.141a6.4,6.4,0,0,0-1.289-.164,4.72,4.72,0,0,1-1.266-.234.581.581,0,0,1-.176-.141.4.4,0,0,1-.082-.27.944.944,0,0,1,.117-.41L-37.992-9a.973.973,0,0,1,.3-.211A5.56,5.56,0,0,1-35.7-9.539q.8-.07.891-.211a2.254,2.254,0,0,0,.117-.562l.023-.3H-34.9q-.4,0-1.043-.047t-.9-.094a1.273,1.273,0,0,1-.961-.492.955.955,0,0,1-.07-.328.668.668,0,0,1,.375-.562,5.5,5.5,0,0,1,1.43-.492,4.63,4.63,0,0,0,1.336-.422.18.18,0,0,0-.023-.07q-.023-.07-.07-.07a3.874,3.874,0,0,0-.844-.047q-.7,0-.879.012t-.246.012a1.052,1.052,0,0,1-.445-.07,3.592,3.592,0,0,1-.609-.375,1.085,1.085,0,0,1-.516-.82.5.5,0,0,1,.3-.445q.141-.07.68-.281a4.373,4.373,0,0,0,.844-.3,2.205,2.205,0,0,0-.187-.422,1.6,1.6,0,0,1-.281-.7.516.516,0,0,1,.164-.375l.164-.117a1.169,1.169,0,0,1,.516-.094h.023a1.957,1.957,0,0,1,1.523,1.2,1.379,1.379,0,0,0,.281.4.674.674,0,0,0,.41.094,2.653,2.653,0,0,0,.6-.07q.023,0,.258-.047.094-.07.281-.234.328-.4.621-.809t.387-.574a2.939,2.939,0,0,0,.211-.375.31.31,0,0,1,.094-.246q.094-.082.188-.152A.542.542,0,0,1-30.891-18.211ZM-42.75-16.828a1.057,1.057,0,0,1,.7.4.289.289,0,0,1,.047.164q.047.281.094,1.383l.047,1.078.4-.023q1.125,0,1.395.023a1.893,1.893,0,0,1,.41.07.859.859,0,0,1,.4.188l.188.141a.624.624,0,0,1,.141.211,1.039,1.039,0,0,1,.047.328A.647.647,0,0,1-39-12.5a2.7,2.7,0,0,1-.2.27.807.807,0,0,1-.152.141,1.124,1.124,0,0,1-.328.188,3,3,0,0,1-1.055.164,8.343,8.343,0,0,0-1.008.07A8.351,8.351,0,0,0-42-9.141q0,2.789.094,3.891a1.717,1.717,0,0,0,.164-.2,1.608,1.608,0,0,0,.117-.176,1.061,1.061,0,0,1,.188-.187l.258-.211a.4.4,0,0,1,.188-.07.471.471,0,0,1,.363.117.608.608,0,0,1,.141.246.82.82,0,0,1,.035.2,2.489,2.489,0,0,1,.023.352,2.5,2.5,0,0,1-.164.914A7.9,7.9,0,0,1-41.2-3.117q-.375.633-.492.82a14.267,14.267,0,0,0-.187,1.852q-.164,2.672-.258,3.281-.141.914-.773,1.031a.411.411,0,0,1-.129.023h-.129a.66.66,0,0,1-.375-.211,1.242,1.242,0,0,1-.281-.8,2.319,2.319,0,0,1,.211-.961,1.144,1.144,0,0,0,.105-.352q.012-.141.012-.387t-.023-.926q0-.7-.023-1.148l-.445.188a3.885,3.885,0,0,1-1.336.4h-.164a1.158,1.158,0,0,1-.656-.445,2.036,2.036,0,0,1-.281-1.031,4.647,4.647,0,0,1-.023-.5,3.325,3.325,0,0,1,.105-.738,17.325,17.325,0,0,1,.668-1.852A29.359,29.359,0,0,0-43.9-11.039v-.211q0-.141-.047-.164a6.167,6.167,0,0,0-1.125-.211,4.7,4.7,0,0,1-1.312-.3.913.913,0,0,1-.4-.891.476.476,0,0,1,.246-.445,2.838,2.838,0,0,1,.844-.246q.6-.105,1.746-.246l.164-.023q.047-.258.094-1.219.07-1.312.094-1.441t.035-.2a.336.336,0,0,1,.105-.164.382.382,0,0,1,.281-.094A1.485,1.485,0,0,1-42.75-16.828Zm-.914,10.9q-.68,1.453-.984,2.215a3.461,3.461,0,0,0-.3,1.113.5.5,0,0,0,.047.258l.023.023.117-.047a5.244,5.244,0,0,0,.773-.609l.492-.445-.07-1.359Q-43.617-5.461-43.664-5.93ZM-28.8-5.6a1.094,1.094,0,0,1,.387-.094h.246a.623.623,0,0,1,.4.164,1.1,1.1,0,0,1,.258.773q0,.469-.844.984a10.815,10.815,0,0,0-1.219,1.008,11.865,11.865,0,0,0-.914.914,5.032,5.032,0,0,0,.785.9A20.321,20.321,0,0,0-27.973.563,11.891,11.891,0,0,0-26.133,1.8a3.69,3.69,0,0,1,.961.633.8.8,0,0,1,.234.539.629.629,0,0,1-.152.445.859.859,0,0,1-.363.234,2.549,2.549,0,0,1-.7.094A3.369,3.369,0,0,1-27.6,3.34a9.988,9.988,0,0,1-1.957-1.371q-.3-.234-1.312-1.055a2.076,2.076,0,0,1-.773-.8,3.13,3.13,0,0,1-.3-1.1,4,4,0,0,1-.047-.609,2.133,2.133,0,0,1,.07-.562,7,7,0,0,1,1.852-2.32q.563-.562.914-.867ZM-39.8-2.719a2.885,2.885,0,0,1,.516-.4.585.585,0,0,1,.258-.047,2.526,2.526,0,0,1,.27.012q.105.012.855.223a5.105,5.105,0,0,1,1.781.68,1.233,1.233,0,0,1,.4.891,2.888,2.888,0,0,1-.234.961,12.653,12.653,0,0,1-1.1,2.227,12.093,12.093,0,0,1-.973,1.453.643.643,0,0,1-.457.164A1.2,1.2,0,0,1-39.07,3.3a.621.621,0,0,1-.281-.586,3.49,3.49,0,0,1,.539-1.242q.984-1.664,1.2-2.156a2.583,2.583,0,0,0-.727-.375,4.479,4.479,0,0,1-1.148-.492q-.141-.117-.281-.258a.792.792,0,0,1-.258-.434.459.459,0,0,1,.059-.246A2.256,2.256,0,0,1-39.8-2.719ZM-8.133-17.766a.8.8,0,0,1,.234-.586.729.729,0,0,1,.527-.234,1.48,1.48,0,0,1,.574.117,2.756,2.756,0,0,1,1.125.773,4.777,4.777,0,0,1,1.219,1.781,1.731,1.731,0,0,1,.07.445.786.786,0,0,1-.609.82.994.994,0,0,1-.246.047h-.117a.5.5,0,0,1-.094-.012.658.658,0,0,0-.129-.012l-.234-.117a9.118,9.118,0,0,1-1.43-1.477,8.677,8.677,0,0,1-.562-.727A1.6,1.6,0,0,1-8.133-17.766Zm1.523,6.023q-.937-.023-1.312-.023-1.172,0-1.395.023t-.27.023a.711.711,0,0,0-.023.211q0,.141.023.469t.07.773q.117.914.375,2.156a28.235,28.235,0,0,0,1.125,3.8q.773,1.9,1.078,2.555A9.966,9.966,0,0,0-4.969.773l.8.633.82.469q.469.234.715.375a1.836,1.836,0,0,1,.387.281,1.476,1.476,0,0,1,.141.563A.837.837,0,0,1-2.3,3.7a.991.991,0,0,1-.727.234,4.014,4.014,0,0,1-2.25-.914A10.632,10.632,0,0,1-7.43,1.031,10.226,10.226,0,0,1-8.437-.727q-.211-.445-.68-1.523-.844-1.969-1.1-2.672a30.215,30.215,0,0,1-1.242-6.422l-.047-.469h-.516q-.3,0-2.871.105t-4.113.223l-1.289.07-.281-.187a5.758,5.758,0,0,0-.891-.375v-.562a.856.856,0,0,1,.68-.914,20.453,20.453,0,0,1,2.6-.234q2.344-.141,4.078-.187a17.754,17.754,0,0,0,1.969-.141l-.023-.492a8.235,8.235,0,0,0-.187-1.2,6.949,6.949,0,0,1-.117-1.148,1.319,1.319,0,0,1,.258-.937A.79.79,0,0,1-12-17.93a1,1,0,0,1,.352-.047,1.333,1.333,0,0,1,.5.082,1.78,1.78,0,0,1,.27.129,1.06,1.06,0,0,1,.094.141,12.362,12.362,0,0,1,.445,2.32,8.384,8.384,0,0,0,.176,1.078q.059.164.082.211a26.6,26.6,0,0,0,4.125.234,6.194,6.194,0,0,1,1.547.141.985.985,0,0,1,.586.539.536.536,0,0,1,.117.3,1.261,1.261,0,0,1-.141.422.557.557,0,0,0-.07.152.679.679,0,0,1-.164.246.9.9,0,0,1-.4.211,4.486,4.486,0,0,1-.809.047H-6.328A2.033,2.033,0,0,0-6.609-11.742ZM-19.852-8.508q.141-.023.984-.023t3.539.094a10.328,10.328,0,0,1,1.523.094,1.31,1.31,0,0,1,.656.328.933.933,0,0,1,.234.609A.827.827,0,0,1-13-7.031a.987.987,0,0,1-.176.258.909.909,0,0,1-.445.211,10.062,10.062,0,0,1-1.641.117q-.891.023-1.289.07-.07.633-.117,3.352l-.047,1.711h.188a4.419,4.419,0,0,0,1.008-.141,10.506,10.506,0,0,1,1.148-.211q.281-.023.4-.023h.246a.269.269,0,0,1,.2.07,1.017,1.017,0,0,1,.328.281.951.951,0,0,1,.188.516.675.675,0,0,1-.234.469,3.657,3.657,0,0,1-1.395.727q-.949.3-3.129.75A14.953,14.953,0,0,1-20.18,1.5a.8.8,0,0,1-.328-.047.876.876,0,0,1-.516-.82,1.012,1.012,0,0,1,.469-.867A4.572,4.572,0,0,1-19.2-.75a3.073,3.073,0,0,0,.7-.164.28.28,0,0,0,.188-.211,6.088,6.088,0,0,0,.07-1.148,35.52,35.52,0,0,0-.141-4.148q-.281-.023-.937-.047l-1.266-.047-.117-.539a2.424,2.424,0,0,1-.047-.41,1.78,1.78,0,0,1,.023-.293.893.893,0,0,1,.3-.492A.931.931,0,0,1-19.852-8.508Z" transform="translate(1112 35)" fill="#fff"/>
    </g>
    <path id="路径_6959" data-name="路径 6959" d="M19.6-25.72q2-.36,2.4,0a1.558,1.558,0,0,1,1,.88,1.05,1.05,0,0,1,0,1.12.871.871,0,0,1-.62.34q-.42.06-2.1.22-3.16.12-3.4.52v1.8a13.936,13.936,0,0,0,.28,3.08,21.647,21.647,0,0,0,.52,2.72q.16,1.32.64,3.68a26.115,26.115,0,0,1,.6,6.64A6.66,6.66,0,0,1,17.7-.86,6.562,6.562,0,0,1,14.04.88a7.434,7.434,0,0,1-3.2-.32A29.862,29.862,0,0,1,4.24-2.6,4.6,4.6,0,0,1,2.68-3.78a1.149,1.149,0,0,1-.18-.88q.1-.42.64-.36a2.484,2.484,0,0,1,.78.18A18.651,18.651,0,0,0,7-3.08a31.367,31.367,0,0,0,3.56,1.64,7.308,7.308,0,0,0,4.28,0,3.5,3.5,0,0,0,2.12-2.4,6.926,6.926,0,0,0,.22-2.44,42.5,42.5,0,0,0-.78-4.6q-.24-1-.68-3.24t-.52-2.64q-.2-1.12-.48-2.52t-.5-2.4q-.22-1-.26-1.16a5.358,5.358,0,0,0-1.48-.2,15.677,15.677,0,0,1-4.16-.56.954.954,0,0,1-.56-.6,1.516,1.516,0,0,1-.1-.8q.06-.4.34-.44h2.56Q15.12-25.44,19.6-25.72ZM35.56-17.8a12.307,12.307,0,0,1,2.76.2,10.208,10.208,0,0,1,1.42.58q.98.46,1.02.66.2.12.2,1.36a19.584,19.584,0,0,0,.52,4.44q1.16,4.76,2.56,6.44.12.16.38.5a2.181,2.181,0,0,1,.3.46q.2.72-.68,1.28-.68.48-1.68-.64a8.743,8.743,0,0,1-1.8-3.64,4.908,4.908,0,0,0-.6-1.2,12.21,12.21,0,0,0-.6,1.08,11.062,11.062,0,0,1-3.04,3.96A7.56,7.56,0,0,1,33.44-.6a4.819,4.819,0,0,1-1.64.36,6.192,6.192,0,0,1-3-.76,3.512,3.512,0,0,1-1.16-.9,3.656,3.656,0,0,1-.8-1.26,7.178,7.178,0,0,1-.36-3.5,14.371,14.371,0,0,1,.96-4.14A10.5,10.5,0,0,1,30-14.56a13.7,13.7,0,0,1,2.7-2.06A8.983,8.983,0,0,1,35.56-17.8Zm2.44,3,.52-.52H36.8a7.665,7.665,0,0,0-3.36.52A11.089,11.089,0,0,0,28.4-8.4a8.11,8.11,0,0,0-.2,1.94,6.224,6.224,0,0,0,.2,1.78,3.325,3.325,0,0,0,1.68,1.84,3.265,3.265,0,0,0,1.6.32,4.1,4.1,0,0,0,1.5-.22,11.736,11.736,0,0,0,1.66-.94A10.28,10.28,0,0,0,37.7-6.86a4.959,4.959,0,0,0,.9-3.26,7.8,7.8,0,0,0-.38-1.68,15.121,15.121,0,0,0-.62-1.8l-.08-.4A1.935,1.935,0,0,1,38-14.8Zm19.44-4.16a3.665,3.665,0,0,1,1.42.16,5.854,5.854,0,0,1,1.5.6q1.84,1.16,1.4,2.44a2.272,2.272,0,0,1-.8,1.36q-.52.4-.92-.48A2.758,2.758,0,0,0,59.1-16a2.84,2.84,0,0,0-1.34-.56,10.121,10.121,0,0,0-1.8.32,11.049,11.049,0,0,0-2.12.68,2.424,2.424,0,0,0-1.18,1.34q-.14.66,2.18,1.7,4.6,2.36,5.4,2.8A11.781,11.781,0,0,1,62.16-8a14.482,14.482,0,0,1,1.6,2,3.069,3.069,0,0,1,0,2.48,7.473,7.473,0,0,1-1.52,2.1A7.482,7.482,0,0,1,59.2.16a9.476,9.476,0,0,1-4.64.2A8.85,8.85,0,0,1,51-.94a18.438,18.438,0,0,1-2.04-1.62,4.069,4.069,0,0,1-1.2-2.48,1.89,1.89,0,0,1,.2-1.16q.48-.96,1.08-.96.24,0,.26.2a5.857,5.857,0,0,1-.14,1.08,6.277,6.277,0,0,0,1.8,2.6A7.44,7.44,0,0,0,56-1.7a6.927,6.927,0,0,0,4.84-1.58,1.8,1.8,0,0,0,.52-2.6,5.653,5.653,0,0,0-1.48-1.66,19.352,19.352,0,0,0-3.24-1.78,35.488,35.488,0,0,1-5.04-3,2.923,2.923,0,0,1-1.36-2.16,1.985,1.985,0,0,1,.6-1.42,15.184,15.184,0,0,1,2.4-1.78A9.419,9.419,0,0,1,57.44-18.96Zm17.52.56a5.543,5.543,0,0,1,3.2.4,6.981,6.981,0,0,1,3.8,3.08A11.026,11.026,0,0,1,83.6-7.08,9.337,9.337,0,0,1,81.68-2,3.914,3.914,0,0,1,79.62-.56a11.323,11.323,0,0,1-3.5.16Q71.92-.76,70.24-2a15.273,15.273,0,0,1-1.62-1.62,7.327,7.327,0,0,1-1.22-1.7,11.185,11.185,0,0,1-.64-1.52,8.808,8.808,0,0,1-.08-3.38A7.53,7.53,0,0,1,67.8-13.4a11.237,11.237,0,0,1,2.44-2.84A14.884,14.884,0,0,1,74.96-18.4Zm2.8,2.76a4.179,4.179,0,0,0-1.46-.26,5.242,5.242,0,0,0-1.74.14,6.165,6.165,0,0,0-3.76,2.84,6.782,6.782,0,0,1-.64.84q-.16,0-.62.62a9.538,9.538,0,0,0-.74,1.14,3.016,3.016,0,0,0-.2,2.28,8.555,8.555,0,0,0,1.54,2.72,5.76,5.76,0,0,0,2.18,1.8,11.015,11.015,0,0,0,2.94.68,10.479,10.479,0,0,0,3.02.04,3.464,3.464,0,0,0,2.16-1.32,7.035,7.035,0,0,0,1.52-4.76,5.715,5.715,0,0,0-.84-3.2,11.258,11.258,0,0,0-1.6-2.16A5.613,5.613,0,0,0,77.76-15.64Zm16.8-2.56a2.633,2.633,0,0,1,1.84.12,5.906,5.906,0,0,1,2,1.22,4.024,4.024,0,0,1,1.24,1.78q.52,1.44.88,2.76a57.5,57.5,0,0,1,.84,7.24q.32,4.72,0,5.16-.28.4-1.08.24a.662.662,0,0,1-.56-.5,18.756,18.756,0,0,1-.28-2.42,48.959,48.959,0,0,0-1.16-9.12,8.61,8.61,0,0,0-1.32-2.86q-.92-1.3-1.64-1.3-1.16,0-4.24,3.12a5.566,5.566,0,0,0-1.6,3.24,33.7,33.7,0,0,0,0,6.84A21.437,21.437,0,0,1,89.4.2q-.08.16-.48.28a1.758,1.758,0,0,1-.72.08q-.2,0-.64-.48a2.02,2.02,0,0,1-.64-1.16q-.12-.68-.2-4.36,0-1.4-.04-3.88t-.04-3a20.56,20.56,0,0,1,.1-3.6,2.463,2.463,0,0,1,.82-1.56,1.772,1.772,0,0,1,.54-.28q.1,0,.34.28a4.465,4.465,0,0,1,.32,1.72q0,1.84.24,1.84a.971.971,0,0,0,.48-.24,2.842,2.842,0,0,0,1.2-.92A17.248,17.248,0,0,1,94.56-18.2Zm28.92-8.28a.7.7,0,0,1,.64-.16,1.638,1.638,0,0,1,1.2.72,2.739,2.739,0,0,1,.28,1.52q0,.28-.12,2.08t-.16,2.96q-.28,3.56-.28,4.04,0,.16.48.72a1.2,1.2,0,0,1,.44.72.9.9,0,0,1-.72.88l-.4.12.12,1.08q0,.04.04,2.14t.04,3.62q.08,3.44,0,4.52a5.823,5.823,0,0,1-.36,1.76.922.922,0,0,1-.24.32,1.791,1.791,0,0,1-.52.04q-.4.08-.52-.16V.12q0-.28-.02-.78t-.04-1.12q-.02-.62-.02-1.4V-4.72q-.2-7.48-.36-7.8a10.688,10.688,0,0,0-1.24.08q-6.72.28-9.56.28h-3.12l-.08.8q0,.12-.02,1.08t-.06,2.42q-.04,1.46-.04,2.78-.04.84-.06,1.72t-.04,1.54q-.02.66-.04,1.18t-.06.8V.48a.527.527,0,0,1-.72.2q-.44-.16-.56-1.36t-.16-6q-.04-1.2-.08-2.48t-.08-2.02Q107-11.92,107-12a1.5,1.5,0,0,0-.12-.38q-.12-.3-.16-.42a1.629,1.629,0,0,1,.08-1.88,12.814,12.814,0,0,0,.76-3.88,40.771,40.771,0,0,1,.48-5.2,11.7,11.7,0,0,0,.08-1.44.912.912,0,0,1,.16-.8,1.018,1.018,0,0,1,.88-.3,1.7,1.7,0,0,1,.96.46.846.846,0,0,1,.24.54,3.085,3.085,0,0,1-.24.9,24.075,24.075,0,0,0-.56,3.44q0,.72-.12,2.72t-.12,2.36q0,.72.2.84.64.36,5.4.44a51.417,51.417,0,0,0,7.84-.08q.2,0,.2-.28,0-.96.16-3.24Q123.36-26.2,123.48-26.48Zm14.56,8.68a12.307,12.307,0,0,1,2.76.2,10.208,10.208,0,0,1,1.42.58q.98.46,1.02.66.2.12.2,1.36a19.584,19.584,0,0,0,.52,4.44q1.16,4.76,2.56,6.44.12.16.38.5a2.181,2.181,0,0,1,.3.46q.2.72-.68,1.28-.68.48-1.68-.64a8.743,8.743,0,0,1-1.8-3.64,4.908,4.908,0,0,0-.6-1.2,12.211,12.211,0,0,0-.6,1.08,11.062,11.062,0,0,1-3.04,3.96A7.56,7.56,0,0,1,135.92-.6a4.819,4.819,0,0,1-1.64.36,6.192,6.192,0,0,1-3-.76,3.512,3.512,0,0,1-1.16-.9,3.656,3.656,0,0,1-.8-1.26,7.178,7.178,0,0,1-.36-3.5,14.37,14.37,0,0,1,.96-4.14,10.494,10.494,0,0,1,2.56-3.76,13.7,13.7,0,0,1,2.7-2.06A8.983,8.983,0,0,1,138.04-17.8Zm2.44,3,.52-.52h-1.72a7.665,7.665,0,0,0-3.36.52,11.089,11.089,0,0,0-5.04,6.4,8.11,8.11,0,0,0-.2,1.94,6.224,6.224,0,0,0,.2,1.78,3.325,3.325,0,0,0,1.68,1.84,3.265,3.265,0,0,0,1.6.32,4.1,4.1,0,0,0,1.5-.22,11.736,11.736,0,0,0,1.66-.94,10.28,10.28,0,0,0,2.86-3.18,4.959,4.959,0,0,0,.9-3.26,7.8,7.8,0,0,0-.38-1.68,15.119,15.119,0,0,0-.62-1.8L140-14A1.935,1.935,0,0,1,140.48-14.8Zm17.64-3.4a2.633,2.633,0,0,1,1.84.12,5.906,5.906,0,0,1,2,1.22,4.024,4.024,0,0,1,1.24,1.78q.52,1.44.88,2.76a57.5,57.5,0,0,1,.84,7.24q.32,4.72,0,5.16-.28.4-1.08.24a.662.662,0,0,1-.56-.5A18.757,18.757,0,0,1,163-2.6a48.96,48.96,0,0,0-1.16-9.12,8.61,8.61,0,0,0-1.32-2.86q-.92-1.3-1.64-1.3-1.16,0-4.24,3.12a5.566,5.566,0,0,0-1.6,3.24,33.7,33.7,0,0,0,0,6.84A21.438,21.438,0,0,1,152.96.2q-.08.16-.48.28a1.758,1.758,0,0,1-.72.08q-.2,0-.64-.48a2.02,2.02,0,0,1-.64-1.16q-.12-.68-.2-4.36,0-1.4-.04-3.88t-.04-3a20.562,20.562,0,0,1,.1-3.6,2.463,2.463,0,0,1,.82-1.56,1.772,1.772,0,0,1,.54-.28q.1,0,.34.28a4.465,4.465,0,0,1,.32,1.72q0,1.84.24,1.84a.971.971,0,0,0,.48-.24,2.842,2.842,0,0,0,1.2-.92A17.248,17.248,0,0,1,158.12-18.2Zm27.8-6.92q.8-.52,1.04.44a9.929,9.929,0,0,1-.24,2.96q-.08.6-.08,6.6,0,10.12.32,13.48V-.16a1,1,0,0,1-1.04.76.8.8,0,0,1-.8-.34,3.755,3.755,0,0,1-.32-1.54,3.694,3.694,0,0,0-.04-.52q-.04-.28-.08-.46a1.565,1.565,0,0,1-.04-.22,7.214,7.214,0,0,0-1.6.64,12.55,12.55,0,0,1-5.52,1.68A9.4,9.4,0,0,1,172-1.2a8.319,8.319,0,0,1-2.96-3.88,4.34,4.34,0,0,1-.36-1.04q-.04-.32-.04-1.4a10.683,10.683,0,0,1-.04-1.5,3.059,3.059,0,0,1,.36-.9,7.766,7.766,0,0,1,1.84-2.96,17.053,17.053,0,0,1,2.92-2.34,13.738,13.738,0,0,1,3.32-1.66,7.942,7.942,0,0,1,2-.36q3.2,0,4.12,1.96a4.375,4.375,0,0,1,.84,1.72q-.04,1.52-.66,1.56a.937.937,0,0,1-.94-.6,6.444,6.444,0,0,0-1.84-2.32A3.548,3.548,0,0,0,179-15.2a5.314,5.314,0,0,0-1.56.18,7.674,7.674,0,0,0-1.68.94A25.863,25.863,0,0,0,172-11.12a6.938,6.938,0,0,0-1,1.26,2.842,2.842,0,0,0-.28,1.38,5.5,5.5,0,0,0,1.6,4.32,4.681,4.681,0,0,0,1.96,1.36,8.91,8.91,0,0,0,2.92.24,13.889,13.889,0,0,0,6.32-1.8l.88-.52.16-8.76v-8.72l.24-.84Q185.36-25,185.92-25.12Zm21.68,6.76a1.288,1.288,0,0,1,1.32,0q.8.24,1.9,2.12a13.482,13.482,0,0,1,1.54,3.8,16.141,16.141,0,0,1,.32,4.72,12.751,12.751,0,0,1-1.88,5.88,5.178,5.178,0,0,1-3.88,2.4,5.932,5.932,0,0,1-2.04-.22,4.753,4.753,0,0,1-1.84-.9,8.019,8.019,0,0,1-1.3-1.26,6.672,6.672,0,0,1-.98-1.42q-.76-1.36-1-1.36-.12,0-.6.92a7.918,7.918,0,0,1-1.58,2.44,3.751,3.751,0,0,1-1.98.92,4.814,4.814,0,0,1-1.36-.04,4.971,4.971,0,0,1-1.2-.28,3.468,3.468,0,0,1-1.34-1.42,8.922,8.922,0,0,1-.98-2.3,17.419,17.419,0,0,1,.4-7.04q1.12-5.88,2.56-6.2a1.679,1.679,0,0,1,1.14.28,1.013,1.013,0,0,1,.58.84,1.023,1.023,0,0,1-.52.84,21.194,21.194,0,0,0-1.84,4.32,13.474,13.474,0,0,0-.72,4.28q0,3.16,1.68,4.24a1.881,1.881,0,0,0,2.08.24A3.089,3.089,0,0,0,197.6-4.6a9.453,9.453,0,0,0,.2-5.24,1.746,1.746,0,0,1,.28-1.92q.6-.6,1.3.22a11.61,11.61,0,0,1,1.58,3.14,29.643,29.643,0,0,0,1.98,4.62,4.781,4.781,0,0,0,1.86,1.86,3.228,3.228,0,0,0,1.6.36,5.324,5.324,0,0,0,1.36-.12,2.562,2.562,0,0,0,.96-.68,5.8,5.8,0,0,0,1.22-1.74,8.427,8.427,0,0,0,.82-2.38,10,10,0,0,0-.2-4.36A9.485,9.485,0,0,0,209-14.76a1.122,1.122,0,0,0-1.4-.44,1.326,1.326,0,0,1-1.32.02,1,1,0,0,1-.36-1.14,2.6,2.6,0,0,1,.62-1.18A2.714,2.714,0,0,1,207.6-18.36Zm8.72-.08a.653.653,0,0,1,.54-.2.936.936,0,0,1,.62.2q.36.24.64,2.32,0,1.28.2,1.28a9.411,9.411,0,0,0,1.08-1,17.332,17.332,0,0,1,2.44-1.98,3.587,3.587,0,0,1,1.76-.38,4.063,4.063,0,0,1,3.24,1.2q.2.32,0,.52a1.144,1.144,0,0,1-.68.54,8.706,8.706,0,0,1-1.68.1,5.434,5.434,0,0,0-2.08.24q-1.76,1-3.08,4.2a8.556,8.556,0,0,0-.78,2.14,41.731,41.731,0,0,0-.22,4.22,19.314,19.314,0,0,1-.2,4.24q-.4.36-1.16-.16a1.712,1.712,0,0,1-.74-.9,11.346,11.346,0,0,1-.26-2.42v-12.2A5.014,5.014,0,0,1,216.32-18.44Zm13.8-4.04q.72-.36,2.3.9t1.46,2.1q0,.48-.62.5a2.812,2.812,0,0,1-1.38-.38,9.03,9.03,0,0,1-1.62-1.28,1.762,1.762,0,0,1-.62-1.04A.94.94,0,0,1,230.12-22.48Zm.72,7.28a.655.655,0,0,1,.48-.2q.44,0,1.12,1.04a23.464,23.464,0,0,1,.2,3.72q.04,3.12-.06,6.56a22.545,22.545,0,0,1-.26,3.8.809.809,0,0,1-1,.56l-.6-.12-.08-4.52q0-1.36-.06-3.96t-.06-3.16a27.671,27.671,0,0,1-.12-2.82A1.115,1.115,0,0,1,230.84-15.2ZM242.76-20a.564.564,0,0,1,.8-.12,5.354,5.354,0,0,1,.2,2.12q-.12,2,.08,2a10.03,10.03,0,0,1,1.32.08,32.172,32.172,0,0,0,4.4-.28,2.505,2.505,0,0,1,1.48.08.991.991,0,0,1,.52.52,1.075,1.075,0,0,1-.2,1.28,3.829,3.829,0,0,1-1.4.4,20.377,20.377,0,0,1-3.92.32l-2.68.08-.12.92q-.08.96-.04,3.08a29.642,29.642,0,0,0,.16,3,7.823,7.823,0,0,0,1.12,3.76q.96,1.48,2.16,1.24.56-.08,3.4-2.68,2.12-2,2.7-2.42t.82.02q.2.32-.7,1.56a24.052,24.052,0,0,1-2.62,2.92,8.649,8.649,0,0,1-3.4,2.6q-2.16.6-3.68-1.68a7.371,7.371,0,0,1-1.28-2.84,44.49,44.49,0,0,1-.52-5.88q-.12-1.8-.12-3.6a.311.311,0,0,0-.12-.28,3.444,3.444,0,0,0-.52-.24,1.24,1.24,0,0,1-.24-.08,12.026,12.026,0,0,0-2-.4,1.145,1.145,0,0,1-.6-.2q-.24-.04-.42-.46a1.92,1.92,0,0,1-.18-.74.553.553,0,0,1,.5-.56,10.976,10.976,0,0,1,2.3-.04l1.68.12v-.4a5.5,5.5,0,0,1,.36-1.72A4.4,4.4,0,0,1,242.76-20Zm13.8-2.48q.72-.36,2.3.9t1.46,2.1q0,.48-.62.5a2.812,2.812,0,0,1-1.38-.38,9.03,9.03,0,0,1-1.62-1.28,1.762,1.762,0,0,1-.62-1.04A.94.94,0,0,1,256.56-22.48Zm.72,7.28a.655.655,0,0,1,.48-.2q.44,0,1.12,1.04a23.463,23.463,0,0,1,.2,3.72q.04,3.12-.06,6.56a22.546,22.546,0,0,1-.26,3.8.808.808,0,0,1-1,.56l-.6-.12-.08-4.52q0-1.36-.06-3.96t-.06-3.16a27.686,27.686,0,0,1-.12-2.82A1.115,1.115,0,0,1,257.28-15.2Zm14.76-3a2.633,2.633,0,0,1,1.84.12,5.906,5.906,0,0,1,2,1.22,4.024,4.024,0,0,1,1.24,1.78q.52,1.44.88,2.76a57.5,57.5,0,0,1,.84,7.24q.32,4.72,0,5.16-.28.4-1.08.24a.662.662,0,0,1-.56-.5,18.757,18.757,0,0,1-.28-2.42,48.961,48.961,0,0,0-1.16-9.12,8.61,8.61,0,0,0-1.32-2.86q-.92-1.3-1.64-1.3-1.16,0-4.24,3.12a5.566,5.566,0,0,0-1.6,3.24,33.707,33.707,0,0,0,0,6.84A21.443,21.443,0,0,1,266.88.2q-.08.16-.48.28a1.758,1.758,0,0,1-.72.08q-.2,0-.64-.48a2.02,2.02,0,0,1-.64-1.16q-.12-.68-.2-4.36,0-1.4-.04-3.88t-.04-3a20.563,20.563,0,0,1,.1-3.6,2.463,2.463,0,0,1,.82-1.56,1.772,1.772,0,0,1,.54-.28q.1,0,.34.28a4.465,4.465,0,0,1,.32,1.72q0,1.84.24,1.84a.971.971,0,0,0,.48-.24,2.842,2.842,0,0,0,1.2-.92A17.248,17.248,0,0,1,272.04-18.2Zm18.92.48a4.766,4.766,0,0,1,3,.2,20.731,20.731,0,0,1,2.68,1.72l.8.68V-9.4q-.12,11.16-.4,12.88A4.931,4.931,0,0,1,294.44,7a10.132,10.132,0,0,1-5,.48,20.032,20.032,0,0,1-3.88-1.08,12.954,12.954,0,0,1-1.82-.92,12.315,12.315,0,0,1-1.5-1.28q-1.68-1.84-1.4-3,.52-.96,1.32.28a8.8,8.8,0,0,0,3.8,2.92,12.306,12.306,0,0,0,1.8.88l.88.32,1.8-.12a6.746,6.746,0,0,0,3.52-.8,2.179,2.179,0,0,0,.94-1.02,7.316,7.316,0,0,0,.46-2.06,25.532,25.532,0,0,0-.04-3.14,8.09,8.09,0,0,0-.28-2.18,4.956,4.956,0,0,0-1,.32,13.427,13.427,0,0,1-6,1.2,5.385,5.385,0,0,1-3.88-1.52,6.919,6.919,0,0,1-1.4-2.86,6.1,6.1,0,0,1-.2-2.94,9.8,9.8,0,0,1,1.68-3.2,12.773,12.773,0,0,1,3.02-3.04A12.65,12.65,0,0,1,290.96-17.72Zm2.6,2.2a2.9,2.9,0,0,0-2.52,0,12.343,12.343,0,0,0-4.2,2.6,9.11,9.11,0,0,0-1.94,2.74,4.671,4.671,0,0,0-.26,2.46,4.973,4.973,0,0,0,.78,2.06,2.511,2.511,0,0,0,1.34,1.14h4.6l.8-.28a5.35,5.35,0,0,0,3-2.72,4.474,4.474,0,0,0,.2-1.68,5.449,5.449,0,0,0-.52-2.8,5.877,5.877,0,0,1-.2-1.4,2.213,2.213,0,0,0-.4-1.4,2.422,2.422,0,0,1-.36-.34A3.66,3.66,0,0,1,293.56-15.52Z" transform="translate(68 870)" fill="#fff"/>
    <path id="路径_6960" data-name="路径 6960" d="M0,0H8V124H0Z" transform="translate(36 757)" fill="#febd17"/>
    <path id="路径_6961" data-name="路径 6961" d="M-52.18-13.14a2.69,2.69,0,0,1,.54-.04,5.015,5.015,0,0,1,1.23.13,4.6,4.6,0,0,1,1.17.31,1.722,1.722,0,0,1,.86,1.14q.28.88-.08,1.26a2.4,2.4,0,0,1-.74.3,5.015,5.015,0,0,1-.04-.66,2.039,2.039,0,0,0-.26-.96,1.7,1.7,0,0,0-.88-.38,5.006,5.006,0,0,0-2.5-.08,3.929,3.929,0,0,0-1.36.67,1.988,1.988,0,0,0-.76.93,1.671,1.671,0,0,0,.04.44,5.7,5.7,0,0,0,.72,1.42A17.078,17.078,0,0,0-50.7-5.62a8.249,8.249,0,0,1,2.68,2.66,2.036,2.036,0,0,1,.22,1.2A2.6,2.6,0,0,1-48.47.05a4.177,4.177,0,0,1-2.05.89A5.884,5.884,0,0,1-53.36.82,7.785,7.785,0,0,1-54.81.16,5.675,5.675,0,0,1-56-.7a4.968,4.968,0,0,1-1.15-1.67,7.609,7.609,0,0,1-.61-2.21,1.6,1.6,0,0,1,.28-1.36A.308.308,0,0,1-56.96-6q.22.12.06.34-.24.36.06,1.64a5.88,5.88,0,0,0,.8,2A5.43,5.43,0,0,0-53.82-.16a5.369,5.369,0,0,0,1.46.44A4.52,4.52,0,0,0-50.92.2,2.949,2.949,0,0,0-48.8-1.32a1.065,1.065,0,0,0,.06-.96,3.756,3.756,0,0,0-.85-1.23A12.944,12.944,0,0,0-51.34-4.9a28.454,28.454,0,0,1-2.87-2.27A6.038,6.038,0,0,1-55.5-8.84a3.4,3.4,0,0,1-.36-1.5,1.5,1.5,0,0,1,.14-.76,2.6,2.6,0,0,1,.73-.8,5.931,5.931,0,0,1,1.21-.76A5.81,5.81,0,0,1-52.18-13.14Zm8.4,3.14a.282.282,0,0,1,.4-.06A2.677,2.677,0,0,1-43.28-9q-.06,1,.04,1a5.015,5.015,0,0,1,.66.04,16.086,16.086,0,0,0,2.2-.14,1.253,1.253,0,0,1,.74.04.5.5,0,0,1,.26.26.538.538,0,0,1-.1.64,1.914,1.914,0,0,1-.7.2,10.188,10.188,0,0,1-1.96.16l-1.34.04-.06.46q-.04.48-.02,1.54a14.82,14.82,0,0,0,.08,1.5,3.912,3.912,0,0,0,.56,1.88q.48.74,1.08.62a7.066,7.066,0,0,0,1.7-1.34q1.06-1,1.35-1.21t.41.01q.1.16-.35.78a12.027,12.027,0,0,1-1.31,1.46,4.325,4.325,0,0,1-1.7,1.3A1.592,1.592,0,0,1-43.58-.6a3.686,3.686,0,0,1-.64-1.42,22.246,22.246,0,0,1-.26-2.94q-.06-.9-.06-1.8a.156.156,0,0,0-.06-.14,1.722,1.722,0,0,0-.26-.12.62.62,0,0,1-.12-.04,6.013,6.013,0,0,0-1-.2.572.572,0,0,1-.3-.1q-.12-.02-.21-.23a.96.96,0,0,1-.09-.37.276.276,0,0,1,.25-.28,5.488,5.488,0,0,1,1.15-.02l.84.06v-.2a2.748,2.748,0,0,1,.18-.86A2.2,2.2,0,0,1-43.78-10Zm11.44,6.36a18.13,18.13,0,0,0,.79-1.89,3.146,3.146,0,0,0,.09-1.07,5.248,5.248,0,0,1,.22-1.64q.26-.66.64-.66a1.44,1.44,0,0,1,.8.22.4.4,0,0,1,.04.4q-.02.08-.07.29a1.525,1.525,0,0,1-.09.29,26.594,26.594,0,0,0-.2,5.6v.88a11.964,11.964,0,0,1-.2,2.9,2.618,2.618,0,0,1-.5.89,5.108,5.108,0,0,1-1.74.83q-.38.1-1.37.31a3.121,3.121,0,0,1-1.97-.23,2.732,2.732,0,0,1-1.42-1.3A3.826,3.826,0,0,1-37.84.64a.681.681,0,0,1,.02-.22q.02-.04.12-.04.14-.04.19.01a.9.9,0,0,1,.13.21,1.99,1.99,0,0,1,.38.62,2.509,2.509,0,0,0,1.84,1.36,4.589,4.589,0,0,0,2.44-.4,2.162,2.162,0,0,0,1.24-.7,2.357,2.357,0,0,0,.3-.98q.02-.42-.02-1.97t-.08-1.97l-.06-.3-.16.3q-.2.44-.46.9l-.32.52a4.954,4.954,0,0,0-.5.68,1.556,1.556,0,0,1-1.28.8,1.41,1.41,0,0,1-1.02-.5,3.587,3.587,0,0,1-.64-1.34,10.883,10.883,0,0,1-.29-1.84q-.11-1.2-.15-2.2,0-1.74.36-2.08.44-.32.62.12a20.076,20.076,0,0,1,.26,3.56,8.86,8.86,0,0,0,.26,2.2,1.9,1.9,0,0,0,.47.73.439.439,0,0,0,.45.05q.26-.08.84-.9Zm4.62-8.88a.3.3,0,0,1,.3-.1q.24,0,.3.1.12.08.13.45a7.213,7.213,0,0,1-.09,1.09q-.1,4.24-.06,8.46.02,2.48-.34,2.9-.26.3-.6-.02-.08-.1-.08-4.6-.04-4.72.05-6.32A4.139,4.139,0,0,1-27.72-12.52Zm6.2,3.68a2.834,2.834,0,0,1,.98-.1,3.988,3.988,0,0,1,1.28.14,5.485,5.485,0,0,1,1.16.78,6.069,6.069,0,0,1,1.07.98,2.324,2.324,0,0,1,.41.9,3.177,3.177,0,0,1,.05.63,1.455,1.455,0,0,1-.29.69,1.918,1.918,0,0,1-1.12.65,9.739,9.739,0,0,1-1.78.21q-1.16.02-1.91-.02a13.308,13.308,0,0,1-1.91-.28q-.52-.1-.56.09t-.07.47a1.566,1.566,0,0,0,.35.86,3.964,3.964,0,0,0,2.04,1.58,6.174,6.174,0,0,0,4.08.28,4.864,4.864,0,0,0,.84-.35q.54-.27.63.17a.485.485,0,0,1-.23.6,4.957,4.957,0,0,1-1.34.64,6.974,6.974,0,0,1-2.08.14A5.771,5.771,0,0,1-22.24-.2a5.413,5.413,0,0,1-2.2-1.63,3.421,3.421,0,0,1-.88-2.13,4.688,4.688,0,0,1,.66-2.1,6.523,6.523,0,0,1,1.49-1.89A5.7,5.7,0,0,1-21.52-8.84Zm1.68,1.04a3.836,3.836,0,0,0-1.68.12A4.033,4.033,0,0,0-22.86-6.6q-.84,1.08-.78,1.24a1.063,1.063,0,0,1,.14.03q.12.03.3.06t.36.05a12.847,12.847,0,0,0,2.26.14,11.176,11.176,0,0,0,1.94-.06,2.742,2.742,0,0,0,.63-.12.376.376,0,0,0,.19-.24,1.067,1.067,0,0,0,.1-.38A2.818,2.818,0,0,0-18.6-7.2,2.323,2.323,0,0,0-19.84-7.8ZM-3.4-10.14a.415.415,0,0,1-.12-.52,1.7,1.7,0,0,1,.46-.66l.66-.82.58-.74q.3-.28.68.12a.766.766,0,0,1,.18.45,3.018,3.018,0,0,1-.12.67l-.06.62q0,.82-.08,2.18-.12,1.96-.12,2.34-.08,1.18-.08,2.14-.14,2.74-.22,3.92A4.8,4.8,0,0,1-1.76.58Q-1.84.82-2,.84A.6.6,0,0,1-2.64.48Q-2.68.22-2.5-2.1q.04-.56.06-1.15t.05-1.63q.03-1.04.07-2.04.1-2.56.2-3.9a2.152,2.152,0,0,1-.84.76A.389.389,0,0,1-3.4-10.14Z" transform="translate(879 873)" fill="#fff"/>
    <path id="路径_6962" data-name="路径 6962" d="M-57.4-13.14a2.69,2.69,0,0,1,.54-.04,5.015,5.015,0,0,1,1.23.13,4.6,4.6,0,0,1,1.17.31,1.722,1.722,0,0,1,.86,1.14q.28.88-.08,1.26a2.4,2.4,0,0,1-.74.3,5.014,5.014,0,0,1-.04-.66,2.039,2.039,0,0,0-.26-.96,1.7,1.7,0,0,0-.88-.38,5.006,5.006,0,0,0-2.5-.08,3.93,3.93,0,0,0-1.36.67,1.988,1.988,0,0,0-.76.93,1.671,1.671,0,0,0,.04.44,5.7,5.7,0,0,0,.72,1.42,17.078,17.078,0,0,0,3.54,3.04,8.249,8.249,0,0,1,2.68,2.66,2.036,2.036,0,0,1,.22,1.2A2.6,2.6,0,0,1-53.69.05a4.177,4.177,0,0,1-2.05.89A5.884,5.884,0,0,1-58.58.82,7.786,7.786,0,0,1-60.03.16,5.675,5.675,0,0,1-61.22-.7a4.968,4.968,0,0,1-1.15-1.67,7.609,7.609,0,0,1-.61-2.21,1.6,1.6,0,0,1,.28-1.36A.308.308,0,0,1-62.18-6q.22.12.06.34-.24.36.06,1.64a5.88,5.88,0,0,0,.8,2A5.43,5.43,0,0,0-59.04-.16a5.369,5.369,0,0,0,1.46.44A4.52,4.52,0,0,0-56.14.2a2.949,2.949,0,0,0,2.12-1.52,1.065,1.065,0,0,0,.06-.96,3.756,3.756,0,0,0-.85-1.23A12.944,12.944,0,0,0-56.56-4.9a28.454,28.454,0,0,1-2.87-2.27,6.038,6.038,0,0,1-1.29-1.67,3.4,3.4,0,0,1-.36-1.5,1.5,1.5,0,0,1,.14-.76,2.6,2.6,0,0,1,.73-.8A5.932,5.932,0,0,1-59-12.66,5.81,5.81,0,0,1-57.4-13.14ZM-49-10a.282.282,0,0,1,.4-.06A2.677,2.677,0,0,1-48.5-9q-.06,1,.04,1a5.015,5.015,0,0,1,.66.04,16.086,16.086,0,0,0,2.2-.14,1.253,1.253,0,0,1,.74.04.5.5,0,0,1,.26.26.537.537,0,0,1-.1.64,1.914,1.914,0,0,1-.7.2,10.188,10.188,0,0,1-1.96.16l-1.34.04-.06.46q-.04.48-.02,1.54a14.82,14.82,0,0,0,.08,1.5,3.912,3.912,0,0,0,.56,1.88q.48.74,1.08.62a7.066,7.066,0,0,0,1.7-1.34q1.06-1,1.35-1.21t.41.01q.1.16-.35.78a12.027,12.027,0,0,1-1.31,1.46,4.325,4.325,0,0,1-1.7,1.3A1.592,1.592,0,0,1-48.8-.6a3.686,3.686,0,0,1-.64-1.42,22.244,22.244,0,0,1-.26-2.94q-.06-.9-.06-1.8a.156.156,0,0,0-.06-.14,1.722,1.722,0,0,0-.26-.12.62.62,0,0,1-.12-.04,6.013,6.013,0,0,0-1-.2.572.572,0,0,1-.3-.1q-.12-.02-.21-.23a.96.96,0,0,1-.09-.37.276.276,0,0,1,.25-.28,5.488,5.488,0,0,1,1.15-.02l.84.06v-.2a2.748,2.748,0,0,1,.18-.86A2.2,2.2,0,0,1-49-10Zm11.44,6.36a18.13,18.13,0,0,0,.79-1.89,3.146,3.146,0,0,0,.09-1.07,5.248,5.248,0,0,1,.22-1.64q.26-.66.64-.66a1.44,1.44,0,0,1,.8.22.4.4,0,0,1,.04.4q-.02.08-.07.29a1.525,1.525,0,0,1-.09.29,26.594,26.594,0,0,0-.2,5.6v.88a11.965,11.965,0,0,1-.2,2.9,2.618,2.618,0,0,1-.5.89,5.108,5.108,0,0,1-1.74.83q-.38.1-1.37.31a3.121,3.121,0,0,1-1.97-.23,2.732,2.732,0,0,1-1.42-1.3A3.826,3.826,0,0,1-43.06.64a.681.681,0,0,1,.02-.22q.02-.04.12-.04.14-.04.19.01A.9.9,0,0,1-42.6.6a1.99,1.99,0,0,1,.38.62,2.509,2.509,0,0,0,1.84,1.36,4.589,4.589,0,0,0,2.44-.4,2.162,2.162,0,0,0,1.24-.7A2.357,2.357,0,0,0-36.4.5q.02-.42-.02-1.97t-.08-1.97l-.06-.3-.16.3q-.2.44-.46.9l-.32.52a4.954,4.954,0,0,0-.5.68,1.556,1.556,0,0,1-1.28.8,1.41,1.41,0,0,1-1.02-.5,3.587,3.587,0,0,1-.64-1.34,10.883,10.883,0,0,1-.29-1.84q-.11-1.2-.15-2.2,0-1.74.36-2.08.44-.32.62.12a20.076,20.076,0,0,1,.26,3.56,8.86,8.86,0,0,0,.26,2.2,1.9,1.9,0,0,0,.47.73.439.439,0,0,0,.45.05q.26-.08.84-.9Zm4.62-8.88a.3.3,0,0,1,.3-.1q.24,0,.3.1.12.08.13.45a7.212,7.212,0,0,1-.09,1.09q-.1,4.24-.06,8.46.02,2.48-.34,2.9-.26.3-.6-.02-.08-.1-.08-4.6-.04-4.72.05-6.32A4.139,4.139,0,0,1-32.94-12.52Zm6.2,3.68a2.834,2.834,0,0,1,.98-.1,3.988,3.988,0,0,1,1.28.14,5.485,5.485,0,0,1,1.16.78,6.069,6.069,0,0,1,1.07.98,2.324,2.324,0,0,1,.41.9,3.177,3.177,0,0,1,.05.63,1.455,1.455,0,0,1-.29.69,1.918,1.918,0,0,1-1.12.65,9.739,9.739,0,0,1-1.78.21q-1.16.02-1.91-.02a13.308,13.308,0,0,1-1.91-.28q-.52-.1-.56.09t-.07.47a1.566,1.566,0,0,0,.35.86,3.964,3.964,0,0,0,2.04,1.58,6.174,6.174,0,0,0,4.08.28,4.864,4.864,0,0,0,.84-.35q.54-.27.63.17a.485.485,0,0,1-.23.6,4.957,4.957,0,0,1-1.34.64,6.974,6.974,0,0,1-2.08.14A5.771,5.771,0,0,1-27.46-.2a5.413,5.413,0,0,1-2.2-1.63,3.421,3.421,0,0,1-.88-2.13,4.688,4.688,0,0,1,.66-2.1,6.523,6.523,0,0,1,1.49-1.89A5.7,5.7,0,0,1-26.74-8.84Zm1.68,1.04a3.836,3.836,0,0,0-1.68.12A4.033,4.033,0,0,0-28.08-6.6q-.84,1.08-.78,1.24a1.063,1.063,0,0,1,.14.03q.12.03.3.06t.36.05a12.847,12.847,0,0,0,2.26.14,11.176,11.176,0,0,0,1.94-.06,2.742,2.742,0,0,0,.63-.12.376.376,0,0,0,.19-.24,1.067,1.067,0,0,0,.1-.38,2.818,2.818,0,0,0-.88-1.32A2.323,2.323,0,0,0-25.06-7.8Zm20.4-5.4a3.038,3.038,0,0,1,.5-.04,2.254,2.254,0,0,1,1.18.22,3.158,3.158,0,0,1,1.32,1.08q.72.88.66,1.22a1.354,1.354,0,0,1-.6.74,15.952,15.952,0,0,0-1.76,1.6A19.245,19.245,0,0,0-5.55-6.02,24.9,24.9,0,0,0-7.32-3.06q-.06.14-.23.45a3.235,3.235,0,0,0-.21.43,2.068,2.068,0,0,0-.32,1q0,.22.82.31t3.9.21q1.96.04,2.35.09T-.6-.2q.12.6-.66.74A23.309,23.309,0,0,1-3.6.56Q-5.36.52-6.68.44A8.732,8.732,0,0,1-8.56.02a.9.9,0,0,1-.58-.54,6.007,6.007,0,0,1,.71-2.11A23.556,23.556,0,0,1-6.8-5.68,29.038,29.038,0,0,1-4.48-8.62l2.02-2.48q0-.18-.7-.68l-.38-.2h-.58a5.656,5.656,0,0,0-1.1.04,5.286,5.286,0,0,0-1.72.64q-.38.22-.38.4a.257.257,0,0,1-.1.19.281.281,0,0,1-.16.09.322.322,0,0,1-.21-.1.521.521,0,0,1-.15-.22q-.1-.2.36-.94a2.8,2.8,0,0,1,.9-.84A7.07,7.07,0,0,1-4.66-13.2Z" transform="translate(1000 873)" fill="#fff"/>
    <path id="路径_6963" data-name="路径 6963" d="M-43.82-11.44a5.756,5.756,0,0,1,.62-.02,2.563,2.563,0,0,1,2.08.74,2.7,2.7,0,0,0,.42.48.6.6,0,0,1,.24.4.474.474,0,0,1-.14.33.562.562,0,0,1-.33.18.462.462,0,0,1-.31-.04,1.012,1.012,0,0,1-.28-.31,1.977,1.977,0,0,0-.72-.6,2.462,2.462,0,0,0-.94-.26,1.73,1.73,0,0,0-.88.08.868.868,0,0,0-.54.68.953.953,0,0,0,.14.78,4.991,4.991,0,0,0,1.32,1.1q1.42.9,1.79,1.21a3.1,3.1,0,0,1,.69.89,3.342,3.342,0,0,1,.41.81,2.352,2.352,0,0,1,.03.75,2.127,2.127,0,0,1-.17.67A2.435,2.435,0,0,1-40.9-3a4.357,4.357,0,0,1-1.3.94,1.663,1.663,0,0,1-.74.14,3.088,3.088,0,0,1-.96-.2,7.17,7.17,0,0,1-2.4-1.34.6.6,0,0,1-.24-.42.445.445,0,0,1,.38-.46q.26-.06.78.44a3.544,3.544,0,0,0,1.36.76,2.19,2.19,0,0,0,1.36.16,2.871,2.871,0,0,0,.76-.45,2.016,2.016,0,0,0,.58-.59,1.046,1.046,0,0,0-.08-.96,3.522,3.522,0,0,0-.85-.99A8.587,8.587,0,0,0-43.8-7.02a4.03,4.03,0,0,1-1.6-1.46,1.684,1.684,0,0,1-.12-.8,2.992,2.992,0,0,1,.08-.77,2.62,2.62,0,0,1,.36-.71l.22-.34.46-.16A5.1,5.1,0,0,1-43.82-11.44ZM-36.7-8.7a.534.534,0,0,1,.24-.07.249.249,0,0,1,.2.05,1.714,1.714,0,0,1,.06.66,1.886,1.886,0,0,0,.08.68,4.86,4.86,0,0,0,1.4.16,4.9,4.9,0,0,1,.92.08.442.442,0,0,1,.3.22.511.511,0,0,1-.18.58l-.1.14h-1.24l-1.24.02.04.18a16.389,16.389,0,0,1,.04,1.66,11.2,11.2,0,0,0,.04,1.52q.14.14.76,0a5.169,5.169,0,0,0,1.22-.46,1.094,1.094,0,0,1,.74-.14.284.284,0,0,1,.2.28q.02.46-.83.83a4.879,4.879,0,0,1-1.87.39,1.93,1.93,0,0,1-.76-.1.612.612,0,0,1-.35-.4,12.7,12.7,0,0,1-.05-1.56q0-1.18-.02-1.55a1.168,1.168,0,0,0-.12-.53q-.12-.22-.68-.32a1.625,1.625,0,0,1-.73-.28.436.436,0,0,1-.13-.48.318.318,0,0,1,.22-.26,3.821,3.821,0,0,1,.76-.1A2.16,2.16,0,0,0-37-7.6q.12-.08.16-.56Q-36.82-8.62-36.7-8.7Zm8.54,2.4a.683.683,0,0,1,.49-.02.457.457,0,0,1,.33.24q.1.24-.36.72a4.06,4.06,0,0,0-.52.72,3.894,3.894,0,0,1-.43.66.878.878,0,0,0-.23.38,1.925,1.925,0,0,1-.2.48,1.558,1.558,0,0,0-.2.56,2.817,2.817,0,0,1-.62,1.24,3.525,3.525,0,0,0-.58,1.04q0,.06-.12.14a1.6,1.6,0,0,0-.28.38,1.931,1.931,0,0,1-.65.77q-.35.21-.55-.05a.458.458,0,0,1-.06-.44,4.39,4.39,0,0,1,.48-.88,11.329,11.329,0,0,0,.64-1.12,6.157,6.157,0,0,0,.44-.92,4.97,4.97,0,0,0-.26-.58q-.44-.94-.68-1.53a5.976,5.976,0,0,1-.32-.97.932.932,0,0,1,0-.55.4.4,0,0,1,.32-.21.416.416,0,0,1,.43.17,8.685,8.685,0,0,1,.57,1.23q.2.48.31.74a3.612,3.612,0,0,0,.18.38q.07.12.13.12a1.767,1.767,0,0,0,.28-.48,11.153,11.153,0,0,1,.65-1.16,7.109,7.109,0,0,1,.61-.9A.528.528,0,0,1-28.16-6.3Zm2.64-3.74a.639.639,0,0,1,.6.06.128.128,0,0,1,.1.1,2.111,2.111,0,0,1,.02.38q0,.38-.08,1.2-.1,1.48-.14,4.08a9.433,9.433,0,0,1-.14,2.24q-.12.16-.38.04-.24-.1-.3-.55t-.1-1.89q-.06-4.9.24-5.5A.31.31,0,0,1-25.52-10.04Zm5.18,3.06a2.225,2.225,0,0,1,1.24.18,1.849,1.849,0,0,1,.84.82,1.473,1.473,0,0,0,.32.34.75.75,0,0,1,.17.18.481.481,0,0,1,.03.2.852.852,0,0,1-.27.57,1.484,1.484,0,0,1-.65.41,4.959,4.959,0,0,1-1.56.18q-1.18,0-1.18.1,0,.08.41.42a3.172,3.172,0,0,0,.59.42,2.681,2.681,0,0,0,.9.14,9.4,9.4,0,0,0,1.22-.04q.94-.12,1.1.1.36.38-.48.68a5.124,5.124,0,0,1-1.52.26,3.6,3.6,0,0,1-1.7-.26A3.4,3.4,0,0,1-22.09-3.3a2.2,2.2,0,0,1-.59-1.26,2.319,2.319,0,0,1,.76-1.54A2.757,2.757,0,0,1-20.34-6.98Zm.64.96a.948.948,0,0,0-.34-.08,1.574,1.574,0,0,0-.84.28q-.18.14-.5.42a2.206,2.206,0,0,0-.3.28,5.519,5.519,0,0,0,.68.05q.64.03.98.01a2.348,2.348,0,0,0,.75-.14.229.229,0,0,0,.13-.32,1.088,1.088,0,0,0-.23-.28A1.016,1.016,0,0,0-19.7-6.02Zm16.26-4.52a3.521,3.521,0,0,1,1.12.02,2.053,2.053,0,0,1,.83.27.467.467,0,0,1,.19.47,4.141,4.141,0,0,1-.9,1.4,7.568,7.568,0,0,0-.82,1.12.728.728,0,0,0-.04.62A2.714,2.714,0,0,0-1.78-5.56a2.9,2.9,0,0,1,.97.76,1.4,1.4,0,0,1,.21.92,2.034,2.034,0,0,1-.32.89,1.811,1.811,0,0,1-.64.65,4.389,4.389,0,0,1-1.58.32q-1.12.08-1.28-.1a.9.9,0,0,1-.12-.33.592.592,0,0,1,0-.31.365.365,0,0,1,.23-.18,2.092,2.092,0,0,1,.55-.02A5.532,5.532,0,0,0-2-3.04a1,1,0,0,0,.32-.3.816.816,0,0,0,.08-.4.855.855,0,0,0-.18-.56,4.272,4.272,0,0,0-.86-.66,4.1,4.1,0,0,1-.77-.64,3.06,3.06,0,0,1-.53-.66,1.3,1.3,0,0,1,.06-1.06A6.05,6.05,0,0,1-3-8.7q.7-.8.38-.88a6.966,6.966,0,0,0-1.76.12,4.61,4.61,0,0,1-.78.1q-.06-.02-.07-.19a.641.641,0,0,1,.03-.27,1.743,1.743,0,0,1,.7-.41A4.25,4.25,0,0,1-3.44-10.54Z" transform="translate(1112 874)" fill="#fff"/>
  </g>
</svg>
