<svg xmlns="http://www.w3.org/2000/svg" width="1148" height="240" viewBox="0 0 1148 240">
  <g id="genjyuu" transform="translate(0 -721)">
    <g id="组_4854" data-name="组 4854" transform="translate(0 721)">
      <rect id="矩形_3596" data-name="矩形 3596" width="1148" height="240" fill="#313740"/>
      <rect id="矩形_3598" data-name="矩形 3598" width="8" height="124" transform="translate(36 36)" fill="#48d7dd"/>
    </g>
    <path id="路径_6888" data-name="路径 6888" d="M0,0H120V240H0Z" transform="translate(1028 721)" fill="#313740"/>
    <path id="路径_6889" data-name="路径 6889" d="M0,0H120V240H0Z" transform="translate(908 721)" fill="#313740"/>
    <path id="路径_6890" data-name="路径 6890" d="M0,0H120V240H0Z" transform="translate(788 721)" fill="#313740"/>
    <path id="路径_6891" data-name="路径 6891" d="M0,0H120V240H0Z" transform="translate(668 721)" fill="#313740"/>
    <path id="路径_6892" data-name="路径 6892" d="M0,0H120V240H0Z" transform="translate(548 721)" fill="#313740"/>
    <path id="路径_6893" data-name="路径 6893" d="M0,0H120V240H0Z" transform="translate(428 721)" fill="#313740"/>
    <path id="路径_6894" data-name="路径 6894" d="M0,0H120V240H0Z" transform="translate(308 721)" fill="#313740"/>
    <path id="路径_6895" data-name="路径 6895" d="M0,0H120V240H0Z" transform="translate(308 721)" fill="#313740"/>
    <path id="路径_6896" data-name="路径 6896" d="M30.547-24.023a.276.276,0,0,0,.313-.312v-4.453q0-.273-.312-.273H21.641a.242.242,0,0,0-.273.273v4.453q0,.313.273.313Zm0,7.578q.313,0,.313-.273v-4.492a.276.276,0,0,0-.312-.312H21.641q-.273,0-.273.313v4.492a.242.242,0,0,0,.273.273ZM9.023-21.523a.276.276,0,0,0-.312.313v4.492q0,.273.313.273h9.141a.242.242,0,0,0,.273-.273v-4.492q0-.313-.273-.312Zm0-7.539q-.312,0-.312.273v4.453a.276.276,0,0,0,.313.313h9.141q.273,0,.273-.312v-4.453a.242.242,0,0,0-.273-.273Zm22.422-2.656a2.2,2.2,0,0,1,1.641.684,2.248,2.248,0,0,1,.664,1.621v13.32a2.248,2.248,0,0,1-.664,1.621,2.2,2.2,0,0,1-1.641.684H8.242A2.2,2.2,0,0,1,6.6-14.473a2.248,2.248,0,0,1-.664-1.621v-13.32A2.248,2.248,0,0,1,6.6-31.035a2.2,2.2,0,0,1,1.641-.684ZM24.531-8.32A1.22,1.22,0,0,1,25-7.344a1.356,1.356,0,0,1-.41,1,1.379,1.379,0,0,1-1.016.41A1.63,1.63,0,0,1,22.5-6.328a36.852,36.852,0,0,0-6.055-4.219.9.9,0,0,1-.488-.723.969.969,0,0,1,.293-.84,2.041,2.041,0,0,1,1.055-.469.866.866,0,0,1,.273-.039,1.781,1.781,0,0,1,.859.234A34.42,34.42,0,0,1,24.531-8.32ZM5.625-.273a1.545,1.545,0,0,1-.977.742,2.63,2.63,0,0,1-.43.039,1.581,1.581,0,0,1-.781-.2,1.177,1.177,0,0,1-.664-.859A1.81,1.81,0,0,1,2.734-.9a1.316,1.316,0,0,1,.234-.742A31.249,31.249,0,0,0,6.055-8.594a1.24,1.24,0,0,1,.664-.8,1.294,1.294,0,0,1,1.055-.059,1.444,1.444,0,0,1,.82.723,1.3,1.3,0,0,1,.078,1.074A35.342,35.342,0,0,1,5.625-.273ZM17.188-.508H24.8a2.011,2.011,0,0,0,1.777-.664,7.064,7.064,0,0,0,.605-2.969.909.909,0,0,1,.488-.762,1,1,0,0,1,.918-.059,2.08,2.08,0,0,1,1,.762,1.76,1.76,0,0,1,.332,1.152q-.391,3.125-1.406,4.2a4.648,4.648,0,0,1-3.477,1.074H16.992q-3.2,0-4.3-.82T11.6-1.8V-8.242a1.434,1.434,0,0,1,.43-1.055,1.434,1.434,0,0,1,1.055-.43,1.434,1.434,0,0,1,1.055.43,1.434,1.434,0,0,1,.43,1.055v6.406a1.111,1.111,0,0,0,.469,1.074A5.556,5.556,0,0,0,17.188-.508ZM30.43-8.125A.933.933,0,0,1,30.2-8.75a.96.96,0,0,1,.078-.352,1.053,1.053,0,0,1,.664-.7,1.465,1.465,0,0,1,.664-.156,1.6,1.6,0,0,1,.508.078,1.624,1.624,0,0,1,.977.664A41.461,41.461,0,0,1,37.3-2.07a1.769,1.769,0,0,1,.117.625,1.472,1.472,0,0,1-.117.586,1.537,1.537,0,0,1-.859.9,1.424,1.424,0,0,1-.566.117,1.72,1.72,0,0,1-.605-.117,1.566,1.566,0,0,1-.82-.859A39.282,39.282,0,0,0,30.43-8.125Zm20.43-21.6a1.335,1.335,0,0,1,.547,1.016,1.6,1.6,0,0,1-.312,1.094,1.284,1.284,0,0,1-.937.527,1.376,1.376,0,0,1-1.055-.332,29.3,29.3,0,0,0-4.3-2.891,1.183,1.183,0,0,1-.586-.781,1.045,1.045,0,0,1,.234-.937,1.5,1.5,0,0,1,.938-.586,1.81,1.81,0,0,1,.352-.039,1.506,1.506,0,0,1,.742.2A26.689,26.689,0,0,1,50.859-29.727ZM48.906-19.336a1.4,1.4,0,0,1,.605.977,1.426,1.426,0,0,1-.293,1.133,1.284,1.284,0,0,1-.937.527,1.458,1.458,0,0,1-1.055-.293,28.158,28.158,0,0,0-4.375-2.7,1.06,1.06,0,0,1-.586-.742,1.148,1.148,0,0,1-.039-.273,1.088,1.088,0,0,1,.234-.664,1.762,1.762,0,0,1,.977-.605,1.779,1.779,0,0,1,1.133.1A28.088,28.088,0,0,1,48.906-19.336Zm-.9,8.672a1.173,1.173,0,0,1,.762-.664,1.043,1.043,0,0,1,.957.156,1.657,1.657,0,0,1,.723.957,1.784,1.784,0,0,1-.059,1.191Q48.2-3.711,45.859,1.055a1.348,1.348,0,0,1-.879.762,1.348,1.348,0,0,1-1.152-.176A1.556,1.556,0,0,1,43.086.625,2.195,2.195,0,0,1,43.047.2a1.734,1.734,0,0,1,.2-.781Q45.781-5.313,48.008-10.664Zm11.641,3.4a1.706,1.706,0,0,1,.8-.8A1.628,1.628,0,0,1,61.523-8.2a1.125,1.125,0,0,1,.8.605,1.077,1.077,0,0,1,.02,1,29.759,29.759,0,0,1-3.75,6.289,1.414,1.414,0,0,1-.977.527,1.71,1.71,0,0,1-1.094-.254,1.22,1.22,0,0,1-.508-.84,1.181,1.181,0,0,1,.273-.957A23.915,23.915,0,0,0,59.648-7.266Zm2.07-9.3q-.273,0-.273.313v2.93a.242.242,0,0,0,.273.273h11.6a.242.242,0,0,0,.273-.273v-2.93q0-.313-.273-.312Zm0-5.625a.242.242,0,0,0-.273.273v2.891q0,.313.273.313h11.6q.273,0,.273-.312v-2.891a.242.242,0,0,0-.273-.273Zm14.648,9.141a2.215,2.215,0,0,1-.684,1.621,2.215,2.215,0,0,1-1.621.684h-5q-.313,0-.312.273V-.039A4.362,4.362,0,0,1,68.477,1.7a1.831,1.831,0,0,1-1.094.918,12.562,12.562,0,0,1-3.867.391h-.234a1.6,1.6,0,0,1-1.016-.371,1.77,1.77,0,0,1-.625-.918.88.88,0,0,1,.1-.82.813.813,0,0,1,.723-.391h2.773a.839.839,0,0,0,.547-.137.569.569,0,0,0,.156-.449V-10.469q0-.273-.312-.273H61.094a2.215,2.215,0,0,1-1.621-.684,2.215,2.215,0,0,1-.684-1.621v-9.141a2.215,2.215,0,0,1,.684-1.621,2.215,2.215,0,0,1,1.621-.684h3.789a.337.337,0,0,0,.352-.273q.43-1.914.7-3.75.078-.273-.234-.273H56.758a.242.242,0,0,0-.273.273v7.891q0,14.688-4.57,22.266a1.252,1.252,0,0,1-.9.605,1.54,1.54,0,0,1-1.094-.215,1.5,1.5,0,0,1-.625-.9,1.452,1.452,0,0,1-.039-.352,1.437,1.437,0,0,1,.2-.7A24.241,24.241,0,0,0,51.66-4.844a31.651,31.651,0,0,0,1.27-5.586q.391-2.891.508-5.156t.117-5.039v-8.594a2.215,2.215,0,0,1,.684-1.621,2.215,2.215,0,0,1,1.621-.684H76.523a1.344,1.344,0,0,1,.957.391,1.271,1.271,0,0,1,.41.957,1.334,1.334,0,0,1-.41.977,1.312,1.312,0,0,1-.957.41H69.1q.2.039.117.2-.82,2.891-1.094,3.828a.177.177,0,0,0,.039.2.225.225,0,0,0,.156.078h5.742a2.215,2.215,0,0,1,1.621.684,2.215,2.215,0,0,1,.684,1.621ZM72.227-6.68a1.048,1.048,0,0,1-.2-.625,1.284,1.284,0,0,1,.039-.312,1.186,1.186,0,0,1,.625-.742,2.212,2.212,0,0,1,.7-.117,2.63,2.63,0,0,1,.43.039,1.615,1.615,0,0,1,.938.664A34.5,34.5,0,0,1,78.086-2.3a1.674,1.674,0,0,1,.117.586,1.982,1.982,0,0,1-.078.547,1.577,1.577,0,0,1-.82.82,1.094,1.094,0,0,1-.547.156,1.12,1.12,0,0,1-.508-.117,1.433,1.433,0,0,1-.82-.742A39.268,39.268,0,0,0,72.227-6.68Zm45.039-3.359a1.279,1.279,0,0,1,.391.938,1.215,1.215,0,0,1-.391.918,1.313,1.313,0,0,1-.937.371H104.57a.092.092,0,0,0-.1.078.22.22,0,0,0,.02.156,25.936,25.936,0,0,0,3.555,2.715A36.65,36.65,0,0,0,112.324-2.5a37.236,37.236,0,0,0,4.59,1.8.949.949,0,0,1,.664.664.958.958,0,0,1-.2.938,2.242,2.242,0,0,1-1.133.781,1.769,1.769,0,0,1-.625.117,2.212,2.212,0,0,1-.7-.117A37.072,37.072,0,0,1,107.7-1.855,31.2,31.2,0,0,1,101.68-6.68a.117.117,0,0,0-.117-.02.092.092,0,0,0-.078.1V1.563a1.434,1.434,0,0,1-.43,1.055,1.509,1.509,0,0,1-2.109,0,1.434,1.434,0,0,1-.43-1.055v-8.32a.092.092,0,0,0-.078-.1.117.117,0,0,0-.117.02,31.722,31.722,0,0,1-5.957,4.941,40.972,40.972,0,0,1-7.207,3.77,1.719,1.719,0,0,1-.7.156,1.472,1.472,0,0,1-.586-.117,2.12,2.12,0,0,1-1.094-.742A1.058,1.058,0,0,1,82.559.2a.92.92,0,0,1,.684-.7,38.525,38.525,0,0,0,6.6-3.047A31.761,31.761,0,0,0,95.43-7.578a.22.22,0,0,0,.02-.156.092.092,0,0,0-.1-.078H83.711a1.313,1.313,0,0,1-.937-.371,1.215,1.215,0,0,1-.391-.918,1.279,1.279,0,0,1,.391-.937,1.279,1.279,0,0,1,.938-.391H98.242q.273,0,.273-.312v-1.836q0-.312-.273-.273H96.211a1.781,1.781,0,0,1-1.055-.332,2,2,0,0,1-.7-.918.771.771,0,0,1,.1-.762.789.789,0,0,1,.684-.371q1.016.039,1.8.039.977,0,1.641-.039a.918.918,0,0,0,.586-.137.627.627,0,0,0,.156-.488V-21.25a.173.173,0,0,0-.2-.2.371.371,0,0,0-.312.156,30.876,30.876,0,0,1-5.879,4.57A43.834,43.834,0,0,1,85.9-13.164a2.1,2.1,0,0,1-.664.117,2.124,2.124,0,0,1-.586-.078,2.227,2.227,0,0,1-1.055-.7,1.022,1.022,0,0,1-.176-.918,1,1,0,0,1,.605-.684,36.01,36.01,0,0,0,11.094-5.82.1.1,0,0,0,.059-.117.092.092,0,0,0-.1-.078H84.414a1.169,1.169,0,0,1-.859-.352,1.169,1.169,0,0,1-.352-.859,1.169,1.169,0,0,1,.352-.859,1.169,1.169,0,0,1,.859-.352h16.328a.063.063,0,0,0,.059-.039.064.064,0,0,0-.02-.078,68.687,68.687,0,0,0-7.5-2.109.713.713,0,0,1-.508-.488.6.6,0,0,1,.156-.645,2.042,2.042,0,0,1,1.523-.7,2.847,2.847,0,0,1,.469.039q2.3.469,5.039,1.289a.977.977,0,0,0,.547,0,39.557,39.557,0,0,0,5.859-2.7q.078-.039.059-.1a.09.09,0,0,0-.1-.059H87.852a1.169,1.169,0,0,1-.859-.352,1.169,1.169,0,0,1-.352-.859,1.169,1.169,0,0,1,.352-.859,1.169,1.169,0,0,1,.859-.352h22.188a.347.347,0,0,0,.156-.039,1.284,1.284,0,0,1,.313-.039,1.148,1.148,0,0,1,.781.313l.508.352a1,1,0,0,1,.352.781.86.86,0,0,1-.391.742,37.493,37.493,0,0,1-7.891,4.3.125.125,0,0,0-.078.117.069.069,0,0,0,.078.078q1.328.469,2.461.977.313.117.117.391v.039h7.969a.159.159,0,0,0,.117-.039,1.772,1.772,0,0,1,.977.039l.664.234a.882.882,0,0,1,.566.605.837.837,0,0,1-.137.8,63.771,63.771,0,0,1-4.883,5.7,1.984,1.984,0,0,1-1.445.625,2.334,2.334,0,0,1-.9-.2.8.8,0,0,1-.566-.645.878.878,0,0,1,.254-.84,35.528,35.528,0,0,0,3.242-3.633.166.166,0,0,0,0-.156.125.125,0,0,0-.117-.078H102.7a.276.276,0,0,0-.312.313v5.352a3.42,3.42,0,0,1-.332,1.719,2.044,2.044,0,0,1-1.191.82,5.054,5.054,0,0,1-.9.234,1.466,1.466,0,0,1,1.074.449,1.466,1.466,0,0,1,.449,1.074v.742q0,.312.273.313h14.57A1.279,1.279,0,0,1,117.266-10.039Zm28.4-13.125a1.163,1.163,0,0,1-.664.527,1.3,1.3,0,0,1-.859-.02.889.889,0,0,1-.488-.547.8.8,0,0,1,.1-.742,36.246,36.246,0,0,0,2.109-4.3,1.274,1.274,0,0,1,.645-.684,1.078,1.078,0,0,1,.918-.02,1,1,0,0,1,.645.625,1.036,1.036,0,0,1-.059.9Q146.484-24.57,145.664-23.164Zm-13.75-4.609a.832.832,0,0,1-.059-.723.765.765,0,0,1,.527-.488,1.221,1.221,0,0,1,.859,0,1.251,1.251,0,0,1,.664.547,17.731,17.731,0,0,1,1.8,3.828,1.263,1.263,0,0,1-.1.9,1.289,1.289,0,0,1-.684.625.953.953,0,0,1-.82-.059,1.012,1.012,0,0,1-.508-.645A22.309,22.309,0,0,0,131.914-27.773Zm-2.773,5.82q0,.273.313.273h8.75a.242.242,0,0,0,.273-.273v-8.125a.242.242,0,0,0-.273-.273h-8.75q-.312,0-.312.273Zm21.172.273a.242.242,0,0,0,.273-.273v-8.125a.242.242,0,0,0-.273-.273h-8.594q-.312,0-.312.273v8.125q0,.273.313.273Zm6.094,11.836a1.235,1.235,0,0,1,.9.391,1.256,1.256,0,0,1,.391.918,1.256,1.256,0,0,1-.391.918,1.235,1.235,0,0,1-.9.391H123.672a1.279,1.279,0,0,1-.937-.391,1.256,1.256,0,0,1-.391-.918,1.256,1.256,0,0,1,.391-.918,1.279,1.279,0,0,1,.938-.391H138.2q.273,0,.273-.312V-13.2a.242.242,0,0,0-.273-.273H126.836a1.169,1.169,0,0,1-.859-.352,1.169,1.169,0,0,1-.352-.859,1.169,1.169,0,0,1,.352-.859,1.169,1.169,0,0,1,.859-.352H138.2a.242.242,0,0,0,.273-.273v-2.734a.242.242,0,0,0-.273-.273h-9.57a2.215,2.215,0,0,1-1.621-.684,2.215,2.215,0,0,1-.684-1.621v-9.062a2.215,2.215,0,0,1,.684-1.621,2.215,2.215,0,0,1,1.621-.684H151.25a2.215,2.215,0,0,1,1.621.684,2.215,2.215,0,0,1,.684,1.621v9.063a2.215,2.215,0,0,1-.684,1.621,2.215,2.215,0,0,1-1.621.684h-9.531q-.312,0-.312.273v2.734q0,.273.313.273h11.406a1.169,1.169,0,0,1,.859.352,1.169,1.169,0,0,1,.352.859,1.169,1.169,0,0,1-.352.859,1.169,1.169,0,0,1-.859.352H141.719q-.312,0-.312.273v3.047a.276.276,0,0,0,.313.313Zm-30.2,11.055a1.757,1.757,0,0,1-1.133.664,1.987,1.987,0,0,1-.391.039,2.08,2.08,0,0,1-.937-.234A.973.973,0,0,1,123.2.9a.643.643,0,0,1-.039-.2,1.014,1.014,0,0,1,.313-.742A17.444,17.444,0,0,0,126.25-4.3a2.007,2.007,0,0,1,.82-.859,2.09,2.09,0,0,1,.781-.156,2.63,2.63,0,0,1,.43.039,1.24,1.24,0,0,1,.8.664,1.2,1.2,0,0,1,.02,1.055A20.645,20.645,0,0,1,126.211,1.211Zm7.656-4.453v-.234a1.19,1.19,0,0,1,.273-.742A.98.98,0,0,1,135-4.687a1.471,1.471,0,0,1,1.113.293,1.55,1.55,0,0,1,.605.957,25.42,25.42,0,0,1,.508,3.516,1.462,1.462,0,0,1-.371,1.094,1.593,1.593,0,0,1-1.035.547.643.643,0,0,1-.2.039,1.2,1.2,0,0,1-.82-.312,1.362,1.362,0,0,1-.469-.937A35.076,35.076,0,0,0,133.867-3.242Zm8.516.039a1.04,1.04,0,0,1-.117-.469,1.094,1.094,0,0,1,.156-.547,1.164,1.164,0,0,1,.781-.625,1.8,1.8,0,0,1,1.191.176,1.672,1.672,0,0,1,.8.84,34.6,34.6,0,0,1,1.328,3.594A1.406,1.406,0,0,1,146.348.9a1.37,1.37,0,0,1-.957.664,1.4,1.4,0,0,1-1.113-.156,1.451,1.451,0,0,1-.684-.937Q143.125-1.211,142.383-3.2Zm8.477-.391a1.039,1.039,0,0,1-.234-.625,1.147,1.147,0,0,1,.039-.273.852.852,0,0,1,.586-.664,2.737,2.737,0,0,1,.859-.156,2,2,0,0,1,1.484.7A35.031,35.031,0,0,1,157.07-.234a1.232,1.232,0,0,1,.2.664,2.195,2.195,0,0,1-.039.43,1.174,1.174,0,0,1-.781.781,1.465,1.465,0,0,1-.664.156,1.674,1.674,0,0,1-.586-.117A1.937,1.937,0,0,1,154.219.9q-.586-.9-1.406-1.992Q151.836-2.461,150.859-3.594ZM194.063-25a.276.276,0,0,0,.313-.312v-2.109a.276.276,0,0,0-.312-.312H191.68q-.273,0-.273.313v2.109q0,.313.273.313Zm0,4.727a.276.276,0,0,0,.313-.312v-2.148a.276.276,0,0,0-.312-.312H191.68q-.273,0-.273.313v2.148q0,.313.273.313Zm-11.719-2.773a.276.276,0,0,0-.312.313v2.148a.276.276,0,0,0,.313.313h2.188a.276.276,0,0,0,.313-.312v-2.148a.276.276,0,0,0-.312-.312Zm0-4.687a.276.276,0,0,0-.312.313v2.109a.276.276,0,0,0,.313.313h2.188a.276.276,0,0,0,.313-.312v-2.109a.276.276,0,0,0-.312-.312Zm7.227,5a.276.276,0,0,0-.312-.312h-2.227a.276.276,0,0,0-.312.313v2.148a.276.276,0,0,0,.313.313h2.227a.276.276,0,0,0,.313-.312Zm-2.852-2.578a.276.276,0,0,0,.313.313h2.227a.276.276,0,0,0,.313-.312v-2.109a.276.276,0,0,0-.312-.312h-2.227a.276.276,0,0,0-.312.313Zm7.656-4.492a2.215,2.215,0,0,1,1.621.684,2.215,2.215,0,0,1,.684,1.621v6.992A2.2,2.2,0,0,1,196-18.867a2.248,2.248,0,0,1-1.621.664h-12.3a2.229,2.229,0,0,1-1.641-.664,2.229,2.229,0,0,1-.664-1.641V-27.5a2.248,2.248,0,0,1,.664-1.621,2.2,2.2,0,0,1,1.641-.684h2.109q.312,0,.313-.273V-32.3a1.127,1.127,0,0,1,.313-.8,1.028,1.028,0,0,1,.781-.332,1.091,1.091,0,0,1,.8.332,1.091,1.091,0,0,1,.332.8v2.227q0,.273.313.273h2.227q.312,0,.313-.273V-32.3a1.091,1.091,0,0,1,.332-.8,1.069,1.069,0,0,1,.781-.332,1.069,1.069,0,0,1,.781.332,1.091,1.091,0,0,1,.332.8v2.227q0,.273.313.273Zm2.617,13.555a1.048,1.048,0,0,1,.762.332,1.069,1.069,0,0,1,.332.781,1.069,1.069,0,0,1-.332.781,1.048,1.048,0,0,1-.762.332H179.648a1.048,1.048,0,0,1-.762-.332,1.069,1.069,0,0,1-.332-.781,1.069,1.069,0,0,1,.332-.781,1.048,1.048,0,0,1,.762-.332Zm-13.75,6.094a.242.242,0,0,0-.273.273v2.852q0,.313.273.313h9.883q.273,0,.273-.312V-9.883a.242.242,0,0,0-.273-.273ZM195.977-7.07a2.2,2.2,0,0,1-.684,1.641,2.248,2.248,0,0,1-1.621.664H182.813a2.248,2.248,0,0,1-1.621-.664,2.2,2.2,0,0,1-.684-1.641V-9.8a2.2,2.2,0,0,1,.684-1.641,2.248,2.248,0,0,1,1.621-.664h10.859a2.248,2.248,0,0,1,1.621.664,2.2,2.2,0,0,1,.684,1.641ZM167.461-29.8a.276.276,0,0,0-.312.313v8.2q0,.273.313.273h1.484q.312,0,.313-.273v-3.594a2.229,2.229,0,0,1,.664-1.641,2.229,2.229,0,0,1,1.641-.664H173.4q.273,0,.273-.312v-1.992q0-.313-.273-.312Zm5.938,8.789a.242.242,0,0,0,.273-.273v-3.75a.242.242,0,0,0-.273-.273h-1.992a.242.242,0,0,0-.273.273v3.75a.242.242,0,0,0,.273.273Zm0,7.266a.242.242,0,0,0-.273-.273H167.7q-.312,0-.312.273v2.266q0,.273.313.273h5.43a.242.242,0,0,0,.273-.273Zm-6.016,7.344q0,.273.313.273h5.43a.242.242,0,0,0,.273-.273V-8.828a.242.242,0,0,0-.273-.273H167.7q-.312,0-.312.273ZM178.4-16.445a1.124,1.124,0,0,1-.352.82,1.146,1.146,0,0,1-.84.352,1.083,1.083,0,0,1-.82-.352,1.157,1.157,0,0,1-.332-.82v-2.148q0-.273-.312-.273H165.156a.242.242,0,0,0-.273.273v2.109a.242.242,0,0,0,.273.273h8.555a2.215,2.215,0,0,1,1.621.684,2.215,2.215,0,0,1,.684,1.621V.273a3.821,3.821,0,0,1-.234,1.5,1.741,1.741,0,0,1-.859.84,8.569,8.569,0,0,1-3.047.43,1.5,1.5,0,0,1-.937-.332,1.652,1.652,0,0,1-.586-.879.758.758,0,0,1,.078-.742.735.735,0,0,1,.645-.352h.762A10.258,10.258,0,0,0,172.93.7.627.627,0,0,0,173.3.625q.1-.078.1-.391V-3.672a.242.242,0,0,0-.273-.273H167.7q-.312,0-.312.273V1.8a1.235,1.235,0,0,1-.352.879,1.161,1.161,0,0,1-.879.371,1.224,1.224,0,0,1-.9-.371,1.2,1.2,0,0,1-.371-.879V-15.039q0-.234-.273-.234a1.888,1.888,0,0,1-1.406-.605,1.983,1.983,0,0,1-.586-1.426v-1.68a1.983,1.983,0,0,1,.586-1.426,1.888,1.888,0,0,1,1.406-.605q.273,0,.273-.234v-8.516a2.229,2.229,0,0,1,.664-1.641,2.229,2.229,0,0,1,1.641-.664h6.563a2.248,2.248,0,0,1,1.621.664,2.2,2.2,0,0,1,.684,1.641v8.516a.207.207,0,0,0,.234.234,2.009,2.009,0,0,1,1.5.625,2.061,2.061,0,0,1,.605,1.484ZM192.188-.2a.252.252,0,0,0,0,.2.157.157,0,0,0,.156.078h4.883a1.091,1.091,0,0,1,.8.332,1.091,1.091,0,0,1,.332.8,1.028,1.028,0,0,1-.332.781,1.127,1.127,0,0,1-.8.313H178.945a1.08,1.08,0,0,1-.762-.312,1.028,1.028,0,0,1-.332-.781,1.091,1.091,0,0,1,.332-.8,1.048,1.048,0,0,1,.762-.332h4.688a.192.192,0,0,0,.176-.1.35.35,0,0,0,.059-.176,20.079,20.079,0,0,0-.977-2.734,1.167,1.167,0,0,1,0-.84.938.938,0,0,1,.586-.566,2.63,2.63,0,0,1,.43-.039,1.6,1.6,0,0,1,.508.078,1.205,1.205,0,0,1,.664.625,19.209,19.209,0,0,1,1.133,3.047.5.5,0,0,1-.391.664V.078h4.258q-.312-.117-.156-.43.664-1.367,1.328-3.125a1.331,1.331,0,0,1,.625-.781,1.387,1.387,0,0,1,.625-.156,1.987,1.987,0,0,1,.391.039,1.054,1.054,0,0,1,.664.625,1.082,1.082,0,0,1,0,.9Q192.5-.781,192.188-.2Z" transform="translate(68 798)" fill="#fff"/>
    <path id="路径_6897" data-name="路径 6897" d="M-5.879-13.242a.121.121,0,0,0,.137-.137v-1.094q0-.156-.137-.156H-7.441q-.137,0-.137.156v1.094a.121.121,0,0,0,.137.137Zm3.047,3.613q.156,0,.156-.137v-2.168q0-.137-.156-.137h-1.66q-.156,0-.156.137v2.168q0,.137.156.137Zm-7.5-2.441q-.156,0-.156.137v2.168q0,.137.156.137h1.5q.156,0,.156-.137v-2.168q0-.137-.156-.137Zm4.59.137a.121.121,0,0,0-.137-.137H-7.461a.121.121,0,0,0-.137.137v2.168a.121.121,0,0,0,.137.137h1.582a.121.121,0,0,0,.137-.137Zm-3.2-1.309a.121.121,0,0,0,.137-.137v-1.094q0-.156-.137-.156h-2.793a.617.617,0,0,1-.439-.176.569.569,0,0,1-.186-.43.6.6,0,0,1,.186-.439.6.6,0,0,1,.439-.186H-1.484a.6.6,0,0,1,.439.186.6.6,0,0,1,.186.439.569.569,0,0,1-.186.43.617.617,0,0,1-.439.176h-2.91q-.137,0-.137.156v1.094a.121.121,0,0,0,.137.137h1.855a1.1,1.1,0,0,1,.82.342,1.124,1.124,0,0,1,.332.811v2.461a1.124,1.124,0,0,1-.332.811,1.1,1.1,0,0,1-.82.342h-8.047a1.1,1.1,0,0,1-.82-.342,1.124,1.124,0,0,1-.332-.811V-12.09a1.124,1.124,0,0,1,.332-.811,1.1,1.1,0,0,1,.82-.342Zm6.895,6.133a.512.512,0,0,1,.176.4.557.557,0,0,1-.166.41.546.546,0,0,1-.4.166h-8.2a.546.546,0,0,1-.4-.166.557.557,0,0,1-.166-.41.557.557,0,0,1,.166-.41.546.546,0,0,1,.4-.166h8.2A.5.5,0,0,1-2.051-7.109Zm-10.684.371a.92.92,0,0,1,.166.566.958.958,0,0,1-.205.566.4.4,0,0,1-.371.156.376.376,0,0,1-.332-.234q-.41-.781-1.191-2.09a.066.066,0,0,0-.049-.02q-.029,0-.029.039V.82a.672.672,0,0,1-.2.479.635.635,0,0,1-.479.205A.635.635,0,0,1-15.9,1.3a.672.672,0,0,1-.2-.479V-7.7a.017.017,0,0,0-.02-.02.056.056,0,0,0-.039.02,22.659,22.659,0,0,1-1.992,4.8.375.375,0,0,1-.371.205.413.413,0,0,1-.371-.225,1.171,1.171,0,0,1-.2-.625,1.171,1.171,0,0,1,.2-.625,17.743,17.743,0,0,0,1.5-3.105A25.02,25.02,0,0,0-16.289-10.9q.039-.137-.117-.137h-1.8a.678.678,0,0,1-.5-.205.667.667,0,0,1-.205-.488.667.667,0,0,1,.205-.488.678.678,0,0,1,.5-.205h1.953q.156,0,.156-.137v-3.5a.662.662,0,0,1,.2-.488.651.651,0,0,1,.479-.2.651.651,0,0,1,.479.2.662.662,0,0,1,.2.488v3.5q0,.137.156.137h1.406a.656.656,0,0,1,.479.205.667.667,0,0,1,.205.488.667.667,0,0,1-.205.488.656.656,0,0,1-.479.205H-14.59q-.156,0-.156.137V-9.8a.389.389,0,0,0,.1.254Q-13.984-8.633-12.734-6.738ZM-10.547-2.5a.77.77,0,0,1,.439-.273.794.794,0,0,1,.518.059.591.591,0,0,1,.293.391.5.5,0,0,1-.1.449A12.527,12.527,0,0,1-11.758.449a.59.59,0,0,1-.479.137.9.9,0,0,1-.479-.234.507.507,0,0,1-.156-.371.5.5,0,0,1,.2-.41A11.912,11.912,0,0,0-10.547-2.5Zm9.512-2.012a.584.584,0,0,1,.176.43.584.584,0,0,1-.176.43.584.584,0,0,1-.43.176H-5.879a.121.121,0,0,0-.137.137v3.4a1.974,1.974,0,0,1-.137.83.933.933,0,0,1-.488.439,6.665,6.665,0,0,1-1.934.215.75.75,0,0,1-.488-.176A.95.95,0,0,1-9.395.918a.457.457,0,0,1,.039-.41A.384.384,0,0,1-9,.313H-7.7A.339.339,0,0,0-7.461.254.3.3,0,0,0-7.4.039V-3.34a.121.121,0,0,0-.137-.137h-4.316a.584.584,0,0,1-.43-.176.584.584,0,0,1-.176-.43.584.584,0,0,1,.176-.43.584.584,0,0,1,.43-.176H-1.465A.584.584,0,0,1-1.035-4.512ZM-4.141-1.836a.52.52,0,0,1-.137-.352.472.472,0,0,1,.215-.43.733.733,0,0,1,.43-.137h.078a.715.715,0,0,1,.469.215A24.708,24.708,0,0,1-1.133-.488.621.621,0,0,1-1-.1V.02A.662.662,0,0,1-1.27.469.689.689,0,0,1-1.66.586h-.117A.774.774,0,0,1-2.227.313,23.224,23.224,0,0,0-4.141-1.836ZM11.973-11.875a.138.138,0,0,0,.156-.156v-1.191q0-.137-.156-.137H9.023a.121.121,0,0,0-.137.137v1.191q0,.156.137.156Zm0,2.539a.138.138,0,0,0,.156-.156v-1.113a.138.138,0,0,0-.156-.156H9.023q-.137,0-.137.156v1.113q0,.156.137.156Zm0,2.637a.138.138,0,0,0,.156-.156V-8.066a.138.138,0,0,0-.156-.156H9.023q-.137,0-.137.156v1.211q0,.156.137.156ZM8.613-5.508A1.124,1.124,0,0,1,7.8-5.84a1.1,1.1,0,0,1-.342-.82v-5.234a.046.046,0,0,0-.039-.049.058.058,0,0,0-.059.01q-.332.352-.684.7a.789.789,0,0,1-.576.225.835.835,0,0,1-.557-.225.61.61,0,0,1-.234-.488.61.61,0,0,1,.234-.488,14.124,14.124,0,0,0,3.105-3.945.861.861,0,0,1,.449-.41.775.775,0,0,1,.352-.078.737.737,0,0,1,.234.039.586.586,0,0,1,.391.342.56.56,0,0,1-.02.518,11.216,11.216,0,0,1-.625,1.074.1.1,0,0,0,0,.088.076.076,0,0,0,.078.049h2.48a.214.214,0,0,0,.215-.137,13.689,13.689,0,0,0,.645-1.309,1.006,1.006,0,0,1,.469-.488.925.925,0,0,1,.449-.117.994.994,0,0,1,.2.02.513.513,0,0,1,.42.313.527.527,0,0,1-.029.527q-.293.488-.645,1.055a.1.1,0,0,0,0,.088.076.076,0,0,0,.078.049h3.672a.6.6,0,0,1,.43.166.542.542,0,0,1,.176.41.573.573,0,0,1-.176.42.584.584,0,0,1-.43.176H13.672q-.156,0-.156.137v1.191a.138.138,0,0,0,.156.156h3.242a.546.546,0,0,1,.4.166.535.535,0,0,1,.166.391.535.535,0,0,1-.166.391.546.546,0,0,1-.4.166H13.672a.138.138,0,0,0-.156.156v1.113a.138.138,0,0,0,.156.156h3.281a.546.546,0,0,1,.4.166.535.535,0,0,1,.166.391.535.535,0,0,1-.166.391.546.546,0,0,1-.4.166H13.672a.138.138,0,0,0-.156.156v1.211a.138.138,0,0,0,.156.156h4.336a.562.562,0,0,1,.41.176.573.573,0,0,1,.176.42.573.573,0,0,1-.176.42.562.562,0,0,1-.41.176Zm-5.605.117a.688.688,0,0,1-.527.234.688.688,0,0,1-.527-.234.727.727,0,0,1-.2-.557.765.765,0,0,1,.254-.537Q3.379-7.793,4.941-9.57a.475.475,0,0,1,.41-.186.528.528,0,0,1,.41.205.75.75,0,0,1,.176.488.75.75,0,0,1-.176.488Q4.434-6.973,3.008-5.391ZM5.723-15.469a.588.588,0,0,1,.313.41.647.647,0,0,1-.107.518.7.7,0,0,1-.449.3.658.658,0,0,1-.518-.1,17.1,17.1,0,0,0-2.012-1.016.469.469,0,0,1-.293-.332.5.5,0,0,1,.078-.43.747.747,0,0,1,.43-.312.737.737,0,0,1,.234-.039.736.736,0,0,1,.293.059A18,18,0,0,1,5.723-15.469Zm-1.5,3.145a.591.591,0,0,1,.332.4.6.6,0,0,1-.078.518.708.708,0,0,1-.439.3.734.734,0,0,1-.537-.068q-.859-.449-2.031-.918a.442.442,0,0,1-.3-.3.463.463,0,0,1,.068-.42.965.965,0,0,1,.43-.332.991.991,0,0,1,.273-.039.991.991,0,0,1,.273.039A19.043,19.043,0,0,1,4.219-12.324ZM18.281-3.711a.662.662,0,0,1,.488.2.639.639,0,0,1,.2.469.639.639,0,0,1-.2.469.662.662,0,0,1-.488.2H10.82q-.137,0-.137.156V.781a.733.733,0,0,1-.225.537.731.731,0,0,1-1.055,0A.733.733,0,0,1,9.18.781V-2.227q0-.156-.137-.156H1.8a.662.662,0,0,1-.488-.2.639.639,0,0,1-.2-.469.639.639,0,0,1,.2-.469.662.662,0,0,1,.488-.2H9.043q.137,0,.137-.156v-.742A.7.7,0,0,1,9.4-5.137a.738.738,0,0,1,.527-.215.738.738,0,0,1,.527.215.7.7,0,0,1,.225.527v.742q0,.156.137.156Z" transform="translate(609 800)" fill="#fff"/>
    <path id="路径_6898" data-name="路径 6898" d="M-18.184-4.766a.683.683,0,0,1,.273-.41.612.612,0,0,1,.469-.117.69.69,0,0,1,.43.273.645.645,0,0,1,.117.488,19.345,19.345,0,0,1-1,3.848.529.529,0,0,1-.352.313A.636.636,0,0,1-18.73-.41a.629.629,0,0,1-.322-.361.64.64,0,0,1,.01-.479A16.088,16.088,0,0,0-18.184-4.766Zm4.668.215a.519.519,0,0,1,0-.439.529.529,0,0,1,.332-.3.649.649,0,0,1,.469.02.672.672,0,0,1,.352.332,22.634,22.634,0,0,1,.957,2.715.675.675,0,0,1-.068.488.628.628,0,0,1-.381.313.567.567,0,0,1-.459-.039.534.534,0,0,1-.283-.371A18.552,18.552,0,0,0-13.516-4.551Zm-.273-4.844a.485.485,0,0,1-.059-.439.532.532,0,0,1,.293-.322.636.636,0,0,1,.488-.039.747.747,0,0,1,.41.313,18.459,18.459,0,0,1,1.543,2.949.729.729,0,0,1-.01.537.684.684,0,0,1-.381.381.56.56,0,0,1-.479.02.527.527,0,0,1-.322-.352q-.137-.332-.293-.723a.186.186,0,0,0-.215-.117l-1.5.137a.142.142,0,0,0-.137.156V.82a.662.662,0,0,1-.2.488.651.651,0,0,1-.479.2.651.651,0,0,1-.479-.2A.662.662,0,0,1-15.8.82V-6.758a.121.121,0,0,0-.137-.137l-2.48.234a.733.733,0,0,1-.518-.156.765.765,0,0,1-.283-.469v-.1a.621.621,0,0,1,.137-.391.615.615,0,0,1,.449-.234q.2,0,.723-.039a.421.421,0,0,0,.254-.117q.41-.508,1.016-1.328a.226.226,0,0,0,0-.254,14.85,14.85,0,0,0-2.07-2.344.664.664,0,0,1-.225-.43.647.647,0,0,1,.127-.469.592.592,0,0,1,.41-.225.55.55,0,0,1,.449.146.227.227,0,0,1,.059.039q.078.059.117,0a27.632,27.632,0,0,0,1.5-3.047.718.718,0,0,1,.391-.391.736.736,0,0,1,.293-.059.928.928,0,0,1,.254.039.648.648,0,0,1,.371.381.6.6,0,0,1-.039.518q-1.094,2.07-1.914,3.32a.18.18,0,0,0,.02.234,14.911,14.911,0,0,1,1.016,1.172.132.132,0,0,0,.1.039.079.079,0,0,0,.078-.039q1.016-1.5,1.836-2.988a.69.69,0,0,1,.41-.342.7.7,0,0,1,.527.029.587.587,0,0,1,.332.381.607.607,0,0,1-.059.5,48.466,48.466,0,0,1-3.574,5,.083.083,0,0,0,0,.078.063.063,0,0,0,.059.039l2.813-.2a.084.084,0,0,0,.068-.039.1.1,0,0,0,.01-.1Q-13.555-9-13.789-9.395Zm8.184,8.066a.138.138,0,0,0,.156.156h2.441a.138.138,0,0,0,.156-.156v-5.43q0-.137-.156-.137H-5.449q-.156,0-.156.137Zm-3.77-5.566a.121.121,0,0,0-.137.137v5.43q0,.156.137.156h2.3a.138.138,0,0,0,.156-.156v-5.43q0-.137-.156-.137Zm2.461-6.719a.138.138,0,0,0-.156-.156h-2.3q-.137,0-.137.156V-8.4a.121.121,0,0,0,.137.137h2.3q.156,0,.156-.137Zm3.906,5.352q.156,0,.156-.137v-5.215a.138.138,0,0,0-.156-.156H-5.449a.138.138,0,0,0-.156.156V-8.4q0,.137.156.137Zm-7.852-5.723a1.1,1.1,0,0,1,.342-.82,1.124,1.124,0,0,1,.811-.332h7.07a1.114,1.114,0,0,1,.82.332,1.114,1.114,0,0,1,.332.82V.43a.662.662,0,0,1-.2.488.662.662,0,0,1-.488.2.662.662,0,0,1-.488-.2.662.662,0,0,1-.2-.488V.313A.1.1,0,0,0-2.969.2H-9.395a.1.1,0,0,0-.117.117V.605a.656.656,0,0,1-.205.479.656.656,0,0,1-.479.205.624.624,0,0,1-.469-.205.672.672,0,0,1-.2-.479ZM17.031-12.5a.138.138,0,0,0,.156-.156v-1.055a.138.138,0,0,0-.156-.156H15.84q-.137,0-.137.156v1.055q0,.156.137.156Zm0,2.363a.138.138,0,0,0,.156-.156v-1.074a.138.138,0,0,0-.156-.156H15.84q-.137,0-.137.156v1.074q0,.156.137.156Zm-5.859-1.387a.138.138,0,0,0-.156.156v1.074a.138.138,0,0,0,.156.156h1.094a.138.138,0,0,0,.156-.156v-1.074a.138.138,0,0,0-.156-.156Zm0-2.344a.138.138,0,0,0-.156.156v1.055a.138.138,0,0,0,.156.156h1.094a.138.138,0,0,0,.156-.156v-1.055a.138.138,0,0,0-.156-.156Zm3.613,2.5a.138.138,0,0,0-.156-.156H13.516a.138.138,0,0,0-.156.156v1.074a.138.138,0,0,0,.156.156h1.113a.138.138,0,0,0,.156-.156Zm-1.426-1.289a.138.138,0,0,0,.156.156h1.113a.138.138,0,0,0,.156-.156v-1.055a.138.138,0,0,0-.156-.156H13.516a.138.138,0,0,0-.156.156ZM17.188-14.9a1.108,1.108,0,0,1,.811.342,1.108,1.108,0,0,1,.342.811v3.5a1.1,1.1,0,0,1-.342.82,1.124,1.124,0,0,1-.811.332H11.035a1.114,1.114,0,0,1-.82-.332,1.114,1.114,0,0,1-.332-.82v-3.5a1.124,1.124,0,0,1,.332-.811,1.1,1.1,0,0,1,.82-.342H12.09q.156,0,.156-.137v-1.113a.563.563,0,0,1,.156-.4.514.514,0,0,1,.391-.166.546.546,0,0,1,.4.166.546.546,0,0,1,.166.4v1.113q0,.137.156.137h1.113q.156,0,.156-.137v-1.113a.546.546,0,0,1,.166-.4.535.535,0,0,1,.391-.166.535.535,0,0,1,.391.166.546.546,0,0,1,.166.4v1.113q0,.137.156.137ZM18.5-8.125a.524.524,0,0,1,.381.166.535.535,0,0,1,.166.391.535.535,0,0,1-.166.391.524.524,0,0,1-.381.166H9.824a.524.524,0,0,1-.381-.166.535.535,0,0,1-.166-.391.535.535,0,0,1,.166-.391.524.524,0,0,1,.381-.166ZM11.621-5.078a.121.121,0,0,0-.137.137v1.426q0,.156.137.156h4.941q.137,0,.137-.156V-4.941a.121.121,0,0,0-.137-.137Zm6.367,1.543a1.1,1.1,0,0,1-.342.82,1.124,1.124,0,0,1-.811.332h-5.43a1.124,1.124,0,0,1-.811-.332,1.1,1.1,0,0,1-.342-.82V-4.9a1.1,1.1,0,0,1,.342-.82,1.124,1.124,0,0,1,.811-.332h5.43a1.124,1.124,0,0,1,.811.332,1.1,1.1,0,0,1,.342.82ZM3.73-14.9a.138.138,0,0,0-.156.156v4.1q0,.137.156.137h.742q.156,0,.156-.137v-1.8a1.114,1.114,0,0,1,.332-.82,1.114,1.114,0,0,1,.82-.332H6.7q.137,0,.137-.156v-1q0-.156-.137-.156ZM6.7-10.508a.121.121,0,0,0,.137-.137V-12.52a.121.121,0,0,0-.137-.137h-1a.121.121,0,0,0-.137.137v1.875a.121.121,0,0,0,.137.137Zm0,3.633a.121.121,0,0,0-.137-.137H3.848q-.156,0-.156.137v1.133q0,.137.156.137H6.563A.121.121,0,0,0,6.7-5.742ZM3.691-3.2q0,.137.156.137H6.563A.121.121,0,0,0,6.7-3.2V-4.414a.121.121,0,0,0-.137-.137H3.848q-.156,0-.156.137ZM9.2-8.223a.562.562,0,0,1-.176.41.573.573,0,0,1-.42.176.542.542,0,0,1-.41-.176.579.579,0,0,1-.166-.41V-9.3q0-.137-.156-.137H2.578a.121.121,0,0,0-.137.137v1.055a.121.121,0,0,0,.137.137H6.855a1.108,1.108,0,0,1,.811.342,1.108,1.108,0,0,1,.342.811V.137a1.911,1.911,0,0,1-.117.752.87.87,0,0,1-.43.42,4.285,4.285,0,0,1-1.523.215.75.75,0,0,1-.469-.166A.826.826,0,0,1,5.176.918.379.379,0,0,1,5.215.547.368.368,0,0,1,5.537.371h.381a5.129,5.129,0,0,0,.547-.02A.313.313,0,0,0,6.65.313Q6.7.273,6.7.117V-1.836a.121.121,0,0,0-.137-.137H3.848q-.156,0-.156.137V.9a.617.617,0,0,1-.176.439.58.58,0,0,1-.439.186.612.612,0,0,1-.449-.186A.6.6,0,0,1,2.441.9V-7.52q0-.117-.137-.117a.944.944,0,0,1-.7-.3.991.991,0,0,1-.293-.713v-.84a.991.991,0,0,1,.293-.713.944.944,0,0,1,.7-.3q.137,0,.137-.117v-4.258a1.114,1.114,0,0,1,.332-.82,1.114,1.114,0,0,1,.82-.332H6.875a1.124,1.124,0,0,1,.811.332,1.1,1.1,0,0,1,.342.82v4.258a.1.1,0,0,0,.117.117A1,1,0,0,1,8.9-10.2a1.03,1.03,0,0,1,.3.742ZM16.094-.1a.126.126,0,0,0,0,.1.079.079,0,0,0,.078.039h2.441a.546.546,0,0,1,.4.166.546.546,0,0,1,.166.4A.514.514,0,0,1,19.014,1a.563.563,0,0,1-.4.156H9.473A.54.54,0,0,1,9.092,1,.514.514,0,0,1,8.926.605a.546.546,0,0,1,.166-.4A.524.524,0,0,1,9.473.039h2.344A.1.1,0,0,0,11.9-.01.175.175,0,0,0,11.934-.1a10.039,10.039,0,0,0-.488-1.367.584.584,0,0,1,0-.42.469.469,0,0,1,.293-.283,1.315,1.315,0,0,1,.215-.02.8.8,0,0,1,.254.039.6.6,0,0,1,.332.313,9.6,9.6,0,0,1,.566,1.523.252.252,0,0,1-.2.332v.02h2.129q-.156-.059-.078-.215.332-.684.664-1.562a.665.665,0,0,1,.313-.391.693.693,0,0,1,.313-.078.994.994,0,0,1,.2.02.527.527,0,0,1,.332.313.541.541,0,0,1,0,.449Q16.25-.391,16.094-.1Z" transform="translate(489 800)" fill="#fff"/>
    <path id="路径_6899" data-name="路径 6899" d="M-9.141-11.309a.519.519,0,0,1-.234.3.584.584,0,0,1-.371.088l-.2-.039a.493.493,0,0,1-.41-.244.563.563,0,0,1-.059-.479q.488-1.5.8-2.812.039-.156-.117-.156h-2.7a.633.633,0,0,1-.449-.186.6.6,0,0,1-.2-.449.6.6,0,0,1,.2-.449.633.633,0,0,1,.449-.186H-1.816a.633.633,0,0,1,.449.186.6.6,0,0,1,.2.449.6.6,0,0,1-.2.449.633.633,0,0,1-.449.186h-6.23a.185.185,0,0,0-.2.156l-.488,1.855a.088.088,0,0,0,.01.088.1.1,0,0,0,.088.049H-7.3a1.091,1.091,0,0,1,.8.332,1.127,1.127,0,0,1,.313.8q0,4.082-.2,7.207a6.138,6.138,0,0,1-.449,2.441,1.548,1.548,0,0,1-1.133.625q-.41.039-.9.039a3.014,3.014,0,0,1-.332-.02.633.633,0,0,1-.449-.186,1.16,1.16,0,0,1-.293-.459.4.4,0,0,1,.059-.361.382.382,0,0,1,.332-.166q.449.02,1.035.02h.059a.532.532,0,0,0,.488-.254,6.088,6.088,0,0,0,.342-2.187q.107-1.855.166-6.543,0-.156-.137-.156H-9.062A.077.077,0,0,0-9.141-11.309ZM-10.1-5.234q.137,0,.137-.156V-8.965q0-.156-.137-.156h-1.367a.138.138,0,0,0-.156.156v3.574a.138.138,0,0,0,.156.156Zm.078-4.961a1.114,1.114,0,0,1,.82.332,1.114,1.114,0,0,1,.332.82v3.73A1.124,1.124,0,0,1-9.2-4.5a1.1,1.1,0,0,1-.82.342h-1.445A.138.138,0,0,0-11.621-4V-3.4a.54.54,0,0,1-.156.381.5.5,0,0,1-.381.166.5.5,0,0,1-.381-.166A.54.54,0,0,1-12.7-3.4V-9.043a1.114,1.114,0,0,1,.332-.82,1.114,1.114,0,0,1,.82-.332ZM-13.125-6.6a1.063,1.063,0,0,1,.156.527.962.962,0,0,1-.2.566.338.338,0,0,1-.342.176.37.37,0,0,1-.322-.234q-.488-1.035-1.133-2.187a.044.044,0,0,0-.049-.01q-.029.01-.029.029V.82a.662.662,0,0,1-.2.488.651.651,0,0,1-.479.2.651.651,0,0,1-.479-.2.662.662,0,0,1-.2-.488V-7.6q0-.02-.01-.02t-.029.02a22.769,22.769,0,0,1-1.8,4.668.322.322,0,0,1-.332.205.455.455,0,0,1-.371-.205,1.265,1.265,0,0,1-.176-.625,1.351,1.351,0,0,1,.156-.605,18.775,18.775,0,0,0,1.377-3.1,27.335,27.335,0,0,0,1.025-3.662q.02-.137-.117-.137h-1.562a.656.656,0,0,1-.479-.205.667.667,0,0,1-.205-.488.635.635,0,0,1,.205-.479.672.672,0,0,1,.479-.2h1.7a.121.121,0,0,0,.137-.137v-3.516a.639.639,0,0,1,.2-.469.651.651,0,0,1,.479-.2.651.651,0,0,1,.479.2.639.639,0,0,1,.2.469v3.516a.121.121,0,0,0,.137.137h1.348a.672.672,0,0,1,.479.2.635.635,0,0,1,.205.479.667.667,0,0,1-.205.488.656.656,0,0,1-.479.205H-14.9a.121.121,0,0,0-.137.137v1.23a.547.547,0,0,0,.078.273Q-14.258-8.4-13.125-6.6ZM-12.754.84a.623.623,0,0,1-.459-.186A.612.612,0,0,1-13.4.205a.645.645,0,0,1,.186-.459.608.608,0,0,1,.459-.2h11.27a.608.608,0,0,1,.459.2A.645.645,0,0,1-.84.205a.612.612,0,0,1-.186.449A.623.623,0,0,1-1.484.84ZM-2.4-11.7a3.041,3.041,0,0,1,.762.078.406.406,0,0,1,.244.166.4.4,0,0,1,.068.283,19.088,19.088,0,0,1-1.562,5.9.226.226,0,0,0,0,.254,7.44,7.44,0,0,0,1.7,1.914.576.576,0,0,1,.234.488.621.621,0,0,1-.137.391.765.765,0,0,1-.469.254.217.217,0,0,1-.1.02.621.621,0,0,1-.391-.137A8.6,8.6,0,0,1-3.535-3.828a.109.109,0,0,0-.088-.059q-.049,0-.068.059a8.925,8.925,0,0,1-1.426,1.66.539.539,0,0,1-.439.117.7.7,0,0,1-.42-.234.545.545,0,0,1-.137-.371.545.545,0,0,1,.176-.43A7.918,7.918,0,0,0-4.375-5.059a.252.252,0,0,0,.02-.254,18.3,18.3,0,0,1-1.328-4,.513.513,0,0,1,.078-.391.562.562,0,0,1,.332-.234.5.5,0,0,1,.371.068.522.522,0,0,1,.234.322,16.253,16.253,0,0,0,.938,2.91q0,.039.049.039t.049-.039a16.008,16.008,0,0,0,1.016-3.73q.02-.156-.137-.156H-5.02a.579.579,0,0,1-.41-.166.542.542,0,0,1-.176-.41.573.573,0,0,1,.176-.42.562.562,0,0,1,.41-.176ZM1.816-4.766a.683.683,0,0,1,.273-.41.612.612,0,0,1,.469-.117.69.69,0,0,1,.43.273.645.645,0,0,1,.117.488,19.345,19.345,0,0,1-1,3.848.529.529,0,0,1-.352.313A.636.636,0,0,1,1.27-.41.629.629,0,0,1,.947-.771a.64.64,0,0,1,.01-.479A16.088,16.088,0,0,0,1.816-4.766Zm4.668.215a.519.519,0,0,1,0-.439.529.529,0,0,1,.332-.3.649.649,0,0,1,.469.02.672.672,0,0,1,.352.332,22.634,22.634,0,0,1,.957,2.715.675.675,0,0,1-.068.488.628.628,0,0,1-.381.313.567.567,0,0,1-.459-.039A.534.534,0,0,1,7.4-1.836,18.552,18.552,0,0,0,6.484-4.551ZM6.211-9.395a.485.485,0,0,1-.059-.439.532.532,0,0,1,.293-.322.636.636,0,0,1,.488-.039.747.747,0,0,1,.41.313A18.459,18.459,0,0,1,8.887-6.934a.729.729,0,0,1-.01.537.684.684,0,0,1-.381.381A.56.56,0,0,1,8.018-6,.527.527,0,0,1,7.7-6.348Q7.559-6.68,7.4-7.07a.186.186,0,0,0-.215-.117l-1.5.137a.142.142,0,0,0-.137.156V.82a.662.662,0,0,1-.2.488.684.684,0,0,1-.957,0A.662.662,0,0,1,4.2.82V-6.758a.121.121,0,0,0-.137-.137l-2.48.234a.733.733,0,0,1-.518-.156.765.765,0,0,1-.283-.469v-.1a.621.621,0,0,1,.137-.391.615.615,0,0,1,.449-.234q.2,0,.723-.039a.421.421,0,0,0,.254-.117q.41-.508,1.016-1.328a.226.226,0,0,0,0-.254,14.85,14.85,0,0,0-2.07-2.344.664.664,0,0,1-.225-.43.647.647,0,0,1,.127-.469.592.592,0,0,1,.41-.225.55.55,0,0,1,.449.146.227.227,0,0,1,.059.039q.078.059.117,0a27.632,27.632,0,0,0,1.5-3.047.718.718,0,0,1,.391-.391.736.736,0,0,1,.293-.059.928.928,0,0,1,.254.039.648.648,0,0,1,.371.381A.6.6,0,0,1,5-15.586q-1.094,2.07-1.914,3.32a.18.18,0,0,0,.02.234,14.91,14.91,0,0,1,1.016,1.172.132.132,0,0,0,.1.039.079.079,0,0,0,.078-.039q1.016-1.5,1.836-2.988a.69.69,0,0,1,.41-.342.7.7,0,0,1,.527.029.587.587,0,0,1,.332.381.607.607,0,0,1-.059.5,48.466,48.466,0,0,1-3.574,5,.083.083,0,0,0,0,.078.063.063,0,0,0,.059.039l2.813-.2A.084.084,0,0,0,6.709-8.4a.1.1,0,0,0,.01-.1Q6.445-9,6.211-9.395Zm8.184,8.066a.138.138,0,0,0,.156.156h2.441a.138.138,0,0,0,.156-.156v-5.43q0-.137-.156-.137H14.551q-.156,0-.156.137Zm-3.77-5.566a.121.121,0,0,0-.137.137v5.43q0,.156.137.156h2.3a.138.138,0,0,0,.156-.156v-5.43q0-.137-.156-.137Zm2.461-6.719a.138.138,0,0,0-.156-.156h-2.3q-.137,0-.137.156V-8.4a.121.121,0,0,0,.137.137h2.3q.156,0,.156-.137Zm3.906,5.352q.156,0,.156-.137v-5.215a.138.138,0,0,0-.156-.156H14.551a.138.138,0,0,0-.156.156V-8.4q0,.137.156.137ZM9.141-13.984a1.1,1.1,0,0,1,.342-.82,1.124,1.124,0,0,1,.811-.332h7.07a1.114,1.114,0,0,1,.82.332,1.114,1.114,0,0,1,.332.82V.43a.684.684,0,1,1-1.367,0V.313A.1.1,0,0,0,17.031.2H10.605a.1.1,0,0,0-.117.117V.605a.656.656,0,0,1-.205.479.656.656,0,0,1-.479.205.624.624,0,0,1-.469-.205.672.672,0,0,1-.2-.479Z" transform="translate(369 800)" fill="#fff"/>
    <path id="路径_6900" data-name="路径 6900" d="M-13.574-9.8q-.137,0-.137.156v1.66q0,.156.137.156h7.246a.138.138,0,0,0,.156-.156v-1.66A.138.138,0,0,0-6.328-9.8ZM-4-5.078a1.124,1.124,0,0,1,.811.332,1.1,1.1,0,0,1,.342.82V-.9A2.008,2.008,0,0,1-3.018.02a1.117,1.117,0,0,1-.615.488A9.1,9.1,0,0,1-6.074.742a.906.906,0,0,1-.566-.2A1.124,1.124,0,0,1-7.012.039.442.442,0,0,1-6.973-.4a.442.442,0,0,1,.391-.205q.684.02,1.143.02t.674-.02a.738.738,0,0,0,.322-.078.264.264,0,0,0,.088-.234V-3.574q0-.137-.156-.137H-8.848Q-9-3.711-9-3.574V.781a.75.75,0,0,1-.215.537.7.7,0,0,1-.527.225.733.733,0,0,1-.537-.225.733.733,0,0,1-.225-.537V-3.574a.121.121,0,0,0-.137-.137h-4.648q-.156,0-.156.137V-.1a.717.717,0,0,1-.215.527.705.705,0,0,1-.518.215A.705.705,0,0,1-16.7.43.717.717,0,0,1-16.914-.1V-3.926a1.114,1.114,0,0,1,.332-.82,1.114,1.114,0,0,1,.82-.332h5.117q.137,0,.137-.156V-6.582a.121.121,0,0,0-.137-.137h-3.34a1.1,1.1,0,0,1-.82-.342,1.124,1.124,0,0,1-.332-.811V-9.766a1.114,1.114,0,0,1,.332-.82,1.114,1.114,0,0,1,.82-.332h8.125a1.114,1.114,0,0,1,.82.332,1.114,1.114,0,0,1,.332.82v1.895a1.124,1.124,0,0,1-.332.811,1.1,1.1,0,0,1-.82.342H-8.848Q-9-6.719-9-6.582v1.348a.138.138,0,0,0,.156.156Zm-1.211-10.8a1.141,1.141,0,0,1,.527-.43,1.051,1.051,0,0,1,.332-.059.938.938,0,0,1,.332.059.56.56,0,0,1,.361.391.563.563,0,0,1-.088.527q-.566.7-1.074,1.27a.926.926,0,0,1-.479.283.864.864,0,0,1-.557-.049.5.5,0,0,1-.283-.332.451.451,0,0,1,.088-.43A13.638,13.638,0,0,0-5.215-15.879Zm2.422,2.246a1.124,1.124,0,0,1,.811.332,1.1,1.1,0,0,1,.342.82V-10.1a.717.717,0,0,1-.215.527.705.705,0,0,1-.518.215.705.705,0,0,1-.518-.215.717.717,0,0,1-.215-.527v-2.09q0-.156-.137-.156H-16.66q-.137,0-.137.156v2.109A.711.711,0,0,1-17-9.57a.674.674,0,0,1-.508.215.674.674,0,0,1-.508-.215.711.711,0,0,1-.205-.508v-2.4a1.1,1.1,0,0,1,.342-.82,1.124,1.124,0,0,1,.811-.332h1.895a.1.1,0,0,0,.088-.049.088.088,0,0,0,.01-.088,12.683,12.683,0,0,0-1.074-1.66.544.544,0,0,1-.088-.479.5.5,0,0,1,.322-.361,1.012,1.012,0,0,1,.605-.049.939.939,0,0,1,.527.322q.312.391.625.82a.992.992,0,0,1,.156.527,1.211,1.211,0,0,1-.039.293,1,1,0,0,1-.566.625l-.059.039q-.02,0-.02.029t.039.029h3.887q.137,0,.137-.156V-16a.7.7,0,0,1,.225-.527.75.75,0,0,1,.537-.215.717.717,0,0,1,.527.215A.717.717,0,0,1-9.121-16v2.207a.138.138,0,0,0,.156.156ZM8.379-3.125a.8.8,0,0,1,.215.557.8.8,0,0,1-.215.557.619.619,0,0,1-.5.2.6.6,0,0,1-.459-.254q-.84-1.152-2.09-2.617a.056.056,0,0,0-.068-.029.06.06,0,0,0-.049.068A10.408,10.408,0,0,1,2.363.8a.565.565,0,0,1-.5.176.856.856,0,0,1-.5-.254.718.718,0,0,1-.2-.5.622.622,0,0,1,.215-.479Q3.848-2.539,4.18-7.324q0-.156-.137-.156H1.6a.639.639,0,0,1-.469-.2.639.639,0,0,1-.2-.469.672.672,0,0,1,.2-.479A.624.624,0,0,1,1.6-8.828H4.1a.121.121,0,0,0,.137-.137v-2.988q0-.156-.137-.156H2.012a.623.623,0,0,1-.459-.186.623.623,0,0,1-.186-.459.657.657,0,0,1,.186-.469.608.608,0,0,1,.459-.2H4.1q.137,0,.137-.156V-15.82a.678.678,0,0,1,.205-.5.667.667,0,0,1,.488-.205.667.667,0,0,1,.488.205.678.678,0,0,1,.205.5v2.246q0,.156.137.156H7.773a.639.639,0,0,1,.469.2.639.639,0,0,1,.2.469.608.608,0,0,1-.2.459.657.657,0,0,1-.469.186H5.762q-.137,0-.137.156v2.988a.121.121,0,0,0,.137.137H8.125a.656.656,0,0,1,.479.205.656.656,0,0,1,.205.479.624.624,0,0,1-.205.469.672.672,0,0,1-.479.2H5.7q-.137,0-.156.156-.02.332-.078.859a.389.389,0,0,0,.1.254Q6.484-5.273,8.379-3.125Zm2.7-5.117a.138.138,0,0,0-.156.156v1.7a.138.138,0,0,0,.156.156h5.391a.138.138,0,0,0,.156-.156v-1.7a.138.138,0,0,0-.156-.156Zm0-3.184a.138.138,0,0,0-.156.156v1.66a.138.138,0,0,0,.156.156h5.391a.138.138,0,0,0,.156-.156v-1.66a.138.138,0,0,0-.156-.156Zm0-3.184a.138.138,0,0,0-.156.156v1.641a.138.138,0,0,0,.156.156h5.391a.138.138,0,0,0,.156-.156v-1.641a.138.138,0,0,0-.156-.156Zm5.1,14.473h1.27q.293,0,.4-.352a8.5,8.5,0,0,0,.166-1.6.362.362,0,0,1,.2-.342.435.435,0,0,1,.41-.01.906.906,0,0,1,.449.371.78.78,0,0,1,.156.469A4.45,4.45,0,0,1,18.77.625a1.286,1.286,0,0,1-1.172.547H15.977A1.744,1.744,0,0,1,14.639.791a2.354,2.354,0,0,1-.322-1.455V-4.746q0-.156-.137-.156H12.7a.159.159,0,0,0-.176.156,8.866,8.866,0,0,1-1.191,3.682A6.21,6.21,0,0,1,8.418,1.25a.837.837,0,0,1-.293.059.689.689,0,0,1-.273-.059A1.02,1.02,0,0,1,7.383.9a.5.5,0,0,1-.1-.293A.433.433,0,0,1,7.3.469.472.472,0,0,1,7.578.137a5.179,5.179,0,0,0,2.51-1.895,7.331,7.331,0,0,0,1.025-2.988Q11.133-4.9,11-4.9h-.312a1.124,1.124,0,0,1-.811-.332,1.1,1.1,0,0,1-.342-.82V-14.8a1.1,1.1,0,0,1,.342-.82,1.124,1.124,0,0,1,.811-.332h6.23a1.124,1.124,0,0,1,.811.332,1.1,1.1,0,0,1,.342.82v8.75a1.1,1.1,0,0,1-.342.82,1.124,1.124,0,0,1-.811.332H15.82q-.137,0-.137.156V-.664a.7.7,0,0,0,.088.439A.608.608,0,0,0,16.172-.137Z" transform="translate(729 800)" fill="#fff"/>
    <path id="路径_6901" data-name="路径 6901" d="M-5.918-11.8v-.02a.149.149,0,0,1-.107-.088.126.126,0,0,1,.01-.127,13.661,13.661,0,0,0,.781-1.7.088.088,0,0,0-.01-.088.1.1,0,0,0-.088-.049H-9.961q-.039,0-.059.049a.1.1,0,0,0,0,.088,6.7,6.7,0,0,1,.664,1.5.252.252,0,0,1-.02.254.376.376,0,0,1-.2.156q-.02,0-.02.01t.02.01ZM-6.152-4.16Q-6-4.16-6-4.3V-5.742q0-.137-.156-.137H-9q-.156,0-.156.137V-4.3q0,.137.156.137Zm-4.98-8.965a.477.477,0,0,1-.02-.439.47.47,0,0,1,.332-.283v-.02h-2.5a.584.584,0,0,1-.43-.176.573.573,0,0,1-.176-.42.573.573,0,0,1,.176-.42.584.584,0,0,1,.43-.176h4.766a.138.138,0,0,0,.156-.156v-.8a.694.694,0,0,1,.215-.508.705.705,0,0,1,.518-.215.705.705,0,0,1,.518.215.694.694,0,0,1,.215.508v.8q0,.156.137.156h5.059a.584.584,0,0,1,.43.176.573.573,0,0,1,.176.42.573.573,0,0,1-.176.42.584.584,0,0,1-.43.176H-4.16v.02a.381.381,0,0,1,.244.225.373.373,0,0,1-.01.322q-.449.84-.762,1.367a.126.126,0,0,0,0,.1.079.079,0,0,0,.078.039h1.621a1.124,1.124,0,0,1,.811.332,1.1,1.1,0,0,1,.342.82v7.637a2.051,2.051,0,0,1-.146.869A1.039,1.039,0,0,1-2.5-1.66a6.074,6.074,0,0,1-1.836.215.828.828,0,0,1-.527-.186A1.009,1.009,0,0,1-5.2-2.09a.453.453,0,0,1,.049-.42A.394.394,0,0,1-4.8-2.7h1.27A.3.3,0,0,0-3.3-2.764a.383.383,0,0,0,.059-.244v-7.461q0-.156-.137-.156H-6.895q-.137,0-.137.156v1.035q0,.156.137.156h2.344a.491.491,0,0,1,.361.146.491.491,0,0,1,.146.361.491.491,0,0,1-.146.361.491.491,0,0,1-.361.146H-6.895q-.137,0-.137.156v1.133q0,.156.137.156h.84a1.114,1.114,0,0,1,.82.332,1.114,1.114,0,0,1,.332.82v1.289a1.114,1.114,0,0,1-.332.82,1.114,1.114,0,0,1-.82.332H-9.082q-.078,0-.078.1v.117a.53.53,0,0,1-.156.391.518.518,0,0,1-.381.156.518.518,0,0,1-.381-.156.53.53,0,0,1-.156-.391V-5.664a1.114,1.114,0,0,1,.332-.82,1.114,1.114,0,0,1,.82-.332h.762q.137,0,.137-.156V-8.105q0-.156-.137-.156h-2.324a.491.491,0,0,1-.361-.146.491.491,0,0,1-.146-.361.491.491,0,0,1,.146-.361.491.491,0,0,1,.361-.146H-8.32q.137,0,.137-.156v-1.035q0-.156-.137-.156H-11.7q-.137,0-.137.156v8.359a.646.646,0,0,1-.205.488.672.672,0,0,1-.479.2.672.672,0,0,1-.479-.2.646.646,0,0,1-.205-.488v-8.535a1.1,1.1,0,0,1,.342-.82,1.124,1.124,0,0,1,.811-.332h1.309a.1.1,0,0,0,.088-.049.088.088,0,0,0,.01-.088A9.248,9.248,0,0,0-11.133-13.125Zm-3.77-.469a.713.713,0,0,1,.146.566.77.77,0,0,1-.3.508.721.721,0,0,1-.547.127.787.787,0,0,1-.488-.283,14.709,14.709,0,0,0-2.187-2.266.549.549,0,0,1-.186-.449.527.527,0,0,1,.225-.43A.886.886,0,0,1-17.7-16h.02a.828.828,0,0,1,.547.2A15.538,15.538,0,0,1-14.9-13.594Zm-1.309,4.688a1.108,1.108,0,0,1,.811.342,1.108,1.108,0,0,1,.342.811v5.137a.449.449,0,0,0,.078.254Q-13.613-.371-10.02-.234q1.484.059,3.145.059,2.441,0,5.293-.137a.439.439,0,0,1,.41.2.5.5,0,0,1,.1.293.48.48,0,0,1-.039.176A1.243,1.243,0,0,1-1.484.9a.973.973,0,0,1-.586.234q-2.422.078-4.473.078-1.895,0-3.457-.078A9.6,9.6,0,0,1-13.291.527a5.7,5.7,0,0,1-2.275-1.641.122.122,0,0,0-.2,0q-.937.9-2.07,1.914a.591.591,0,0,1-.537.156.65.65,0,0,1-.459-.332A.89.89,0,0,1-18.945.2a1.315,1.315,0,0,1,.02-.215.957.957,0,0,1,.352-.547q1.055-.84,2.012-1.719a.32.32,0,0,0,.1-.234V-7.344q0-.156-.137-.156h-1.7a.678.678,0,0,1-.5-.205A.678.678,0,0,1-19-8.2a.678.678,0,0,1,.205-.5.678.678,0,0,1,.5-.205ZM10.723-6.562a.121.121,0,0,0,.137.137h5.449q.156,0,.156-.137v-5.02q0-.137-.156-.137H10.859a.121.121,0,0,0-.137.137Zm-7.266,0q0,.137.156.137h5.43a.121.121,0,0,0,.137-.137v-5.02a.121.121,0,0,0-.137-.137H3.613q-.156,0-.156.137Zm7.266-6.758a.121.121,0,0,0,.137.137h5.977a1.108,1.108,0,0,1,.811.342,1.108,1.108,0,0,1,.342.811V-4.57a.7.7,0,0,1-.225.527.75.75,0,0,1-.537.215.75.75,0,0,1-.537-.215.7.7,0,0,1-.225-.527v-.254a.121.121,0,0,0-.137-.137H10.859q-.137,0-.137.156V.742A.756.756,0,0,1,10.5,1.3.778.778,0,0,1,9.4,1.3.756.756,0,0,1,9.18.742V-4.8q0-.156-.137-.156H3.594a.121.121,0,0,0-.137.137v.371a.717.717,0,0,1-.215.527.705.705,0,0,1-.518.215.705.705,0,0,1-.518-.215.717.717,0,0,1-.215-.527v-7.578a1.108,1.108,0,0,1,.342-.811,1.108,1.108,0,0,1,.811-.342h5.9a.121.121,0,0,0,.137-.137v-2.656a.733.733,0,0,1,.225-.537.744.744,0,0,1,.547-.225.744.744,0,0,1,.547.225.733.733,0,0,1,.225.537Z" transform="translate(849 800)" fill="#fff"/>
    <path id="路径_6902" data-name="路径 6902" d="M-12.969-14.922a1.059,1.059,0,0,1,.41-.664,1,1,0,0,1,.547-.176.573.573,0,0,1,.215.039.9.9,0,0,1,.625.43.923.923,0,0,1,.137.469.837.837,0,0,1-.059.293q-.586,1.895-1.016,2.988a.776.776,0,0,1-.41.449.867.867,0,0,1-.391.1.928.928,0,0,1-.254-.039.68.68,0,0,1-.459-.361.758.758,0,0,1-.049-.6Q-13.281-13.32-12.969-14.922Zm-3.477,2.773v.156a.942.942,0,0,1-.176.547.978.978,0,0,1-.605.43.573.573,0,0,1-.215.039.728.728,0,0,1-.43-.156A.738.738,0,0,1-18.2-11.7a20.325,20.325,0,0,0-.586-2.891.737.737,0,0,1-.039-.234.754.754,0,0,1,.117-.391.711.711,0,0,1,.508-.391.737.737,0,0,1,.234-.039.82.82,0,0,1,.43.117.827.827,0,0,1,.43.527A20.638,20.638,0,0,1-16.445-12.148Zm4.609,6.6a1.3,1.3,0,0,1,.332.9,1.428,1.428,0,0,1-.293.879l-.039.059a.7.7,0,0,1-.566.293.173.173,0,0,1-.078-.02.687.687,0,0,1-.605-.371q-.371-.625-.781-1.25a.044.044,0,0,0-.049-.01q-.029.01-.029.029V.605a1.053,1.053,0,0,1-.322.771,1.053,1.053,0,0,1-.771.322,1.053,1.053,0,0,1-.771-.322,1.053,1.053,0,0,1-.322-.771V-4.727q0-.02-.029-.029t-.029.01a21.956,21.956,0,0,1-1.445,3.3.492.492,0,0,1-.449.273h-.078a.563.563,0,0,1-.488-.371q-.078-.176-.176-.352a2.062,2.062,0,0,1-.2-.859,2.1,2.1,0,0,1,.352-1.113,20.052,20.052,0,0,0,1.934-4.1.088.088,0,0,0-.01-.088.1.1,0,0,0-.088-.049H-17.91a1.075,1.075,0,0,1-.791-.322,1.064,1.064,0,0,1-.322-.781A1.064,1.064,0,0,1-18.7-9.99a1.075,1.075,0,0,1,.791-.322h1.621a.138.138,0,0,0,.156-.156V-15.82a1.053,1.053,0,0,1,.322-.771,1.053,1.053,0,0,1,.771-.322,1.053,1.053,0,0,1,.771.322,1.053,1.053,0,0,1,.322.771v5.352a.138.138,0,0,0,.156.156h1.445a1.085,1.085,0,0,1,.781.322,1.048,1.048,0,0,1,.332.781,1.048,1.048,0,0,1-.332.781,1.085,1.085,0,0,1-.781.322h-1.445a.138.138,0,0,0-.156.156v.02a.315.315,0,0,0,.117.254Q-13.047-6.914-11.836-5.547Zm3.965,1.66a.138.138,0,0,0-.156.156V-1a.138.138,0,0,0,.156.156h3.184A.138.138,0,0,0-4.531-1V-3.73a.138.138,0,0,0-.156-.156Zm3.34-9.922a.138.138,0,0,0-.156-.156H-7.871a.138.138,0,0,0-.156.156v2.6a.138.138,0,0,0,.156.156h3.184a.138.138,0,0,0,.156-.156ZM-4.687-6a.138.138,0,0,0,.156-.156V-8.789a.138.138,0,0,0-.156-.156H-7.871a.138.138,0,0,0-.156.156v2.637A.138.138,0,0,0-7.871-6Zm2.539,5a.138.138,0,0,0,.156.156h.234a1.053,1.053,0,0,1,.771.322A1.064,1.064,0,0,1-.664.264a1.064,1.064,0,0,1-.322.781,1.053,1.053,0,0,1-.771.322h-9.277a1.075,1.075,0,0,1-.791-.322,1.064,1.064,0,0,1-.322-.781,1.064,1.064,0,0,1,.322-.781,1.075,1.075,0,0,1,.791-.322h.586A.138.138,0,0,0-10.293-1V-15a1.114,1.114,0,0,1,.332-.82,1.114,1.114,0,0,1,.82-.332H-3.3a1.114,1.114,0,0,1,.82.332,1.114,1.114,0,0,1,.332.82ZM16.8-12.891q.137,0,.137-.156v-.566q0-.156-.137-.156h-.586a.138.138,0,0,0-.156.156v.566a.138.138,0,0,0,.156.156Zm0,2.3a.121.121,0,0,0,.137-.137v-.586q0-.156-.137-.156h-.586a.138.138,0,0,0-.156.156v.586q0,.137.156.137Zm-4.863-.879a.138.138,0,0,0-.156.156v.586q0,.137.156.137H12.5a.121.121,0,0,0,.137-.137v-.586q0-.156-.137-.156Zm0-2.3a.138.138,0,0,0-.156.156v.566a.138.138,0,0,0,.156.156H12.5q.137,0,.137-.156v-.566q0-.156-.137-.156Zm2.852,2.461a.138.138,0,0,0-.156-.156h-.566q-.137,0-.137.156v.586a.121.121,0,0,0,.137.137h.566q.156,0,.156-.137Zm-.859-1.738q0,.156.137.156h.566a.138.138,0,0,0,.156-.156v-.566a.138.138,0,0,0-.156-.156h-.566q-.137,0-.137.156Zm3.711-2.207a1.124,1.124,0,0,1,.811.332,1.1,1.1,0,0,1,.342.82v3.887a1.1,1.1,0,0,1-.342.82,1.124,1.124,0,0,1-.811.332H11.191a1.124,1.124,0,0,1-.811-.332,1.1,1.1,0,0,1-.342-.82V-14.1a1.1,1.1,0,0,1,.342-.82,1.124,1.124,0,0,1,.811-.332h.918a.138.138,0,0,0,.156-.156v-.684a.788.788,0,0,1,.244-.576.8.8,0,0,1,.586-.244.8.8,0,0,1,.586.244.788.788,0,0,1,.244.576v.684q0,.156.137.156h.566a.138.138,0,0,0,.156-.156v-.664a.811.811,0,0,1,.244-.6.811.811,0,0,1,.6-.244.811.811,0,0,1,.6.244.811.811,0,0,1,.244.6v.664q0,.156.137.156ZM7.715-8.223a.121.121,0,0,0,.137-.137v-.508q0-.156-.137-.156H2.871a.138.138,0,0,0-.156.156v.508q0,.137.156.137ZM4.2-3.4q0,.137.156.137H6.191q.156,0,.156-.137v-.645q0-.137-.156-.137H4.355q-.156,0-.156.137ZM6.191-5.742q.156,0,.156-.137v-.586a.138.138,0,0,0-.156-.156H4.355a.138.138,0,0,0-.156.156v.586q0,.137.156.137ZM4-14.648q-.137,0-.137.156v3.711A.121.121,0,0,0,4-10.645h.41a.121.121,0,0,0,.137-.137v-1.895a1.108,1.108,0,0,1,.342-.811,1.108,1.108,0,0,1,.811-.342h.8q.156,0,.156-.137v-.527a.138.138,0,0,0-.156-.156ZM5.82-10.781a.121.121,0,0,0,.137.137H6.5q.156,0,.156-.137v-1.543A.138.138,0,0,0,6.5-12.48H5.957q-.137,0-.137.156Zm3.809,3.34q0-.078-.1-.078H8.516q-.156,0-.156.137V-.254A3.272,3.272,0,0,1,8.223.811a1.091,1.091,0,0,1-.527.6A2.778,2.778,0,0,1,6.5,1.719H6.426a1.008,1.008,0,0,1-.645-.234A1.288,1.288,0,0,1,5.352.82.65.65,0,0,1,5.439.234a.591.591,0,0,1,.518-.273h.156q.234-.02.234-.234V-1.5a.138.138,0,0,0-.156-.156H4.355A.138.138,0,0,0,4.2-1.5V.742a.959.959,0,0,1-.293.7.99.99,0,0,1-1.406,0,.959.959,0,0,1-.293-.7V-7.383A.121.121,0,0,0,2.07-7.52a1.03,1.03,0,0,1-.742-.3,1,1,0,0,1-.312-.752V-9.629a.975.975,0,0,1,.3-.713.975.975,0,0,1,.713-.3q.137,0,.137-.117v-4.414a1.124,1.124,0,0,1,.332-.811,1.1,1.1,0,0,1,.82-.342H7.285a1.1,1.1,0,0,1,.82.342,1.124,1.124,0,0,1,.332.811v4.395a.121.121,0,0,0,.137.137,1.037,1.037,0,0,1,.762.313,1.037,1.037,0,0,1,.313.762v1.035q0,.156.137.156h8.594a.75.75,0,0,1,.547.234.76.76,0,0,1,.234.557.76.76,0,0,1-.234.557.75.75,0,0,1-.547.234H10.254a.6.6,0,0,1-.439-.186A.623.623,0,0,1,9.629-7.441Zm6.133,5.332a.108.108,0,0,0-.02-.107.12.12,0,0,0-.1-.049H12.891a.076.076,0,0,0-.078.049.1.1,0,0,0,0,.088,7.6,7.6,0,0,1,.8,1.816.169.169,0,0,0,.176.137h1.055a.214.214,0,0,0,.215-.137Q15.527-1.387,15.762-2.109ZM12.383-4.766q-.137,0-.137.156v.8q0,.156.137.156h3.965a.138.138,0,0,0,.156-.156v-.8a.138.138,0,0,0-.156-.156ZM16.855-.312a.126.126,0,0,0,0,.1.079.079,0,0,0,.078.039h1.6a.811.811,0,0,1,.6.244.811.811,0,0,1,.244.6.811.811,0,0,1-.244.6.811.811,0,0,1-.6.244h-8.5a.811.811,0,0,1-.6-.244A.811.811,0,0,1,9.2.664a.811.811,0,0,1,.244-.6.811.811,0,0,1,.6-.244h1.582A.106.106,0,0,0,11.7-.225a.08.08,0,0,0,.02-.088q-.1-.254-.2-.488a1.25,1.25,0,0,1-.078-.43,1.2,1.2,0,0,1,.078-.41.938.938,0,0,1,.586-.566v-.029q0-.029-.02-.029h-.625a1.124,1.124,0,0,1-.811-.332,1.1,1.1,0,0,1-.342-.82V-5a1.1,1.1,0,0,1,.342-.82,1.124,1.124,0,0,1,.811-.332h5.879a1.114,1.114,0,0,1,.82.332A1.114,1.114,0,0,1,18.5-5v1.582a1.114,1.114,0,0,1-.332.82,1.114,1.114,0,0,1-.82.332h-.586a.017.017,0,0,0-.02.02.017.017,0,0,0,.02.02.821.821,0,0,1,.566.469.938.938,0,0,1,.059.332.867.867,0,0,1-.1.391Q17.07-.664,16.855-.312Z" transform="translate(968 800)" fill="#fff"/>
    <path id="路径_6903" data-name="路径 6903" d="M-25.391-7.3q.156,0,.156-.137v-1.5a.138.138,0,0,0-.156-.156h-5.8A1.124,1.124,0,0,1-32-9.434a1.1,1.1,0,0,1-.342-.82v-.527a.121.121,0,0,0-.137-.137h-1.035a.121.121,0,0,0-.137.137v2.773a.1.1,0,0,0,.039.088.158.158,0,0,0,.1.029l.762-.234a1.547,1.547,0,0,1,.254-.02.824.824,0,0,1,.449.137.794.794,0,0,1,.371.586.125.125,0,0,0,.137.117Zm4.355-3.672a1.017,1.017,0,0,1,.332.771,1.064,1.064,0,0,1-.322.781A1.053,1.053,0,0,1-21.8-9.1h-.957q-.137,0-.137.156v1.5a.121.121,0,0,0,.137.137h.781a1.053,1.053,0,0,1,.771.322,1.064,1.064,0,0,1,.322.781,1.064,1.064,0,0,1-.322.781,1.053,1.053,0,0,1-.771.322h-.781a.121.121,0,0,0-.137.137V-.918A3.759,3.759,0,0,1-23.105.518a1.6,1.6,0,0,1-.8.791,6.419,6.419,0,0,1-2.285.371h-.039a1.243,1.243,0,0,1-.82-.293,1.643,1.643,0,0,1-.547-.8q-.02-.1-.039-.176a.928.928,0,0,1-.039-.254.856.856,0,0,1,.137-.469.742.742,0,0,1,.625-.312h1.25A.79.79,0,0,0-25.322-.7q.088-.059.088-.254v-4q0-.137-.156-.137h-3.887a.046.046,0,0,0-.049.039.058.058,0,0,0,.01.059,19.984,19.984,0,0,1,1.68,1.934,1.078,1.078,0,0,1,.2.605,1.423,1.423,0,0,1-.02.234,1.138,1.138,0,0,1-.508.723,1.127,1.127,0,0,1-.566.156.928.928,0,0,1-.254-.039,1.085,1.085,0,0,1-.7-.488q-.41-.605-.957-1.289a.933.933,0,0,1-.234-.625.905.905,0,0,1,.02-.176.9.9,0,0,1,.449-.684l.605-.371q.039-.02.029-.049a.045.045,0,0,0-.049-.029h-1.328a.9.9,0,0,1-.664-.273.9.9,0,0,1-.273-.664.084.084,0,0,0-.039-.068.13.13,0,0,0-.078-.029q-.254.1-.762.254t-.742.234a.181.181,0,0,0-.137.2V.645a1.053,1.053,0,0,1-.322.771,1.053,1.053,0,0,1-.771.322,1.053,1.053,0,0,1-.771-.322A1.053,1.053,0,0,1-35.84.645v-5.43a.132.132,0,0,0-.039-.1.088.088,0,0,0-.1-.02l-1.758.527a1.284,1.284,0,0,1-.312.039,1.025,1.025,0,0,1-.547-.156,1.072,1.072,0,0,1-.527-.684v-.039a1.211,1.211,0,0,1-.039-.293,1.131,1.131,0,0,1,.176-.586,1.161,1.161,0,0,1,.7-.508q.957-.234,2.3-.605a.169.169,0,0,0,.137-.176v-3.4q0-.137-.156-.137h-1.035a.153.153,0,0,0-.176.137q-.176.762-.391,1.465a.612.612,0,0,1-.469.449.737.737,0,0,1-.234.039.82.82,0,0,1-.43-.117,1.284,1.284,0,0,1-.527-.645,1.419,1.419,0,0,1-.078-.449,1.166,1.166,0,0,1,.059-.371,27.126,27.126,0,0,0,.742-4.492.8.8,0,0,1,.352-.645.831.831,0,0,1,.547-.215.905.905,0,0,1,.176.02,1.059,1.059,0,0,1,.664.41.957.957,0,0,1,.215.605v.137q-.078.645-.176,1.27-.02.137.117.137H-36q.156,0,.156-.137v-2.5a1.043,1.043,0,0,1,.322-.781,1.069,1.069,0,0,1,.771-.312,1.069,1.069,0,0,1,.771.313,1.043,1.043,0,0,1,.322.781v2.5a.121.121,0,0,0,.137.137h.371a1.108,1.108,0,0,1,.811.342,1.108,1.108,0,0,1,.342.811v.586a.121.121,0,0,0,.137.137h4.1q.156,0,.156-.137v-1.406a.138.138,0,0,0-.156-.156h-2.3a1.037,1.037,0,0,1-.762-.312,1.037,1.037,0,0,1-.312-.762,1.037,1.037,0,0,1,.313-.762,1.037,1.037,0,0,1,.762-.312h2.3a.138.138,0,0,0,.156-.156v-.469a1.114,1.114,0,0,1,.332-.82,1.114,1.114,0,0,1,.82-.332h.059a1.124,1.124,0,0,1,.811.332,1.1,1.1,0,0,1,.342.82v.469q0,.156.137.156h2.461a1.037,1.037,0,0,1,.762.313,1.037,1.037,0,0,1,.313.762,1.037,1.037,0,0,1-.312.762,1.037,1.037,0,0,1-.762.313H-25.1q-.137,0-.137.156v1.406a.121.121,0,0,0,.137.137h3.3A1.006,1.006,0,0,1-21.035-10.977Zm8.066-3.945a1.059,1.059,0,0,1,.41-.664,1,1,0,0,1,.547-.176.573.573,0,0,1,.215.039.9.9,0,0,1,.625.43.923.923,0,0,1,.137.469.837.837,0,0,1-.059.293q-.586,1.895-1.016,2.988a.776.776,0,0,1-.41.449.867.867,0,0,1-.391.1.928.928,0,0,1-.254-.039.68.68,0,0,1-.459-.361.758.758,0,0,1-.049-.6Q-13.281-13.32-12.969-14.922Zm-3.477,2.773v.156a.942.942,0,0,1-.176.547.978.978,0,0,1-.605.43.573.573,0,0,1-.215.039.728.728,0,0,1-.43-.156A.738.738,0,0,1-18.2-11.7a20.325,20.325,0,0,0-.586-2.891.737.737,0,0,1-.039-.234.754.754,0,0,1,.117-.391.711.711,0,0,1,.508-.391.737.737,0,0,1,.234-.039.82.82,0,0,1,.43.117.827.827,0,0,1,.43.527A20.638,20.638,0,0,1-16.445-12.148Zm4.609,6.6a1.3,1.3,0,0,1,.332.9,1.428,1.428,0,0,1-.293.879l-.039.059a.7.7,0,0,1-.566.293.173.173,0,0,1-.078-.02.687.687,0,0,1-.605-.371q-.371-.625-.781-1.25a.044.044,0,0,0-.049-.01q-.029.01-.029.029V.605a1.053,1.053,0,0,1-.322.771,1.053,1.053,0,0,1-.771.322,1.053,1.053,0,0,1-.771-.322,1.053,1.053,0,0,1-.322-.771V-4.727q0-.02-.029-.029t-.029.01a21.956,21.956,0,0,1-1.445,3.3.492.492,0,0,1-.449.273h-.078a.563.563,0,0,1-.488-.371q-.078-.176-.176-.352a2.062,2.062,0,0,1-.2-.859,2.1,2.1,0,0,1,.352-1.113,20.052,20.052,0,0,0,1.934-4.1.088.088,0,0,0-.01-.088.1.1,0,0,0-.088-.049H-17.91a1.075,1.075,0,0,1-.791-.322,1.064,1.064,0,0,1-.322-.781A1.064,1.064,0,0,1-18.7-9.99a1.075,1.075,0,0,1,.791-.322h1.621a.138.138,0,0,0,.156-.156V-15.82a1.053,1.053,0,0,1,.322-.771,1.053,1.053,0,0,1,.771-.322,1.053,1.053,0,0,1,.771.322,1.053,1.053,0,0,1,.322.771v5.352a.138.138,0,0,0,.156.156h1.445a1.085,1.085,0,0,1,.781.322,1.048,1.048,0,0,1,.332.781,1.048,1.048,0,0,1-.332.781,1.085,1.085,0,0,1-.781.322h-1.445a.138.138,0,0,0-.156.156v.02a.315.315,0,0,0,.117.254Q-13.047-6.914-11.836-5.547Zm3.965,1.66a.138.138,0,0,0-.156.156V-1a.138.138,0,0,0,.156.156h3.184A.138.138,0,0,0-4.531-1V-3.73a.138.138,0,0,0-.156-.156Zm3.34-9.922a.138.138,0,0,0-.156-.156H-7.871a.138.138,0,0,0-.156.156v2.6a.138.138,0,0,0,.156.156h3.184a.138.138,0,0,0,.156-.156ZM-4.687-6a.138.138,0,0,0,.156-.156V-8.789a.138.138,0,0,0-.156-.156H-7.871a.138.138,0,0,0-.156.156v2.637A.138.138,0,0,0-7.871-6Zm2.539,5a.138.138,0,0,0,.156.156h.234a1.053,1.053,0,0,1,.771.322A1.064,1.064,0,0,1-.664.264a1.064,1.064,0,0,1-.322.781,1.053,1.053,0,0,1-.771.322h-9.277a1.075,1.075,0,0,1-.791-.322,1.064,1.064,0,0,1-.322-.781,1.064,1.064,0,0,1,.322-.781,1.075,1.075,0,0,1,.791-.322h.586A.138.138,0,0,0-10.293-1V-15a1.114,1.114,0,0,1,.332-.82,1.114,1.114,0,0,1,.82-.332H-3.3a1.114,1.114,0,0,1,.82.332,1.114,1.114,0,0,1,.332.82Z" transform="translate(1109 800)" fill="#fff"/>
    <g id="组_4853" data-name="组 4853" transform="translate(0 905)">
      <rect id="矩形_3599" data-name="矩形 3599" width="1148" height="56" fill="#48d7dd"/>
      <path id="路径_7094" data-name="路径 7094" d="M-83.461-1.383a1.493,1.493,0,0,1-.457.984,1.377,1.377,0,0,1-1,.4h-.82a1.234,1.234,0,0,1-.937-.4,1.23,1.23,0,0,1-.352-.867,23.052,23.052,0,0,1,1.313-7.242,23.717,23.717,0,0,1,3.234-6.164.1.1,0,0,0,0-.094.075.075,0,0,0-.07-.047h-6.445a1.349,1.349,0,0,1-.973-.4,1.318,1.318,0,0,1-.41-.984v-.187a1.329,1.329,0,0,1,.41-.973,1.329,1.329,0,0,1,.973-.41h9.352a1.038,1.038,0,0,1,.762.316,1.038,1.038,0,0,1,.316.762,3.077,3.077,0,0,1-.656,1.9,22.466,22.466,0,0,0-2,3.07A15.368,15.368,0,0,0-82.465-8.59a23.813,23.813,0,0,0-.668,3.27Q-83.344-3.7-83.461-1.383ZM-59.25-7.055a.145.145,0,0,0,.164.164H-57.3q.188,0,.188-.164v-.891q0-.164-.187-.164h-1.781a.145.145,0,0,0-.164.164Zm.164-3.914q-.164,0-.164.188v.82a.145.145,0,0,0,.164.164H-57.3q.188,0,.188-.164v-.82a.166.166,0,0,0-.187-.187Zm6.914.188a.166.166,0,0,0-.187-.187h-1.852q-.164,0-.164.188v.82a.145.145,0,0,0,.164.164h1.852q.188,0,.188-.164Zm-.187,3.891q.188,0,.188-.164v-.891q0-.164-.187-.164h-1.852a.145.145,0,0,0-.164.164v.891a.145.145,0,0,0,.164.164ZM-54.375-.75a.145.145,0,0,0,.164.164h4.359a1.066,1.066,0,0,1,.8.34,1.11,1.11,0,0,1,.328.8,1.11,1.11,0,0,1-.328.8,1.066,1.066,0,0,1-.8.34H-62.109a1.066,1.066,0,0,1-.8-.34,1.11,1.11,0,0,1-.328-.8,1.11,1.11,0,0,1,.328-.8,1.066,1.066,0,0,1,.8-.34h4.8q.188,0,.188-.164v-.727a.166.166,0,0,0-.187-.187H-60.82a1.038,1.038,0,0,1-.762-.316,1.038,1.038,0,0,1-.316-.762,1.038,1.038,0,0,1,.316-.762,1.038,1.038,0,0,1,.762-.316H-57.3q.188,0,.188-.164v-.75a.166.166,0,0,0-.187-.187h-3.047a1.349,1.349,0,0,1-.973-.4,1.318,1.318,0,0,1-.41-.984v-.562q0-.023-.035-.035a.053.053,0,0,0-.059.012l-.656.914a.866.866,0,0,1-.7.352.18.18,0,0,1-.07-.023.863.863,0,0,1-.727-.445q-.3-.492-.68-1.055a.053.053,0,0,0-.059-.012q-.035.012-.035.035V.68a1.337,1.337,0,0,1-.4.984,1.323,1.323,0,0,1-.973.4,1.362,1.362,0,0,1-.984-.4,1.318,1.318,0,0,1-.41-.984V-6.375a.038.038,0,0,0-.023-.035q-.023-.012-.023.012A23.809,23.809,0,0,1-69.352-2.93a.608.608,0,0,1-.562.328.386.386,0,0,1-.117-.023.783.783,0,0,1-.633-.445,1.64,1.64,0,0,0-.117-.234,2.222,2.222,0,0,1-.234-1.008v-.164a2.173,2.173,0,0,1,.4-1.125,24.677,24.677,0,0,0,2.648-5.18.121.121,0,0,0-.012-.117.1.1,0,0,0-.082-.047h-1.547a1.291,1.291,0,0,1-.949-.387,1.277,1.277,0,0,1-.387-.937,1.316,1.316,0,0,1,.387-.949,1.271,1.271,0,0,1,.949-.4h1.922a.145.145,0,0,0,.164-.164v-2.437q0-.164-.164-.141-.867.164-1.594.281a1.086,1.086,0,0,1-.211.023,1.277,1.277,0,0,1-.7-.211,1.643,1.643,0,0,1-.586-.75,1.453,1.453,0,0,1-.047-.352,1.04,1.04,0,0,1,.117-.469.8.8,0,0,1,.633-.469,37.336,37.336,0,0,0,4.992-1.289,2.212,2.212,0,0,1,.7-.117,1.871,1.871,0,0,1,.492.07,1.885,1.885,0,0,1,1.008.586l.07.117a.808.808,0,0,1,.258.586.688.688,0,0,1-.047.258.867.867,0,0,1-.609.656q-.68.211-1.383.4a.217.217,0,0,0-.164.234v3.023q0,.164.188.164h1.055a1.271,1.271,0,0,1,.949.4,1.316,1.316,0,0,1,.387.949,1.277,1.277,0,0,1-.387.938,1.291,1.291,0,0,1-.949.387H-64.57a.166.166,0,0,0-.187.188v.328a.378.378,0,0,0,.141.3q.469.422,1.383,1.359t1.383,1.477q.047.047.082.023a.079.079,0,0,0,.035-.07v-4.242a1.329,1.329,0,0,1,.41-.973,1.329,1.329,0,0,1,.973-.41H-57.3q.188,0,.188-.164v-.633a.166.166,0,0,0-.187-.187h-4.1a1.085,1.085,0,0,1-.8-.328,1.071,1.071,0,0,1-.328-.785,1.033,1.033,0,0,1,.328-.773,1.106,1.106,0,0,1,.8-.316h4.1a.166.166,0,0,0,.188-.187v-.656q0-.164-.187-.164-1.617.07-3.234.117h-.023a1.338,1.338,0,0,1-.82-.281,1.768,1.768,0,0,1-.516-.8,1.317,1.317,0,0,1-.023-.258.9.9,0,0,1,.141-.469.737.737,0,0,1,.609-.352,84.55,84.55,0,0,0,8.93-.727,3.021,3.021,0,0,1,.375-.023,2.135,2.135,0,0,1,.82.164,2.3,2.3,0,0,1,.961.7.845.845,0,0,1,.164.492.958.958,0,0,1-.047.3.75.75,0,0,1-.633.516q-1.641.234-3.609.4a.171.171,0,0,0-.164.188v.844q0,.188.164.188h3.891a1.078,1.078,0,0,1,.773.316,1.033,1.033,0,0,1,.328.773,1.071,1.071,0,0,1-.328.785,1.058,1.058,0,0,1-.773.328h-3.891q-.164,0-.164.188v.633a.145.145,0,0,0,.164.164H-51a1.318,1.318,0,0,1,.984.41,1.349,1.349,0,0,1,.4.973V-6.3a1.337,1.337,0,0,1-.4.984,1.337,1.337,0,0,1-.984.4h-3.211q-.164,0-.164.188v.75a.145.145,0,0,0,.164.164H-50.7a1.038,1.038,0,0,1,.762.316,1.038,1.038,0,0,1,.316.762,1.038,1.038,0,0,1-.316.762,1.038,1.038,0,0,1-.762.316h-3.516q-.164,0-.164.188Zm11.039-14.6q-.187,0-.187.164v1.969a1.337,1.337,0,0,1-.4.984,1.337,1.337,0,0,1-.984.4h-.023a1.337,1.337,0,0,1-.984-.4,1.337,1.337,0,0,1-.4-.984v-3.422a1.349,1.349,0,0,1,.4-.973,1.318,1.318,0,0,1,.984-.41h7.2q.164,0,.164-.187v-.727a1.318,1.318,0,0,1,.41-.984,1.349,1.349,0,0,1,.973-.4h.258a1.337,1.337,0,0,1,.984.4,1.337,1.337,0,0,1,.4.984v.727a.166.166,0,0,0,.188.188h7.266a1.318,1.318,0,0,1,.984.41,1.349,1.349,0,0,1,.4.973v3.422a1.337,1.337,0,0,1-.4.984,1.337,1.337,0,0,1-.984.4h-.187a1.349,1.349,0,0,1-.973-.4,1.318,1.318,0,0,1-.41-.984v-1.969a.145.145,0,0,0-.164-.164Zm16.477,7.828a1.271,1.271,0,0,1,.949.4,1.33,1.33,0,0,1,.387.961,1.33,1.33,0,0,1-.387.961,1.271,1.271,0,0,1-.949.4h-7.477a.166.166,0,0,0-.187.188V-1.2a4.037,4.037,0,0,1-.316,1.8,2.177,2.177,0,0,1-1.184.961,10.657,10.657,0,0,1-3.258.445h-.047a1.759,1.759,0,0,1-1.031-.328,2.222,2.222,0,0,1-.727-.961q-.094-.187-.187-.4a1,1,0,0,1-.07-.352.9.9,0,0,1,.117-.445.754.754,0,0,1,.68-.375h.023q1.078.023,1.711.023.445,0,.656-.023a.871.871,0,0,0,.48-.094.379.379,0,0,0,.129-.328V-4.617q0-.187-.164-.187H-45.07a1.271,1.271,0,0,1-.949-.4,1.33,1.33,0,0,1-.387-.961,1.33,1.33,0,0,1,.387-.961,1.271,1.271,0,0,1,.949-.4h7.359a.145.145,0,0,0,.164-.164v-.422a.88.88,0,0,1,.27-.645.907.907,0,0,1,.668-.27.343.343,0,0,0,.211-.07,14.591,14.591,0,0,0,1.945-1.617.046.046,0,0,0,.023-.07.075.075,0,0,0-.07-.047h-6.539a1.244,1.244,0,0,1-.914-.375,1.244,1.244,0,0,1-.375-.914,1.244,1.244,0,0,1,.375-.914,1.244,1.244,0,0,1,.914-.375h9.164a.442.442,0,0,0,.141-.023,1.114,1.114,0,0,1,.3-.047,1.306,1.306,0,0,1,.8.281l.422.328a1.045,1.045,0,0,1,.422.867.979.979,0,0,1-.281.68A21.612,21.612,0,0,1-34.43-7.758a.15.15,0,0,0-.094.141q0,.094.117.094Zm9.328.141a.166.166,0,0,0,.188.188h3.633q.164,0,.164-.187v-.727a.145.145,0,0,0-.164-.164h-3.633q-.187,0-.187.164Zm.188-3.68q-.187,0-.187.164v.75q0,.164.188.164h3.633a.145.145,0,0,0,.164-.164v-.75a.145.145,0,0,0-.164-.164Zm10.9.164q0-.164-.187-.164h-3.844q-.187,0-.187.164v.75q0,.164.188.164h3.844q.188,0,.188-.164Zm-.187,3.7a.166.166,0,0,0,.188-.187v-.727q0-.164-.187-.164h-3.844q-.187,0-.187.164v.727a.166.166,0,0,0,.188.188Zm-4.031,6.188q0,.164.188.164H-2.2a1.085,1.085,0,0,1,.8.328,1.085,1.085,0,0,1,.328.8,1.085,1.085,0,0,1-.328.8,1.085,1.085,0,0,1-.8.328H-21.727a1.085,1.085,0,0,1-.8-.328,1.085,1.085,0,0,1-.328-.8,1.085,1.085,0,0,1,.328-.8,1.085,1.085,0,0,1,.8-.328h8.016a.145.145,0,0,0,.164-.164v-.937a.145.145,0,0,0-.164-.164h-6.328a1.012,1.012,0,0,1-.738-.316,1.038,1.038,0,0,1-.316-.762,1,1,0,0,1,.316-.75,1.031,1.031,0,0,1,.738-.3h6.328q.164,0,.164-.187v-.727a.145.145,0,0,0-.164-.164h-5.2a1.318,1.318,0,0,1-.984-.41,1.349,1.349,0,0,1-.4-.973v-4.852a1.349,1.349,0,0,1,.4-.973,1.318,1.318,0,0,1,.984-.41h5.2a.145.145,0,0,0,.164-.164v-.562q0-.187-.164-.187h-7.875a1.085,1.085,0,0,1-.8-.328,1.071,1.071,0,0,1-.328-.785,1.071,1.071,0,0,1,.328-.785,1.085,1.085,0,0,1,.8-.328h7.875q.164,0,.164-.187v-.7a.145.145,0,0,0-.164-.164q-3,.117-5.508.164h-.023a1.273,1.273,0,0,1-.82-.3,1.613,1.613,0,0,1-.492-.773A.821.821,0,0,1-20.6-18.3a.845.845,0,0,1,.164-.492.725.725,0,0,1,.633-.352,131.455,131.455,0,0,0,13.758-.984,1.708,1.708,0,0,1,.281-.023,1.906,1.906,0,0,1,.82.188,1.823,1.823,0,0,1,.82.75.79.79,0,0,1,.141.445.79.79,0,0,1-.094.352.8.8,0,0,1-.656.492q-2.531.352-5.742.586-.187.023-.187.188v.891a.166.166,0,0,0,.188.188h8.109a1.085,1.085,0,0,1,.8.328,1.071,1.071,0,0,1,.328.785,1.071,1.071,0,0,1-.328.785,1.085,1.085,0,0,1-.8.328h-8.109a.166.166,0,0,0-.187.188v.563q0,.164.188.164h5.555a1.318,1.318,0,0,1,.984.41,1.349,1.349,0,0,1,.4.973V-6.7a1.349,1.349,0,0,1-.4.973,1.318,1.318,0,0,1-.984.41h-5.555q-.187,0-.187.164v.727a.166.166,0,0,0,.188.188H-3.7a1.019,1.019,0,0,1,.75.3,1.019,1.019,0,0,1,.3.75,1.059,1.059,0,0,1-.3.762,1,1,0,0,1-.75.316h-6.773q-.187,0-.187.164Z" transform="translate(1112 37)" fill="#fff"/>
    </g>
    <path id="路径_6904" data-name="路径 6904" d="M15.508.508A12.236,12.236,0,0,1,5.957-3.555Q2.3-7.617,2.3-14.648q0-6.992,3.77-11.113a12.514,12.514,0,0,1,9.668-4.121A11.185,11.185,0,0,1,23.086-27.3a1.454,1.454,0,0,1,.508,1.172,1.657,1.657,0,0,1-.391,1.094,1.4,1.4,0,0,1-1.035.508,1.53,1.53,0,0,1-1.113-.352,8.14,8.14,0,0,0-5.2-1.758,8.708,8.708,0,0,0-7.09,3.2q-2.637,3.2-2.637,8.672,0,5.625,2.539,8.828a8.686,8.686,0,0,0,7.227,3.2,7.82,7.82,0,0,0,5.078-1.523.526.526,0,0,0,.234-.469v-7.109q0-.273-.312-.273H16.523a1.466,1.466,0,0,1-1.074-.449A1.489,1.489,0,0,1,15-13.652a1.489,1.489,0,0,1,.449-1.094,1.466,1.466,0,0,1,1.074-.449H22.3a2.248,2.248,0,0,1,1.621.664,2.2,2.2,0,0,1,.684,1.641v7.7a4.09,4.09,0,0,1-1.8,3.75A13.37,13.37,0,0,1,15.508.508Zm24.453,0a9.9,9.9,0,0,1-7.422-3.066,11.427,11.427,0,0,1-2.969-8.3,13.354,13.354,0,0,1,.82-4.727,10.65,10.65,0,0,1,2.188-3.633,9.882,9.882,0,0,1,3.145-2.246,8.8,8.8,0,0,1,3.652-.8A7.868,7.868,0,0,1,45.7-19.609a11.12,11.12,0,0,1,2.3,7.344,2.124,2.124,0,0,1-.7,1.6A2.549,2.549,0,0,1,45.547-10H33.516q-.312,0-.273.273A8.17,8.17,0,0,0,35.43-4.375a6.7,6.7,0,0,0,5,1.992,8.967,8.967,0,0,0,4.258-1.055,1.428,1.428,0,0,1,1.016-.1,1.264,1.264,0,0,1,.82.605,1.467,1.467,0,0,1,.137,1.074,1.244,1.244,0,0,1-.645.84A12.814,12.814,0,0,1,39.961.508ZM33.2-12.812q0,.2.273.2H44.531a.242.242,0,0,0,.273-.273,7.371,7.371,0,0,0-1.465-4.8,4.875,4.875,0,0,0-3.926-1.68,5.579,5.579,0,0,0-4.062,1.758A6.563,6.563,0,0,0,33.2-12.812ZM56.445-.508A1.7,1.7,0,0,1,55.2,0a1.8,1.8,0,0,1-1.289-.527,1.745,1.745,0,0,1-.547-1.309v-18.4a1.4,1.4,0,0,1,.449-1.055,1.5,1.5,0,0,1,1.074-.43,1.568,1.568,0,0,1,1.094.43,1.671,1.671,0,0,1,.547,1.055l.156,1.563q0,.078.059.078a.133.133,0,0,0,.1-.039,16.27,16.27,0,0,1,3.516-2.7,7.7,7.7,0,0,1,3.75-.937q6.641,0,6.641,8.516V-1.836A1.745,1.745,0,0,1,70.2-.527,1.8,1.8,0,0,1,68.906,0a1.8,1.8,0,0,1-1.289-.527,1.745,1.745,0,0,1-.547-1.309V-13.281a7.742,7.742,0,0,0-.977-4.414,3.575,3.575,0,0,0-3.125-1.367,5.516,5.516,0,0,0-2.812.723,15.754,15.754,0,0,0-2.93,2.363.709.709,0,0,0-.234.508V-1.836A1.808,1.808,0,0,1,56.445-.508ZM92.539.508a8.625,8.625,0,0,1-7.187-3.281,1.506,1.506,0,0,1-.312-.9,1.284,1.284,0,0,1,.039-.312,1.687,1.687,0,0,1,.7-1.094,1.563,1.563,0,0,1,1.172-.234,1.779,1.779,0,0,1,1.055.625,5.179,5.179,0,0,0,4.141,1.953A4.268,4.268,0,0,0,95.723-4.2a7.725,7.725,0,0,0,1.152-4.746V-27.461a1.808,1.808,0,0,1,.547-1.328,1.786,1.786,0,0,1,1.309-.547,1.786,1.786,0,0,1,1.309.547,1.808,1.808,0,0,1,.547,1.328V-8.594a12.63,12.63,0,0,1-.469,3.555,9.082,9.082,0,0,1-1.406,2.871A6.173,6.173,0,0,1,96.191-.2,8.916,8.916,0,0,1,92.539.508Zm15.938,8.945q-.586,0-1.094-.039a1.189,1.189,0,0,1-.937-.645,1.587,1.587,0,0,1-.156-1.191,1.384,1.384,0,0,1,.664-.879,2.053,2.053,0,0,1,1.172-.254.347.347,0,0,0,.156.039q3.4,0,4.922-4.687L113.594.43a.667.667,0,0,0,0-.547l-7.93-19.727a1.856,1.856,0,0,1-.078-.508,1.26,1.26,0,0,1,.234-.7,1.171,1.171,0,0,1,1.055-.547,2.678,2.678,0,0,1,1.563.488,2.535,2.535,0,0,1,.977,1.27L113.2-9.531q1.523,4.453,2.07,5.977.039.117.137.117t.1-.117q.234-.7.859-2.812t.977-3.164l3.32-10.391a2.334,2.334,0,0,1,.879-1.211,2.428,2.428,0,0,1,1.465-.469,1.223,1.223,0,0,1,1.016.508,1.316,1.316,0,0,1,.234.742,1.369,1.369,0,0,1-.078.43L116.563,1.914a15.336,15.336,0,0,1-3.145,5.547A6.509,6.509,0,0,1,108.477,9.453Zm26.8-8.945q-6.6,0-6.6-8.477V-19.883a1.777,1.777,0,0,1,.527-1.309,1.753,1.753,0,0,1,1.289-.527,1.753,1.753,0,0,1,1.289.527,1.777,1.777,0,0,1,.527,1.309V-8.4A7.766,7.766,0,0,0,133.262-4a3.588,3.588,0,0,0,3.145,1.348,5.467,5.467,0,0,0,2.891-.781,11.191,11.191,0,0,0,2.773-2.656.778.778,0,0,0,.2-.508V-19.883a1.777,1.777,0,0,1,.527-1.309,1.753,1.753,0,0,1,1.289-.527,1.753,1.753,0,0,1,1.289.527,1.777,1.777,0,0,1,.527,1.309V-1.523a1.5,1.5,0,0,1-.43,1.074A1.448,1.448,0,0,1,144.375,0a1.568,1.568,0,0,1-1.094-.43,1.7,1.7,0,0,1-.547-1.094l-.117-1.836a.133.133,0,0,0-.1-.039.133.133,0,0,0-.1.039,13.1,13.1,0,0,1-3.34,2.891A7.5,7.5,0,0,1,135.273.508Zm24.258,0q-6.6,0-6.6-8.477V-19.883a1.777,1.777,0,0,1,.527-1.309,1.753,1.753,0,0,1,1.289-.527,1.753,1.753,0,0,1,1.289.527,1.777,1.777,0,0,1,.527,1.309V-8.4A7.766,7.766,0,0,0,157.52-4a3.588,3.588,0,0,0,3.145,1.348,5.467,5.467,0,0,0,2.891-.781,11.191,11.191,0,0,0,2.773-2.656.778.778,0,0,0,.2-.508V-19.883a1.777,1.777,0,0,1,.527-1.309,1.753,1.753,0,0,1,1.289-.527,1.753,1.753,0,0,1,1.289.527,1.777,1.777,0,0,1,.527,1.309V-1.523a1.5,1.5,0,0,1-.43,1.074A1.448,1.448,0,0,1,168.633,0a1.568,1.568,0,0,1-1.094-.43,1.7,1.7,0,0,1-.547-1.094l-.117-1.836a.133.133,0,0,0-.1-.039.133.133,0,0,0-.1.039,13.1,13.1,0,0,1-3.34,2.891A7.5,7.5,0,0,1,159.531.508Z" transform="translate(68 870)" fill="#fff"/>
    <path id="路径_6905" data-name="路径 6905" d="M-65.723-.215A.729.729,0,0,1-66.26,0a.777.777,0,0,1-.557-.225.74.74,0,0,1-.234-.557V-13.789a.827.827,0,0,1,.254-.605.827.827,0,0,1,.605-.254,1.381,1.381,0,0,1,1.27.742l5.117,8.75,1.563,2.949a.07.07,0,0,0,.068.039q.049,0,.049-.039-.215-3.164-.215-4.512v-7.129a.772.772,0,0,1,.234-.566.76.76,0,0,1,.557-.234.76.76,0,0,1,.557.234.772.772,0,0,1,.234.566V-.859a.827.827,0,0,1-.254.605A.827.827,0,0,1-57.617,0a1.4,1.4,0,0,1-1.289-.742l-5.078-8.73-1.582-2.969a.07.07,0,0,0-.068-.039q-.049,0-.049.059.2,3.555.2,4.395V-.781A.772.772,0,0,1-65.723-.215ZM-45.2-1.27A4.664,4.664,0,0,1-48.711.254a4.65,4.65,0,0,1-3.516-1.533,5.722,5.722,0,0,1-1.445-4.092,5.841,5.841,0,0,1,1.445-4.16A4.648,4.648,0,0,1-48.7-11.074a4.648,4.648,0,0,1,3.525,1.543,5.841,5.841,0,0,1,1.445,4.16A5.711,5.711,0,0,1-45.2-1.27Zm-5.879-1A2.879,2.879,0,0,0-48.7-1.094a2.863,2.863,0,0,0,2.373-1.191,4.914,4.914,0,0,0,.918-3.086,5.023,5.023,0,0,0-.918-3.135,2.855,2.855,0,0,0-2.373-1.2,2.855,2.855,0,0,0-2.373,1.2,5.023,5.023,0,0,0-.918,3.135A4.947,4.947,0,0,0-51.074-2.266Zm11.66,2.031A.772.772,0,0,1-39.98,0a.8.8,0,0,1-.576-.234A.756.756,0,0,1-40.8-.8v-9.336a.639.639,0,0,1,.2-.469.639.639,0,0,1,.469-.2.691.691,0,0,1,.479.186.758.758,0,0,1,.244.479l.1,1.289q0,.02.029.02a.066.066,0,0,0,.049-.02,5.008,5.008,0,0,1,1.357-1.631,2.758,2.758,0,0,1,1.689-.6q.254,0,.449.02a.587.587,0,0,1,.449.313.905.905,0,0,1,.1.41.994.994,0,0,1-.02.2.65.65,0,0,1-.312.43.81.81,0,0,1-.547.117,2.517,2.517,0,0,0-.312-.02,2.318,2.318,0,0,0-1.484.6,4.723,4.723,0,0,0-1.25,1.846.6.6,0,0,0-.059.273V-.8A.772.772,0,0,1-39.414-.234Zm7.578,0A.772.772,0,0,1-32.4,0a.8.8,0,0,1-.576-.234A.756.756,0,0,1-33.223-.8v-9.336a.639.639,0,0,1,.2-.469.639.639,0,0,1,.469-.2.726.726,0,0,1,.488.186.665.665,0,0,1,.234.479l.1.9q0,.039.029.039a.066.066,0,0,0,.049-.02,4.714,4.714,0,0,1,3.34-1.855,2.817,2.817,0,0,1,2.93,1.953q.059.137.156.039,1.895-1.992,3.5-1.992,3.281,0,3.281,4.219V-.82a.788.788,0,0,1-.244.576A.788.788,0,0,1-19.277,0a.788.788,0,0,1-.576-.244A.788.788,0,0,1-20.1-.82V-6.66a4.037,4.037,0,0,0-.508-2.285,1.8,1.8,0,0,0-1.582-.723,4.013,4.013,0,0,0-2.754,1.66.343.343,0,0,0-.1.254V-.8a.772.772,0,0,1-.234.566A.783.783,0,0,1-25.85,0a.783.783,0,0,1-.576-.234A.772.772,0,0,1-26.66-.8V-6.66a4.037,4.037,0,0,0-.508-2.285,1.821,1.821,0,0,0-1.6-.723A3.956,3.956,0,0,0-31.5-8.008a.343.343,0,0,0-.1.254V-.8A.772.772,0,0,1-31.836-.234ZM-12.4.254a3.242,3.242,0,0,1-2.256-.8,2.844,2.844,0,0,1-.889-2.227,2.979,2.979,0,0,1,1.563-2.686,12.9,12.9,0,0,1,5-1.338.139.139,0,0,0,.137-.176q-.02-2.754-2.285-2.754a5.327,5.327,0,0,0-2.734.84.648.648,0,0,1-.488.078.607.607,0,0,1-.391-.273.692.692,0,0,1-.068-.518.629.629,0,0,1,.3-.4,7.228,7.228,0,0,1,3.633-1.074A3.253,3.253,0,0,1-8.105-9.912,5.218,5.218,0,0,1-7.227-6.7V-.664a.639.639,0,0,1-.2.469.639.639,0,0,1-.469.2.706.706,0,0,1-.488-.2.765.765,0,0,1-.254-.469l-.059-.625q0-.039-.029-.039a.157.157,0,0,0-.068.02A5.685,5.685,0,0,1-12.4.254Zm.449-1.309A3.373,3.373,0,0,0-10.479-1.4,6.909,6.909,0,0,0-8.945-2.461a.343.343,0,0,0,.1-.254V-5.566q0-.137-.1-.137h-.039A10.617,10.617,0,0,0-12.822-4.7a2.047,2.047,0,0,0-1.143,1.826A1.652,1.652,0,0,0-13.408-1.5,2.245,2.245,0,0,0-11.953-1.055ZM-1.914.254q-1.758,0-1.758-2.227V-15.117a.756.756,0,0,1,.244-.566.8.8,0,0,1,.576-.234.772.772,0,0,1,.566.234.772.772,0,0,1,.234.566V-1.855a.777.777,0,0,0,.273.7q.039.02.215.117l.244.137a.62.62,0,0,1,.156.146.478.478,0,0,1,.107.225v.02a.574.574,0,0,1,.02.137.753.753,0,0,1-.1.371.617.617,0,0,1-.43.254Z" transform="translate(643 872)" fill="#fff"/>
    <path id="路径_6906" data-name="路径 6906" d="M-41.953,0a1.1,1.1,0,0,1-.82-.342,1.124,1.124,0,0,1-.332-.811V-13.984a.553.553,0,0,1,.176-.42.59.59,0,0,1,.42-.166.59.59,0,0,1,.42.166.553.553,0,0,1,.176.42V-1.191q0,.156.137.156H-35.8a.524.524,0,0,1,.371.146.476.476,0,0,1,.156.361.507.507,0,0,1-.156.371A.507.507,0,0,1-35.8,0Zm10.137-.156a.6.6,0,0,1-.41.156.579.579,0,0,1-.41-.166.553.553,0,0,1-.176-.42v-9.492a.562.562,0,0,1,.176-.41.562.562,0,0,1,.41-.176.562.562,0,0,1,.41.176.562.562,0,0,1,.176.41V-.586A.584.584,0,0,1-31.816-.156Zm-.391-13.008a1,1,0,0,1-.693-.254.85.85,0,0,1-.283-.664.9.9,0,0,1,.283-.693.98.98,0,0,1,.693-.264.98.98,0,0,1,.693.264.9.9,0,0,1,.283.693.858.858,0,0,1-.283.654A.98.98,0,0,1-32.207-13.164Zm8.047,18.3a5.823,5.823,0,0,1-3.213-.781,2.42,2.42,0,0,1-1.2-2.129,2.5,2.5,0,0,1,.42-1.348A4.148,4.148,0,0,1-27.012-.293a.079.079,0,0,0,.039-.078.087.087,0,0,0-.01-.039.153.153,0,0,0-.029-.039,1.849,1.849,0,0,1-.918-1.68A2.487,2.487,0,0,1-26.777-4.1a.063.063,0,0,0,.039-.059.063.063,0,0,0-.039-.059,3.737,3.737,0,0,1-.947-1.23,3.618,3.618,0,0,1-.381-1.641A3.613,3.613,0,0,1-26.992-9.8a3.74,3.74,0,0,1,2.7-1.074,3.642,3.642,0,0,1,1.289.234,1.211,1.211,0,0,0,.293.039h3.008a.468.468,0,0,1,.342.146.468.468,0,0,1,.146.342.468.468,0,0,1-.146.342.468.468,0,0,1-.342.146h-1.777a.045.045,0,0,0-.049.029.089.089,0,0,0,.01.068,3.262,3.262,0,0,1,1,2.461,3.606,3.606,0,0,1-1.084,2.686A3.682,3.682,0,0,1-24.3-3.32a3.412,3.412,0,0,1-1.582-.371.215.215,0,0,0-.234.02,1.8,1.8,0,0,0-.742,1.387q0,1.348,2.012,1.348h2.227a4.855,4.855,0,0,1,2.705.6,2.1,2.1,0,0,1,.869,1.865,3.12,3.12,0,0,1-1.436,2.539A5.981,5.981,0,0,1-24.16,5.137ZM-24.3-4.2a2.512,2.512,0,0,0,1.875-.811,2.874,2.874,0,0,0,.781-2.08A2.839,2.839,0,0,0-22.4-9.16,2.539,2.539,0,0,0-24.3-9.941a2.548,2.548,0,0,0-1.885.781,2.818,2.818,0,0,0-.771,2.07,2.874,2.874,0,0,0,.781,2.08A2.512,2.512,0,0,0-24.3-4.2Zm.273,8.457a4.531,4.531,0,0,0,2.734-.781,2.22,2.22,0,0,0,1.074-1.8,1.3,1.3,0,0,0-.6-1.191A3.53,3.53,0,0,0-22.637.117H-24.8A6.658,6.658,0,0,1-26-.02a.173.173,0,0,0-.078-.02.316.316,0,0,0-.2.059,2.574,2.574,0,0,0-1.191,2.07,1.808,1.808,0,0,0,.908,1.572A4.585,4.585,0,0,0-24.023,4.258Zm8.2-4.414A.6.6,0,0,1-16.23,0a.579.579,0,0,1-.41-.166.553.553,0,0,1-.176-.42V-15.312a.553.553,0,0,1,.176-.42.579.579,0,0,1,.41-.166.579.579,0,0,1,.41.166.553.553,0,0,1,.176.42v3.965l-.02,2.188a.046.046,0,0,0,.039.049.058.058,0,0,0,.059-.01,8.529,8.529,0,0,1,1.729-1.348,3.612,3.612,0,0,1,1.807-.469A2.9,2.9,0,0,1-9.58-9.912a5.031,5.031,0,0,1,.791,3.1v6.23a.569.569,0,0,1-.166.42A.557.557,0,0,1-9.365,0a.557.557,0,0,1-.41-.166.569.569,0,0,1-.166-.42V-6.66a4.237,4.237,0,0,0-.566-2.461A2.047,2.047,0,0,0-12.285-9.9a3.09,3.09,0,0,0-1.592.43,8.5,8.5,0,0,0-1.67,1.387.343.343,0,0,0-.1.254V-.586A.584.584,0,0,1-15.82-.156Zm13.789.41A2.447,2.447,0,0,1-4.141-.6a4.092,4.092,0,0,1-.625-2.451V-9.531a.138.138,0,0,0-.156-.156H-6a.413.413,0,0,1-.3-.127.425.425,0,0,1-.127-.312.425.425,0,0,1,.127-.312.494.494,0,0,1,.3-.146l1.113-.059q.156-.02.156-.156l.117-2.441a.459.459,0,0,1,.146-.352.5.5,0,0,1,.352-.137.5.5,0,0,1,.352.137.459.459,0,0,1,.146.352V-10.8q0,.137.156.137h2.422a.468.468,0,0,1,.342.146.479.479,0,0,1,.146.352.448.448,0,0,1-.146.342.485.485,0,0,1-.342.137H-3.457a.138.138,0,0,0-.156.156v6.563a2.922,2.922,0,0,0,.391,1.66,1.566,1.566,0,0,0,1.387.566A3.241,3.241,0,0,0-.977-.879.461.461,0,0,1-.615-.85a.45.45,0,0,1,.225.264.574.574,0,0,1,.02.137A.41.41,0,0,1-.43-.234.413.413,0,0,1-.7,0,4.736,4.736,0,0,1-2.031.254Z" transform="translate(511 872)" fill="#fff"/>
    <path id="路径_6907" data-name="路径 6907" d="M-84.512,0A.646.646,0,0,1-85-.205a.7.7,0,0,1-.2-.5V-13.828a.662.662,0,0,1,.2-.488.662.662,0,0,1,.488-.2h6.777a.338.338,0,0,1,.234.088.289.289,0,0,1,.1.225.32.32,0,0,1-.1.234.32.32,0,0,1-.234.1h-6.641q-.078,0-.078.1v5.605a.069.069,0,0,0,.078.078h5.508a.32.32,0,0,1,.234.1.32.32,0,0,1,.1.234.32.32,0,0,1-.1.234.32.32,0,0,1-.234.1h-5.508q-.078,0-.078.1V-.742a.069.069,0,0,0,.078.078h6.855a.32.32,0,0,1,.234.1.32.32,0,0,1,.1.234.32.32,0,0,1-.1.234.32.32,0,0,1-.234.1Zm9.023,0a.188.188,0,0,1-.176-.117.133.133,0,0,1-.039-.1.21.21,0,0,1,.039-.117l3.359-5.1a.094.094,0,0,0,0-.137l-3.027-4.648a.175.175,0,0,1-.01-.215.208.208,0,0,1,.186-.117.69.69,0,0,1,.625.352l1.563,2.461,1.133,1.7A.063.063,0,0,0-71.777-6a.063.063,0,0,0,.059-.039q.879-1.367,1.113-1.7l1.523-2.48a.665.665,0,0,1,.586-.332.189.189,0,0,1,.176.107.23.23,0,0,1,0,.225l-3.047,4.688a.129.129,0,0,0,0,.137l3.34,5.059a.21.21,0,0,1,.039.117.321.321,0,0,1-.02.1A.2.2,0,0,1-68.2,0a.69.69,0,0,1-.625-.352l-1.738-2.676q-.508-.84-1.23-1.895a.121.121,0,0,0-.088-.039.07.07,0,0,0-.068.039q-.234.332-1.23,1.895l-1.7,2.7A.682.682,0,0,1-75.488,0Zm12.813.254a2.2,2.2,0,0,1-1.934-.781,3.933,3.933,0,0,1-.547-2.266V-9.785a.086.086,0,0,0-.1-.1h-1.309a.265.265,0,0,1-.2-.078.265.265,0,0,1-.078-.2.3.3,0,0,1,.078-.205.25.25,0,0,1,.2-.088l1.309-.078q.1-.02.1-.1L-65.1-13.3a.385.385,0,0,1,.107-.225.292.292,0,0,1,.215-.088.326.326,0,0,1,.225.088.289.289,0,0,1,.1.225v2.676a.069.069,0,0,0,.078.078h2.7a.32.32,0,0,1,.234.1.32.32,0,0,1,.1.234.32.32,0,0,1-.1.234.32.32,0,0,1-.234.1h-2.7q-.078,0-.078.1V-2.7a3.173,3.173,0,0,0,.381,1.719,1.609,1.609,0,0,0,1.455.586,2.843,2.843,0,0,0,1.035-.234.375.375,0,0,1,.254.01.336.336,0,0,1,.176.166.369.369,0,0,1,.02.117.241.241,0,0,1-.039.137.3.3,0,0,1-.176.156A4.838,4.838,0,0,1-62.676.254Zm4.57-.352a.343.343,0,0,1-.254.1.327.327,0,0,1-.254-.107.353.353,0,0,1-.1-.244v-9.883a.3.3,0,0,1,.088-.225.281.281,0,0,1,.205-.088.314.314,0,0,1,.215.088.289.289,0,0,1,.1.225l.1,1.66a.017.017,0,0,0,.02.02.056.056,0,0,0,.039-.02q1.23-2.227,2.969-2.227a2.235,2.235,0,0,1,.7.1.292.292,0,0,1,.2.176.347.347,0,0,1,.039.156v.117a.294.294,0,0,1-.166.2.369.369,0,0,1-.264.02,2.567,2.567,0,0,0-.605-.059,2.386,2.386,0,0,0-1.553.664,5.3,5.3,0,0,0-1.338,2.07.388.388,0,0,0-.039.176V-.352A.389.389,0,0,1-58.105-.1Zm7.969.352a3.273,3.273,0,0,1-2.178-.713,2.634,2.634,0,0,1-.85-2.139,2.886,2.886,0,0,1,1.611-2.637,14.314,14.314,0,0,1,5.166-1.328q.1-.02.1-.1v-.2a5.487,5.487,0,0,0-.1-1.074,3.926,3.926,0,0,0-.361-1.094,1.873,1.873,0,0,0-.8-.82,2.678,2.678,0,0,0-1.3-.293,5.418,5.418,0,0,0-3.164,1.074.32.32,0,0,1-.254.049.362.362,0,0,1-.215-.127.5.5,0,0,1-.039-.273.289.289,0,0,1,.156-.215A6.354,6.354,0,0,1-48.809-10.8a3.507,3.507,0,0,1,1.543.313,2.409,2.409,0,0,1,1.006.879,4.109,4.109,0,0,1,.527,1.25,6.555,6.555,0,0,1,.166,1.543V-.293a.281.281,0,0,1-.088.205A.292.292,0,0,1-45.869,0a.326.326,0,0,1-.225-.088.268.268,0,0,1-.1-.205l-.078-1.074q0-.039-.029-.039a.066.066,0,0,0-.049.02A6.208,6.208,0,0,1-50.137.254Zm.059-.645a4.049,4.049,0,0,0,1.8-.43,9.481,9.481,0,0,0,1.914-1.309.169.169,0,0,0,.078-.137V-5.879a.069.069,0,0,0-.078-.078h-.02a12.88,12.88,0,0,0-4.668,1.172,2.426,2.426,0,0,0-1.387,2.168,2.05,2.05,0,0,0,.664,1.68A2.585,2.585,0,0,0-50.078-.391ZM-40.9,0a.646.646,0,0,1-.488-.205.7.7,0,0,1-.2-.5V-14.141a.358.358,0,0,1,.107-.264.347.347,0,0,1,.254-.107.38.38,0,0,1,.264.107.344.344,0,0,1,.117.264v13.4a.069.069,0,0,0,.078.078h6.387a.32.32,0,0,1,.234.1.32.32,0,0,1,.1.234.32.32,0,0,1-.1.234.32.32,0,0,1-.234.1Zm9.98-.1a.343.343,0,0,1-.254.1.327.327,0,0,1-.254-.107.353.353,0,0,1-.1-.244v-9.824a.378.378,0,0,1,.1-.264.327.327,0,0,1,.254-.107.327.327,0,0,1,.254.107.378.378,0,0,1,.1.264V-.352A.389.389,0,0,1-30.918-.1ZM-31.152-13.2a.76.76,0,0,1-.547-.205.733.733,0,0,1-.215-.557.766.766,0,0,1,.215-.566.741.741,0,0,1,.547-.215.784.784,0,0,1,.547.215.732.732,0,0,1,.234.566.709.709,0,0,1-.234.547A.784.784,0,0,1-31.152-13.2Zm7.91,18.4a5.527,5.527,0,0,1-3.164-.8,2.464,2.464,0,0,1-1.172-2.129A2.552,2.552,0,0,1-27.148.9,4.4,4.4,0,0,1-26-.312a.08.08,0,0,0,.02-.059.087.087,0,0,0-.01-.039L-26-.43a1.832,1.832,0,0,1-.918-1.66A2.314,2.314,0,0,1-25.781-4a.113.113,0,0,0,.039-.078.063.063,0,0,0-.039-.059,4.469,4.469,0,0,1-.928-1.25,3.5,3.5,0,0,1-.381-1.621,3.652,3.652,0,0,1,1.045-2.666,3.459,3.459,0,0,1,2.568-1.064,3.7,3.7,0,0,1,1.309.234.347.347,0,0,0,.156.039h3.105a.32.32,0,0,1,.234.1.32.32,0,0,1,.1.234.289.289,0,0,1-.1.225.338.338,0,0,1-.234.088H-21q-.02,0-.029.029t.01.029a3.53,3.53,0,0,1,1.172,2.754,3.661,3.661,0,0,1-1.045,2.656,3.466,3.466,0,0,1-2.588,1.074,3.4,3.4,0,0,1-1.7-.43.129.129,0,0,0-.137,0,2.013,2.013,0,0,0-.859,1.563Q-26.172-.7-24.1-.7h2.324a4.506,4.506,0,0,1,2.559.576A2.034,2.034,0,0,1-18.4,1.66a3.093,3.093,0,0,1-1.357,2.471A5.482,5.482,0,0,1-23.242,5.2Zm-.234-9.141a2.752,2.752,0,0,0,2.041-.869,3.015,3.015,0,0,0,.85-2.2,3.029,3.029,0,0,0-.83-2.227,2.781,2.781,0,0,0-2.061-.84,2.726,2.726,0,0,0-2.031.84,3.05,3.05,0,0,0-.82,2.227,3.034,3.034,0,0,0,.84,2.2A2.7,2.7,0,0,0-23.477-3.945ZM-23.2,4.57a4.759,4.759,0,0,0,2.939-.859,2.456,2.456,0,0,0,1.143-1.973A1.443,1.443,0,0,0-19.756.43,3.6,3.6,0,0,0-21.68.02h-2.383a5.917,5.917,0,0,1-1.211-.156h-.039A.21.21,0,0,0-25.43-.1a2.765,2.765,0,0,0-1.387,2.3,1.981,1.981,0,0,0,.957,1.719A4.713,4.713,0,0,0-23.2,4.57ZM-15.449-.1A.343.343,0,0,1-15.7,0a.327.327,0,0,1-.254-.107.353.353,0,0,1-.1-.244V-15.527a.353.353,0,0,1,.1-.244.327.327,0,0,1,.254-.107.327.327,0,0,1,.254.107.353.353,0,0,1,.1.244v6.621q0,.02.029.029a.044.044,0,0,0,.049-.01,8.4,8.4,0,0,1,1.768-1.426A3.641,3.641,0,0,1-11.66-10.8a2.878,2.878,0,0,1,2.4.986,4.859,4.859,0,0,1,.781,3.037V-.352a.337.337,0,0,1-.107.244A.347.347,0,0,1-8.838,0a.347.347,0,0,1-.254-.107A.337.337,0,0,1-9.2-.352V-6.68A4.521,4.521,0,0,0-9.8-9.287a2.21,2.21,0,0,0-1.934-.85,3.294,3.294,0,0,0-1.709.469,9.275,9.275,0,0,0-1.826,1.543.186.186,0,0,0-.078.156V-.352A.389.389,0,0,1-15.449-.1ZM-1.855.254A2.2,2.2,0,0,1-3.789-.527a3.933,3.933,0,0,1-.547-2.266V-9.785a.086.086,0,0,0-.1-.1H-5.742a.265.265,0,0,1-.2-.078.265.265,0,0,1-.078-.2.3.3,0,0,1,.078-.205.25.25,0,0,1,.2-.088l1.309-.078q.1-.02.1-.1l.059-2.676a.385.385,0,0,1,.107-.225.292.292,0,0,1,.215-.088.326.326,0,0,1,.225.088.289.289,0,0,1,.1.225v2.676a.069.069,0,0,0,.078.078h2.7a.32.32,0,0,1,.234.1.32.32,0,0,1,.1.234.32.32,0,0,1-.1.234.32.32,0,0,1-.234.1h-2.7q-.078,0-.078.1V-2.7A3.173,3.173,0,0,0-3.252-.977,1.609,1.609,0,0,0-1.8-.391,2.843,2.843,0,0,0-.762-.625a.375.375,0,0,1,.254.01.336.336,0,0,1,.176.166.369.369,0,0,1,.02.117A.241.241,0,0,1-.352-.2a.3.3,0,0,1-.176.156A4.838,4.838,0,0,1-1.855.254Z" transform="translate(412 872)" fill="#fff"/>
    <path id="路径_6908" data-name="路径 6908" d="M-67.461-13.164q-.137,0-.137.156v5.137q0,.156.137.156h2.324q3.555,0,3.555-2.832a2.257,2.257,0,0,0-.889-2.012,4.764,4.764,0,0,0-2.666-.605ZM-59.844-.9a.5.5,0,0,1,.1.293.693.693,0,0,1-.078.313A.576.576,0,0,1-60.352,0a1.776,1.776,0,0,1-.908-.244,1.857,1.857,0,0,1-.674-.674l-2.949-5.176a.263.263,0,0,0-.234-.117h-2.344a.121.121,0,0,0-.137.137V-.937a.9.9,0,0,1-.273.664A.9.9,0,0,1-68.535,0,.9.9,0,0,1-69.2-.273a.9.9,0,0,1-.273-.664V-13.516a1.108,1.108,0,0,1,.342-.811,1.108,1.108,0,0,1,.811-.342h3.457q5.117,0,5.117,4.121a4.081,4.081,0,0,1-.84,2.656A4.306,4.306,0,0,1-62.93-6.465q-.137.039-.059.176Zm7.09,1.152a4.952,4.952,0,0,1-3.711-1.533,5.714,5.714,0,0,1-1.484-4.15,6.677,6.677,0,0,1,.41-2.363,5.325,5.325,0,0,1,1.094-1.816,4.941,4.941,0,0,1,1.572-1.123,4.4,4.4,0,0,1,1.826-.4A3.934,3.934,0,0,1-49.883-9.8,5.56,5.56,0,0,1-48.73-6.133a1.062,1.062,0,0,1-.352.8A1.275,1.275,0,0,1-49.961-5h-6.016q-.156,0-.137.137A4.085,4.085,0,0,0-55.02-2.187a3.35,3.35,0,0,0,2.5,1,4.483,4.483,0,0,0,2.129-.527.714.714,0,0,1,.508-.049.632.632,0,0,1,.41.3.734.734,0,0,1,.068.537.622.622,0,0,1-.322.42A6.407,6.407,0,0,1-52.754.254Zm-3.379-6.66q0,.1.137.1h5.527a.121.121,0,0,0,.137-.137,3.686,3.686,0,0,0-.732-2.4,2.437,2.437,0,0,0-1.963-.84,2.789,2.789,0,0,0-2.031.879A3.282,3.282,0,0,0-56.133-6.406ZM-42.578,5.059a6.119,6.119,0,0,1-3.281-.771,2.4,2.4,0,0,1-1.23-2.139A2.937,2.937,0,0,1-45.508-.293a.063.063,0,0,0,.039-.059.063.063,0,0,0-.039-.059,1.972,1.972,0,0,1-.957-1.777A2.484,2.484,0,0,1-45.273-4.18a.08.08,0,0,0,.02-.059.08.08,0,0,0-.02-.059,4.059,4.059,0,0,1-.986-1.25,3.514,3.514,0,0,1-.4-1.66A3.6,3.6,0,0,1-45.479-10a4.154,4.154,0,0,1,2.9-1.074,4.193,4.193,0,0,1,1.367.234,1.211,1.211,0,0,0,.293.039h2.93a.678.678,0,0,1,.5.205.678.678,0,0,1,.205.5.678.678,0,0,1-.205.5.678.678,0,0,1-.5.205h-1.367a.063.063,0,0,0-.059.039q-.02.039,0,.059a3,3,0,0,1,.781,2.129,3.55,3.55,0,0,1-1.133,2.754,4.013,4.013,0,0,1-2.812,1.035,3.751,3.751,0,0,1-1.5-.312.215.215,0,0,0-.234.02A1.632,1.632,0,0,0-44.9-2.461q0,1.191,1.895,1.191h2.129a5.158,5.158,0,0,1,2.832.625,2.18,2.18,0,0,1,.938,1.953,3.206,3.206,0,0,1-1.514,2.656A6.6,6.6,0,0,1-42.578,5.059Zm0-9.668a2.118,2.118,0,0,0,1.621-.723,2.662,2.662,0,0,0,.664-1.875,2.579,2.579,0,0,0-.654-1.846,2.15,2.15,0,0,0-1.631-.693,2.2,2.2,0,0,0-1.66.693A2.557,2.557,0,0,0-44.9-7.207a2.631,2.631,0,0,0,.674,1.885A2.183,2.183,0,0,0-42.578-4.609Zm.254,8.438a4.271,4.271,0,0,0,2.48-.674,1.913,1.913,0,0,0,.977-1.572A1.1,1.1,0,0,0-39.414.547a3.5,3.5,0,0,0-1.68-.312h-1.875A6.019,6.019,0,0,1-44.219.1.173.173,0,0,0-44.3.078a.313.313,0,0,0-.2.078,2.177,2.177,0,0,0-1,1.738,1.6,1.6,0,0,0,.85,1.406A4.367,4.367,0,0,0-42.324,3.828ZM-31.836.254q-3.3,0-3.3-4.238V-9.941a.888.888,0,0,1,.264-.654.877.877,0,0,1,.645-.264.877.877,0,0,1,.645.264.888.888,0,0,1,.264.654V-4.2A3.883,3.883,0,0,0-32.842-2a1.794,1.794,0,0,0,1.572.674,2.734,2.734,0,0,0,1.445-.391,5.6,5.6,0,0,0,1.387-1.328.389.389,0,0,0,.1-.254V-9.941a.888.888,0,0,1,.264-.654.877.877,0,0,1,.645-.264.877.877,0,0,1,.645.264.888.888,0,0,1,.264.654v9.18a.75.75,0,0,1-.215.537A.724.724,0,0,1-27.285,0a.784.784,0,0,1-.547-.215.851.851,0,0,1-.273-.547l-.059-.918a.066.066,0,0,0-.049-.02.066.066,0,0,0-.049.02,6.548,6.548,0,0,1-1.67,1.445A3.752,3.752,0,0,1-31.836.254Zm10.9,0q-1.934,0-1.934-2.422V-15.02a.85.85,0,0,1,.273-.635.9.9,0,0,1,.645-.264.865.865,0,0,1,.635.264.865.865,0,0,1,.264.635V-2.031a.777.777,0,0,0,.293.723,1.362,1.362,0,0,1,.186.088q.127.068.186.107t.146.107a.573.573,0,0,1,.137.146.521.521,0,0,1,.068.176l.02.078A.642.642,0,0,1-20-.449a.722.722,0,0,1-.117.41.656.656,0,0,1-.469.293Zm6.25,0a3.25,3.25,0,0,1-2.295-.82,2.906,2.906,0,0,1-.889-2.246,3,3,0,0,1,1.563-2.7,12.714,12.714,0,0,1,4.98-1.348.153.153,0,0,0,.137-.176q-.059-2.6-2.227-2.6a5.421,5.421,0,0,0-2.656.781.682.682,0,0,1-.537.088.689.689,0,0,1-.439-.322.816.816,0,0,1-.068-.566.678.678,0,0,1,.342-.449,7.615,7.615,0,0,1,3.652-1.035,3.39,3.39,0,0,1,2.842,1.182A5.173,5.173,0,0,1-9.355-6.68V-.742a.7.7,0,0,1-.225.527A.75.75,0,0,1-10.117,0a.819.819,0,0,1-.557-.215.818.818,0,0,1-.283-.527l-.059-.527q0-.039-.029-.039a.157.157,0,0,0-.068.02A5.742,5.742,0,0,1-14.687.254Zm.527-1.445a3.1,3.1,0,0,0,1.406-.332,7.5,7.5,0,0,0,1.465-1.016.343.343,0,0,0,.1-.254V-5.527q0-.137-.1-.137h-.039a10.041,10.041,0,0,0-3.662.986,1.962,1.962,0,0,0-1.084,1.729,1.628,1.628,0,0,0,.518,1.328A2.119,2.119,0,0,0-14.16-1.191Zm9.785.938A.849.849,0,0,1-5,0a.9.9,0,0,1-.645-.264.872.872,0,0,1-.273-.654v-9.2a.7.7,0,0,1,.225-.527.75.75,0,0,1,.537-.215.784.784,0,0,1,.547.215.755.755,0,0,1,.254.527l.1,1.211q0,.02.029.02a.066.066,0,0,0,.049-.02A5.047,5.047,0,0,1-2.8-10.547a2.787,2.787,0,0,1,1.689-.586h.371a.659.659,0,0,1,.527.352.925.925,0,0,1,.117.449,1.423,1.423,0,0,1-.02.234.718.718,0,0,1-.352.469,1.025,1.025,0,0,1-.547.156h-.332a2.363,2.363,0,0,0-1.465.566,4.322,4.322,0,0,0-1.23,1.8.6.6,0,0,0-.059.273V-.918A.9.9,0,0,1-4.375-.254Z" transform="translate(764 872)" fill="#fff"/>
    <path id="路径_6909" data-name="路径 6909" d="M-73.691-.293A.982.982,0,0,1-74.414,0a1.03,1.03,0,0,1-.742-.3.982.982,0,0,1-.312-.732V-13.574a1.108,1.108,0,0,1,.342-.811,1.108,1.108,0,0,1,.811-.342h.371a1.594,1.594,0,0,1,.938.3,1.617,1.617,0,0,1,.605.791l2.3,6.348q.176.527.5,1.514t.459,1.416q.02.059.068.059T-69-4.355q.156-.449.459-1.436t.479-1.494l2.285-6.348a1.509,1.509,0,0,1,.586-.791,1.594,1.594,0,0,1,.938-.3h.391a1.108,1.108,0,0,1,.811.342,1.108,1.108,0,0,1,.342.811v12.5a1.021,1.021,0,0,1-.322.762A1.069,1.069,0,0,1-63.809,0a1.037,1.037,0,0,1-.762-.312,1.037,1.037,0,0,1-.312-.762V-7.285q0-1.211.293-4.512a.035.035,0,0,0-.039-.039.035.035,0,0,0-.039.039L-65.84-8.437-68.164-2.09a.921.921,0,0,1-.371.479,1.039,1.039,0,0,1-.6.186,1,1,0,0,1-.586-.186A1.053,1.053,0,0,1-70.1-2.09l-2.324-6.348L-73.574-11.8q0-.039-.049-.039t-.029.039q.273,3.691.273,4.512v6.25A1.014,1.014,0,0,1-73.691-.293Zm19.2.547A5.181,5.181,0,0,1-58.34-1.289a5.716,5.716,0,0,1-1.523-4.2,6.752,6.752,0,0,1,.42-2.4A5.352,5.352,0,0,1-58.32-9.736a5.2,5.2,0,0,1,1.6-1.143,4.465,4.465,0,0,1,1.875-.41,4.068,4.068,0,0,1,3.32,1.416,5.8,5.8,0,0,1,1.172,3.818v.02a1.1,1.1,0,0,1-.391.8,1.275,1.275,0,0,1-.879.332h-5.84q-.137,0-.117.156a3.6,3.6,0,0,0,1.064,2.354,3.253,3.253,0,0,0,2.314.85,4.6,4.6,0,0,0,1.895-.41.867.867,0,0,1,.391-.1.737.737,0,0,1,.234.039.852.852,0,0,1,.508.391.905.905,0,0,1,.1.41,1.423,1.423,0,0,1-.02.234.767.767,0,0,1-.41.488A6.387,6.387,0,0,1-54.492.254ZM-57.6-6.6a.1.1,0,0,0,.117.117h5a.121.121,0,0,0,.137-.137,3.341,3.341,0,0,0-.664-2.109,2.218,2.218,0,0,0-1.8-.742,2.556,2.556,0,0,0-1.816.742A2.924,2.924,0,0,0-57.6-6.6ZM-43.984.254A4.055,4.055,0,0,1-47.3-1.26a6.531,6.531,0,0,1-1.23-4.229,6.168,6.168,0,0,1,1.4-4.189,4.27,4.27,0,0,1,3.33-1.611,3.729,3.729,0,0,1,1.494.283,5.688,5.688,0,0,1,1.357.869.058.058,0,0,0,.059.01q.039-.01.039-.068l-.1-1.66v-2.93a1.1,1.1,0,0,1,.342-.82,1.135,1.135,0,0,1,.82-.332,1.1,1.1,0,0,1,.811.332,1.114,1.114,0,0,1,.332.82V-.937a.9.9,0,0,1-.273.664A.9.9,0,0,1-39.59,0a1.087,1.087,0,0,1-.723-.264,1.046,1.046,0,0,1-.371-.674l-.039-.273q0-.02-.039-.02a.08.08,0,0,0-.059.02A4.379,4.379,0,0,1-43.984.254Zm.527-1.895a3.23,3.23,0,0,0,2.4-1.23.343.343,0,0,0,.1-.254v-5.1a.32.32,0,0,0-.1-.234,3.554,3.554,0,0,0-2.324-.9,2.406,2.406,0,0,0-1.973,1.045,4.458,4.458,0,0,0-.8,2.783,4.994,4.994,0,0,0,.7,2.881A2.288,2.288,0,0,0-43.457-1.641ZM-33.242-.332A1.1,1.1,0,0,1-34.053,0a1.1,1.1,0,0,1-.811-.332,1.091,1.091,0,0,1-.332-.8v-8.73a1.091,1.091,0,0,1,.332-.8A1.1,1.1,0,0,1-34.053-11a1.1,1.1,0,0,1,.811.332,1.091,1.091,0,0,1,.332.8v8.73A1.091,1.091,0,0,1-33.242-.332Zm.234-13.105a1.5,1.5,0,0,1-1.045.371,1.475,1.475,0,0,1-1.045-.381,1.262,1.262,0,0,1-.41-.967,1.285,1.285,0,0,1,.41-.986,1.475,1.475,0,0,1,1.045-.381A1.511,1.511,0,0,1-33-15.4a1.27,1.27,0,0,1,.42.986A1.265,1.265,0,0,1-33.008-13.437ZM-26.25.254q-3.359,0-3.359-4.336V-9.844a1.114,1.114,0,0,1,.332-.82A1.1,1.1,0,0,1-28.467-11a1.135,1.135,0,0,1,.82.332,1.1,1.1,0,0,1,.342.82v5.488a3.629,3.629,0,0,0,.43,2.021,1.594,1.594,0,0,0,1.406.615,2.444,2.444,0,0,0,1.3-.352,5.162,5.162,0,0,0,1.24-1.172.414.414,0,0,0,.1-.273V-9.844a1.1,1.1,0,0,1,.342-.82A1.124,1.124,0,0,1-21.68-11a1.124,1.124,0,0,1,.811.332,1.1,1.1,0,0,1,.342.82V-.937a.9.9,0,0,1-.273.664A.9.9,0,0,1-21.465,0a1.015,1.015,0,0,1-.7-.264,1.082,1.082,0,0,1-.352-.674l-.059-.684q-.02-.039-.049-.039a.066.066,0,0,0-.049.02,6.245,6.245,0,0,1-1.65,1.416A3.852,3.852,0,0,1-26.25.254Zm11.113-.586A1.1,1.1,0,0,1-15.947,0a1.1,1.1,0,0,1-.811-.332,1.091,1.091,0,0,1-.332-.8v-8.926a.9.9,0,0,1,.273-.664A.9.9,0,0,1-16.152-11a1.051,1.051,0,0,1,.713.264.985.985,0,0,1,.342.674l.059.566q.02.039.049.039a.066.066,0,0,0,.049-.02,4.769,4.769,0,0,1,3.379-1.816A2.964,2.964,0,0,1-8.574-9.395q.039.137.156.02a7.9,7.9,0,0,1,1.7-1.416,3.43,3.43,0,0,1,1.777-.5q3.379,0,3.379,4.375v5.762a1.1,1.1,0,0,1-.342.82A1.135,1.135,0,0,1-2.725,0a1.1,1.1,0,0,1-.811-.332,1.114,1.114,0,0,1-.332-.82V-6.641a3.552,3.552,0,0,0-.449-2.031A1.593,1.593,0,0,0-5.7-9.3,3.565,3.565,0,0,0-8.086-7.91a.389.389,0,0,0-.1.254v6.5a1.1,1.1,0,0,1-.342.82A1.135,1.135,0,0,1-9.346,0a1.1,1.1,0,0,1-.811-.332,1.114,1.114,0,0,1-.332-.82V-6.641a3.615,3.615,0,0,0-.439-2.031,1.588,1.588,0,0,0-1.4-.625A3.565,3.565,0,0,0-14.707-7.91a.389.389,0,0,0-.1.254v6.523A1.091,1.091,0,0,1-15.137-.332Z" transform="translate(887 872)" fill="#fff"/>
    <path id="路径_6910" data-name="路径 6910" d="M-19.678,0a1.108,1.108,0,0,1-.811-.342,1.108,1.108,0,0,1-.342-.811v-12.5a1.108,1.108,0,0,1,.342-.811,1.108,1.108,0,0,1,.811-.342h3.75q5.352,0,5.352,3.652a3.7,3.7,0,0,1-.537,1.934,2.881,2.881,0,0,1-1.416,1.25.052.052,0,0,0-.059.059q0,.059.039.059A3.7,3.7,0,0,1-10.557-6.66a3.451,3.451,0,0,1,.742,2.3A3.71,3.71,0,0,1-11.4-1.1,7.093,7.093,0,0,1-15.537,0Zm1.816-8.926a.121.121,0,0,0,.137.137h1.582A3.332,3.332,0,0,0-14.111-9.3a1.691,1.691,0,0,0,.664-1.426,1.536,1.536,0,0,0-.654-1.387,3.7,3.7,0,0,0-2-.43h-1.621a.121.121,0,0,0-.137.137Zm0,6.5a.121.121,0,0,0,.137.137h1.914q3.125,0,3.125-2.246a1.7,1.7,0,0,0-.781-1.562,4.492,4.492,0,0,0-2.344-.488h-1.914q-.137,0-.137.156ZM-.752-.117A5.3,5.3,0,0,1-2.773.273,5.257,5.257,0,0,1-4.8-.127,5.294,5.294,0,0,1-6.514-1.26,5.362,5.362,0,0,1-7.705-3.115a6.6,6.6,0,0,1-.449-2.471,6.671,6.671,0,0,1,.449-2.48A5.451,5.451,0,0,1-6.514-9.941,5.218,5.218,0,0,1-4.8-11.084a5.257,5.257,0,0,1,2.031-.4,5.257,5.257,0,0,1,2.031.4A5.218,5.218,0,0,1,.967-9.941,5.451,5.451,0,0,1,2.158-8.066a6.671,6.671,0,0,1,.449,2.48,6.6,6.6,0,0,1-.449,2.471A5.362,5.362,0,0,1,.967-1.26,5.4,5.4,0,0,1-.752-.117Zm-3.77-2.93a2,2,0,0,0,1.748.918,1.991,1.991,0,0,0,1.748-.928A4.473,4.473,0,0,0-.4-5.586a4.572,4.572,0,0,0-.625-2.549,1.981,1.981,0,0,0-1.748-.947,1.981,1.981,0,0,0-1.748.947,4.572,4.572,0,0,0-.625,2.549A4.523,4.523,0,0,0-4.521-3.047ZM7.822.273A2.441,2.441,0,0,1,5.713-.605a4.25,4.25,0,0,1-.645-2.539V-14.8a1.114,1.114,0,0,1,.332-.82,1.114,1.114,0,0,1,.82-.332h.605a1.114,1.114,0,0,1,.82.332,1.114,1.114,0,0,1,.332.82v11.8a.856.856,0,0,0,.352.82,1.154,1.154,0,0,0,.176.1,2.294,2.294,0,0,1,.215.117q.059.039.166.117a.429.429,0,0,1,.146.166.88.88,0,0,1,.059.186l.078.43a1.423,1.423,0,0,1,.02.234,1.232,1.232,0,0,1-.2.664.909.909,0,0,1-.723.43Q8.057.273,7.822.273Zm7.48,0a4.052,4.052,0,0,1-3.35-1.562,6.736,6.736,0,0,1-1.24-4.3,6.332,6.332,0,0,1,1.4-4.268,4.232,4.232,0,0,1,3.311-1.631,3.59,3.59,0,0,1,1.475.283,4.823,4.823,0,0,1,1.26.85q.02.02.059,0a.063.063,0,0,0,.039-.059l-.117-1.6V-14.8a1.1,1.1,0,0,1,.342-.82,1.124,1.124,0,0,1,.811-.332h.645a1.124,1.124,0,0,1,.811.332,1.1,1.1,0,0,1,.342.82V-1.152a1.108,1.108,0,0,1-.342.811A1.108,1.108,0,0,1,19.932,0h-.176a1.243,1.243,0,0,1-.82-.293,1.3,1.3,0,0,1-.449-.742l-.02-.1a.066.066,0,0,0-.049-.02.066.066,0,0,0-.049.02A4.41,4.41,0,0,1,15.3.273Zm.762-2.422a2.484,2.484,0,0,0,1.973-1.035.389.389,0,0,0,.1-.254V-8.066a.315.315,0,0,0-.117-.254,2.955,2.955,0,0,0-1.953-.742,1.984,1.984,0,0,0-1.66.918,4.225,4.225,0,0,0-.664,2.52,4.645,4.645,0,0,0,.6,2.6A1.959,1.959,0,0,0,16.064-2.148Z" transform="translate(968 872)" fill="#fff"/>
    <path id="路径_6911" data-name="路径 6911" d="M-60.625,0a1.108,1.108,0,0,1-.811-.342,1.108,1.108,0,0,1-.342-.811V-13.73a1.108,1.108,0,0,1,.342-.811,1.108,1.108,0,0,1,.811-.342h1.27a1.1,1.1,0,0,1,.82.342,1.124,1.124,0,0,1,.332.811v4.355a.138.138,0,0,0,.156.156h4.609q.137,0,.137-.156V-13.73a1.108,1.108,0,0,1,.342-.811,1.108,1.108,0,0,1,.811-.342h1.23a1.1,1.1,0,0,1,.82.342,1.124,1.124,0,0,1,.332.811V-1.152a1.124,1.124,0,0,1-.332.811,1.1,1.1,0,0,1-.82.342h-1.23a1.108,1.108,0,0,1-.811-.342,1.108,1.108,0,0,1-.342-.811V-5.977a.121.121,0,0,0-.137-.137h-4.609q-.156,0-.156.137v4.824a1.124,1.124,0,0,1-.332.811,1.1,1.1,0,0,1-.82.342Zm19.18.273a5.677,5.677,0,0,1-4.15-1.6,5.826,5.826,0,0,1-1.631-4.355,6.62,6.62,0,0,1,.459-2.49,5.578,5.578,0,0,1,1.211-1.895,5.522,5.522,0,0,1,1.719-1.172,4.975,4.975,0,0,1,2-.42A4.428,4.428,0,0,1-38.2-10.137a6.08,6.08,0,0,1,1.25,3.984v.371a1.067,1.067,0,0,1-.41.811,1.371,1.371,0,0,1-.9.322h-5.371a.12.12,0,0,0-.1.049.108.108,0,0,0-.02.107,2.539,2.539,0,0,0,2.793,2.051,4.079,4.079,0,0,0,1.367-.234,1.534,1.534,0,0,1,.488-.078,1.627,1.627,0,0,1,.43.059,1.145,1.145,0,0,1,.684.547l.059.117a1.131,1.131,0,0,1,.176.586.885.885,0,0,1-.059.313.95.95,0,0,1-.547.684A7.135,7.135,0,0,1-41.445.273Zm-2.383-7.324q0,.1.137.1h3.574q.156,0,.156-.137v-.02a2.1,2.1,0,0,0-.479-1.338,1.666,1.666,0,0,0-1.318-.5,1.944,1.944,0,0,0-1.309.469A1.819,1.819,0,0,0-43.828-7.051ZM-31.992.273a3.192,3.192,0,0,1-2.451-1,3.474,3.474,0,0,1-.928-2.461A3.182,3.182,0,0,1-33.9-5.977a10.876,10.876,0,0,1,4.7-1.367q.156-.02.137-.156a1.485,1.485,0,0,0-1.7-1.328,4.78,4.78,0,0,0-1.953.488,1.245,1.245,0,0,1-.527.117,1.292,1.292,0,0,1-.371-.059,1.132,1.132,0,0,1-.684-.566l-.156-.293a1.213,1.213,0,0,1-.137-.547,1.616,1.616,0,0,1,.039-.352,1,1,0,0,1,.566-.664A8.856,8.856,0,0,1-30.1-11.66q4.609,0,4.609,5.2v5.313a1.108,1.108,0,0,1-.342.811A1.108,1.108,0,0,1-26.641,0h-.7a1.269,1.269,0,0,1-.82-.283,1.255,1.255,0,0,1-.449-.732l-.02-.078a.063.063,0,0,0-.059-.039.08.08,0,0,0-.059.02A4.9,4.9,0,0,1-31.992.273Zm1.23-2.754a2.276,2.276,0,0,0,1.621-.8.343.343,0,0,0,.1-.254V-5.059a.1.1,0,0,0-.117-.117H-29.2q-2.793.41-2.793,1.719a.861.861,0,0,0,.322.732A1.477,1.477,0,0,0-30.762-2.48ZM-18.984,0a1.551,1.551,0,0,1-.928-.3,1.637,1.637,0,0,1-.6-.791l-3.047-9.2a.991.991,0,0,1-.039-.273.78.78,0,0,1,.156-.469.783.783,0,0,1,.664-.352h1.289a1.437,1.437,0,0,1,.908.313,1.507,1.507,0,0,1,.537.8l1.074,4.141q.137.547.42,1.7t.439,1.738q0,.059.049.059t.068-.059q.234-1.035.82-3.437l1.113-4.141a1.507,1.507,0,0,1,.537-.8,1.437,1.437,0,0,1,.908-.312H-13.5a.8.8,0,0,1,.684.352.868.868,0,0,1,.156.488.928.928,0,0,1-.039.254l-2.969,9.2A1.526,1.526,0,0,1-16.24-.3a1.551,1.551,0,0,1-.928.3Zm9.766,4.434q-.293,0-.547-.02a.9.9,0,0,1-.723-.449,1.064,1.064,0,0,1-.176-.586,1.062,1.062,0,0,1,.039-.293l.117-.449a1.078,1.078,0,0,1,.488-.684,2.256,2.256,0,0,1,.9-.332A1.756,1.756,0,0,0-7.6.293l.137-.449A.4.4,0,0,0-7.48-.43l-3.887-9.824a.885.885,0,0,1-.059-.312.8.8,0,0,1,.137-.43.747.747,0,0,1,.645-.332h1.289a1.551,1.551,0,0,1,.928.3,1.526,1.526,0,0,1,.576.791L-6.7-6.621q.117.352.879,3.184a.07.07,0,0,0,.068.039q.049,0,.049-.039.2-.937.742-3.184l1-3.594a1.443,1.443,0,0,1,.547-.811,1.508,1.508,0,0,1,.918-.3h1.074A.765.765,0,0,1-.762-11a.779.779,0,0,1,.176.469.837.837,0,0,1-.059.293L-4.18.059a8.825,8.825,0,0,1-1.982,3.35A4.317,4.317,0,0,1-9.219,4.434Z" transform="translate(1120 872)" fill="#fff"/>
  </g>
</svg>
