<svg xmlns="http://www.w3.org/2000/svg" width="1148" height="240" viewBox="0 0 1148 240">
  <g id="gensen" transform="translate(0 -721)">
    <g id="组_4854" data-name="组 4854" transform="translate(0 721)">
      <rect id="矩形_3596" data-name="矩形 3596" width="1148" height="240" fill="#313740"/>
      <rect id="矩形_3598" data-name="矩形 3598" width="8" height="124" transform="translate(36 36)" fill="#48d7dd"/>
    </g>
    <path id="路径_6912" data-name="路径 6912" d="M0,0H120V240H0Z" transform="translate(1028 721)" fill="#313740"/>
    <path id="路径_6913" data-name="路径 6913" d="M0,0H120V240H0Z" transform="translate(908 721)" fill="#313740"/>
    <path id="路径_6914" data-name="路径 6914" d="M0,0H120V240H0Z" transform="translate(788 721)" fill="#313740"/>
    <path id="路径_6915" data-name="路径 6915" d="M0,0H120V240H0Z" transform="translate(668 721)" fill="#313740"/>
    <path id="路径_6916" data-name="路径 6916" d="M0,0H120V240H0Z" transform="translate(548 721)" fill="#313740"/>
    <path id="路径_6917" data-name="路径 6917" d="M0,0H120V240H0Z" transform="translate(428 721)" fill="#313740"/>
    <path id="路径_6918" data-name="路径 6918" d="M23.56,3q-1.6,0-1.92-1A.944.944,0,0,1,21.92.84,2.227,2.227,0,0,1,23.36.52H25.2q.68-.04.68-.6V-10.76H21.12a2.272,2.272,0,0,1-1.68-.64,2.272,2.272,0,0,1-.64-1.68v-9.08a2.272,2.272,0,0,1,.64-1.68,2.272,2.272,0,0,1,1.68-.64h4q.52-2.2.84-4.32h-8.6a.742.742,0,0,0-.84.84v7.32q0,14.56-4.48,22.2A1.326,1.326,0,0,1,10,2.12q-1.24-.8-.32-2.24A29.56,29.56,0,0,0,13-10.44a69.08,69.08,0,0,0,.64-10.2V-29.2a2.272,2.272,0,0,1,.64-1.68,2.272,2.272,0,0,1,1.68-.64h20.4a1.2,1.2,0,0,1,1.36,1.36,1.2,1.2,0,0,1-1.36,1.36H29l.2.04q-.08.24-.2.72-.72,2.44-1.04,3.56h5.92a2.272,2.272,0,0,1,1.68.64,2.272,2.272,0,0,1,.64,1.68v9.08a2.272,2.272,0,0,1-.64,1.68,2.272,2.272,0,0,1-1.68.64h-5.2V-.04a4.623,4.623,0,0,1-.24,1.72,1.871,1.871,0,0,1-1.12.92A11.257,11.257,0,0,1,23.56,3ZM6,1.12q-.68,1.4-2.08.48Q2.64.8,3.28-.36,4.8-3.24,5.64-5.08q1.24-2.6,2.44-5.44.6-1.52,1.96-.52a1.329,1.329,0,0,1,.56,1.76Q8.56-4.28,6,1.12ZM18.52-.2a1.252,1.252,0,0,1-1.84.28q-1.32-.84-.24-2.04a24.408,24.408,0,0,0,3.28-5.4,1.318,1.318,0,0,1,1.68-.88,1.133,1.133,0,0,1,.88,1.72,22.691,22.691,0,0,1-1.76,3.36A31.811,31.811,0,0,1,18.52-.2ZM37.24-.4q-1.4.68-1.92-.56a28.417,28.417,0,0,0-1.36-2.68Q33.08-5.2,32.2-6.56q-.92-1.28.56-1.88a1.3,1.3,0,0,1,1.76.48,36.9,36.9,0,0,1,3.52,6,1.111,1.111,0,0,1,.04.96A2.336,2.336,0,0,1,37.24-.4ZM22.28-13.04H32.64a.742.742,0,0,0,.84-.84v-2.68H21.44v2.68A.742.742,0,0,0,22.28-13.04ZM9.4-17.36q-.92,1.32-2,.4a20.113,20.113,0,0,0-1.84-1.28A22.062,22.062,0,0,0,3.2-19.6q-1.44-.68-.44-1.92a1.326,1.326,0,0,1,1.76-.44,26.148,26.148,0,0,1,4.8,2.84,1.092,1.092,0,0,1,.48.8A1.761,1.761,0,0,1,9.4-17.36Zm12.04-1.36H33.48v-2.64a.742.742,0,0,0-.84-.84H22.28a.742.742,0,0,0-.84.84Zm-10.2-9q-1,1.28-2,.28-.92-.72-1.84-1.32-1.2-.84-2.32-1.48-1.32-.68-.36-1.92a1.247,1.247,0,0,1,1.72-.4,27.351,27.351,0,0,1,4.8,3.08Q12.04-28.76,11.24-27.72ZM55.04,3.04q-1.72,0-2.08-1.08A.973.973,0,0,1,53.28.68a2.662,2.662,0,0,1,1.6-.32,22.117,22.117,0,0,0,2.76,0A1.014,1.014,0,0,0,58.3.2a.786.786,0,0,0,.18-.6V-15.32H49.04a2.272,2.272,0,0,1-1.68-.64,2.272,2.272,0,0,1-.64-1.68v-10a2.272,2.272,0,0,1,.64-1.68,2.272,2.272,0,0,1,1.68-.64h7.64q.72-1.36,1.12-2.32a1.6,1.6,0,0,1,2-1.12q2,.36.88,2.2-.12.2-.38.62a6.738,6.738,0,0,1-.42.62H71a2.272,2.272,0,0,1,1.68.64,2.272,2.272,0,0,1,.64,1.68v10a2.272,2.272,0,0,1-.64,1.68,2.272,2.272,0,0,1-1.68.64H61.4v.48a22.345,22.345,0,0,0,3.84,5.96,56.683,56.683,0,0,0,7-5.28,1.351,1.351,0,0,1,1.96,0q1.44,1.08.04,2.16a87.261,87.261,0,0,1-7.32,4.88,24.793,24.793,0,0,0,9.24,5.6q2.2.64,1.04,2.2a1.838,1.838,0,0,1-2.24.6A26.873,26.873,0,0,1,61.4-9.8V-.36a4.259,4.259,0,0,1-.36,1.98,2.194,2.194,0,0,1-1.28.98A16.812,16.812,0,0,1,55.04,3.04ZM44.64,1.32A1.435,1.435,0,0,1,42.68.84a1.267,1.267,0,0,1-.36-1.22,1.946,1.946,0,0,1,1.08-.9,20.037,20.037,0,0,0,5.16-3.56,18.449,18.449,0,0,0,3.8-5.04H44.48a1.167,1.167,0,0,1-1.32-1.32,1.167,1.167,0,0,1,1.32-1.32h8.96q2.64,0,1.64,2.92A21.27,21.27,0,0,1,44.64,1.32Zm5.84-19.04H69.44a.742.742,0,0,0,.84-.84v-3H49.64v3A.742.742,0,0,0,50.48-17.72Zm-.84-6.08H70.28v-2.96a.742.742,0,0,0-.84-.84H50.48a.742.742,0,0,0-.84.84ZM85.88,1.32A2.272,2.272,0,0,1,84.2.68,2.272,2.272,0,0,1,83.56-1V-29.32A2.272,2.272,0,0,1,84.2-31a2.272,2.272,0,0,1,1.68-.64h28.24a2.272,2.272,0,0,1,1.68.64,2.272,2.272,0,0,1,.64,1.68V-1A2.272,2.272,0,0,1,115.8.68a2.272,2.272,0,0,1-1.68.64ZM87.2-1.36h25.52a.742.742,0,0,0,.84-.84V-28.08a.742.742,0,0,0-.84-.84H87.2a.742.742,0,0,0-.84.84V-2.2A.742.742,0,0,0,87.2-1.36Zm22.56-1.56a1.366,1.366,0,0,1-1.36,0,31.98,31.98,0,0,0-4.76-2.44q-.88-.36-.96-.86t.64-.98l.08-.08H95.92l1.16.36q.44.16.5.4t-.26.44A27.951,27.951,0,0,1,91.2-2.92a1.359,1.359,0,0,1-1.52-.28q-1.12-1.04.56-1.64a23.074,23.074,0,0,0,5.48-2.44H92.8a2.272,2.272,0,0,1-1.68-.64,2.272,2.272,0,0,1-.64-1.68v-7.64a2.272,2.272,0,0,1,.64-1.68,2.272,2.272,0,0,1,1.68-.64h14.28a2.272,2.272,0,0,1,1.68.64,2.272,2.272,0,0,1,.64,1.68V-9.6a2.272,2.272,0,0,1-.64,1.68,2.272,2.272,0,0,1-1.68.64h-3.52a45.926,45.926,0,0,1,6.52,2.84q.68.44.58.8T109.76-2.92ZM93.88-9h12.04a.742.742,0,0,0,.84-.84v-1.08H93.04v1.08A.742.742,0,0,0,93.88-9Zm-.84-3.56h13.72V-14.4H93.04Zm0-3.48h13.72v-1.04a.707.707,0,0,0-.8-.8H93.88a.742.742,0,0,0-.84.84Zm1.48-5a2.272,2.272,0,0,1-1.68-.64,2.272,2.272,0,0,1-.64-1.68v-1a2.272,2.272,0,0,1,.64-1.68,2.272,2.272,0,0,1,1.68-.64h10.96a2.272,2.272,0,0,1,1.68.64,2.272,2.272,0,0,1,.64,1.68v1a2.272,2.272,0,0,1-.64,1.68,2.272,2.272,0,0,1-1.68.64Zm.96-1.68h8.92a.742.742,0,0,0,.84-.84v-.6a.742.742,0,0,0-.84-.84H95.48a.742.742,0,0,0-.84.84v.6A.742.742,0,0,0,95.48-22.72Zm30.8,25.76a1.1,1.1,0,0,1-1.24-1.24V-15.28h-1.28a.884.884,0,0,1-1-1v-2.56a2.135,2.135,0,0,1,.58-1.58,2.135,2.135,0,0,1,1.58-.58h.12v-8.76a2.272,2.272,0,0,1,.64-1.68,2.272,2.272,0,0,1,1.68-.64h6.4a2.272,2.272,0,0,1,1.68.64,2.272,2.272,0,0,1,.64,1.68V-21h1.28a.919.919,0,0,1,1.04,1.04v3.52a1.025,1.025,0,0,1-1.16,1.16,1.025,1.025,0,0,1-1.16-1.16v-1.6a.742.742,0,0,0-.84-.84h-9.36a.742.742,0,0,0-.84.84v1.84h8.68a2.272,2.272,0,0,1,1.68.64,2.272,2.272,0,0,1,.64,1.68V.28q0,1.8-1.08,2.32a8.8,8.8,0,0,1-2.76.44q-1.48,0-1.8-.96a.812.812,0,0,1,.24-1.04,1.992,1.992,0,0,1,1.28-.28q.28,0,.76-.04H133a.424.424,0,0,0,.48-.48v-4.2h-5.96V1.8A1.1,1.1,0,0,1,126.28,3.04ZM139,2.32a.99.99,0,0,1-1.12-1.12A.99.99,0,0,1,139,.08h4.88a18.215,18.215,0,0,0-.96-2.88.981.981,0,0,1,.64-1.56,1.081,1.081,0,0,1,1.44.6,23.309,23.309,0,0,1,1.16,3.28q.08.32-.32.52l-.12.04H150l-.28-.12a.035.035,0,0,1-.04-.04,34.145,34.145,0,0,0,1.48-3.48,1.074,1.074,0,0,1,1.52-.8q1.24.4.64,1.68-.8,1.68-1.4,2.76h5.12a.99.99,0,0,1,1.12,1.12.99.99,0,0,1-1.12,1.12H139Zm3.84-7.08a2.272,2.272,0,0,1-1.68-.64,2.272,2.272,0,0,1-.64-1.68V-9.8a2.272,2.272,0,0,1,.64-1.68,2.272,2.272,0,0,1,1.68-.64h10.64a2.272,2.272,0,0,1,1.68.64,2.272,2.272,0,0,1,.64,1.68v2.72a2.272,2.272,0,0,1-.64,1.68,2.272,2.272,0,0,1-1.68.64ZM127.52-6.12h5.96v-3h-5.96Zm16.24-.6h8.68a.742.742,0,0,0,.84-.84V-9.32a.742.742,0,0,0-.84-.84h-8.68a.742.742,0,0,0-.84.84v1.76A.742.742,0,0,0,143.76-6.72ZM127.52-11.2h5.96v-2a.742.742,0,0,0-.84-.84h-5.12Zm12.12-2.84q-1.08,0-1.08-1.12a.955.955,0,0,1,1.08-1.08H156.8a.955.955,0,0,1,1.08,1.08q0,1.12-1.08,1.12Zm2.44-4.16a2.272,2.272,0,0,1-1.68-.64,2.272,2.272,0,0,1-.64-1.68v-6.96a2.272,2.272,0,0,1,.64-1.68,2.272,2.272,0,0,1,1.68-.64h2.36v-2.56q0-1.08,1.12-1.08a.955.955,0,0,1,1.08,1.08v2.56h2.84v-2.56q0-1.08,1.12-1.08a.955.955,0,0,1,1.08,1.08v2.56h2.56a2.243,2.243,0,0,1,1.66.62,2.243,2.243,0,0,1,.62,1.66v7a2.272,2.272,0,0,1-.64,1.68,2.272,2.272,0,0,1-1.68.64H142.08Zm.76-2.08h1.96v-2.76H142v1.92A.742.742,0,0,0,142.84-20.28Zm3.8,0h2.84v-2.76h-2.84Zm4.64,0h2.32a.53.53,0,0,0,.6-.6v-2.16h-2.92Zm-24-.72h2.08v-3.88a2.272,2.272,0,0,1,.64-1.68,2.272,2.272,0,0,1,1.68-.64h2.08v-1.76a.742.742,0,0,0-.84-.84h-4.8a.742.742,0,0,0-.84.84Zm3.92,0h2.56v-4.32h-1.72a.742.742,0,0,0-.84.84V-21ZM142-25h2.8v-2.72h-2.24a.5.5,0,0,0-.56.56Zm4.64,0h2.84v-2.72h-2.84Zm4.64,0h2.92v-1.88a.742.742,0,0,0-.84-.84h-2.08Z" transform="translate(68 798)" fill="#fff"/>
    <path id="路径_6919" data-name="路径 6919" d="M12.96,1.42q-.4,0-.5-.24-.14-.36.46-.36A20.279,20.279,0,0,0,15.18.8.528.528,0,0,0,15.5.7a.426.426,0,0,0,.08-.3V-5.92H8.12a.265.265,0,0,1-.3-.3.265.265,0,0,1,.3-.3h7.46V-9.5H7.88a.265.265,0,0,1-.3-.3.265.265,0,0,1,.3-.3H13v-3.36H9.04a.265.265,0,0,1-.3-.3.265.265,0,0,1,.3-.3H13v-2.28q0-.28.3-.28a.247.247,0,0,1,.28.28v2.28h4.04a.265.265,0,0,1,.3.3.265.265,0,0,1-.3.3H13.58v3.36h5a.265.265,0,0,1,.3.3.265.265,0,0,1-.3.3h-2.4v2.98h2.38a.265.265,0,0,1,.3.3.265.265,0,0,1-.3.3H16.18V.38a1.138,1.138,0,0,1-.14.64.868.868,0,0,1-.5.3A17.7,17.7,0,0,1,12.96,1.42ZM5.12,1.4q-.3,0-.3-.28V-6.12Q3.24-5.58,1.44-5q-.26.08-.36-.22t.16-.38q.68-.2,2.34-.72.82-.24,1.24-.38v-4.98H2.5A22.648,22.648,0,0,1,1.6-8.6a.263.263,0,0,1-.4.13q-.28-.13-.18-.37a24.138,24.138,0,0,0,1.46-6.34q.04-.32.34-.26a.276.276,0,0,1,.24.32q-.14,1.26-.44,2.84h2.2V-16.3q0-.28.3-.28a.247.247,0,0,1,.28.28v4.02H7.54a.265.265,0,0,1,.3.3.265.265,0,0,1-.3.3H5.4v4.8q.46-.16,1.42-.46L7.9-7.7q.28-.1.32.2a.283.283,0,0,1-.18.32L5.4-6.3V1.12A.247.247,0,0,1,5.12,1.4Zm7.02-2.62q-.28.16-.4-.08a9.633,9.633,0,0,0-.98-1.46,14.67,14.67,0,0,0-1.34-1.5q-.24-.24.06-.38a.286.286,0,0,1,.36.06,13.926,13.926,0,0,1,2.46,3Q12.4-1.38,12.14-1.22Zm12.8,2.6a.247.247,0,0,1-.28-.28V-7.34l-3.4.26a.289.289,0,0,1-.36-.26q-.06-.34.28-.36l1.12-.06q.56-.64,1.56-2.02a17.739,17.739,0,0,0-2.58-2.84q-.2-.14,0-.34a.209.209,0,0,1,.32-.02,3.382,3.382,0,0,1,.52.46,35.922,35.922,0,0,0,2.1-3.84q.12-.24.4-.09t.14.39a40.432,40.432,0,0,1-2.26,3.9,14.352,14.352,0,0,1,1.7,1.92q1.5-2.18,2.48-3.94.12-.22.42-.09t.14.39a57.94,57.94,0,0,1-4.22,6.06l3.26-.2q.72-.06,1.1-.08a13.56,13.56,0,0,0-1.04-1.68q-.18-.26.12-.38a.264.264,0,0,1,.36.1,17.371,17.371,0,0,1,2.06,3.64.258.258,0,0,1-.16.32q-.3.14-.4-.1-.28-.68-.64-1.36l-2.46.18V1.1A.247.247,0,0,1,24.94,1.38Zm5-1.28a.548.548,0,0,1-.62-.62V-14.3a.548.548,0,0,1,.62-.62H37.7a.548.548,0,0,1,.62.62V-.52A.548.548,0,0,1,37.7.1ZM21.62-.64a.277.277,0,0,1-.42.14q-.26-.12-.12-.4a15.791,15.791,0,0,0,1.26-4.28q.06-.34.36-.28a.27.27,0,0,1,.24.36,20.677,20.677,0,0,1-.56,2.46A12.5,12.5,0,0,1,21.62-.64ZM30.1-.5h3.3V-7.32H29.9V-.7A.177.177,0,0,0,30.1-.5ZM34-.5h3.54a.177.177,0,0,0,.2-.2V-7.32H34ZM28.22-1.58q-.28.08-.32-.18a15.828,15.828,0,0,0-1.18-3.42q-.12-.26.14-.32a.252.252,0,0,1,.32.12,17.7,17.7,0,0,1,.79,1.82,14.718,14.718,0,0,1,.51,1.66Q28.52-1.68,28.22-1.58ZM29.9-7.9h3.5v-6.44H30.1a.177.177,0,0,0-.2.2Zm4.1,0h3.74v-6.24a.177.177,0,0,0-.2-.2H34Z" transform="translate(468 802)" fill="#fff"/>
    <path id="路径_6920" data-name="路径 6920" d="M4.94,1.42Q4.5,1.42,4.5,1V-7.16l-1.58.12q-1.08.08-1.56.12Q.96-6.86.9-7.3q-.1-.48.42-.52l1-.06q.6-.74,1.38-1.84A13.2,13.2,0,0,0,1.32-12.4a.361.361,0,0,1-.06-.56.346.346,0,0,1,.56-.06,1.722,1.722,0,0,1,.18.15q.12.11.18.17a27.149,27.149,0,0,0,1.88-3.6q.16-.4.59-.19a.406.406,0,0,1,.23.61,35.077,35.077,0,0,1-2.14,3.72,11.745,11.745,0,0,1,1.48,1.72,36.879,36.879,0,0,0,2.26-3.64.417.417,0,0,1,.62-.16q.46.22.2.62A55.468,55.468,0,0,1,3.32-7.96q1.4-.1,3.82-.24a10.4,10.4,0,0,0-.82-1.4q-.28-.4.18-.58a.408.408,0,0,1,.54.16A18.3,18.3,0,0,1,8.9-6.56q.12.3-.24.48-.46.22-.58-.16-.24-.58-.54-1.2l-2.18.2V1A.371.371,0,0,1,4.94,1.42ZM10.06.14a.811.811,0,0,1-.6-.22.811.811,0,0,1-.22-.6V-14.2a.811.811,0,0,1,.22-.6.811.811,0,0,1,.6-.22h7.5a.811.811,0,0,1,.6.22.811.811,0,0,1,.22.6V-.68a.811.811,0,0,1-.22.6.811.811,0,0,1-.6.22Zm-8.2-.8a.393.393,0,0,1-.58.22q-.44-.2-.22-.6A15.5,15.5,0,0,0,2.16-5a.424.424,0,0,1,.52-.38.387.387,0,0,1,.36.5Q2.82-3.7,2.52-2.56A14.219,14.219,0,0,1,1.86-.66Zm8.56-.1h2.84V-7.14H10.14v6.1A.247.247,0,0,0,10.42-.76Zm3.72,0h3.04a.247.247,0,0,0,.28-.28v-6.1H14.14ZM8.22-1.52q-.44.14-.52-.24A19.472,19.472,0,0,0,6.64-4.92a.326.326,0,0,1,.24-.5.341.341,0,0,1,.48.18,14.876,14.876,0,0,1,.7,1.72,10.626,10.626,0,0,1,.48,1.56Q8.6-1.64,8.22-1.52Zm1.92-6.54h3.12V-14.1H10.42a.247.247,0,0,0-.28.28Zm4,0h3.32v-5.76a.247.247,0,0,0-.28-.28H14.14Zm8.9,9.52a.371.371,0,0,1-.42-.42V-7.22a.811.811,0,0,1,.22-.6.811.811,0,0,1,.6-.22h3.54a.811.811,0,0,1,.6.22.811.811,0,0,1,.22.6V.38q0,.74-.48.92a5.333,5.333,0,0,1-1.58.14q-.54,0-.66-.32-.18-.44.56-.44.88,0,1-.02.3,0,.3-.28V-2.14H23.46V1.04A.371.371,0,0,1,23.04,1.46ZM29.16,1a.354.354,0,0,1-.4-.4.354.354,0,0,1,.4-.4h2.88a7.5,7.5,0,0,0-.56-1.82q-.22-.42.22-.54a.384.384,0,0,1,.5.22,8.28,8.28,0,0,1,.6,1.62q.08.36-.34.5L32.4.2h2.84L34.98.1a.135.135,0,0,1-.08-.18,16.786,16.786,0,0,0,.74-1.8.363.363,0,0,1,.54-.27q.42.15.22.61Q35.84-.32,35.56.2H38.6a.354.354,0,0,1,.4.4.354.354,0,0,1-.4.4H29.16Zm1.88-3.4a.811.811,0,0,1-.6-.22.811.811,0,0,1-.22-.6V-5.18a.811.811,0,0,1,.22-.6.811.811,0,0,1,.6-.22h5.8a.811.811,0,0,1,.6.22.811.811,0,0,1,.22.6v1.96a.811.811,0,0,1-.22.6.811.811,0,0,1-.6.22Zm-7.58-.52h3.48v-1.8H23.46Zm7.88-.22h5.18a.247.247,0,0,0,.28-.28V-4.98a.247.247,0,0,0-.28-.28H31.34a.247.247,0,0,0-.28.28v1.56A.247.247,0,0,0,31.34-3.14ZM23.46-5.52h3.48V-6.98a.247.247,0,0,0-.28-.28H23.74a.247.247,0,0,0-.28.28Zm6-1.64a.354.354,0,0,1-.4-.4.354.354,0,0,1,.4-.4h9.06a.354.354,0,0,1,.4.4.354.354,0,0,1-.4.4ZM21.9-7.72a.354.354,0,0,1-.4-.4v-1.5a.811.811,0,0,1,.22-.6.811.811,0,0,1,.6-.22h.32v-4.64a.811.811,0,0,1,.22-.6.811.811,0,0,1,.6-.22h3.52a.811.811,0,0,1,.6.22.811.811,0,0,1,.22.6v4.64h.64a.442.442,0,0,1,.5.5v1.82a.354.354,0,0,1-.4.4q-.42,0-.42-.4V-9.38a.247.247,0,0,0-.28-.28H22.58a.247.247,0,0,0-.28.28v1.26A.354.354,0,0,1,21.9-7.72Zm8.7-1.42a.811.811,0,0,1-.6-.22.811.811,0,0,1-.22-.6V-13.9a.811.811,0,0,1,.22-.6.811.811,0,0,1,.6-.22h1.62v-1.56q0-.38.4-.38a.336.336,0,0,1,.38.38v1.56h1.76v-1.56q0-.38.4-.38a.336.336,0,0,1,.38.38v1.56h1.74a.811.811,0,0,1,.6.22.811.811,0,0,1,.22.6v3.94a.811.811,0,0,1-.22.6.811.811,0,0,1-.6.22H30.6Zm.26-.76H32.3v-1.66H30.58v1.38A.247.247,0,0,0,30.86-9.9ZM33-9.9h1.76v-1.66H33Zm2.46,0h1.52a.247.247,0,0,0,.28-.28v-1.38h-1.8Zm-12.04-.54H24.7V-12.7a.811.811,0,0,1,.22-.6.811.811,0,0,1,.6-.22h1.46v-1.3a.247.247,0,0,0-.28-.28h-3a.247.247,0,0,0-.28.28Zm2,0h1.56v-2.34H25.7a.247.247,0,0,0-.28.28Zm5.16-1.9H32.3v-1.62H30.86a.247.247,0,0,0-.28.28Zm2.42,0h1.76v-1.62H33Zm2.46,0h1.8v-1.34a.247.247,0,0,0-.28-.28H35.46Z" transform="translate(588 802)" fill="#fff"/>
    <path id="路径_6921" data-name="路径 6921" d="M10.26,1.54A.663.663,0,0,1,9.5.8V-3.72H5.04a.371.371,0,0,0-.42.42V-.1a.654.654,0,0,1-.74.74A.654.654,0,0,1,3.14-.1V-3.92a1.136,1.136,0,0,1,.32-.84,1.136,1.136,0,0,1,.84-.32H9.5V-6.72H6.08a1.136,1.136,0,0,1-.84-.32,1.136,1.136,0,0,1-.32-.84V-9.76a1.136,1.136,0,0,1,.32-.84,1.136,1.136,0,0,1,.84-.32h8a1.136,1.136,0,0,1,.84.32,1.136,1.136,0,0,1,.32.84v1.88a1.136,1.136,0,0,1-.32.84,1.136,1.136,0,0,1-.84.32H11v1.64h4.9a1.136,1.136,0,0,1,.84.32,1.136,1.136,0,0,1,.32.84V-.9a2.287,2.287,0,0,1-.14.92A1.107,1.107,0,0,1,16.3.5a7.129,7.129,0,0,1-2.28.24q-.88,0-1.06-.54a.486.486,0,0,1,.16-.64,1.331,1.331,0,0,1,.8-.16,9.253,9.253,0,0,0,1.26,0,.677.677,0,0,0,.32-.08.288.288,0,0,0,.08-.24V-3.3a.371.371,0,0,0-.42-.42H11V.8A.654.654,0,0,1,10.26,1.54ZM6.74-7.84h6.62a.371.371,0,0,0,.42-.42V-9.38a.371.371,0,0,0-.42-.42H6.74a.371.371,0,0,0-.42.42v1.12A.371.371,0,0,0,6.74-7.84ZM2.56-9.36a.619.619,0,0,1-.7-.7v-2.42a1.136,1.136,0,0,1,.32-.84,1.136,1.136,0,0,1,.84-.32H5.04A11.931,11.931,0,0,0,4-15.3q-.52-.68.28-1.02a.7.7,0,0,1,.88.2q.46.56.8,1.04a.885.885,0,0,1,.09.76.993.993,0,0,1-.57.58l-.24.1H9.38V-16a.663.663,0,0,1,.76-.74.654.654,0,0,1,.74.74v2.36h6.24a1.136,1.136,0,0,1,.84.32,1.136,1.136,0,0,1,.32.84v2.4a.636.636,0,0,1-.72.72.636.636,0,0,1-.72-.72v-1.84a.371.371,0,0,0-.42-.42H3.68a.371.371,0,0,0-.42.42v1.86A.619.619,0,0,1,2.56-9.36ZM15-13.98a.627.627,0,0,1-.78.14q-.72-.32-.28-.86.3-.42.86-1.26a.779.779,0,0,1,1.02-.38q.86.3.26,1.08-.14.16-.42.52A8.453,8.453,0,0,1,15-13.98ZM28.56,1.18q-.78.32-1.12-.14A.49.49,0,0,1,27.4.4a1.419,1.419,0,0,1,.66-.46,5.021,5.021,0,0,0,2.22-2,7.618,7.618,0,0,0,.84-2.84h-.86a.7.7,0,0,1-.52-.2.7.7,0,0,1-.2-.52V-14.8a1.136,1.136,0,0,1,.32-.84,1.136,1.136,0,0,1,.84-.32h6.12a1.136,1.136,0,0,1,.84.32,1.136,1.136,0,0,1,.32.84v8.74a1.136,1.136,0,0,1-.32.84,1.136,1.136,0,0,1-.84.32h-1.2V-.66a.667.667,0,0,0,.09.43.623.623,0,0,0,.41.09h1.24a.349.349,0,0,0,.32-.16,1.762,1.762,0,0,0,.18-.7,2.611,2.611,0,0,1,.22-1.04q.24-.56.62-.38.22.1.32.56a2.546,2.546,0,0,1,.06.72A4.194,4.194,0,0,1,38.62.7a1.254,1.254,0,0,1-1.1.48h-1.6A1.656,1.656,0,0,1,34.6.78a2.279,2.279,0,0,1-.32-1.44V-4.9H32.52a9.455,9.455,0,0,1-1.08,3.62A6.208,6.208,0,0,1,28.56,1.18ZM22.54.72q-.64.58-1.12.06-.5-.56.2-1.16,2.34-2.32,2.62-7.1H21.7a.592.592,0,0,1-.66-.68.583.583,0,0,1,.66-.66h2.6V-12.1H22.1a.583.583,0,0,1-.66-.66.583.583,0,0,1,.66-.66h2.2v-2.42a.6.6,0,0,1,.68-.68.6.6,0,0,1,.68.68v2.42H27.8a.583.583,0,0,1,.66.66.583.583,0,0,1-.66.66H25.66v3.28h2.5a.583.583,0,0,1,.66.66.592.592,0,0,1-.66.68H25.6q-.02.42-.1,1.16,1.1,1.1,3.12,3.44a.409.409,0,0,1,.14.4,1.182,1.182,0,0,1-.28.38l-.04.04a.926.926,0,0,1-.5.36q-.22.02-.44-.3-1.02-1.4-2.22-2.8A10.332,10.332,0,0,1,22.54.72Zm8.8-6.96h4.8a.371.371,0,0,0,.42-.42V-8.24H30.92v1.58A.371.371,0,0,0,31.34-6.24Zm-.42-3.22h5.64v-1.96H30.92Zm0-3.2h5.64v-1.52a.371.371,0,0,0-.42-.42h-4.8a.371.371,0,0,0-.42.42Z" transform="translate(708 802)" fill="#fff"/>
    <path id="路径_6922" data-name="路径 6922" d="M2.62.64Q1.7,1.44,1.2.42a.953.953,0,0,1,.28-1.3q1.18-.88,1.96-1.54V-5.46a.424.424,0,0,0-.48-.48H1.88a.76.76,0,0,1-.86-.86.76.76,0,0,1,.86-.86H4.22a.973.973,0,0,1,.72.26.973.973,0,0,1,.26.72v4.1Q6.52-.6,9.92-.48q3.64.16,8.1-.06.62-.04.8.18T18.8.46a1.109,1.109,0,0,1-.32.56,1.034,1.034,0,0,1-.6.18q-4.78.16-7.94.04A9.886,9.886,0,0,1,6.7.64a5.675,5.675,0,0,1-2.26-1.7Q3.9-.52,2.74.54A1.169,1.169,0,0,0,2.62.64ZM15.88-1.52q-.92.04-1.14-.62-.3-.92.98-.88.14,0,.34-.02h.12q.32,0,.32-.3v-6.74a.424.424,0,0,0-.48-.48H13.1v1.22h2.08a.53.53,0,0,1,.6.6.53.53,0,0,1-.6.6H13.1v1.26h1.06a.932.932,0,0,1,.69.25.932.932,0,0,1,.25.69v1.46a1.271,1.271,0,0,1-.36.94,1.271,1.271,0,0,1-.94.36H11.1a1.271,1.271,0,0,1-.94-.36,1.271,1.271,0,0,1-.36-.94v-1.1a1.271,1.271,0,0,1,.36-.94,1.271,1.271,0,0,1,.94-.36h.62V-8.14H9.66a.53.53,0,0,1-.6-.6.53.53,0,0,1,.6-.6h2.06v-1.22H8.94a.424.424,0,0,0-.48.48v7.74a.725.725,0,0,1-.82.82.734.734,0,0,1-.84-.82v-8.38a1.271,1.271,0,0,1,.36-.94,1.271,1.271,0,0,1,.94-.36H9.2a8.125,8.125,0,0,0-.42-1.14q-.24-.46.26-.6l.06-.02H6.5a.283.283,0,0,1-.32-.32v-.06l-.68.64a.924.924,0,0,1-.58.26.678.678,0,0,1-.5-.2,12.288,12.288,0,0,0-1.74-1.42q-.84-.56-.12-1.22a.792.792,0,0,1,1.06-.1,11.213,11.213,0,0,1,2.56,2v-.58a.407.407,0,0,1,.46-.46h4.8v-.64a.787.787,0,0,1,.9-.88.778.778,0,0,1,.88.88v.64h4.84a.636.636,0,0,1,.72.72.645.645,0,0,1-.72.74H16.12l.18.04q.06.04.04.08-.54,1.08-.88,1.64h1.42a1.271,1.271,0,0,1,.94.36,1.271,1.271,0,0,1,.36.94v7.38a2.582,2.582,0,0,1-.14.98,1.047,1.047,0,0,1-.56.56A4.666,4.666,0,0,1,15.88-1.52ZM11.58-4.3H13.3a.424.424,0,0,0,.48-.48V-5.3a.424.424,0,0,0-.48-.48H11.58a.424.424,0,0,0-.48.48v.52A.424.424,0,0,0,11.58-4.3ZM5-9.66a.794.794,0,0,1-1.28.06q-.4-.36-.8-.66-.1-.08-.32-.22-.42-.3-.64-.44-.86-.48-.12-1.18a.788.788,0,0,1,1-.18A13.91,13.91,0,0,1,5.06-10.8a.713.713,0,0,1,.28.56A1,1,0,0,1,5-9.66Zm5.84-2.36h2.94a14.3,14.3,0,0,0,.74-1.76h-4.3a7.25,7.25,0,0,1,.7,1.74ZM29.96,1.56A.849.849,0,0,1,29,.6V-4.8H23.32a1.271,1.271,0,0,1-.94-.36,1.271,1.271,0,0,1-.36-.94v-5.88a1.271,1.271,0,0,1,.36-.94,1.271,1.271,0,0,1,.94-.36H29V-15.8a.849.849,0,0,1,.96-.96.849.849,0,0,1,.96.96v2.52h5.76a1.271,1.271,0,0,1,.94.36,1.271,1.271,0,0,1,.36.94V-6.1a1.271,1.271,0,0,1-.36.94,1.271,1.271,0,0,1-.94.36H30.92V.6A.849.849,0,0,1,29.96,1.56ZM24.34-6.62H29v-4.84H24.34a.424.424,0,0,0-.48.48V-7.1A.424.424,0,0,0,24.34-6.62Zm6.58,0h4.66a.424.424,0,0,0,.48-.48v-3.88a.424.424,0,0,0-.48-.48H30.92Z" transform="translate(828 802)" fill="#fff"/>
    <path id="路径_6923" data-name="路径 6923" d="M5.02,1.7A.964.964,0,0,1,3.92.62v-5.5a24.33,24.33,0,0,1-1.2,2.92q-.48.82-.84.79t-.76-.91a1.68,1.68,0,0,1-.17-.8,1.564,1.564,0,0,1,.31-.74A19.463,19.463,0,0,0,3.38-8.1H2.18a.981.981,0,0,1-1.1-1.12.972.972,0,0,1,1.1-1.1H3.92v-5.52a.964.964,0,0,1,1.1-1.08A.955.955,0,0,1,6.1-15.84v5.52H7.68a.972.972,0,0,1,1.1,1.1A.981.981,0,0,1,7.68-8.1H6.1v.32A34.252,34.252,0,0,1,8.46-5.22a.857.857,0,0,1,.26.64,1.784,1.784,0,0,1-.36.64q-.46.62-.82.6t-.74-.7q-.22-.38-.7-1.14V.62A.955.955,0,0,1,5.02,1.7Zm3.96-.34A.972.972,0,0,1,7.88.26a.972.972,0,0,1,1.1-1.1H9.7V-14.86a1.271,1.271,0,0,1,.36-.94,1.271,1.271,0,0,1,.94-.36h5.48a1.271,1.271,0,0,1,.94.36,1.271,1.271,0,0,1,.36.94V-.84h.36a.972.972,0,0,1,1.1,1.1.972.972,0,0,1-1.1,1.1H8.98Zm2.98-2.2H15.4V-3.88H11.96Zm0-5.16H15.4V-8.94H11.96Zm-4.1-5.42a.7.7,0,0,1-.94.4q-.8-.22-.58-.9a29.9,29.9,0,0,0,.72-3,.88.88,0,0,1,1.17-.82q.99.2.69,1.24-.24.74-.48,1.5-.04.14-.14.4Q8.02-11.78,7.86-11.42Zm-4.9.38a1.093,1.093,0,0,1-.78,0,.737.737,0,0,1-.3-.64,24.414,24.414,0,0,0-.58-2.88.755.755,0,0,1,.62-1.06.733.733,0,0,1,1.02.52,13.519,13.519,0,0,1,.42,1.64q.2.92.28,1.5A.8.8,0,0,1,2.96-11.04Zm9-.02H15.4v-2.42a.424.424,0,0,0-.48-.48H12.44a.424.424,0,0,0-.48.48ZM26.6,1.72A1.086,1.086,0,0,1,25.36.94q-.3-1.02.8-.98a.215.215,0,0,0,.22-.24V-1.66H24.26V.76a.866.866,0,0,1-.98.98.875.875,0,0,1-1-.98V-7.52h-.66a.46.46,0,0,1-.52-.52V-9.56a1.067,1.067,0,0,1,.29-.79,1.067,1.067,0,0,1,.79-.29h.06v-4.38a1.271,1.271,0,0,1,.36-.94,1.271,1.271,0,0,1,.94-.36h3.62a1.271,1.271,0,0,1,.94.36,1.271,1.271,0,0,1,.36.94v4.38h.66a.46.46,0,0,1,.52.52v1.74h8.64a.689.689,0,0,1,.78.78.7.7,0,0,1-.78.8h-8a.649.649,0,0,1-.48-.18.649.649,0,0,1-.18-.48v-.06H28.38V-.26A3.461,3.461,0,0,1,28.26.78a1.225,1.225,0,0,1-.54.62A2.428,2.428,0,0,1,26.6,1.72Zm3.44-.22A.742.742,0,0,1,29.2.66a.742.742,0,0,1,.84-.84h1.7q-.2-.54-.36-.9a.641.641,0,0,1,.4-1.02l.44-.16H31.2a.865.865,0,0,1-.64-.24.865.865,0,0,1-.24-.64V-4.86a1.271,1.271,0,0,1,.36-.94,1.271,1.271,0,0,1,.94-.36h5.5a1.271,1.271,0,0,1,.94.36,1.271,1.271,0,0,1,.36.94v1.3a1.271,1.271,0,0,1-.36.94,1.271,1.271,0,0,1-.94.36h-.56l.66.16q.52.12.24.62-.1.18-.32.54-.28.52-.42.76h1.72a.742.742,0,0,1,.84.84.742.742,0,0,1-.84.84h-8.4ZM33.6-.18h1.36a18.807,18.807,0,0,0,.78-2.08H32.72A7.132,7.132,0,0,1,33.6-.18ZM24.26-3.26h2.12v-.92H24.26Zm8.44-.4h3.26a.424.424,0,0,0,.48-.48v-.14a.424.424,0,0,0-.48-.48H32.7a.424.424,0,0,0-.48.48v.14A.424.424,0,0,0,32.7-3.66ZM24.26-5.74h2.12v-.88H24.26ZM22.8-8.22h5.08v-.46a.3.3,0,0,0-.34-.34H23.28a.424.424,0,0,0-.48.48Zm8.54-.84a1.271,1.271,0,0,1-.94-.36,1.271,1.271,0,0,1-.36-.94v-3.6a1.271,1.271,0,0,1,.36-.94,1.271,1.271,0,0,1,.94-.36h.9v-.84a.725.725,0,0,1,.82-.82.725.725,0,0,1,.82.82v.84h.86v-.84a.734.734,0,0,1,.84-.82.725.725,0,0,1,.82.82v.84h1.22a1.067,1.067,0,0,1,.79.29,1.067,1.067,0,0,1,.29.79v3.82a1.271,1.271,0,0,1-.36.94,1.271,1.271,0,0,1-.94.36H31.34Zm.8-1.52h.48v-.88h-.86v.5A.336.336,0,0,0,32.14-10.58Zm1.74,0h.86v-.88h-.86Zm2.12,0h.72a.141.141,0,0,0,.16-.16v-.72H36Zm-12.08-.06h.7v-1.88a1.271,1.271,0,0,1,.36-.94,1.271,1.271,0,0,1,.94-.36h.78v-.48a.3.3,0,0,0-.34-.34H24.4a.424.424,0,0,0-.48.48v3.52Zm1.94,0h.84v-1.84h-.48a.318.318,0,0,0-.36.36v1.48Zm5.9-2.26h.86v-.86H31.9a.124.124,0,0,0-.14.14Zm2.12,0h.86v-.86h-.86v.86Zm2.12,0h.88v-.5a.318.318,0,0,0-.36-.36H36Z" transform="translate(948 802)" fill="#fff"/>
    <path id="路径_6924" data-name="路径 6924" d="M5.32,1.9A1.167,1.167,0,0,1,4,.58V-4.6q-.5.16-1.46.44A1.193,1.193,0,0,1,.88-5.18,1.708,1.708,0,0,1,.92-6.3a1.3,1.3,0,0,1,.9-.56Q3.02-7.14,4-7.4v-3.32H2.98A9.932,9.932,0,0,1,2.72-9.7q-.22.68-.59.81a1.152,1.152,0,0,1-.97-.27,1.8,1.8,0,0,1-.6-.6,1.218,1.218,0,0,1,.02-.84,24.588,24.588,0,0,0,.62-4.08q.1-1.4,1.36-1.18a1.094,1.094,0,0,1,1.02,1.3q-.02.18-.07.54t-.07.54H4v-2.3A1.167,1.167,0,0,1,5.32-17.1a1.167,1.167,0,0,1,1.32,1.32v2.3h.78a.566.566,0,0,1,.64.64v1.16h4.16v-1.24H10.2a1.158,1.158,0,0,1-1.3-1.32,1.149,1.149,0,0,1,1.3-1.3h2.02v-.16a1.255,1.255,0,0,1,1.42-1.42,1.255,1.255,0,0,1,1.42,1.42v.16h2.18a1.149,1.149,0,0,1,1.3,1.3,1.158,1.158,0,0,1-1.3,1.32H15.06v1.24h2.98a1.184,1.184,0,0,1,1.34,1.34A1.184,1.184,0,0,1,18.04-9h-.7v1.48h.48A1.167,1.167,0,0,1,19.14-6.2a1.176,1.176,0,0,1-1.32,1.34h-.48v3.62A4.881,4.881,0,0,1,17.12.42a1.817,1.817,0,0,1-.9.94,6.054,6.054,0,0,1-1.96.46q-1.6.04-1.94-1.14a1.22,1.22,0,0,1,.16-1.32,2.117,2.117,0,0,1,1.44-.34h.16a.639.639,0,0,0,.33-.06q.09-.06.09-.26V-4.86H11.14a19.182,19.182,0,0,1,1.34,1.62,1.073,1.073,0,0,1,.22.9,1.4,1.4,0,0,1-.64.74A1.5,1.5,0,0,1,11-1.26a1.191,1.191,0,0,1-.82-.68q-.42-.6-.76-1.04a.958.958,0,0,1-.26-.82,1.064,1.064,0,0,1,.52-.7l.56-.36H9.12a.932.932,0,0,1-.69-.25.932.932,0,0,1-.25-.69v-.06l-1.54.48V.58A1.167,1.167,0,0,1,5.32,1.9ZM8.36-7.52H14.5V-9H9a1.271,1.271,0,0,1-.94-.36,1.271,1.271,0,0,1-.36-.94v-.42H6.64v2.6l.84-.22q.72-.18.84.52ZM24.98,1.84A1.176,1.176,0,0,1,23.64.52V-3.92q-.38,1.06-.72,1.8-.56,1.08-1,1.09t-.9-1.09a2.19,2.19,0,0,1-.18-.99,2.025,2.025,0,0,1,.38-.93,18.668,18.668,0,0,0,1.74-3.72h-.68a1.193,1.193,0,0,1-1.34-1.36,1.184,1.184,0,0,1,1.34-1.34h1.36v-.82L22.58-11a.888.888,0,0,1-.71-.08.706.706,0,0,1-.31-.54,19.073,19.073,0,0,0-.48-2.9.938.938,0,0,1,.76-1.28.9.9,0,0,1,1.24.68,23.04,23.04,0,0,1,.56,2.76v-3.38a1.176,1.176,0,0,1,1.34-1.32,1.167,1.167,0,0,1,1.32,1.32v3.3q.28-1.12.52-2.56a1.01,1.01,0,0,1,1.37-.94q1.19.24.81,1.54-.56,1.8-.84,2.56a1.107,1.107,0,0,1-.57.62,1.294,1.294,0,0,1-.93.06l-.36-.1v.8h1.16A1.184,1.184,0,0,1,28.8-9.12a1.193,1.193,0,0,1-1.34,1.36H26.3v.22q.92.84,2.08,2.08a1.1,1.1,0,0,1,.38.78,1.682,1.682,0,0,1-.4.82q-.54.72-.98.67t-.88-.85a.865.865,0,0,0-.09-.17.968.968,0,0,0-.11-.15V.52A1.167,1.167,0,0,1,24.98,1.84Zm4.34-.28A1.184,1.184,0,0,1,27.98.22a1.184,1.184,0,0,1,1.34-1.34h.3v-13.9a1.271,1.271,0,0,1,.36-.94,1.271,1.271,0,0,1,.94-.36h5.84a1.271,1.271,0,0,1,.94.36,1.271,1.271,0,0,1,.36.94v13.9h.04A1.158,1.158,0,0,1,39.4.2a1.193,1.193,0,0,1-1.34,1.36H29.32Zm3.06-2.68h2.78v-2.5H32.38Zm0-5.08h2.78V-8.66H32.38Zm0-5.04h2.78v-1.92a.424.424,0,0,0-.48-.48H32.86a.424.424,0,0,0-.48.48Z" transform="translate(1068 802)" fill="#fff"/>
    <g id="组_4853" data-name="组 4853" transform="translate(0 905)">
      <rect id="矩形_3599" data-name="矩形 3599" width="1148" height="56" fill="#48d7dd"/>
      <path id="路径_7095" data-name="路径 7095" d="M-84,.336A5.48,5.48,0,0,1-88.464-1.8q-1.92-2.4-1.92-6.84,0-4.7,2.088-7.224A5.915,5.915,0,0,1-83.52-18.1a6.657,6.657,0,0,1,3.888,1.2,1.3,1.3,0,0,1,.516.876,1.388,1.388,0,0,1-.444.924,1.472,1.472,0,0,1-2.256.192,3.5,3.5,0,0,0-1.488-.36,3.126,3.126,0,0,0-2.64,1.32,8.231,8.231,0,0,0-1.224,4.656,5.2,5.2,0,0,1,1.752-1.392,4.259,4.259,0,0,1,1.9-.5,4.913,4.913,0,0,1,3.672,1.368,5.835,5.835,0,0,1,1.416,4.224,5.843,5.843,0,0,1-1.656,4.32A5.224,5.224,0,0,1-84,.336Zm-.072-2.664a2.113,2.113,0,0,0,1.7-.816,3.852,3.852,0,0,0,.7-2.436,3.636,3.636,0,0,0-.672-2.364,2.364,2.364,0,0,0-1.848-.744,3.482,3.482,0,0,0-2.9,1.872,7.156,7.156,0,0,0,1.08,3.456A2.333,2.333,0,0,0-84.072-2.328Zm18,4.392A1.209,1.209,0,0,1-67.44.7V-6.552A28.219,28.219,0,0,1-69-3.36q-.552.84-.972.8t-.876-.948a1.894,1.894,0,0,1-.228-.96,1.789,1.789,0,0,1,.4-.888,23.745,23.745,0,0,0,2.856-5.592H-69.5a1.177,1.177,0,0,1-1.32-1.344,1.167,1.167,0,0,1,1.32-1.32h2.064v-2.784q-1.248.24-1.848.336a1.153,1.153,0,0,1-1.392-.816q-.432-1.224.984-1.488A33.617,33.617,0,0,0-64.68-19.7a1.391,1.391,0,0,1,1.7.5q1.1,1.3-.5,1.848a6.221,6.221,0,0,1-.912.264q-.216.072-.312.1v3.384h1.224a1.167,1.167,0,0,1,1.32,1.32,1.177,1.177,0,0,1-1.32,1.344H-64.7v.7q.432.36,1.536,1.512,1.032,1.08,1.464,1.584V-11.4a1.526,1.526,0,0,1,.432-1.128,1.526,1.526,0,0,1,1.128-.432h3v-.984h-4.248a.976.976,0,0,1-1.1-1.1.976.976,0,0,1,1.1-1.1h4.248V-17.16h-.288q-2.16.1-3.18.12a1.168,1.168,0,0,1-1.284-.912q-.36-1.2,1.08-1.248a80.281,80.281,0,0,0,9.072-.792A1.049,1.049,0,0,1-51-19.92a2,2,0,0,1,.576.552q.528.7.408,1.092t-.96.54q-1.416.216-3.456.384v1.2h4.008a.976.976,0,0,1,1.1,1.1.976.976,0,0,1-1.1,1.1h-4.008v.984h3.168a1.526,1.526,0,0,1,1.128.432A1.526,1.526,0,0,1-49.7-11.4v4.92a1.526,1.526,0,0,1-.432,1.128,1.526,1.526,0,0,1-1.128.432h-3.168v1.1h3.648a.955.955,0,0,1,1.08,1.08.955.955,0,0,1-1.08,1.08h-3.648v1.08h4.464A1,1,0,0,1-48.84.552,1,1,0,0,1-49.968,1.68h-12.12A1,1,0,0,1-63.216.552,1,1,0,0,1-62.088-.576h4.944v-1.08h-3.648a.955.955,0,0,1-1.08-1.08.955.955,0,0,1,1.08-1.08h3.648v-1.1h-3a1.526,1.526,0,0,1-1.128-.432A1.526,1.526,0,0,1-61.7-6.48v-.552l-.84,1.128a.912.912,0,0,1-.7.456.649.649,0,0,1-.576-.432Q-64.08-6.336-64.7-7.3V.7A1.209,1.209,0,0,1-66.072,2.064Zm7.344-8.952h1.584V-8.112h-2.112v.7A.467.467,0,0,0-58.728-6.888Zm4.3,0h1.7a.424.424,0,0,0,.48-.48v-.744h-2.184Zm-4.824-2.9h2.112v-1.176H-58.8a.4.4,0,0,0-.456.456Zm4.824,0h2.184v-.672a.445.445,0,0,0-.5-.5h-1.68ZM-39,2.016a1.943,1.943,0,0,1-2.088-1.1q-.792-1.8,1.776-1.752h1.176a.892.892,0,0,0,.492-.1.389.389,0,0,0,.132-.336V-4.8h-7.464A1.2,1.2,0,0,1-46.32-6.168a1.188,1.188,0,0,1,1.344-1.344h7.464v-.84a.594.594,0,0,1,.672-.672h.336a14.986,14.986,0,0,0,2.16-1.8h-6.624a1.146,1.146,0,0,1-1.3-1.3,1.146,1.146,0,0,1,1.3-1.3h9.648q.888,0,1.128.5a1.641,1.641,0,0,1-.288,1.44A13.083,13.083,0,0,1-34.536-7.7v.192h7.584a1.188,1.188,0,0,1,1.344,1.344A1.2,1.2,0,0,1-26.952-4.8h-7.584v3.6A4.036,4.036,0,0,1-34.848.6a2.073,2.073,0,0,1-1.176.96A9.474,9.474,0,0,1-39,2.016Zm-5.832-13.848a1.23,1.23,0,0,1-1.392-1.392v-3.24a1.526,1.526,0,0,1,.432-1.128,1.526,1.526,0,0,1,1.128-.432h7.128v-.816a1.315,1.315,0,0,1,1.488-1.488A1.315,1.315,0,0,1-34.56-18.84v.816h7.2a1.526,1.526,0,0,1,1.128.432,1.526,1.526,0,0,1,.432,1.128V-13.3a1.294,1.294,0,0,1-1.464,1.464A1.294,1.294,0,0,1-28.728-13.3v-1.488a.509.509,0,0,0-.576-.576h-13.56a.509.509,0,0,0-.576.576v1.56A1.23,1.23,0,0,1-44.832-11.832ZM-21.6,1.416A1,1,0,0,1-22.728.288,1,1,0,0,1-21.6-.84h8.088V-2.112h-6.432A.944.944,0,0,1-21-3.192a.933.933,0,0,1,1.056-1.056h6.432v-1.08h-5.16A1.526,1.526,0,0,1-19.8-5.76a1.526,1.526,0,0,1-.432-1.128v-4.488A1.526,1.526,0,0,1-19.8-12.5a1.526,1.526,0,0,1,1.128-.432h5.16v-.912H-21.5a.987.987,0,0,1-1.1-1.128.976.976,0,0,1,1.1-1.1h7.992v-1.056q-3.768.144-5.688.168a1.387,1.387,0,0,1-.876-.192,1.3,1.3,0,0,1-.444-.744q-.312-1.224,1.128-1.272A123.617,123.617,0,0,0-5.616-20.208a1.018,1.018,0,0,1,.744.12,1.543,1.543,0,0,1,.528.6,1.4,1.4,0,0,1,.276,1.08q-.132.384-.9.5-2.5.336-5.712.576v1.248h8.232a.976.976,0,0,1,1.1,1.1.987.987,0,0,1-1.1,1.128H-10.68v.912h5.5a1.526,1.526,0,0,1,1.128.432,1.526,1.526,0,0,1,.432,1.128v4.488A1.526,1.526,0,0,1-4.056-5.76a1.526,1.526,0,0,1-1.128.432h-5.5v1.08h6.888A.933.933,0,0,1-2.736-3.192a.944.944,0,0,1-1.056,1.08H-10.68V-.84h8.352A1,1,0,0,1-1.2.288,1,1,0,0,1-2.328,1.416H-21.6ZM-17.016-7.2h3.5V-8.28h-3.96v.624A.4.4,0,0,0-17.016-7.2Zm6.336,0h3.6A.509.509,0,0,0-6.5-7.776v-.5H-10.68Zm-6.792-2.784h3.96v-1.08H-16.9a.509.509,0,0,0-.576.576Zm6.792,0H-6.5v-.624a.4.4,0,0,0-.456-.456h-3.72Z" transform="translate(1112 37)" fill="#fff"/>
    </g>
    <path id="路径_6925" data-name="路径 6925" d="M15.52.52a12.143,12.143,0,0,1-9.48-4Q2.32-7.6,2.32-14.62T6.12-25.8a12.444,12.444,0,0,1,9.64-4.08,11.013,11.013,0,0,1,7.56,2.8,1.292,1.292,0,0,1-.04,1.96,1.365,1.365,0,0,1-2.24.2,8.193,8.193,0,0,0-5.2-1.72,8.707,8.707,0,0,0-7.08,3.2q-2.64,3.2-2.64,8.68,0,5.6,2.52,8.8a8.764,8.764,0,0,0,7.24,3.24A7.51,7.51,0,0,0,21.2-4.44v-7.68H16.52A1.361,1.361,0,0,1,15-13.68a1.344,1.344,0,0,1,1.52-1.52h5.8a2.243,2.243,0,0,1,1.66.62,2.243,2.243,0,0,1,.62,1.66v8.84a2.6,2.6,0,0,1-.76,1.92A12.72,12.72,0,0,1,15.52.52ZM40,.52a9.758,9.758,0,0,1-7.36-3,11.552,11.552,0,0,1-3.04-8.36,11.908,11.908,0,0,1,3-8.36,8.933,8.933,0,0,1,6.8-3.08,7.911,7.911,0,0,1,6.4,2.76,11.362,11.362,0,0,1,2.24,7.44q0,.48-.08,1.28t-1,.8H33.24a8.235,8.235,0,0,0,2.14,5.54A6.713,6.713,0,0,0,40.44-2.4a8.955,8.955,0,0,0,4.2-1,1.254,1.254,0,0,1,1.92.52,1.176,1.176,0,0,1-.4,1.76A12.249,12.249,0,0,1,40,.52ZM33.2-12.6H44.84a7.765,7.765,0,0,0-1.42-5.02,4.85,4.85,0,0,0-3.98-1.74,5.558,5.558,0,0,0-4.12,1.76A8.2,8.2,0,0,0,33.2-12.6ZM55.24,0A1.609,1.609,0,0,1,53.4-1.8V-20.24q0-1.48,1.56-1.48a1.456,1.456,0,0,1,1.6,1.4l.16,1.72h.12a16.046,16.046,0,0,1,3.32-2.6,7.978,7.978,0,0,1,3.96-1.08q6.64,0,6.64,8.52V-1.8A1.591,1.591,0,0,1,68.96,0a1.609,1.609,0,0,1-1.84-1.8V-13.28a7.771,7.771,0,0,0-.98-4.42A3.584,3.584,0,0,0,63-19.08a5.732,5.732,0,0,0-3,.84,16.312,16.312,0,0,0-2.96,2.48V-1.8A1.591,1.591,0,0,1,55.24,0ZM83.52.52a12.344,12.344,0,0,1-7-2.2,1.243,1.243,0,0,1-.24-1.96,1.365,1.365,0,0,1,2.16-.32,9.284,9.284,0,0,0,5.2,1.64,4.807,4.807,0,0,0,3.24-1,3.053,3.053,0,0,0,1.04-2.4,3.094,3.094,0,0,0-1.56-2.56,18.6,18.6,0,0,0-3.4-1.56,16.662,16.662,0,0,1-4.36-2.2,4.976,4.976,0,0,1-2.12-4.08,5.473,5.473,0,0,1,1.96-4.36,8.139,8.139,0,0,1,5.52-1.8A10.589,10.589,0,0,1,89.6-20.6a1.174,1.174,0,0,1,.24,1.92,1.413,1.413,0,0,1-2.16.36,7,7,0,0,0-3.72-1.08,4.484,4.484,0,0,0-3,.92A2.761,2.761,0,0,0,80-16.3a2.6,2.6,0,0,0,1.32,2.22,16.94,16.94,0,0,0,3.08,1.4,3.14,3.14,0,0,0,.44.16l.04.04a18.153,18.153,0,0,1,4.48,2.2,5.274,5.274,0,0,1,2.08,4.36A5.7,5.7,0,0,1,89.4-1.4,8.441,8.441,0,0,1,83.52.52Zm21.8,0a9.758,9.758,0,0,1-7.36-3,11.552,11.552,0,0,1-3.04-8.36,11.908,11.908,0,0,1,3-8.36,8.933,8.933,0,0,1,6.8-3.08,7.911,7.911,0,0,1,6.4,2.76,11.362,11.362,0,0,1,2.24,7.44q0,.48-.08,1.28t-1,.8H98.56a8.235,8.235,0,0,0,2.14,5.54,6.713,6.713,0,0,0,5.06,2.06,8.955,8.955,0,0,0,4.2-1,1.254,1.254,0,0,1,1.92.52,1.176,1.176,0,0,1-.4,1.76A12.249,12.249,0,0,1,105.32.52ZM98.52-12.6h11.64a7.765,7.765,0,0,0-1.42-5.02,4.85,4.85,0,0,0-3.98-1.74,5.558,5.558,0,0,0-4.12,1.76A8.2,8.2,0,0,0,98.52-12.6ZM120.56,0a1.609,1.609,0,0,1-1.84-1.8V-20.24q0-1.48,1.56-1.48a1.456,1.456,0,0,1,1.6,1.4l.16,1.72h.12a16.046,16.046,0,0,1,3.32-2.6,7.978,7.978,0,0,1,3.96-1.08q6.64,0,6.64,8.52V-1.8a1.591,1.591,0,0,1-1.8,1.8,1.609,1.609,0,0,1-1.84-1.8V-13.28a7.771,7.771,0,0,0-.98-4.42,3.584,3.584,0,0,0-3.14-1.38,5.732,5.732,0,0,0-3,.84,16.312,16.312,0,0,0-2.96,2.48V-1.8A1.591,1.591,0,0,1,120.56,0Z" transform="translate(68 870)" fill="#fff"/>
    <path id="路径_6926" data-name="路径 6926" d="M2.82,0A.548.548,0,0,1,2.2-.62V-13.9a.548.548,0,0,1,.62-.62H9.68a.283.283,0,0,1,.32.32q0,.34-.32.34H3.14a.177.177,0,0,0-.2.2v5.58h5.6a.283.283,0,0,1,.32.32q0,.34-.32.34H2.94V-.86a.177.177,0,0,0,.2.2H9.9a.283.283,0,0,1,.32.32q0,.34-.32.34H2.82ZM14.06,0a.548.548,0,0,1-.62-.62V-14.16q0-.36.38-.36a.318.318,0,0,1,.36.36V-.86a.177.177,0,0,0,.2.2h6.28a.283.283,0,0,1,.32.32q0,.34-.32.34h-6.6Z" transform="translate(478 874)" fill="#fff"/>
    <path id="路径_6927" data-name="路径 6927" d="M2.94,0a.811.811,0,0,1-.6-.22.811.811,0,0,1-.22-.6V-13.98a.53.53,0,0,1,.6-.6.53.53,0,0,1,.6.6V-1.04H9.44a.46.46,0,0,1,.52.52A.46.46,0,0,1,9.44,0H2.94Z" transform="translate(603 874)" fill="#fff"/>
    <path id="路径_6928" data-name="路径 6928" d="M2.94,0A.822.822,0,0,1,2-.92V-13.5a1.136,1.136,0,0,1,.32-.84,1.136,1.136,0,0,1,.84-.32H6.6q5.12,0,5.12,4.12a4.135,4.135,0,0,1-.9,2.74A4.481,4.481,0,0,1,8.4-6.42l3.14,5.34a.8.8,0,0,1,.11.79q-.17.29-.73.29h-.06a1.363,1.363,0,0,1-.69-.19A1.338,1.338,0,0,1,9.66-.7L6.5-6.22H3.86v5.3A.813.813,0,0,1,2.94,0Zm.92-7.72H6.32q3.56,0,3.56-2.82a2.31,2.31,0,0,0-.92-2.04,4.723,4.723,0,0,0-2.64-.58H3.86Z" transform="translate(722 874)" fill="#fff"/>
    <path id="路径_6929" data-name="路径 6929" d="M2.98,0A.919.919,0,0,1,1.94-1.04V-13.42a1.271,1.271,0,0,1,.36-.94,1.271,1.271,0,0,1,.94-.36h.34a1.455,1.455,0,0,1,.84.26,1.3,1.3,0,0,1,.52.7L7.3-7.28q.18.52.52,1.6.3.92.46,1.38h.1q.16-.48.46-1.42.32-1.04.5-1.56l2.32-6.48a1.3,1.3,0,0,1,.52-.7,1.455,1.455,0,0,1,.84-.26h1.06a.6.6,0,0,1,.44.16.6.6,0,0,1,.16.44V-1.08A.955.955,0,0,1,13.6,0a.955.955,0,0,1-1.08-1.08v-6.2q0-1.22.28-4.28a2.709,2.709,0,0,0,.02-.28h-.08l-1.18,3.4L9.24-2.1a.916.916,0,0,1-.96.68H8.22a.857.857,0,0,1-.88-.62L4.98-8.44l-1.16-3.4H3.74q.02.28.08.9.2,2.62.2,3.66v6.24A.919.919,0,0,1,2.98,0Z" transform="translate(840 874)" fill="#fff"/>
    <path id="路径_6930" data-name="路径 6930" d="M3.08,0a1.231,1.231,0,0,1-.91-.35,1.231,1.231,0,0,1-.35-.91V-13.5a1.271,1.271,0,0,1,.36-.94,1.271,1.271,0,0,1,.94-.36h3.6q5.36,0,5.36,3.64a3.638,3.638,0,0,1-.54,1.94,2.763,2.763,0,0,1-1.48,1.26v.1a3.732,3.732,0,0,1,2,1.14,3.523,3.523,0,0,1,.78,2.36,3.8,3.8,0,0,1-1.64,3.3A7.05,7.05,0,0,1,7.1,0H3.08Zm1.7-2.28H6.84q3.12,0,3.12-2.26,0-2.04-3.12-2.04H4.78v4.3Zm0-6.5H6.5q2.7,0,2.7-1.94a1.561,1.561,0,0,0-.66-1.4,3.723,3.723,0,0,0-2-.42H4.78v3.76Z" transform="translate(961 874)" fill="#fff"/>
    <path id="路径_6931" data-name="路径 6931" d="M3.52,0a1.582,1.582,0,0,1-1.8-1.78V-13.1a1.582,1.582,0,0,1,1.8-1.78A1.573,1.573,0,0,1,5.3-13.1v3.88h4.9v-3.9a1.565,1.565,0,0,1,1.78-1.76,1.556,1.556,0,0,1,1.76,1.76V-1.76A1.556,1.556,0,0,1,11.98,0,1.565,1.565,0,0,1,10.2-1.76V-6.12H5.3v4.34A1.573,1.573,0,0,1,3.52,0Z" transform="translate(1081 874)" fill="#fff"/>
  </g>
</svg>
